<svg width="32" height="32" viewBox="0 0 32 32" fill="none" xmlns="http://www.w3.org/2000/svg">
<g clip-path="url(#clip0_62_1537)">
<path fill-rule="evenodd" clip-rule="evenodd" d="M1.27733 21.248C1.43535 21.2478 1.5873 21.3088 1.70137 21.4182C1.81544 21.5275 1.88279 21.6768 1.88933 21.8346V25.4733C1.87907 25.6286 1.81014 25.7743 1.69649 25.8806C1.58285 25.987 1.433 26.0462 1.27733 26.0462C1.12166 26.0462 0.971819 25.987 0.858175 25.8806C0.744532 25.7743 0.675592 25.6286 0.665333 25.4733V21.8346C0.671874 21.6768 0.739229 21.5275 0.8533 21.4182C0.967371 21.3088 1.11932 21.2478 1.27733 21.248ZM7.696 18.5346C7.78513 18.5162 7.87723 18.5179 7.96564 18.5395C8.05404 18.5611 8.13653 18.6021 8.20712 18.6596C8.27771 18.717 8.33463 18.7895 8.37376 18.8716C8.41288 18.9538 8.43324 19.0436 8.43333 19.1346V25.4733C8.43333 25.6356 8.36886 25.7913 8.25408 25.9061C8.13931 26.0208 7.98365 26.0853 7.82133 26.0853C7.65902 26.0853 7.50336 26.0208 7.38859 25.9061C7.27381 25.7913 7.20933 25.6356 7.20933 25.4733V20.64L4.98667 22.936C4.93084 22.9949 4.86392 23.0423 4.78974 23.0753C4.71557 23.1082 4.6356 23.1263 4.55444 23.1282C4.47328 23.1302 4.39252 23.1161 4.31682 23.0868C4.24112 23.0575 4.17197 23.0135 4.11333 22.9573C4.0804 22.9243 4.05132 22.8876 4.02667 22.848L0.837333 19.56C0.737429 19.4414 0.68623 19.2894 0.694079 19.1346C0.701927 18.9798 0.768238 18.8337 0.879618 18.7259C0.990998 18.618 1.13915 18.5565 1.29414 18.5537C1.44914 18.5508 1.59943 18.6069 1.71467 18.7106L4.54667 21.6266L7.38267 18.7093C7.46755 18.6217 7.57664 18.5613 7.696 18.536V18.5346ZM10.4533 18.54C10.6121 18.5406 10.7645 18.6028 10.8784 18.7134C10.9923 18.8241 11.0588 18.9746 11.064 19.1333V25.4733C11.0633 25.6351 10.9987 25.79 10.8844 25.9043C10.77 26.0187 10.6151 26.0833 10.4533 26.084C10.2915 26.0836 10.1364 26.0192 10.0219 25.9047C9.90747 25.7903 9.84302 25.6352 9.84267 25.4733V19.1333C9.84751 18.9745 9.91394 18.8238 10.0279 18.713C10.1419 18.6023 10.2944 18.5403 10.4533 18.54ZM13.084 21.2253C13.246 21.2253 13.4014 21.2894 13.5163 21.4035C13.6312 21.5177 13.6963 21.6727 13.6973 21.8346V25.4733C13.6967 25.5941 13.6603 25.7121 13.5929 25.8123C13.5255 25.9125 13.4299 25.9906 13.3183 26.0368C13.2066 26.0829 13.0838 26.0951 12.9653 26.0717C12.8467 26.0483 12.7378 25.9904 12.652 25.9053C12.5378 25.7905 12.4735 25.6353 12.4733 25.4733V21.8346C12.474 21.6729 12.5386 21.518 12.653 21.4036C12.7673 21.2892 12.9223 21.226 13.084 21.2253ZM13.0867 18.4986C13.17 18.5018 13.2518 18.522 13.327 18.558C13.4022 18.5941 13.4693 18.6451 13.524 18.708L16.36 21.628L19.1933 18.708C19.2784 18.6227 19.3867 18.5644 19.5047 18.5404C19.6227 18.5164 19.7452 18.5277 19.8568 18.573C19.9684 18.6182 20.0641 18.6954 20.1321 18.7949C20.2 18.8943 20.2371 19.0116 20.2387 19.132V25.4733C20.238 25.6344 20.174 25.7887 20.0605 25.9029C19.9469 26.0172 19.793 26.0822 19.632 26.084C19.4703 26.0833 19.3153 26.0187 19.201 25.9043C19.0866 25.79 19.022 25.6351 19.0213 25.4733V20.64L16.7987 22.9373C16.6851 23.0535 16.53 23.1199 16.3675 23.1219C16.205 23.1239 16.0484 23.0614 15.932 22.948L15.9253 22.9413C15.9253 22.9386 15.9227 22.9386 15.92 22.9373L12.6467 19.5586C12.5857 19.5021 12.5368 19.4337 12.5031 19.3576C12.4693 19.2816 12.4514 19.1995 12.4504 19.1163C12.4494 19.0331 12.4654 18.9506 12.4973 18.8737C12.5292 18.7969 12.5764 18.7273 12.636 18.6693C12.6958 18.612 12.7665 18.5673 12.8439 18.538C12.9214 18.5086 13.0039 18.4953 13.0867 18.4986ZM22.1493 20.1066C22.2636 20.076 22.3843 20.0791 22.4968 20.1155C22.6094 20.1519 22.709 20.2201 22.7837 20.3119C22.8584 20.4036 22.9049 20.515 22.9178 20.6326C22.9306 20.7502 22.9092 20.869 22.856 20.9746C22.5838 21.4718 22.48 22.0438 22.5603 22.6049C22.6406 23.166 22.9006 23.686 23.3013 24.0869C23.702 24.4877 24.2219 24.7479 24.783 24.8284C25.344 24.9089 25.9161 24.8054 26.4133 24.5333C26.5556 24.4562 26.7224 24.4382 26.8779 24.4831C27.0333 24.528 27.1648 24.6322 27.244 24.7733C27.3221 24.9157 27.3406 25.0832 27.2953 25.2392C27.2501 25.3952 27.1449 25.5268 27.0027 25.6053C26.4388 25.9147 25.8059 26.0766 25.1627 26.076L24.9733 26.0706C24.3218 26.0409 23.6886 25.8456 23.1335 25.5033C22.5783 25.1611 22.1195 24.683 21.8002 24.1143C21.481 23.5456 21.3119 22.9049 21.3088 22.2528C21.3057 21.6006 21.4688 20.9583 21.7827 20.3866C21.8636 20.2495 21.9959 20.1491 22.1493 20.1066ZM23.3013 18.8653C24.0307 18.466 24.8698 18.3139 25.6928 18.4317C26.5159 18.5495 27.2786 18.931 27.8666 19.5188C28.4547 20.1067 28.8363 20.8693 28.9543 21.6924C29.0724 22.5154 28.9204 23.3546 28.5213 24.084C28.4688 24.1804 28.3914 24.261 28.2971 24.3173C28.2028 24.3736 28.0951 24.4035 27.9853 24.404L27.9093 24.3986C27.8325 24.3883 27.7582 24.3634 27.6907 24.3253C27.549 24.2471 27.4439 24.116 27.3985 23.9606C27.353 23.8053 27.3708 23.6383 27.448 23.496C27.7201 22.9986 27.8236 22.4265 27.7432 21.8653C27.6628 21.3042 27.4027 20.7842 27.0019 20.3832C26.6011 19.9823 26.0812 19.722 25.5201 19.6414C24.959 19.5608 24.3868 19.6641 23.8893 19.936C23.8187 19.9808 23.7397 20.0108 23.657 20.0239C23.5744 20.037 23.49 20.033 23.4089 20.0122C23.3279 19.9914 23.252 19.9542 23.1859 19.903C23.1198 19.8517 23.0649 19.7874 23.0247 19.7141C22.9844 19.6407 22.9596 19.5599 22.9518 19.4766C22.944 19.3933 22.9533 19.3093 22.9792 19.2298C23.0052 19.1502 23.0471 19.0769 23.1025 19.0142C23.1579 18.9515 23.2256 18.9008 23.3013 18.8653ZM12.7867 8.49065C14.7613 8.49065 15.048 10.0933 15.048 10.696V14.2266H13.8253V13.6506C13.4787 14.112 12.7693 14.364 12.012 14.364C11.8347 14.364 10.2933 14.324 10.1667 12.8493C10.0573 11.6066 11.0667 10.7026 12.904 10.7026H13.8253C13.8253 9.95198 13.336 9.52131 12.5147 9.52131C11.928 9.53865 11.3627 9.75331 10.9147 10.132L10.4347 9.24665C11.08 8.74131 11.784 8.49065 12.7867 8.49065ZM18.6893 8.62398C20.3733 8.62398 21.4653 9.91731 21.4667 11.4906C21.4667 13.0653 20.368 14.3626 18.6893 14.3626C17.0093 14.3626 15.9107 13.0666 15.9107 11.4933C15.9107 9.91998 17.004 8.62398 18.6893 8.62398ZM27.7573 8.64398C28.664 8.64398 29.36 9.26398 29.3533 10.708V14.2306H28.1333V11.0533C28.1333 10.6373 28.1307 9.74665 27.2933 9.74665C26.456 9.74665 26.456 10.636 26.456 10.864V14.2293H25.2693V10.864C25.2693 10.6373 25.268 9.74665 24.4293 9.74665C23.592 9.74665 23.592 10.6373 23.592 11.0533V14.2306H22.3693V8.85731H23.592V9.33331C23.7357 9.12954 23.9242 8.96151 24.1432 8.84222C24.3621 8.72292 24.6056 8.65555 24.8547 8.64531C25.3853 8.64531 25.868 8.90265 26.164 9.55998C26.3197 9.27566 26.5508 9.03983 26.832 8.87845C27.1131 8.71706 27.4333 8.63639 27.7573 8.64531V8.64398ZM3.63333 9.80665L5.576 7.44398H7.09333L4.41467 10.76L7.268 14.2293H5.65333L3.63333 11.728L1.61333 14.2293H0L2.85067 10.76L0.173333 7.44398H1.69067L3.63467 9.80665H3.63333ZM9.16533 14.2293H7.944V8.85865H9.16533V14.2293ZM31.8187 14.2293H30.5973V8.85865H31.8187V14.2293ZM13.2333 11.6133C11.8267 11.6133 11.4213 12.1626 11.4653 12.6026C11.508 13.0413 11.8973 13.3186 12.4747 13.3186C12.823 13.3193 13.1581 13.1855 13.41 12.945C13.6619 12.7045 13.8112 12.3759 13.8267 12.028L13.8293 11.6146H13.2333V11.6133ZM18.6907 9.73331C17.8067 9.73331 17.112 10.3826 17.112 11.4933C17.112 12.6026 17.8053 13.2533 18.6907 13.2533C19.5733 13.2533 20.2667 12.6 20.2667 11.4933C20.2667 10.384 19.5733 9.73331 18.6907 9.73331ZM8.556 6.66798C8.65916 6.66449 8.76194 6.68213 8.85803 6.71981C8.95412 6.75749 9.0415 6.81441 9.1148 6.88708C9.18809 6.95975 9.24576 7.04664 9.28426 7.1424C9.32275 7.23817 9.34127 7.3408 9.33867 7.44398C9.33033 7.64614 9.24415 7.83725 9.09816 7.97734C8.95217 8.11743 8.75767 8.19565 8.55533 8.19565C8.353 8.19565 8.1585 8.11743 8.01251 7.97734C7.86652 7.83725 7.78034 7.64614 7.772 7.44398C7.76959 7.34067 7.78827 7.23796 7.82691 7.14212C7.86554 7.04628 7.92331 6.95932 7.99669 6.88657C8.07007 6.81381 8.15752 6.75679 8.25368 6.71897C8.34985 6.68116 8.45272 6.66469 8.556 6.66798ZM31.2107 6.66798C31.3143 6.66395 31.4176 6.68117 31.5143 6.71857C31.611 6.75597 31.6991 6.81276 31.773 6.88545C31.8469 6.95814 31.9052 7.04518 31.9443 7.14124C31.9833 7.23729 32.0023 7.34032 32 7.44398C31.9883 7.64366 31.9008 7.83133 31.7553 7.96858C31.6098 8.10583 31.4174 8.18227 31.2173 8.18227C31.0173 8.18227 30.8249 8.10583 30.6794 7.96858C30.5339 7.83133 30.4463 7.64366 30.4347 7.44398C30.4311 7.2894 30.4747 7.13741 30.5598 7.00828C30.6448 6.87916 30.7672 6.77905 30.9107 6.72131C31.0061 6.68354 31.1081 6.6654 31.2107 6.66798Z" fill="white"/>
</g>
<defs>
<clipPath id="clip0_62_1537">
<rect width="32" height="32" fill="white"/>
</clipPath>
</defs>
</svg>
