<svg width="25" height="25" viewBox="0 0 25 25" fill="none" xmlns="http://www.w3.org/2000/svg">
<g id="ic_ImageUp">
<path id="Vector" d="M10.8 21.5H5.5C4.96957 21.5 4.46086 21.2893 4.08579 20.9142C3.71071 20.5391 3.5 20.0304 3.5 19.5V5.5C3.5 4.96957 3.71071 4.46086 4.08579 4.08579C4.46086 3.71071 4.96957 3.5 5.5 3.5H19.5C20.0304 3.5 20.5391 3.71071 20.9142 4.08579C21.2893 4.46086 21.5 4.96957 21.5 5.5V15.5L18.4 12.4C18.0237 12.0312 17.517 11.8258 16.9901 11.8284C16.4632 11.831 15.9586 12.0415 15.586 12.414L6.5 21.5" stroke="#353941" stroke-width="2" stroke-linecap="round" stroke-linejoin="round"/>
<path id="Vector_2" d="M14.5 20L17.5 17L20.5 20" stroke="#353941" stroke-width="2" stroke-linecap="round" stroke-linejoin="round"/>
<path id="Vector_3" d="M17.5 22.5V17" stroke="#353941" stroke-width="2" stroke-linecap="round" stroke-linejoin="round"/>
<path id="Vector_4" d="M9.5 11.5C10.6046 11.5 11.5 10.6046 11.5 9.5C11.5 8.39543 10.6046 7.5 9.5 7.5C8.39543 7.5 7.5 8.39543 7.5 9.5C7.5 10.6046 8.39543 11.5 9.5 11.5Z" stroke="#353941" stroke-width="2" stroke-linecap="round" stroke-linejoin="round"/>
</g>
</svg>
