<svg width="20" height="20" viewBox="0 0 20 20" fill="none" xmlns="http://www.w3.org/2000/svg">
<path fill-rule="evenodd" clip-rule="evenodd" d="M2.93333 3.73333C2.93333 2.26057 3.978 1.06667 5.26667 1.06667H9V0H5.26667C3.46254 0 2 1.67147 2 3.73333V8H2.93333V3.73333ZM2.93333 16.2667C2.93333 17.7394 3.978 18.9333 5.26667 18.9333H9V20H5.26667C3.46254 20 2 18.3285 2 16.2667V12H2.93333V16.2667ZM14.7333 1.06667C16.022 1.06667 17.0667 2.26057 17.0667 3.73333V8H18V3.73333C18 1.67147 16.5375 0 14.7333 0H11V1.06667H14.7333ZM17.0667 16.2667C17.0667 17.7394 16.022 18.9333 14.7333 18.9333H11V20H14.7333C16.5375 20 18 18.3285 18 16.2667V12H17.0667V16.2667Z" fill="#030712"/>
</svg>
