<svg width="20" height="20" viewBox="0 0 20 20" fill="none" xmlns="http://www.w3.org/2000/svg">
<path fill-rule="evenodd" clip-rule="evenodd" d="M4.93333 3.73333C4.93333 2.26057 5.978 1.06667 7.26667 1.06667H9V0H7.26667C5.46254 0 4 1.67147 4 3.73333V8H4.93333V3.73333ZM4.93333 16.2667C4.93333 17.7394 5.978 18.9333 7.26667 18.9333H9V20H7.26667C5.46254 20 4 18.3285 4 16.2667V12H4.93333V16.2667ZM13.7333 1.06667C15.022 1.06667 16.0667 2.26057 16.0667 3.73333V8H17V3.73333C17 1.67147 15.5375 0 13.7333 0H12V1.06667H13.7333ZM16.0667 16.2667C16.0667 17.7394 15.022 18.9333 13.7333 18.9333H12V20H13.7333C15.5375 20 17 18.3285 17 16.2667V12H16.0667V16.2667Z" fill="#030712"/>
</svg>
