<svg width="26" height="26" viewBox="0 0 26 26" fill="none" xmlns="http://www.w3.org/2000/svg">
<g opacity="0.8">
<path d="M3.42199 4.84399C3.42199 4.04834 3.73806 3.28528 4.30067 2.72267C4.86328 2.16006 5.62634 1.84399 6.42199 1.84399H14.998C15.6282 1.84381 16.2496 1.99253 16.8114 2.27805C17.3732 2.56357 17.8596 2.97781 18.231 3.48699L21.81 8.39699C22.3089 9.08123 22.5778 9.90616 22.578 10.753V21.156C22.578 21.9516 22.2619 22.7147 21.6993 23.2773C21.1367 23.8399 20.3736 24.156 19.578 24.156H6.42099C5.62534 24.156 4.86228 23.8399 4.29967 23.2773C3.73706 22.7147 3.42099 21.9516 3.42099 21.156L3.42199 4.84399Z" fill="#B9A9FF" fill-opacity="0.13"/>
<path d="M10.032 9.45016C10.032 9.27369 10.0446 9.13083 10.0698 9.02159C10.1034 8.91234 10.1623 8.82831 10.2463 8.76949C10.3303 8.71066 10.448 8.67285 10.5992 8.65604C10.7589 8.63083 10.9648 8.61823 11.2169 8.61823H12.9942C13.5488 8.61823 14.0152 8.66444 14.3934 8.75688C14.7799 8.84932 15.095 9.00478 15.3387 9.22327C15.5824 9.44175 15.7589 9.73167 15.8681 10.093C15.9774 10.446 16.032 10.8829 16.032 11.4039C16.032 11.9249 15.9732 12.3703 15.8555 12.7401C15.7379 13.1098 15.5572 13.4123 15.3135 13.6476C15.0698 13.8829 14.7547 14.0552 14.3681 14.1644C13.99 14.2737 13.532 14.3283 12.9942 14.3283H11.6707V16.8745C11.6707 17.0426 11.6076 17.1939 11.4816 17.3283C11.3555 17.4628 11.1455 17.53 10.8513 17.53C10.5572 17.53 10.3471 17.4586 10.2211 17.3157C10.095 17.1728 10.032 17.0258 10.032 16.8745V9.45016ZM11.6707 12.9165H12.9942C13.532 12.9165 13.8976 12.7989 14.0908 12.5636C14.2925 12.3283 14.3934 11.946 14.3934 11.4165C14.3934 11.1392 14.3555 10.9123 14.2799 10.7359C14.2127 10.5594 14.116 10.4207 13.99 10.3199C13.8639 10.2107 13.7169 10.1392 13.5488 10.1056C13.3808 10.0636 13.1959 10.0426 12.9942 10.0426H11.6707V12.9165Z" fill="#B9A9FF"/>
<path d="M6.422 2.34399H14.998C15.5141 2.34401 16.0237 2.45814 16.4905 2.67822C16.9573 2.8983 17.3696 3.21888 17.698 3.61699L17.826 3.78199L21.406 8.69199C21.842 9.28999 22.077 10.012 22.077 10.754V21.156C22.077 21.819 21.8136 22.4549 21.3448 22.9238C20.8759 23.3926 20.24 23.656 19.577 23.656H6.422C5.75896 23.656 5.12307 23.3926 4.65423 22.9238C4.18539 22.4549 3.922 21.819 3.922 21.156V4.84399C3.922 4.18095 4.18539 3.54507 4.65423 3.07623C5.12307 2.60739 5.75896 2.34399 6.422 2.34399Z" stroke="#D6CFFA" stroke-opacity="0.5"/>
</g>
</svg>
