<svg width="26" height="26" viewBox="0 0 26 26" fill="none" xmlns="http://www.w3.org/2000/svg">
<g opacity="0.8">
<path d="M3.42199 4.84399C3.42199 4.04834 3.73806 3.28528 4.30067 2.72267C4.86328 2.16006 5.62634 1.84399 6.42199 1.84399H14.998C15.6282 1.84381 16.2496 1.99253 16.8114 2.27805C17.3732 2.56357 17.8596 2.97781 18.231 3.48699L21.81 8.39699C22.3091 9.08151 22.578 9.90682 22.578 10.754V21.156C22.578 21.9516 22.2619 22.7147 21.6993 23.2773C21.1367 23.8399 20.3736 24.156 19.578 24.156H6.42099C5.62534 24.156 4.86228 23.8399 4.29967 23.2773C3.73706 22.7147 3.42099 21.9516 3.42099 21.156L3.42199 4.84399Z" fill="#FFD3C8" fill-opacity="0.2"/>
<path d="M6.422 2.34399H14.998C15.5141 2.34401 16.0237 2.45814 16.4905 2.67822C16.9573 2.8983 17.3696 3.21888 17.698 3.61699L17.826 3.78199L21.406 8.69199C21.842 9.28999 22.077 10.012 22.077 10.754V21.156C22.077 21.819 21.8136 22.4549 21.3448 22.9238C20.8759 23.3926 20.24 23.656 19.577 23.656H6.422C5.75896 23.656 5.12307 23.3926 4.65423 22.9238C4.18539 22.4549 3.922 21.819 3.922 21.156V4.84399C3.922 4.18095 4.18539 3.54507 4.65423 3.07623C5.12307 2.60739 5.75896 2.34399 6.422 2.34399Z" stroke="#FFD3C8" stroke-opacity="0.5"/>
</g>
<path opacity="0.9" d="M16.791 15.863C15.9982 15.8106 15.2429 15.5065 14.635 14.995C13.44 15.255 12.304 15.632 11.167 16.095C10.264 17.688 9.42 18.5 8.69 18.5C8.545 18.5 8.37 18.471 8.253 18.384C8.10399 18.3151 7.97803 18.2047 7.89022 18.066C7.80242 17.9273 7.75651 17.7662 7.758 17.602C7.758 17.342 7.816 16.617 10.584 15.43C11.212 14.2845 11.7294 13.0817 12.129 11.838C11.779 11.143 11.022 9.43401 11.546 8.56501C11.721 8.24701 12.071 8.07301 12.449 8.10201C12.741 8.10201 13.032 8.24701 13.207 8.47801C13.586 9.00001 13.557 10.1 13.061 11.722C13.5282 12.5911 14.1392 13.3748 14.868 14.04C15.48 13.924 16.092 13.837 16.704 13.837C18.074 13.866 18.277 14.503 18.248 14.88C18.248 15.864 17.287 15.864 16.791 15.864V15.863ZM8.632 17.66L8.719 17.631C9.127 17.486 9.448 17.197 9.681 16.821C9.25551 16.9903 8.89024 17.2818 8.632 17.66ZM12.508 8.97001H12.42C12.391 8.97001 12.333 8.97001 12.304 9.00001C12.187 9.49201 12.274 10.013 12.479 10.477C12.6486 9.99087 12.6588 9.46231 12.508 8.97001ZM12.712 13.17L12.682 13.229L12.653 13.199C12.3915 13.8685 12.0999 14.5258 11.779 15.169L11.837 15.14V15.198C12.479 14.967 13.177 14.764 13.819 14.618L13.789 14.59H13.877C13.4407 14.1582 13.0503 13.6823 12.712 13.17ZM16.675 14.706C16.413 14.706 16.179 14.706 15.917 14.764C16.209 14.909 16.5 14.967 16.791 14.996C16.995 15.024 17.199 14.996 17.374 14.938C17.374 14.851 17.259 14.706 16.675 14.706Z" fill="#FFB5A2"/>
</svg>
