<svg width="26" height="26" viewBox="0 0 26 26" fill="none" xmlns="http://www.w3.org/2000/svg">
<g opacity="0.8">
<path d="M3.001 5.07812C3.001 4.28248 3.31707 3.51941 3.87968 2.9568C4.44229 2.3942 5.20535 2.07813 6.001 2.07813H14.577C15.2072 2.07794 15.8286 2.22666 16.3904 2.51218C16.9522 2.7977 17.4386 3.21194 17.81 3.72113L21.389 8.63113C21.8879 9.31536 22.1568 10.1403 22.157 10.9871V21.3901C22.157 22.1858 21.8409 22.9488 21.2783 23.5114C20.7157 24.0741 19.9526 24.3901 19.157 24.3901H6C5.20435 24.3901 4.44129 24.0741 3.87868 23.5114C3.31607 22.9488 3 22.1858 3 21.3901L3.001 5.07812Z" fill="#ABE7FF" fill-opacity="0.13"/>
<path d="M16.0111 15.966C15.9535 16.2903 15.8417 16.5138 15.6759 16.6364C15.5173 16.7661 15.3191 16.831 15.0812 16.831C14.9154 16.831 14.7568 16.7769 14.6055 16.6688C14.4541 16.5607 14.3387 16.3732 14.2594 16.1065L12.9186 11.3597L11.5562 16.2147C11.4337 16.64 11.1633 16.8454 10.7452 16.831C10.6371 16.831 10.5326 16.8166 10.4317 16.7877C10.3307 16.7589 10.237 16.7048 10.1505 16.6256C10.064 16.5463 9.98473 16.4381 9.91265 16.3012C9.84777 16.157 9.79731 15.9732 9.76127 15.7497L8.82054 9.7269C8.79171 9.5611 8.82414 9.41333 8.91786 9.28357C9.01157 9.14661 9.18458 9.07812 9.43688 9.07812C9.59547 9.07812 9.73243 9.10696 9.84777 9.16463C9.97032 9.2223 10.0496 9.38089 10.0857 9.6404L10.7452 14.0845C10.7813 14.3296 10.8209 14.4485 10.8642 14.4413C10.9074 14.4341 10.9579 14.3152 11.0156 14.0845L12.1617 9.66202C12.2122 9.4746 12.3059 9.33043 12.4429 9.22951C12.5798 9.12859 12.7312 9.07812 12.897 9.07812C13.0844 9.07812 13.2358 9.12138 13.3512 9.20788C13.4737 9.28717 13.571 9.45297 13.6431 9.70527C13.8522 10.4478 14.0576 11.1758 14.2594 11.8895C14.4685 12.6031 14.6775 13.3312 14.8866 14.0737C14.9515 14.2972 14.9983 14.4197 15.0272 14.4413C15.0632 14.463 15.0992 14.3404 15.1353 14.0737L15.7733 9.69446C15.8093 9.44937 15.8778 9.28717 15.9787 9.20788C16.0868 9.12138 16.2382 9.07812 16.4328 9.07812C16.6779 9.07812 16.8437 9.1394 16.9302 9.26195C17.024 9.37728 17.0564 9.51425 17.0276 9.67284L16.0111 15.966Z" fill="#ABE7FF"/>
<path d="M6.422 2.34399H14.998C15.5141 2.34401 16.0237 2.45814 16.4905 2.67822C16.9573 2.8983 17.3696 3.21888 17.698 3.61699L17.826 3.78199L21.406 8.69199C21.842 9.28999 22.077 10.012 22.077 10.754V21.156C22.077 21.819 21.8136 22.4549 21.3448 22.9238C20.8759 23.3926 20.24 23.656 19.577 23.656H6.422C5.75896 23.656 5.12307 23.3926 4.65423 22.9238C4.18539 22.4549 3.922 21.819 3.922 21.156V4.84399C3.922 4.18095 4.18539 3.54507 4.65423 3.07623C5.12307 2.60739 5.75896 2.34399 6.422 2.34399Z" stroke="#ABE7FF" stroke-opacity="0.5"/>
</g>
</svg>
