<svg width="26" height="26" viewBox="0 0 26 26" fill="none" xmlns="http://www.w3.org/2000/svg">
<g opacity="0.8">
<path d="M3.42199 4.84399C3.42199 4.04834 3.73806 3.28528 4.30067 2.72267C4.86328 2.16006 5.62634 1.84399 6.42199 1.84399H14.998C15.6282 1.84381 16.2496 1.99253 16.8114 2.27805C17.3732 2.56357 17.8596 2.97781 18.231 3.48699L21.81 8.39699C22.3089 9.08123 22.5778 9.90616 22.578 10.753V21.156C22.578 21.9516 22.2619 22.7147 21.6993 23.2773C21.1367 23.8399 20.3736 24.156 19.578 24.156H6.42099C5.62534 24.156 4.86228 23.8399 4.29967 23.2773C3.73706 22.7147 3.42099 21.9516 3.42099 21.156L3.42199 4.84399Z" fill="#F7FDFF" fill-opacity="0.13"/>
<path d="M13.516 10.166V16.766C13.516 16.9292 13.4547 17.0762 13.3323 17.2068C13.2098 17.3374 13.0057 17.4027 12.72 17.4027C12.4343 17.4027 12.2302 17.3333 12.1078 17.1945C11.9853 17.0557 11.9241 16.9129 11.9241 16.766V10.166H10.3568C10.2098 10.166 10.067 10.1129 9.92819 10.0068C9.78942 9.90065 9.72003 9.71697 9.72003 9.45575C9.72003 9.20269 9.78534 9.0231 9.91595 8.91697C10.0466 8.80269 10.1935 8.74554 10.3568 8.74554H15.0833C15.2466 8.74554 15.3935 8.80269 15.5241 8.91697C15.6547 9.0231 15.72 9.20269 15.72 9.45575C15.72 9.71697 15.6506 9.90065 15.5119 10.0068C15.3731 10.1129 15.2302 10.166 15.0833 10.166H13.516Z" fill="#93C4FF"/>
<path d="M6.422 2.34399H14.998C15.5141 2.34401 16.0237 2.45814 16.4905 2.67822C16.9573 2.8983 17.3696 3.21888 17.698 3.61699L17.826 3.78199L21.406 8.69199C21.842 9.28999 22.077 10.012 22.077 10.754V21.156C22.077 21.819 21.8136 22.4549 21.3448 22.9238C20.8759 23.3926 20.24 23.656 19.577 23.656H6.422C5.75896 23.656 5.12307 23.3926 4.65423 22.9238C4.18539 22.4549 3.922 21.819 3.922 21.156V4.84399C3.922 4.18095 4.18539 3.54507 4.65423 3.07623C5.12307 2.60739 5.75896 2.34399 6.422 2.34399Z" stroke="#C4E6F6" stroke-opacity="0.5"/>
</g>
</svg>
