<?xml version="1.0" encoding="UTF-8"?><svg id="a" xmlns="http://www.w3.org/2000/svg" viewBox="0 0 242 287.7805">
<title>Tencent_QQ-logo</title><path d="M121.0069,284.4747c-25.0666,0-48.0771-8.3895-62.8911-20.9214-7.5241,2.249-17.1484,5.8649-23.22,10.3519-5.198,3.8365-4.5503,7.7474-3.6132,9.3266,4.1121,6.9398,70.5447,4.4318,89.7243,2.271v-1.028Z" style="fill:#faab07;"/><path d="M121.0069,284.4747c25.0693,0,48.0771-8.3895,62.8938-20.9214,7.5214,2.249,17.1456,5.8649,23.22,10.3519,5.1952,3.8365,4.5475,7.7474,3.6105,9.3266-4.1121,6.9398-70.5447,4.4318-89.7243,2.271v-1.028Z" style="fill:#faab07;"/><path d="M121.153,134.2378c41.3964-.2811,74.5714-8.2931,85.8134-11.3661,2.6789-.7331,4.1121-2.0478,4.1121-2.0478.011-.3776.1709-6.7386.1709-10.0211C211.2493,55.5378,185.1603.0028,120.9986,0,56.8398.0028,30.7507,55.5378,30.7507,110.8028c0,3.2825.1599,9.6435.1709,10.0211,0,0,1.1658,1.2292,3.3018,1.8245,10.3794,2.8884,44.18,11.2999,86.6237,11.5893h.3059Z"/><path d="M233.6425,180.2782c-2.5659-8.2572-6.0689-17.887-9.616-27.1364,0,0-2.0395-.2508-3.073.0469-31.8273,9.2467-70.4042,15.1392-99.8005,14.7836h-.3059c-29.2338.35-67.5489-5.4736-99.2686-14.6293-1.2127-.35-3.605-.2012-3.605-.2012-3.5471,9.2494-7.0501,18.8792-9.616,27.1364C-3.8795,219.6571.0865,235.9538,3.1044,236.3204c6.4768.7827,25.2127-29.6444,25.2127-29.6444,0,30.9177,27.9136,78.3913,91.8355,78.8267.2839-.0028,1.4111-.0028,1.695,0,63.9218-.4355,91.8355-47.909,91.8355-78.8267,0,0,18.7359,30.4272,25.2127,29.6444,3.0179-.3666,6.9839-16.6633-5.2531-56.0422"/><path d="M98.17,81.649c-8.7037.3941-16.1396-9.5223-16.6082-22.1258-.4713-12.6118,6.1957-23.1539,14.8994-23.548,8.6954-.3886,16.1286,9.5223,16.5999,22.1314.4768,12.6118-6.1929,23.1539-14.8911,23.5425" style="fill:#fff;"/><path d="M160.4354,59.5231c-.4658,12.6036-7.9017,22.52-16.6054,22.1258-8.6982-.3914-15.3679-10.9306-14.8911-23.5425.4713-12.6091,7.9044-22.52,16.5999-22.1314,8.7037.3941,15.3707,10.9361,14.8966,23.548" style="fill:#fff;"/><path d="M175.9053,99.4505c-2.3261-5.1511-25.7501-10.892-54.7496-10.892h-.3114c-28.9995,0-52.4235,5.7409-54.7496,10.892-.1047.2232-.1709.4713-.1709.7331,0,.3721.1268.7056.3197.9922,1.9623,2.8553,27.9715,16.9747,54.6008,16.9747h.3114c26.6293,0,52.6384-14.1167,54.598-16.9747.1957-.2839.3197-.6229.3197-.9949,0-.2618-.0634-.5071-.1681-.7304" style="fill:#faab07;"/><path d="M108.8691,59.7078c.3969,4.9802-2.3344,9.4038-6.0937,9.8861-3.7648.4851-7.1355-3.1585-7.5351-8.1415-.3941-4.983,2.3344-9.4065,6.0854-9.8861,3.7731-.4878,7.1493,3.1612,7.5434,8.1415"/><path d="M132.7809,61.3725c.7689-1.378,6.0083-8.6238,16.8535-5.9862,2.8498.6945,4.1672,1.7143,4.4456,2.1139.4107.5926.5237,1.4359.1075,2.5714-.8241,2.2517-2.5273,2.1911-3.4699,1.7501-.6091-.2839-8.1635-5.3192-15.1226,2.1938-.4796.5154-1.3367.6918-2.147.0799-.813-.6146-1.1465-1.8576-.667-2.723"/><path d="M121.153,166.1588h-.3059c-19.9926.2425-44.2324-2.4061-67.7087-7.0335-2.0092,11.6362-3.2219,26.2627-2.1801,43.706,2.6321,44.0863,28.8149,71.7987,69.2273,72.2011h1.6426c40.4152-.4024,66.5952-28.1148,69.2301-72.2011,1.0418-17.446-.1736-32.0698-2.1828-43.7087-23.4791,4.6302-47.7243,7.2788-67.7225,7.0363" style="fill:#fff;"/><path d="M64.204,162.4711v43.3863s19.8741,4.0073,39.7868,1.232v-40.0183c-12.6146-.7138-26.2186-2.3041-39.7868-4.5999" style="fill:#eb1923;"/><path d="M211.0785,120.8239s-38.6596,12.2039-89.9255,12.5512h-.3059c-51.1832-.3445-89.7932-12.5099-89.9255-12.5512l-12.9481,32.3178c32.3867,9.7648,72.5236,16.0569,102.8736,15.6904h.3059c30.35.3666,70.4841-5.9256,102.8736-15.6904l-12.9481-32.3178Z" style="fill:#eb1923;"/></svg>