<svg width="48" height="48" viewBox="0 0 48 48" fill="none" xmlns="http://www.w3.org/2000/svg">
<path d="M5.08797 5.70239H43.0464C45.6096 5.70239 47.6832 7.77599 47.6832 10.3392V38.1792C47.6832 40.7424 45.6096 42.816 43.0464 42.816H5.08797C2.52477 42.816 0.451172 40.7424 0.451172 38.1792V10.3392C0.451172 7.78559 2.53437 5.70239 5.08797 5.70239Z" fill="#E01E00"/>
<path d="M10.6557 14.9664L9.70527 16.6944L7.58367 16.752C5.62527 16.7904 5.43327 16.8384 5.43327 17.2128C5.43327 17.7408 5.98047 18.0096 7.39167 18.1824C8.34207 18.288 8.52447 18.3936 8.44767 18.6624C8.15007 19.44 5.83647 22.4352 4.33887 23.952C3.43647 24.8544 2.69727 25.6416 2.69727 25.7184C2.69727 25.7856 2.94687 25.8432 3.28287 25.8432C3.97407 25.8432 5.41407 25.2096 6.38367 24.4512C7.03647 23.9424 7.12287 23.9424 7.24767 24.2592C7.33407 24.4704 7.24767 25.3152 7.05567 26.1312C6.86367 26.9568 6.54687 28.4256 6.36447 29.4144C6.06687 30.9312 5.35647 33.2256 4.70367 34.7616C4.53087 35.1168 4.59807 35.1648 5.42367 35.04C7.13247 34.8288 8.35167 33.6672 8.70687 31.9392C8.98527 30.6144 10.2237 28.2144 11.1261 27.2256C12.5373 25.6896 15.2733 24.576 17.5677 24.576C18.2589 24.576 18.2877 24.5952 18.2877 25.4016V26.1984L16.5405 26.304C15.4461 26.3904 14.4093 26.5824 13.8237 26.8512C10.9149 28.1376 10.8285 31.8432 13.6989 33.5712C14.8605 34.2912 15.9549 34.5792 18.3549 34.8576L19.7661 35.0304L19.9773 34.2336C20.1021 33.792 20.2749 32.8896 20.3517 32.2272C20.4957 31.0464 20.5245 31.008 21.1293 31.0272C21.4845 31.0464 22.4541 31.4688 23.3181 31.9584C25.1325 32.9952 28.0317 34.1472 30.2877 34.7136C32.6013 35.328 36.6045 35.472 39.1293 35.0304C42.3741 34.464 45.4461 32.7552 45.4461 31.536C45.4461 31.2192 45.1773 31.3056 43.6989 32.064C41.2125 33.3504 39.2925 33.7248 36.0957 33.5808C34.2045 33.4944 33.0621 33.3312 31.6509 32.9088C29.4621 32.2752 26.7261 31.0176 26.5533 30.5664C26.4861 30.4224 26.7453 29.9328 27.0813 29.5392C28.1085 28.3776 28.2621 26.208 27.3789 25.0272C26.9373 24.4128 25.3149 23.1072 24.9981 23.1072C24.7485 23.1072 24.4509 23.8656 24.2781 25.0656C24.1341 25.968 24.1725 26.0544 24.6333 26.2464C25.2669 26.4768 26.2749 27.6384 26.2749 28.1376C26.2749 28.752 25.6413 29.424 25.0749 29.424C24.5469 29.424 22.0029 28.1856 21.4557 27.6384C21.2061 27.408 21.2061 27.1296 21.3885 26.1408C21.7629 24.3456 21.7053 21.8208 21.3021 21.2544C21.1293 21.0048 20.5245 20.5344 19.9581 20.2656C19.0269 19.8048 18.6525 19.7376 16.5501 19.7376C15.2445 19.7376 13.3725 19.8816 12.3837 20.0544C11.3949 20.2272 10.5693 20.3712 10.5501 20.3712C10.3005 20.3712 10.5885 19.6992 11.1357 19.0656C11.9613 18.0576 12.5469 17.904 16.4829 17.7408C20.7837 17.5488 23.3277 17.088 22.9917 16.5408C22.9053 16.4352 21.0525 16.3488 18.7197 16.368C12.9501 16.4064 13.2189 16.4352 13.2189 15.9936C13.2189 15.7824 13.3629 15.408 13.5549 15.1488C13.9581 14.5632 13.8333 14.3712 12.6045 13.7376L11.5965 13.2288L10.6557 14.9664ZM18.0477 21.7248C18.2973 21.9552 18.4893 22.1856 18.4893 22.2528C18.4893 22.3392 17.6061 22.5696 16.5501 22.7616C14.6301 23.1168 12.9885 23.7984 11.1357 24.9312L10.2045 25.5168L10.3101 24.1728C10.4157 22.656 10.5597 22.512 12.5661 21.7056C14.1309 21.072 17.3277 21.0912 18.0477 21.7248ZM17.2317 29.1168C17.7405 29.7312 16.9821 33.0144 16.3485 33.0144C15.4845 33.0144 14.0733 31.4304 14.0733 30.4416C14.0733 30 14.7069 29.2224 15.2061 29.0112C15.9261 28.7232 16.9341 28.7808 17.2317 29.1168ZM39.0717 14.1216C38.8989 14.4 38.2749 15.1584 37.6605 15.8112C36.0765 17.5584 35.4717 17.4144 35.2989 15.2832C35.2317 14.6112 35.1261 13.9968 35.0685 13.9104C34.9821 13.824 34.4541 13.9488 33.9069 14.1888L32.9181 14.6112L32.9853 15.7728L33.0717 16.9536L32.0637 17.0976C31.5165 17.1648 30.7197 17.2224 30.2493 17.2224C29.3661 17.2224 29.0109 17.6448 29.4525 18.1728C29.6637 18.4224 30.2493 18.4896 32.0637 18.4896C33.3501 18.4896 34.5501 18.5952 34.7133 18.7008C35.3277 19.0752 34.6269 19.632 32.6493 20.2848C31.5933 20.6208 30.6525 21.0048 30.5469 21.1296C30.4413 21.2352 29.9997 23.2992 29.5581 25.6992C28.9053 29.2608 28.8189 30.144 29.0301 30.3936C29.3853 30.816 32.3613 31.7376 34.3197 32.016C36.6333 32.3328 40.0893 31.9104 40.5309 31.2384C40.7037 30.9888 41.1165 29.1744 41.4813 27.216C42.4509 21.8688 42.4509 22.2432 41.6733 21.36C40.7421 20.3232 40.3293 20.1216 38.7261 19.9872C37.6701 19.8816 37.3341 19.776 37.2957 19.5072C37.1709 18.8736 38.1597 18.4992 40.8093 18.1824C43.5453 17.8464 44.9373 17.424 44.7645 16.9824C44.6973 16.7712 44.1789 16.7328 42.7677 16.7904C41.1069 16.8576 40.8093 16.8096 40.7037 16.4928C40.6173 16.2624 40.7901 15.9072 41.2509 15.4368L41.9421 14.6976L40.7421 14.1696C40.0893 13.872 39.5229 13.6416 39.4749 13.6416C39.4269 13.6416 39.2541 13.8528 39.0717 14.1216ZM37.2189 21.0336C39.1965 21.456 39.4557 22.6944 37.5549 22.6944C37.0461 22.6944 35.7885 22.9248 34.7325 23.2032C33.6765 23.4816 32.7741 23.6448 32.7069 23.5776C32.4381 23.2992 32.6397 22.2528 33.0621 21.8496C33.3117 21.6192 33.5709 21.4272 33.6285 21.4272C33.6957 21.408 34.2429 21.2832 34.8093 21.1104C36.1437 20.7552 35.9709 20.7552 37.2189 21.0336ZM38.7069 24.9312C39.2541 25.4784 38.5149 25.8816 36.5181 26.112C35.5293 26.2176 34.1757 26.4864 33.5229 26.6976C32.0253 27.2256 31.9677 27.2256 31.9677 26.6976C31.9677 25.9776 33.0621 24.9888 34.1757 24.672C35.4717 24.3168 38.2461 24.4608 38.7069 24.9312ZM38.0349 28.6944C38.1021 29.5584 37.8621 29.856 36.9021 30.0864C35.5965 30.384 31.5549 29.9136 31.5549 29.4528C31.5549 29.1744 32.2461 28.6272 33.0333 28.2912C33.5613 28.0608 34.3581 27.9744 35.8749 28.0128L37.9773 28.0512L38.0349 28.6944ZM25.4589 18.8448C25.3341 19.4976 25.2285 20.1504 25.2285 20.2944C25.2285 20.4384 25.9197 21.0528 26.7645 21.6384L28.2813 22.7136L28.3485 22.0416C28.5213 20.5248 27.7821 19.1328 26.3037 18.0768L25.7181 17.6544L25.4589 18.8448Z" fill="white"/>
</svg>
