<svg xmlns="http://www.w3.org/2000/svg" width="33" height="38" viewBox="0 0 33 38" fill="none">
<g clip-path="url(#clip0_4321_9943)">
<path d="M1.51221 6.59813C1.51221 4.09263 3.54331 2.06152 6.04881 2.06152H27.9757C30.4812 2.06152 32.5123 4.09263 32.5123 6.59813C32.5123 9.10362 30.4812 11.1347 27.9757 11.1347H6.04881C3.54331 11.1347 1.51221 9.10362 1.51221 6.59813Z" fill="#6200EE"/>
<path d="M3.38905 3.56467C5.26076 1.89906 8.12831 2.06615 9.79391 3.93785L22.1493 17.8221C23.8149 19.6938 23.6478 22.5614 21.7761 24.227C19.9044 25.8926 17.0369 25.7255 15.3713 23.8538L3.01586 9.96953C1.35026 8.09782 1.51734 5.23027 3.38905 3.56467Z" fill="#6200EE"/>
<path d="M1.51221 20.9643C1.51221 18.4588 3.54331 16.4277 6.04881 16.4277H18.9025C21.408 16.4277 23.4391 18.4588 23.4391 20.9643C23.4391 23.4698 21.408 25.5009 18.9025 25.5009H6.04881C3.54331 25.5009 1.51221 23.4698 1.51221 20.9643Z" fill="#6200EE"/>
<path d="M10.5854 32.3052C10.5854 34.8107 8.55431 36.8418 6.04881 36.8418C3.54331 36.8418 1.51221 34.8107 1.51221 32.3052C1.51221 29.7997 3.54331 27.7686 6.04881 27.7686C8.55431 27.7686 10.5854 29.7997 10.5854 32.3052Z" fill="#BF7AFF"/>
</g>
<defs>
<clipPath id="clip0_4321_9943">
<rect width="32.5124" height="36.9029" fill="white" transform="translate(0 0.548828)"/>
</clipPath>
</defs>
</svg>