<svg width="26" height="26" viewBox="0 0 26 26" fill="none" xmlns="http://www.w3.org/2000/svg">
<g opacity="0.8">
<path d="M3.42202 4.687C3.42202 3.89135 3.73809 3.12829 4.3007 2.56568C4.86331 2.00307 5.62637 1.687 6.42202 1.687H14.998C15.6283 1.68692 16.2497 1.8358 16.8116 2.1215C17.3734 2.4072 17.8598 2.82163 18.231 3.331L21.81 8.241C22.309 8.92524 22.5779 9.75017 22.578 10.597V21C22.578 21.7956 22.2619 22.5587 21.6993 23.1213C21.1367 23.6839 20.3737 24 19.578 24H6.42102C5.62537 24 4.86231 23.6839 4.2997 23.1213C3.73709 22.5587 3.42102 21.7956 3.42102 21L3.42202 4.687Z" fill="#C8E9FF" fill-opacity="0.2"/>
<path d="M6.422 2.187H14.998C15.5141 2.18713 16.0239 2.30142 16.4906 2.52167C16.9574 2.74193 17.3697 3.0627 17.698 3.461L17.826 3.626L21.406 8.535C21.842 9.134 22.077 9.857 22.077 10.598V21C22.077 21.663 21.8136 22.2989 21.3448 22.7678C20.8759 23.2366 20.24 23.5 19.577 23.5H6.422C5.75896 23.5 5.12307 23.2366 4.65423 22.7678C4.18539 22.2989 3.922 21.663 3.922 21V4.687C3.922 4.02395 4.18539 3.38807 4.65423 2.91923C5.12307 2.45039 5.75896 2.187 6.422 2.187Z" stroke="#C8E9FF" stroke-opacity="0.5"/>
</g>
<path d="M14.827 11.308C14.947 11.323 15.064 11.358 15.173 11.412L15.278 11.471C15.381 11.535 15.472 11.617 15.548 11.711L18.448 15.273C19.045 16.004 18.521 17.098 17.58 17.098H8.62002C8.42131 17.0982 8.22615 17.0454 8.05462 16.9451C7.88309 16.8448 7.74139 16.7006 7.64411 16.5273C7.54683 16.3541 7.49749 16.158 7.50117 15.9593C7.50484 15.7606 7.5614 15.5665 7.66502 15.397L8.93702 13.313L9.00702 13.211C9.18519 12.9809 9.44593 12.8292 9.73402 12.788L9.85602 12.778C9.98002 12.773 10.103 12.79 10.222 12.826L10.337 12.869C10.45 12.918 10.555 12.985 10.647 13.069L11.631 13.965L11.671 13.989L11.719 13.996L11.765 13.984L11.802 13.957L13.846 11.671L13.931 11.585C14.021 11.504 14.124 11.438 14.235 11.39L14.349 11.348C14.4645 11.3122 14.5851 11.2953 14.706 11.298L14.827 11.308Z" stroke="#B8E3FF"/>
<path d="M10.002 9.59H10.0029C10.0686 9.58986 10.1336 9.60303 10.1943 9.62808C10.2548 9.65307 10.3101 9.68929 10.3564 9.7355C10.4029 9.78191 10.4397 9.83793 10.4648 9.89859C10.4774 9.92893 10.4868 9.96029 10.4932 9.99234L10.5029 10.089C10.5027 10.2219 10.4495 10.3496 10.3555 10.4435C10.2616 10.5371 10.1345 10.5897 10.002 10.59H10.001C9.93527 10.5901 9.87032 10.577 9.80957 10.5519C9.74879 10.5268 9.69302 10.49 9.64648 10.4435C9.60012 10.3971 9.56321 10.342 9.53809 10.2814C9.51307 10.221 9.50013 10.1563 9.5 10.091C9.50027 9.95802 9.55335 9.8304 9.64746 9.73648C9.74155 9.64265 9.86907 9.59001 10.002 9.59Z" fill="#93D4FF" stroke="#B8E3FF"/>
</svg>
