<svg width="26" height="26" viewBox="0 0 26 26" fill="none" xmlns="http://www.w3.org/2000/svg">
<g opacity="0.8">
<path d="M3.42199 4.84399C3.42199 4.04834 3.73806 3.28528 4.30067 2.72267C4.86328 2.16006 5.62634 1.84399 6.42199 1.84399H14.998C15.6282 1.84381 16.2496 1.99253 16.8114 2.27805C17.3732 2.56357 17.8596 2.97781 18.231 3.48699L21.81 8.39699C22.3089 9.08123 22.5778 9.90616 22.578 10.753V21.156C22.578 21.9516 22.2619 22.7147 21.6993 23.2773C21.1367 23.8399 20.3736 24.156 19.578 24.156H6.42099C5.62534 24.156 4.86228 23.8399 4.29967 23.2773C3.73706 22.7147 3.42099 21.9516 3.42099 21.156L3.42199 4.84399Z" fill="#A3E8AF" fill-opacity="0.13"/>
<path d="M11.3887 16.1645H14.6738C15.0177 16.1645 15.262 16.2188 15.4068 16.3274C15.5516 16.436 15.624 16.6351 15.624 16.9247C15.624 17.2143 15.5516 17.4134 15.4068 17.522C15.262 17.6306 15.0177 17.6849 14.6738 17.6849H10.4928C10.2213 17.6849 10.0086 17.6351 9.85476 17.5356C9.70092 17.427 9.62399 17.2279 9.62399 16.9383V8.96995C9.62399 8.68941 9.69639 8.49484 9.84119 8.38624C9.98598 8.27764 10.2032 8.22334 10.4928 8.22334H14.6873C14.9498 8.22334 15.1444 8.28217 15.2711 8.39981C15.4068 8.50841 15.4792 8.70298 15.4882 8.98352C15.4973 9.26407 15.4294 9.46316 15.2846 9.58081C15.1398 9.68941 14.9362 9.7437 14.6738 9.7437H11.3887V12.0378H14.538C14.8276 12.0378 15.0358 12.1012 15.1625 12.2279C15.2892 12.3455 15.3525 12.5401 15.3525 12.8116C15.3525 13.0831 15.2892 13.2776 15.1625 13.3953C15.0358 13.5039 14.8276 13.5582 14.538 13.5582H11.3887V16.1645Z" fill="#A3E8AF"/>
<path d="M6.422 2.34399H14.998C15.5141 2.34401 16.0237 2.45814 16.4905 2.67822C16.9573 2.8983 17.3696 3.21888 17.698 3.61699L17.826 3.78199L21.406 8.69199C21.842 9.28999 22.077 10.012 22.077 10.754V21.156C22.077 21.819 21.8136 22.4549 21.3448 22.9238C20.8759 23.3926 20.24 23.656 19.577 23.656H6.422C5.75896 23.656 5.12307 23.3926 4.65423 22.9238C4.18539 22.4549 3.922 21.819 3.922 21.156V4.84399C3.922 4.18095 4.18539 3.54507 4.65423 3.07623C5.12307 2.60739 5.75896 2.34399 6.422 2.34399Z" stroke="#B1FF8F" stroke-opacity="0.5"/>
</g>
</svg>
