<svg width="256" height="256" viewBox="0 0 256 256" fill="none" xmlns="http://www.w3.org/2000/svg">
<rect width="256" height="256" rx="32" fill="#0057CE"/>
<mask id="path-2-inside-1_4113_89308" fill="white">
<path d="M169.6 131.626C173.075 129.641 176.32 128.241 180.1 126.943C183.74 125.695 187.444 124.664 191.186 123.735C194.915 122.806 198.682 122.017 202.449 121.228C206.216 120.439 209.958 119.675 213.598 118.314C231.429 111.619 242.221 93.6357 239.612 74.9396C237.003 56.2435 221.692 41.8237 202.691 40.1564C194.062 39.4055 185.726 41.4164 178.013 44.9418C170.326 48.4545 163.288 53.4435 157.166 59.158C144.795 70.676 135.657 85.4649 130.083 101.208C124.47 117.054 122.37 134.095 123.694 150.806C124.356 159.129 125.883 167.504 128.326 175.509C130.719 183.362 134.181 191.469 138.839 198.342C136.828 185.475 138.559 172.175 143.917 160.262C149.262 148.375 158.121 138.193 169.6 131.626Z"/>
</mask>
<path d="M169.6 131.626C173.075 129.641 176.32 128.241 180.1 126.943C183.74 125.695 187.444 124.664 191.186 123.735C194.915 122.806 198.682 122.017 202.449 121.228C206.216 120.439 209.958 119.675 213.598 118.314C231.429 111.619 242.221 93.6357 239.612 74.9396C237.003 56.2435 221.692 41.8237 202.691 40.1564C194.062 39.4055 185.726 41.4164 178.013 44.9418C170.326 48.4545 163.288 53.4435 157.166 59.158C144.795 70.676 135.657 85.4649 130.083 101.208C124.47 117.054 122.37 134.095 123.694 150.806C124.356 159.129 125.883 167.504 128.326 175.509C130.719 183.362 134.181 191.469 138.839 198.342C136.828 185.475 138.559 172.175 143.917 160.262C149.262 148.375 158.121 138.193 169.6 131.626Z" fill="white" stroke="white" stroke-width="32" mask="url(#path-2-inside-1_4113_89308)"/>
<path d="M162.246 150.4C161.915 153.913 163.073 157.464 165.542 160.06C168.011 162.657 171.499 164.031 174.668 165.253C178.13 166.577 181.12 167.658 184.353 169.529C187.433 171.311 190.157 173.526 192.435 176.262C201.802 187.449 200.937 203.867 190.462 214.049C179.988 224.23 163.379 224.778 152.243 215.321C149.404 212.903 146.884 209.798 144.81 206.756C141.654 186.52 147.775 165.317 162.246 150.4Z" fill="white"/>
<mask id="path-4-outside-2_4113_89308" maskUnits="userSpaceOnUse" x="136" y="138.4" width="71" height="92" fill="black">
<rect fill="white" x="136" y="138.4" width="71" height="92"/>
<path d="M162.246 150.4C165.542 153.666 163.073 157.464 165.542 160.06C168.011 162.657 171.499 164.031 174.668 165.253C178.13 166.577 181.12 167.658 184.353 169.529C187.433 171.311 190.157 173.526 192.435 176.262C201.802 187.449 200.937 203.867 190.462 214.049C179.988 224.23 163.379 224.778 152.243 215.321C149.404 212.903 146.884 209.798 144.81 206.756C141.654 186.52 147.775 165.317 162.246 150.4Z"/>
</mask>
<path d="M162.246 150.4C165.542 153.666 163.073 157.464 165.542 160.06C168.011 162.657 171.499 164.031 174.668 165.253C178.13 166.577 181.12 167.658 184.353 169.529C187.433 171.311 190.157 173.526 192.435 176.262C201.802 187.449 200.937 203.867 190.462 214.049C179.988 224.23 163.379 224.778 152.243 215.321C149.404 212.903 146.884 209.798 144.81 206.756C141.654 186.52 147.775 165.317 162.246 150.4Z" stroke="#0057CE" stroke-width="16" mask="url(#path-4-outside-2_4113_89308)"/>
<mask id="path-5-inside-3_4113_89308" fill="white">
<path d="M50.4113 61.9063C63.3547 61.8935 75.9164 69.008 85.0163 76.9879C94.6761 85.4641 102.16 96.2567 107.085 107.991C112.036 119.789 114.416 132.542 114.327 145.282C114.238 157.665 111.769 171.079 106.296 182.394C105.774 167.821 100.123 153.885 90.3107 143.003C88.5926 141.107 86.7981 139.389 84.6599 137.938C82.5218 136.487 80.2691 135.418 77.8382 134.565C73.1164 132.911 67.7838 132.134 62.8711 131.6C57.8057 131.04 52.7149 130.709 47.6622 129.971C42.4695 129.207 37.8114 128.087 33.1787 125.427C19.688 117.715 13.1463 102.009 17.1808 87.1441C21.2153 72.2661 34.846 61.919 50.4113 61.9063Z"/>
</mask>
<path d="M50.4113 61.9063C63.3547 61.8935 75.9164 69.008 85.0163 76.9879C94.6761 85.4641 102.16 96.2567 107.085 107.991C112.036 119.789 114.416 132.542 114.327 145.282C114.238 157.665 111.769 171.079 106.296 182.394C105.774 167.821 100.123 153.885 90.3107 143.003C88.5926 141.107 86.7981 139.389 84.6599 137.938C82.5218 136.487 80.2691 135.418 77.8382 134.565C73.1164 132.911 67.7838 132.134 62.8711 131.6C57.8057 131.04 52.7149 130.709 47.6622 129.971C42.4695 129.207 37.8114 128.087 33.1787 125.427C19.688 117.715 13.1463 102.009 17.1808 87.1441C21.2153 72.2661 34.846 61.919 50.4113 61.9063Z" fill="white" stroke="white" stroke-width="32" mask="url(#path-5-inside-3_4113_89308)"/>
<mask id="path-6-inside-4_4113_89308" fill="white">
<path d="M82.5802 149.38C81.3584 148.03 80.0857 146.745 78.673 145.6C80.4294 148.578 80.6075 151.95 79.8694 155.196C79.1312 158.429 77.5021 161.419 75.4403 163.99C73.3149 166.625 70.8204 168.725 68.1095 170.71C65.7423 172.441 62.2932 174.656 60.1551 176.73C53.8679 182.839 52.5824 192.384 57.0369 199.893C61.4914 207.415 70.5277 210.979 78.9912 208.535C83.662 207.186 87.6202 204.144 90.7638 200.67C93.9455 197.157 96.5291 192.983 98.5655 188.757C98.0437 174.185 92.3928 160.261 82.5802 149.38Z"/>
</mask>
<path d="M82.5802 149.38C81.3584 148.03 80.0857 146.745 78.673 145.6C80.4294 148.578 80.6075 151.95 79.8694 155.196C79.1312 158.429 77.5021 161.419 75.4403 163.99C73.3149 166.625 70.8204 168.725 68.1095 170.71C65.7423 172.441 62.2932 174.656 60.1551 176.73C53.8679 182.839 52.5824 192.384 57.0369 199.893C61.4914 207.415 70.5277 210.979 78.9912 208.535C83.662 207.186 87.6202 204.144 90.7638 200.67C93.9455 197.157 96.5291 192.983 98.5655 188.757C98.0437 174.185 92.3928 160.261 82.5802 149.38Z" stroke="white" stroke-width="24" mask="url(#path-6-inside-4_4113_89308)"/>
<mask id="path-7-outside-5_4113_89308" maskUnits="userSpaceOnUse" x="45.3994" y="138.6" width="62" height="79" fill="black">
<rect fill="white" x="45.3994" y="138.6" width="62" height="79"/>
<path d="M82.5802 149.38C81.3584 148.03 80.0857 146.745 78.673 145.6C80.4294 148.578 80.6075 151.95 79.8694 155.196C79.1312 158.429 77.5021 161.419 75.4403 163.99C73.3149 166.625 70.8204 168.725 68.1095 170.71C65.7423 172.441 62.2932 174.656 60.1551 176.73C53.8679 182.839 52.5824 192.384 57.0369 199.893C61.4914 207.415 70.5277 210.979 78.9912 208.535C83.662 207.186 87.6202 204.144 90.7638 200.67C93.9455 197.157 96.5291 192.983 98.5655 188.757C98.0437 174.185 92.3928 160.261 82.5802 149.38Z"/>
</mask>
<path d="M82.5802 149.38C81.3584 148.03 80.0857 146.745 78.673 145.6C80.4294 148.578 80.6075 151.95 79.8694 155.196C79.1312 158.429 77.5021 161.419 75.4403 163.99C73.3149 166.625 70.8204 168.725 68.1095 170.71C65.7423 172.441 62.2932 174.656 60.1551 176.73C53.8679 182.839 52.5824 192.384 57.0369 199.893C61.4914 207.415 70.5277 210.979 78.9912 208.535C83.662 207.186 87.6202 204.144 90.7638 200.67C93.9455 197.157 96.5291 192.983 98.5655 188.757C98.0437 174.185 92.3928 160.261 82.5802 149.38Z" fill="white"/>
<path d="M82.5802 149.38C81.3584 148.03 80.0857 146.745 78.673 145.6C80.4294 148.578 80.6075 151.95 79.8694 155.196C79.1312 158.429 77.5021 161.419 75.4403 163.99C73.3149 166.625 70.8204 168.725 68.1095 170.71C65.7423 172.441 62.2932 174.656 60.1551 176.73C53.8679 182.839 52.5824 192.384 57.0369 199.893C61.4914 207.415 70.5277 210.979 78.9912 208.535C83.662 207.186 87.6202 204.144 90.7638 200.67C93.9455 197.157 96.5291 192.983 98.5655 188.757C98.0437 174.185 92.3928 160.261 82.5802 149.38Z" stroke="#0057CE" stroke-width="16" mask="url(#path-7-outside-5_4113_89308)"/>
</svg>
