<svg width="464" height="464" viewBox="0 0 464 464" fill="none" xmlns="http://www.w3.org/2000/svg">
<rect width="464" height="464" fill="white"/>
<path fill-rule="evenodd" clip-rule="evenodd" d="M243 127C235.268 127 229 133.268 229 141V322C229 329.732 235.268 336 243 336H283C290.732 336 297 329.732 297 322V141C297 133.268 290.732 127 283 127H243ZM167.562 128C163.762 128 160.317 129.518 157.805 131.978C157.787 131.995 157.759 131.977 157.767 131.954C157.775 131.93 157.743 131.913 157.727 131.933L157.311 132.486C156.679 133.171 156.115 133.92 155.629 134.722C154.303 136.486 153.139 138.365 152.152 140.338L88.8745 266.857L85.2894 274.899C85.2249 275.037 85.1626 275.177 85.1027 275.318L84.7141 276.189C84.7086 276.201 84.7223 276.213 84.7339 276.206C84.745 276.2 84.7583 276.211 84.7541 276.223C84.2654 277.639 84 279.16 84 280.742L84 322.399C84 330.067 90.2354 336.284 97.9271 336.284H139.708C147.4 336.284 153.635 330.067 153.635 322.399V266.857L153.636 252.97C153.636 222.295 178.577 197.428 209.344 197.428C217.035 197.428 223.271 191.211 223.271 183.542V141.886C223.271 134.217 217.035 128 209.344 128H167.562ZM304.5 301.57C304.5 282.398 320.088 266.856 339.318 266.856C358.547 266.856 374.135 282.398 374.135 301.57C374.135 320.742 358.547 336.284 339.318 336.284C320.088 336.284 304.5 320.742 304.5 301.57Z" fill="black"/>
</svg>
