<svg width="55" height="40" viewBox="0 0 55 40" fill="none" xmlns="http://www.w3.org/2000/svg">
<path d="M14.8849 20.2153C13.8429 20.6618 9.22862 22.8945 5.65625 25.5738C10.7171 24.9784 13.3964 24.5319 25.0066 27.0623C24.6493 26.8241 21.98 22.7953 20.69 20.8106C20.8388 20.6122 21.3449 20.4534 22.1784 21.406C26.247 20.3641 34.5626 17.5062 35.2771 14.4102C34.0863 15.0056 15.9268 19.7687 14.8849 20.2153Z" fill="#30323C"/>
<path d="M34.5329 31.8248C12.801 22.1496 3.27467 27.5081 0 30.0386C0.992324 32.4698 3.66167 37.7787 6.40049 39.5648L8.78206 34.9505H37.5098C39.0479 32.0728 42.6005 25.3647 44.5057 21.5542C42.5707 20.2146 37.6587 25.8708 34.5329 31.8248Z" fill="#30323C"/>
<path d="M37.5109 16.0469C37.9078 17.8827 38.791 21.9115 39.1482 23.3405L36.9155 26.3174C36.3201 24.6801 35.8736 16.7911 37.5109 16.0469Z" fill="#30323C"/>
<path d="M43.3166 26.0215C42.2747 28.0558 39.9526 32.6006 39 34.5059H41.0839C43.5151 31.1816 48.7645 23.9376 50.3125 21.5561C48.824 20.5141 44.0609 24.6819 43.3166 26.0215Z" fill="#30323C"/>
<path d="M54.3318 24.3828C53.4387 23.4898 50.4617 24.234 49.1221 25.2759L44.6566 31.5276C46.6413 30.0391 51.3548 26.5263 54.3318 24.3828Z" fill="#30323C"/>
<path d="M26.3483 25.2759C27.5391 25.5736 33.3442 28.2529 35.428 28.4018L34.3861 30.7833L26.646 27.5087C26.646 27.5087 25.0086 25.5736 24.7109 25.1271C24.7109 25.1271 25.1575 24.9782 26.3483 25.2759Z" fill="#30323C"/>
<circle cx="37.3537" cy="6.79121" r="6.79121" fill="#30323C"/>
</svg>
