<svg xmlns="http://www.w3.org/2000/svg" xmlns:xlink="http://www.w3.org/1999/xlink" fill="none" version="1.1" width="40" height="40" viewBox="0 0 40 40"><g><g><rect x="0" y="0" width="40" height="40" rx="10" fill="#FFFFFF" fill-opacity="1"/></g><g><g><path d="M3.7180590000000002,31.9163C3.24403,31.9163,2.9002264,31.4649,3.0262264,31.0079L9.07884,9.056280000000001C9.337579999999999,8.117891,10.43555,7.703758,11.24956,8.237532L19.2136,13.459869999999999C19.6909,13.77281,20.3081,13.77329,20.7859,13.46111L28.7837,8.234667C29.5984,7.702255,30.6956,8.11792,30.953,9.056519999999999L36.974,31.0089C37.0993,31.4656,36.7556,31.9163,36.2819,31.9163L28.5948,31.9163C29.9941,30.2961,30.7641,28.2266,30.7641,26.0857L30.7641,25.8358C30.7641,23.7417,30.0023,21.719,28.6209,20.1451L27.6344,15.19322C27.5764,14.90227,27.321,14.69275,27.0243,14.69275C26.8898,14.69275,26.7588,14.7364,26.6511,14.81715L22.9316,17.60681C22.6667,17.80548,22.3241,17.868740000000003,22.0057,17.77777C20.6944,17.403100000000002,19.3043,17.403100000000002,17.9929,17.77777C17.674599999999998,17.868740000000003,17.332,17.80548,17.0671,17.60681L13.3459,14.815909999999999C13.2393,14.73596,13.1096,14.69275,12.97639,14.69275C12.67948,14.69275,12.42483,14.90461,12.37083,15.196570000000001L11.41369,20.371000000000002C10.01719,21.7911,9.2346,23.703,9.2346,25.6947L9.2346,26.168C9.2346,28.2566,9.98171,30.2762,11.3409,31.8619L11.38755,31.9163L3.7180590000000002,31.9163Z" fill-rule="evenodd" fill="#29E154" fill-opacity="1"/></g><g><path d="M16.05224895477295,27.610614743041992L18.20519895477295,27.610614743041992L18.20519895477295,22.587064743041992L16.37845295477295,22.587064743041992L16.05224895477295,27.610614743041992ZM23.94638895477295,27.610614743041992L21.79344895477295,27.610614743041992L21.79344895477295,22.587064743041992L23.62018895477295,22.587064743041992L23.94638895477295,27.610614743041992Z" fill="#000000" fill-opacity="1"/></g></g></g></svg>