<?xml version="1.0" encoding="UTF-8"?>
<svg xmlns="http://www.w3.org/2000/svg" xmlns:xlink="http://www.w3.org/1999/xlink" width="512px" height="512px" viewBox="0 0 512 512" version="1.1">
<g id="surface1">
<path style=" stroke:none;fill-rule:nonzero;fill:rgb(85.09804%,85.09804%,85.09804%);fill-opacity:1;" d="M 512 256 C 512 114.613281 397.386719 0 256 0 C 114.613281 0 0 114.613281 0 256 C 0 397.386719 114.613281 512 256 512 C 397.386719 512 512 397.386719 512 256 Z M 512 256 "/>
<path style=" stroke:none;fill-rule:nonzero;fill:rgb(0%,0%,0%);fill-opacity:1;" d="M 256.011719 114.753906 C 167.050781 114.753906 94.945312 186.261719 94.945312 274.507812 L 94.945312 350.988281 L 124.628906 350.988281 L 124.628906 343.359375 C 124.628906 307.574219 153.867188 278.558594 189.941406 278.558594 C 226.015625 278.558594 255.253906 307.585938 255.253906 343.359375 L 255.253906 350.988281 L 284.9375 350.988281 L 284.9375 343.359375 C 284.9375 291.308594 242.390625 249.140625 189.929688 249.140625 C 169.503906 249.140625 150.582031 255.53125 135.082031 266.433594 C 151.296875 234.464844 184.691406 212.535156 223.242188 212.535156 C 277.707031 212.535156 321.867188 256.339844 321.867188 310.355469 L 321.867188 350.996094 L 351.5625 350.996094 L 351.5625 310.355469 C 351.5625 240.074219 294.113281 183.082031 223.242188 183.082031 C 191.382812 183.082031 162.230469 194.601562 139.785156 213.683594 C 161.824219 172.375 205.578125 144.214844 256 144.214844 C 328.566406 144.214844 387.382812 202.550781 387.382812 274.515625 L 387.382812 350.996094 L 417.066406 350.996094 L 417.066406 274.515625 C 417.066406 186.28125 344.960938 114.761719 256 114.761719 Z M 256.011719 114.753906 "/>
</g>
</svg>
