<?xml version="1.0" standalone="no"?><!DOCTYPE svg PUBLIC "-//W3C//DTD SVG 1.1//EN" "http://www.w3.org/Graphics/SVG/1.1/DTD/svg11.dtd"><svg t="1741953064519" class="icon" viewBox="0 0 1024 1024" version="1.1" xmlns="http://www.w3.org/2000/svg" p-id="1980" xmlns:xlink="http://www.w3.org/1999/xlink" width="200" height="200"><path d="M379.28 597.76c26.12-7.76 68.52-19.6 117.04-22.84a411.88 411.88 0 0 1-30.56-195.36c6.52-66.04 30.16-121.52 53-168.4l13.88-28.56 17.92-36.72c9.4-20 16.32-37.52 19.6-54.24 3.24-16.28 3.24-30.56-0.8-44.44-4.12-13.88-12.28-28.56-28.6-44.84a68.08 68.08 0 0 0-63.2 15.08l-211.24 190a68.48 68.48 0 0 0-22 40.8l-18 120.72a597.04 597.04 0 0 1 152.96 228.8zM217.8 424l-4.08 12.24-111.76 248.8a69.32 69.32 0 0 0 13.08 75.84l175.76 180.64a354.8 354.8 0 0 0 35.88-354A557.88 557.88 0 0 0 217.8 424z" fill="#707070" p-id="1981"></path><path d="M331.6 963.16l9.36 0.8c33.04 0.8 89.32 4.08 134.56 12.24 37.12 6.92 110.92 27.32 171.28 44.84 46.08 13.88 93.8-23.2 100.32-70.92 4.92-34.68 14.28-73.84 31-110.12a379.24 379.24 0 0 0-103.6-163.96 225.92 225.92 0 0 0-118.24-53.4 386.2 386.2 0 0 0-163.96 19.16 395.56 395.56 0 0 1-61.16 321.36h0.4z" fill="#707070" p-id="1982"></path><path d="M807.48 791.04a2299.48 2299.48 0 0 0 79.12-126.4 34.68 34.68 0 0 0-2.44-37.92 742.32 742.32 0 0 1-87.28-143.6c-23.64-56.64-26.92-144.32-27.32-186.76 0-16.28-4.88-32.2-15.08-44.84l-136.64-173.32c0 7.76-1.6 15.48-3.24 23.24a305.68 305.68 0 0 1-22.84 63.6l-18.8 39.2-13.44 26.88a447.8 447.8 0 0 0-48.12 152.92 375.6 375.6 0 0 0 34.68 191.68 271.6 271.6 0 0 1 158.24 66.08 397.6 397.6 0 0 1 103.2 149.24z" fill="#707070" p-id="1983"></path></svg>