<svg width="120" height="120" viewBox="0 0 120 120" fill="none" xmlns="http://www.w3.org/2000/svg">
<g clip-path="url(#clip0_37_1703)">
<rect x="27" y="27" width="66" height="66" fill="white"/>
<path d="M50.3908 60.832C49.8336 60.8338 49.2999 61.0559 48.906 61.4499C48.512 61.8438 48.2899 62.3776 48.2881 62.9347V67.1469C48.2766 67.4304 48.3225 67.7134 48.4231 67.9787C48.5237 68.2441 48.6768 68.4863 48.8734 68.691C49.0699 68.8957 49.3058 69.0585 49.5668 69.1698C49.8279 69.281 50.1087 69.3384 50.3925 69.3384C50.6762 69.3384 50.9571 69.281 51.2181 69.1698C51.4792 69.0585 51.7151 68.8957 51.9116 68.691C52.1081 68.4863 52.2613 68.2441 52.3619 67.9787C52.4625 67.7134 52.5084 67.4304 52.4969 67.1469V62.9347C52.495 62.377 52.2725 61.8427 51.8778 61.4487C51.4831 61.0546 50.9485 60.8329 50.3908 60.832ZM53.1574 72.7736C52.9608 72.5791 52.8048 72.3475 52.6983 72.0922C52.5918 71.837 52.5369 71.5631 52.5369 71.2865C52.5369 71.01 52.5918 70.7361 52.6983 70.4809C52.8048 70.2256 52.9608 69.994 53.1574 69.7995C53.3519 69.6034 53.5833 69.4478 53.8382 69.3416C54.0932 69.2354 54.3666 69.1807 54.6428 69.1807C54.9189 69.1807 55.1924 69.2354 55.4473 69.3416C55.7022 69.4478 55.9336 69.6034 56.1281 69.7995C57.1139 70.7846 58.4505 71.3381 59.8441 71.3381C61.2377 71.3381 62.5744 70.7846 63.5601 69.7995C63.7546 69.6034 63.986 69.4478 64.2409 69.3416C64.4958 69.2354 64.7693 69.1807 65.0454 69.1807C65.3216 69.1807 65.595 69.2354 65.85 69.3416C66.1049 69.4478 66.3363 69.6034 66.5308 69.7995C66.7274 69.994 66.8834 70.2256 66.9899 70.4809C67.0964 70.7361 67.1513 71.01 67.1513 71.2865C67.1513 71.5631 67.0964 71.837 66.9899 72.0922C66.8834 72.3475 66.7274 72.5791 66.5308 72.7736C65.6537 73.6535 64.6116 74.3517 63.4641 74.8281C62.3167 75.3044 61.0865 75.5496 59.8441 75.5496C58.6017 75.5496 57.3715 75.3044 56.2241 74.8281C55.0766 74.3517 54.0345 73.6535 53.1574 72.7736ZM67.2052 65.027C67.2045 64.6094 67.3277 64.2011 67.5593 63.8536C67.7908 63.5062 68.1202 63.2353 68.5058 63.0752C68.8915 62.9151 69.3159 62.873 69.7255 62.9543C70.135 63.0356 70.5112 63.2366 70.8064 63.5318C71.1017 63.827 71.3027 64.2032 71.384 64.6128C71.4653 65.0223 71.4232 65.4468 71.2631 65.8324C71.103 66.218 70.8321 66.5475 70.4846 66.779C70.1372 67.0105 69.7288 67.1338 69.3113 67.1331C69.034 67.1349 68.7592 67.0817 68.5026 66.9766C68.2461 66.8714 68.0129 66.7164 67.8167 66.5205C67.6205 66.3246 67.4651 66.0917 67.3596 65.8354C67.254 65.579 67.2038 65.3042 67.2052 65.027ZM28.4545 19C25.6821 19.0009 23.0235 20.1027 21.0631 22.0631C19.1027 24.0235 18.0009 26.6821 18 29.4545V91.5455C18.0009 94.3179 19.1027 96.9765 21.0631 98.9369C23.0235 100.897 25.6821 101.999 28.4545 102H90.5455C93.3179 101.999 95.9765 100.897 97.9369 98.9369C99.8973 96.9765 100.999 94.3179 101 91.5455V29.4545C100.999 26.6821 99.8973 24.0235 97.9369 22.0631C95.9765 20.1027 93.3179 19.0009 90.5455 19H28.4545ZM59.8458 32.0725H59.8597C65.6231 32.0762 71.1494 34.368 75.2238 38.4444C79.2982 42.5208 81.5875 48.0481 81.5884 53.8116V62.9243H86.8035C92.7865 62.9243 94.1352 71.3142 88.4497 73.1955L81.5884 75.4884V79.4205C81.5883 80.3125 81.3602 81.1897 80.9258 81.9688C80.4913 82.7478 79.8649 83.4029 79.1061 83.8717C78.3472 84.3405 77.4811 84.6076 76.59 84.6475C75.6989 84.6874 74.8123 84.4988 74.0146 84.0997L70.207 82.201C70.0272 82.118 69.8093 82.201 69.754 82.3912C66.6691 92.0227 53.0329 92.0227 49.9481 82.3912C49.933 82.3478 49.909 82.3079 49.8776 82.2743C49.8461 82.2407 49.808 82.214 49.7656 82.1961C49.7232 82.1782 49.6775 82.1693 49.6315 82.1702C49.5855 82.171 49.5402 82.1816 49.4985 82.201L45.6874 84.1031C44.8894 84.5024 44.0026 84.6909 43.1112 84.6509C42.2198 84.6108 41.3535 84.3435 40.5945 83.8742C39.8356 83.405 39.2092 82.7495 38.775 81.97C38.3408 81.1904 38.1131 80.3128 38.1137 79.4205V75.4815L31.2523 73.199C25.5565 71.328 26.9156 62.9277 32.902 62.9277H38.1137V53.8116C38.1132 50.9572 38.675 48.1307 39.7669 45.4935C40.8588 42.8562 42.4594 40.4598 44.4774 38.4412C46.4955 36.4225 48.8913 34.8211 51.5282 33.7283C54.1651 32.6356 56.9915 32.073 59.8458 32.0725Z" fill="#4D53E8"/>
</g>
<defs>
<clipPath id="clip0_37_1703">
<rect width="83" height="83" fill="white" transform="translate(18 19)"/>
</clipPath>
</defs>
</svg>
