<svg width="120" height="120" viewBox="0 0 120 120" fill="none" xmlns="http://www.w3.org/2000/svg">
<g clip-path="url(#clip0_37_6444)">
<mask id="mask0_37_6444" style="mask-type:luminance" maskUnits="userSpaceOnUse" x="18" y="18" width="84" height="84">
<path d="M101.5 18.5H18.5V101.5H101.5V18.5Z" fill="white"/>
</mask>
<g mask="url(#mask0_37_6444)">
<path d="M19.1675 85.9472C18.7446 86.9608 18.526 88.0481 18.5242 89.1461C18.5242 93.7008 22.3699 97.8542 28.7263 101.032C29.3066 101.315 29.9394 101.472 30.5841 101.495C31.2288 101.517 31.8712 101.405 32.4699 101.165C33.0685 100.924 33.6103 100.561 34.0603 100.099C34.5103 99.6367 34.8585 99.0854 35.0827 98.4805L42.1688 81.4306C43.4104 78.4668 44.3891 75.3958 45.0946 72.2591C31.9702 74.4621 22.0759 79.4939 19.3369 85.6498L19.2263 85.9126L19.1675 85.9472ZM45.0704 47.7431C44.3639 44.6055 43.385 41.5355 42.1446 38.5682L35.0654 21.5186C34.84 20.9138 34.4908 20.3627 34.0401 19.9007C33.5894 19.4386 33.0471 19.0759 32.448 18.8356C31.849 18.5953 31.2063 18.4828 30.5613 18.5053C29.9162 18.5279 29.2829 18.6849 28.7021 18.9664C22.3457 22.1446 18.5 26.3015 18.5 30.8561C18.5 31.9524 18.7213 33.0383 19.1433 34.0516V34.0862L19.2539 34.3525C22.0552 40.5083 31.9425 45.5367 45.0704 47.7431ZM91.2945 18.9698C97.6509 22.1446 101.497 26.3015 101.497 30.8526C101.48 31.9528 101.25 33.0393 100.819 34.0516L100.725 34.2695C98.0105 40.4668 88.092 45.5229 74.9262 47.7431C75.6317 44.6064 76.6104 41.5354 77.8519 38.5682L84.9346 21.5186C85.1587 20.9132 85.5069 20.3615 85.9572 19.8989C86.4075 19.4363 86.9498 19.0731 87.5487 18.8326C88.1477 18.5922 88.7906 18.4799 89.4356 18.5029C90.0809 18.526 90.7142 18.6838 91.2945 18.9664V18.9698ZM74.9642 72.2591C75.6593 75.3924 76.6242 78.4599 77.8588 81.4237L84.9415 98.4805C85.166 99.085 85.5146 99.636 85.9648 100.098C86.4148 100.56 86.9563 100.923 87.555 101.163C88.1536 101.403 88.7958 101.516 89.4401 101.493C90.0847 101.471 90.7176 101.314 91.2979 101.032C97.6578 97.8508 101.503 93.7008 101.503 89.1461C101.499 88.0485 101.28 86.9619 100.86 85.9472L100.767 85.7328C98.0624 79.5354 88.1059 74.4724 74.9642 72.2591ZM74.5181 51.3709C83.8383 49.9357 91.585 47.1414 96.9281 43.4929L95.4133 47.1345C92.0173 55.3714 92.0173 64.6172 95.4133 72.8539L96.9177 76.4783C91.5677 72.8297 83.821 70.0631 74.5112 68.6106L74.2691 68.576C69.5467 67.8594 64.7767 67.5032 60 67.5108C55.2379 67.5039 50.4827 67.8566 45.7724 68.5725L45.5269 68.6071C36.2136 70.0354 28.4669 72.8332 23.1169 76.4821L24.6282 72.8505C28.0244 64.6138 28.0244 55.3679 24.6282 47.131L23.1169 43.4929C28.4427 47.1587 36.1894 49.9357 45.5027 51.3709L45.7482 51.4055C55.2033 52.8131 64.814 52.8131 74.2656 51.4055L74.5112 51.3709H74.5181Z" fill="white"/>
</g>
</g>
<defs>
<clipPath id="clip0_37_6444">
<rect width="83" height="83" fill="white" transform="translate(18.5 18.5)"/>
</clipPath>
</defs>
</svg>
