<svg width="120" height="120" viewBox="0 0 120 120" fill="none" xmlns="http://www.w3.org/2000/svg">
<path d="M36.8516 87.4554C36.8516 87.4554 44.8782 86.5596 45.3261 86.4162C45.7741 86.2657 54.1053 86.7101 54.1053 86.7101L59.4552 88.0502L64.3644 89.8347L65.701 90.2827L72.9859 87.6023L81.7651 86.2657L87.7098 86.4127L92.318 87.0075L94.253 87.6023L94.1025 95.6362L90.0891 94.5934L82.3527 93.9986L76.9992 94.4429L72.3911 95.4857L68.2308 96.8258L65.2566 98.0155L59.0073 95.6362L51.425 94.1455H42.6494L36.8516 95.1882V87.4554Z" fill="white" fill-opacity="0.5"/>
<path d="M65.2318 99.4165C51.7119 91.9704 37.3535 96.4352 37.2102 96.4818L35.5869 96.9978V86.7494L36.4469 86.4699C37.0704 86.2693 51.9413 81.6181 66.4251 89.591L65.2318 91.7661C53.6075 85.3663 41.3668 87.7707 38.0702 88.5949V93.6832C42.3809 92.6584 54.5356 90.6947 66.4251 97.2414L65.2318 99.4165Z" fill="white"/>
<path d="M65.063 99.4165L63.8662 97.2414C75.7593 90.6947 87.9104 92.6583 92.2247 93.6832V88.5984C88.928 87.7707 76.6838 85.3734 65.063 91.7697L63.8662 89.5946C78.35 81.6217 93.2209 86.2728 93.8444 86.4771L94.7044 86.753V97.0085L93.0847 96.4817C92.9414 96.4352 78.5865 91.9739 65.063 99.4165Z" fill="white"/>
<path d="M80.6264 76.0389C80.6324 75.6066 80.5517 75.1775 80.3893 74.7769C80.2268 74.3762 79.9858 74.0122 79.6804 73.7061C79.3902 73.4007 79.0379 73.1611 78.6472 73.0035C78.2566 72.8459 77.8366 72.7739 77.4158 72.7924C76.544 72.8485 75.7231 73.222 75.1081 73.8423C74.481 74.602 74.1764 75.3939 74.18 76.2969C74.1733 76.7166 74.2511 77.1333 74.4087 77.5224C74.5663 77.9114 74.8005 78.2648 75.0973 78.5616C75.7244 79.2316 76.4948 79.5362 77.405 79.4753C78.2865 79.4753 79.0497 79.117 79.6732 78.4254C80.2876 77.7811 80.6314 76.9256 80.6336 76.0353L80.6264 76.0389ZM55.5897 78.429C56.2046 77.7992 56.5448 76.9513 56.5357 76.0711C56.5419 75.1705 56.2064 74.301 55.5968 73.6381C54.9727 73.0866 54.1609 72.7955 53.3286 72.8246C52.4723 72.8891 51.6612 73.2342 51.0209 73.8065C50.406 74.4756 50.0668 75.3524 50.0713 76.2611C50.0713 77.1569 50.3902 77.9273 51.0173 78.5651C51.6265 79.2352 52.3897 79.5362 53.2963 79.4789C54.228 79.4502 54.9841 79.1206 55.5861 78.429H55.5897Z" fill="white" fill-opacity="0.5"/>
<path d="M65.0168 87.4125C62.5335 87.4125 60.0933 87.2047 58.2263 86.7245C53.1989 85.4345 49.1963 83.1053 45.9964 79.608C42.6675 75.9638 42.4561 72.4557 42.2339 68.7398C42.2053 68.2632 42.1766 67.783 42.1408 67.2885C41.8433 63.1784 39.8976 56.7499 39.8797 56.689L39.7256 56.1838L40.0338 55.7573C42.7641 51.9664 46.5036 49.0178 50.8268 47.2469C54.8688 45.5628 59.6776 44.6813 65.5363 44.5523C75.2866 43.9825 85.9183 48.0388 90.8203 54.1986L91.1285 54.5892L88.9068 64.945C88.8853 65.5004 88.7205 68.4137 87.9178 74.3692C86.9754 81.3459 78.3575 85.3378 73.9321 86.4701C71.6817 87.0506 68.3062 87.4125 65.0168 87.4125ZM42.0476 56.5851C42.5278 58.2334 43.9754 63.4364 44.2442 67.1344C44.28 67.6325 44.3087 68.127 44.3373 68.6108C44.5523 72.2299 44.7279 75.093 47.548 78.1854C50.4684 81.3746 54.1306 83.5031 58.7459 84.6856C62.6589 85.6889 69.7145 85.3808 73.4053 84.4312C76.5838 83.6142 85.0153 80.167 85.8323 74.0789C86.6923 67.6791 86.807 64.7873 86.8106 64.7623V64.6691L88.8603 55.1231C85.6353 48.9311 83.7253 47.6626 79.6224 46.1146C75.3009 44.4842 70.0298 46.3833 65.6367 46.6449H65.6008C54.3993 46.8886 46.1863 43.2945 42.044 56.5815L42.0476 56.5851Z" fill="white"/>
<path d="M87.0351 55.9223C87.8342 57.9755 88.171 59.004 88.92 60.8888C88.92 60.8888 90.898 57.7104 91.525 55.435C92.1521 53.138 91.7687 50.2105 91.2742 47.4764C90.0415 42.8825 89.0812 42.5278 85.3725 39.808C83.6112 38.6153 81.732 37.6067 79.7645 36.798C75.372 35.1165 70.7387 34.1487 66.0404 33.9314C61.3716 33.8711 56.7234 34.5607 52.2732 35.9739C50.2698 36.6559 48.3452 37.5509 46.5327 38.6435C42.6806 41.1339 40.0003 44.642 38.506 49.1498C38.1047 50.8447 37.4669 52.4715 37.6281 54.041C38.3448 61.2435 43.0461 64.4076 42.7236 62.6733C42.3044 60.4337 42.5731 59.1115 43.15 56.9686C44.2394 52.9195 46.823 49.9274 50.9008 48.021H50.9151C51.707 47.7989 55.7311 45.5127 61.0703 48.2432C62.4893 48.8524 64.969 50.4971 66.2088 50.4577C67.4522 50.4219 69.2403 49.2215 70.5446 48.408C72.992 46.8744 75.3105 46.3512 78.3706 47.3223C82.8247 48.7198 85.5552 51.8839 87.0351 55.9223Z" fill="white"/>
<path d="M21.3609 52.3317L24.7078 53.3136L28.5455 53.1165L31.3047 51.246L34.2609 48.5871L36.4253 45.6309L39.1844 42.775L41.8397 41.1016L45.4803 40.3132L43.0186 44.6455L40.951 46.7095L36.6188 52.7151L34.6515 55.6714L32.3868 57.2481L29.1368 59.4124C29.1368 59.4124 26.2808 60.0036 25.987 60.1004C25.6968 60.2007 23.3318 60.5949 23.3318 60.5949L21.2642 60.4946L19.6875 60.0037L21.1638 57.0474L21.3645 54.8831V52.3246L21.3609 52.3317Z" fill="white" fill-opacity="0.5"/>
<path d="M29.9265 35.3037L29.6291 37.5612L28.8407 39.1415L27.8589 40.6178L25.3936 42.0941L28.3498 43.5705L31.5999 44.8497L34.9467 45.5413L36.4231 45.6416L39.9706 43.1763L43.708 39.8295L42.4287 39.4353L37.8062 38.9444L34.3555 37.6615L31.8937 36.3859L29.9229 35.3037H29.9265Z" fill="white" fill-opacity="0.5"/>
<path d="M22.4503 61.4296C21.4111 61.4296 20.3146 61.3651 19.1643 61.2469L17 60.996L18.0678 60.3152L18.6376 59.6953C18.7164 59.577 18.9422 59.1793 19.3184 58.3444V58.3372C19.9276 57.0293 20.1354 54.8435 19.9527 51.8406L19.8237 49.8196L21.3824 51.1096C23.0093 52.457 25.0518 52.7795 27.6174 52.0843C29.9108 51.4321 32.4083 49.2893 35.0278 45.7275C37.4393 42.2588 40.9044 39.9081 45.3477 38.7328L45.7634 38.6217L48.5692 40.8075L46.0465 40.6284C45.8027 40.8595 45.5741 41.106 45.3621 41.3665L45.3119 41.4275L45.2474 41.4848C43.7998 44.0576 41.7286 46.5946 39.6574 49.3717L39.6288 49.4219C39.3098 49.9809 38.9837 50.5578 38.629 51.1311V51.1634L38.5143 51.3461C36.393 54.7933 34.0602 57.3769 31.5806 59.0324C29.3052 60.627 26.2414 61.4296 22.4503 61.4296ZM20.6586 59.62C24.9371 59.896 28.2696 59.2187 30.5844 57.5883L30.6023 57.5775C32.8455 56.0833 34.9848 53.7147 36.9556 50.5399C36.9887 50.4436 37.0385 50.3539 37.1025 50.2747C37.4537 49.705 37.7833 49.1245 38.1058 48.5547C39.5105 45.8672 41.123 43.4735 42.9183 41.4275C40.2379 42.61 38.113 44.3658 36.4683 46.7344L36.4539 46.7559C33.5586 50.7011 30.8209 52.998 28.094 53.772C25.6824 54.4242 23.5683 54.3095 21.773 53.4316C21.8088 55.9041 21.5293 57.7567 20.9238 59.0682C20.8306 59.276 20.7446 59.4552 20.6658 59.6165H20.6586V59.62Z" fill="white"/>
<path d="M22.6502 61.4297C21.611 61.4297 20.5145 61.3652 19.3643 61.2469L19.5434 59.5054C24.4562 60.025 28.233 59.38 30.7808 57.5883L30.8023 57.5776C33.0454 56.0833 35.1811 53.7148 37.1519 50.5435C37.209 50.383 37.3065 50.2398 37.435 50.1278L38.5817 51.4537C38.7274 51.3231 38.8194 51.143 38.8397 50.9484L38.8218 51.1563L38.7143 51.3426C36.5929 54.7898 34.2602 57.3733 31.7805 59.0288C29.5015 60.6234 26.4413 61.4297 22.6502 61.4297ZM37.607 44.6525C37.2359 44.6778 36.8644 44.6969 36.4926 44.7098C33.5435 44.8138 30.4009 43.9932 27.1222 42.266C29.9602 40.4313 30.7521 38.3387 30.641 36.4574C31.3183 36.9949 32.0242 37.4643 32.7588 37.8657C37.5783 40.5818 42.6703 41.0118 51.3742 38.5752L50.7829 36.9268C42.5126 39.2094 38.0334 38.8332 33.608 36.3356C32.3131 35.6229 31.1428 34.7043 30.1429 33.6158L30.0247 33.4868L28.233 31.5447L28.5698 34.0423C28.62 34.2501 29.6448 39.1198 24.9507 41.4956L23.5245 42.2158L24.8969 43.0328C28.7418 45.319 32.4721 46.4728 35.9838 46.4728L37.607 44.6525ZM59.7484 71.5024C59.4652 71.4958 59.1901 71.4065 58.957 71.2454C58.724 71.0843 58.5432 70.8585 58.4369 70.5958C57.2688 67.9263 56.3514 66.8154 54.9647 65.1313C53.5672 63.4328 50.5823 60.5553 50.0913 60.1397C49.432 59.5807 49.2457 58.821 49.6398 58.2943C49.8369 58.0363 50.4246 57.5095 51.6322 58.3122C54.0796 59.9318 59.5083 64.8052 60.9775 68.7182C61.515 70.1408 60.9775 71.1083 60.2573 71.4021C60.0949 71.4695 59.9206 71.5036 59.7448 71.5024H59.7484ZM70.3085 71.5741C70.1286 71.5741 69.9506 71.5375 69.7853 71.4666C69.0651 71.162 68.5455 70.1873 69.0973 68.7719C70.6167 64.8804 76.1099 60.0752 78.5753 58.4878C79.7936 57.6994 80.3741 58.2298 80.5676 58.4949C80.9582 59.0217 80.7611 59.7778 80.0982 60.3296C79.6001 60.7417 76.5793 63.5725 75.1568 65.2603C73.7521 66.9265 72.824 68.0266 71.6164 70.6818C71.5094 70.9416 71.3291 71.1647 71.0975 71.3237C70.8659 71.4828 70.593 71.571 70.3121 71.5777V71.5705L70.3085 71.5741Z" fill="white"/>
<path d="M75.7035 28.8823C75.7393 26.8542 74.7539 25.1055 72.7401 23.6435C70.6976 22.2102 68.2537 21.4863 65.4121 21.4648C62.5741 21.4433 60.1411 22.1421 58.1344 23.5683C56.117 25.0052 55.0886 26.7359 55.0635 28.7462C55.0706 29.3768 55.1244 29.9502 55.2068 30.4877C62.7318 28.0653 69.4721 28.266 75.4168 31.0861C75.5781 30.3336 75.6748 29.6062 75.7035 28.8823Z" fill="white" fill-opacity="0.5"/>
<path d="M44.2341 69.7323L44.1982 69.6463C44.0994 69.422 44.0133 69.1923 43.9402 68.9583L43.7288 68.281L42.3385 68.3276L42.231 69.4958C42.2381 69.5424 42.2632 69.6535 42.2883 69.8541V69.8935C42.2991 69.9652 42.3026 70.0225 42.317 70.0799C42.3355 70.3644 42.2925 70.6495 42.1911 70.916C42.0897 71.1825 41.9322 71.424 41.7293 71.6243C41.328 72.0543 40.8048 72.2406 40.1168 72.212C39.2568 72.1761 38.9701 71.8357 38.834 71.5813C38.4577 70.9005 38.4326 70.5385 38.4506 70.3773C38.5043 69.9365 38.5939 69.4671 38.7265 68.9977C38.9236 68.2595 38.7731 67.4067 38.275 66.4607L37.7626 65.486C37.5433 65.0481 37.3749 64.5864 37.2609 64.11C37.1562 63.5645 37.1832 63.0019 37.3397 62.4689C37.4794 61.9209 37.8162 61.4438 38.2857 61.1287C38.8121 60.7902 39.4466 60.6623 40.0631 60.7704L40.1168 60.7775H40.1706C40.8586 60.7775 41.4211 60.8492 41.8511 60.9603C41.7276 60.2748 41.695 59.576 41.7544 58.882C41.3194 58.6947 40.8615 58.5658 40.3927 58.4985H40.3641L40.0236 58.4699C38.9902 58.3769 37.954 58.614 37.0638 59.1471C36.0891 59.7205 35.4298 60.559 35.1145 61.6555C34.8409 62.6056 34.804 63.6082 35.007 64.5759C35.0356 64.7228 35.0679 64.8984 35.1252 65.0632C35.2793 65.547 35.5301 66.0845 35.8777 66.6614C36.4081 67.5321 36.5693 67.8188 36.6123 67.9155L36.6302 67.9478C36.6947 68.066 36.7091 68.2488 36.6661 68.4853L36.6481 68.5677C36.61 68.7736 36.5694 68.9791 36.5263 69.184C36.1142 70.2519 36.0712 71.2409 36.3973 72.1045C36.5416 72.536 36.7697 72.9348 37.0686 73.278C37.3674 73.6211 37.7311 73.9018 38.1388 74.104C38.619 74.3405 39.1708 74.491 39.7871 74.5519C40.124 74.5877 40.4751 74.5877 40.8406 74.5698C41.4069 74.5518 41.9598 74.3938 42.45 74.1099C42.9402 73.826 43.3525 73.4251 43.65 72.943C43.9564 72.4912 44.1683 71.9822 44.273 71.4464C44.3777 70.9107 44.373 70.3593 44.2591 69.8255L44.2448 69.7323H44.2341ZM95.5653 60.2114C95.2586 59.1476 94.542 58.2492 93.573 57.7138C92.7107 57.2095 91.7077 56.9901 90.7135 57.0867L90.6024 57.0975L90.2691 57.1369H90.2405C89.572 57.2548 88.9308 57.4941 88.3485 57.8428C88.4266 58.5145 88.4073 59.194 88.2911 59.8602L88.6495 59.7169C89.1081 59.527 89.7316 59.3765 90.5558 59.251L90.6024 59.2439C90.8952 59.1759 91.1994 59.1738 91.4931 59.2376C91.7868 59.3014 92.0627 59.4296 92.3009 59.613C92.8563 60.0179 93.2326 60.5231 93.4476 61.1466C93.6267 61.7343 93.6518 62.2395 93.5264 62.6875C93.3931 63.1899 93.2206 63.6812 93.0104 64.1566C92.793 64.6194 92.5648 65.077 92.326 65.529C91.9845 66.1517 91.8561 66.8691 91.9605 67.5715C92.0465 68.2022 92.1396 68.7254 92.24 69.1697C92.3068 69.5671 92.2622 69.9751 92.111 70.3486L92.1002 70.3701C91.9676 70.7894 91.2581 71.0151 90.8461 71.1155C89.9036 71.3412 89.4808 70.9972 89.23 70.6855C88.8129 70.1692 88.5932 69.5214 88.6101 68.858L88.6244 68.668C88.6346 68.5561 88.6514 68.4448 88.6746 68.3348L88.6459 67.1272L87.1015 67.163L86.9366 67.826C86.8777 68.0561 86.801 68.2813 86.7073 68.4996L86.6679 68.5964L86.65 68.7003C86.4708 69.8004 86.6966 70.8431 87.3201 71.8106L87.3344 71.8321C88.0152 72.814 88.9935 73.3586 90.1545 73.398C90.4662 73.416 90.7636 73.4052 91.0503 73.3837C91.7383 73.3192 92.3511 73.1365 92.8742 72.8462C93.6606 72.4024 94.2487 71.676 94.519 70.8145C94.8236 69.9115 94.7626 68.926 94.3398 67.8905L94.2323 67.2777L94.2251 67.2311C94.1778 67.0156 94.1965 66.7908 94.2789 66.5861C94.4401 66.1991 94.6587 65.7512 94.9275 65.2424C95.2786 64.6225 95.508 64.0957 95.6298 63.6514C95.6904 63.4751 95.7301 63.2923 95.7481 63.1067C95.9108 62.1423 95.8458 61.1533 95.5581 60.2185L95.5653 60.2114ZM76.4482 30.8065C76.5665 30.1436 76.6381 29.5201 76.6632 28.8966C76.7062 26.5746 75.5846 24.5644 73.3307 22.9232C71.1485 21.3931 68.5147 20.6084 65.5047 20.5833C62.484 20.5546 59.861 21.325 57.7074 22.8515C55.4571 24.464 54.2996 26.442 54.2674 28.739V28.7605C54.2746 29.2191 54.3032 29.6778 54.3606 30.158C54.1578 30.3867 54.0379 30.677 54.0201 30.9821V31.018C54.0201 31.792 54.1348 32.5695 54.3677 33.322L54.3713 33.3435C54.6938 34.2931 55.2492 35.1997 56.0196 36.031L56.2454 36.2747L58.2771 36.5005C60.0151 37.511 62.3335 38.052 65.1858 38.1022H65.5549C67.6583 38.1022 69.4966 37.8442 71.0266 37.339L71.0661 37.3246C71.6394 37.0989 72.1984 36.8301 72.7323 36.522C74.352 36.676 75.5667 35.877 76.1902 34.2537L76.3443 34.0889L76.3371 33.856C76.5772 33.1214 77.0001 31.6773 76.4482 30.8065ZM58.7215 24.2741C60.5633 22.9662 62.8387 22.314 65.4868 22.332C68.1385 22.3535 70.4318 23.0343 72.3059 24.3458C74.0868 25.6394 74.9396 27.1193 74.911 28.8429C74.8966 29.1618 74.8751 29.4879 74.8286 29.8247C71.7802 28.5576 68.5085 27.9154 65.2073 27.9363C62.2833 27.9363 59.2231 28.4021 56.0411 29.3338C56.03 29.1369 56.0228 28.9398 56.0196 28.7425C56.0411 27.0154 56.9262 25.5534 58.7215 24.2741ZM74.8931 32.4907L74.3018 33.77C74.3018 33.77 73.5314 34.8844 72.6893 34.7446L72.3596 34.6909L72.0801 34.8665C71.5642 35.1864 71.0196 35.4575 70.4533 35.6763C69.0307 36.1421 67.2641 36.3643 65.2145 36.3356C62.6775 36.2855 60.6421 35.834 59.1658 34.974L59.0332 34.8987L58.8612 34.7912L57.1018 34.5977C56.765 34.2035 56.292 33.3794 56.292 33.3794L55.8082 31.9747L55.7796 31.2437C62.9032 29.0005 69.3604 29.1869 74.9683 31.7991C74.9755 31.903 74.8931 32.4907 74.8931 32.4907ZM75.4198 33.795V33.7807L75.4306 33.795H75.4198Z" fill="white"/>
</svg>
