<svg width="120" height="120" viewBox="0 0 120 120" fill="none" xmlns="http://www.w3.org/2000/svg">
<g clip-path="url(#clip0_37_474)">
<path d="M55.5328 102.985L56.8068 102.883L63.0887 102.561L64.6848 102.883C65.7392 103.102 66.9106 102.78 68.3017 102.356L69.5757 101.931L72.3433 101.082L73.9394 100.862C74.9937 100.76 76.0627 100.54 77.0145 100.013L78.8303 99.061L80.851 97.787L82.6668 97.0402C83.4136 96.718 84.0433 96.513 84.5851 96.0884L86.928 94.2872L89.5784 92.2665L90.8524 91.1975C91.3795 90.6703 91.9213 90.2457 92.346 89.6014L93.62 87.6831L94.9964 85.4573L97.0172 82.4848L97.8665 80.8886C98.2912 80.2443 98.4962 79.395 98.7158 78.6629L99.038 77.1692L99.8873 75.046C100.092 74.5188 100.312 74.0942 100.414 73.4498L100.839 71.1069L101.483 68.1343C101.586 67.49 101.688 66.9629 101.688 66.2161L101.483 61.5302L101.264 58.9823C101.161 58.0305 100.942 57.1665 100.517 56.2147L99.9752 55.0432L98.8037 51.7485L98.0569 49.3031C97.8372 48.7759 97.6322 48.2488 97.3101 47.6045L96.4608 46.1108L95.2893 43.5629L93.371 40.5903L91.4528 38.2474L88.7877 35.6995L86.1373 33.6787L85.1854 32.8294C84.6583 32.4047 84.3361 32.2876 83.809 31.9801L80.8217 30.4865L79.6503 29.8568C79.2256 29.5346 78.6985 29.315 78.1567 29.11L76.1359 28.3632C75.6087 28.1435 74.9644 28.041 74.4373 27.9385L73.4855 31.1454L70.1029 32.6683C69.3561 32.1265 66.8813 29.8568 64.8606 29.9739L62.7373 26.1374L56.2503 25.8152L54.7713 28.5389L53.6145 31.1893C52.8677 31.1893 52.7213 33.1808 51.9745 33.503L45.9561 28.5535L42.4271 28.495C41.3581 28.8171 40.4063 29.2418 39.4545 29.9886L38.283 30.8379L36.4819 32.0094L35.5301 32.7562L33.5093 34.6744L31.9132 35.2162C30.8589 35.6409 29.7899 36.4902 28.8234 37.7642L28.3988 38.4085L26.8027 40.2096C26.583 40.5317 26.2755 40.7368 26.0559 41.1614L24.5623 43.2847L23.0686 45.8326L21.9997 47.6337C21.3554 48.8052 20.9454 50.0792 20.8282 51.3531V52.2024L19.5542 55.3947L19.1296 56.6686C18.9099 57.4155 18.9099 58.0451 18.9099 58.8944V61.1202L18.3096 67.4607V69.2765C18.3096 70.2283 18.5292 71.1948 18.8514 72.0441L19.3785 73.5377L19.7007 75.2363C19.8032 76.3053 20.2278 77.3596 20.7696 78.3261L21.2968 79.2779L22.7904 82.5726L23.4347 84.2712C23.7569 85.223 24.3865 86.0724 25.0308 86.8192L25.9827 87.8881L27.9009 89.8064L30.4489 92.2518L32.25 93.8479C32.8796 94.4776 33.6264 94.9169 34.3732 95.2244L36.0719 95.9712L38.3123 97.7723L40.0109 98.8267C40.9627 99.471 42.2367 99.8956 43.4082 99.9981L44.155 100.101L46.7029 100.95C47.2301 101.155 47.6547 101.272 48.0794 101.375L50.3051 101.697L51.9013 102.444C52.8531 102.868 54.127 103.073 55.5182 102.971L55.5328 102.985ZM48.299 60.9738L49.9976 57.5765L51.6963 55.5558L53.3949 53.2128L56.265 52.0414L63.0741 51.6167L65.5195 53.74L68.5946 55.5558L71.3622 61.0909L71.2597 67.2557L69.9857 70.448L67.9649 73.6402L66.1638 75.661L62.8691 77.0374L56.7043 77.14L54.2588 75.6463L51.4912 73.6256L49.2655 70.3308L48.8408 67.4607L48.3137 60.9738H48.299Z" fill="white"/>
<path d="M70.6739 26.0495H68.2432V28.4803H70.6739V26.0495Z" fill="white"/>
<path d="M70.6739 26.0495H68.2432V28.4803H70.6739V26.0495Z" fill="white"/>
<mask id="mask0_37_474" style="mask-type:luminance" maskUnits="userSpaceOnUse" x="68" y="26" width="3" height="3">
<path d="M70.6739 26.0495H68.2432V28.4803H70.6739V26.0495Z" fill="white"/>
</mask>
<g mask="url(#mask0_37_474)">
<path d="M69.4586 26.0495C70.1321 26.0495 70.6739 26.5913 70.6739 27.2649C70.6739 27.9385 70.1321 28.4803 69.4586 28.4803C68.785 28.4803 68.2432 27.9385 68.2432 27.2649C68.2432 26.5913 68.785 26.0495 69.4586 26.0495Z" fill="white"/>
</g>
<path d="M69.269 29.1246H69.3275L69.6058 29.1099H69.679C69.7229 29.1392 69.7668 29.1099 69.8401 29.1099H69.8986C69.8986 29.0953 70.0158 29.0513 70.0158 29.0513H70.089C70.1329 29.0513 70.1768 29.0221 70.2208 29.0074L70.294 28.9635L70.3819 28.9049L70.4551 28.8756C70.4844 28.8756 70.5136 28.8463 70.5429 28.8317L70.6454 28.7585L70.7626 28.6706L70.8212 28.6267C70.8504 28.5974 70.8651 28.5828 70.8797 28.5535L70.9383 28.4656L70.9969 28.3631L71.0847 28.2313L71.114 28.1581C71.1287 28.1288 71.1433 28.0995 71.1433 28.0556V27.997L71.1872 27.9092C71.1872 27.8799 71.2019 27.8652 71.2165 27.8359V27.7334C71.2312 27.7334 71.2605 27.6017 71.2605 27.6017C71.2605 27.5724 71.2605 27.5577 71.2605 27.5138V27.3088L71.2458 27.1916C71.2458 27.1477 71.2312 27.1184 71.2165 27.0745V27.0306C71.2019 27.0306 71.1433 26.8841 71.1433 26.8841L71.114 26.7816C71.114 26.7523 71.0994 26.7377 71.0847 26.7084L71.0554 26.6498L70.9969 26.5327L70.909 26.4009L70.8212 26.2984L70.704 26.1813L70.5869 26.0934L70.5429 26.0641C70.5283 26.0495 70.5136 26.0348 70.4844 26.0348L70.3526 25.9763L70.294 25.947C70.2794 25.947 70.2501 25.9177 70.2354 25.9177L70.1476 25.8884C70.1329 25.8884 70.1036 25.8884 70.0743 25.8737H69.9718L69.9279 25.8298C69.8986 25.8005 69.8254 25.8005 69.7376 25.8005H69.5765L69.2983 25.7859H69.1665H69.1225C69.0932 25.7859 69.0493 25.7859 69.02 25.8005L68.9322 25.8298L68.7125 25.8884C68.6686 25.8884 68.6247 25.9177 68.5807 25.947L68.5222 25.9909L68.4489 26.0348L68.405 26.0641L68.3172 26.152L68.2439 26.1813C68.2 26.1959 68.1561 26.2398 68.1121 26.2984V26.3277C68.0975 26.3277 68.0243 26.4009 68.0243 26.4009C68.0243 26.4009 67.995 26.4302 67.995 26.4448L67.9364 26.5327L67.8779 26.6498L67.8339 26.7231C67.8046 26.767 67.79 26.8256 67.7753 26.8841V26.9134L67.7168 27.0452V27.1038C67.6875 27.1331 67.6875 27.1624 67.6875 27.2063V27.3088L67.6582 27.587V27.6602C67.6582 27.7042 67.6582 27.7481 67.6875 27.7774V27.8359C67.7021 27.8359 67.7168 27.9092 67.7168 27.9092C67.7168 27.9531 67.7314 27.997 67.7607 28.041V28.0849C67.7754 28.0849 67.8486 28.2313 67.8486 28.2313L67.8779 28.3045C67.8925 28.3485 67.9218 28.3777 67.9511 28.4217L67.995 28.4656L68.0829 28.5535L68.2 28.656L68.2732 28.7292C68.3025 28.7585 68.3318 28.7731 68.3611 28.7878L68.4343 28.817L68.5222 28.8903L68.5954 28.9342C68.6393 28.9635 68.6979 28.9781 68.7418 28.9781H68.7711L68.8882 29.0221C68.9175 29.0221 68.9322 29.0221 68.9468 29.0367H69.0347L69.1079 29.0806C69.1518 29.0953 69.2104 29.1099 69.269 29.1099V29.1246ZM68.9468 27.3088L69.02 27.1624L69.0932 27.0745L69.1665 26.972L69.2983 26.9281H69.5911C69.5911 26.9134 69.6936 27.0013 69.6936 27.0013L69.8254 27.0745L69.9426 27.3234V27.587L69.884 27.7188L69.7961 27.8506L69.7229 27.9385L69.5765 27.997H69.3129L69.2104 27.9385L69.0932 27.8506L68.9907 27.7042V27.587C68.9761 27.587 68.9468 27.3088 68.9468 27.3088Z" fill="white"/>
<path d="M68.2416 37.9252L68.593 37.8959L70.2916 37.8081L70.7309 37.8959C71.0238 37.9545 71.3313 37.8667 71.712 37.7495L72.0635 37.6324L72.8103 37.3981L73.2349 37.3395C73.5278 37.3102 73.806 37.2516 74.0696 37.1052L74.5675 36.8416L75.1239 36.4902L75.6071 36.2852C75.8121 36.1973 75.9879 36.1388 76.1196 36.0216L76.7493 35.5384L77.4668 34.9966L77.8183 34.7037C77.9647 34.5573 78.1111 34.4401 78.2283 34.2791L78.5797 33.7665L78.9458 33.1515L79.5022 32.3461L79.7365 31.9215C79.8537 31.7458 79.9123 31.5115 79.9708 31.3065L80.0587 30.8965L80.293 30.3254C80.3515 30.1789 80.4101 30.0618 80.4394 29.8861L80.5566 29.2564L80.7323 28.451C80.7616 28.2753 80.7908 28.1289 80.7908 27.9385L80.7323 26.6646L80.6737 25.9763C80.6444 25.7127 80.5858 25.4931 80.4687 25.2295L80.3223 24.9074L80.0001 24.0141L79.7951 23.3552C79.7365 23.2087 79.678 23.0623 79.5901 22.8866L79.3558 22.4766L79.0337 21.7883L78.5211 20.983L78.0086 20.3533L77.2911 19.6651L76.5736 19.1233L76.31 18.889C76.1636 18.7718 76.0757 18.7425 75.9293 18.6547L75.1239 18.2447L74.8017 18.0689C74.6846 17.9811 74.5382 17.9225 74.3917 17.8639L73.8499 17.6589C73.7035 17.6004 73.5278 17.5711 73.396 17.5418L72.7663 17.4539L72.4442 17.2196C72.2392 17.0732 71.8438 17.0439 71.2874 17.0732L70.2184 17.0439L68.4612 16.9561L67.5973 17.0146H67.3044C67.0994 17.0146 66.8651 17.0439 66.6747 17.1318L66.0744 17.3368L64.7272 17.6882C64.4343 17.7761 64.1854 17.8932 63.9218 18.0982L63.5996 18.3325L63.1018 18.6547L62.8382 18.8597L62.2817 19.3722L61.8571 19.5186C61.5642 19.6358 61.286 19.8701 61.0224 20.2069L60.9053 20.3826L60.466 20.8658C60.4074 20.9537 60.3195 21.0122 60.261 21.1294L59.851 21.7005L59.4409 22.3887L59.1481 22.8719C58.9724 23.1941 58.8552 23.5309 58.8259 23.8823V24.1166L58.4745 24.9806L58.3573 25.3174C58.2988 25.5224 58.2988 25.6981 58.2988 25.9324V26.5328L58.123 28.2607V28.7439C58.123 29.0075 58.1816 29.2564 58.2695 29.4907L58.4159 29.9007L58.5038 30.3693C58.5331 30.6622 58.6502 30.9404 58.7966 31.204L58.9431 31.4675L59.3531 32.3608L59.5288 32.8294C59.6167 33.093 59.7924 33.3126 59.9535 33.5176L60.217 33.8105L60.7296 34.3376L61.4178 34.9966L61.9157 35.4359C62.0914 35.6116 62.2964 35.7287 62.4867 35.802L62.9407 36.007L63.5411 36.4902L63.995 36.7831C64.2586 36.9588 64.5954 37.0759 64.9175 37.1052L65.1225 37.1345L65.8108 37.3688C65.9572 37.4274 66.0743 37.4566 66.1915 37.4859L66.7919 37.5738L67.2312 37.7788C67.4947 37.8959 67.8315 37.9545 68.2123 37.9252H68.2416ZM66.2794 26.5474L66.7333 25.6249L67.1872 25.0831L67.6412 24.4534L68.4173 24.1313L70.2623 24.0141L70.9213 24.5852L71.7559 25.0684L72.5028 26.562L72.4735 28.2314L72.122 29.0953L71.5656 29.9593L71.0677 30.5157L70.1745 30.8965L68.5051 30.9257L67.8462 30.5157L67.0994 29.9593L66.499 29.066L66.3819 28.29L66.2354 26.5328L66.2794 26.5474Z" fill="white"/>
<path d="M49.3382 37.9252L49.6897 37.896L51.3883 37.8081L51.8276 37.896C52.1204 37.9545 52.428 37.8667 52.8087 37.7495L53.1601 37.6324L53.9069 37.3981L54.3316 37.3395C54.6244 37.3102 54.9027 37.2517 55.1663 37.1052L55.6641 36.8416L56.2206 36.4902L56.7038 36.2852C56.9088 36.1973 57.0845 36.1388 57.2163 36.0216L57.846 35.5384L58.5635 34.9966L58.9149 34.7037C59.0614 34.5573 59.2078 34.4401 59.3249 34.2791L59.6764 33.7666L60.0425 33.1515L60.5989 32.3462L60.8332 31.9215C60.9503 31.7458 61.0089 31.5115 61.0675 31.3065L61.1554 30.8965L61.3896 30.3254C61.4482 30.179 61.5068 30.0618 61.5361 29.8861L61.6532 29.2564L61.8289 28.451C61.8582 28.2753 61.8875 28.1289 61.8875 27.9385L61.8289 26.6646L61.7704 25.9763C61.7411 25.7128 61.6825 25.4931 61.5654 25.2295L61.4189 24.9074L61.0968 24.0141L60.8918 23.3552C60.8332 23.2088 60.7746 23.0623 60.6868 22.8866L60.4525 22.4766L60.1303 21.7884L59.6178 20.983L59.1053 20.3533L58.3878 19.6651L57.6702 19.1233L57.4067 18.889C57.2602 18.7718 57.1724 18.7426 57.0259 18.6547L56.2206 18.2447L55.8984 18.069C55.7813 17.9811 55.6348 17.9225 55.4884 17.864L54.9466 17.6589C54.8002 17.6004 54.6244 17.5711 54.4927 17.5418L53.863 17.4539L53.5408 17.2196C53.3358 17.0732 52.9405 17.0439 52.384 17.0732L51.3151 17.0439L49.5286 17L48.6646 17.0586H48.3718C48.1668 17.0586 47.9325 17.0879 47.7421 17.1757L47.1417 17.3807L45.7945 17.7322C45.5017 17.82 45.2527 17.9372 44.9892 18.1422L44.667 18.3765L44.1691 18.6986L43.9056 18.9036L43.3491 19.4161L42.9245 19.5626C42.6316 19.6797 42.3534 19.914 42.0898 20.2508L41.9727 20.4265L41.5334 20.9098C41.4748 20.9976 41.3869 21.0562 41.3283 21.1733L40.9183 21.7444L40.5083 22.4327L40.2155 22.9159C40.0397 23.238 39.9226 23.5748 39.8933 23.9263V24.1606L39.5419 25.0245L39.4247 25.3613C39.3661 25.5663 39.3661 25.742 39.3661 25.9763V26.5767L39.1904 28.3046V28.7878C39.1904 29.0514 39.249 29.3004 39.3369 29.5346L39.4833 29.9447L39.5712 30.4132C39.6004 30.7061 39.7176 30.9843 39.864 31.2479L40.0105 31.5115L40.4205 32.4047L40.5962 32.8733C40.684 33.1369 40.8598 33.3565 41.0208 33.5616L41.2844 33.8544L41.7969 34.3816L42.4852 35.0405L42.983 35.4798C43.1588 35.6555 43.3638 35.7727 43.5541 35.8459L44.0081 36.0509L44.6084 36.5341L45.0624 36.827C45.326 37.0027 45.6628 37.1199 45.9849 37.1492L46.1899 37.1784L46.8782 37.4127C47.0246 37.4713 47.1417 37.5006 47.2589 37.5299L47.8593 37.6177L48.2986 37.8227C48.5621 37.9399 48.8989 37.9985 49.2797 37.9692L49.3382 37.9252ZM47.376 26.5474L47.83 25.6249L48.2839 25.0831L48.7379 24.4534L49.5139 24.1313L51.359 24.0141L52.0179 24.5852L52.8526 25.0684L53.5994 26.5621L53.5701 28.2314L53.2187 29.0954L52.6623 29.9593L52.1644 30.5157L51.2711 30.8965L49.6018 30.9258L48.9429 30.5157L48.196 29.9593L47.5957 29.0661L47.4785 28.29L47.3321 26.5328L47.376 26.5474Z" fill="white"/>
<path d="M51.754 26.0495H49.3232V28.4803H51.754V26.0495Z" fill="white"/>
<path d="M51.754 26.0495H49.3232V28.4803H51.754V26.0495Z" fill="white"/>
<mask id="mask1_37_474" style="mask-type:luminance" maskUnits="userSpaceOnUse" x="49" y="26" width="3" height="3">
<path d="M51.754 26.0495H49.3232V28.4803H51.754V26.0495Z" fill="white"/>
</mask>
<g mask="url(#mask1_37_474)">
<path d="M50.5386 26.0495C51.2122 26.0495 51.754 26.5913 51.754 27.2649C51.754 27.9385 51.2122 28.4803 50.5386 28.4803C49.865 28.4803 49.3232 27.9385 49.3232 27.2649C49.3232 26.5913 49.865 26.0495 50.5386 26.0495Z" fill="white"/>
</g>
<path d="M50.349 29.1246H50.4076L50.6858 29.1099H50.7591C50.803 29.1392 50.8469 29.1099 50.9201 29.1099H50.9787C50.9787 29.0953 51.0958 29.0513 51.0958 29.0513H51.1691C51.213 29.0513 51.2569 29.0221 51.3009 29.0074L51.3741 28.9635L51.4619 28.9049L51.5351 28.8756C51.5644 28.8756 51.5937 28.8463 51.623 28.8317L51.7255 28.7585L51.8427 28.6706L51.9012 28.6267C51.9305 28.5974 51.9452 28.5828 51.9598 28.5535L52.0184 28.4656L52.0769 28.3631L52.1648 28.2313L52.1941 28.1581C52.2087 28.1288 52.2234 28.0995 52.2234 28.0556V27.997L52.2673 27.9092C52.2673 27.8799 52.282 27.8652 52.2966 27.8359V27.7334C52.3112 27.7334 52.3405 27.6017 52.3405 27.6017C52.3405 27.5724 52.3405 27.5577 52.3405 27.5138V27.3088L52.3259 27.1916C52.3259 27.1477 52.3112 27.1184 52.2966 27.0745V27.0306C52.282 27.0306 52.2234 26.8841 52.2234 26.8841L52.1941 26.7816C52.1941 26.7523 52.1795 26.7377 52.1648 26.7084L52.1355 26.6498L52.0769 26.5327L51.9891 26.4009L51.9012 26.2984L51.7841 26.1813L51.6669 26.0934L51.623 26.0641C51.6084 26.0495 51.5937 26.0348 51.5644 26.0348L51.4326 25.9763L51.3741 25.947C51.3594 25.947 51.3301 25.9177 51.3155 25.9177L51.2276 25.8884C51.213 25.8884 51.1837 25.8884 51.1544 25.8737H51.0519L51.008 25.8298C50.9787 25.8005 50.9055 25.8005 50.8176 25.8005H50.6565L50.3783 25.7859H50.2465H50.2026C50.1733 25.7859 50.1294 25.7859 50.1001 25.8005L50.0122 25.8298L49.7926 25.8884C49.7487 25.8884 49.7047 25.9177 49.6608 25.947L49.6022 25.9909L49.529 26.0348L49.4851 26.0641L49.3972 26.152L49.324 26.1813C49.2801 26.1959 49.2362 26.2398 49.1922 26.2984V26.3277C49.1776 26.3277 49.1044 26.4009 49.1044 26.4009C49.1044 26.4009 49.0751 26.4302 49.0751 26.4448L49.0165 26.5327L48.9579 26.6498L48.914 26.7231C48.8847 26.767 48.8701 26.8256 48.8554 26.8841V26.9134L48.7969 27.0452V27.1038C48.7676 27.1331 48.7676 27.1624 48.7676 27.2063V27.3088L48.7383 27.587V27.6602C48.7383 27.7042 48.7383 27.7481 48.7676 27.7774V27.8359C48.7822 27.8359 48.7969 27.9092 48.7969 27.9092C48.7969 27.9531 48.8115 27.997 48.8408 28.041V28.0849C48.8554 28.0849 48.9286 28.2313 48.9286 28.2313L48.9579 28.3045C48.9726 28.3485 49.0019 28.3777 49.0311 28.4217L49.0751 28.4656L49.1629 28.5535L49.2801 28.656L49.3533 28.7292C49.3826 28.7585 49.4119 28.7731 49.4412 28.7878L49.5144 28.817L49.6022 28.8903L49.6755 28.9342C49.7194 28.9635 49.778 28.9781 49.8219 28.9781H49.8512L49.9683 29.0221C49.9976 29.0221 50.0122 29.0221 50.0269 29.0367H50.1147L50.188 29.0806C50.2319 29.0953 50.2905 29.1099 50.349 29.1099V29.1246ZM50.0415 27.3088L50.1147 27.1624L50.188 27.0745L50.2612 26.972L50.393 26.9281H50.6858C50.6858 26.9134 50.7883 27.0013 50.7883 27.0013L50.9201 27.0745L51.0373 27.3234V27.587L50.9787 27.7188L50.8908 27.8506L50.8176 27.9385L50.6712 27.997H50.4076L50.3051 27.9385L50.188 27.8506L50.0855 27.7042V27.587C50.0708 27.587 50.0415 27.3088 50.0415 27.3088Z" fill="white"/>
</g>
<defs>
<clipPath id="clip0_37_474">
<rect width="86" height="86" fill="white" transform="translate(17 17)"/>
</clipPath>
</defs>
</svg>
