<svg width="120" height="120" viewBox="0 0 120 120" fill="none" xmlns="http://www.w3.org/2000/svg">
<g clip-path="url(#clip0_37_1569)">
<path fill-rule="evenodd" clip-rule="evenodd" d="M50.4504 48.5815V40.8598C50.4504 40.2106 50.6964 39.7221 51.2636 39.3975L66.7855 30.4595C68.9004 29.2397 71.4185 28.6726 74.0185 28.6726C83.7697 28.6726 89.947 36.2302 89.947 44.2731C89.947 44.8436 89.947 45.4928 89.865 46.142L73.7725 36.7154C73.3355 36.4372 72.8282 36.2894 72.3102 36.2894C71.7922 36.2894 71.2849 36.4372 70.8479 36.7154L50.4504 48.5815ZM86.6978 78.6481V60.205C86.6978 59.0672 86.2092 58.2575 85.232 57.6869L64.8345 45.8208L71.497 42.001C71.7385 41.8421 72.0212 41.7575 72.3102 41.7575C72.5992 41.7575 72.8819 41.8421 73.1234 42.001L88.6453 50.9424C93.1177 53.5391 96.1243 59.0672 96.1243 64.4314C96.1243 70.6087 92.4685 76.2974 86.6944 78.6549L86.6978 78.6481ZM45.6568 62.4019L38.9943 58.5C38.4237 58.1755 38.1777 57.6869 38.1777 57.0377V39.1549C38.1777 30.4595 44.8402 23.8756 53.8636 23.8756C57.2803 23.8756 60.4475 25.0133 63.1296 27.0462L47.1191 36.3122C46.1454 36.8794 45.6568 37.6926 45.6568 38.8303V62.3985V62.4019ZM60 70.6873L50.4504 65.3231V53.9456L60 48.5815L69.5495 53.9456V65.3231L60 70.6873ZM66.1363 95.3898C62.7196 95.3898 59.5524 94.2554 56.8703 92.2225L72.8808 82.9565C73.8545 82.3894 74.3431 81.5762 74.3431 80.4384V56.8703L81.0876 60.7721C81.6582 61.0967 81.9008 61.5853 81.9008 62.2345V80.1139C81.9008 88.8093 75.1563 95.3898 66.1363 95.3898ZM46.8766 77.2712L31.3512 68.3298C26.8822 65.7297 23.8756 60.205 23.8756 54.8408C23.865 51.7929 24.7643 48.8111 26.4582 46.2772C28.1521 43.7434 30.5637 41.7726 33.3842 40.6172V59.1458C33.3842 60.2835 33.8727 61.0967 34.8465 61.6673L55.1654 73.4514L48.5029 77.2712C48.2616 77.4305 47.9788 77.5154 47.6897 77.5154C47.4006 77.5154 47.1178 77.4305 46.8766 77.2712ZM45.9814 90.5962C36.7974 90.5962 30.0529 83.6911 30.0529 75.1563C30.0529 74.5071 30.1349 73.858 30.2135 73.2088L46.224 82.4679C47.2011 83.0385 48.1749 83.0385 49.1486 82.4679L69.5461 70.6873V78.409C69.5461 79.0581 69.307 79.5467 68.7364 79.8713L53.2145 88.8093C51.0996 90.029 48.5815 90.5962 45.9814 90.5962ZM66.1363 100.265C70.819 100.266 75.3582 98.6487 78.9859 95.6877C82.6137 92.7267 85.1074 88.6036 86.0452 84.0157C95.1472 81.6582 101 73.1199 101 64.428C101 58.7392 98.5638 53.2145 94.1734 49.2306C94.58 47.5223 94.8226 45.8174 94.8226 44.1125C94.8226 32.4924 85.396 23.7936 74.5071 23.7936C72.3136 23.7936 70.2021 24.1182 68.0838 24.8527C64.2913 21.1197 59.1885 19.019 53.8671 19C49.1838 18.9998 44.6443 20.6173 41.0165 23.579C37.3887 26.5406 34.8953 30.6646 33.9582 35.2531C24.8527 37.6106 19 46.1454 19 54.8408C19 60.533 21.4361 66.0577 25.8265 70.0381C25.4199 71.7465 25.1773 73.4548 25.1773 75.1597C25.1773 86.7798 34.6039 95.4752 45.4928 95.4752C47.6863 95.4752 49.7978 95.1506 51.9161 94.4194C55.7091 98.1539 60.8135 100.255 66.1363 100.272V100.265Z" fill="white"/>
</g>
<defs>
<clipPath id="clip0_37_1569">
<rect width="81.9999" height="81.9999" fill="white" transform="translate(19 19)"/>
</clipPath>
</defs>
</svg>
