<svg width="120" height="120" viewBox="0 0 120 120" fill="none" xmlns="http://www.w3.org/2000/svg">
<path fill-rule="evenodd" clip-rule="evenodd" d="M33.0581 17L57.5469 39.5627V39.5576V17.0521H62.3138V39.6637L86.9123 17V42.7249H97.0115V79.8305H86.9435V102.737L62.3138 81.0987V102.986H57.5469V81.4552L33.0859 103V79.8305H22.9863V42.7249H33.0581V17ZM53.9531 47.4336H27.7533V75.1217H33.0799V66.388L53.9531 47.4336ZM37.8526 68.4771V92.4926L57.5469 75.1467V50.5893L37.8526 68.4771ZM62.451 74.9171V50.5661L82.1511 68.4552V79.8305H82.1765V92.2475L62.451 74.9171ZM86.9435 75.1217H92.2446V47.4336H66.24L86.9435 66.1916V75.1217ZM82.1454 42.7249V27.8312L65.9802 42.7249H82.1454ZM53.99 42.7249H37.8251V27.8312L53.99 42.7249Z" fill="white"/>
</svg>
