<svg width="120" height="120" viewBox="0 0 120 120" fill="none" xmlns="http://www.w3.org/2000/svg">
<g clip-path="url(#clip0_37_6234)">
<path fill-rule="evenodd" clip-rule="evenodd" d="M91.2038 41.639C90.7214 41.155 90.146 40.7737 89.5123 40.5181C88.8786 40.2625 88.1997 40.138 87.5165 40.1519H87.495C86.5434 40.1524 85.6011 39.9651 84.722 39.6009C83.8429 39.2366 83.0443 38.7025 82.3719 38.0291C81.6995 37.3557 81.1666 36.5563 80.8036 35.6767C80.4407 34.797 80.2548 33.8544 80.2567 32.9028C80.2676 32.2349 80.1464 31.5713 79.9 30.9504C79.6537 30.3294 79.287 29.7632 78.8212 29.2844C78.3554 28.8056 77.7995 28.4235 77.1855 28.1602C76.5716 27.8969 75.9116 27.7575 75.2436 27.75H34.4545C33.7867 27.7551 33.1265 27.8924 32.512 28.1539C31.8975 28.4154 31.3409 28.796 30.8742 29.2737C30.4075 29.7514 30.04 30.3167 29.7928 30.9371C29.5457 31.5576 29.4238 32.2208 29.4343 32.8885C29.4333 34.8127 28.6685 36.6578 27.3079 38.0184C25.9473 39.379 24.1022 40.1438 22.178 40.1448V40.1519C21.5009 40.1371 20.8277 40.2581 20.1982 40.5079C19.5687 40.7576 18.9956 41.1311 18.5129 41.6061C18.0302 42.0811 17.6476 42.6481 17.3878 43.2736C17.1279 43.899 16.9961 44.5702 17.0001 45.2474V58.2979C16.9971 58.9743 17.1295 59.6444 17.3895 60.2687C17.6496 60.8931 18.032 61.459 18.5142 61.9332C18.9965 62.4075 19.5688 62.7803 20.1974 63.0299C20.826 63.2794 21.4982 63.4006 22.1744 63.3862C24.0958 63.3862 25.9387 64.1483 27.299 65.5052C28.6593 66.8622 29.4259 68.7032 29.4307 70.6246V83.8578C29.4306 84.2289 29.5457 84.5909 29.7602 84.8937C29.9747 85.1965 30.2779 85.4253 30.6279 85.5484C30.978 85.6715 31.3576 85.6829 31.7145 85.581C32.0713 85.4791 32.3876 85.2689 32.6198 84.9794L39.9693 75.781H75.24C75.9075 75.7754 76.5673 75.6378 77.1814 75.3761C77.7955 75.1143 78.3517 74.7337 78.818 74.2561C79.2843 73.7784 79.6515 73.2132 79.8984 72.593C80.1453 71.9729 80.2671 71.3099 80.2567 70.6425V70.6353C80.2567 66.622 83.496 63.3791 87.5165 63.3791C88.1936 63.3954 88.867 63.2756 89.4969 63.0269C90.1268 62.7781 90.7003 62.4054 91.1836 61.9309C91.6668 61.4564 92.0498 60.8897 92.3099 60.2644C92.5701 59.6391 92.702 58.968 92.698 58.2908V45.2367C92.698 43.9359 92.1963 42.6352 91.2038 41.639ZM82.5321 58.4341C82.5132 60.3461 81.7404 62.1734 80.3816 63.5188C79.0228 64.8641 77.188 65.6188 75.2758 65.6187H34.4187C32.5065 65.6188 30.6717 64.8641 29.3129 63.5188C27.9541 62.1734 27.1813 60.3461 27.1624 58.4341V45.1041C27.1822 43.193 27.9549 41.3667 29.3127 40.0217C30.6704 38.6767 32.5039 37.9213 34.4151 37.9195H75.2651C77.1776 37.9194 79.0128 38.6739 80.3721 40.0192C81.7315 41.3644 82.5051 43.1917 82.5249 45.1041V58.4341H82.5321Z" fill="white"/>
<path fill-rule="evenodd" clip-rule="evenodd" d="M43.562 44.1258C42.2112 44.1248 40.9153 44.6602 39.9591 45.6144C39.003 46.5685 38.4648 47.8633 38.4629 49.2141V54.3096C38.4629 55.661 38.9997 56.9571 39.9553 57.9127C40.9109 58.8682 42.207 59.4051 43.5584 59.4051C44.9098 59.4051 46.2059 58.8682 47.1615 57.9127C48.117 56.9571 48.6539 55.661 48.6539 54.3096V49.2141C48.6539 46.4048 46.3749 44.1186 43.5584 44.1186L43.562 44.1258ZM66.1262 44.1258C64.7754 44.1258 63.4799 44.6621 62.5244 45.6169C61.5689 46.5717 61.0317 47.8669 61.0307 49.2177V54.3132C61.0307 55.6646 61.5676 56.9606 62.5232 57.9162C63.4788 58.8718 64.7748 59.4087 66.1262 59.4087C67.4776 59.4087 68.7737 58.8718 69.7293 57.9162C70.6849 56.9606 71.2217 55.6646 71.2217 54.3132V49.2141C71.2217 46.4048 68.9427 44.1186 66.1262 44.1186V44.1258Z" fill="white"/>
<path fill-rule="evenodd" clip-rule="evenodd" d="M43.1298 98.1373L50.2714 89.2077H85.5457C86.2131 89.2016 86.8727 89.0637 87.4865 88.8018C88.1004 88.5399 88.6564 88.1592 89.1227 87.6817C89.5889 87.2041 89.9561 86.6391 90.2032 86.0192C90.4503 85.3992 90.5723 84.7365 90.5624 84.0692C90.5605 82.1484 91.3202 80.3052 92.675 78.9437C94.0299 77.5822 95.8692 76.8133 97.79 76.8057H97.8258C98.5027 76.8226 99.176 76.7031 99.8057 76.4545C100.435 76.2058 101.009 75.833 101.491 75.3583C101.974 74.8836 102.357 74.3166 102.616 73.6911C102.875 73.0657 103.006 72.3944 103 71.7174V58.8389C103 57.6062 102.595 56.4022 101.839 55.4312L100.417 53.5714V68.3598C100.419 69.036 100.286 69.7059 100.026 70.33C99.7659 70.9542 99.3835 71.5199 98.9013 71.9941C98.4192 72.4682 97.8471 72.8411 97.2187 73.0908C96.5903 73.3405 95.9183 73.462 95.2422 73.4482H95.2172C93.2973 73.4557 91.4586 74.2235 90.1035 75.5834C88.7483 76.9432 87.9869 78.7846 87.986 80.7044C87.9959 81.3727 87.8737 82.0363 87.6262 82.6571C87.3788 83.278 87.011 83.8438 86.5442 84.322C86.0773 84.8002 85.5204 85.1814 84.9057 85.4436C84.291 85.7059 83.6305 85.844 82.9622 85.8501H47.6914L39.9192 95.5681C39.6137 95.9966 39.4841 96.5258 39.5569 97.047C39.6298 97.5681 39.8997 98.0415 40.311 98.3698C40.7223 98.698 41.2438 98.8561 41.7682 98.8115C42.2925 98.767 42.7798 98.5231 43.1298 98.1302V98.1373Z" fill="url(#paint0_linear_37_6234)"/>
<path fill-rule="evenodd" clip-rule="evenodd" d="M34.9318 88.638L42.5285 79.1422H77.8028C78.4716 79.1366 79.1326 78.9987 79.7478 78.7364C80.363 78.4741 80.9202 78.0926 81.3872 77.6139C81.8542 77.1352 82.2219 76.5688 82.4689 75.9473C82.716 75.3259 82.8376 74.6616 82.8267 73.993C82.8267 69.994 86.0517 66.751 90.0435 66.7367H90.0865C90.7631 66.7511 91.4358 66.6297 92.0647 66.3796C92.6936 66.1296 93.266 65.756 93.748 65.281C94.2301 64.806 94.612 64.2391 94.8712 63.6139C95.1304 62.9888 95.2617 62.318 95.2572 61.6412V46.842L97.1206 49.2787C97.8731 50.257 98.2816 51.4538 98.2816 52.6829V65.5614C98.2836 66.2371 98.1506 66.9065 97.8905 67.5301C97.6303 68.1538 97.2482 68.7192 96.7665 69.1932C96.2849 69.6672 95.7134 70.0402 95.0856 70.2903C94.4579 70.5404 93.7865 70.6626 93.1108 70.6497H93.075C91.1558 70.6592 89.3184 71.4282 87.9647 72.7887C86.6109 74.1492 85.851 75.9903 85.851 77.9095C85.8609 78.5776 85.7386 79.2411 85.4912 79.8617C85.2437 80.4824 84.8759 81.0479 84.4089 81.5258C83.942 82.0038 83.3852 82.3846 82.7704 82.6465C82.1557 82.9083 81.4953 83.046 80.8272 83.0516H45.56L38.6943 91.6516C38.2957 92.1501 37.7153 92.4698 37.0809 92.5403C36.4465 92.6109 35.8101 92.4266 35.3117 92.0279C34.8132 91.6292 34.4935 91.0488 34.423 90.4145C34.3524 89.7801 34.5367 89.1437 34.9354 88.6452L34.9318 88.638Z" fill="url(#paint1_linear_37_6234)"/>
</g>
<defs>
<linearGradient id="paint0_linear_37_6234" x1="138.869" y1="43.169" x2="20.8917" y2="116.312" gradientUnits="userSpaceOnUse">
<stop stop-color="#46A6F7"/>
<stop offset="1" stop-color="#8364FF"/>
</linearGradient>
<linearGradient id="paint1_linear_37_6234" x1="34.6129" y1="101.248" x2="104.219" y2="50.9127" gradientUnits="userSpaceOnUse">
<stop stop-color="#FF44D3"/>
<stop offset="1" stop-color="#CF4BFF"/>
</linearGradient>
<clipPath id="clip0_37_6234">
<rect width="86" height="86" fill="white" transform="translate(17 17)"/>
</clipPath>
</defs>
</svg>
