<svg width="120" height="120" viewBox="0 0 120 120" fill="none" xmlns="http://www.w3.org/2000/svg">
<path d="M80.503 82.5996C78.1591 77.6945 83.9441 74.4146 87.0903 71.8396C97.4997 63.3109 109.779 46.4866 98.5214 33.5363C90.8893 24.7571 76.1095 25.3455 67.8596 32.8722C60.7066 39.3969 56.0071 48.0013 51.8908 56.6814C49.9106 60.8527 48.0399 65.0703 46.0655 69.2474C44.1603 73.2727 42.1454 77.6246 38.5429 80.3974C38.4044 80.5023 38.2658 80.6072 38.1215 80.7062C34.1148 83.5492 29.4385 81.4286 28.5782 76.6284C27.2504 69.2707 30.495 61.2372 38.8027 51.3335C45.9848 42.7583 54.2924 34.5733 63.4891 27H46.308C40.4943 32.4411 35.0963 38.1211 30.189 43.9758C23.4862 51.9685 14.8725 64.2605 17.4762 78.6672C18.5327 84.5221 22.1641 89.4796 27.1753 91.9381C31.9094 94.2507 37.3594 94.1167 42.1397 91.5652C49.437 87.6678 53.3861 80.0013 56.8674 72.8183C61.1627 63.9517 65.0308 54.7531 70.7808 46.708C73.3617 43.0962 77.9052 38.6454 82.6161 38.6454C86.4728 38.6454 90.1156 41.1271 90.8028 45.0244C91.4089 48.3916 90.5717 51.7996 88.7646 54.6483C82.0271 65.2917 61.8901 71.1172 67.952 87.1143C68.4599 88.4543 69.1241 89.7359 69.915 90.9244C70.4748 91.7866 71.1098 92.6022 71.7912 93.3887H91.1953C82.0041 87.8076 80.503 82.5938 80.503 82.5938V82.5996Z" fill="white"/>
</svg>
