<svg width="120" height="120" viewBox="0 0 120 120" fill="none" xmlns="http://www.w3.org/2000/svg">
<g clip-path="url(#clip0_34_6214)">
<mask id="mask0_34_6214" style="mask-type:luminance" maskUnits="userSpaceOnUse" x="19" y="18" width="83" height="83">
<path d="M102 18H19V101H102V18Z" fill="white"/>
</mask>
<g mask="url(#mask0_34_6214)">
<path d="M64.5075 100.998C85.2132 100.998 101.999 84.1818 101.999 63.4381C101.999 42.6945 85.2132 25.8784 64.5075 25.8784C43.8019 25.8784 27.0166 42.6945 27.0166 63.4381C27.0166 84.1818 43.8019 100.998 64.5075 100.998Z" fill="#3F3FAA"/>
<path d="M56.4911 93.1195C77.1968 93.1195 93.9822 76.3037 93.9822 55.5599C93.9822 34.8161 77.1968 18 56.4911 18C35.7853 18 19 34.8161 19 55.5599C19 76.3037 35.7853 93.1195 56.4911 93.1195Z" fill="#8E47F0"/>
<path d="M55.9137 80.5568C53.2503 80.5568 50.6774 79.6753 48.5444 78.0084C46.0119 76.0302 44.3979 73.1802 44.0049 69.9868C43.8853 69.0115 43.8804 68.0442 43.9904 67.0932C43.2497 67.2374 42.4832 67.3121 41.7021 67.3121C35.0717 67.3121 29.6768 61.9071 29.6768 55.2646C29.6768 48.622 35.0717 43.2173 41.7021 43.2173C42.6498 43.2173 43.5732 43.3274 44.4578 43.5364C44.406 43.0828 44.3801 42.6227 44.3801 42.1609C44.3801 35.5183 49.775 30.1135 56.4055 30.1135C63.0358 30.1135 68.4308 35.5183 68.4308 42.1609C68.4308 42.5465 68.4129 42.9305 68.3759 43.3128C69.3494 43.1427 70.3488 43.0909 71.3562 43.167C77.9689 43.6579 82.95 49.4483 82.4599 56.0732C82.222 59.2825 80.7505 62.2069 78.3182 64.3082C75.8842 66.4095 72.7776 67.4369 69.5773 67.1969C68.9952 67.1534 68.4229 67.069 67.8633 66.9459C67.8664 66.9735 67.8695 67.0008 67.8744 67.0285C68.269 70.2219 67.3989 73.378 65.4245 75.9168C63.4498 78.4555 60.6053 80.0706 57.4178 80.4659C56.9149 80.5274 56.4117 80.5568 55.9137 80.5568ZM49.2398 64.6454C48.3956 66.11 48.0608 67.7707 48.2694 69.4587C48.5234 71.5115 49.5583 73.342 51.1868 74.6123C52.8137 75.8843 54.8386 76.4449 56.8873 76.1903C58.9363 75.9361 60.7637 74.8993 62.0315 73.2677C63.3011 71.636 63.8607 69.6077 63.6068 67.5566C63.4401 66.2023 62.9259 64.9303 62.1142 63.8531C61.5837 63.3395 61.0985 62.7758 60.6634 62.1616C59.9763 61.1929 60.2028 59.848 61.1697 59.1594C62.1367 58.4691 63.4789 58.6977 64.1664 59.665C64.3265 59.8902 64.4963 60.1056 64.6772 60.3097C64.8214 60.4117 64.9556 60.5334 65.077 60.6728C65.1496 60.7585 65.2222 60.8443 65.2917 60.9318C66.5533 62.0741 68.1639 62.7723 69.8944 62.9003C74.154 63.2195 77.8572 60.0102 78.1726 55.7523C78.488 51.4946 75.2877 47.7747 71.0377 47.4588C69.4092 47.3373 67.8194 47.7229 66.4337 48.5735C65.7755 49.1146 64.8293 49.2329 64.037 48.797C62.9971 48.2251 62.6153 46.916 63.1863 45.8743C63.8057 44.7434 64.1325 43.4586 64.1325 42.1593C64.1325 37.8902 60.6652 34.4166 56.4038 34.4166C52.1426 34.4166 48.6754 37.8902 48.6754 42.1593C48.6754 43.6871 49.1185 45.163 49.9562 46.43C49.9966 46.4915 50.0338 46.5547 50.0677 46.6195C52.3221 48.81 53.7243 51.8769 53.7243 55.2646C53.7243 59.0508 51.9744 62.4355 49.2398 64.6454ZM41.7005 47.5236C37.4392 47.5236 33.972 50.9972 33.972 55.2664C33.972 59.5353 37.4392 63.0089 41.7005 63.0089C45.9617 63.0089 49.429 59.5353 49.429 55.2664C49.429 50.9972 45.9617 47.5236 41.7005 47.5236Z" fill="white"/>
</g>
</g>
<defs>
<clipPath id="clip0_34_6214">
<rect width="83" height="83" fill="white" transform="translate(19 18)"/>
</clipPath>
</defs>
</svg>
