<svg width="120" height="120" viewBox="0 0 120 120" fill="none" xmlns="http://www.w3.org/2000/svg">
<path d="M50.3257 38.1776C50.3933 38.2158 50.461 38.2541 50.5306 38.2935C51.2677 38.7641 51.6301 39.4741 52.0457 40.2201C52.1577 40.4194 52.2697 40.6187 52.3816 40.8181C52.5726 41.1586 52.7632 41.4994 52.9529 41.8406C53.3975 42.6391 53.8532 43.4301 54.3166 44.2178C54.8528 45.1302 55.3689 46.0513 55.872 46.9824C56.5269 48.1925 57.2157 49.3832 57.904 50.5745C57.9443 50.6444 57.9845 50.7142 58.0259 50.7862C58.1312 50.9689 58.2368 51.1513 58.3424 51.3337C58.6791 51.9517 58.7051 52.5392 58.6032 53.2276C58.3967 53.8361 58.0631 54.3931 57.7432 54.9476C57.6837 55.0516 57.6837 55.0516 57.623 55.1577C57.4115 55.5252 57.1958 55.8901 56.9781 56.254C56.6105 56.8694 56.2532 57.4908 55.8955 58.1121C55.7928 58.2906 55.7928 58.2906 55.6879 58.4726C55.5472 58.7167 55.4066 58.9609 55.2659 59.2051C54.9274 59.7928 54.5884 60.3802 54.2495 60.9676C54.1151 61.2005 53.9807 61.4334 53.8463 61.6663C53.5776 62.1322 53.3088 62.598 53.0401 63.0638C52.9736 63.1792 52.907 63.2945 52.8385 63.4133C52.7042 63.646 52.5699 63.8788 52.4356 64.1115C52.0982 64.6964 51.7608 65.2813 51.4238 65.8664C50.7764 66.99 50.1272 68.1124 49.4724 69.2317C48.8896 70.2283 48.3151 71.2295 47.7435 72.2326C47.1874 73.2084 46.6243 74.18 46.0568 75.1492C45.5751 75.9731 45.1007 76.8009 44.6282 77.6301C44.0361 78.6693 43.4382 79.7049 42.833 80.7366C42.4911 81.3205 42.1537 81.9066 41.821 82.4957C41.7451 82.6299 41.6692 82.7641 41.5932 82.8982C41.4491 83.1529 41.306 83.4079 41.1632 83.6633C40.0639 85.6074 38.9299 87.2173 36.6978 87.9023C35.9391 88.1052 35.1945 88.1038 34.4141 88.101C34.2551 88.1016 34.096 88.1024 33.937 88.1033C33.5085 88.1052 33.0802 88.1051 32.6517 88.1045C32.2932 88.1041 31.9346 88.1048 31.5761 88.1054C30.7305 88.1069 29.8848 88.1068 29.0392 88.1055C28.1678 88.1043 27.2965 88.1058 26.4252 88.1087C25.6752 88.1111 24.9253 88.1118 24.1754 88.1112C23.7282 88.1108 23.2811 88.1111 22.834 88.1129C22.414 88.1146 21.9941 88.1142 21.5742 88.1121C21.4204 88.1117 21.2665 88.1121 21.1127 88.1132C19.6661 88.123 19.6661 88.123 19.1507 87.6276C18.8194 87.168 18.7974 86.8298 18.8673 86.2906C19.0008 85.7528 19.3044 85.3061 19.5941 84.8393C19.7324 84.6097 19.8706 84.38 20.0086 84.1502C20.1159 83.9733 20.1159 83.9733 20.2254 83.7928C20.572 83.217 20.9058 82.634 21.2402 82.051C21.3756 81.8161 21.5109 81.5813 21.6463 81.3464C21.7471 81.1714 21.7471 81.1714 21.8499 80.9929C22.1862 80.4093 22.5228 79.826 22.8595 79.2426C22.9938 79.0097 23.1282 78.7768 23.2626 78.5438C27.2938 71.5563 31.3251 64.5688 35.3563 57.5813C35.4229 57.466 35.4894 57.3507 35.5579 57.2319C35.6922 56.9992 35.8265 56.7664 35.9608 56.5337C36.2983 55.9488 36.6356 55.3639 36.9726 54.7788C37.8095 53.3263 38.651 51.8765 39.4968 50.4291C39.8101 49.893 40.1229 49.3565 40.4357 48.8201C40.5615 48.6044 40.6874 48.3887 40.8132 48.173C41.0599 47.75 41.3066 47.327 41.5531 46.904C42.0793 46.0012 42.6061 45.0987 43.1337 44.1968C43.1713 44.1325 43.2088 44.0683 43.2475 44.0022C43.4394 43.6743 43.6316 43.3466 43.8244 43.0192C43.9015 42.8881 43.9787 42.7569 44.0559 42.6258C44.0941 42.5608 44.1324 42.4958 44.1718 42.4288C44.4079 42.0269 44.6412 41.6236 44.8726 41.219C45.0247 40.9533 45.1781 40.6883 45.3317 40.4235C45.4377 40.2395 45.5421 40.0547 45.6465 39.8698C46.1377 39.0253 46.7231 38.2123 47.6953 37.9017C48.5792 37.7465 49.5442 37.6991 50.3257 38.1776Z" fill="#2172FC"/>
<path d="M63.3706 52.3127C63.5778 52.3109 63.5778 52.3109 63.7893 52.309C63.9416 52.3098 64.094 52.3107 64.2464 52.3116C64.4075 52.3111 64.5686 52.3103 64.7296 52.3094C65.1668 52.3074 65.6039 52.3082 66.0411 52.3095C66.4996 52.3106 66.9581 52.3096 67.4166 52.3089C68.1874 52.3081 68.9581 52.3092 69.7289 52.3112C70.6174 52.3136 71.5059 52.3128 72.3945 52.3104C73.1589 52.3085 73.9233 52.3082 74.6878 52.3093C75.1436 52.31 75.5994 52.3101 76.0553 52.3087C76.4847 52.3074 76.9141 52.3083 77.3436 52.3108C77.5003 52.3113 77.657 52.3112 77.8136 52.3102C79.6183 52.3002 80.9744 52.8277 82.3095 54.0255C83.0002 54.7492 83.4809 55.5855 83.9711 56.4523C84.0782 56.6397 84.1852 56.8272 84.2924 57.0146C84.3653 57.1422 84.4381 57.2698 84.5109 57.3974C84.8617 58.0123 85.219 58.6232 85.5769 59.2338C86.1598 60.2303 86.7341 61.2315 87.3057 62.2345C87.8648 63.2154 88.4303 64.1924 89.0004 65.167C89.6619 66.2983 90.3162 67.4338 90.9703 68.5694C91.3066 69.153 91.6433 69.7364 91.9799 70.3198C92.1143 70.5527 92.2486 70.7856 92.383 71.0185C92.4495 71.1338 92.516 71.2491 92.5846 71.3679C98.0268 80.801 98.0268 80.801 98.2287 81.151C98.3619 81.3819 98.4951 81.6128 98.6284 81.8437C98.944 82.3906 99.2594 82.9375 99.5743 83.4848C99.7235 83.7439 99.8727 84.003 100.022 84.262C100.127 84.4454 100.233 84.6289 100.338 84.8123C100.434 84.9783 100.434 84.9783 100.532 85.1476C100.588 85.2453 100.644 85.3429 100.702 85.4434C100.816 85.6376 100.939 85.8272 101.064 86.0148C101.21 86.6337 101.178 86.9804 100.891 87.5454C100.62 87.8874 100.32 88.0421 99.8888 88.0985C99.7718 88.0989 99.6548 88.0993 99.5343 88.0997C99.3321 88.1015 99.3321 88.1015 99.1257 88.1034C98.9771 88.1031 98.8285 88.1028 98.6798 88.1024C98.5226 88.1032 98.3654 88.1041 98.2082 88.1052C97.7814 88.1076 97.3547 88.1079 96.928 88.1077C96.5706 88.1077 96.2133 88.1086 95.8559 88.1095C95.0114 88.1115 94.1669 88.1119 93.3223 88.1111C92.4548 88.1104 91.5873 88.1129 90.7198 88.1169C89.9726 88.1202 89.2254 88.1214 88.4782 88.121C88.033 88.1207 87.5879 88.1213 87.1428 88.124C86.7228 88.1264 86.3029 88.1261 85.883 88.124C85.7303 88.1236 85.5776 88.1241 85.4249 88.1257C83.9298 88.1399 82.465 87.8387 81.2836 86.8748C81.2006 86.8152 81.1176 86.7556 81.0321 86.6942C80.1397 85.9921 79.6476 85.0472 79.0972 84.0728C78.9119 83.7453 78.7237 83.4196 78.5348 83.0942C78.1927 82.5044 77.8525 81.9134 77.5129 81.322C77.176 80.7358 76.8379 80.1503 76.4999 79.5648C76.3655 79.3319 76.2311 79.0989 76.0968 78.866C76.0302 78.7507 75.9637 78.6354 75.8952 78.5167C75.6936 78.1673 75.4921 77.8179 75.2905 77.4685C75.224 77.3532 75.1575 77.238 75.089 77.1192C74.9545 76.8861 74.82 76.653 74.6856 76.4199C74.3512 75.8402 74.0166 75.2606 73.6818 74.6811C73.022 73.539 72.3643 72.3958 71.711 71.25C71.0812 70.1458 70.4462 69.0448 69.8044 67.9475C69.1428 66.8162 68.4886 65.6807 67.8344 64.5451C67.4982 63.9615 67.1615 63.3782 66.8249 62.7948C66.6905 62.5619 66.5561 62.3289 66.4218 62.096C66.3552 61.9807 66.2887 61.8654 66.2202 61.7467C66.0186 61.3973 65.8171 61.0479 65.6155 60.6985C65.5489 60.5831 65.4824 60.4677 65.4138 60.3488C65.28 60.117 65.1462 59.8851 65.0125 59.6532C64.5961 58.9315 64.1796 58.2097 63.7629 57.4882C63.6246 57.2485 63.4866 57.0088 63.3487 56.7689C63.0712 56.2862 62.7934 55.8041 62.5051 55.3277C62.4643 55.2594 62.4235 55.191 62.3815 55.1206C62.2806 54.9522 62.1781 54.7846 62.0756 54.6172C61.8454 54.1066 61.7597 53.6341 61.9471 53.0929C62.3385 52.5188 62.6759 52.3136 63.3706 52.3127Z" fill="#00E5E5"/>
<path d="M53.1946 31.9268C53.2986 31.926 53.4025 31.9253 53.5096 31.9245C53.6235 31.9242 53.7374 31.9239 53.8548 31.9236C54.035 31.9225 54.035 31.9225 54.2188 31.9215C54.6177 31.9193 55.0165 31.9181 55.4153 31.917C55.5518 31.9166 55.6882 31.9161 55.8288 31.9157C56.4775 31.9137 57.1261 31.9121 57.7748 31.9112C58.5201 31.9102 59.2653 31.9073 60.0106 31.903C60.6585 31.8993 61.3065 31.8981 61.9544 31.8976C62.2286 31.8971 62.5027 31.8959 62.7768 31.8939C66.1656 31.8707 66.1656 31.8707 67.6854 32.7892C67.7469 32.8261 67.8084 32.8631 67.8717 32.9011C68.3372 33.1872 68.7507 33.4916 69.1367 33.8776C69.1367 33.9486 69.1367 34.0195 69.1367 34.0926C69.2076 34.0926 69.2786 34.0926 69.3517 34.0926C70.0448 34.9627 70.5974 35.9396 71.1389 36.9078C71.213 37.039 71.2872 37.1702 71.3614 37.3014C71.4755 37.503 71.5896 37.7046 71.7034 37.9064C72.0819 38.5772 72.4666 39.2443 72.8522 39.9111C72.9856 40.142 73.119 40.373 73.2524 40.6039C73.3182 40.7179 73.384 40.8318 73.4519 40.9492C73.6528 41.2971 73.8536 41.645 74.0544 41.993C74.1211 42.1086 74.1877 42.2241 74.2564 42.3431C74.3901 42.575 74.5238 42.8069 74.6574 43.0387C74.9678 43.5772 75.2786 44.1155 75.5913 44.6527C75.7007 44.8408 75.81 45.029 75.9193 45.2172C76.0554 45.4517 76.1919 45.686 76.3287 45.9201C76.6447 46.465 76.9525 47.0138 77.2458 47.5713C77.2989 47.6718 77.3521 47.7722 77.4068 47.8758C77.5376 48.2166 77.556 48.4579 77.5217 48.8201C77.2642 49.2891 76.9921 49.6861 76.4637 49.8484C76.2179 49.8979 75.9953 49.909 75.7446 49.9095C75.5988 49.9102 75.5988 49.9102 75.4501 49.9109C75.2914 49.9108 75.2914 49.9108 75.1294 49.9107C75.0173 49.9111 74.9052 49.9115 74.7897 49.9118C74.4184 49.9129 74.047 49.9131 73.6756 49.9132C73.4169 49.9135 73.1581 49.9139 72.8994 49.9143C72.3562 49.9149 71.813 49.9151 71.2698 49.915C70.5765 49.915 69.8833 49.9165 69.19 49.9183C68.655 49.9195 68.12 49.9198 67.585 49.9197C67.3296 49.9198 67.0742 49.9203 66.8188 49.9211C64.3179 49.9285 62.0388 49.7691 60.1033 47.9719C59.0666 46.8611 58.3756 45.4224 57.6306 44.1125C57.2585 43.4583 56.882 42.8067 56.5054 42.1551C56.3711 41.9222 56.2367 41.6893 56.1023 41.4564C56.0358 41.3411 55.9693 41.2258 55.9008 41.107C55.2961 40.0589 55.2961 40.0589 55.0943 39.7091C54.9607 39.4776 54.8271 39.246 54.6935 39.0145C54.382 38.4747 54.0706 37.9347 53.7596 37.3945C53.6503 37.2047 53.541 37.0149 53.4316 36.8251C53.2951 36.588 53.1586 36.3509 53.0222 36.1137C52.6738 35.509 52.3201 34.9085 51.9546 34.3139C51.6815 33.8319 51.625 33.3435 51.7217 32.8026C52.0887 32.1755 52.4678 31.9305 53.1946 31.9268Z" fill="#00E5E5"/>
<path d="M52.2018 70.0907C52.3487 70.09 52.3487 70.09 52.4985 70.0893C52.6058 70.0893 52.713 70.0894 52.8234 70.0894C52.9932 70.0889 52.9932 70.0889 53.1663 70.0884C53.5417 70.0873 53.9172 70.0871 54.2926 70.087C54.5539 70.0867 54.8152 70.0863 55.0765 70.0859C55.6254 70.0853 56.1744 70.0851 56.7233 70.0851C57.4239 70.0852 58.1245 70.0837 58.8251 70.0818C59.3655 70.0806 59.906 70.0804 60.4464 70.0805C60.7045 70.0804 60.9626 70.0799 61.2207 70.079C63.4162 70.0726 65.4971 70.0834 67.311 71.5026C67.4399 71.6013 67.4399 71.6013 67.5714 71.702C69.0126 72.8948 69.8033 74.6741 70.6872 76.2851C70.9868 76.8304 71.2929 77.3708 71.611 77.9055C72.0537 78.6502 72.4887 79.399 72.9212 80.1496C72.9891 80.2674 73.057 80.3852 73.1269 80.5066C73.4116 81.0006 73.6961 81.4947 73.9805 81.9889C74.1261 82.2417 74.2716 82.4945 74.4173 82.7473C74.5534 82.9835 74.6894 83.2199 74.8254 83.4562C75.1733 84.0601 75.5261 84.6603 75.8885 85.2556C76.2032 85.7929 76.2842 86.238 76.1987 86.8482C76.0535 87.3316 75.7175 87.7026 75.2864 87.9577C75.0205 88.0705 74.833 88.0851 74.5449 88.0863C74.4435 88.0872 74.3422 88.0881 74.2377 88.0891C74.1272 88.089 74.0167 88.0889 73.9028 88.0888C73.7858 88.0895 73.6688 88.0902 73.5483 88.091C73.1605 88.093 72.7727 88.0934 72.3849 88.0937C72.1146 88.0944 71.8444 88.0951 71.5741 88.0958C71.0065 88.0971 70.4389 88.0975 69.8713 88.0974C69.219 88.0973 68.5667 88.0995 67.9145 88.1029C67.2839 88.1061 66.6533 88.1069 66.0228 88.1067C65.7561 88.107 65.4895 88.1079 65.2229 88.1096C62.8419 88.1231 60.7813 87.8986 58.9999 86.1696C58.4042 85.5561 57.9755 84.8673 57.5645 84.1226C57.3352 83.711 57.0974 83.3043 56.861 82.8968C56.6514 82.5351 56.4427 82.1728 56.2343 81.8104C55.8243 81.0974 55.4134 80.3849 55.0023 79.6726C54.8679 79.4396 54.7335 79.2067 54.5991 78.9738C54.5326 78.8585 54.4661 78.7432 54.3976 78.6244C53.7929 77.5763 53.7929 77.5763 53.591 77.2264C53.4577 76.9953 53.3244 76.7642 53.191 76.5331C52.8766 75.9882 52.5623 75.4432 52.2481 74.8981C52.1 74.6411 51.9518 74.3841 51.8036 74.1271C51.6993 73.9461 51.595 73.765 51.4907 73.5839C51.4273 73.4739 51.3639 73.364 51.2986 73.2507C51.243 73.1542 51.1873 73.0577 51.1301 72.9583C51.0214 72.7716 50.9096 72.5868 50.7952 72.4036C50.5969 72.0574 50.5548 71.7935 50.541 71.3951C50.7113 70.8368 50.9112 70.5309 51.401 70.2126C51.7039 70.1116 51.8884 70.0914 52.2018 70.0907Z" fill="#2171FC"/>
</svg>
