<svg width="120" height="120" viewBox="0 0 120 120" fill="none" xmlns="http://www.w3.org/2000/svg">
<path d="M100.419 19H19V100.419H100.419V19Z" fill="black"/>
<path d="M54.6164 84.0023C59.7447 84.0023 64.3929 82.3603 67.9493 79.2811L68.3591 78.9388V83.6599H83.0591V74.6273H78.6831V44.79H83.0591V35.7575H68.3591V40.3412L67.9493 39.9986C64.3227 37.0571 59.7418 35.415 54.6164 35.415C41.2131 35.415 30.2744 46.2945 30.2744 59.7087C30.2744 73.1229 41.2131 84.0023 54.6164 84.0023ZM54.6164 74.3521C46.5493 74.3521 39.9836 67.7139 39.9836 59.6385C39.9836 51.5629 46.5463 44.9949 54.6164 44.9949C58.4451 44.9949 62.1362 46.5696 64.8729 49.3064C67.6069 52.1133 69.1114 55.7397 69.1114 59.6385C69.1114 67.7139 62.6162 74.3521 54.6164 74.3521Z" fill="white"/>
</svg>
