<svg width="120" height="120" viewBox="0 0 120 120" fill="none" xmlns="http://www.w3.org/2000/svg">
<path d="M69.376 30.3131C74.5842 34.089 78.6042 38.141 79.8863 44.5953C80.0847 46.0781 80.2069 47.5708 80.3135 49.0631C81.1997 49.1114 82.086 49.1598 82.9991 49.2096C88.8239 49.9621 93.6949 53.0394 97.2782 57.6507C100.711 63.0139 102.376 68.4913 101.407 74.8443C99.8068 80.8415 97.0604 85.9201 91.7484 89.3005C87.3648 91.6353 83.1088 93.6206 78.1162 92.1783C76.4073 91.2506 76.4073 91.2506 74.8448 89.6881C75.0337 85.721 75.7033 82.2527 76.8467 78.4576C78.3618 73.136 78.8694 68.0736 77.042 62.7838C75.3871 60.444 74.1754 59.1695 71.7198 57.6568C68.5805 57.2998 65.447 57.6238 62.3051 57.8476C57.3584 58.054 57.3584 58.054 54.6299 55.8075C54.0821 55.1287 53.5342 54.4499 52.9698 53.7506C48.6384 50.6065 43.8587 50.0346 38.6418 49.4476C37.9559 49.3207 37.2701 49.1938 36.5635 49.0631C35.2893 46.5147 36.4518 44.3945 37.2807 41.7755C39.6617 35.896 43.8314 31.7573 49.4541 28.9459C55.6569 26.8078 63.68 26.8231 69.376 30.3131Z" fill="#FF8400"/>
<path d="M50.6831 55.7153C52.35 57.0001 52.9765 58.0639 53.7501 60C53.1368 60.426 52.5235 60.852 51.8916 61.2909C45.1627 66.1208 39.2074 71.0272 36.8465 79.3267C36.0926 84.0203 37.2207 88.4297 38.9064 92.8125C31.8472 91.7522 27.3002 89.7383 22.7534 84.0936C19.2098 79.1701 18.7726 74.4666 19.3751 68.5937C20.4986 62.8852 24.0111 58.3024 28.7501 55.0073C35.921 51.2637 43.708 52.0165 50.6831 55.7153Z" fill="#4362FF"/>
<path d="M65.6641 60.4883C68.744 60.5323 69.9228 60.6365 72.5977 62.2949C75.617 67.2265 75.0502 71.2399 73.7724 76.5733C73.4852 77.7014 73.1854 78.8263 72.871 79.9471C71.613 84.6006 71.7188 87.639 71.7188 92.8125C65.7891 92.8125 59.8594 92.8125 53.75 92.8125C54.9654 90.3817 55.9337 88.8381 57.6074 86.8066C61.6264 81.5004 63.0245 75.9741 62.3438 69.375C61.9669 67.2663 61.539 65.1853 61.0468 63.1006C60.9591 62.593 60.8715 62.0854 60.7812 61.5625C62.1246 60.2192 63.8314 60.552 65.6641 60.4883Z" fill="#4362FF"/>
<path d="M56.0449 64.0529C56.8425 64.3671 56.8425 64.3671 57.6562 64.6877C59.6872 70.0636 59.7052 75.2584 57.7295 80.7002C55.5513 85.0641 52.6291 88.2053 48.2812 90.4689C45.3261 91.0372 44.2679 90.9244 41.7871 89.2482C39.9821 86.641 39.6875 85.0586 39.6875 81.8752C41.4857 75.404 45.8762 69.5016 51.1133 65.3713C53.75 63.9064 53.75 63.9064 56.0449 64.0529Z" fill="#4362FF"/>
</svg>
