<svg width="120" height="120" viewBox="0 0 120 120" fill="none" xmlns="http://www.w3.org/2000/svg">
<g clip-path="url(#clip0_34_16742)">
<path d="M94.8108 37.1025L80.5384 45.38C80.0492 45.6594 79.496 45.8063 78.933 45.8063C78.3697 45.8063 77.8165 45.6594 77.3277 45.38L61.5754 36.2927C61.0859 36.0126 60.5319 35.8654 59.9682 35.8654C59.4042 35.8654 58.8502 36.0126 58.3611 36.2927L42.641 45.38C42.1521 45.6594 41.5987 45.8063 41.0356 45.8063C40.4725 45.8063 39.9192 45.6594 39.4303 45.38L25.1543 37.1276L60.0059 17L94.8108 37.1025Z" fill="#5BCA87"/>
<path d="M83.7958 50.9235C83.316 51.2063 82.9189 51.6099 82.6434 52.094C82.3682 52.578 82.2241 53.1259 82.2263 53.6827V71.8574C82.2238 72.4164 82.0751 72.9647 81.7956 73.4488C81.5157 73.9325 81.1147 74.3353 80.6317 74.6166L64.7647 83.6107C64.2752 83.8906 63.8692 84.2966 63.589 84.7861C63.3084 85.2756 63.164 85.831 63.1701 86.395V102.903L79.0407 93.8161L98.0682 82.8976V42.646L83.7958 50.9235Z" fill="#EC5D3E"/>
<path d="M56.3444 84.872C56.0921 84.366 55.7163 83.9321 55.2515 83.6106L39.3808 74.595C38.912 74.3072 38.5241 73.9052 38.2539 73.4261C37.9837 72.947 37.84 72.407 37.8364 71.8573V53.6611C37.8253 53.1072 37.6701 52.5657 37.3861 52.09C37.1021 51.6144 36.6991 51.2209 36.2168 50.9484L34.6007 50.0167L21.9443 42.6494V82.8976L40.9754 93.816L56.8676 103V86.4881C56.8436 85.9129 56.6626 85.3514 56.3444 84.872Z" fill="#2464F5"/>
</g>
<defs>
<clipPath id="clip0_34_16742">
<rect width="86" height="86" fill="white" transform="translate(17 17)"/>
</clipPath>
</defs>
</svg>
