<svg width="120" height="120" viewBox="0 0 120 120" fill="none" xmlns="http://www.w3.org/2000/svg">
<path d="M39.7051 48.9592V71.0396L58.822 59.9921L39.7087 48.9628L39.7051 48.9592Z" fill="#1C54E3"/>
<path d="M93.6628 35.9483C93.6628 35.9483 93.6413 35.9268 93.6269 35.9268L77.9534 26.8682L39.7051 48.963L58.822 60.0068L93.5839 39.9402L93.6413 39.9043C93.9885 39.7065 94.2773 39.4208 94.4791 39.076C94.6808 38.7311 94.7883 38.3392 94.7904 37.9397C94.7926 37.5402 94.6894 37.1471 94.4916 36.8001C94.2938 36.453 94.0078 36.1642 93.6628 35.9627V35.9483Z" fill="#AA9AFF"/>
<path d="M94.7928 61.6665C94.3947 61.6647 94.0038 61.7701 93.6605 61.9711C93.6605 61.9711 93.639 61.9711 93.6283 61.9819L77.9512 71.0405L96.047 81.4859H96.0685C96.7275 80.3547 97.0736 79.0686 97.0718 77.7593V63.9455C97.0708 63.3414 96.8303 62.7623 96.4032 62.3352C95.9761 61.9077 95.397 61.6676 94.7928 61.6665Z" fill="#00EAD1"/>
<path d="M96.0476 81.4862L77.9518 71.0408L39.7178 93.1177L55.0185 101.951C55.0185 101.951 55.0758 101.972 55.0973 101.994C56.2386 102.649 57.5315 102.993 58.8473 102.993C60.1634 102.993 61.4563 102.649 62.5972 101.994C62.6187 101.983 62.6545 101.972 62.676 101.951L93.2705 84.2848C93.2813 84.2848 93.292 84.274 93.3064 84.2633C94.4566 83.6075 95.417 82.6508 96.0835 81.4969H96.062L96.0476 81.4862Z" fill="#00CEC9"/>
<path d="M58.823 59.9927L39.7023 71.0401L34.528 74.0214L21.61 81.4855H21.585C22.2049 82.5713 23.0756 83.4743 24.1255 84.13L24.405 84.2877L24.4624 84.3235L24.534 84.3665L39.6987 93.117L77.9365 71.0401L58.8194 59.9963L58.823 59.9927Z" fill="#00EAD1"/>
<path d="M62.6514 18.0392C62.2931 17.8242 61.9061 17.6557 61.5227 17.5088C61.451 17.4873 61.3865 17.4515 61.3184 17.43C60.5122 17.1467 59.6643 17.0013 58.8101 17C57.9752 17 57.1725 17.1362 56.4164 17.3942L56.3053 17.43C55.8427 17.5911 55.3966 17.7951 54.9723 18.0392L24.4099 35.7122C24.4099 35.7122 24.3992 35.7122 24.3884 35.7229C23.2274 36.3787 22.2671 37.339 21.5898 38.4928H21.6113L39.7036 48.949L77.9522 26.8828L62.6514 18.0392Z" fill="#7347FF"/>
<path d="M21.6105 38.5032H21.5854C20.9264 39.6344 20.5801 40.9206 20.582 42.2298V77.7587C20.582 79.1132 20.9404 80.3924 21.5854 81.4961H21.6105L39.7027 71.0399V48.9593L21.6105 38.5032Z" fill="#0423DA"/>
</svg>
