<svg width="120" height="120" viewBox="0 0 120 120" fill="none" xmlns="http://www.w3.org/2000/svg">
<g clip-path="url(#clip0_37_184)">
<path d="M60.6868 44.0517C59.1058 44.2354 57.9 45.5194 57.7878 47.1388C57.7395 47.8363 57.7546 47.8835 59.3363 51.9535C62.9343 61.2126 63.8061 63.4411 63.9526 63.7547C64.3079 64.5143 64.8073 65.2287 65.4314 65.8702C65.9102 66.3622 66.226 66.6269 66.76 66.9837C67.6989 67.6108 68.1646 67.7839 71.8176 68.8655C75.3757 69.9193 77.3198 70.6195 78.9948 71.4509C81.165 72.5281 82.6793 73.7531 83.637 75.2069C84.3242 76.25 84.9328 78.1205 85.1975 80.0034C85.3012 80.7395 85.3016 82.3664 85.1988 83.0318C84.9754 84.4761 84.5292 85.6863 83.8465 86.699C83.4834 87.2376 83.6098 87.1474 84.1375 86.4909C85.6314 84.6337 87.1531 81.4594 87.9295 78.5809C88.8693 75.097 88.9972 71.356 88.2974 67.8154C86.935 60.9203 82.582 54.9697 76.4516 51.6217C76.0664 51.4111 74.5993 50.642 72.6102 49.608C72.3083 49.451 71.8967 49.236 71.6955 49.1305C71.4944 49.0248 71.0828 48.8098 70.7809 48.6531C70.479 48.4962 69.6102 48.0436 68.8501 47.647L66.9599 46.6616C66.3432 46.3402 65.7267 46.0182 65.1105 45.6959C63.1393 44.6641 62.3051 44.2469 62.0672 44.1747C61.8179 44.0986 61.1842 44.0013 61.0252 44.0144C60.9916 44.0171 60.8395 44.0339 60.6868 44.0517Z" fill="url(#paint0_radial_37_184)"/>
<path d="M64.9833 78.6172C64.874 78.6819 64.7209 78.7755 64.6426 78.8251C64.5642 78.875 64.3906 78.983 64.2563 79.0652C63.2802 79.6655 62.3046 80.2667 61.3296 80.8687C60.7328 81.2369 60.1366 81.6061 59.5409 81.9763C59.2776 82.1401 59.0134 82.3025 58.7483 82.4635C58.6477 82.5236 58.2179 82.7882 57.793 83.0518C57.2448 83.3915 56.6961 83.7303 56.1468 84.0683C55.5094 84.4602 54.8726 84.853 54.2362 85.2465C53.6813 85.59 53.1258 85.9326 52.5698 86.2743C52.2232 86.4869 51.9031 86.6921 51.8583 86.7305C51.7919 86.7874 48.7098 88.6965 47.1634 89.6387C45.9886 90.3542 44.6299 90.8328 43.2391 91.0207C42.5916 91.1083 41.3661 91.1085 40.7205 91.0214C38.9694 90.7849 37.3567 90.1319 35.9752 89.1006C35.4335 88.6959 34.4132 87.6765 34.0233 87.1501C33.1041 85.9093 32.5097 84.5785 32.2018 83.0726C32.1309 82.7259 32.0639 82.4334 32.0529 82.4221C32.024 82.3933 32.0761 82.9166 32.1699 83.601C32.2674 84.3127 32.4751 85.3423 32.699 86.2229C34.4309 93.0371 39.3595 98.5796 46.0312 101.217C47.9524 101.976 49.8912 102.454 52.0006 102.688C52.7933 102.777 55.037 102.812 55.864 102.75C59.658 102.462 62.9612 101.346 66.3498 99.204C66.6517 99.0134 67.2187 98.6557 67.6099 98.4094C67.9765 98.1786 68.3424 97.9467 68.7075 97.7134C68.9198 97.5771 69.176 97.4162 69.2764 97.3557C69.4268 97.264 69.5759 97.1703 69.7237 97.0746C69.8691 96.9807 70.4909 96.587 71.1057 96.2005L73.5643 94.6476L74.4085 94.1143L74.4389 94.0952L74.532 94.0365L74.5761 94.0086L75.1976 93.616L77.3454 92.2593C80.0823 90.5395 80.8984 89.9358 82.1698 88.6903C82.7 88.1712 83.499 87.2851 83.5387 87.1725C83.5469 87.1494 83.689 86.9304 83.8543 86.6855C84.5273 85.6898 84.9759 84.4701 85.1984 83.0318C85.3015 82.3664 85.3008 80.7395 85.1973 80.0034C84.9972 78.5804 84.5423 76.9664 84.052 75.9386C83.2481 74.2534 81.5357 72.722 79.0753 71.4888C78.396 71.1481 77.6945 70.8364 77.6162 70.8407C77.579 70.8427 75.2896 72.2419 72.5285 73.9504C69.7674 75.6593 67.3712 77.1421 67.2034 77.2463C67.0358 77.3505 66.7477 77.5263 66.5632 77.6373L64.9833 78.6172Z" fill="url(#paint1_radial_37_184)"/>
<path d="M32.0117 70.4204L32.0237 82.3206L32.1778 83.0117C32.6592 85.1721 33.4937 86.7299 34.9444 88.1766C35.6266 88.857 36.1484 89.2675 36.8878 89.7051C38.4527 90.6309 40.1365 91.0877 41.9809 91.087C43.9128 91.0859 45.584 90.6041 47.306 89.5515C47.5966 89.3739 48.7354 88.6728 49.8364 87.9935L51.8383 86.7585V58.5203L51.8379 45.6041C51.8374 37.3639 51.8223 32.4701 51.7962 32.0862C51.6322 29.6735 50.623 27.4555 48.9263 25.7778C48.4056 25.2629 47.9608 24.9189 46.6353 24.0068C45.9757 23.5529 44.7683 22.7215 43.9524 22.1592C42.0827 20.8704 40.2129 19.5818 38.3429 18.2934C37.062 17.4101 36.9618 17.3489 36.5746 17.2104C36.071 17.0302 35.5373 16.9639 35.0299 17.0187C33.5511 17.1782 32.3673 18.2462 32.0596 19.6977C32.0117 19.9238 32.0029 22.9294 32.0022 39.2426L32.0016 58.5205H32L32.0117 70.4204Z" fill="url(#paint2_linear_37_184)"/>
</g>
<defs>
<radialGradient id="paint0_radial_37_184" cx="0" cy="0" r="1" gradientTransform="matrix(-29.0235 -24.1013 46.5503 -29.0235 42.055 -40.9411)" gradientUnits="userSpaceOnUse">
<stop stop-color="#00CACC"/>
<stop offset="1" stop-color="#048FCE"/>
</radialGradient>
<radialGradient id="paint1_radial_37_184" cx="0" cy="0" r="1" gradientTransform="matrix(44.0641 -31.4668 11.3298 44.0638 54.198 84.5593)" gradientUnits="userSpaceOnUse">
<stop stop-color="#00BBEC"/>
<stop offset="1" stop-color="#2756A9"/>
</radialGradient>
<linearGradient id="paint2_linear_37_184" x1="41.9191" y1="17" x2="41.9191" y2="91.087" gradientUnits="userSpaceOnUse">
<stop stop-color="#00BBEC"/>
<stop offset="1" stop-color="#2756A9"/>
</linearGradient>
<clipPath id="clip0_37_184">
<rect width="56.7423" height="86" fill="white" transform="translate(32 17)"/>
</clipPath>
</defs>
</svg>
