<svg width="120" height="120" viewBox="0 0 120 120" fill="none" xmlns="http://www.w3.org/2000/svg">
<g clip-path="url(#clip0_34_21063)">
<path d="M81.25 18H39.75C28.2901 18 19 27.2901 19 38.75V80.25C19 91.7099 28.2901 101 39.75 101H81.25C92.7099 101 102 91.7099 102 80.25V38.75C102 27.2901 92.7099 18 81.25 18Z" fill="black"/>
<g filter="url(#filter0_i_34_21063)">
<path fill-rule="evenodd" clip-rule="evenodd" d="M63.8391 79.073C60.0838 79.073 56.3967 77.7325 54.2801 74.8503L53.5336 78.2492L39.75 85.4375L41.238 78.2492L51.2759 33.5625H63.566L60.0155 49.3135C62.8832 46.2303 65.546 45.0909 68.9599 45.0909C76.3338 45.0909 81.25 49.8497 81.25 58.563C81.25 67.5445 75.5832 79.073 63.8391 79.073ZM68.5503 61.11C68.5503 65.2656 65.546 68.4158 61.6542 68.4158C59.4692 68.4158 57.4892 67.6115 56.1919 66.204L58.1037 57.9598C59.5376 56.5523 61.1762 55.7479 63.088 55.7479C66.024 55.7479 68.5503 57.8928 68.5503 61.11Z" fill="white"/>
</g>
</g>
<defs>
<filter id="filter0_i_34_21063" x="39.75" y="33.5625" width="41.5" height="51.875" filterUnits="userSpaceOnUse" color-interpolation-filters="sRGB">
<feFlood flood-opacity="0" result="BackgroundImageFix"/>
<feBlend mode="normal" in="SourceGraphic" in2="BackgroundImageFix" result="shape"/>
<feColorMatrix in="SourceAlpha" type="matrix" values="0 0 0 0 0 0 0 0 0 0 0 0 0 0 0 0 0 0 127 0" result="hardAlpha"/>
<feOffset/>
<feGaussianBlur stdDeviation="0.0998142"/>
<feComposite in2="hardAlpha" operator="arithmetic" k2="-1" k3="1"/>
<feColorMatrix type="matrix" values="0 0 0 0 1 0 0 0 0 1 0 0 0 0 1 0 0 0 0.95 0"/>
<feBlend mode="normal" in2="shape" result="effect1_innerShadow_34_21063"/>
</filter>
<clipPath id="clip0_34_21063">
<rect width="83" height="83" fill="white" transform="translate(19 18)"/>
</clipPath>
</defs>
</svg>
