<svg width="120" height="120" viewBox="0 0 120 120" fill="none" xmlns="http://www.w3.org/2000/svg">
<path d="M80.7841 53.191C79.211 50.8503 77.5368 48.5791 75.7662 46.384C75.7662 46.384 69.3162 38.859 70.3912 27.75C70.3912 27.75 45.6662 37.425 45.3091 57.134C45.3091 57.134 41.7252 51.4 42.4412 40.65C42.4412 40.65 34.5591 48.175 33.4841 60.359C25.9591 62.866 19.8662 69.316 19.8662 75.766C19.8662 84.725 29.5412 92.25 41.0073 92.25C32.4073 90.816 25.9573 85.084 25.9573 77.916C25.9573 72.9 28.8252 68.959 33.1252 66.091C33.3645 68.7209 33.9615 71.5876 34.9162 74.691C34.9162 74.691 39.2162 88.309 54.2662 91.891C58.5662 92.966 63.2252 92.609 67.5252 90.816C72.1841 88.666 77.5591 84.366 77.5591 74.691C77.5591 74.691 77.9162 65.016 72.1823 60C72.1823 60 79.7091 77.916 65.7323 83.291C61.0746 85.0833 56.4168 85.0833 51.7591 83.291C45.6662 80.784 38.1412 74.334 39.2162 57.491C39.2162 57.491 42.8002 69.675 50.6841 74.334C50.6841 74.334 43.5162 53.55 64.6573 39.216C64.6573 39.216 66.4502 46.741 71.4662 51.041C72.9002 52.475 85.8002 62.509 83.2912 79.709C85.8002 76.484 87.9502 68.6 85.8002 62.509C85.8002 62.509 85.4412 61.075 84.3662 59.284C89.7412 60.359 94.0412 64.659 94.4002 74.334C94.7591 82.575 88.6662 89.384 80.7841 92.25C91.5341 90.816 100.134 82.575 100.134 72.184C100.134 62.15 92.2502 53.909 80.7841 53.191Z" fill="url(#paint0_linear_34_21069)"/>
<defs>
<linearGradient id="paint0_linear_34_21069" x1="60.2077" y1="47.8815" x2="60.0637" y2="81.0195" gradientUnits="userSpaceOnUse">
<stop stop-color="#F7B52C"/>
<stop offset="1" stop-color="#E95513"/>
</linearGradient>
</defs>
</svg>
