<svg width="120" height="120" viewBox="0 0 120 120" fill="none" xmlns="http://www.w3.org/2000/svg">
<path d="M70.5494 83.6031L64.4434 82.0085V52.8688L70.9794 51.2132C74.5627 50.303 77.5727 49.5612 77.716 49.5899C77.8307 49.5899 77.9167 57.5988 77.9167 67.4064V85.2263L77.286 85.1973C76.9134 85.1973 73.8747 84.4595 70.5494 83.6031Z" fill="#00C8D2"/>
<path d="M42.082 76.2757C42.082 66.4717 42.168 58.4307 42.3114 58.4307C42.426 58.4021 45.436 59.1474 49.048 60.0576L55.5554 61.7095L55.498 76.222L55.412 90.7309L49.564 92.2431C46.3534 93.0672 43.3434 93.8376 42.9134 93.9236L42.082 94.1243V76.2757Z" fill="#3C8CFF"/>
<path d="M85.9434 61.7092C85.9434 29.3516 85.972 27.6137 86.4594 27.7571C86.7174 27.8431 89.2687 28.4988 92.1067 29.2119C94.9447 29.9536 97.754 30.6631 98.356 30.8065L99.4167 31.0931L99.3594 61.7666L99.2734 92.4686L93.454 93.9521C90.272 94.7762 87.262 95.518 86.8034 95.6362L85.9434 95.8333V61.7092Z" fill="#78E6DC"/>
<path d="M20.582 61.8239C20.582 45.0611 20.668 31.3477 20.8114 31.3477C20.926 31.3477 23.936 32.0894 27.5194 32.9745L34.0554 34.6264V61.7952C34.0554 76.7019 33.998 88.9354 33.9407 88.9354C33.8547 88.9354 30.816 89.7058 27.204 90.6195L20.582 92.2965V61.8239Z" fill="#325AB4"/>
</svg>
