<svg width="120" height="120" viewBox="0 0 120 120" fill="none" xmlns="http://www.w3.org/2000/svg">
<g clip-path="url(#clip0_35_21162)">
<path d="M30.7771 17.9774C30.8832 17.9772 30.9893 17.9769 31.0954 17.9765C31.3844 17.9758 31.6734 17.9761 31.9625 17.9767C32.2779 17.9771 32.5933 17.9765 32.9087 17.976C33.4606 17.9752 34.0126 17.9751 34.5646 17.9755C35.3854 17.9761 36.2062 17.9756 37.0271 17.9749C38.5359 17.9737 40.0448 17.9736 41.5536 17.9739C41.7671 17.974 41.9807 17.974 42.1942 17.9741C42.2366 17.9741 42.2791 17.9741 42.3228 17.9741C43.2642 17.9743 44.2057 17.9741 45.1472 17.9738C45.2762 17.9738 45.4052 17.9738 45.5342 17.9737C45.88 17.9736 46.2258 17.9735 46.5716 17.9735C48.9845 17.9728 51.3974 17.9725 53.8103 17.973C53.8558 17.973 53.9012 17.973 53.948 17.973C54.4548 17.9731 54.9616 17.9732 55.4684 17.9733C55.5141 17.9734 55.5599 17.9734 55.607 17.9734C55.9782 17.9735 55.9782 17.9735 56.1621 17.9735C59.0881 17.9741 62.0141 17.9736 64.9401 17.9722C65.6774 17.9719 66.4147 17.9715 67.152 17.9712C67.1974 17.9712 67.2428 17.9712 67.2896 17.9712C68.6898 17.9705 70.09 17.9702 71.4901 17.9702C71.5561 17.9702 71.5561 17.9702 71.6234 17.9702C72.5891 17.9702 73.5548 17.9702 74.5205 17.9703C74.8661 17.9704 75.2117 17.9704 75.5573 17.9705C75.6432 17.9705 75.7292 17.9705 75.8152 17.9705C77.1826 17.9707 78.55 17.9702 79.9174 17.9693C81.3336 17.9685 82.7498 17.9685 84.166 17.9695C84.9817 17.9701 85.7974 17.97 86.6131 17.969C87.1587 17.9683 87.7043 17.9686 88.2499 17.9695C88.5602 17.97 88.8706 17.9702 89.181 17.9693C90.4109 17.9659 91.6046 17.9668 92.8117 18.237C92.8527 18.2462 92.8936 18.2553 92.9358 18.2648C93.1419 18.3119 93.3437 18.3666 93.5454 18.4297C93.6034 18.4474 93.6614 18.465 93.7212 18.4832C96.5064 19.3537 98.8012 21.2327 100.341 23.6913C100.375 23.7446 100.375 23.7446 100.409 23.799C100.988 24.7282 101.391 25.7669 101.671 26.8224C101.684 26.8717 101.698 26.921 101.711 26.9719C101.94 27.8973 102.028 28.8254 102.024 29.776C102.024 29.8821 102.024 29.9882 102.024 30.0943C102.025 30.3833 102.025 30.6723 102.024 30.9614C102.024 31.2768 102.024 31.5922 102.025 31.9076C102.026 32.4595 102.026 33.0115 102.025 33.5635C102.025 34.3843 102.025 35.2051 102.026 36.026C102.027 37.5348 102.027 39.0437 102.027 40.5525C102.027 40.766 102.027 40.9796 102.027 41.1931C102.027 41.2567 102.027 41.2567 102.027 41.3217C102.027 42.2631 102.027 43.2046 102.027 44.1461C102.027 44.2751 102.027 44.4041 102.027 44.5331C102.027 44.8789 102.027 45.2247 102.027 45.5705C102.028 47.9834 102.028 50.3963 102.028 52.8092C102.028 52.8774 102.028 52.8774 102.028 52.9469C102.028 53.4537 102.028 53.9605 102.028 54.4673C102.028 54.513 102.028 54.5588 102.028 54.6059C102.027 54.9771 102.027 54.9771 102.027 55.161C102.027 58.087 102.027 61.013 102.029 63.939C102.029 64.6763 102.029 65.4136 102.03 66.1509C102.03 66.1963 102.03 66.2417 102.03 66.2885C102.03 67.6887 102.031 69.0889 102.031 70.489C102.031 70.533 102.031 70.577 102.031 70.6223C102.031 71.588 102.031 72.5537 102.031 73.5194C102.031 73.865 102.03 74.2106 102.03 74.5562C102.03 74.6421 102.03 74.7281 102.03 74.8141C102.03 76.1815 102.031 77.5489 102.032 78.9163C102.032 80.3325 102.032 81.7487 102.031 83.1649C102.031 83.9806 102.031 84.7963 102.032 85.612C102.033 86.1576 102.032 86.7032 102.031 87.2488C102.031 87.5591 102.031 87.8695 102.032 88.1799C102.035 89.4099 102.034 90.6035 101.764 91.8106C101.755 91.8516 101.746 91.8925 101.736 91.9347C101.689 92.1408 101.634 92.3426 101.571 92.5443C101.554 92.6023 101.536 92.6603 101.518 92.7201C100.647 95.5053 98.7682 97.8001 96.3096 99.3399C96.2563 99.3736 96.2563 99.3736 96.2019 99.4079C95.2727 99.9864 94.234 100.39 93.1785 100.67C93.1292 100.683 93.0799 100.697 93.029 100.71C92.1036 100.939 91.1755 101.027 90.2249 101.022C90.1188 101.023 90.0127 101.023 89.9066 101.023C89.6176 101.024 89.3286 101.024 89.0395 101.023C88.7241 101.023 88.4087 101.023 88.0933 101.024C87.5414 101.025 86.9894 101.025 86.4374 101.024C85.6166 101.024 84.7958 101.024 83.9749 101.025C82.4661 101.026 80.9572 101.026 79.4484 101.026C79.2349 101.026 79.0213 101.026 78.8078 101.026C78.7654 101.026 78.723 101.026 78.6792 101.026C77.7378 101.026 76.7963 101.026 75.8548 101.026C75.7258 101.026 75.5968 101.026 75.4678 101.026C75.122 101.026 74.7762 101.026 74.4305 101.026C72.0175 101.027 69.6046 101.027 67.1917 101.027C67.1463 101.027 67.1008 101.027 67.054 101.027C66.5472 101.027 66.0404 101.027 65.5336 101.026C65.4879 101.026 65.4421 101.026 65.395 101.026C65.0238 101.026 65.0238 101.026 64.8399 101.026C61.9139 101.026 58.9879 101.026 56.0619 101.028C55.3246 101.028 54.5873 101.028 53.85 101.029C53.7819 101.029 53.7819 101.029 53.7124 101.029C52.3122 101.029 50.9121 101.03 49.5119 101.03C49.4459 101.03 49.4459 101.03 49.3786 101.03C48.4129 101.03 47.4472 101.03 46.4815 101.029C46.1359 101.029 45.7903 101.029 45.4447 101.029C45.3588 101.029 45.2728 101.029 45.1868 101.029C43.8194 101.029 42.452 101.03 41.0846 101.03C39.6684 101.031 38.2522 101.031 36.836 101.03C36.0203 101.03 35.2046 101.03 34.3889 101.031C33.8433 101.031 33.2977 101.031 32.7521 101.03C32.4418 101.03 32.1314 101.03 31.821 101.031C30.5911 101.034 29.3974 101.033 28.1903 100.763C28.1493 100.754 28.1084 100.744 28.0662 100.735C27.8601 100.688 27.6583 100.633 27.4566 100.57C27.3986 100.552 27.3406 100.535 27.2808 100.517C24.4956 99.6461 22.2008 97.7671 20.661 95.3085C20.6273 95.2552 20.6273 95.2552 20.593 95.2008C20.0145 94.2716 19.6112 93.2329 19.3308 92.1774C19.3176 92.1281 19.3044 92.0788 19.2908 92.0279C19.0616 91.1025 18.9743 90.1744 18.9785 89.2238C18.9783 89.1177 18.978 89.0116 18.9776 88.9055C18.9769 88.6165 18.9772 88.3275 18.9778 88.0384C18.9782 87.723 18.9776 87.4076 18.9771 87.0922C18.9763 86.5403 18.9762 85.9883 18.9766 85.4363C18.9772 84.6155 18.9767 83.7947 18.976 82.9738C18.9748 81.465 18.9747 79.9561 18.975 78.4473C18.9751 78.2338 18.9751 78.0202 18.9752 77.8067C18.9752 77.7643 18.9752 77.7219 18.9752 77.6782C18.9754 76.7367 18.9752 75.7952 18.9749 74.8537C18.9749 74.7247 18.9749 74.5957 18.9748 74.4667C18.9747 74.1209 18.9746 73.7751 18.9746 73.4294C18.9739 71.0164 18.9736 68.6035 18.9741 66.1906C18.9741 66.1452 18.9741 66.0997 18.9741 66.0529C18.9742 65.5461 18.9743 65.0393 18.9744 64.5325C18.9745 64.4868 18.9745 64.441 18.9745 64.3939C18.9746 64.0227 18.9746 64.0227 18.9746 63.8388C18.9752 60.9128 18.9747 57.9868 18.9733 55.0608C18.973 54.3235 18.9726 53.5862 18.9723 52.8489C18.9723 52.8035 18.9723 52.7581 18.9723 52.7113C18.9716 51.3111 18.9713 49.911 18.9713 48.5108C18.9713 48.4668 18.9713 48.4228 18.9713 48.3775C18.9713 47.4118 18.9713 46.4461 18.9714 45.4804C18.9715 45.1348 18.9715 44.7892 18.9716 44.4436C18.9716 44.3577 18.9716 44.2717 18.9716 44.1857C18.9718 42.8183 18.9713 41.4509 18.9704 40.0835C18.9696 38.6673 18.9696 37.2511 18.9706 35.8349C18.9712 35.0192 18.9711 34.2035 18.9701 33.3878C18.9694 32.8422 18.9697 32.2966 18.9706 31.751C18.9711 31.4407 18.9713 31.1303 18.9704 30.8199C18.967 29.59 18.9679 28.3963 19.2381 27.1892C19.2519 27.1278 19.2519 27.1278 19.2659 27.0651C19.313 26.859 19.3677 26.6572 19.4308 26.4555C19.4485 26.3975 19.4661 26.3395 19.4842 26.2797C20.3548 23.4945 22.2338 21.1997 24.6924 19.6599C24.7457 19.6262 24.7457 19.6262 24.8001 19.5919C25.7293 19.0134 26.768 18.6101 27.8235 18.3297C27.8728 18.3165 27.9221 18.3033 27.973 18.2897C28.8984 18.0605 29.8265 17.9732 30.7771 17.9774Z" fill="black"/>
<path d="M52.6729 44.4415C58.1509 44.4415 63.6289 44.4415 69.2729 44.4415C69.2729 45.811 69.2729 47.1805 69.2729 48.5915C65.1644 48.5915 61.0559 48.5915 56.8229 48.5915C56.8229 51.3305 56.8229 54.0695 56.8229 56.8915C59.5619 56.8915 62.3009 56.8915 65.1229 56.8915C65.1229 58.261 65.1229 59.6305 65.1229 61.0415C62.3839 61.0415 59.6449 61.0415 56.8229 61.0415C56.8229 63.7805 56.8229 66.5195 56.8229 69.3415C60.9314 69.3415 65.0399 69.3415 69.2729 69.3415C69.2729 70.711 69.2729 72.0805 69.2729 73.4915C63.7949 73.4915 58.3169 73.4915 52.6729 73.4915C52.6729 63.905 52.6729 54.3185 52.6729 44.4415Z" fill="white"/>
<path d="M73.4229 44.4415C77.5314 44.4415 81.6399 44.4415 85.8729 44.4415C85.8729 45.811 85.8729 47.1805 85.8729 48.5915C83.1339 48.5915 80.3949 48.5915 77.5729 48.5915C77.5729 51.3305 77.5729 54.0695 77.5729 56.8915C80.3119 56.8915 83.0509 56.8915 85.8729 56.8915C85.8729 58.261 85.8729 59.6305 85.8729 61.0415C83.1339 61.0415 80.3949 61.0415 77.5729 61.0415C77.5729 65.15 77.5729 69.2585 77.5729 73.4915C76.2034 73.4915 74.8339 73.4915 73.4229 73.4915C73.4229 63.905 73.4229 54.3185 73.4229 44.4415Z" fill="white"/>
<path d="M31.9229 48.5916C33.2924 48.5916 34.6619 48.5916 36.0729 48.5916C36.0729 55.4391 36.0729 62.2866 36.0729 69.3416C34.7034 69.3416 33.3339 69.3416 31.9229 69.3416C31.9229 62.4941 31.9229 55.6466 31.9229 48.5916Z" fill="white"/>
<path d="M36.0742 69.3416C40.1827 69.3416 44.2912 69.3416 48.5242 69.3416C48.5242 70.7111 48.5242 72.0806 48.5242 73.4916C44.4157 73.4916 40.3072 73.4916 36.0742 73.4916C36.0742 72.1221 36.0742 70.7526 36.0742 69.3416Z" fill="white"/>
<path d="M36.0742 44.4415C40.1827 44.4415 44.2912 44.4415 48.5242 44.4415C48.5242 45.811 48.5242 47.1805 48.5242 48.5915C44.4157 48.5915 40.3072 48.5915 36.0742 48.5915C36.0742 47.222 36.0742 45.8525 36.0742 44.4415Z" fill="white"/>
<path d="M85.875 48.5916C87.2445 48.5916 88.614 48.5916 90.025 48.5916C90.025 51.3306 90.025 54.0696 90.025 56.8916C88.6555 56.8916 87.286 56.8916 85.875 56.8916C85.875 54.1526 85.875 51.4136 85.875 48.5916Z" fill="white"/>
</g>
<defs>
<clipPath id="clip0_35_21162">
<rect width="83" height="83" fill="white" transform="translate(19 18)"/>
</clipPath>
</defs>
</svg>
