<svg width="120" height="120" viewBox="0 0 120 120" fill="none" xmlns="http://www.w3.org/2000/svg">
<g clip-path="url(#clip0_35_21177)">
<path d="M18.5 42.5002C18.5 29.2454 29.245 18.5 42.4998 18.5C54.1024 18.5 65.7482 18.5 77.4998 18.5C90.7546 18.5 101.5 29.245 101.5 42.4998C101.5 54.1024 101.5 65.7482 101.5 77.4998C101.5 90.7546 90.755 101.5 77.5002 101.5C65.8976 101.5 54.2518 101.5 42.5002 101.5C29.2454 101.5 18.5 90.755 18.5 77.5002C18.5 65.8976 18.5 54.2518 18.5 42.5002Z" fill="#FF5F5F"/>
<path d="M53.5713 40.1798C56.7627 40.1798 59.9541 40.1798 63.2422 40.1798C63.8544 41.3429 64.4662 42.5056 65.0688 43.6736C65.1366 43.8049 65.2044 43.9361 65.2722 44.0674C65.4119 44.3378 65.5516 44.6082 65.6912 44.8786C65.9929 45.4628 66.295 46.0467 66.5971 46.6306C66.7626 46.9504 66.928 47.2702 67.0934 47.59C67.1426 47.6851 67.1426 47.6851 67.1929 47.7822C67.3954 48.1738 67.5979 48.5655 67.8003 48.9572C68.4905 50.293 69.182 51.6281 69.8784 52.9608C70.1691 53.5174 70.4589 54.0745 70.7474 54.6323C70.7805 54.6962 70.8135 54.7601 70.8476 54.8259C71.0182 55.1557 71.1884 55.4856 71.3584 55.8157C71.6669 56.4146 71.9772 57.0122 72.2979 57.6046C73.3144 59.4935 74.1551 61.4525 75.0061 63.4197C75.3659 64.2508 75.7293 65.0803 76.0952 65.9088C76.2059 66.1598 76.3157 66.4113 76.4255 66.6628C76.4923 66.8142 76.5592 66.9656 76.6261 67.117C76.6711 67.2209 76.6711 67.2209 76.7171 67.327C76.8631 67.6901 76.8631 67.6901 77.1641 67.9174C77.1118 67.4696 77.0593 67.0219 77.0068 66.5742C76.9778 66.3272 76.949 66.0802 76.9203 65.8332C76.827 65.0349 76.7315 64.2371 76.6274 63.4402C75.9929 58.5654 75.9529 53.7252 75.9721 48.8175C75.9758 47.8731 75.9775 46.9288 75.9791 45.9845C75.9824 44.0496 75.9879 42.1147 75.9951 40.1798C77.1572 40.1774 78.3193 40.1755 79.4814 40.1743C80.021 40.1738 80.5605 40.173 81.1001 40.1718C81.6203 40.1707 82.1406 40.17 82.6608 40.1698C82.8598 40.1696 83.0587 40.1692 83.2576 40.1686C83.5353 40.1678 83.8129 40.1677 84.0906 40.1678C84.1737 40.1674 84.2568 40.167 84.3424 40.1666C84.91 40.1677 84.91 40.1677 85.0284 40.2861C85.0388 40.4961 85.0415 40.7064 85.0415 40.9166C85.0417 41.0545 85.0419 41.1925 85.0421 41.3346C85.0418 41.4896 85.0415 41.6447 85.0412 41.7998C85.0412 41.9629 85.0413 42.1261 85.0415 42.2892C85.0417 42.7398 85.0413 43.1903 85.0407 43.6408C85.0403 44.1258 85.0404 44.6108 85.0405 45.0958C85.0406 45.9368 85.0402 46.7779 85.0396 47.6189C85.0388 48.8349 85.0385 50.0509 85.0384 51.2669C85.0381 53.2395 85.0374 55.2122 85.0364 57.1849C85.0354 59.1016 85.0347 61.0184 85.0342 62.9352C85.0342 63.1123 85.0342 63.1123 85.0342 63.2929C85.034 63.8852 85.0339 64.4774 85.0337 65.0697C85.0326 69.9865 85.0307 74.9033 85.0284 79.8201C81.8019 79.8201 78.5754 79.8201 75.2512 79.8201C74.8654 79.0485 74.4796 78.277 74.0822 77.482C73.6826 76.7223 73.6826 76.7223 73.2814 75.9635C72.9624 75.358 72.6591 74.7448 72.355 74.1318C72.0556 73.5303 71.7471 72.9344 71.432 72.341C70.9948 71.5176 70.5761 70.6861 70.1615 69.8512C69.8032 69.1315 69.4323 68.4194 69.0553 67.7094C68.7381 67.11 68.4322 66.5056 68.1308 65.8982C67.7922 65.2156 67.4455 64.5385 67.088 63.8657C65.8554 61.5332 64.7442 59.1633 63.684 56.749C63.3176 55.9147 62.9496 55.0812 62.5796 54.2486C62.4601 53.9792 62.3414 53.7095 62.2228 53.4397C62.15 53.2758 62.0772 53.1119 62.0043 52.9481C61.9713 52.8725 61.9383 52.7968 61.9042 52.7189C61.7507 52.3303 61.7507 52.3303 61.4356 52.0825C61.4428 52.1474 61.4501 52.2122 61.4576 52.279C62.6441 62.8472 62.6441 62.8472 62.6261 67.6756C62.6248 68.105 62.6247 68.5343 62.6244 68.9636C62.6238 69.7708 62.622 70.578 62.6199 71.3853C62.617 72.4801 62.6159 73.575 62.6147 74.6699C62.6127 76.3866 62.6085 78.1033 62.6046 79.8201C59.6236 79.8201 56.6426 79.8201 53.5713 79.8201C53.5713 66.7388 53.5713 53.6575 53.5713 40.1798Z" fill="#FFFEFE"/>
<path d="M34.9717 40.2863C38.0929 40.2863 41.2142 40.2863 44.4301 40.2863C44.4301 53.3325 44.4301 66.3786 44.4301 79.8202C41.3088 79.8202 38.1875 79.8202 34.9717 79.8202C34.9717 66.774 34.9717 53.7278 34.9717 40.2863Z" fill="white"/>
</g>
<defs>
<clipPath id="clip0_35_21177">
<rect width="83" height="83" fill="white" transform="translate(18.5 18.5)"/>
</clipPath>
</defs>
</svg>
