<svg width="120" height="120" viewBox="0 0 120 120" fill="none" xmlns="http://www.w3.org/2000/svg">
<g clip-path="url(#clip0_35_21189)">
<mask id="mask0_35_21189" style="mask-type:luminance" maskUnits="userSpaceOnUse" x="18" y="18" width="84" height="84">
<path d="M101.5 18.5H18.5V101.5H101.5V18.5Z" fill="white"/>
</mask>
<g mask="url(#mask0_35_21189)">
<path fill-rule="evenodd" clip-rule="evenodd" d="M45.392 67.968C47.6053 67.968 52.032 67.8573 58.2293 65.312C65.4227 62.324 79.588 57.012 89.88 51.4787C97.0733 47.6053 100.172 42.5147 100.172 35.6533C100.172 26.2467 92.536 18.5 83.0187 18.5H43.1787C29.5667 18.5 18.5 29.5667 18.5 43.1787C18.5 56.7907 28.9027 67.968 45.392 67.968Z" fill="#39594D"/>
<path fill-rule="evenodd" clip-rule="evenodd" d="M52.1426 84.8999C52.1426 78.2599 56.1265 72.1733 62.3238 69.6279L74.8291 64.4266C87.5558 59.2253 101.5 68.5213 101.5 82.2439C101.5 92.8679 92.8678 101.5 82.2438 101.5H68.6318C59.5571 101.5 52.1426 94.0853 52.1426 84.8999Z" fill="#D18EE2"/>
<path d="M32.776 71.177C24.9187 71.177 18.5 77.5957 18.5 85.453V87.3343C18.5 95.081 24.9187 101.5 32.776 101.5C40.6333 101.5 47.052 95.081 47.052 87.2237V85.3423C46.9413 77.5957 40.6333 71.177 32.776 71.177Z" fill="#FF7759"/>
</g>
</g>
<defs>
<clipPath id="clip0_35_21189">
<rect width="83" height="83" fill="white" transform="translate(18.5 18.5)"/>
</clipPath>
</defs>
</svg>
