<svg width="120" height="120" viewBox="0 0 120 120" fill="none" xmlns="http://www.w3.org/2000/svg">
<path d="M70.5236 20.5137C71.2266 20.8365 71.9319 21.1593 72.6564 21.4916C73.388 21.8287 74.1196 22.1683 74.8728 22.5173C76.085 23.0768 76.085 23.0768 77.3211 23.6483C78.1555 24.0332 78.9876 24.4205 79.8483 24.8174C82.2536 25.9268 84.6589 27.0362 87.0642 28.1432C88.109 28.6286 88.109 28.6286 89.173 29.1211C89.9094 29.4558 90.6458 29.7906 91.4037 30.1373C93.0176 30.9263 94.2633 31.6101 95.1503 33.1857C96.0541 35.8946 95.9632 38.2067 95.9585 41.0615C95.9585 42.08 95.9609 43.0962 95.9632 44.1458C95.87 46.7136 95.7409 48.832 93.9477 50.7137C89.3666 54.6492 80.4484 51.7537 75.3796 51.3712C71.8793 51.1106 71.8793 51.1106 68.3096 50.8428C62.6335 50.4005 62.6335 50.4005 60.9599 50.1614C60.9599 56.6313 60.9599 63.1011 60.9599 69.7671C63.4297 69.5662 63.4297 69.5662 65.9522 69.363C91.497 67.3212 91.497 67.3212 94.0051 69.3176C96.4199 71.8496 95.9154 75.4097 95.9274 78.6423C95.9346 79.6512 95.9393 80.6578 95.9465 81.6931C95.8748 84.0936 95.772 85.8342 94.3948 87.8474C92.8407 89.2532 91.2148 89.9729 89.3069 90.836C88.537 91.1899 87.7671 91.5414 86.9733 91.9048C86.201 92.2539 85.4264 92.6006 84.6302 92.9592C83.296 93.5665 81.9595 94.1738 80.6254 94.7811C79.987 95.0704 79.3486 95.3597 78.6911 95.6562C76.0372 96.866 73.3999 98.1093 70.7651 99.3574C65.0484 101.999 65.0484 101.999 62.2773 101.143C61.8039 100.919 61.3903 100.672 60.9599 100.371C60.7471 100.237 60.5367 100.106 60.3167 99.967C58.612 98.2623 58.3322 96.4954 58.3059 94.1212C58.3107 92.8062 58.3107 92.8062 58.3155 91.4649C58.3179 90.585 58.3203 89.7075 58.3203 88.8014C58.3251 87.7828 58.3251 87.7828 58.3299 86.7428C57.8062 86.8575 57.2802 86.9723 56.7399 87.0918C55.707 87.319 55.707 87.319 54.6526 87.5509C53.9712 87.6991 53.2898 87.8498 52.5868 88.0028C45.775 89.478 45.775 89.478 42.6094 87.5342C40.2137 85.0715 40.613 82.2167 40.6226 78.9268C40.6249 77.98 40.6273 77.0308 40.6273 76.0553C40.6321 75.3212 40.6345 74.5872 40.6369 73.8317C40.4791 73.9106 40.3213 73.9895 40.1587 74.0708C29.0193 75.1826 29.0193 75.1826 26.2506 73.2244C23.8621 70.9123 24.1059 68.2106 24.0127 65.045C24.0151 63.3689 24.0175 61.6929 24.0199 59.9642C24.0175 58.2882 24.0151 56.6097 24.0127 54.8835C24.1848 49.1357 24.1848 49.1357 25.8585 47.0675C28.4622 44.7961 31.3601 45.2791 34.6428 45.4823C39.1258 45.7955 39.1258 45.7955 40.6369 46.0968C40.6249 45.3795 40.6154 44.6622 40.6034 43.9234C40.5939 42.9886 40.5867 42.0537 40.5771 41.0902C40.5652 40.1625 40.5556 39.2324 40.5437 38.276C40.6249 36.1553 40.7636 34.319 42.3392 32.7529C44.1062 31.1343 45.6698 31.0339 48.0488 31.0339C49.8157 31.3686 51.5802 31.7296 53.3376 32.1098C54.2724 32.3106 55.2049 32.5091 56.1661 32.7147C56.8786 32.8701 57.5934 33.0255 58.3299 33.1857C58.3179 32.5234 58.3083 31.8611 58.2964 31.1773C58.2868 30.3118 58.2796 29.4463 58.2701 28.5521C58.2581 27.6937 58.2486 26.833 58.2366 25.9483C58.3275 23.6865 58.5331 21.6518 60.2426 20.0355C63.9462 17.6709 66.5666 18.6775 70.5236 20.5137ZM60.9599 36.533C60.9599 40.1625 60.9599 43.7919 60.9599 47.5313C65.0101 48.5451 70.4902 48.4351 74.5739 48.7412C78.0671 49.0042 78.0671 49.0042 81.632 49.2743C87.0474 50.1662 87.0474 50.1662 92.2812 48.7268C93.1969 47.419 93.3476 46.4985 93.2973 44.9157C93.2782 44.2797 93.2591 43.6437 93.2376 42.9886C86.6625 41.5301 80.0659 40.1696 73.4669 38.8188C71.3748 38.3908 69.2827 37.9628 67.1285 37.5205C64.0633 36.8247 64.0633 36.8247 60.9599 36.533ZM43.2669 48.7268C43.2669 56.1435 43.2669 63.5602 43.2669 71.2016C45.4857 71.0486 47.7045 70.8956 49.9903 70.7378C51.2407 70.6517 52.4888 70.5657 53.7751 70.4772C56.0609 70.3098 56.0609 70.3098 58.3299 70.0062C58.3299 63.3785 58.3299 56.7508 58.3299 49.9223C55.5348 49.6928 55.5348 49.6928 52.6825 49.4584C51.6328 49.3724 50.5832 49.2863 49.5049 49.1978C47.4248 49.0305 45.347 48.8751 43.2669 48.7268ZM75.1262 71.1873C72.7903 71.3618 70.4543 71.5364 68.0466 71.7157C64.4913 71.9548 64.4913 71.9548 60.9599 72.3971C60.9599 76.1055 60.9599 79.8138 60.9599 83.6345C77.5482 81.5401 77.5482 81.5401 93.2376 76.9399C93.2639 76.292 93.283 75.644 93.2973 74.9985C93.3093 74.6374 93.3189 74.2764 93.3308 73.9034C93.2041 72.4999 92.6948 71.8137 91.6691 70.8884C88.0492 68.3803 78.9565 70.898 75.1262 71.1873Z" fill="currentColor"/>
</svg>
