<svg width="120" height="120" viewBox="0 0 120 120" fill="none" xmlns="http://www.w3.org/2000/svg">
<path d="M59.8105 38.5945L99.4161 61.4107L98.6969 66.1511L59.8475 43.7687L59.8105 38.5945Z" fill="url(#paint0_linear_35_21209)"/>
<path d="M59.8242 47.2947L99.4172 70.0985L98.6984 74.6282L59.8303 52.4937L59.8242 47.2947Z" fill="url(#paint1_linear_35_21209)"/>
<path d="M59.9707 55.9209L99.415 78.5016L98.6961 83.1055L60.0452 61.0827L59.9707 55.9209Z" fill="url(#paint2_linear_35_21209)"/>
<path d="M20.582 38.3218L20.6254 83.8178L25.0887 84.6606L24.9461 37.7084L20.582 38.3218Z" fill="url(#paint3_linear_35_21209)"/>
<path d="M28.1406 34.089L28.1468 88.1425L32.6659 87.9318L32.5853 33.4321L28.1406 34.089Z" fill="url(#paint4_linear_35_21209)"/>
<path d="M35.6943 29.8565V92.4925L40.2072 93.1433L40.2506 29.0386L35.6943 29.8565Z" fill="url(#paint5_linear_35_21209)"/>
<path d="M20.582 38.3213L60.0514 61.0816L59.9707 55.9198L26.3843 36.6977C25.4917 36.1896 24.3944 36.1834 23.5018 36.6853L20.582 38.3213Z" fill="url(#paint6_linear_35_21209)"/>
<path d="M31.1348 32.4163L28.1406 34.0894L59.8363 52.4936L59.8238 47.2946L34.0235 32.4349C33.1308 31.9206 32.0336 31.9082 31.1348 32.4163Z" fill="url(#paint7_linear_35_21209)"/>
<path d="M35.6943 29.8569L38.8 28.1218C39.6989 27.6199 40.7961 27.6261 41.6888 28.1404L59.8084 38.588L59.8457 43.7623L35.6943 29.8569Z" fill="url(#paint8_linear_35_21209)"/>
<path d="M60.0741 78.4999L60.062 71.1695L60.0806 69.6573L60.062 69.6698L60.0494 61.0813L20.6299 83.8168L23.624 85.5458C24.5353 86.0722 25.6573 86.0661 26.5623 85.5393L55.8899 68.4182V72.0925L28.1493 88.1419L31.2116 89.9021C32.1105 90.4224 33.2201 90.4224 34.1251 89.9081L55.8899 77.4715V80.9104L35.6935 92.4982L38.7558 94.2519C39.6547 94.7664 40.7643 94.7664 41.6694 94.2519L55.896 86.0973L60.0867 83.6928L60.0741 78.4999Z" fill="url(#paint9_linear_35_21209)"/>
<path d="M99.4151 78.5009L79.9934 89.8532L76.8816 88.1056L97.9645 75.7804C98.8632 75.2536 99.4151 74.2933 99.4151 73.2523V70.0918L72.4369 85.6023L68.9406 83.6379L97.9151 67.4459C98.8385 66.9317 99.4151 65.9527 99.4151 64.8928V61.4041L60.0762 83.6874L78.3014 94.1288C79.2062 94.6495 80.3159 94.6431 81.2146 94.1228L97.9459 84.4868C98.8511 83.9662 99.409 82.9997 99.409 81.9523L99.4151 78.5009Z" fill="url(#paint10_linear_35_21209)"/>
<path d="M95.3232 36.9393L80.6749 28.264C79.7637 27.7249 78.6353 27.7187 77.718 28.2454L59.8027 38.5939L59.84 43.7681L79.0631 32.6141L82.0821 34.4359L59.8153 47.294L59.8275 52.493L86.4957 37.0943L89.4652 38.8851L59.964 55.9197L60.0446 61.0818L95.3046 40.7255C96.7551 39.889 96.7677 37.7945 95.3232 36.9393Z" fill="url(#paint11_linear_35_21209)"/>
<defs>
<linearGradient id="paint0_linear_35_21209" x1="425.12" y1="1310.26" x2="4245.26" y2="1841.02" gradientUnits="userSpaceOnUse">
<stop stop-color="#148FB4"/>
<stop offset="1" stop-color="#14B4BE"/>
</linearGradient>
<linearGradient id="paint1_linear_35_21209" x1="274.54" y1="1318.03" x2="4128.7" y2="1766.68" gradientUnits="userSpaceOnUse">
<stop stop-color="#148FB4"/>
<stop offset="1" stop-color="#14B4BE"/>
</linearGradient>
<linearGradient id="paint2_linear_35_21209" x1="315.86" y1="1347.41" x2="4190.9" y2="1676.24" gradientUnits="userSpaceOnUse">
<stop stop-color="#148FB4"/>
<stop offset="1" stop-color="#14B4BE"/>
</linearGradient>
<linearGradient id="paint3_linear_35_21209" x1="245.904" y1="-28.1126" x2="245.904" y2="5647.17" gradientUnits="userSpaceOnUse">
<stop stop-color="#3311D4"/>
<stop offset="0.2722" stop-color="#5314E0"/>
<stop offset="0.5453" stop-color="#6C16E9"/>
<stop offset="0.7957" stop-color="#7B18EE"/>
<stop offset="1" stop-color="#8018F0"/>
</linearGradient>
<linearGradient id="paint4_linear_35_21209" x1="254.219" y1="415.843" x2="254.219" y2="5331.44" gradientUnits="userSpaceOnUse">
<stop stop-color="#3311D4"/>
<stop offset="0.2034" stop-color="#4513DB"/>
<stop offset="0.7305" stop-color="#7017EA"/>
<stop offset="1" stop-color="#8018F0"/>
</linearGradient>
<linearGradient id="paint5_linear_35_21209" x1="263.229" y1="-893.002" x2="263.229" y2="9094.66" gradientUnits="userSpaceOnUse">
<stop stop-color="#3311D4"/>
<stop offset="0.6282" stop-color="#8018F0"/>
</linearGradient>
<linearGradient id="paint6_linear_35_21209" x1="-342.682" y1="655.808" x2="4227.45" y2="3426.51" gradientUnits="userSpaceOnUse">
<stop offset="0.1495" stop-color="#645AFF"/>
<stop offset="1" stop-color="#AA64FA"/>
</linearGradient>
<linearGradient id="paint7_linear_35_21209" x1="-292.715" y1="523.347" x2="2996.99" y2="2454.88" gradientUnits="userSpaceOnUse">
<stop offset="0.188" stop-color="#645AFF"/>
<stop offset="1" stop-color="#AA64FA"/>
</linearGradient>
<linearGradient id="paint8_linear_35_21209" x1="-362.605" y1="364.801" x2="2634.79" y2="2055.11" gradientUnits="userSpaceOnUse">
<stop offset="0.2122" stop-color="#645AFF"/>
<stop offset="0.4681" stop-color="#775DFE"/>
<stop offset="0.9857" stop-color="#A964FA"/>
<stop offset="1" stop-color="#AA64FA"/>
</linearGradient>
<linearGradient id="paint9_linear_35_21209" x1="1467.88" y1="2853.9" x2="2968.49" y2="135.059" gradientUnits="userSpaceOnUse">
<stop stop-color="#AA64FA"/>
<stop offset="1" stop-color="#645AFF"/>
</linearGradient>
<linearGradient id="paint10_linear_35_21209" x1="60.4356" y1="1717.3" x2="3994.18" y2="1717.3" gradientUnits="userSpaceOnUse">
<stop stop-color="#2DF7F7"/>
<stop offset="1" stop-color="#17C8D2"/>
</linearGradient>
<linearGradient id="paint11_linear_35_21209" x1="60.3668" y1="1689.09" x2="3719.62" y2="1689.09" gradientUnits="userSpaceOnUse">
<stop stop-color="#17C8D2"/>
<stop offset="1" stop-color="#2DF7F7"/>
</linearGradient>
</defs>
</svg>
