<svg width="120" height="120" viewBox="0 0 120 120" fill="none" xmlns="http://www.w3.org/2000/svg">
<g clip-path="url(#clip0_35_21218)">
<path d="M75.9714 17C78.318 18.7691 79.7923 21.3369 81.4263 23.7571C84.7557 28.6591 88.1404 33.5181 91.5374 38.371C93.1039 40.6009 94.6641 42.8307 96.2244 45.0606C97.0046 46.1786 97.7847 47.2966 98.5833 48.4453C99.6521 49.9749 99.6521 49.9749 100.746 51.5413C101.796 53.0709 101.796 53.0709 103 54.4714C101.993 62.5309 98.3806 69.632 95.3214 77.1263C94.0253 80.3144 92.723 83.5026 91.3839 86.7952C88.2571 94.4 88.2571 94.4 87.6429 95.6286C83.6254 96.4824 79.5896 97.2626 75.5476 98.012C72.0339 98.6632 72.0339 98.6632 68.4464 99.3266C66.2657 99.732 64.085 100.131 61.8429 100.543C59.5946 100.973 59.5946 100.973 57.2971 101.409C56.1361 101.63 54.9751 101.851 53.7834 102.079C52.8129 102.263 51.8484 102.447 50.8594 102.638C45.9206 103.35 45.9206 103.35 43.4143 103C41.4486 101.194 41.4486 101.194 39.575 98.7C38.887 97.8031 38.199 96.9002 37.4926 95.9787C36.8107 95.0512 36.1289 94.1236 35.4286 93.1714C34.802 92.3421 34.1816 91.5129 33.5366 90.6529C32.3141 89.0312 31.104 87.4094 29.8939 85.7754C28.0203 83.2937 26.0914 80.855 24.138 78.4286C23.536 77.673 22.934 76.9174 22.3136 76.1373C21.3614 74.9579 20.3909 73.7907 19.3834 72.6543C18.3453 71.438 18.3453 71.438 17 69.2143C17.903 61.075 21.2079 54.1889 24.2547 46.6024C26.0853 42.0137 26.0853 42.0137 27.9527 37.339C31.1286 29.9 31.1286 29.9 33.5857 27.4429C39.9866 25.557 46.412 23.7879 52.862 22.0679C56.388 21.1219 59.914 20.1759 63.5444 19.1991C72.2857 17 72.2857 17 75.9714 17ZM61.7691 26.7549C58.7223 28.2721 58.7223 28.2721 55.6201 29.8201C50.9884 31.6507 50.9884 31.6507 50.1714 33.5857C55.9826 35.5514 61.7876 37.5049 67.6049 39.4583C72.4577 41.0984 72.4577 41.0984 77.4089 42.7631C84.1844 45.9329 84.1844 45.9329 86.4143 44.6429C82.5627 36.9397 78.7111 29.2366 74.7429 21.3C70.4429 21.3 65.4549 24.8997 61.7691 26.7549ZM46.3321 27.7131C45.3309 28.0019 44.3234 28.2906 43.2914 28.5916C42.1366 28.9356 42.1366 28.9356 40.9571 29.2857C40.9571 29.6911 40.9571 30.0966 40.9571 30.5143C45.6564 31.9271 48.5743 30.0413 52.7637 27.793C53.3289 27.4736 53.8879 27.1541 54.4714 26.8286C51.2894 26.0361 49.465 26.7917 46.3321 27.7131ZM34.2 31.7429C32.7503 35.2996 31.3006 38.8563 29.8631 42.4191C29.0584 44.3971 28.2537 46.3813 27.4183 48.4207C26.8224 50.0117 26.2204 51.6027 25.6 53.2429C25.8027 53.6483 26.0054 54.0537 26.2143 54.4714C31.5094 48.046 36.6264 41.5161 41.5714 34.8143C39.5566 32.7994 36.8906 32.4984 34.2 31.7429ZM47.7143 36.6571C49.0596 43.3959 50.8226 49.9503 52.6286 56.5846C53.2859 59.0171 53.9431 61.4436 54.625 63.9499C55.8536 69.3371 55.8536 69.3371 57.5429 71.6714C62.0271 68.2376 66.493 64.7791 70.9404 61.3023C76.0513 57.3279 81.2174 53.421 86.4143 49.5571C81.1007 46.0127 72.9983 44.391 67.0643 42.4191C63.8516 41.3441 60.6389 40.2691 57.334 39.1696C52.604 37.4004 52.604 37.4004 47.7143 36.6571ZM43.4143 37.8857C38.8379 43.5679 34.3229 49.2869 29.9 55.0857C28.8311 56.4801 28.8311 56.4801 27.7439 57.9053C25.7966 60.4484 23.8554 62.9854 21.9143 65.5286C22.117 65.934 22.3197 66.3394 22.5286 66.7571C27.0743 67.7646 31.6323 68.6983 36.1964 69.5951C39.9804 70.3507 39.9804 70.3507 43.8443 71.1186C49.6001 72.3779 49.6001 72.3779 53.2429 72.2857C51.8914 65.5347 50.1346 58.968 48.3286 52.3214C47.3396 48.6603 47.3396 48.6603 46.3321 44.9316C45.2756 39.5504 45.2756 39.5504 43.4143 37.8857ZM89.4857 42.8C90.1983 45.4783 90.7634 46.885 93.1714 48.3286C92.3667 45.9083 91.3777 44.5016 89.4857 42.8ZM91.3286 52.0143C91.0153 55.571 90.7143 59.1277 90.4071 62.6906C90.2351 64.6686 90.0631 66.6527 89.8911 68.6922C89.6024 72.5929 89.3874 76.3707 89.4857 80.2714C91.8507 76.727 93.2021 72.599 94.8239 68.6737C95.561 66.9046 96.2981 65.1354 97.0537 63.3049C99.0379 59.0663 99.0379 59.0663 98.0857 55.7C96.8756 54.539 96.8756 54.539 95.3583 53.6667C94.8669 53.3534 94.3754 53.034 93.8656 52.7146C92.6247 51.916 92.6247 51.916 91.3286 52.0143ZM83.2691 55.8536C80.3451 58.3353 77.3597 60.6757 74.2821 62.9547C69.1897 66.7326 64.2754 70.7131 59.3857 74.7429C62.8503 77.5133 66.4684 79.7247 70.2524 82.0406C72.3287 83.306 72.3287 83.306 74.4419 84.6021C77.8143 86.6539 81.1867 88.6933 84.5714 90.7143C86.2239 85.7509 86.0273 79.5343 86.4511 74.3989C86.6723 71.7513 86.8996 69.0976 87.1269 66.3701C87.7166 59.5331 87.7166 59.5331 87.6429 53.2429C85.6649 53.2429 84.7311 54.582 83.2691 55.8536ZM23.1429 70.4429C25.1086 73.4959 27.277 76.34 29.5191 79.1964C31.8903 82.231 34.2614 85.2656 36.6141 88.3247C37.3759 89.3137 38.1376 90.3089 38.9239 91.3286C39.6241 92.2377 40.3183 93.153 41.0431 94.0929C42.6464 96.2736 42.6464 96.2736 44.6429 97.4714C46.0803 94.2341 47.5116 90.9969 48.9429 87.7596C49.7414 85.9536 50.54 84.1537 51.3631 82.2924C53.3596 78.3426 53.3596 78.3426 53.2429 75.9714C48.6849 75.05 44.133 74.1286 39.575 73.2071C37.038 72.6911 34.501 72.1813 31.8841 71.653C26.2634 70.363 26.2634 70.363 23.1429 70.4429ZM56.9286 77.8143C54.7724 82.0467 52.776 86.316 50.9024 90.6774C50.4171 91.7954 49.9319 92.9196 49.4281 94.0683C48.218 96.6422 48.218 96.6422 48.3286 98.7C55.012 98.0304 61.4681 96.8326 68.0594 95.5917C71.6591 94.916 71.6591 94.916 75.3264 94.2219C77.157 93.8779 78.9937 93.5277 80.8857 93.1714C78.2996 90.5853 75.824 89.068 72.6666 87.219C68.0594 84.4977 63.526 81.7027 59.054 78.7664C57.7517 77.759 57.7517 77.759 56.9286 77.8143Z" fill="#4E81EE"/>
</g>
<defs>
<clipPath id="clip0_35_21218">
<rect width="86" height="86" fill="white" transform="translate(17 17)"/>
</clipPath>
</defs>
</svg>
