<svg width="120" height="120" viewBox="0 0 120 120" fill="none" xmlns="http://www.w3.org/2000/svg">
<path fill-rule="evenodd" clip-rule="evenodd" d="M58.0149 17.1624C59.0679 16.9459 60.1538 16.9459 61.2067 17.1624C62.4237 17.4127 63.5116 18.022 64.3764 18.5064L64.6121 18.6381L93.9231 34.922C93.9558 34.9401 93.9892 34.9587 94.0227 34.9772C94.0711 35.0039 94.1201 35.0308 94.1699 35.0583L94.173 35.06C95.0887 35.5643 96.2397 36.1983 97.1236 37.1575C97.8879 37.987 98.4664 38.97 98.8202 40.0407C99.2294 41.2793 99.2246 42.5935 99.2207 43.6386C99.2205 43.7364 99.2201 43.8317 99.2201 43.9243V76.0757C99.2201 76.1151 99.2201 76.1551 99.2203 76.1956C99.2203 76.25 99.2205 76.3052 99.2207 76.3613C99.2246 77.4066 99.2294 78.7206 98.8202 79.9592C98.4664 81.0302 97.8879 82.0131 97.1236 82.8425C96.2397 83.8017 95.0887 84.4356 94.173 84.9399L94.0319 85.0177L93.9231 85.0782L64.6121 101.362L64.3764 101.494C63.5116 101.978 62.4237 102.587 61.2067 102.838C60.1538 103.054 59.0679 103.054 58.0149 102.838C56.7978 102.587 55.7099 101.978 54.8452 101.494L54.6094 101.362L25.2985 85.0782C25.2182 85.0333 25.1354 84.9879 25.0506 84.9412C24.1351 84.4369 22.9818 83.8017 22.0978 82.8425C21.3336 82.0131 20.7552 81.0302 20.4014 79.9592C19.9922 78.7206 19.9969 77.4066 20.0008 76.3613C20.0011 76.2637 20.0015 76.1685 20.0015 76.0757V43.9245C20.0015 43.8317 20.0011 43.7364 20.0008 43.6386C19.9969 42.5935 19.9922 41.2793 20.4014 40.0407C20.7552 38.97 21.3336 37.987 22.0978 37.1577C22.9818 36.1983 24.1329 35.5643 25.0484 35.06C25.134 35.0129 25.2175 34.967 25.2985 34.922L54.6094 18.6381L54.8452 18.5064C55.7099 18.022 56.7978 17.4127 58.0149 17.1624ZM59.5918 24.9508C59.3633 25.0611 59.0568 25.2296 58.4566 25.5631L32.1185 40.1954L59.6106 55.4687L87.1029 40.1952L60.7649 25.563C60.1647 25.2296 59.8582 25.0611 59.6297 24.9508L59.6108 24.9418L59.5918 24.9508ZM55.6497 62.3305L27.9233 46.927V76.0757C27.9233 76.8004 27.925 77.1714 27.9411 77.44L27.9426 77.4627L27.9617 77.475C28.1887 77.6197 28.5122 77.8013 29.1457 78.1532L55.6499 92.8775L55.6497 62.3305ZM68.6722 83.7139C67.1218 84.5693 66.5585 86.5194 67.4137 88.0696C68.269 89.6201 70.2191 90.1834 71.7694 89.3282L89.2573 79.6805C90.8076 78.8251 91.3711 76.875 90.5157 75.3247C89.6605 73.7743 87.7104 73.211 86.16 74.0662L68.6722 83.7139Z" fill="#101828"/>
</svg>
