<svg width="120" height="120" viewBox="0 0 120 120" fill="none" xmlns="http://www.w3.org/2000/svg">
<g clip-path="url(#clip0_35_21323)">
<path d="M38.1367 20.8607C73.5184 21.6898 73.5184 21.6898 84.4797 30.8203C92.9069 40.2561 95.8647 48.2528 97.2863 60.8105C96.0789 72.6832 92.7414 81.3406 85.9387 91.125C73.6789 100.87 60.5186 101.882 45.2492 101.986C42.7784 102.023 40.3075 102.06 37.7618 102.098C31.4699 101.5 31.4699 101.5 26.2824 96.3125C25.6524 89.098 25.6524 89.098 25.6847 80.0104C25.6897 76.7622 25.6947 73.5139 25.6998 70.1673C25.7316 66.7586 25.7634 63.3499 25.7961 59.8379C25.7978 56.4192 25.7994 53.0004 25.8012 49.4781C25.9324 21.1678 25.9324 21.1678 38.1367 20.8607ZM52.2199 44.4375C52.2199 55.5647 52.2199 66.6919 52.2199 78.1562C57.3556 76.4444 62.4912 74.7325 67.7824 72.9688C70.8946 59.2686 70.8946 59.2686 65.1887 47.0312C60.909 46.1753 56.6293 45.3194 52.2199 44.4375Z" fill="#924C88"/>
<path d="M38.1367 20.8607C73.5184 21.6898 73.5184 21.6898 84.4797 30.8203C92.9069 40.2561 95.8647 48.2528 97.2863 60.8105C96.0789 72.6832 92.7414 81.3406 85.9387 91.125C73.6789 100.87 60.5186 101.882 45.2492 101.986C42.7784 102.023 40.3075 102.06 37.7618 102.098C31.4699 101.5 31.4699 101.5 26.2824 96.3125C25.6524 89.098 25.6524 89.098 25.6847 80.0104C25.6897 76.7622 25.6947 73.5139 25.6998 70.1673C25.7316 66.7586 25.7634 63.3499 25.7961 59.8379C25.7978 56.4192 25.7994 53.0004 25.8012 49.4781C25.9324 21.1678 25.9324 21.1678 38.1367 20.8607ZM28.8762 26.2812C29.7321 48.5356 30.5881 70.79 31.4699 93.7188C59.2349 95.9083 59.2349 95.9083 80.7512 85.9375C90.4223 75.2484 92.8123 66.5278 92.1292 52.5126C90.1296 41.5852 83.6837 36.2672 75.1584 29.8578C65.7986 25.3193 57.6545 25.4196 47.5188 25.7949C38.2907 26.0357 38.2907 26.0357 28.8762 26.2812Z" fill="#1E141A"/>
<path d="M28.875 26.2812C66.9251 23.6058 66.9251 23.6058 80.4258 32.9277C86.9036 38.8026 89.7515 43.2484 91.125 51.8945C91.125 54.5693 91.125 57.2441 91.125 60C85.9894 60 80.8537 60 75.5625 60C74.3856 57.4857 73.2087 54.9714 71.9961 52.3809C68.6687 44.2539 68.6687 44.2539 62.5938 41.8437C56.8686 41.6598 51.138 41.6255 45.4102 41.6816C40.7861 41.7167 40.7861 41.7167 36.0686 41.7526C32.5078 41.7977 32.5078 41.7977 28.875 41.8437C28.875 36.7081 28.875 31.5725 28.875 26.2812Z" fill="#26A9A6"/>
<path d="M31.4688 41.8438C35.7484 41.8438 40.0281 41.8438 44.4375 41.8438C44.4375 58.9625 44.4375 76.0812 44.4375 93.7188C40.1578 93.7188 35.8781 93.7188 31.4688 93.7188C31.4688 76.6 31.4688 59.4813 31.4688 41.8438Z" fill="#FC5680"/>
<path d="M47.0312 39.25C62.5938 39.25 62.5938 39.25 70.0508 44.7617C75.5625 52.2188 75.5625 52.2188 76.8594 60.1621C75.3732 68.8934 74.5748 72.4242 67.7812 78.1562C60.7703 79.8018 54.2685 80.2754 47.0312 80.75C47.0312 67.055 47.0312 53.36 47.0312 39.25ZM52.2188 44.4375C52.2188 55.5647 52.2188 66.6919 52.2188 78.1562C57.3544 76.4444 62.49 74.7325 67.7812 72.9688C70.8934 59.2686 70.8934 59.2686 65.1875 47.0312C60.9078 46.1753 56.6281 45.3194 52.2188 44.4375Z" fill="#14191D"/>
<path d="M28.875 21.0938C35.9597 21.25 43.0306 21.4759 50.1113 21.7422C52.1057 21.779 54.1001 21.8157 56.155 21.8536C69.2789 22.4169 76.2718 24.3774 85.9375 34.0625C85.0816 35.7744 84.2256 37.4862 83.3438 39.25C81.1972 37.5782 79.0507 35.9065 76.8391 34.1841C67.4844 27.9476 58.3887 27.1649 47.3555 26.9297C45.57 26.8528 43.7846 26.7759 41.9451 26.6967C37.59 26.5152 33.2325 26.3921 28.875 26.2812C28.875 24.5694 28.875 22.8575 28.875 21.0938Z" fill="#353234"/>
<path d="M67.7812 41.8438C68.6372 45.2675 69.4931 48.6913 70.375 52.2188C64.3834 49.651 58.3919 47.0832 52.2188 44.4375C52.2188 55.5647 52.2188 66.6919 52.2188 78.1563C51.3628 78.1563 50.5069 78.1563 49.625 78.1563C49.625 66.1732 49.625 54.19 49.625 41.8438C56.5416 38.3855 60.4326 40.1033 67.7812 41.8438Z" fill="#202527"/>
<path d="M67.7812 31.4688C80.1016 33.4141 80.1016 33.4141 85.9375 39.25C85.9375 41.8178 85.9375 44.3856 85.9375 47.0312C84.2256 47.0312 82.5138 47.0312 80.75 47.0312C80.75 45.3194 80.75 43.6075 80.75 41.8438C79.0916 41.0948 77.4332 40.3459 75.7246 39.5742C70.375 36.6562 70.375 36.6562 67.7812 31.4688Z" fill="#8ED6D4"/>
</g>
<defs>
<clipPath id="clip0_35_21323">
<rect width="83" height="83" fill="white" transform="translate(18.5 18.5)"/>
</clipPath>
</defs>
</svg>
