<svg xmlns="http://www.w3.org/2000/svg" width="120" height="120" fill="none"><g clip-path="url(#a)"><path fill="#000" fill-rule="evenodd" d="M82.457 86.098a.24.24 0 0 1 .129.118.2.2 0 0 1 .018.086l-.004.752q-.001.034-.025.058a.1.1 0 0 1-.06.028h-.95l-.036-.01a.1.1 0 0 1-.025-.018.1.1 0 0 1-.026-.065v-.752a.2.2 0 0 1 .072-.15.25.25 0 0 1 .169-.065h.645q.049 0 .093.018M44.789 31.334a.18.18 0 0 1 .179.179v.795c0 .022.007.047.025.061a.08.08 0 0 0 .057.022h.921a.05.05 0 0 0 .036-.015.06.06 0 0 0 .018-.036v-.981l.007-.011.007-.007.015-.008h1.05l.014.015q.014.015.014.036v.849c0 .04.018.082.047.111a.16.16 0 0 0 .11.047h.703a.2.2 0 0 0 .144-.058.2.2 0 0 0 .057-.14v-.824c0-.007 0-.018.007-.021.007-.014.014-.014.022-.014h.989q.014-.002.025.007a.04.04 0 0 1 .014.028v.871a.154.154 0 0 0 .15.154h.814a.154.154 0 0 0 .15-.154v-.803a.107.107 0 0 1 .104-.104h.77a.2.2 0 0 1 .126.054q.052.055.05.13v.791c0 .022.011.047.025.061a.08.08 0 0 0 .058.022h.92a.05.05 0 0 0 .036-.015.05.05 0 0 0 .015-.036v-.97l.01-.022.022-.014h1.04q.016.002.028.014a.05.05 0 0 1 .014.032v.853q.002.066.047.111c.028.03.067.046.107.047h.706a.197.197 0 0 0 .197-.197v-.825a.04.04 0 0 1 .011-.021.03.03 0 0 1 .022-.007h.989q.012-.002.025.007.01.01.01.025v.874c0 .036.015.075.04.108a.14.14 0 0 0 .104.036h10.452a.2.2 0 0 1 .136.06.18.18 0 0 1 .054.133v1.953a.02.02 0 0 0 .011.018.03.03 0 0 0 .018.007h.978c.01 0 .022 0 .032-.01a.04.04 0 0 0 .011-.03v-.917a.16.16 0 0 1 .158-.157h.752q.061 0 .104.043c.026.027.04.063.04.1v.828c0 .04.018.079.046.107.027.026.063.04.1.04h.775c.05 0 .099-.02.136-.054a.2.2 0 0 0 .06-.143v-.817q-.002-.023.008-.043a.1.1 0 0 1 .057-.058.1.1 0 0 1 .04-.007h.774a.18.18 0 0 1 .179.18v.791a.15.15 0 0 0 .043.108q.02.018.046.028.03.014.061.015h.767a.136.136 0 0 0 .133-.137v-.817c0-.046.018-.09.05-.118a.17.17 0 0 1 .118-.05h.738a.215.215 0 0 1 .215.215v.803q0 .04.029.071.028.032.072.036h.774a.18.18 0 0 0 .129-.05.18.18 0 0 0 .046-.125v-.792a.15.15 0 0 1 .047-.108.15.15 0 0 1 .107-.046h.753c.04 0 .079.014.107.043q.04.044.04.104v.834a.14.14 0 0 0 .136.137h.788a.19.19 0 0 0 .19-.187v-.788c0-.014 0-.036.01-.054a.16.16 0 0 1 .083-.079.2.2 0 0 1 .058-.01h.72a.187.187 0 0 1 .186.19v.78c0 .04.018.076.043.105a.14.14 0 0 0 .104.04h4.07q.026.002.044.02a.06.06 0 0 1 .018.044v.845a.144.144 0 0 0 .143.144h.788a.2.2 0 0 1 .133.053.18.18 0 0 1 .054.13v1.734a.24.24 0 0 1-.08.179.26.26 0 0 1-.178.079h-.825l-.017.014-.015.022v.831a.19.19 0 0 1-.193.19H80.6a.18.18 0 0 1-.122-.054.18.18 0 0 1-.054-.122v-.831a.05.05 0 0 0-.014-.036.05.05 0 0 0-.036-.014h-.971q-.009-.002-.018.007l-.007.021v1.96a.12.12 0 0 1-.036.083.12.12 0 0 1-.079.036h-1.906a.15.15 0 0 0-.144.09.2.2 0 0 0-.007.06v.828a.14.14 0 0 1-.04.097.14.14 0 0 1-.046.028.1.1 0 0 1-.05.011H75.1a.06.06 0 0 0-.044.018.07.07 0 0 0-.021.047v1.981c0 .014.01.032.021.043a.07.07 0 0 0 .047.018h.853q.038 0 .071.018.04.015.072.043a.2.2 0 0 1 .054.14v.913l-1.047-.003a.08.08 0 0 0-.053.018.07.07 0 0 0-.022.05v.824a.17.17 0 0 0 .169.165h.78a.17.17 0 0 0 .115-.047.16.16 0 0 0 .047-.114l.01-.892.929-.004a.1.1 0 0 1 .043.007q.024.009.043.025a.1.1 0 0 1 .028.04.1.1 0 0 1 .008.05v.78c0 .037.018.076.046.105a.15.15 0 0 0 .104.046h.788q.05 0 .083.036a.1.1 0 0 1 .036.08v.938l-.918-.004a.12.12 0 0 0-.093.036.14.14 0 0 0-.043.097v.835c0 .04.018.079.043.107.028.03.067.046.108.047h.752a.154.154 0 0 0 .154-.154l-.003-.964h.996l.046.003a.1.1 0 0 1 .036.03.13.13 0 0 1 .04.086v.895c0 .025.01.054.028.072q.03.028.072.028h.813a.13.13 0 0 1 .097.043c.029.025.04.061.04.097v.853c0 .018.01.036.021.046a.06.06 0 0 0 .043.018h.935q.025.002.04.018.015.015.018.036v.939l.003.022q.001.01.015.021l.021.01.022.008h.87q.077 0 .133.054a.2.2 0 0 1 .057.132v.667a.265.265 0 0 1-.265.261h-.778a.08.08 0 0 0-.057.022.08.08 0 0 0-.025.057l.004.85q-.001.054.035.093a.13.13 0 0 0 .087.035h1.899q.062-.002.107.04a.15.15 0 0 1 .043.107v1.885c0 .036.01.072.036.097a.14.14 0 0 0 .1.043H85.7a.11.11 0 0 1 .086.036c.025.021.04.053.04.086v1.931q-.001.02.013.036.007.007.017.01l.02.004h.849a.17.17 0 0 1 .107.043.17.17 0 0 1 .047.115l.003.96h-.967l-.036.004a.1.1 0 0 0-.036.018.1.1 0 0 0-.029.064v.76a.2.2 0 0 0 .061.15.2.2 0 0 0 .15.061h.588c.072 0 .14-.028.19-.075a.27.27 0 0 0 .076-.19l.003-.788h.982q.029 0 .047.018a.06.06 0 0 1 .017.046v3.164h-.978a.08.08 0 0 0-.05.022.07.07 0 0 0-.021.05v.932c0 .014 0 .025.01.032l.014.008.015.003h.978q.016.002.025-.007a.04.04 0 0 0 .011-.025l-.004-1.014h1.025c.025 0 .054.007.072.025a.1.1 0 0 1 .025.071v.892c0 .015.007.03.014.036a.06.06 0 0 0 .04.022h.85a.15.15 0 0 1 .107.04q.04.045.039.107v3.01c0 .018.01.036.022.046a.06.06 0 0 0 .043.018h.92q.028 0 .05.022a.07.07 0 0 1 .026.053v.918a.05.05 0 0 1-.022.043.07.07 0 0 1-.04.021H90.2a.1.1 0 0 0-.071.029.1.1 0 0 0-.029.072v.842a.12.12 0 0 0 .118.118h1.813c.03 0 .065.007.094.022q.044.017.078.05a.25.25 0 0 1 .072.175v1.803a.1.1 0 0 1-.032.079.1.1 0 0 1-.075.028h-.882a.13.13 0 0 0-.129.129v.806q0 .039.014.072.019.034.05.057a.16.16 0 0 0 .144.03c.276-.082.57-.07.838.035a.13.13 0 0 1 .047.04q.018.027.018.06v.746a.2.2 0 0 0 .2.2h.689a.17.17 0 0 1 .121.05q.05.056.05.126v.702a.18.18 0 0 1-.176.175h-.841a.047.047 0 0 0-.047.044v.913a.1.1 0 0 0 .033.072.1.1 0 0 0 .071.036h.706c.065 0 .133.025.18.072a.25.25 0 0 1 .071.179v.795c0 .011.007.029.018.036q.015.014.036.014h.95q.023 0 .035.015c.014.01.018.025.018.036v.956c0 .008 0 .011.007.018 0 .008.004.018.011.022q.007.008.018.014l.021.004h.932q.055-.001.093.036a.13.13 0 0 1 .036.09v.891l.014.018q.016.014.036.015h.746c.068 0 .132.028.179.079.05.046.075.11.075.179v.695a.1.1 0 0 1-.06.09c-.3.098-.62.108-.925.028a.1.1 0 0 1-.05-.029.1.1 0 0 1-.019-.053v-.878a.11.11 0 0 0-.107-.111h-.853a.16.16 0 0 0-.107.046.16.16 0 0 0-.047.111v.839q0 .028.018.05.016.019.04.025.483.109.816-.004a.2.2 0 0 1 .086-.007.18.18 0 0 1 .158.18v.931l-1.082-.003a.04.04 0 0 0-.025.007.04.04 0 0 0-.01.028v.993a.04.04 0 0 0 .01.022c.003.007.01.007.021.01h.907a.16.16 0 0 0 .118-.05.17.17 0 0 0 .05-.115l.007-.888.99-.007a.07.07 0 0 0 .046-.018.07.07 0 0 0 .018-.05v-.896q0-.035.018-.065a.14.14 0 0 1 .043-.05.14.14 0 0 1 .057-.029.14.14 0 0 1 .068.007l.14.047.05.007h2.487q.039 0 .072-.021.16-.107.272.104a.2.2 0 0 1 .022.086l-.004.885-1.028-.018a.04.04 0 0 0-.022.01.03.03 0 0 0-.007.019v1.01a.04.04 0 0 0 .01.022q.006.01.022.01h.885c.018 0 .036 0 .054-.01a.16.16 0 0 0 .082-.083.2.2 0 0 0 .011-.054l-.007-.906h.989a.07.07 0 0 1 .05.021q.018.02.018.047v3.085q0 .028.014.05a.07.07 0 0 0 .051.018h.924q.054.001.086.036a.13.13 0 0 1 .039.09v.87l.004.022c0 .007.007.014.011.018q.007.009.018.014h.759a.267.267 0 0 1 .262.265V85.9a.2.2 0 0 1-.014.072.2.2 0 0 1-.04.061.2.2 0 0 1-.129.05h-.731a.15.15 0 0 1-.107-.043.14.14 0 0 1-.043-.108v-.805a.1.1 0 0 0-.007-.04.11.11 0 0 0-.094-.064h-.938a.07.07 0 0 1-.051-.018.1.1 0 0 1-.018-.043l.008-1.054 1.075-.01a.04.04 0 0 0 .025-.011q.009-.011.007-.025v-.968q.002-.017-.007-.025a.04.04 0 0 0-.025-.01h-.979a.1.1 0 0 0-.035.006.1.1 0 0 0-.036.022.1.1 0 0 0-.018.029.1.1 0 0 0-.011.039l.004.953-.975-.003a.1.1 0 0 0-.065.025.1.1 0 0 0-.021.06v.896a.143.143 0 0 1-.143.144h-.803a.115.115 0 0 1-.111-.108v-.867a.143.143 0 0 0-.143-.143h-.91l-.022-.007-.022-.011-.01-.018v-.917a.1.1 0 0 0-.033-.078.1.1 0 0 0-.078-.03h-.8a.16.16 0 0 0-.15.154v.75a.16.16 0 0 1-.043.11.16.16 0 0 1-.115.047h-.835c-.017 0-.035 0-.053-.011a.1.1 0 0 1-.036-.036.12.12 0 0 1-.018-.1 1.8 1.8 0 0 0 .036-.742.2.2 0 0 0-.061-.118.2.2 0 0 0-.126-.05h-.81a.1.1 0 0 0-.075.032.1.1 0 0 0-.035.075v.921l-.004.022a.03.03 0 0 1-.022.007h-.992a.04.04 0 0 1-.025-.011.04.04 0 0 1-.011-.022v-.96a.06.06 0 0 0-.06-.06h-.925a.07.07 0 0 1-.043-.022.06.06 0 0 1-.022-.047v-.985l.985-.011c.018 0 .033-.01.043-.022a.06.06 0 0 0 .022-.043l.007-1.046h1.014a.036.036 0 0 0 .036-.036v-.982a.04.04 0 0 0-.01-.025.04.04 0 0 0-.03-.007H93.33V78.58l1.02-.007q.012.002.022-.008a.04.04 0 0 0 .011-.025v-1.06l-.004-.011-.007-.007-.01-.007-.011.003c-.313.1-.65.095-.96-.014a.09.09 0 0 1-.06-.082v-.692a.27.27 0 0 0-.265-.265h-.614a.18.18 0 0 0-.13.05.18.18 0 0 0-.046.125v.789a.1.1 0 0 1-.021.053.1.1 0 0 1-.047.036 1.76 1.76 0 0 1-.985.007.09.09 0 0 1-.065-.082v-.87a.1.1 0 0 0-.032-.076.1.1 0 0 0-.075-.032h-.796a.16.16 0 0 0-.154.158v.784q.002.028.014.05.015.024.04.036c.233.115.537.125.924.04h.025l.022.01c.007.004.01.015.014.022l.007.025.004 1.05h-1.025l-.014.01-.007.008v.992l.01.032a.05.05 0 0 0 .036.011h.928a.08.08 0 0 0 .072-.075v-.978l1.046-.011a.08.08 0 0 0 .076-.072v-.895a.1.1 0 0 1 .014-.054.1.1 0 0 1 .036-.043.1.1 0 0 1 .046-.025h.058c.235.073.487.07.72-.011a.136.136 0 0 1 .168.068q.015.03.015.06v.983l-1.018-.007a.04.04 0 0 0-.025.007.04.04 0 0 0-.01.028v.993a.04.04 0 0 0 .01.022q.01.01.025.01h1.018l.003 1.05h-.942a.12.12 0 0 0-.083.036.12.12 0 0 0-.035.082l.003 1.004-1.05-.004a.07.07 0 0 0-.046.022.07.07 0 0 0-.022.043v.917a.07.07 0 0 1-.021.05.08.08 0 0 1-.05.022h-.99l.008-1.057.978-.008q.03 0 .054-.021a.08.08 0 0 0 .021-.054v-.989a.04.04 0 0 0-.014-.028.04.04 0 0 0-.025-.015h-.975a.04.04 0 0 0-.029.01l-.008.014-.002.016v1.075h-1.018l-.016.002-.013.008a.04.04 0 0 0-.01.025v.99q0 .014.01.025.011.01.025.01l1.014-.003.004.895a.17.17 0 0 1-.043.115.16.16 0 0 1-.118.047h-.774a.12.12 0 0 1-.122-.119v-.87a.07.07 0 0 0-.018-.047.07.07 0 0 0-.047-.021H88a.06.06 0 0 0-.047.02.07.07 0 0 0-.017.048v.924a.06.06 0 0 1-.018.043.07.07 0 0 1-.047.022h-.917a.08.08 0 0 0-.054.021.07.07 0 0 0-.021.047v.931q-.002.023-.011.043a.1.1 0 0 1-.025.036.12.12 0 0 1-.083.036h-.853a.1.1 0 0 1-.035-.007.1.1 0 0 1-.036-.022.1.1 0 0 1-.025-.071l.018-1.018h1.014a.04.04 0 0 0 .025-.007.04.04 0 0 0 .01-.025v-.986a.04.04 0 0 0-.01-.025.04.04 0 0 0-.022-.01H85.9l-.025.007q-.015.002-.025.014l-.014.025-.007.025v.982h-1.054a.065.065 0 0 0-.068.065v1.025l-.003.017a.04.04 0 0 1-.026.011h-.996a.04.04 0 0 1-.025-.01.04.04 0 0 1-.01-.026l.01-1.082h1.018q.015 0 .025-.01a.04.04 0 0 0 .007-.026v-.996l-.007-.01-.014-.008-.015-.003h-1.014V81.8l.982-.007a.07.07 0 0 0 .047-.022.07.07 0 0 0 .017-.046V80.69h1a.12.12 0 0 1 .118.119v.996H84.78q-.015 0-.029.007l-.021.014a.03.03 0 0 0-.011.025l-.01.022v.95q0 .014.01.025.011.01.025.01h1.046q.016 0 .025-.01a.04.04 0 0 0 .011-.03v-1.013l.817.01a.25.25 0 0 0 .172-.068.25.25 0 0 0 .072-.175v-.613a.28.28 0 0 0-.273-.28h-.72a.07.07 0 0 1-.05-.014.07.07 0 0 1-.018-.05v-.96l-.01-.015-.015-.007h-1.054a.04.04 0 0 0-.028.007.04.04 0 0 0-.01.03v1.02h-.98a.07.07 0 0 0-.046.022.07.07 0 0 0-.021.046l-.004 1.043-1.021-.003a.04.04 0 0 0-.022.01.04.04 0 0 0-.01.025v.99q0 .014.01.025.01.009.022.01l1.021-.003v1.053h-.992a.07.07 0 0 0-.061.065v.917a.15.15 0 0 1-.04.1.14.14 0 0 1-.096.036h-.85a.13.13 0 0 1-.093-.04l-.032-.042a.14.14 0 0 1-.01-.054v-.856q.001-.054.035-.086a.12.12 0 0 1 .09-.04h.945l.02-.003a.05.05 0 0 0 .027-.028l.004-.019v-.953a.05.05 0 0 0-.015-.036.04.04 0 0 0-.035-.01h-1.04a.04.04 0 0 1-.021-.011.04.04 0 0 1-.01-.022v-.993q.002-.015.01-.021a.04.04 0 0 1 .025-.01h1.01c.022 0 .036-.008.054-.022a.07.07 0 0 0 .022-.054v-.91c0-.036.014-.072.035-.093a.13.13 0 0 1 .094-.036h.86a.07.07 0 0 0 .046-.018.06.06 0 0 0 .018-.043v-.846a.15.15 0 0 1 .15-.147h.832a.07.07 0 0 0 .05-.018.07.07 0 0 0 .018-.05v-.928q-.002-.013.007-.025l.011-.021a.05.05 0 0 1 .043-.01h.982a.08.08 0 0 0 .07-.051.1.1 0 0 0 .005-.03v-.942a.1.1 0 0 1 .01-.035.1.1 0 0 1 .03-.036.1.1 0 0 1 .035-.01c.015 0 .033 0 .043.006.133.05.32.072.563.05a.2.2 0 0 0 .064-.017q.184-.09.287.06a.16.16 0 0 1 .025.086l-.003.925-1.018-.007a.04.04 0 0 0-.025.01.04.04 0 0 0-.01.026v.996c0 .007.006.014.01.018l.008.007.01.003h.878a.154.154 0 0 0 .15-.154l-.003-.9 1.014-.006a.04.04 0 0 0 .028-.011l.009-.013.002-.016v-1.039l-.004-.018-.01-.01-.015-.008h-.018a1.7 1.7 0 0 1-.938.007.09.09 0 0 1-.072-.085v-.821q.002-.06.047-.108a.15.15 0 0 1 .103-.043h.825a.07.07 0 0 0 .05-.021.08.08 0 0 0 .025-.054l.007-.978.914.007a.2.2 0 0 0 .143-.06.2.2 0 0 0 .05-.065.2.2 0 0 0 .011-.083v-.734q.002-.022-.007-.043a.13.13 0 0 0-.065-.068.1.1 0 0 0-.046-.011h-.699q-.016.002-.029-.007-.145-.076-.232.014a.1.1 0 0 0-.026.036.1.1 0 0 0-.007.036l-.007.978-.989-.007a.07.07 0 0 1-.046-.022.07.07 0 0 1-.022-.043v-.849a.1.1 0 0 0-.022-.06c-.096-.112-.2-.14-.304-.083a.1.1 0 0 1-.04.01h-.558a.13.13 0 0 1-.086-.035.13.13 0 0 1-.04-.09v-.925a.07.07 0 0 0-.072-.071h-.734a.1.1 0 0 0-.036.014q-.113.05-.204.007a.1.1 0 0 1-.05-.04.1.1 0 0 1-.018-.064l.007-.97h1.075a.04.04 0 0 0 .021-.008.04.04 0 0 0 .011-.029v-.978c0-.007 0-.018-.01-.025l-.014-.008-.015-.003h-.996a.08.08 0 0 0-.054.022.07.07 0 0 0-.018.05v.978l-.996-.003a.07.07 0 0 1-.05-.018.07.07 0 0 1-.018-.05v-.918a.07.07 0 0 0-.018-.043.07.07 0 0 0-.047-.018h-.842a.2.2 0 0 1-.057-.01.15.15 0 0 1-.086-.133v-.896a.08.08 0 0 0-.025-.057.08.08 0 0 0-.054-.025h-.738q-.015 0-.029.007-.118.056-.204.014a.1.1 0 0 1-.047-.043.1.1 0 0 1-.018-.057v-.968l1.04-.007c.02 0 .035-.01.053-.021a.08.08 0 0 0 .022-.054v-.885a.1.1 0 0 0-.025-.064.1.1 0 0 0-.065-.026h-.957l-.025.008a.06.06 0 0 0-.036.035l-.007.026v.988l-.992-.01a.07.07 0 0 1-.047-.018.07.07 0 0 1-.021-.047v-.824a.16.16 0 0 0-.162-.161h-.78a.104.104 0 0 1-.108-.1v-.86a.11.11 0 0 1 .075-.1c.238-.078.494-.083.735-.015q.043.016.09.01a.2.2 0 0 0 .082-.035.2.2 0 0 0 .057-.068.2.2 0 0 0 .021-.086v-.914h1.022l.021-.022v-.996a.04.04 0 0 0-.01-.025.04.04 0 0 0-.026-.01l-1.014.007.004-1.061.978-.007a.06.06 0 0 0 .043-.022.07.07 0 0 0 .022-.046l.003-1.04 1.046-.01c.018 0 .036-.011.05-.025a.08.08 0 0 0 .026-.054v-.921l-.004-.018-.01-.018-.015-.003-.018-.004h-1.04a.04.04 0 0 0-.02.007.04.04 0 0 0-.011.025l-.004 1.021-.978.008a.07.07 0 0 0-.047.018.07.07 0 0 0-.018.046v1.043h-1.042a.03.03 0 0 0-.018.018v.989q-.002.015.007.025.012.01.029.01l1.017.019.004 1.046h-.993a.07.07 0 0 0-.046.021.06.06 0 0 0-.018.043v.896a.2.2 0 0 1-.054.136.1.1 0 0 1-.043.022.1.1 0 0 1-.054.003c-.322-.09-.555-.1-.695-.021a.2.2 0 0 1-.093.018.187.187 0 0 1-.18-.18v-.877a.07.07 0 0 0-.014-.043.06.06 0 0 0-.043-.018h-.95a.05.05 0 0 1-.035-.014.05.05 0 0 1-.01-.036v-.94l-.008-.024-.01-.018-.022-.014-.025-.008h-.853a.14.14 0 0 1-.097-.035.14.14 0 0 1-.043-.108v-.91h.993a.1.1 0 0 0 .046-.022.07.07 0 0 0 .018-.046v-1.047h1.018a.04.04 0 0 0 .025-.007.04.04 0 0 0 .01-.025v-.989a.04.04 0 0 0-.01-.021.04.04 0 0 0-.025-.011h-.943a.07.07 0 0 0-.05.018.08.08 0 0 0-.021.054l-.004.981h-.989a.064.064 0 0 0-.06.065l-.008 1.05h-3.125a.1.1 0 0 1-.064-.029.1.1 0 0 1-.029-.06v-1.03h.936c.03.003.06-.008.082-.028a.12.12 0 0 0 .036-.086v-.906l-.007-.011-.008-.007-.003-.007-.014-.004h-.993a.036.036 0 0 0-.036.036l.007 1.014-1.05.003a.1.1 0 0 1-.046-.021.07.07 0 0 1-.022-.05v-.921a.06.06 0 0 0-.018-.043.06.06 0 0 0-.043-.018h-.817a.18.18 0 0 1-.168-.115.2.2 0 0 1-.014-.071l.007-.867.978-.008a.073.073 0 0 0 .075-.075v-1.003a.04.04 0 0 0-.01-.025.04.04 0 0 0-.03-.011h-.981a.04.04 0 0 0-.025.01q-.012.013-.014.03l.007 1.081h-.982a.08.08 0 0 0-.072.076v.71a.276.276 0 0 1-.272.275h-.58a.28.28 0 0 1-.258-.172.3.3 0 0 1-.018-.107l.014-.782 1-.003q.02.002.046-.007a.1.1 0 0 0 .036-.025.1.1 0 0 0 .025-.036.1.1 0 0 0 .007-.05v-.857a.14.14 0 0 0-.043-.1.14.14 0 0 0-.1-.043h-.817c-.022 0-.043 0-.061.01a.2.2 0 0 0-.054.036.2.2 0 0 0-.036.058.2.2 0 0 0-.007.06l.004.957-.889-.007a.17.17 0 0 1-.172-.168v-.788a.147.147 0 0 0-.15-.15h-.846a.06.06 0 0 1-.036-.022.06.06 0 0 1-.018-.04v-.957a.04.04 0 0 0-.01-.028.05.05 0 0 0-.036-.01h-1.029a.04.04 0 0 0-.028.01q-.014.012-.015.028v.986c0 .007 0 .018-.007.021-.004.008-.014.008-.021.008h-.997c-.007 0-.017 0-.021-.008l-.007-.021v-.96a.07.07 0 0 0-.022-.047.07.07 0 0 0-.043-.018h-.853a.14.14 0 0 1-.1-.043.14.14 0 0 1-.036-.1v-.91l.99-.008a.06.06 0 0 0 .042-.018.05.05 0 0 0 .022-.039v-1.05h1.017a.04.04 0 0 0 .025-.007l.009-.013.002-.016v-.989a.04.04 0 0 0-.01-.025.04.04 0 0 0-.026-.01h-1.017v-1.05h.931a.13.13 0 0 0 .13-.13l-.004-.992 1.075.004q.015 0 .029-.011a.04.04 0 0 0 .01-.022v-.982a.036.036 0 0 0-.036-.035l-1.078.003.003-1.025-.014-.025a.04.04 0 0 0-.025-.01h-1.007l-.007.007-.007.01v.886a.16.16 0 0 0 .154.154l.903.003v1.043h-.921a.13.13 0 0 0-.093.043.14.14 0 0 0-.043.093v.985l-1.018-.003h-.014l-.011.01-.007.011v1.004q0 .014.009.024.01.01.023.012l1.018-.008v1.061h-.99a.06.06 0 0 0-.042.022.06.06 0 0 0-.018.039l-.004 1.053h-1.05a.07.07 0 0 0-.043.018.07.07 0 0 0-.021.05v.803a.2.2 0 0 1-.054.133.2.2 0 0 1-.133.05h-.695a.17.17 0 0 1-.164-.105.2.2 0 0 1-.015-.067v-.745a.14.14 0 0 0-.04-.102.14.14 0 0 0-.1-.042h-.813a.1.1 0 0 1-.072-.025.1.1 0 0 1-.025-.064v-1.018h.903c.04 0 .079-.015.108-.043a.16.16 0 0 0 .046-.111v-.753a.147.147 0 0 0-.15-.15h-.831a.07.07 0 0 0-.047.021.07.07 0 0 0-.022.047l-.003.99-1.054-.005-.025-.007-.021-.014-.015-.022v-.849a.165.165 0 0 0-.164-.165h-.739a.17.17 0 0 0-.164.165v.842a.05.05 0 0 1-.011.036c-.01.01-.025.018-.036.018h-.968l-.021-.01-.01-.022v-.875a.15.15 0 0 0-.04-.107.16.16 0 0 0-.108-.043h-.838a.14.14 0 0 1-.093-.04.14.14 0 0 1-.04-.093l.007-.92h.864a.25.25 0 0 0 .236-.151.3.3 0 0 0 .015-.097v-.87l1.017.003a.04.04 0 0 0 .022-.01.04.04 0 0 0 .01-.022v-.99a.04.04 0 0 0-.01-.024c-.004-.004-.01-.011-.018-.011h-.946a.08.08 0 0 0-.054.021.08.08 0 0 0-.021.054v.979h-.986a.1.1 0 0 0-.05.007.14.14 0 0 0-.082.121l.003.99-.985-.004h-.025a.1.1 0 0 0-.025.021.1.1 0 0 0-.022.05v.818a.17.17 0 0 1-.05.121.18.18 0 0 1-.125.054h-.699a.2.2 0 0 1-.072-.018.2.2 0 0 1-.06-.036.2.2 0 0 1-.04-.064.2.2 0 0 1-.014-.075l.007-.871h.985a.07.07 0 0 0 .047-.022.07.07 0 0 0 .021-.046v-.968a.08.08 0 0 0-.025-.057.08.08 0 0 0-.053-.021h-.932a.05.05 0 0 0-.036.014.06.06 0 0 0-.01.04l.003 1.06-1.025-.018a.07.07 0 0 1-.05-.022.07.07 0 0 1-.018-.05l-.014-1.028 1.067.004q.017 0 .03-.011a.04.04 0 0 0 .01-.025v-.979q0-.015-.01-.028l-.014-.008-.016-.003h-.996q-.031 0-.053.021a.08.08 0 0 0-.022.054l.004.975h-.932q-.023-.002-.047.007a.14.14 0 0 0-.082.126v.777q-.026.22-.37.215-.398-.002-.522-.014c-.018 0-.043 0-.061.007a.2.2 0 0 0-.058.029.2.2 0 0 0-.035.05.2.2 0 0 0-.011.06v.818a.11.11 0 0 0 .107.107h.785a.15.15 0 0 1 .115.043.17.17 0 0 1 .046.118v.728a.16.16 0 0 1-.157.161h-.825a.07.07 0 0 0-.053.018.07.07 0 0 0-.015.047l-.003 1.05-1.079-.008a.036.036 0 0 0-.036.036v.993c0 .007 0 .018.008.021q.01.01.025.011h.845a.23.23 0 0 0 .237-.23v-.824l.914-.007a.13.13 0 0 1 .096.04q.021.02.033.046.01.024.01.05v.774c0 .04.015.08.043.108a.15.15 0 0 0 .108.043h.885q.006-.002.014.007a.03.03 0 0 1 .007.018v.996c0 .007-.003.018-.01.022a.04.04 0 0 1-.018.01h-.889a.14.14 0 0 0-.054.011.14.14 0 0 0-.071.072.2.2 0 0 0-.015.057v.978l-1.017-.007-.025.015-.011.021v.993q-.001.014.007.025.012.01.029.01h1.017l-.01.993a.06.06 0 0 1-.018.043.06.06 0 0 1-.043.018h-.94q-.005.002-.017-.007l-.014-.007-.008-.015-.003-.017v-.943a.07.07 0 0 0-.018-.05.08.08 0 0 0-.054-.018h-.91a.15.15 0 0 1-.129-.09.1.1 0 0 1-.01-.05l.01-.92h1.082q.015-.001.025-.011l.007-.026v-1.032a.05.05 0 0 0-.03-.046l-.02-.004h-.992a.07.07 0 0 0-.072.072l-.004 1.046-.981-.007a.07.07 0 0 0-.072.072v.788a.2.2 0 0 1-.061.143.2.2 0 0 1-.143.061h-.645a.23.23 0 0 1-.201-.136.2.2 0 0 1-.014-.086l.007-.838.992-.004q.024 0 .04-.018c.01-.01.021-.025.021-.043l.004-1.05h1.018q.014 0 .025-.01a.04.04 0 0 0 .01-.026v-.981l-.003-.015-.01-.014-.012-.007h-.014l-1.018.003.008-1.06.978-.007c.014 0 .032-.004.043-.018a.07.07 0 0 0 .018-.043l.007-1.043 1.075-.01a.05.05 0 0 0 .032-.015.05.05 0 0 0 .014-.032v-.957l-.003-.014-.022-.022-.018-.004h-.989a.093.093 0 0 0-.086.086l-.003.968-.978.007a.07.07 0 0 0-.047.018.06.06 0 0 0-.018.043l-.004 1.043h-1.028a.03.03 0 0 0-.021.007l-.011.021v.982q0 .013.01.025.01.01.026.011l1.017.014.004 1.05-.99.004-.024.003-.022.015-.01.021-.008.025v1.047l-1.014-.004a.1.1 0 0 1-.071-.029.1.1 0 0 1-.029-.071v-.95a.07.07 0 0 0-.018-.043.06.06 0 0 0-.043-.018h-.953a.05.05 0 0 1-.043-.05v-.942a.07.07 0 0 0-.018-.043.07.07 0 0 0-.047-.018h-.849a.14.14 0 0 1-.14-.14v-.92l.993.003a.06.06 0 0 0 .043-.022.06.06 0 0 0 .021-.04v-1.053h1.018q.016 0 .025-.01a.04.04 0 0 0 .011-.026v-.974a.047.047 0 0 0-.047-.047h-.931a.08.08 0 0 0-.05.025.07.07 0 0 0-.022.05l-.004.982-.988.008h-.026a.07.07 0 0 0-.035.035v.025l-.008 1.043-1.02-.018a.07.07 0 0 1-.051-.018.07.07 0 0 1-.018-.05l-.018-1.025 1.04-.003a.07.07 0 0 0 .05-.022.07.07 0 0 0 .021-.053v-.886a.086.086 0 0 0-.086-.086h-.953q-.032 0-.054.022a.07.07 0 0 0-.018.047v.981h-1.01a.05.05 0 0 1-.036-.014.05.05 0 0 1-.018-.036v-.942a.07.07 0 0 0-.018-.043.07.07 0 0 0-.043-.018h-.925a.07.07 0 0 1-.046-.018.07.07 0 0 1-.022-.047v-.95c0-.01.008-.02.015-.028a.04.04 0 0 1 .025-.01h.946a.07.07 0 0 0 .046-.022.07.07 0 0 0 .022-.05l.007-1.047h1.014q.016 0 .025-.01a.04.04 0 0 0 .011-.022v-.985a.04.04 0 0 0-.01-.025.04.04 0 0 0-.03-.011l-1.014.007v-.91a.15.15 0 0 0-.039-.104.15.15 0 0 0-.107-.043h-.878q-.012-.002-.022.007a.04.04 0 0 0-.01.022v.992c0 .007.007.018.014.022q.01.012.025.014h1.017l.004 1.05h-.992a.07.07 0 0 1-.05-.025.1.1 0 0 1-.022-.047v-.939l-.025-.018-.011-.021h-1.014a.07.07 0 0 1-.047-.02.07.07 0 0 1-.018-.048v-.953a.04.04 0 0 1 .015-.025.04.04 0 0 1 .025-.011h1.01a.07.07 0 0 0 .047-.018.07.07 0 0 0 .021-.054l.004-1.042h.935a.12.12 0 0 0 .083-.036.12.12 0 0 0 .035-.08v-.906l-.007-.014-.007-.007-.01-.007-.011-.004h-.99a.036.036 0 0 0-.035.036l.007 1.017-1.053-.003a.07.07 0 0 1-.047-.018.07.07 0 0 1-.018-.05v-.925a.05.05 0 0 0-.018-.04.06.06 0 0 0-.043-.017h-.835a.17.17 0 0 1-.114-.05.17.17 0 0 1-.047-.111l.007-.896 1.021-.004q.012.002.022-.007a.04.04 0 0 0 .007-.021v-1.057l-.01-.018a.03.03 0 0 0-.019-.008h-.931a.08.08 0 0 0-.058.026.08.08 0 0 0-.025.057l-.01 1.035-.99.004a.07.07 0 0 0-.046.018.06.06 0 0 0-.018.047v.824a.17.17 0 0 1-.168.165h-.789c-.025 0-.046 0-.064-.011a.2.2 0 0 1-.058-.036.2.2 0 0 1-.035-.057.2.2 0 0 1-.015-.065l.011-.889 1.028-.003a.1.1 0 0 0 .061-.025.1.1 0 0 0 .029-.057v-1.036l1.014.007a.04.04 0 0 0 .025-.007.04.04 0 0 0 .01-.025v-.993q.002-.012-.006-.025l-.025-.003h-.946a.07.07 0 0 0-.047.018.07.07 0 0 0-.021.05l-.004.978-1.014.003a.11.11 0 0 0-.095.062.1.1 0 0 0-.009.039v1.017l-.982-.007-.029.004-.021.018a.1.1 0 0 0-.025.054v.813a.17.17 0 0 1-.172.176h-.706a.2.2 0 0 1-.133-.058.2.2 0 0 1-.035-.06.2.2 0 0 1-.015-.072l.007-.871.986-.004a.06.06 0 0 0 .045-.019.06.06 0 0 0 .02-.045v-.968q0-.031-.022-.053a.08.08 0 0 0-.054-.026h-.932a.054.054 0 0 0-.047.054v1.065l-1.024-.022a.07.07 0 0 1-.047-.021.07.07 0 0 1-.017-.047l-.015-1.029h1.086l.01-.007.008-.01v-.993a.04.04 0 0 0-.007-.029.04.04 0 0 0-.029-.007H33.18a.07.07 0 0 0-.04.043.1.1 0 0 0-.007.029v.974h-.924c-.036 0-.072.011-.093.036a.14.14 0 0 0-.044.1v.832c0 .022 0 .043-.01.06a.2.2 0 0 1-.036.047.2.2 0 0 1-.047.036.2.2 0 0 1-.06.011h-.764a.14.14 0 0 1-.097-.036.15.15 0 0 1-.043-.107v-.921a.05.05 0 0 0-.014-.036.05.05 0 0 0-.036-.018h-1.039l-.014.007a.02.02 0 0 0-.007.015v.978a.12.12 0 0 1-.122.118h-.867l-.025.004-.022.014-.014.022a.1.1 0 0 0-.004.028v.814a.18.18 0 0 1-.054.121.18.18 0 0 1-.122.054h-.702a.2.2 0 0 1-.072-.014.2.2 0 0 1-.114-.176l.01-.87.986-.004a.07.07 0 0 0 .047-.018.06.06 0 0 0 .017-.043v-1.05h1.022q.015 0 .025-.01a.04.04 0 0 0 .01-.026v-.985a.04.04 0 0 0-.01-.025.04.04 0 0 0-.029-.007l-1.018.007.008-1.06.974-.008.025-.007.022-.015.014-.021v-.025l.015-1.04 1.075-.01a.04.04 0 0 0 .025-.014.04.04 0 0 0 .014-.03v-.949a.06.06 0 0 0-.018-.04.05.05 0 0 0-.036-.013h-.97a.08.08 0 0 0-.058.021.08.08 0 0 0-.022.057l-.01.971-.986.011a.07.07 0 0 0-.046.018.06.06 0 0 0-.015.047l-.003 1.039h-1.032a.04.04 0 0 0-.022.01.03.03 0 0 0-.007.019v.981q-.002.013.007.026.011.01.025.01l1.018.018v1.047l-.99.003a.06.06 0 0 0-.039.018.07.07 0 0 0-.021.047v1.046l-1.053.004a.06.06 0 0 0-.047.017.06.06 0 0 0-.018.047v.824a.17.17 0 0 1-.172.169h-.699a.2.2 0 0 1-.136-.058.2.2 0 0 1-.036-.06.2.2 0 0 1-.018-.072l.011-.871.978-.007a.07.07 0 0 0 .05-.022.08.08 0 0 0 .022-.05v-1a.04.04 0 0 0-.01-.028.04.04 0 0 0-.03-.008h-.978a.04.04 0 0 0-.028.008.04.04 0 0 0-.011.025l.007 1.082h-.992a.06.06 0 0 0-.047.021.07.07 0 0 0-.022.047v.835c0 .021 0 .04-.01.06a.2.2 0 0 1-.029.047.16.16 0 0 1-.111.047h-.896a.06.06 0 0 0-.047.018.07.07 0 0 0-.021.05v.953q.002.013-.007.025c-.009.012-.018.008-.025.008h-1.004a.03.03 0 0 1-.018-.018v-.971a.07.07 0 0 0-.017-.047.06.06 0 0 0-.047-.018h-.92a.07.07 0 0 0-.073.072v.82a.17.17 0 0 1-.043.115.17.17 0 0 1-.118.05h-.788a.166.166 0 0 1-.169-.161v-.839a.06.06 0 0 0-.01-.036l-.018-.014-.022-.003h-1.003l.004-1.061.981-.007q.034-.001.058-.025a.1.1 0 0 0 .018-.05v-.904a.13.13 0 0 1 .129-.132h.913a.07.07 0 0 0 .054-.018.08.08 0 0 0 .022-.054v-.906a.07.07 0 0 1 .071-.072l.982.007v1.047l-.992.003a.06.06 0 0 0-.054.04l-.004.025-.003 1.05h-1.05a.07.07 0 0 0-.05.025.07.07 0 0 0-.022.05v.946q-.002.01.007.021.011.01.025.011h1.05q.016 0 .025-.01a.04.04 0 0 0 .011-.026V47.46l.985-.008a.07.07 0 0 0 .047-.018.06.06 0 0 0 .018-.043l.007-1.05h1.029l.01-.01.007-.011v-1a.04.04 0 0 0-.007-.025.04.04 0 0 0-.025-.007l-1.014.007-.003-.992q0-.03.021-.05a.1.1 0 0 1 .05-.019h.896q.015 0 .029-.007a.1.1 0 0 0 .025-.014.08.08 0 0 0 .025-.054l.007-1.039 1.04-.007a.07.07 0 0 0 .053-.022.1.1 0 0 0 .021-.05v-.924l-.025-.025a.08.08 0 0 0-.053-.025h-.96l-.03.003-.017.018-.015.022-.007.025-.007.985-1.021-.004c-.011 0-.022 0-.025-.007a.04.04 0 0 1-.011-.021v-.993a.05.05 0 0 1 .032-.025h.953a.07.07 0 0 0 .072-.072v-.931q0-.024.018-.036a.06.06 0 0 1 .04-.022h.938a.12.12 0 0 0 .118-.118v-.939a.06.06 0 0 1 .061-.057h.94a.05.05 0 0 0 .035-.018.05.05 0 0 0 .018-.04v-.849a.147.147 0 0 1 .147-.146h.86a.05.05 0 0 0 .036-.015.06.06 0 0 0 .014-.036v-2c0-.031.01-.064.036-.085a.13.13 0 0 1 .086-.036h1.981a.06.06 0 0 0 .047-.021.06.06 0 0 0 .018-.04v-.842c0-.036.018-.075.043-.104a.15.15 0 0 1 .107-.046h.843a.06.06 0 0 0 .043-.018.07.07 0 0 0 .021-.043v-.968c0-.007 0-.01.007-.018a.03.03 0 0 1 .015-.007h1.042q.024.002.036.014.007.007.01.017l.004.02v.93q.002.03.018.047a.07.07 0 0 0 .05.022l.986.007v1.014q-.002.019.007.025.011.01.025.011h.986q.014 0 .025-.01a.04.04 0 0 0 .01-.026v-.946a.07.07 0 0 0-.046-.066.1.1 0 0 0-.029-.005l-.978.003v-.989q0-.03.021-.05a.07.07 0 0 1 .05-.021h.878q.042 0 .072-.03a.1.1 0 0 0 .032-.07v-.886a.125.125 0 0 1 .077-.119.1.1 0 0 1 .049-.01h.917a.07.07 0 0 0 .07-.046.1.1 0 0 0 .005-.03v-.91a.07.07 0 0 1 .072-.071H39.5a.07.07 0 0 0 .05-.014.07.07 0 0 0 .021-.05v-.968l.008-.007.01-.007.011-.008h1.06a.02.02 0 0 1 .019.011.03.03 0 0 1 .007.018v.878c0 .036.014.075.043.108a.2.2 0 0 0 .107.043h.713a.2.2 0 0 0 .14-.058.2.2 0 0 0 .054-.14v-.824c0-.007 0-.018.007-.021.01-.014.014-.014.022-.014h.992c.01 0 .022 0 .025.007q.009.01.007.025v.87a.16.16 0 0 0 .154.155h.814a.15.15 0 0 0 .104-.047.15.15 0 0 0 .046-.108v-.795q0-.043.033-.075a.1.1 0 0 1 .071-.032zM26.553 83.912c.072 0 .126.057.126.125l.007.867a.125.125 0 0 1-.126.126l-.806.007a.125.125 0 0 1-.125-.126l-.008-.867c0-.071.058-.125.126-.125zm72.197-1.029a.1.1 0 0 0-.021.054c-.011.29-.007.599 0 .925 0 .007.018.021.021.025l.022.018q.489.015.924 0a.1.1 0 0 0 .058-.022.1.1 0 0 0 .025-.06v-.746c0-.043-.03-.093-.08-.144q-.074-.075-.143-.075h-.745a.1.1 0 0 0-.06.025m-10.786-2.168a.1.1 0 0 0-.025.061l-.007 1.036h-.982a.07.07 0 0 0-.05.025.07.07 0 0 0-.021.05v.932c0 .01 0 .021.01.028a.05.05 0 0 0 .029.015h.978q.016 0 .025-.01a.04.04 0 0 0 .011-.026v-1.014h.96a.18.18 0 0 0 .119-.047.2.2 0 0 0 .035-.05.2.2 0 0 0 .008-.064v-.803a.16.16 0 0 0-.096-.144.2.2 0 0 0-.062-.014h-.874a.1.1 0 0 0-.058.025m6.44-.01a.07.07 0 0 0-.022.05l-.004 1.057H93.4a.08.08 0 0 0-.05.025.08.08 0 0 0-.025.05v.95l.014.01.015.011h.989a.04.04 0 0 0 .025-.007l.01-.01v-1.03h.903a.23.23 0 0 0 .158-.064.22.22 0 0 0 .061-.157v-.61a.3.3 0 0 0-.082-.207.3.3 0 0 0-.208-.086h-.763a.07.07 0 0 0-.043.018m4.335 0a.07.07 0 0 0-.017.05v1.053h-1.047a.07.07 0 0 0-.072.072v.946a.036.036 0 0 0 .036.036h1.047q.015 0 .025-.01a.04.04 0 0 0 .01-.03v-1.014l.825.007q.045 0 .086-.017a.23.23 0 0 0 .15-.215v-.645a.26.26 0 0 0-.072-.18.26.26 0 0 0-.186-.071h-.734a.07.07 0 0 0-.05.018m-1.125-1.061q-.009.013-.007.025v1.018l-.86-.011a.2.2 0 0 0-.072.018.2.2 0 0 0-.071.043.2.2 0 0 0-.036.068.2.2 0 0 0-.022.072v.885c0 .01.008.025.015.032a.04.04 0 0 0 .028.01h.968a.05.05 0 0 0 .036-.014.05.05 0 0 0 .01-.032l.004-1.075h1.043a.07.07 0 0 0 .066-.046.1.1 0 0 0 .006-.03v-.93a.04.04 0 0 0-.01-.032.04.04 0 0 0-.026-.008H97.64a.04.04 0 0 0-.025.007m-8.539-.007-.014.01-.01.015v.982l.003.018.01.018.015.007.018.003h.964q.005.002.017-.007l.015-.007.007-.014.004-.018v-.982c-.004-.004-.011-.007-.011-.014a.06.06 0 0 0-.036-.011zm-1.11-3.2a.1.1 0 0 0-.03.075v.81a.197.197 0 0 0 .198.194h.774c.036 0 .071.014.093.035a.15.15 0 0 1 .036.093v.94l-1.064-.008h-.015l-.014.007-.007.015-.004.014v.993a.04.04 0 0 0 .01.021q.012.01.026.01h1.003a.1.1 0 0 0 .032-.006l.022-.011a.1.1 0 0 0 .018-.025v-.029l-.007-.982 1.043-.003.017-.007q.01-.012.008-.022v-1.057q.002-.006-.008-.01l-.014-.008h-.007c-.316.062-.64.068-.957.018a.1.1 0 0 1-.054-.029.1.1 0 0 1-.017-.053v-.753a.26.26 0 0 0-.072-.18.26.26 0 0 0-.18-.07h-.752a.12.12 0 0 0-.079.028m8.635 2.146h-.018l-.018.011-.01.018-.008.022.004.95.004.02.01.019.022.01.021.007.946-.007h.018l.018-.01.014-.018.004-.022v-.95l-.007-.021-.01-.018c-.004 0-.012-.01-.019-.01l-.018-.004h-.95zm-69.99-1.075c.036 0 .072.033.072.072v.932a.07.07 0 0 1-.072.071h-.913a.07.07 0 0 1-.072-.068v-.939c0-.035.029-.068.068-.071zm.072-2.114-.007.982a.036.036 0 0 1-.036.036h-.982a.036.036 0 0 1-.035-.036v-.982a.04.04 0 0 1 .011-.026l.013-.008.015-.002h.978c.022 0 .043.015.043.036m65.604-1.086a.05.05 0 0 0-.01.033l-.004 1.02h-1.043l-.029.004-.021.018c-.008.008-.015.011-.018.022v.975l.003.021q.011.01.025.01h1.05q.016 0 .025-.01a.04.04 0 0 0 .011-.025l-.004-1.014h.932a.12.12 0 0 0 .117-.08.1.1 0 0 0 .009-.05v-.838a.1.1 0 0 0-.03-.071.1.1 0 0 0-.067-.025h-.914a.05.05 0 0 0-.032.01m-2.147-.01-.017.003-.015.011-.01.014v.018l.01.971.004.018.01.015.015.01.018.004.967-.014h.018l.01-.015q.012-.002.012-.014l.003-.018-.014-.971v-.018l-.014-.014-.011-.011h-.018zm-65.775-1.111a.215.215 0 0 1 .208.215v.695a.216.216 0 0 1-.219.215l-.695-.01a.215.215 0 0 1-.215-.216l.01-.695a.215.215 0 0 1 .216-.208h.695zm2.15 0c.093 0 .168.079.168.175v.77a.17.17 0 0 1-.175.173h-.717a.17.17 0 0 1-.172-.176l.004-.774a.17.17 0 0 1 .172-.168zm2.164 0c.093 0 .168.072.172.168v.778a.17.17 0 0 1-.168.168l-.72.004a.17.17 0 0 1-.173-.172v-.778c0-.09.072-.165.169-.165l.716-.003zm61.436-1.043a.04.04 0 0 0-.01.029v1.021l-1.018-.007q-.015.002-.025.014a.04.04 0 0 0-.01.022v1.05c0 .007 0 .017.006.021q.011.009.022.007h.9a.117.117 0 0 0 .121-.114l.004-.993.738-.01q.037 0 .064.017.14.077.226-.028a.14.14 0 0 0 .025-.087v-.92a.04.04 0 0 0-.01-.025c-.004-.008-.015-.008-.022-.008h-.982q-.015 0-.029.011m-1.039-1.043a.1.1 0 0 0-.021.05v.982l-1.086-.01a.036.036 0 0 0-.036.035v1.01l.014.015.011.007h1.004a.08.08 0 0 0 .057-.021.08.08 0 0 0 .025-.057l.01-.979h1.015a.04.04 0 0 0 .025-.007.04.04 0 0 0 .007-.025v-.985q.002-.016-.007-.025a.04.04 0 0 0-.022-.011h-.946a.07.07 0 0 0-.05.021m-3.24 1.04a.04.04 0 0 0-.01.021v.996q0 .016.01.025a.04.04 0 0 0 .022.007h.85a.18.18 0 0 0 .125-.057.2.2 0 0 0 .05-.129v-.684a.2.2 0 0 0-.05-.136.17.17 0 0 0-.125-.05h-.85c-.007 0-.018 0-.021.007m-63.539-1.068a.107.107 0 0 1 .104.107l-.01.853a.107.107 0 0 1-.108.108l-.839-.011a.11.11 0 0 1-.107-.108l.014-.856a.107.107 0 0 1 .108-.108zm6.45 0a.107.107 0 0 1 .104.107l-.01.86a.107.107 0 0 1-.108.1l-.842-.01a.11.11 0 0 1-.108-.108l.015-.856a.107.107 0 0 1 .107-.108l.839.015zm-10.7.007c.043 0 .08.036.076.079v.895a.083.083 0 0 1-.083.083l-.964-.007a.08.08 0 0 1-.075-.075l.004-.896c0-.047.035-.08.078-.08zm6.397 0c.071 0 .129.057.129.129v.799a.134.134 0 0 1-.133.129l-.86-.007a.13.13 0 0 1-.129-.13l.007-.798a.13.13 0 0 1 .13-.13l.86.008zm6.45 0c.071 0 .129.057.129.129v.799a.137.137 0 0 1-.137.129l-.86-.007A.13.13 0 0 1 29.9 72v-.798c0-.072.065-.13.136-.13zm-10.743-.007a.08.08 0 0 1 .079.079l.003.899a.08.08 0 0 1-.079.082h-.895a.08.08 0 0 1-.077-.047.1.1 0 0 1-.006-.031v-.896a.08.08 0 0 1 .079-.083zm6.45-.004a.08.08 0 0 1 .079.079l.003.903a.08.08 0 0 1-.079.082h-.9a.08.08 0 0 1-.081-.078v-.904a.08.08 0 0 1 .078-.078zm6.468 0c.032 0 .057.025.057.054l.004.957a.057.057 0 0 1-.058.057h-.946a.05.05 0 0 1-.04-.014.05.05 0 0 1-.017-.04v-.957c0-.028.021-.053.054-.053h.946zM83.7 67.86l-.025.014-.01.025a.1.1 0 0 0-.008.029v.981l-.906-.014q-.03 0-.058.01a.2.2 0 0 0-.05.037.2.2 0 0 0-.036.046.2.2 0 0 0-.007.058v.813q0 .032.014.064a.1.1 0 0 0 .036.047q.028.022.061.029h.061c.2-.056.411-.058.613-.008a.16.16 0 0 0 .107-.007l.08-.035a.1.1 0 0 1 .028-.008l.029.008.017.021a.1.1 0 0 1 .008.029v1.028c0 .014.007.029.017.036q.015.017.036.021h.95a.06.06 0 0 0 .036-.017.05.05 0 0 0 .018-.036v-.914a.154.154 0 0 0-.158-.154h-.82q-.016.002-.033-.007a.1.1 0 0 1-.043-.043.1.1 0 0 1 0-.029v-.975l1.018.004q.015-.001.025-.01a.04.04 0 0 0 .007-.026v-.993a.04.04 0 0 0-.007-.025.04.04 0 0 0-.025-.01h-.946q-.015.002-.029.01m6.482 2.12a.13.13 0 0 0-.071.072.1.1 0 0 0-.011.05v.85q-.002.023.007.046a.14.14 0 0 0 .029.047q.02.019.046.029a.1.1 0 0 0 .05.01h.793a.1.1 0 0 0 .05-.01.13.13 0 0 0 .071-.072.1.1 0 0 0 .007-.05l.004-.85a.1.1 0 0 0-.01-.046.14.14 0 0 0-.026-.047.14.14 0 0 0-.096-.035h-.789a.14.14 0 0 0-.054.007m-3.404-.031-.06.021a.1.1 0 0 1-.037.007l-.734-.018c-.014 0-.036 0-.05.007a.13.13 0 0 0-.061.069.1.1 0 0 0-.01.042v.907a.1.1 0 0 0 .1.097h.752a.204.204 0 0 0 .2-.204v-.86a.1.1 0 0 0-.007-.036.1.1 0 0 0-.025-.025.1.1 0 0 0-.032-.015zm1.2-2.09-.02.015a.1.1 0 0 0-.015.025l-.007.025v.992l-.997-.007q-.012 0-.025.004l-.017.01-.015.022-.003.022v.946l.003.018a.06.06 0 0 0 .054.035 10 10 0 0 1 .903.015q.043.001.093-.05v1.035c0 .029.014.061.036.083a.12.12 0 0 0 .082.032h.91c.011 0 .026 0 .036-.007a.1.1 0 0 0 .033-.018l.017-.033a.1.1 0 0 0 .004-.035v-.767a.244.244 0 0 0-.233-.247l-.53-.018a.2.2 0 0 0-.072.014q-.146.071-.287-.036l.008-1.018h.92a.197.197 0 0 0 .194-.193v-.692a.18.18 0 0 0-.18-.179h-.866zm-59.314 1.047a.184.184 0 0 1 .186.186v.724a.2.2 0 0 1-.021.09.2.2 0 0 1-.147.1c-.029 0-.061 0-.09-.01q-.226-.086-.763.028h-.01a.03.03 0 0 1-.015-.007l-.007-.011-.004-.014v-1.054q0-.016.01-.025a.03.03 0 0 1 .022-.007zm-2.014.01c.018 0 .032.015.036.036l-.015 1.004a.036.036 0 0 1-.036.029l-.985-.011c-.018 0-.032-.018-.032-.036l.01-1c0-.018.019-.036.037-.036zm-2.218-.01a.14.14 0 0 1 .136.143v.778a.136.136 0 0 1-.136.136h-.839a.136.136 0 0 1-.136-.136v-.781c0-.072.061-.14.136-.14h.842zm61.429-1.05-.022.014-.01.022-.007.021v.96q.002.013.014.018.007.009.018.015l.025.003.931.004h.026l.021-.018.01-.018.008-.021.004-.936q0-.012-.004-.025c0-.007-.01-.01-.014-.018l-.022-.014-.021-.007zm4.268 0-.015.01-.01.015v1.003l.01.011.015.01.018.004h.985l.01-.014.011-.01.004-.019v-.985l-.014-.014-.011-.011zM26.618 64.63a.1.1 0 0 1 .036.025.12.12 0 0 1 .028.075v.885q.002.018-.007.036a.1.1 0 0 1-.043.043.1.1 0 0 1-.036 0h-.85a.13.13 0 0 0-.085.036.13.13 0 0 0-.036.09v.817q-.002.052.036.09a.13.13 0 0 0 .086.035h.853q.032 0 .053.029a.1.1 0 0 1 .026.053v.885q-.002.048-.036.083a.1.1 0 0 1-.076.029h-.824a.125.125 0 0 1-.121-.126v-.87a.08.08 0 0 0-.03-.054.08.08 0 0 0-.053-.025h-.896a.07.07 0 0 1-.071-.072v-.932a.07.07 0 0 1 .021-.05.07.07 0 0 1 .05-.022h.896q.017.002.032-.003a.1.1 0 0 0 .025-.018.07.07 0 0 0 .026-.057v-.871c0-.032.014-.065.039-.086a.12.12 0 0 1 .086-.036h.824c.018 0 .032.007.047.01M81.486 65.7v.96a.15.15 0 0 0 .136.151.15.15 0 0 0 .079-.01.75.75 0 0 1 .573-.03.25.25 0 0 0 .115.015.25.25 0 0 0 .215-.24v-.813a.05.05 0 0 0-.015-.036.05.05 0 0 0-.035-.011H81.5zm3.243-1.068-.011.008-.007.014v1.025h-1.029l-.018.01a.03.03 0 0 0-.007.018v1.075l.007.011q-.002.01.007.01l.008.004c.282-.095.587-.103.874-.025q.03.01.06.008a.12.12 0 0 0 .09-.069.1.1 0 0 0 .015-.053l-.007-.99 1.039-.003a.073.073 0 0 0 .075-.072v-.935a.04.04 0 0 0-.01-.025q-.013-.012-.03-.014h-1.038q-.01 0-.018.003m1.107 1.058c-.007.003-.01.014-.01.021v1.075l.003.007.007.007.01.007h.015a1.3 1.3 0 0 1 .77-.035.2.2 0 0 0 .086.007.194.194 0 0 0 .162-.19v-.76a.15.15 0 0 0-.043-.107.15.15 0 0 0-.1-.04h-.882q-.012-.002-.018.007m3.24-1.04a.08.08 0 0 0-.022.05v.982l-1.09-.003a.04.04 0 0 0-.021.01l-.006.01-.001.012v1.086l.007.003.01.004h.011c.359-.083.62-.093.77-.036q.055.026.108.018a.237.237 0 0 0 .215-.237l-.003-.867 1.014.007a.04.04 0 0 0 .025-.01.04.04 0 0 0 .007-.029v-.985q.002-.015-.007-.025a.04.04 0 0 0-.022-.011h-.946a.07.07 0 0 0-.05.021m-3.204-1.085a.06.06 0 0 0-.036.035l-.007.026-.018.931.007.025.01.022q.01.009.022.014l.025.007.746.015a.25.25 0 0 0 .186-.086.3.3 0 0 0 .079-.201l.01-.484a.3.3 0 0 0-.157-.272.24.24 0 0 0-.097-.022l-.745-.014zm2.128.007a.1.1 0 0 0-.054.05.1.1 0 0 0-.007.036l-.01.874a.096.096 0 0 0 .093.093l.924.011c.014 0 .029 0 .036-.007a.1.1 0 0 0 .032-.018.1.1 0 0 0 .018-.032.1.1 0 0 0 .01-.036l.012-.87a.1.1 0 0 0-.025-.073.1.1 0 0 0-.069-.025l-.928-.01c-.01 0-.017 0-.032.007m-10.714 0q-.02-.002-.036.007a.08.08 0 0 0-.04.047.1.1 0 0 0-.006.028v.896c0 .01.007.022.01.029q.006.016.018.028a.08.08 0 0 0 .054.025l.896-.003q.012.002.028-.007.016-.006.03-.018a.1.1 0 0 0 .017-.029l.007-.025-.003-.896-.007-.036a.1.1 0 0 0-.018-.025.1.1 0 0 0-.061-.025zm6.414.003a.1.1 0 0 0-.025.018l-.01.025a.1.1 0 0 0-.008.029v.935q.007.015.018.025a.1.1 0 0 0 .025.018l.029.004.906.003a.08.08 0 0 0 .072-.05v-.028l.007-.903-.007-.036-.014-.022-.025-.014a.1.1 0 0 0-.033-.007h-.903zm-2.178 0a.04.04 0 0 0-.025.01.04.04 0 0 0-.011.023v.985l.003.014.007.011.015.01h.881a.2.2 0 0 0 .083-.014.22.22 0 0 0 .114-.107.2.2 0 0 0 .018-.079v-.66a.2.2 0 0 0-.068-.142.22.22 0 0 0-.15-.058l-.867.004zm-54.919-1.118q.028.002.05.018a.07.07 0 0 1 .022.054v.971c0 .022-.014.036-.029.05a.06.06 0 0 1-.046.025l-.806-.003a.2.2 0 0 1-.072-.018.2.2 0 0 1-.097-.115.2.2 0 0 1-.014-.082l.003-.695c0-.054.022-.108.058-.15a.18.18 0 0 1 .129-.062zm25.858-2.1q.014.016.014.036v.946a.07.07 0 0 0 .068.065h.939a.083.083 0 0 1 .079.079v.938q0 .017-.011.03a.04.04 0 0 1-.029.006h-1.01q-.011.002-.022-.007a.03.03 0 0 1-.007-.014v-.946a.08.08 0 0 0-.021-.057.08.08 0 0 0-.054-.018l-.996-.008v-1.057l1.014-.01c.014 0 .029.007.036.017m22.61 1.05h-.014l-.014.015-.01.01v.015l.003.967.003.022.011.014.014.007h.015l1.028-.007h.018l.022-.021v-.018l-.004-.968-.004-.018-.01-.01-.011-.011-.018-.004zm4.315.008a.05.05 0 0 0-.014.035v.96q.002.017.014.033.013.014.032.014h.96a.05.05 0 0 0 .036-.01.05.05 0 0 0 .011-.036l.004-.96a.05.05 0 0 0-.015-.03.05.05 0 0 0-.036-.014l-.956-.003a.05.05 0 0 0-.036.01m4.264 1.003c0 .01 0 .025.01.032a.04.04 0 0 0 .022.007h.993a.04.04 0 0 0 .025-.007l.007-.025v-.95a.08.08 0 0 0-.021-.053.07.07 0 0 0-.05-.018h-.986zm2.215-1.018-.022.015-.014.018-.007.025-.008.928.008.025.014.021q.009.009.021.015l.025.007.921.007c.011 0 .018-.007.025-.01l.025-.012.015-.021.003-.025.008-.925-.004-.028a.07.07 0 0 0-.036-.036h-.028l-.921-.007c-.009-.002-.017.002-.025.003m2.103.007c-.007 0-.014.008-.018.015l-.014.018-.004.021-.004.932v.025a.06.06 0 0 0 .036.036h.022l1 .007.021-.01.022-.012c.003-.007.01-.01.01-.017l.004-.026v-.956l-.014-.018-.018-.011-.025-.007h-1.014zm-61.3-1.05a.04.04 0 0 1 .01.026l.004.852a.2.2 0 0 1-.014.065.2.2 0 0 1-.111.093.2.2 0 0 1-.075.018h-.656a.23.23 0 0 1-.144-.054.16.16 0 0 1-.06-.118v-.853c0-.007 0-.018.007-.025a.04.04 0 0 1 .028-.01l.986-.004q.015 0 .025.01m48.464-1.114a.17.17 0 0 0-.086.09.2.2 0 0 0-.014.057v.968h-.975l-.028.003a.1.1 0 0 0-.025.018.1.1 0 0 0-.025.054v.931q0 .009.003.016l.01.013q.016.01.037.01h.982l.014-.006.007-.015v-1.025l.864-.003a.26.26 0 0 0 .182-.072.26.26 0 0 0 .08-.19v-.716a.155.155 0 0 0-.15-.147h-.815a.2.2 0 0 0-.06.014m4.268.007a.07.07 0 0 0-.021.05v1.054h-1.047q-.016 0-.028.007l-.022.01a.08.08 0 0 0-.021.051v.95q0 .014.01.025l.022.007h1.05a.04.04 0 0 0 .021-.01.04.04 0 0 0 .011-.026v-1.01l.81-.004a.25.25 0 0 0 .175-.079.25.25 0 0 0 .072-.176v-.691a.18.18 0 0 0-.05-.126.18.18 0 0 0-.122-.05h-.81q-.03 0-.05.018m4.264-.01a.04.04 0 0 0-.01.028v1.082l-1.018-.003h-.01l-.012.01-.01.008v1.017l.01.015.011.007h1.025l.004-1.054.981-.007.03-.003a.08.08 0 0 0 .042-.069v-.999a.04.04 0 0 0-.007-.029.04.04 0 0 0-.025-.01h-.99a.04.04 0 0 0-.02.01m-2.114 0a.1.1 0 0 0-.036.021.12.12 0 0 0-.028.072v.91l.003.04a.1.1 0 0 0 .061.057l.036.01h.91q.022.002.04-.007a.1.1 0 0 0 .035-.021.1.1 0 0 0 .022-.036l.01-.036v-.914c0-.01 0-.025-.006-.036a.1.1 0 0 0-.022-.035.1.1 0 0 0-.036-.026.1.1 0 0 0-.036-.007h-.913q-.02-.001-.036.004zm4.354 0-.036.003a.1.1 0 0 0-.025.018c-.007.007-.018.018-.022.029v.036l.004.942q-.002.015.007.032.006.015.018.029.014.014.032.021h.03l.88-.003a.1.1 0 0 0 .036-.007q.016-.006.03-.018a.1.1 0 0 0 .024-.065l-.007-.942a.08.08 0 0 0-.029-.061.1.1 0 0 0-.028-.022h-.029l-.885.004zm-12.929 0a.07.07 0 0 0-.043.04v.028l-.007.967.007.029.015.021a.08.08 0 0 0 .053.025h.907l.029-.003a.1.1 0 0 0 .025-.018.1.1 0 0 0 .014-.025l.004-.029.003-.967c0-.008 0-.022-.007-.03l-.014-.024c-.004-.007-.015-.01-.022-.015a.1.1 0 0 0-.036-.007h-.9l-.028.004zm4.257-.008-.01.008-.008.01-.003.015-.004 1.039v.018l.01.01.012.008h.01l.986.007.014-.004.01-.007a.04.04 0 0 0 .012-.025v-1.057l-.007-.01-.011-.008h-.015l-.981-.007zm-8.625-2.089a.08.08 0 0 0-.021.054v.767a.2.2 0 0 0 .071.157.26.26 0 0 0 .18.065h.616a.28.28 0 0 0 .179-.064.2.2 0 0 0 .072-.151l.003-.77q0-.015-.007-.03l-.014-.024-.025-.015a.1.1 0 0 0-.029-.007h-.975a.1.1 0 0 0-.05.018m8.625-2.168a.07.07 0 0 0-.021.047v.989h-.993a.07.07 0 0 0-.043.021.06.06 0 0 0-.018.04l-.003 1.053h-1.05a.07.07 0 0 0-.05.018.07.07 0 0 0-.018.05v.814a.17.17 0 0 0 .179.179h.688a.25.25 0 0 0 .25-.25v-.81h.99c.018 0 .032-.015.043-.026a.07.07 0 0 0 .021-.04l.004-1.05h1.014q.015.001.029-.01a.04.04 0 0 0 .01-.025v-.989a.04.04 0 0 0-.01-.021.04.04 0 0 0-.026-.011h-.95a.07.07 0 0 0-.046.021m-30.071 0a.07.07 0 0 0-.018.05l-.007.986H46.09a.07.07 0 0 0-.046.025.06.06 0 0 0-.014.043l-.008 1.043-1.01.007c-.01 0-.022 0-.029.01a.05.05 0 0 0-.014.036v.96c0 .012 0 .022.01.03a.05.05 0 0 0 .03.014h.917q.04 0 .068-.029a.1.1 0 0 0 .025-.064v-.964l1.053-.007c.015 0 .033-.004.043-.018a.06.06 0 0 0 .018-.043l.004-1.043h1.021q.016 0 .025-.01a.03.03 0 0 0 .007-.022v-.982c0-.01 0-.022-.01-.029q-.011-.01-.033-.01h-.931a.08.08 0 0 0-.054.02zm17.2 2.15-.018.004-.018.01-.01.019-.008.021.004.946.007.022c0 .007.007.014.01.017a.06.06 0 0 0 .037.015h.95l.02-.007.019-.011c.007-.004.007-.01.01-.018l.004-.021v-.947l-.007-.021-.011-.018-.018-.01-.021-.008-.947.004zm8.59-2.15a.07.07 0 0 0-.022.047v.992h-1.05l-.022.008-.021.014-.015.018-.003.025v1.043l-.993.003a.07.07 0 0 0-.046.022.07.07 0 0 0-.022.046v.835a.154.154 0 0 0 .154.15h.75a.154.154 0 0 0 .153-.153v-.903l1.047-.007q.027.002.046-.018a.07.07 0 0 0 .018-.043l.004-1.04.9-.003a.16.16 0 0 0 .114-.043.16.16 0 0 0 .043-.111v-.753a.15.15 0 0 0-.043-.107.15.15 0 0 0-.108-.043H73a.07.07 0 0 0-.05.021m4.317 2.15a.1.1 0 0 0-.06.09v.867c0 .01 0 .025.006.036a.1.1 0 0 0 .09.06h.864a.1.1 0 0 0 .068-.028.1.1 0 0 0 .021-.029.1.1 0 0 0 .007-.039v-.864l-.003-.035a.1.1 0 0 0-.054-.054.1.1 0 0 0-.036-.007h-.867zm4.257.033a.14.14 0 0 0-.043.093l-.007.788a.13.13 0 0 0 .043.093.14.14 0 0 0 .097.04l.842.007q.054 0 .097-.036a.14.14 0 0 0 .043-.1l.007-.781a.1.1 0 0 0-.011-.05.2.2 0 0 0-.036-.047.1.1 0 0 0-.036-.032.2.2 0 0 0-.053-.011l-.846-.007a.14.14 0 0 0-.097.043m2.186-.033a.1.1 0 0 0-.032.018.1.1 0 0 0-.022.061l-.003.885q-.002.018.007.036a.1.1 0 0 0 .014.025.1.1 0 0 0 .029.018q.015.007.032.007l.889.004q.034-.002.06-.025a.1.1 0 0 0 .026-.061v-.885q.002-.016-.007-.036a.1.1 0 0 0-.015-.025.1.1 0 0 0-.028-.022h-.033l-.888-.007-.033.007zm-15.079-2.125a.17.17 0 0 0-.05.115v.896l-.975.007a.07.07 0 0 0-.046.018.06.06 0 0 0-.018.043l-.007 1.043-.99.003a.07.07 0 0 0-.05.022.07.07 0 0 0-.014.05v.889c0 .025.007.05.022.064a.1.1 0 0 0 .068.025h.781a.17.17 0 0 0 .172-.165l.014-.888.979-.007q.027.002.046-.018a.07.07 0 0 0 .018-.043v-1.043l1.04-.004a.086.086 0 0 0 .082-.086v-.792a.18.18 0 0 0-.054-.125.18.18 0 0 0-.122-.05h-.785a.17.17 0 0 0-.11.046m4.322 2.143a.1.1 0 0 0-.025.061v.889a.08.08 0 0 0 .082.082h.77a.2.2 0 0 0 .144-.071.26.26 0 0 0 .06-.172v-.563a.27.27 0 0 0-.057-.18.2.2 0 0 0-.143-.07h-.77a.08.08 0 0 0-.061.025m6.46.018a.15.15 0 0 0-.043.108v.763a.143.143 0 0 0 .144.143h.767a.16.16 0 0 0 .107-.043.15.15 0 0 0 .04-.1v-.767a.15.15 0 0 0-.043-.104.15.15 0 0 0-.104-.043h-.767a.14.14 0 0 0-.1.043m-17.2-2.2a.08.08 0 0 0-.057.021.07.07 0 0 0-.018.05l.007.91c0 .012 0 .019.008.03l.01.021a.1.1 0 0 0 .025.018h.03l.974-.004a.07.07 0 0 0 .071-.071l-.01-.91v-.03a.1.1 0 0 0-.022-.02.1.1 0 0 0-.05-.022zm13.012-.007a.196.196 0 0 0-.198.2l.008.803.003.025.015.018q.015.014.035.015l1.01-.011a.05.05 0 0 0 .037-.015.06.06 0 0 0 .021-.035l-.007-.81a.2.2 0 0 0-.018-.076.2.2 0 0 0-.043-.068.2.2 0 0 0-.14-.053zm6.342 0a.1.1 0 0 0-.06.029.1.1 0 0 0-.026.064l.004.878.003.032a.1.1 0 0 0 .022.029.1.1 0 0 0 .028.021q.016.007.033.008l.938-.004.033-.007q.016-.006.028-.018a.1.1 0 0 0 .022-.029.1.1 0 0 0 .007-.036l-.003-.881-.008-.032-.018-.03a.1.1 0 0 0-.064-.024zm-15.075.01-.007.011-.004.011v1.003s0 .008.007.011l.008.007h1.017l.011-.003.007-.011V54.98l-.003-.007-.011-.007-.014-.004H66.5c-.003.002-.005 0-.007.004m4.296-.007q-.011-.002-.017.008l-.011.017-.004.015v.982l.014.018.015.007h.018l.967.007.015-.004c.007 0 .01-.007.014-.01l.01-.015v-1l-.01-.014c-.004-.003-.007-.01-.014-.01l-.018-.004h-.979zm8.608.022a.1.1 0 0 0-.022.057v.896q0 .027.022.054a.1.1 0 0 0 .06.025h.89a.086.086 0 0 0 .082-.083v-.892a.086.086 0 0 0-.083-.082h-.889a.1.1 0 0 0-.06.025m4.278-.022-.007.008q-.008 0-.01.01v.011l-.004.985v.015l.01.014.011.007h1.014l.015-.007.007-.01v-.015l.007-.982-.007-.014-.007-.014-.011-.008-.015-.003h-1zm-39.74-3.207a.08.08 0 0 0-.017.054v.978l-1.057.008a.07.07 0 0 0-.043.021.06.06 0 0 0-.018.043v1.053h-.982a.08.08 0 0 0-.075.072v.935q0 .017.01.03a.04.04 0 0 0 .03.013h.978q.014 0 .025-.01a.04.04 0 0 0 .01-.025l.004-1.015h.856a.265.265 0 0 0 .262-.265v-.86l1.014.004h.014l.011-.01.007-.012v-1a.04.04 0 0 0-.007-.024.04.04 0 0 0-.025-.011h-.942a.1.1 0 0 0-.054.021m5.34-3.207a.12.12 0 0 0-.025.083l-.004.942h-.978a.07.07 0 0 0-.046.025.07.07 0 0 0-.018.043l-.008 1.043H47.18a.04.04 0 0 0-.029.007.04.04 0 0 0-.01.025v.993a.04.04 0 0 0 .01.021q.011.01.025.011h1.018l.007 1.05-.989.004a.07.07 0 0 0-.06.04l-.004.024-.008 1.053h-1.046a.07.07 0 0 0-.05.022.1.1 0 0 0-.018.05v.946q0 .016.01.025t.022.011H47.1q.015 0 .025-.01a.04.04 0 0 0 .01-.026v-1.018l.875-.007a.19.19 0 0 0 .186-.19l.004-.924h1.007a.036.036 0 0 0 .036-.036v-.982q0-.016-.01-.028a.04.04 0 0 0-.026-.011l-1.014.007V50.68l.982-.01a.06.06 0 0 0 .043-.015.07.07 0 0 0 .018-.047l.01-1.039 1.057-.01a.06.06 0 0 0 .044-.019q.015-.015.014-.043v-.935l-.004-.02-.01-.016a.05.05 0 0 0-.036-.014h-.953a.12.12 0 0 0-.08.036zm10.775 2.15a.06.06 0 0 0-.018.036v.917q.002.027.025.054c.015.01.033.022.05.022l.982.01v1.05l-.989.008a.07.07 0 0 0-.043.017.07.07 0 0 0-.018.047l-.007 1.05H58.99a.08.08 0 0 0-.054.021.08.08 0 0 0-.022.05v.947q0 .014.011.025.011.01.025.01h1.046q.015 0 .026-.01a.04.04 0 0 0 .01-.025v-1.015l.824-.003a.24.24 0 0 0 .237-.24v-.878h1.014q.015 0 .025-.01a.04.04 0 0 0 .01-.022v-.986a.04.04 0 0 0-.01-.025l-.014-.01h-.015l-1.014.003v-.92a.14.14 0 0 0-.04-.098.14.14 0 0 0-.096-.035h-.867a.05.05 0 0 0-.036.01m-10.753 2.093a.08.08 0 0 0-.043.047.1.1 0 0 0-.008.028l-.003.957a.08.08 0 0 0 .025.057.1.1 0 0 0 .025.018q.015.007.032.007h.953l.033-.003a.1.1 0 0 0 .025-.018.1.1 0 0 0 .018-.029.1.1 0 0 0 .007-.029v-.988a.08.08 0 0 0-.047-.044.1.1 0 0 0-.028-.007h-.957l-.029.004zm20.435-1.036a.08.08 0 0 0-.021.054l-.004.978h-.96c-.018 0-.043 0-.061.008a.2.2 0 0 0-.054.035.2.2 0 0 0-.032.054.2.2 0 0 0-.014.057v.832a.136.136 0 0 0 .136.136h.749a.2.2 0 0 0 .09-.022.24.24 0 0 0 .146-.222v-.878l1.014.004q.015.001.029-.007a.04.04 0 0 0 .01-.022v-.989a.04.04 0 0 0-.01-.025.04.04 0 0 0-.025-.01h-.946a.07.07 0 0 0-.047.02zm3.211-1.06a.05.05 0 0 0-.014.04v.916q0 .027.021.054a.08.08 0 0 0 .054.022l.978.01.004 1.05h-.99a.07.07 0 0 0-.066.047.1.1 0 0 0-.005.029v.874a.17.17 0 0 0 .176.172h.645a.237.237 0 0 0 .24-.237v-.885H75a.04.04 0 0 0 .033-.022l.003-.014v-.981q0-.016-.011-.029a.05.05 0 0 0-.029-.01l-1.014.006v-.931a.12.12 0 0 0-.126-.125h-.874a.06.06 0 0 0-.039.014m4.271-.008-.007.011-.003.011v.874c0 .043.018.083.046.108a.15.15 0 0 0 .108.046l.906.004v1.043h-.92q-.028-.002-.054.007a.1.1 0 0 0-.04.036.1.1 0 0 0-.036.036.14.14 0 0 0-.007.053v.839a.16.16 0 0 0 .154.154h.75a.154.154 0 0 0 .153-.154v-.968h1.09l.01-.01.007-.011.004-.01v-.983a.04.04 0 0 0-.01-.025.04.04 0 0 0-.022-.01l-1.079.003V50.72a.04.04 0 0 0-.007-.025l-.013-.008-.016-.002h-1.003l-.01.007zm4.354 2.1a.1.1 0 0 0-.043.029.14.14 0 0 0-.036.09l-.007.874a.1.1 0 0 0 .01.046.1.1 0 0 0 .026.04.13.13 0 0 0 .086.036l.778.007a.2.2 0 0 0 .157-.065.23.23 0 0 0 .065-.16l.007-.67a.23.23 0 0 0-.068-.159.2.2 0 0 0-.072-.053.2.2 0 0 0-.082-.018h-.774zm-35.536-1.039a.04.04 0 0 0-.01.022l-.004 1.017-1.004.004-.017.004-.015.01-.007.015-.004.014v1.04l.015.017.01.01h.94a.07.07 0 0 0 .053-.02.07.07 0 0 0 .025-.055l.004-1.039 1.05-.007a.07.07 0 0 0 .046-.021.07.07 0 0 0 .022-.047v-.939q0-.007-.003-.015l-.008-.013a.04.04 0 0 0-.029-.011h-1.039a.04.04 0 0 0-.025.01zm11.854 1.06a.07.07 0 0 0-.022.051v.971l.008.029.014.025a.1.1 0 0 0 .025.014l.029.007h.91l.021-.007a.1.1 0 0 0 .025-.014.1.1 0 0 0 .018-.025l.004-.029v-.971a.07.07 0 0 0-.072-.072h-.906a.08.08 0 0 0-.054.022m4.303-.017a.1.1 0 0 0-.025.018.1.1 0 0 0-.014.029.1.1 0 0 0-.007.028v.993a.1.1 0 0 0 .043.036q.016.01.036.01h.956q.015 0 .03-.007l.024-.014a.1.1 0 0 0 .018-.029l.004-.029.003-.956q.002-.017-.007-.032a.1.1 0 0 0-.018-.026.08.08 0 0 0-.054-.025h-.956zm4.315.014a.07.07 0 0 0-.022.05v.975q-.002.017.007.029.004.014.015.025.009.008.021.014a.1.1 0 0 0 .029.007h.767a.2.2 0 0 0 .082-.018.2.2 0 0 0 .072-.057.24.24 0 0 0 .064-.172v-.627a.3.3 0 0 0-.014-.097.25.25 0 0 0-.122-.132.2.2 0 0 0-.082-.018h-.767a.1.1 0 0 0-.05.021m4.282.004a.1.1 0 0 0-.025.06v.95c0 .022.007.047.025.061a.1.1 0 0 0 .057.025h.885a.08.08 0 0 0 .061-.025.1.1 0 0 0 .025-.06v-.95a.086.086 0 0 0-.086-.086h-.885a.1.1 0 0 0-.057.025m4.271 0a.1.1 0 0 0-.021.054v.967q.001.033.025.054a.08.08 0 0 0 .053.021h.825a.2.2 0 0 0 .082-.018.22.22 0 0 0 .122-.114.2.2 0 0 0 .014-.083v-.698a.2.2 0 0 0-.068-.147.23.23 0 0 0-.157-.061h-.825a.08.08 0 0 0-.05.025m4.34 0a.08.08 0 0 0-.022.05l.004.971q0 .033.021.054a.1.1 0 0 0 .025.016.1.1 0 0 0 .029.005h.767a.2.2 0 0 0 .154-.079.27.27 0 0 0 .06-.179v-.609a.3.3 0 0 0-.06-.179.2.2 0 0 0-.075-.057.2.2 0 0 0-.083-.018h-.767q-.015 0-.029.005-.013.008-.024.02m-12.89-2.129a.04.04 0 0 0-.021.008.04.04 0 0 0-.007.021l.007 1.003q-.002.013.007.018l.022.011.86-.007a.2.2 0 0 0 .064-.014.17.17 0 0 0 .086-.094.2.2 0 0 0 .018-.064l-.007-.717a.18.18 0 0 0-.05-.122.17.17 0 0 0-.119-.05zm-21.45-2.153a.2.2 0 0 0-.05.032.2.2 0 0 0-.028.05.2.2 0 0 0-.015.058v.903h-.981a.07.07 0 0 0-.061.064l-.011 1.053-1.043.004a.07.07 0 0 0-.05.022.07.07 0 0 0-.022.05v.95q0 .013.01.023t.023.012h1.05a.04.04 0 0 0 .025-.014.04.04 0 0 0 .01-.025l-.003-1.021h.992a.06.06 0 0 0 .043-.018.07.07 0 0 0 .022-.047v-1.05h1.018a.04.04 0 0 0 .025-.007.04.04 0 0 0 .01-.025v-.986a.04.04 0 0 0-.01-.025l-.011-.01-.014-.004h-.868a.2.2 0 0 0-.06.014zm8.583 2.16a.1.1 0 0 0-.03.022c-.006.007-.017.014-.02.025l-.004.036-.004.885q-.002.015.007.032.007.015.018.029a.1.1 0 0 0 .029.014.1.1 0 0 0 .036.007l.878.004q.02.002.036-.007a.1.1 0 0 0 .025-.018.1.1 0 0 0 .025-.061v-.885l-.004-.032a.1.1 0 0 0-.018-.029.1.1 0 0 0-.064-.025h-.882zm25.746 0-.007.022v1l.003.021q.013.009.025.007l.842.004a.2.2 0 0 0 .13-.065.23.23 0 0 0 .053-.146v-.638a.23.23 0 0 0-.11-.193.2.2 0 0 0-.069-.019h-.846c-.007 0-.014 0-.021.008m-34.39 0-.014.011a.05.05 0 0 0-.014.04v.97l.018.015q.015.014.036.014h.97l.019-.017.01-.015v-.992l-.014-.018-.018-.008h-.971l-.021.004zm4.3 0a.1.1 0 0 0-.046.047.1.1 0 0 0-.004.032v.885q-.002.017.008.033a.09.09 0 0 0 .075.053h.946q.015.002.032-.007a.1.1 0 0 0 .029-.014.1.1 0 0 0 .018-.029.1.1 0 0 0 .007-.036v-.881l-.004-.036a.1.1 0 0 0-.021-.029.1.1 0 0 0-.025-.017.1.1 0 0 0-.036-.008h-.943l-.028.008zm2.133.011a.05.05 0 0 0-.015.036v.953c0 .015.008.029.015.036a.05.05 0 0 0 .04.014h.949a.05.05 0 0 0 .035-.014.05.05 0 0 0 .015-.036v-.953a.05.05 0 0 0-.01-.036.06.06 0 0 0-.04-.018h-.95a.06.06 0 0 0-.036.018zm4.314-.01a.08.08 0 0 0-.04.046.1.1 0 0 0-.007.032l-.003.889q-.002.015.007.032.006.015.018.029a.1.1 0 0 0 .029.014q.013.006.028.007h.986l.021-.021a.1.1 0 0 0 .018-.025.1.1 0 0 0 .007-.036l.004-.889a.1.1 0 0 0-.022-.06.1.1 0 0 0-.028-.018.1.1 0 0 0-.036-.008h-.946zm2.132.007a.05.05 0 0 0-.014.035v.957c0 .011.007.029.014.036q.016.014.036.014h.957a.05.05 0 0 0 .035-.014.05.05 0 0 0 .015-.036v-.956a.05.05 0 0 0-.014-.036.05.05 0 0 0-.036-.015h-.957a.05.05 0 0 0-.036.015m4.3-.015a.04.04 0 0 0-.021.011.04.04 0 0 0-.011.025v.99c0 .006.007.017.014.02q.01.01.022.011h.87a.2.2 0 0 0 .08-.017.2.2 0 0 0 .132-.18v-.67a.2.2 0 0 0-.061-.136.23.23 0 0 0-.154-.057zm6.468.008a.1.1 0 0 0-.029.017.1.1 0 0 0-.018.03.1.1 0 0 0-.003.031v.921q.006.015.018.029a.1.1 0 0 0 .028.014.1.1 0 0 0 .033.007h.985l.022-.021.021-.025.004-.036.003-.889q.002-.015-.007-.032a.1.1 0 0 0-.018-.029.1.1 0 0 0-.029-.017.1.1 0 0 0-.032-.008h-.946zm2.129.007a.05.05 0 0 0-.015.035v.957c0 .011.004.029.014.036q.016.014.036.014h.957a.05.05 0 0 0 .036-.014.06.06 0 0 0 .014-.036v-.956a.05.05 0 0 0-.014-.036.05.05 0 0 0-.036-.015h-.953a.05.05 0 0 0-.04.015m4.303-.015q-.015 0-.029.011a.04.04 0 0 0-.01.025l.003.99a.04.04 0 0 0 .011.02q.011.01.025.011h.867a.2.2 0 0 0 .083-.017.19.19 0 0 0 .132-.18v-.666a.2.2 0 0 0-.064-.14.23.23 0 0 0-.154-.057zm-6.378-2.16a.12.12 0 0 0-.104.071.1.1 0 0 0-.007.047l.007.824c0 .029.01.06.036.082q.034.032.082.033l.878-.008q.023 0 .043-.01a.12.12 0 0 0 .075-.108l-.007-.824a.12.12 0 0 0-.118-.115l-.882.008zm-25.854 0a.1.1 0 0 0-.025.014l-.014.025v.025l-.011.914a.1.1 0 0 0 .021.05.08.08 0 0 0 .05.022h1.004l.021-.015.018-.021V49.5l.007-.917-.003-.025-.014-.022a.1.1 0 0 0-.05-.021l-.979-.004h-.025zm4.321 0-.014.01-.01.015v.996c0 .007.007.01.01.014l.014.01h.018l.96.008.019-.004.014-.01.01-.015.004-.017.004-.96a.06.06 0 0 0-.014-.037.06.06 0 0 0-.036-.014h-.979zm8.583 0a.1.1 0 0 0-.03.017.1.1 0 0 0-.024.058l-.004.889q-.002.015.007.035.008.015.018.025a.1.1 0 0 0 .029.018.1.1 0 0 0 .029.008h.95l.032-.004a.08.08 0 0 0 .053-.075v-.918a.1.1 0 0 0-.018-.028.1.1 0 0 0-.064-.025l-.95-.008c-.01 0-.021 0-.028.008m2.153 0c-.007 0-.01.007-.018.014l-.014.018v.021l-.007.94.007.02.01.019.019.014h.021l.946.007.018-.007c.007 0 .014-.007.018-.01.007-.004.007-.012.01-.019l.008-.021v-.964l-.018-.018-.018-.01-.018-.008H57.9zm2.186 0a.1.1 0 0 0-.054.082v.914q.01.015.025.028.028.024.065.026h.874l.036-.004a.1.1 0 0 0 .025-.018.1.1 0 0 0 .022-.032.1.1 0 0 0 .007-.032v-.882a.1.1 0 0 0-.025-.06.1.1 0 0 0-.029-.019.1.1 0 0 0-.032-.007l-.878-.004c-.01 0-.025 0-.036.008m2.107 0a.1.1 0 0 0-.029.021.1.1 0 0 0-.021.057v.89q-.002.014.007.035.006.015.018.025a.1.1 0 0 0 .025.018.1.1 0 0 0 .036.007l.95-.004q.016.002.028-.007a.08.08 0 0 0 .043-.046.1.1 0 0 0 .007-.032v-.886q.002-.016-.007-.028a.08.08 0 0 0-.043-.047.1.1 0 0 0-.036-.007h-.946c-.01 0-.021-.004-.032.004m8.59-.004-.011.007-.011.014-.004.015v.996l.01.011.012.007h.018l.978.007.014-.004.014-.007.008-.014v-1.011l-.008-.01-.01-.007-.015-.004-.981-.004zm2.156 0-.007.029-.007.992a.04.04 0 0 0 .01.022q.01.01.022.01h.889c.018 0 .036 0 .054-.01a.14.14 0 0 0 .046-.043.2.2 0 0 0 .025-.065.3.3 0 0 0 .015-.071v-.663a.25.25 0 0 0-.036-.144.12.12 0 0 0-.097-.057l-.888-.004q-.013-.002-.026.008zm4.293 0-.014.007-.007.014-.004.015v.996l.01.01.012.008h.01l.986.007a.04.04 0 0 0 .025-.01l.01-.015v-1.01l-.007-.011-.014-.007-.014-.004-.978-.004zm-58.064 0 .004.917a.1.1 0 0 1-.008.05.14.14 0 0 1-.028.047.14.14 0 0 1-.047.029.14.14 0 0 1-.054.01h-.885q-.01.002-.021-.007a.04.04 0 0 1-.011-.025v-.989l.004-.014.007-.01.014-.012h.014l1.01.008zm32.246 1.018q0 .014.008.025.01.01.025.01h.992a.04.04 0 0 0 .022-.007.04.04 0 0 0 .007-.025v-.953a.07.07 0 0 0-.072-.072h-.982zm2.183-1.007a.04.04 0 0 0-.011.025v.982q0 .015.01.025t.022.01h.985q.015 0 .026-.01a.04.04 0 0 0 .01-.025v-.982a.04.04 0 0 0-.01-.025.04.04 0 0 0-.026-.011h-.985a.04.04 0 0 0-.021.01m10.739-2.175a.04.04 0 0 0-.01.025l-.012 1.086-1.02-.008-.015.004-.011.007-.007.014v1q-.002.017.007.029.011.01.025.01l1.018-.003v1.018q-.002.014.007.025.011.01.025.01h.989q.015.002.025-.007.009-.01.007-.025v-.953a.07.07 0 0 0-.021-.047.07.07 0 0 0-.05-.021h-.982l.003-1.053.932-.004a.12.12 0 0 0 .122-.115v-.974c0-.008-.007-.011-.01-.018l-.019-.008h-.978a.04.04 0 0 0-.025.008m2.164 2.185a.1.1 0 0 0-.021.058v.896c0 .018.007.043.025.057a.08.08 0 0 0 .057.022h.889l.032-.004q.015-.006.029-.018a.1.1 0 0 0 .018-.029v-.953a.1.1 0 0 0-.018-.029.1.1 0 0 0-.029-.017.1.1 0 0 0-.032-.008h-.889a.1.1 0 0 0-.06.025m8.74-.025a.23.23 0 0 0-.147.054.2.2 0 0 0-.047.061.2.2 0 0 0-.014.072v.795q.001.033.025.054a.08.08 0 0 0 .054.022h.967l.025-.008a.1.1 0 0 0 .03-.018l.014-.025a.1.1 0 0 0 .007-.032l-.004-.792a.18.18 0 0 0-.06-.132.22.22 0 0 0-.144-.054zm4.146.015a.04.04 0 0 0-.01.021v.986q0 .015.01.025.008.01.021.01h.99q.014 0 .024-.01c.008-.007.008-.018.008-.025v-.986c0-.007 0-.018-.008-.021a.04.04 0 0 0-.025-.011h-.989a.03.03 0 0 0-.021.01m-54.79-3.215a.07.07 0 0 0-.024.05v.983l-1.054.007a.06.06 0 0 0-.04.018.07.07 0 0 0-.02.046l-.008 1.047-.985.007a.08.08 0 0 0-.072.071v.936q.002.016.014.028a.04.04 0 0 0 .029.011h.978q.016 0 .025-.01a.04.04 0 0 0 .011-.026V47.46l1.05-.008a.06.06 0 0 0 .04-.021.07.07 0 0 0 .02-.047l.004-1.039h1.018a.04.04 0 0 0 .025-.007.04.04 0 0 0 .01-.025v-.993a.04.04 0 0 0-.01-.025l-.021-.003h-.943a.08.08 0 0 0-.053.018zm18.222 1.05a.08.08 0 0 0-.022.054v1.05l-.978.004a.08.08 0 0 0-.079.071v.936c0 .01.008.021.015.028l.013.009.015.002h.975a.04.04 0 0 0 .025-.01l.01-.012.004-1.028.878-.007a.247.247 0 0 0 .244-.244v-.695a.18.18 0 0 0-.054-.125.18.18 0 0 0-.129-.05h-.863a.07.07 0 0 0-.054.017m4.34 0a.07.07 0 0 0-.022.05v1.054h-1.047q-.013 0-.025.004a.1.1 0 0 0-.025.018.1.1 0 0 0-.021.05v.946a.04.04 0 0 0 .014.021q.01.01.022.011H47.1q.015 0 .025-.01a.04.04 0 0 0 .01-.026v-1.014h.897a.16.16 0 0 0 .11-.05.16.16 0 0 0 .05-.111v-.81a.16.16 0 0 0-.046-.108.16.16 0 0 0-.107-.043h-.831a.07.07 0 0 0-.05.018m4.292.004a.08.08 0 0 0-.025.057l-.01 1.04-1.018-.008a.04.04 0 0 0-.025.011c-.004.007-.011.018-.011.029v.985q0 .015.007.025l.014.011 1.032-.004v-1.05l1.025-.007q.01.002.022-.007a.04.04 0 0 0 .007-.025v-1.057q.002-.006-.007-.018a.03.03 0 0 0-.018-.007h-.935a.08.08 0 0 0-.058.025m4.286.025a.16.16 0 0 0-.047.111v.964l-.978.004a.1.1 0 0 0-.05.021.08.08 0 0 0-.022.05v.936c0 .01 0 .021.011.028q.015.012.032.011h.975l.01-.004.015-.007.007-.01v-1.029h.867a.26.26 0 0 0 .18-.072.26.26 0 0 0 .075-.182v-.724a.14.14 0 0 0-.04-.104.15.15 0 0 0-.107-.04h-.814a.17.17 0 0 0-.114.047m4.346-.043a.1.1 0 0 0-.028.022q-.016.013-.022.028a.1.1 0 0 0-.007.036l.007 1.029-1.042.003-.03.004a.1.1 0 0 0-.024.018.08.08 0 0 0-.022.05v.946l.011.021q.011.01.025.011h1.046q.017 0 .03-.01a.04.04 0 0 0 .01-.026l-.004-1.017.936-.004q.193-.002.103-1.014a.115.115 0 0 0-.114-.1h-.839zm15.036 0a.1.1 0 0 0-.043.022c-.01.01-.018.028-.025.043a.1.1 0 0 0-.01.05l-.008.87a.14.14 0 0 0 .04.09.13.13 0 0 0 .085.036l.775.007a.22.22 0 0 0 .157-.068.23.23 0 0 0 .068-.158v-.673a.24.24 0 0 0-.06-.162.23.23 0 0 0-.158-.064l-.774-.007a.1.1 0 0 0-.047.007zm-29.086-1.05c-.007.007-.007.018-.007.025v1.021l-.9-.003a.155.155 0 0 0-.15.093.2.2 0 0 0-.007.061v.813a.16.16 0 0 0 .095.143.2.2 0 0 0 .059.011h.824a.1.1 0 0 0 .05-.021.08.08 0 0 0 .022-.054l.007-1.043 1.04-.007a.07.07 0 0 0 .07-.075v-.932c0-.01 0-.021-.01-.028a.04.04 0 0 0-.029-.007h-1.039zm7.597 1.05a.1.1 0 0 0-.022.018l-.018.021-.003.03-.004.967.007.028q.006.015.015.025a.1.1 0 0 0 .025.018l.029.004.902.004a.1.1 0 0 0 .03-.008l.024-.014a.1.1 0 0 0 .018-.025v-.025l.007-.968-.007-.028-.014-.025-.025-.015a.1.1 0 0 0-.029-.007h-.907l-.025.004zm4.293 0a.1.1 0 0 0-.029.018.1.1 0 0 0-.029.064v.94l.004.035q.008.015.021.025a.1.1 0 0 0 .03.022.1.1 0 0 0 .035.007l.874.004q.018.002.036-.008a.1.1 0 0 0 .025-.021.1.1 0 0 0 .022-.029.1.1 0 0 0 .007-.036l.003-.935q.002-.015-.007-.032a.1.1 0 0 0-.021-.032.1.1 0 0 0-.065-.026h-.87zm4.285 0a.1.1 0 0 0-.035.025.1.1 0 0 0-.018.036.1.1 0 0 0-.011.036l-.004.91q0 .022.011.04.006.019.018.035.016.015.036.022.019.01.04.01h.91q.02.002.035-.007a.1.1 0 0 0 .061-.057.1.1 0 0 0 .007-.04l.004-.906a.11.11 0 0 0-.065-.1.1.1 0 0 0-.04-.008h-.91a.1.1 0 0 0-.039.004m4.297.014a.08.08 0 0 0-.022.058v.967q.001.03.022.05a.08.08 0 0 0 .053.026l.8-.004a.18.18 0 0 0 .132-.061.2.2 0 0 0 .05-.14v-.716a.22.22 0 0 0-.053-.144.18.18 0 0 0-.133-.053h-.795a.1.1 0 0 0-.054.017m2.121.011a.13.13 0 0 0-.036.09v.874a.12.12 0 0 0 .036.086q.037.039.09.04h.774a.22.22 0 0 0 .157-.069.24.24 0 0 0 .065-.16v-.667a.22.22 0 0 0-.222-.226h-.774a.1.1 0 0 0-.049.009.1.1 0 0 0-.04.023m2.215-.025a.13.13 0 0 0-.072.072.1.1 0 0 0-.004.05l-.007.86q0 .028.01.05a.13.13 0 0 0 .12.079l.798.004c.015 0 .036 0 .047-.008a.13.13 0 0 0 .082-.118v-.86l-.003-.05a.1.1 0 0 0-.029-.043.13.13 0 0 0-.09-.036l-.799-.007a.14.14 0 0 0-.053.007m-51.697.029a.1.1 0 0 1 .029.079v1.003l-1.015-.007a.04.04 0 0 1-.025-.011.04.04 0 0 1-.01-.025v-1.046l.007-.018.008-.006.01-.002h.913c.03 0 .061.015.083.036zm21.579-2.125a.04.04 0 0 0-.025.007.04.04 0 0 0-.011.029v.974q0 .018.01.029a.04.04 0 0 0 .03.007h1.017l.003 1.047h-.989a.07.07 0 0 0-.05.017.07.07 0 0 0-.021.05v.997c0 .014.01.028.018.036a.05.05 0 0 0 .036.014h.97q.018.002.026-.007t.007-.025l.003-1.083 1.015-.003a.04.04 0 0 0 .025-.007.04.04 0 0 0 .01-.025v-.986a.04.04 0 0 0-.01-.025.04.04 0 0 0-.029-.007l-1.014.007c0-.315-.007-.638-.025-.957q-.011-.17-.996-.09m9.664 1.06a.07.07 0 0 0-.018.05l-.004.983h-1.028a.1.1 0 0 0-.086.09v.974q.002.02.014.036.014.01.033.01h1.05l.01-.01.007-.011v-1.082h1.022a.04.04 0 0 0 .025-.008.04.04 0 0 0 .007-.025v-.989a.04.04 0 0 0-.007-.025.04.04 0 0 0-.025-.007h-.954a.07.07 0 0 0-.05.018zm22.568 1.047a.1.1 0 0 0-.025.057v.968c0 .018.01.04.025.053a.08.08 0 0 0 .053.022h.764a.2.2 0 0 0 .154-.072.27.27 0 0 0 .064-.179v-.616a.28.28 0 0 0-.064-.18.2.2 0 0 0-.154-.071h-.764a.08.08 0 0 0-.053.018m-10.79-2.107a.07.07 0 0 0-.021.054l-.004.78a.22.22 0 0 0 .05.144.18.18 0 0 0 .133.065h.752a.2.2 0 0 0 .069-.011.2.2 0 0 0 .096-.115.2.2 0 0 0 .015-.079l.003-.777a.07.07 0 0 0-.021-.054.07.07 0 0 0-.05-.018l-.968-.007a.08.08 0 0 0-.054.018m6.45.003a.08.08 0 0 0-.028.054v.8c0 .046.018.092.05.128a.2.2 0 0 0 .129.058h.756a.2.2 0 0 0 .129-.05.2.2 0 0 0 .054-.13l.003-.799a.08.08 0 0 0-.021-.057.08.08 0 0 0-.054-.018l-.968-.007a.08.08 0 0 0-.053.021zm4.322-.01a.03.03 0 0 0-.007.018v1q-.002.01.007.02l.021.012h.864a.2.2 0 0 0 .064-.011.2.2 0 0 0 .086-.1.2.2 0 0 0 .015-.076v-.691a.2.2 0 0 0-.047-.13.15.15 0 0 0-.118-.053l-.86-.004a.04.04 0 0 0-.025.011zm-47.221-2.168a.16.16 0 0 0-.083.086.2.2 0 0 0-.014.057l.004.9-.986.003a.07.07 0 0 0-.046.022.06.06 0 0 0-.018.043v1.05h-1.05a.07.07 0 0 0-.047.017.07.07 0 0 0-.021.054v.946a.036.036 0 0 0 .035.036h1.047a.04.04 0 0 0 .021-.01.04.04 0 0 0 .011-.026l.004-1.017.989-.008a.07.07 0 0 0 .06-.065v-1.046l1.018-.003a.036.036 0 0 0 .036-.036v-.982a.036.036 0 0 0-.036-.036h-.867c-.018 0-.04 0-.057.011zm2.103.01a.07.07 0 0 0-.018.05l-.007.986-1.046.004a.06.06 0 0 0-.047.02.07.07 0 0 0-.018.048l-.007 1.039-1.007.007h-.018l-.014.01-.01.015v.986q-.002.016.006.028a.05.05 0 0 0 .029.015h.92a.1.1 0 0 0 .065-.03.1.1 0 0 0 .029-.067v-.964l1.05-.004a.07.07 0 0 0 .046-.018.06.06 0 0 0 .018-.046v-1.04h1.029a.04.04 0 0 0 .021-.014l.008-.021v-.978c0-.011-.004-.026-.011-.033l-.032-.01h-.932c-.022 0-.043.003-.054.017m5.318-3.232a.04.04 0 0 0-.011.022l.004 1.018h-.921c-.036 0-.072.01-.093.035a.14.14 0 0 0-.044.097v.985h-1.017a.04.04 0 0 0-.025.008.04.04 0 0 0-.011.025v.989q0 .015.01.025t.026.01h1.014l.004 1.05-.99.004q-.026.002-.043.022a.07.07 0 0 0-.021.043v1.05l-1.082-.004a.04.04 0 0 0-.022.01.04.04 0 0 0-.01.022v1.01l.007.008.007.007h.967a.12.12 0 0 0 .094-.04.13.13 0 0 0 .039-.096v-.918l.989-.003a.06.06 0 0 0 .06-.061l.005-1.053h1.017c.01 0 .018 0 .025-.008a.04.04 0 0 0 .011-.028v-.986a.04.04 0 0 0-.024-.033l-.015-.003-1.018.008.004-1.058.928.004a.133.133 0 0 0 .129-.129v-.992l1.039-.004a.1.1 0 0 0 .053-.022.08.08 0 0 0 .022-.053v-.932a.04.04 0 0 0-.01-.029.04.04 0 0 0-.03-.01h-1.042a.04.04 0 0 0-.025.01m1.128 3.233a.07.07 0 0 0-.017.05l-.004.981-1.05.008a.06.06 0 0 0-.043.021c-.01.01-.021.025-.021.043v1.047l-.91-.011a.16.16 0 0 0-.108.043.15.15 0 0 0-.043.107v.764a.155.155 0 0 0 .154.154h.835a.07.07 0 0 0 .05-.018.07.07 0 0 0 .022-.05v-.99l1.042-.007q.013 0 .025-.003l.022-.015.014-.021.007-.025.004-1.047 1.018.004h.014l.01-.007.004-.014.004-.015v-.985a.04.04 0 0 0-.007-.025.04.04 0 0 0-.025-.011h-.946a.07.07 0 0 0-.05.022m2.115 0a.07.07 0 0 0-.025.05l-.008.985-.978.007a.07.07 0 0 0-.046.018.07.07 0 0 0-.018.047l-.008 1.039h-1.02q-.014-.002-.026.007a.04.04 0 0 0-.007.022v1.014l.007.01h.007l.011.008h.874a.16.16 0 0 0 .108-.047c.03-.03.046-.07.047-.111v-.903l.981-.004a.07.07 0 0 0 .047-.021.07.07 0 0 0 .014-.047l.007-1.039.964.004a.2.2 0 0 0 .061-.015.2.2 0 0 0 .05-.032.2.2 0 0 0 .033-.05.2.2 0 0 0 .014-.061v-.753a.15.15 0 0 0-.043-.107.15.15 0 0 0-.107-.043h-.896a.07.07 0 0 0-.043.022m.021 2.15a.08.08 0 0 0-.043.046.1.1 0 0 0-.007.029v.896l.004.032q.006.015.017.029a.1.1 0 0 0 .03.017h.028l.953.008.036-.008a.1.1 0 0 0 .025-.017.1.1 0 0 0 .018-.026v-.032l.007-.896q.002-.015-.007-.032a.1.1 0 0 0-.018-.025.1.1 0 0 0-.025-.014.1.1 0 0 0-.032-.008l-.954-.003c-.01 0-.021-.004-.032.004m4.31-2.15a.07.07 0 0 0-.02.05v.989l-1.05.003a.06.06 0 0 0-.047.02.07.07 0 0 0-.018.048v1.04l-1.021-.004a.036.036 0 0 0-.036.036v.992q0 .015.01.025t.026.011h.896a.12.12 0 0 0 .121-.122v-.938l1.05-.008c.018 0 .036-.007.043-.018a.06.06 0 0 0 .018-.046l.007-1.04h.903a.15.15 0 0 0 .15-.153v-.76a.14.14 0 0 0-.038-.108.15.15 0 0 0-.108-.035h-.835a.1.1 0 0 0-.05.017m4.351-.008a.2.2 0 0 0-.054.036.18.18 0 0 0-.046.111l.007.9h-.99a.07.07 0 0 0-.042.021.06.06 0 0 0-.018.043l-.007 1.047-1.079-.004h-.014l-.014.01-.008.008v1.007q0 .014.008.025.008.01.021.01h.957c.036 0 .064-.017.09-.042a.14.14 0 0 0 .042-.097l-.003-.918.989-.003.025-.004.018-.014.014-.022.007-.025.004-1.042h1.014q.015 0 .029-.011a.04.04 0 0 0 .01-.025v-.993a.04.04 0 0 0-.01-.021.03.03 0 0 0-.022-.007h-.87a.2.2 0 0 0-.058.01m-.054 2.165a.02.02 0 0 0-.018.01l-.014.018-.004.025-.003.932v.025l.018.022.018.014h.025l.928.007.025-.003a.07.07 0 0 0 .036-.036v-.025l.007-.932-.004-.025-.014-.022-.021-.01-.025-.004-.929-.004q-.01-.002-.025.008m4.279-2.125a.16.16 0 0 0-.047.11v.897l-.974.007a.07.07 0 0 0-.047.018.06.06 0 0 0-.018.046l-.004 1.04h-1.024q-.013-.002-.025.007a.04.04 0 0 0-.011.021v1.004l.003.01.008.011h.007l.01.007h.871a.16.16 0 0 0 .162-.157v-.904l.978-.007a.07.07 0 0 0 .043-.021.07.07 0 0 0 .018-.047l.003-1.035 1.05-.011a.07.07 0 0 0 .05-.022.08.08 0 0 0 .022-.05v-.82a.16.16 0 0 0-.043-.111.16.16 0 0 0-.111-.047h-.814a.17.17 0 0 0-.11.05zm.01 2.125a.08.08 0 0 0-.046.04.1.1 0 0 0-.007.028v.896l.007.032q.006.015.018.029a.1.1 0 0 0 .029.017h.028l.953.008.033-.008a.08.08 0 0 0 .053-.075v-.896l-.007-.032a.08.08 0 0 0-.044-.041.1.1 0 0 0-.031-.005l-.957-.004c-.007 0-.021 0-.028.007zm4.311-2.157a.07.07 0 0 0-.021.046l-.004.99-1.046.003a.07.07 0 0 0-.047.021.07.07 0 0 0-.018.047v1.039l-1.024-.004a.04.04 0 0 0-.026.011l-.007.022v.996q0 .015.011.025a.04.04 0 0 0 .025.01h.896a.15.15 0 0 0 .09-.039.13.13 0 0 0 .035-.09v-.931h1.043a.07.07 0 0 0 .047-.018.07.07 0 0 0 .021-.047v-1.039h.903a.16.16 0 0 0 .111-.046.16.16 0 0 0 .047-.108v-.752a.16.16 0 0 0-.047-.111.15.15 0 0 0-.107-.043h-.831q-.03-.001-.05.017m.029 2.15a.1.1 0 0 0-.029.017.1.1 0 0 0-.018.03l-.007.028v.896l.004.032q.006.015.018.029a.1.1 0 0 0 .028.017h.03l.895.008.025-.004q.015-.006.029-.018a.1.1 0 0 0 .025-.06v-.893a.1.1 0 0 0-.022-.061.1.1 0 0 0-.025-.014.1.1 0 0 0-.032-.008zm4.322-2.161a.2.2 0 0 0-.05.036.2.2 0 0 0-.037.05.2.2 0 0 0-.01.06v.9h-.986l-.025.007-.021.015-.011.017-.007.026v1.05H55.74a.08.08 0 0 0-.047.068v.82a.18.18 0 0 0 .047.118.17.17 0 0 0 .122.05h.774a.17.17 0 0 0 .122-.046.17.17 0 0 0 .046-.118l.007-.896h.993c.014 0 .036-.007.043-.018a.06.06 0 0 0 .018-.047V43.12l1.021.004q.015 0 .025-.011a.04.04 0 0 0 .01-.025v-.993l-.01-.021a.03.03 0 0 0-.018-.007h-.874c-.018 0-.04-.004-.057.007m4.228.036a.16.16 0 0 0-.047.118v.896l-.982.003a.07.07 0 0 0-.046.018.06.06 0 0 0-.014.047l-.004 1.039-1.021-.004q-.016 0-.029.011a.04.04 0 0 0-.01.025v1.01l.01.011h.007l.01.008h.886a.14.14 0 0 0 .1-.043.14.14 0 0 0 .043-.104v-.91l.979-.008c.018 0 .035-.01.046-.021a.07.07 0 0 0 .022-.047V43.12l1.039-.007a.086.086 0 0 0 .083-.082v-.789a.18.18 0 0 0-.18-.179H62.3a.17.17 0 0 0-.118.05zm4.3 2.132-.004.018v1q-.002.012.007.024l.022.008h.87a.14.14 0 0 0 .108-.058.2.2 0 0 0 .05-.132v-.681a.2.2 0 0 0-.046-.133.14.14 0 0 0-.108-.053h-.874q-.013-.002-.025.007m-8.564-.008a.1.1 0 0 0-.029.018.1.1 0 0 0-.022.036.1.1 0 0 0-.007.032v.868q0 .04.025.068.014.013.033.021a.1.1 0 0 0 .036.007h.867l.035-.007a.1.1 0 0 0 .03-.021.1.1 0 0 0 .02-.029.1.1 0 0 0 .008-.036l.003-.867a.1.1 0 0 0-.029-.068.1.1 0 0 0-.028-.018.1.1 0 0 0-.036-.01h-.867q-.022-.002-.04.007m6.414.015a.1.1 0 0 0-.025.06v.886c0 .021.007.046.021.064a.1.1 0 0 0 .061.025h.889a.086.086 0 0 0 .082-.086l.004-.888a.08.08 0 0 0-.025-.061.1.1 0 0 0-.058-.022H64.4a.08.08 0 0 0-.061.022m6.478-.018a.1.1 0 0 0-.05.043l-.003.036-.004.885q-.002.015.007.032.006.015.018.029a.1.1 0 0 0 .029.021h.029l.888.007a.1.1 0 0 0 .061-.025.1.1 0 0 0 .018-.028.1.1 0 0 0 .007-.033v-.885a.1.1 0 0 0-.021-.064.1.1 0 0 0-.065-.025h-.885q-.016-.002-.029.007M68.7 42.066a.12.12 0 0 0-.086.035.12.12 0 0 0-.028.083l.007.82q-.002.05.036.083c.021.021.05.036.082.036l.878-.011a.12.12 0 0 0 .118-.118l-.007-.82a.13.13 0 0 0-.036-.083.12.12 0 0 0-.086-.036zm-30.125 0h-.021l-.018.017-.01.018-.008.022v.935l.007.025q.002.012.014.018.01.01.022.014l.018.004h.939l.021-.007.022-.014.01-.018v-.961a.06.06 0 0 0-.014-.04l-.021-.013h-.022zm4.311 0a.1.1 0 0 0-.065.025.1.1 0 0 0-.028.064l.003.87a.09.09 0 0 0 .09.09h.935q.04 0 .068-.028a.1.1 0 0 0 .025-.065l-.003-.867a.1.1 0 0 0-.025-.072.1.1 0 0 0-.068-.021zm4.282 0h-.014l-.011.003-.007.014v.015l.003.989v.01l.008.011a.04.04 0 0 0 .025.011h.985l.01-.007a.03.03 0 0 0 .019-.018l.003-.01v-.99l-.007-.014-.007-.01-.01-.008h-.011zm4.304 0h-.022l-.021.017a.06.06 0 0 0-.015.036v.94q.002.012.008.024l.01.018q.01.01.022.014l.021.004h.94l.02-.007.022-.014.007-.018.007-.025v-.936l-.01-.021-.008-.018-.021-.014h-.022zm4.307 0a.1.1 0 0 0-.061.025.1.1 0 0 0-.025.064v.87c0 .022.01.051.029.065q.027.026.064.025h.935a.1.1 0 0 0 .061-.028.1.1 0 0 0 .025-.065v-.867a.1.1 0 0 0-.025-.072.1.1 0 0 0-.064-.021zm4.285 0h-.01l-.011.003-.007.014-.004.015v.989l.007.01.008.011.01.008.011.003h.986l.014-.007.01-.007.008-.011v-.007l-.004-.99v-.014l-.007-.01-.01-.007h-1m4.283 0a.04.04 0 0 0-.025.007.03.03 0 0 0-.011.021v.986c0 .01.007.018.01.025q.01.01.026.01h.985q.016 0 .025-.01a.04.04 0 0 0 .01-.025v-.986a.04.04 0 0 0-.014-.025c-.007-.003-.01-.01-.021-.01zm2.157.017a.08.08 0 0 0-.025.058v.892q-.001.035.025.057a.07.07 0 0 0 .057.025h.889q.015.002.032-.007.015-.006.029-.018a.1.1 0 0 0 .018-.028v-.953a.1.1 0 0 0-.018-.026.1.1 0 0 0-.029-.017.1.1 0 0 0-.032-.008h-.889a.1.1 0 0 0-.057.026m4.3-.021a.05.05 0 0 0-.036.014.05.05 0 0 0-.01.033v.96l.006.018c0 .007.008.01.011.014l.014.01.018.005h.96a.05.05 0 0 0 .047-.031l.004-.02-.004-.956-.003-.018-.011-.018-.014-.011zm2.175 0a.1.1 0 0 0-.047.05.1.1 0 0 0-.007.032v.886l.007.028q.014.034.047.05.015.007.032.008h.882q.036-.001.064-.026a.1.1 0 0 0 .014-.028.1.1 0 0 0 .008-.029v-.885a.1.1 0 0 0-.022-.065.1.1 0 0 0-.029-.017.1.1 0 0 0-.035-.008h-.878zm-43.043-6.425a.08.08 0 0 0-.022.054l-.007.978-.985.007a.07.07 0 0 0-.047.018.07.07 0 0 0-.014.047l-.004 1.039h-1.039l-.01.01-.008.011-.003.018v.99q0 .014.01.024t.022.011h1.021l.007 1.05-.992.007a.07.07 0 0 0-.043.018.07.07 0 0 0-.018.043l-.007 1.05h-1.05a.074.074 0 0 0-.076.072v.946q.001.015.011.025l.01.007.015.004h1.047q.014 0 .025-.011a.04.04 0 0 0 .01-.029v-1.014h.914a.15.15 0 0 0 .147-.143v-.971h1.014q.015 0 .025-.011a.04.04 0 0 0 .011-.025v-.986a.04.04 0 0 0-.01-.021.04.04 0 0 0-.03-.01h-1.017l.007-1.058.975-.007a.07.07 0 0 0 .046-.018.07.07 0 0 0 .022-.047l.007-1.039 1.068-.01c.014 0 .025 0 .036-.011a.05.05 0 0 0 .01-.029v-.96A.05.05 0 0 0 31 35.63a.05.05 0 0 0-.036-.014h-.982a.08.08 0 0 0-.053.025zm7.557 3.225a.07.07 0 0 0-.018.047l-.003.985-.99-.003a.13.13 0 0 0-.093.035.13.13 0 0 0-.035.093v.99l-.982.007a.07.07 0 0 0-.054.021.07.07 0 0 0-.021.05v.932q0 .017.01.029a.04.04 0 0 0 .029.014h.982a.04.04 0 0 0 .021-.01.04.04 0 0 0 .011-.026l.004-1.018h.985c.036 0 .072-.01.093-.035a.14.14 0 0 0 .036-.093v-.99h1.018a.036.036 0 0 0 .036-.035v-.986a.04.04 0 0 0-.008-.021.04.04 0 0 0-.025-.011h-.95a.1.1 0 0 0-.046.025m3.207-1.068a.04.04 0 0 0-.01.025v.99q0 .014.01.024t.025.011h1.021l.004 1.05h-.992a.07.07 0 0 0-.072.072v.9c0 .035.018.07.043.1a.15.15 0 0 0 .107.046h.753a.154.154 0 0 0 .15-.154l.008-.968h1.014a.036.036 0 0 0 .035-.035v-.993l-.01-.014-.015-.007-.014-.004-1.01.007-.004-.91a.15.15 0 0 0-.04-.107.15.15 0 0 0-.107-.044h-.874a.04.04 0 0 0-.022.011m5.336 1.057c-.007.004-.007.015-.007.022v1.018l-.918-.004a.14.14 0 0 0-.1.04.14.14 0 0 0-.04.1v.831a.154.154 0 0 0 .155.154h.749a.154.154 0 0 0 .154-.154v-.967l1.039-.004a.07.07 0 0 0 .05-.022.08.08 0 0 0 .021-.053v-.932c0-.01 0-.022-.01-.029a.04.04 0 0 0-.029-.01h-1.04a.04.04 0 0 0-.024.01m5.468 1.05a.1.1 0 0 0-.043.022.14.14 0 0 0-.036.09l-.007.863q0 .051.036.09a.14.14 0 0 0 .043.035.1.1 0 0 0 .05.004l.795.007a.13.13 0 0 0 .122-.079.1.1 0 0 0 .007-.05l.008-.86a.13.13 0 0 0-.13-.129l-.795-.003a.1.1 0 0 0-.05.01m6.446-.003a.1.1 0 0 0-.043.025.13.13 0 0 0-.035.093l-.008.86a.13.13 0 0 0 .125.129l.803.007a.14.14 0 0 0 .09-.036.14.14 0 0 0 .04-.093l.003-.86a.13.13 0 0 0-.036-.093.13.13 0 0 0-.09-.036l-.798-.003a.1.1 0 0 0-.05.007m4.279-.004a.1.1 0 0 0-.043.025.1.1 0 0 0-.025.04.1.1 0 0 0-.011.046l-.01.874c0 .018 0 .036.01.05a.1.1 0 0 0 .025.036.1.1 0 0 0 .04.03c.014.006.035.01.05.01l.777.007a.22.22 0 0 0 .154-.06.23.23 0 0 0 .065-.158l.007-.678a.2.2 0 0 0-.014-.082.23.23 0 0 0-.201-.143l-.778-.008a.1.1 0 0 0-.046.011m2.171.007a.1.1 0 0 0-.043.022.2.2 0 0 0-.028.043.1.1 0 0 0-.011.05v.86l.004.05a.1.1 0 0 0 .028.04.14.14 0 0 0 .043.035q.023.007.047.004l.799.007a.133.133 0 0 0 .133-.129l.003-.86a.13.13 0 0 0-.079-.118.1.1 0 0 0-.05-.01l-.8-.005a.1.1 0 0 0-.046.011m-38.714 0a.1.1 0 0 0-.032.018.1.1 0 0 0-.022.036.1.1 0 0 0-.007.032v.925q0 .038.029.071a.1.1 0 0 0 .071.026h.86q.042 0 .072-.03a.1.1 0 0 0 .025-.07v-.922q0-.04-.028-.068a.1.1 0 0 0-.03-.018.1.1 0 0 0-.039-.007h-.86a.1.1 0 0 0-.039.007m4.268-.003a.08.08 0 0 0-.04.04.1.1 0 0 0-.007.035l-.003.957q-.002.012.007.028a.08.08 0 0 0 .043.047h.028l.96.003q.014.002.026-.007a.08.08 0 0 0 .046-.043l.004-.028.004-.957q.002-.016-.008-.032l-.017-.022a.08.08 0 0 0-.054-.025zm4.336 0a.1.1 0 0 0-.03.014.1.1 0 0 0-.013.047l-.004.985q-.002.01.007.021a.07.07 0 0 0 .036.036l.021.008h.95a.1.1 0 0 0 .022-.018.07.07 0 0 0 .017-.05v-1.008l-.021-.017-.021-.015-.026-.007h-.946zm4.3 0a.1.1 0 0 0-.036.021.1.1 0 0 0-.022.04.1.1 0 0 0-.01.043v.895c0 .03.01.061.032.08q.03.031.075.035h.839a.1.1 0 0 0 .039-.01.1.1 0 0 0 .036-.026.1.1 0 0 0 .036-.075v-.9a.1.1 0 0 0-.033-.078.1.1 0 0 0-.075-.029l-.838-.003q-.023-.002-.043.007m4.264 0a.1.1 0 0 0-.025.021.1.1 0 0 0-.029.068v.928l.004.036q.007.015.021.025a.1.1 0 0 0 .029.022.1.1 0 0 0 .036.007l.931.003a.1.1 0 0 0 .068-.028.1.1 0 0 0 .022-.025.1.1 0 0 0 .007-.036v-.932a.1.1 0 0 0-.025-.068.1.1 0 0 0-.068-.028h-.932a.1.1 0 0 0-.04.007m4.354 0a.1.1 0 0 0-.036.021.12.12 0 0 0-.033.072v.914q-.002.02.008.035a.1.1 0 0 0 .021.036q.016.015.036.022a.1.1 0 0 0 .036.01h.849c.01 0 .025 0 .036-.007a.1.1 0 0 0 .036-.021.1.1 0 0 0 .021-.036.1.1 0 0 0 .01-.036v-.91q.001-.022-.006-.043a.1.1 0 0 0-.022-.032.12.12 0 0 0-.071-.029l-.85-.003c-.01 0-.025 0-.035.007m2.178-.004a.15.15 0 0 0-.1.036.2.2 0 0 0-.029.05.14.14 0 0 0-.01.054v.835l.01.053q.013.025.032.044a.14.14 0 0 0 .043.035.14.14 0 0 0 .054.008h.839c.018 0 .035 0 .053-.011a.14.14 0 0 0 .047-.032.14.14 0 0 0 .032-.044.2.2 0 0 0 .011-.057l-.004-.831a.2.2 0 0 0-.01-.057.14.14 0 0 0-.036-.047.2.2 0 0 0-.043-.029.1.1 0 0 0-.05-.01zm4.264 0-.028.025a.1.1 0 0 0-.025.036.1.1 0 0 0-.008.043l-.003.903q-.002.022.007.043a.1.1 0 0 0 .025.036q.016.012.036.018.019.01.04.01h.841c.011 0 .03 0 .04-.007a.1.1 0 0 0 .036-.025.1.1 0 0 0 .028-.071v-.907l-.003-.043-.025-.032a.12.12 0 0 0-.075-.029l-.843-.004c-.014 0-.028-.003-.043.004m2.186 0a.15.15 0 0 0-.1.036.14.14 0 0 0-.043.1v.839q.002.027.014.053t.032.044a.14.14 0 0 0 .043.035.14.14 0 0 0 .054.008h.835a.14.14 0 0 0 .054-.011.15.15 0 0 0 .075-.075.2.2 0 0 0 .01-.058v-.831a.14.14 0 0 0-.042-.1.14.14 0 0 0-.043-.036.2.2 0 0 0-.058-.008zm4.264 0a.1.1 0 0 0-.035.025.1.1 0 0 0-.018.036.1.1 0 0 0-.011.04v.906q-.002.022.007.043a.1.1 0 0 0 .022.036q.015.012.035.018.02.01.04.01h.842q.04 0 .072-.028.016-.015.025-.036a.1.1 0 0 0 .01-.04v-.906q.002-.02-.007-.036a.1.1 0 0 0-.021-.036.1.1 0 0 0-.036-.025.1.1 0 0 0-.043-.007l-.839-.003c-.014 0-.028-.004-.043.003m6.45 0a.1.1 0 0 0-.035.025.1.1 0 0 0-.026.036.1.1 0 0 0-.003.043l-.004.903.007.043a.1.1 0 0 0 .022.036q.016.012.036.018.02.01.043.01h.838q.022.002.043-.007a.1.1 0 0 0 .036-.025.1.1 0 0 0 .022-.036l.007-.035v-.907l-.004-.043-.025-.032a.12.12 0 0 0-.072-.029l-.845-.003a.1.1 0 0 0-.036.007zm2.118 0a.13.13 0 0 0-.068.065.1.1 0 0 0-.004.046l-.007.882q-.002.023.007.046a.1.1 0 0 0 .03.036.13.13 0 0 0 .086.04h.752a.25.25 0 0 0 .247-.244l.003-.624a.25.25 0 0 0-.071-.179.3.3 0 0 0-.08-.05.3.3 0 0 0-.092-.021l-.756-.004q-.024-.002-.047.007m4.332 0a.1.1 0 0 0-.035.025.1.1 0 0 0-.026.036.1.1 0 0 0-.007.04v.906l.004.043a.1.1 0 0 0 .025.036.1.1 0 0 0 .036.018.1.1 0 0 0 .036.01h.842a.1.1 0 0 0 .079-.028.1.1 0 0 0 .028-.075l.004-.907a.12.12 0 0 0-.029-.072.1.1 0 0 0-.036-.025.1.1 0 0 0-.04-.007l-.841-.003c-.014 0-.027-.002-.04.003m-17.278-2.089a.08.08 0 0 0-.026.054l-.003.795q.001.077.05.133a.18.18 0 0 0 .133.054l.752.007a.2.2 0 0 0 .072-.015.2.2 0 0 0 .057-.043.2.2 0 0 0 .054-.132l.003-.796a.1.1 0 0 0-.021-.053.08.08 0 0 0-.054-.022l-.967-.004a.07.07 0 0 0-.05.022m6.446 0a.08.08 0 0 0-.022.054l-.003.799a.2.2 0 0 0 .05.129.18.18 0 0 0 .125.054l.757.007a.2.2 0 0 0 .071-.015.19.19 0 0 0 .111-.172l.004-.799q0-.031-.022-.053a.1.1 0 0 0-.053-.022l-.964-.004a.08.08 0 0 0-.054.022m6.45 0a.08.08 0 0 0-.029.054v.795q.001.077.05.133a.18.18 0 0 0 .13.054l.755.007a.2.2 0 0 0 .072-.015.19.19 0 0 0 .111-.175l.004-.796q0-.031-.022-.053a.08.08 0 0 0-.053-.022l-.968-.004q-.015 0-.029.006c-.01.004-.014.009-.021.016m6.443 0a.1.1 0 0 0-.022.054v.795q.001.077.05.133a.18.18 0 0 0 .13.054l.752.007a.2.2 0 0 0 .072-.015.2.2 0 0 0 .057-.043.2.2 0 0 0 .043-.06.2.2 0 0 0 .014-.072v-.796a.1.1 0 0 0-.021-.053.08.08 0 0 0-.054-.022l-.967-.004a.08.08 0 0 0-.054.022m-27.89-.022-.02.011q-.012.006-.012.022l.004.996q-.002.01.007.021.011.01.025.011l.86-.003a.16.16 0 0 0 .111-.058.2.2 0 0 0 .05-.132v-.681a.2.2 0 0 0-.047-.136.18.18 0 0 0-.12-.054h-.857zm6.469.008a.1.1 0 0 0-.026.018.1.1 0 0 0-.021.025.1.1 0 0 0-.007.035v.886l.003.035q.009.015.022.026a.1.1 0 0 0 .025.017.1.1 0 0 0 .036.008h.881l.036-.004a.1.1 0 0 0 .043-.047.1.1 0 0 0 .007-.032v-.889l-.003-.032a.1.1 0 0 0-.018-.025.1.1 0 0 0-.061-.025l-.885-.004c-.01 0-.025 0-.036.008zm6.45 0a.1.1 0 0 0-.03.018.1.1 0 0 0-.024.057l-.004.885q.001.037.025.065.028.023.065.025H61l.036-.004a.1.1 0 0 0 .05-.047v-.92l-.004-.033a.1.1 0 0 0-.046-.043.1.1 0 0 0-.033-.007l-.881-.004q-.016-.002-.032.008m6.45 0a.1.1 0 0 0-.033.018.1.1 0 0 0-.018.025.1.1 0 0 0-.003.035l-.004.886q-.002.014.007.035.007.014.018.026a.1.1 0 0 0 .025.017.1.1 0 0 0 .036.008h.882l.032-.004q.015-.006.029-.018a.1.1 0 0 0 .018-.029.1.1 0 0 0 .007-.032v-.889l-.004-.032a.1.1 0 0 0-.018-.025.1.1 0 0 0-.028-.018.1.1 0 0 0-.033-.007l-.885-.004q-.014-.002-.028.008m6.4 0c-.004.007-.011.014-.011.025v.996a.04.04 0 0 0 .01.021q.01.01.022.011h.87a.14.14 0 0 0 .114-.058.2.2 0 0 0 .03-.06.2.2 0 0 0 .014-.072v-.68a.2.2 0 0 0-.043-.137.15.15 0 0 0-.114-.054h-.871q-.013 0-.022.008m-43.026 0q-.009.01-.007.025v.992q0 .015.01.025a.03.03 0 0 0 .019.008h.92a.2.2 0 0 0 .119-.036q.052-.034.05-.08v-.834a.1.1 0 0 0-.014-.043.19.19 0 0 0-.158-.072h-.92a.04.04 0 0 0-.019.015m4.347-2.172-.01.007-.004.011-.004.014v1.022l-1.046.003a.07.07 0 0 0-.065.064v1.04l-.989.01a.07.07 0 0 0-.05.019.07.07 0 0 0-.018.046v.889a.097.097 0 0 0 .093.097h.91a.05.05 0 0 0 .047-.031l.004-.02.003-1.007 1.043-.003a.07.07 0 0 0 .047-.022.07.07 0 0 0 .021-.046v-1.04h.917a.14.14 0 0 0 .1-.039.14.14 0 0 0 .037-.097v-.892l-.004-.021-.022-.007h-1zm-.007 2.172a.04.04 0 0 0-.007.025v.992q-.002.015.007.025a.03.03 0 0 0 .021.008h.86a.16.16 0 0 0 .119-.054.2.2 0 0 0 .046-.133v-.684a.2.2 0 0 0-.046-.136.16.16 0 0 0-.115-.05h-.86q-.015-.002-.025.007m2.15 0a.1.1 0 0 0-.029.018l-.018.021a.1.1 0 0 0-.007.036v.889l.007.035q.007.014.018.026a.1.1 0 0 0 .029.017.1.1 0 0 0 .032.008h.946l.036-.008a.08.08 0 0 0 .046-.043.1.1 0 0 0 0-.035v-.921a.1.1 0 0 0-.021-.025.08.08 0 0 0-.057-.026h-.95q-.016-.002-.032.008m2.135.007a.04.04 0 0 0-.017.036v.953q.001.02.017.036c.008.007.022.018.036.018h.95q.02-.002.036-.018.017-.016.018-.036v-.957c0-.01-.008-.025-.018-.036a.05.05 0 0 0-.036-.01h-.953l-.02.003q-.007.004-.013.01m4.308-.007a.1.1 0 0 0-.026.018.08.08 0 0 0-.025.05l.004.906.004.029q.006.015.017.025a.1.1 0 0 0 .026.018h.996a.08.08 0 0 0 .05-.022.08.08 0 0 0 .025-.053l-.007-.907-.004-.028a.1.1 0 0 0-.018-.022.1.1 0 0 0-.025-.018l-.025-.004h-.967zm2.142.007a.06.06 0 0 0-.017.036v.953c0 .014.007.029.017.036q.015.015.036.018h.95a.05.05 0 0 0 .036-.015.06.06 0 0 0 .018-.036v-.956a.06.06 0 0 0-.018-.036.05.05 0 0 0-.036-.015h-.953a.05.05 0 0 0-.033.015m4.29.018a.1.1 0 0 0-.033.071v.843a.11.11 0 0 0 .108.11h.903q.023 0 .043-.01a.1.1 0 0 0 .036-.022.1.1 0 0 0 .021-.035.1.1 0 0 0 .011-.044v-.838c0-.014-.007-.025-.01-.036a.1.1 0 0 0-.022-.036.1.1 0 0 0-.036-.025.1.1 0 0 0-.043-.007h-.903a.1.1 0 0 0-.075.029m2.19-.029a.1.1 0 0 0-.026.018.1.1 0 0 0-.018.022.1.1 0 0 0-.007.035v.889l.004.036a.08.08 0 0 0 .043.046q.015.003.032 0l.892.008.032-.008q.015-.006.029-.017a.1.1 0 0 0 .014-.03.1.1 0 0 0 .007-.031l.004-.89q.002-.017-.007-.035l-.015-.021a.1.1 0 0 0-.028-.018.1.1 0 0 0-.032-.008l-.89-.003q-.017-.002-.035.007m12.9 0a.08.08 0 0 0-.047.043.1.1 0 0 0-.008.036v.885l.004.036q.006.015.018.025a.1.1 0 0 0 .029.018.1.1 0 0 0 .032.007h.888l.03-.004q.016-.006.028-.017a.1.1 0 0 0 .018-.03.1.1 0 0 0 .007-.031l.003-.89q.002-.017-.007-.035a.08.08 0 0 0-.046-.04.1.1 0 0 0-.029-.007l-.889-.003c-.01 0-.018 0-.032.007m6.45 0a.1.1 0 0 0-.051.047l-.004.028-.003.889q-.002.015.007.036.006.015.018.025a.1.1 0 0 0 .057.025h.889a.1.1 0 0 0 .06-.022.1.1 0 0 0 .019-.028.1.1 0 0 0 .007-.032v-.89l-.004-.031a.1.1 0 0 0-.018-.025.1.1 0 0 0-.064-.026l-.885-.003q-.017-.002-.029.007m6.442 0a.1.1 0 0 0-.025.018.1.1 0 0 0-.025.057l-.004.889q-.002.015.007.036a.1.1 0 0 0 .043.043.1.1 0 0 0 .036.007h.885l.036-.004a.1.1 0 0 0 .025-.017.1.1 0 0 0 .025-.061v-.89l-.003-.031a.1.1 0 0 0-.018-.025.1.1 0 0 0-.029-.018.1.1 0 0 0-.032-.008l-.889-.003q-.015-.002-.032.007m-19.343 0a.1.1 0 0 0-.029.018.08.08 0 0 0-.025.06v.886l.004.036q.009.015.021.025a.1.1 0 0 0 .025.018.1.1 0 0 0 .033.007h.892l.032-.004a.1.1 0 0 0 .025-.021.1.1 0 0 0 .018-.025.1.1 0 0 0 .007-.032v-.893q.002-.015-.007-.032a.1.1 0 0 0-.043-.043l-.036-.004-.885-.003q-.015-.002-.032.007m-2.11-2.168a.12.12 0 0 0-.119.118l.007.825c0 .032.018.057.036.078.025.022.05.036.083.036l.881-.007a.12.12 0 0 0 .083-.036.1.1 0 0 0 .025-.036.1.1 0 0 0 .007-.046l-.007-.824a.12.12 0 0 0-.036-.08.12.12 0 0 0-.083-.035zm12.896 0a.12.12 0 0 0-.086.036.12.12 0 0 0-.029.082l.007.821a.12.12 0 0 0 .119.118l.878-.007a.12.12 0 0 0 .118-.122l-.007-.813a.12.12 0 0 0-.122-.122zm-32.322.018a.1.1 0 0 0-.028.061l-.008.889q.002.032.026.053a.08.08 0 0 0 .06.026l.954.007q.032-.003.053-.025a.08.08 0 0 0 .025-.054v-.896a.08.08 0 0 0-.017-.054.1.1 0 0 0-.061-.025l-.95-.007a.07.07 0 0 0-.054.025m4.365-.018a.1.1 0 0 0-.029.018.1.1 0 0 0-.025.065v.878a.1.1 0 0 0 .05.082.1.1 0 0 0 .036.007l.878.004q.015.002.032-.008a.1.1 0 0 0 .025-.021.1.1 0 0 0 .022-.025.1.1 0 0 0 .007-.036l.003-.878c0-.01 0-.025-.007-.036a.1.1 0 0 0-.046-.046.1.1 0 0 0-.036-.007h-.874zm8.528.018a.1.1 0 0 0-.025.061l-.004.889q0 .032.022.053.023.026.06.026l.95.007q.034-.001.058-.025a.1.1 0 0 0 .025-.054l.007-.896a.09.09 0 0 0-.086-.079l-.953-.007a.08.08 0 0 0-.054.025m2.197-.014a.1.1 0 0 0-.029.018.1.1 0 0 0-.025.064v.878l.004.032.017.029q.028.024.065.025l.881.004q.017.002.033-.008a.1.1 0 0 0 .028-.017.1.1 0 0 0 .018-.03.1.1 0 0 0 .007-.035l.004-.874q.002-.021-.007-.036a.1.1 0 0 0-.047-.047.1.1 0 0 0-.032-.007h-.882zm6.45 0a.1.1 0 0 0-.05.046.1.1 0 0 0-.008.036v.878q.002.035.025.061.028.024.065.025l.878.004q.035-.002.06-.025.015-.012.019-.03a.1.1 0 0 0 .007-.035l.003-.874q.002-.021-.007-.036a.1.1 0 0 0-.018-.029.1.1 0 0 0-.064-.025h-.874zm6.45 0-.033.018a.1.1 0 0 0-.017.028.1.1 0 0 0-.008.036v.878l.004.032.018.029c.007.01.021.014.032.018q.015.006.032.007l.882.004q.016.002.029-.008c.01 0 .025-.007.035-.017l.015-.03a.1.1 0 0 0 .007-.035l.003-.874q.002-.021-.007-.036a.1.1 0 0 0-.018-.029l-.032-.018a.1.1 0 0 0-.029-.007H64.4zm6.446 0a.1.1 0 0 0-.029.018.1.1 0 0 0-.017.028.1.1 0 0 0-.008.036l-.003.878q-.002.016.007.032l.018.029q.027.024.064.025l.878.004q.016.002.036-.008a.1.1 0 0 0 .054-.082v-.874l-.004-.036a.1.1 0 0 0-.05-.047.1.1 0 0 0-.036-.007h-.878l-.035.004zm6.45 0a.1.1 0 0 0-.05.046.1.1 0 0 0-.007.036l-.004.878a.1.1 0 0 0 .054.079.1.1 0 0 0 .036.007l.878.004a.1.1 0 0 0 .064-.025l.018-.03a.1.1 0 0 0 .007-.035v-.874l-.003-.036a.1.1 0 0 0-.018-.029.1.1 0 0 0-.064-.025h-.882zm-38.707 0-.018.007-.014.021-.004.022-.003.942.007.018a.02.02 0 0 0 .01.018l.018.014.022.004h.942a.06.06 0 0 0 .036-.014l.014-.018.008-.022v-.946a.05.05 0 0 0-.015-.035l-.021-.018h-.982zm4.293 0a.1.1 0 0 0-.029.018.1.1 0 0 0-.018.028.1.1 0 0 0-.007.033v.888l.007.032q.008.013.018.022a.1.1 0 0 0 .029.022l.032.003h.95q.014.002.035-.007a.1.1 0 0 0 .022-.018.1.1 0 0 0 .021-.025v-.921l-.003-.032a.08.08 0 0 0-.047-.043.1.1 0 0 0-.032-.007h-.946zm2.114 1.01a.036.036 0 0 0 .036.036h.989q.015 0 .025-.01c.003-.004.01-.011.01-.022v-.95a.07.07 0 0 0-.046-.066.1.1 0 0 0-.029-.005h-.982zm8.643-.996a.1.1 0 0 0-.025.061v.889a.07.07 0 0 0 .025.057.07.07 0 0 0 .057.025h.889a.086.086 0 0 0 .082-.082v-.889a.085.085 0 0 0-.086-.086h-.885a.1.1 0 0 0-.057.025m6.475-.018a.1.1 0 0 0-.025.018.1.1 0 0 0-.018.029.1.1 0 0 0-.007.032l-.004.885c0 .01 0 .025.007.036a.09.09 0 0 0 .083.05h.914l.025-.025a.1.1 0 0 0 .021-.025.1.1 0 0 0 .007-.036v-.878l-.014-.036a.1.1 0 0 0-.047-.05.1.1 0 0 0-.032-.007h-.885l-.032.007zm2.261-.007a.24.24 0 0 0-.144.051.18.18 0 0 0-.064.135v.8c0 .017.015.035.029.05a.07.07 0 0 0 .05.021h.968q.011.002.028-.007a.1.1 0 0 0 .022-.018l.018-.021a.1.1 0 0 0 .007-.036v-.796a.18.18 0 0 0-.061-.129.22.22 0 0 0-.147-.054zm4.157.025a.1.1 0 0 0-.022.061v.889a.07.07 0 0 0 .025.057.07.07 0 0 0 .058.025h.888a.1.1 0 0 0 .061-.025.1.1 0 0 0 .022-.057v-.889a.08.08 0 0 0-.022-.06.1.1 0 0 0-.06-.026h-.89a.1.1 0 0 0-.057.025zm6.45 0a.1.1 0 0 0-.025.061v.892q.001.033.025.054a.07.07 0 0 0 .057.025h.892a.08.08 0 0 0 .058-.025.08.08 0 0 0 .021-.054v-.896a.1.1 0 0 0-.021-.057.08.08 0 0 0-.058-.025h-.896a.08.08 0 0 0-.053.025m2.286-.025a.22.22 0 0 0-.143.054.2.2 0 0 0-.047.06.2.2 0 0 0-.014.072v.8q.001.026.025.05a.08.08 0 0 0 .053.021h.968l.025-.007a.1.1 0 0 0 .029-.018c.007-.004.01-.014.014-.021a.1.1 0 0 0 .007-.036l-.003-.796a.18.18 0 0 0-.061-.129.22.22 0 0 0-.144-.054zm4.164.025a.1.1 0 0 0-.025.065v.885c0 .021.01.043.025.057a.08.08 0 0 0 .06.025h.882a.1.1 0 0 0 .061-.025.1.1 0 0 0 .025-.057v-.885a.1.1 0 0 0-.025-.065.1.1 0 0 0-.06-.025h-.882a.1.1 0 0 0-.061.025m-32.24-.017a.03.03 0 0 0-.018.018v1.01l.007.011.01.008h1.015l.01-.008.008-.01v-1.01l-.007-.012-.011-.007zm-10.782-2.136a.12.12 0 0 0-.036.083v1.003l-.975.004a.073.073 0 0 0-.075.075v.932q0 .016.01.028.014.01.03.011h.995l.008-.01q.006 0 .007-.011l.003-.011V34.57l1.018-.007q.041 0 .072-.029a.1.1 0 0 0 .032-.071v-.907a.12.12 0 0 0-.036-.075.12.12 0 0 0-.079-.036h-.888a.13.13 0 0 0-.086.04m4.404-.025a.2.2 0 0 0-.054.036.2.2 0 0 0-.032.047.2.2 0 0 0-.015.057l.004.968h-1.04a.07.07 0 0 0-.053.021c-.014.014-.018.036-.018.054v.946c0 .007 0 .018.007.021q.011.01.025.011h1.05a.04.04 0 0 0 .022-.01c.007-.004.007-.015.007-.022V34.56h.924c.036 0 .072-.01.097-.035a.13.13 0 0 0 .036-.094v-.834a.157.157 0 0 0-.158-.154h-.749c-.018 0-.035 0-.053.01zm4.228.033a.14.14 0 0 0-.043.1v.968h-1.021l-.015.003-.01.007-.008.015-.003.014v1l.01.01q0 .007.011.008l.015.003h1.017v-1.053l.896.003a.16.16 0 0 0 .161-.161v-.817a.143.143 0 0 0-.143-.143h-.774a.14.14 0 0 0-.1.043zm4.278 0a.16.16 0 0 0-.046.114v.968h-.978a.08.08 0 0 0-.07.046.1.1 0 0 0-.006.03v.93c0 .011 0 .022.011.03.007.007.022.01.032.01h.975a.036.036 0 0 0 .036-.036v-1.01l1.003-.004a.11.11 0 0 0 .083-.036.12.12 0 0 0 .035-.078v-.81a.2.2 0 0 0-.06-.144.2.2 0 0 0-.144-.053h-.76a.15.15 0 0 0-.11.043m6.447-.008a.14.14 0 0 0-.043.1l-.004.836a.16.16 0 0 0 .036.104.14.14 0 0 0 .104.035l.835.008a.16.16 0 0 0 .104-.04.14.14 0 0 0 .036-.1l.007-.839a.14.14 0 0 0-.085-.128.14.14 0 0 0-.055-.011l-.838-.004a.16.16 0 0 0-.097.04m-21.454-.035-.021.018a.1.1 0 0 0-.018.025v.021l-.004.978a.08.08 0 0 0 .043.065l.026.004.913.003q.015 0 .029-.007l.025-.01a.1.1 0 0 0 .014-.026v-.032l.004-.975a.1.1 0 0 0-.018-.046l-.021-.018-.03-.004-.913-.004q-.015.001-.029.008m4.311 0a.1.1 0 0 0-.036.028.1.1 0 0 0-.025.036.1.1 0 0 0-.01.047l-.004.885.01.043a.12.12 0 0 0 .062.064q.022.008.046.008l.82.003q.023.002.044-.007a.13.13 0 0 0 .068-.065.1.1 0 0 0 .007-.043v-.928a.13.13 0 0 0-.068-.064.1.1 0 0 0-.04-.004l-.824-.003q-.023-.002-.046.007zm4.271 0a.1.1 0 0 0-.035.025.1.1 0 0 0-.022.036.1.1 0 0 0-.01.039v.907a.12.12 0 0 0 .028.071q.015.016.036.025a.1.1 0 0 0 .036.008l.91.003a.12.12 0 0 0 .075-.029l.025-.035a.1.1 0 0 0 .007-.036v-.91l-.003-.043a.1.1 0 0 0-.025-.036.1.1 0 0 0-.072-.025l-.91-.004c-.01 0-.029-.004-.04.004m4.318.007a.1.1 0 0 0-.025.018.1.1 0 0 0-.014.025l-.007.025v.967a.08.08 0 0 0 .025.054.1.1 0 0 0 .025.015q.014.005.029.003h.903c.007 0 .018 0 .025-.007l.025-.01a.1.1 0 0 0 .018-.03l.007-.028v-.968l-.01-.028c0-.011-.008-.018-.015-.025l-.025-.015a.1.1 0 0 0-.029-.007h-.906q-.015 0-.03.007zm4.318-.004a.13.13 0 0 0-.071.072.1.1 0 0 0-.011.046l-.004.86a.133.133 0 0 0 .13.13l.795.003a.13.13 0 0 0 .129-.129l.007-.86a.14.14 0 0 0-.036-.09.13.13 0 0 0-.093-.039l-.795-.004a.1.1 0 0 0-.05.011m2.15 0a.12.12 0 0 0-.057.065.06.06 0 0 0-.01.036v.903l.01.043a.1.1 0 0 0 .021.035.12.12 0 0 0 .076.03h.842q.044 0 .075-.03a.1.1 0 0 0 .032-.078v-.9a.1.1 0 0 0-.032-.072.1.1 0 0 0-.075-.035h-.842a.1.1 0 0 0-.043.01zm4.297 0a.14.14 0 0 0-.072.065.14.14 0 0 0-.01.053v.86c0 .033.006.069.035.094a.13.13 0 0 0 .086.035l.803.004c.018 0 .036 0 .05-.01a.1.1 0 0 0 .04-.022.13.13 0 0 0 .039-.093l.003-.86a.13.13 0 0 0-.125-.13l-.8-.007a.1.1 0 0 0-.05.011m2.193-.003a.1.1 0 0 0-.075.032.1.1 0 0 0-.036.075v.903q.002.02.014.036a.1.1 0 0 0 .022.036q.015.015.035.025a.1.1 0 0 0 .04.007h.838a.107.107 0 0 0 .108-.107v-.9q.002-.022-.007-.043a.1.1 0 0 0-.026-.036.1.1 0 0 0-.035-.018.1.1 0 0 0-.04-.01zm2.046.043a.17.17 0 0 0-.047.114l-.003.789q.002.07.046.118a.17.17 0 0 0 .118.047l.789.003a.16.16 0 0 0 .118-.043.17.17 0 0 0 .047-.118l.003-.789a.17.17 0 0 0-.05-.114.17.17 0 0 0-.115-.05l-.788-.004a.16.16 0 0 0-.118.047m2.21-.04a.14.14 0 0 0-.07.065.14.14 0 0 0-.012.053l-.007.86c0 .033.014.069.036.094a.16.16 0 0 0 .093.035l.8.004c.017 0 .035 0 .05-.01a.1.1 0 0 0 .039-.022.13.13 0 0 0 .04-.093l.006-.86a.13.13 0 0 0-.129-.13l-.799-.007a.1.1 0 0 0-.046.011" clip-rule="evenodd"/></g><defs><clipPath id="a"><path fill="#fff" d="M17 17h86v86H17z"/></clipPath></defs></svg>