<svg width="120" height="120" viewBox="0 0 120 120" fill="none" xmlns="http://www.w3.org/2000/svg">
<g clip-path="url(#clip0_35_26668)">
<path d="M102 59.5C102 36.5802 83.4198 18 60.5 18C37.5802 18 19 36.5802 19 59.5C19 82.4198 37.5802 101 60.5 101C83.4198 101 102 82.4198 102 59.5Z" fill="url(#paint0_linear_35_26668)"/>
<path d="M83.6797 76.2572C83.32 75.8976 82.9143 75.6102 82.4817 75.3971C82.4775 75.3944 82.4727 75.3923 82.4682 75.3902C81.4542 74.9016 80.7546 73.8644 80.7546 72.663C80.7546 72.1504 80.8819 71.6673 81.107 71.2444C81.134 71.1939 81.163 71.1434 81.1928 71.0943C81.1948 71.0922 81.1962 71.0901 81.1969 71.0874C83.201 67.564 84.3447 63.488 84.3447 59.145C84.3447 45.7802 73.5097 34.9458 60.1447 34.9458C57.6183 34.9458 55.1816 35.3333 52.892 36.0516C49.1214 37.2349 45.748 39.3164 43.0229 42.0449C43.0153 42.0518 43.007 42.0601 42.9994 42.0677L42.9987 42.0684C41.6576 43.415 40.4736 44.9187 39.4779 46.5497C39.0329 47.2777 38.6253 48.0312 38.2586 48.8077C36.775 51.9423 35.9453 55.4467 35.9453 59.145C35.9453 69.7234 42.7323 78.7164 52.1889 82.007C54.6808 82.874 57.3572 83.3451 60.1447 83.3451C62.7692 83.3451 65.2965 82.9273 67.6631 82.1551C69.2006 81.6526 70.6704 81 72.0552 80.216C72.0579 80.2146 72.0607 80.2132 72.0635 80.2111C72.1305 80.1689 72.199 80.1295 72.2682 80.0936C72.9574 79.7325 73.7331 79.6626 74.4431 79.8501C75.1559 80.0382 75.803 80.4868 76.2276 81.1601C76.2875 81.2542 76.3407 81.3496 76.3885 81.4471C76.3926 81.4568 76.3974 81.4665 76.4023 81.4762C76.616 81.9088 76.903 82.3141 77.2631 82.6742C77.6179 83.029 78.0173 83.3129 78.4427 83.5252C80.1418 84.375 82.2624 84.0914 83.6797 82.6742C85.4517 80.9018 85.4521 78.0296 83.6797 76.2572ZM73.5789 66.1011C72.9187 67.3745 72.0828 68.5417 71.1031 69.5705C68.3482 72.4658 64.4572 74.2708 60.1447 74.2708C58.1046 74.2708 56.1596 73.8672 54.3838 73.135C48.8881 70.8688 45.02 65.4589 45.02 59.1454C45.02 57.272 45.3605 55.4785 45.9832 53.8234C46.0095 53.7542 46.0358 53.6847 46.0628 53.6162C47.873 49.0098 51.8783 45.5063 56.7908 44.3936C57.8694 44.1493 58.9916 44.0206 60.1447 44.0206C68.4983 44.0206 75.2693 50.7924 75.2693 59.1454C75.2693 61.653 74.6589 64.0189 73.5789 66.1011Z" fill="url(#paint1_linear_35_26668)"/>
<path d="M67.6631 82.1553C65.2965 82.9275 62.7695 83.3457 60.1447 83.3457C46.7798 83.3457 35.9453 72.5114 35.9453 59.1456C35.9453 54.5315 37.2366 50.219 39.4779 46.5502C40.4737 44.9191 41.6576 43.4154 42.9987 42.0688L42.9994 42.0682C43.007 42.0605 43.0153 42.0523 43.023 42.0453C44.2955 40.8358 46.3085 40.8552 47.5568 42.1035C48.8253 43.3725 48.8253 45.4291 47.5568 46.6976C47.5361 46.719 47.514 46.7384 47.4925 46.7592C43.6361 50.581 41.2474 55.8823 41.2474 61.7408C41.2474 73.3895 50.6902 82.8331 62.339 82.8331C64.1781 82.8328 65.9623 82.5976 67.6631 82.1553Z" fill="url(#paint2_linear_35_26668)"/>
<g opacity="0.6">
<path opacity="0.2" d="M62.3395 82.8324C62.3395 82.8708 62.3083 82.9019 62.2699 82.9019C56.6436 82.8839 51.3568 80.6844 47.3765 76.7039C43.3798 72.7071 41.1787 67.393 41.1787 61.7407C41.1787 58.8672 41.7446 56.0808 42.8606 53.459C43.9387 50.9265 45.4808 48.6558 47.4443 46.7099L47.4705 46.6852C47.483 46.6735 47.4957 46.6618 47.5077 46.6493C48.7317 45.4254 48.7476 43.4446 47.5562 42.2011C47.53 42.1738 47.5299 42.1309 47.5567 42.1042C47.584 42.0768 47.6288 42.0768 47.6555 42.1047C48.8993 43.4023 48.883 45.4698 47.6063 46.7464C47.5934 46.7598 47.5791 46.7731 47.5648 46.7865L47.5412 46.8088C43.5277 50.7863 41.3171 56.0894 41.3171 61.7407C41.3171 73.3098 50.7104 82.7262 62.2706 82.7635C62.3087 82.7635 62.3395 82.7943 62.3395 82.8324Z" fill="url(#paint3_linear_35_26668)"/>
</g>
<path d="M66.1164 69.6478C68.6227 69.6478 70.6541 67.6163 70.6541 65.1104C70.6541 62.6045 68.6227 60.5728 66.1164 60.5728C63.6105 60.5728 61.5791 62.6045 61.5791 65.1104C61.5791 67.6163 63.6105 69.6478 66.1164 69.6478Z" fill="url(#paint4_linear_35_26668)"/>
<path d="M83.7214 82.6328C81.9535 84.4463 79.0492 84.4602 77.264 82.6743C76.904 82.3143 76.617 81.9089 76.4029 81.4763C76.3981 81.4666 76.3932 81.4569 76.3891 81.4473C76.3414 81.3497 76.2881 81.2543 76.2286 81.1602C75.8039 80.4869 75.1569 80.0383 74.4441 79.8502C74.3542 79.8225 74.2643 79.7935 74.1758 79.7623C73.2724 79.4452 72.4248 78.9265 71.7037 78.2054C70.2734 76.775 69.6377 74.8512 69.7968 72.9823C69.9186 71.5581 70.5366 70.2281 71.4824 69.1577C73.84 66.49 75.2703 62.9853 75.2703 59.1451C75.2703 56.955 74.8045 54.8738 73.9672 52.9948C71.7667 48.057 66.9976 44.5155 61.3571 44.0691C60.9573 44.0366 60.553 44.0207 60.1456 44.0207C55.9804 44.0207 52.2093 45.7043 49.4738 48.4279C51.2259 46.6544 51.219 43.7958 49.4544 42.0312C47.6989 40.2756 44.8638 40.259 43.0889 41.9807C43.0999 41.9696 43.111 41.9585 43.1221 41.9482C44.333 40.7497 45.6693 39.6778 47.1107 38.754C49.5361 37.1998 52.2576 36.067 55.1708 35.4574C56.7112 35.1356 58.3048 34.9605 59.9368 34.9467C70.5545 34.8574 79.6652 41.6707 82.9949 51.1765C83.8591 53.6419 84.3339 56.2882 84.3457 59.0421C84.3637 63.4238 83.2176 67.5364 81.1979 71.0875C81.1972 71.0902 81.1958 71.0923 81.1938 71.0944C81.164 71.1435 81.135 71.194 81.108 71.2445C80.8829 71.6674 80.7556 72.1506 80.7556 72.6631C80.7556 73.8645 81.4552 74.9017 82.4688 75.3903C82.4737 75.3924 82.4785 75.3945 82.4827 75.3972C82.9444 75.6248 83.3749 75.9364 83.7519 76.3299C85.4312 78.0851 85.4167 80.8936 83.7214 82.6328Z" fill="url(#paint5_linear_35_26668)"/>
<path d="M83.721 82.6327C81.9531 84.4466 79.0488 84.4604 77.2636 82.6742C76.9036 82.3145 76.6165 81.9089 76.4028 81.4766C76.3979 81.4665 76.3931 81.4569 76.389 81.4472C76.3412 81.3497 76.288 81.2542 76.2285 81.1601C75.8035 80.4868 75.1564 80.0386 74.4436 79.8501C74.3537 79.8225 74.2638 79.7934 74.1753 79.7623C72.812 78.6629 71.891 77.0229 71.7562 75.1385C71.6258 73.3243 72.2493 71.6307 73.3595 70.3632C76.5294 66.7095 78.448 61.9415 78.448 56.7249C78.448 45.2261 69.1264 35.9051 57.6278 35.9051C53.7915 35.9051 50.1966 36.9431 47.1104 38.754C50.818 36.3784 55.2163 34.9868 59.9363 34.9467C73.3083 34.8339 84.2892 45.6703 84.3452 59.0424C84.3632 63.4237 83.2174 67.5364 81.1974 71.0877C81.1967 71.0905 81.1953 71.0926 81.1933 71.0947C81.1635 71.1438 81.1345 71.1943 81.1075 71.2448C80.8827 71.6674 80.7554 72.1505 80.7554 72.6634C80.7554 73.8644 81.4551 74.9019 82.4687 75.3903C82.4735 75.3923 82.4784 75.3944 82.4825 75.3972C82.9439 75.6251 83.3744 75.9363 83.7514 76.3302C85.4311 78.085 85.4166 80.8938 83.721 82.6327Z" fill="url(#paint6_linear_35_26668)"/>
<g opacity="0.6">
<path opacity="0.2" d="M71.7586 75.1384C71.7347 75.1401 71.7136 75.1221 71.7122 75.0979C71.5977 73.347 72.1711 71.6572 73.329 70.3348C76.6037 66.5603 78.4072 61.727 78.4072 56.7248C78.4072 45.2828 69.1098 35.9714 57.6728 35.9482C57.6489 35.9481 57.6299 35.929 57.6299 35.9053C57.6299 35.8814 57.6492 35.862 57.6731 35.8621C60.4744 35.8677 63.1919 36.4192 65.7507 37.5015C68.2352 38.5522 70.4665 40.0565 72.3824 41.9725C74.2984 43.8884 75.8027 46.1196 76.8537 48.6039C77.9417 51.176 78.4933 53.9084 78.4933 56.7248C78.4933 59.2812 78.0361 61.7778 77.1349 64.1454C76.2641 66.4324 75.0052 68.534 73.394 70.3911C72.251 71.6967 71.6852 73.3646 71.798 75.0927C71.7997 75.1163 71.7821 75.1367 71.7586 75.1384Z" fill="url(#paint7_linear_35_26668)"/>
</g>
</g>
<defs>
<linearGradient id="paint0_linear_35_26668" x1="13.9557" y1="31.9694" x2="111.196" y2="64.0515" gradientUnits="userSpaceOnUse">
<stop stop-color="#24ABF7"/>
<stop offset="1" stop-color="#2879FB"/>
</linearGradient>
<linearGradient id="paint1_linear_35_26668" x1="90.4701" y1="34.9463" x2="49.3393" y2="42.1052" gradientUnits="userSpaceOnUse">
<stop stop-color="#A1D6FF"/>
<stop offset="1" stop-color="#FEFEFF"/>
</linearGradient>
<linearGradient id="paint2_linear_35_26668" x1="71.1937" y1="41.1528" x2="44.2595" y2="44.6765" gradientUnits="userSpaceOnUse">
<stop stop-color="#A1D6FF"/>
<stop offset="1" stop-color="#FEFEFF"/>
</linearGradient>
<linearGradient id="paint3_linear_35_26668" x1="39.262" y1="44.5546" x2="61.2601" y2="86.5511" gradientUnits="userSpaceOnUse">
<stop stop-color="white"/>
<stop offset="0.5251" stop-color="white"/>
<stop offset="1" stop-color="white"/>
</linearGradient>
<linearGradient id="paint4_linear_35_26668" x1="71.6643" y1="60.5731" x2="64.0567" y2="61.8969" gradientUnits="userSpaceOnUse">
<stop stop-color="#A1D6FF"/>
<stop offset="1" stop-color="#FEFEFF"/>
</linearGradient>
<linearGradient id="paint5_linear_35_26668" x1="89.6677" y1="34.9463" x2="54.2495" y2="40.2125" gradientUnits="userSpaceOnUse">
<stop stop-color="#A1D6FF"/>
<stop offset="1" stop-color="#FEFEFF"/>
</linearGradient>
<linearGradient id="paint6_linear_35_26668" x1="81.0771" y1="33.0437" x2="58.5657" y2="53.9776" gradientUnits="userSpaceOnUse">
<stop stop-color="#A1D6FF"/>
<stop offset="1" stop-color="#FEFEFF"/>
</linearGradient>
<linearGradient id="paint7_linear_35_26668" x1="60.6874" y1="29.0077" x2="79.4617" y2="74.3644" gradientUnits="userSpaceOnUse">
<stop stop-color="white"/>
<stop offset="0.5251" stop-color="white"/>
<stop offset="1" stop-color="white"/>
</linearGradient>
<clipPath id="clip0_35_26668">
<rect width="83" height="83" fill="white" transform="translate(19 18)"/>
</clipPath>
</defs>
</svg>
