<svg width="120" height="120" viewBox="0 0 120 120" fill="none" xmlns="http://www.w3.org/2000/svg">
<g clip-path="url(#clip0_35_21311)">
<path d="M86.2372 18H34.7628C26.0572 18 19 25.0572 19 33.7628V85.2372C19 93.9428 26.0572 101 34.7628 101H86.2372C94.9428 101 102 93.9428 102 85.2372V33.7628C102 25.0572 94.9428 18 86.2372 18Z" fill="black"/>
<path d="M88.6105 81.444H32.5984C31.4362 81.444 30.4941 82.3863 30.4941 83.5483V87.9664C30.4941 89.1284 31.4362 90.0704 32.5984 90.0704H88.6105C89.7728 90.0704 90.7149 89.1284 90.7149 87.9664V83.5483C90.7149 82.3863 89.7728 81.444 88.6105 81.444Z" fill="white"/>
<path d="M49.1922 72.4368C48.8553 72.4368 48.5706 72.1894 48.5183 71.8525C46.3242 57.3477 44.7366 56.0672 30.3367 53.8957C29.8949 53.8282 29.5654 53.4464 29.5654 52.9971C29.5654 52.5478 29.8949 52.166 30.3367 52.0985C44.6617 49.9344 45.9348 48.654 48.0989 34.3364C48.1664 33.8945 48.5482 33.5651 48.9975 33.5651C49.4468 33.5651 49.8286 33.8945 49.8961 34.3364C52.0602 48.654 53.3406 49.9344 67.6584 52.0985C68.0999 52.166 68.4294 52.5478 68.4294 52.9971C68.4294 53.4464 68.0999 53.8282 67.6584 53.8957C53.2734 56.0672 52.0452 57.3477 49.8662 71.8525C49.8136 72.182 49.5292 72.4368 49.1922 72.4368Z" fill="white"/>
<path d="M76.5248 53.2451C76.3151 53.2451 76.1353 53.0879 76.1054 52.8782C74.735 43.8173 73.739 43.0161 64.7457 41.6607C64.4685 41.6158 64.2588 41.3837 64.2588 41.0991C64.2588 40.822 64.461 40.5824 64.7457 40.5375C73.6942 39.1896 74.4955 38.3883 75.8434 29.4399C75.8882 29.1628 76.1203 28.9531 76.405 28.9531C76.682 28.9531 76.9215 29.1553 76.9666 29.4399C78.3143 38.3883 79.1158 39.1896 88.064 40.5375C88.3412 40.5824 88.551 40.8145 88.551 41.0991C88.551 41.3762 88.3487 41.6158 88.064 41.6607C79.0782 43.0161 78.3068 43.8173 76.944 52.8782C76.9141 53.0879 76.7342 53.2451 76.5248 53.2451Z" fill="white"/>
<path d="M76.4493 75.8581C76.3146 75.8581 76.2023 75.7607 76.1798 75.6259C75.3111 69.8599 74.6748 69.3509 68.9536 68.4896C68.774 68.4597 68.6465 68.3098 68.6465 68.1302C68.6465 67.9504 68.774 67.8007 68.9536 67.7708C74.6446 66.9095 75.154 66.4005 76.015 60.7092C76.0451 60.5296 76.1948 60.4023 76.3746 60.4023C76.5542 60.4023 76.7041 60.5296 76.734 60.7092C77.595 66.4005 78.1043 66.9095 83.7954 67.7708C83.9752 67.8007 84.1025 67.9504 84.1025 68.1302C84.1025 68.3098 83.9752 68.4597 83.7954 68.4896C78.0745 69.3509 77.5875 69.8599 76.7191 75.6259C76.6964 75.7607 76.5843 75.8581 76.4493 75.8581Z" fill="white"/>
</g>
<defs>
<clipPath id="clip0_35_21311">
<rect width="83" height="83" fill="white" transform="translate(19 18)"/>
</clipPath>
</defs>
</svg>
