<svg width="120" height="120" viewBox="0 0 120 120" fill="none" xmlns="http://www.w3.org/2000/svg">
<g clip-path="url(#clip0_35_22264)">
<mask id="mask0_35_22264" style="mask-type:luminance" maskUnits="userSpaceOnUse" x="17" y="17" width="86" height="86">
<path d="M103 17H17V103H103V17Z" fill="white"/>
</mask>
<g mask="url(#mask0_35_22264)">
<path fill-rule="evenodd" clip-rule="evenodd" d="M60.0355 17.7166C36.238 17.7166 17 37.0964 17 61.0718C17 80.2369 29.3265 96.4594 46.4265 102.201C48.5645 102.633 49.3476 101.268 49.3476 100.12C49.3476 99.1154 49.2771 95.6704 49.2771 92.0806C37.3057 94.6652 34.8127 86.9123 34.8127 86.9123C32.8888 81.8878 30.0382 80.5964 30.0382 80.5964C26.12 77.9404 30.3237 77.9404 30.3237 77.9404C34.67 78.2274 36.9507 82.3905 36.9507 82.3905C40.7976 88.9939 46.9965 87.1281 49.4903 85.9792C49.8462 83.1799 50.9869 81.2421 52.1982 80.1653C42.6501 79.1605 32.6043 75.4281 32.6043 58.7746C32.6043 54.037 34.3132 50.1611 37.0211 47.1466C36.5939 46.0701 35.0973 41.619 37.4493 35.6614C37.4493 35.6614 41.083 34.5127 49.2762 40.1117C52.7841 39.1627 56.4016 38.6799 60.0355 38.6759C63.6693 38.6759 67.3734 39.1789 70.7941 40.1117C78.9881 34.5127 82.6219 35.6614 82.6219 35.6614C84.974 41.619 83.4762 46.0701 83.0491 47.1466C85.8283 50.1611 87.467 54.037 87.467 58.7746C87.467 75.4281 77.4211 79.0881 67.8016 80.1653C69.3697 81.5291 70.7228 84.1127 70.7228 88.2045C70.7228 94.0184 70.6522 98.6847 70.6522 100.12C70.6522 101.268 71.4362 102.633 73.5733 102.202C90.6733 96.4587 103 80.2369 103 61.0718C103.07 37.0964 83.7618 17.7166 60.0355 17.7166Z" fill="black"/>
</g>
</g>
<defs>
<clipPath id="clip0_35_22264">
<rect width="86" height="86" fill="white" transform="translate(17 17)"/>
</clipPath>
</defs>
</svg>
