<svg width="120" height="120" viewBox="0 0 120 120" fill="none" xmlns="http://www.w3.org/2000/svg">
<g clip-path="url(#clip0_35_22298)">
<mask id="mask0_35_22298" style="mask-type:luminance" maskUnits="userSpaceOnUse" x="17" y="17" width="86" height="86">
<path d="M101.292 52.0221H60.8976V68.5542H84.1087C83.7354 70.894 82.8977 73.1957 81.6708 75.2942C80.2649 77.6989 78.5272 79.5295 76.7459 80.9235C71.4099 85.0994 65.1896 85.9533 60.8694 85.9533C49.9558 85.9533 40.6313 78.7492 37.0213 68.9601C36.8757 68.6047 36.7791 68.2377 36.6612 67.8752C35.8447 65.3353 35.4283 62.6774 35.4277 60.0023C35.4277 57.148 35.8996 54.416 36.7602 51.8355C40.1546 41.6581 49.6896 34.0569 60.8772 34.0569C63.1274 34.0569 65.2943 34.3303 67.3493 34.8761C71.1042 35.8708 74.5593 37.8111 77.4032 40.5221L89.6856 28.2364C82.2143 21.2396 72.4747 17 60.8567 17C51.569 17 42.9941 19.9554 35.967 24.9508C30.2686 29.0014 25.5949 34.4253 22.4405 40.7241C19.5069 46.5647 17.9004 53.0371 17.9004 59.9961C17.9004 66.9554 19.5096 73.4949 22.4432 79.2814V79.3203C25.5419 85.4635 30.0736 90.7528 35.5811 94.7852C40.3928 98.3077 49.0204 102.999 60.8567 102.999C67.6636 102.999 73.6965 101.746 79.0169 99.397C82.855 97.7022 86.2554 95.4921 89.3343 92.6515C93.4024 88.8982 96.5884 84.2554 98.7631 78.9141C100.938 73.5728 102.101 67.5324 102.101 60.9839C102.101 57.9341 101.801 54.8367 101.292 52.0221Z" fill="white"/>
</mask>
<g mask="url(#mask0_35_22298)">
<g filter="url(#filter0_f_35_22298)">
<path d="M17.2812 60.2881C17.3258 67.1376 19.2367 74.2045 22.1291 79.9096V79.9489C24.2193 84.092 27.0756 87.3646 30.3286 90.6074L49.9783 83.2846C46.2605 81.3556 45.6932 80.1739 43.0285 78.0172C40.3052 75.2125 38.2755 71.9928 37.0115 68.2173H36.9604L37.0115 68.178C36.1799 65.6851 36.098 63.0384 36.0671 60.2881H17.2812Z" fill="url(#paint0_radial_35_22298)"/>
</g>
<g filter="url(#filter1_f_35_22298)">
<path d="M60.8972 16.6874C58.9553 23.6563 59.6976 30.43 60.8972 34.3713C63.1402 34.3732 65.3007 34.6461 67.3491 35.1902C71.104 36.1849 74.559 38.1253 77.4027 40.8363L89.9998 28.2368C82.5372 21.2481 73.5565 16.6982 60.8972 16.6874Z" fill="url(#paint1_radial_35_22298)"/>
</g>
<g filter="url(#filter2_f_35_22298)">
<path d="M60.8554 16.6322C51.3294 16.6322 42.5343 19.6634 35.3271 24.7869C32.6594 26.6825 30.2047 28.877 28.0083 31.3301C27.4356 36.8196 32.2966 43.5661 41.9234 43.5101C46.594 37.9612 53.5023 34.3706 61.1908 34.3706L61.2118 34.3712L60.8978 16.6334C60.8833 16.6334 60.8698 16.6322 60.8557 16.6322H60.8554Z" fill="url(#paint2_radial_35_22298)"/>
</g>
<g filter="url(#filter3_f_35_22298)">
<path d="M92.2978 62.2743L83.7951 68.2405C83.4221 70.58 82.5835 72.8817 81.3566 74.9805C79.9507 77.3849 78.2133 79.2157 76.4318 80.6098C71.1072 84.777 64.9031 85.6352 60.5841 85.6386C56.1197 93.4044 55.3371 97.2942 60.8978 103.562C67.7789 103.557 73.879 102.288 79.2598 99.9124C83.1493 98.195 86.5954 95.9549 89.7155 93.0762C93.8381 89.2725 97.0674 84.5676 99.2713 79.1545C101.475 73.7414 102.654 67.6205 102.654 60.9839L92.2978 62.2743Z" fill="url(#paint3_radial_35_22298)"/>
</g>
<g filter="url(#filter4_f_35_22298)">
<path d="M60.2705 51.3943V69.1825H101.18C101.539 66.7465 102.729 63.594 102.729 60.9842C102.729 57.9344 102.43 54.2093 101.921 51.3943H60.2705Z" fill="#3086FF"/>
</g>
<g filter="url(#filter5_f_35_22298)">
<path d="M28.205 30.7026C25.6802 33.5238 23.5235 36.6815 21.8136 40.0964C18.88 45.937 17.2734 53.0374 17.2734 59.9964C17.2734 60.0944 17.2813 60.1903 17.2822 60.2884C18.5816 62.8327 35.2291 62.3454 36.0683 60.2884C36.0671 60.1925 36.0565 60.0988 36.0565 60.0026C36.0565 57.1483 36.5288 55.0446 37.389 52.4641C38.4508 49.281 40.113 46.35 42.2387 43.8246C42.7205 43.1963 44.0058 41.8456 44.3806 41.0353C44.5235 40.7269 44.1213 40.5536 44.0987 40.445C44.0738 40.3235 43.5345 40.4212 43.4138 40.3306C43.0303 40.0432 42.2708 39.8931 41.8094 39.7598C40.8237 39.4749 39.1902 38.8462 38.2827 38.1944C35.4144 36.1346 30.9386 33.6738 28.205 30.7026Z" fill="url(#paint4_radial_35_22298)"/>
</g>
<g filter="url(#filter6_f_35_22298)">
<path d="M38.344 40.4568C44.9951 44.5718 46.9078 38.3797 51.33 36.4421L43.6376 20.1494C40.8313 21.3542 38.1554 22.8581 35.6538 24.6365C31.9493 27.2699 28.6779 30.4836 25.9756 34.1404L38.344 40.4568Z" fill="url(#paint5_radial_35_22298)"/>
</g>
<g filter="url(#filter7_f_35_22298)">
<path d="M41.0502 82.0257C32.1219 85.3177 30.7241 85.4359 29.9023 91.0871C31.4776 92.658 33.166 94.1042 34.9532 95.4134C39.7646 98.9359 49.0199 103.628 60.8566 103.628C60.8704 103.628 60.8837 103.626 60.8978 103.626V85.3248L60.8695 85.3254C56.4371 85.3254 52.895 84.1365 49.2636 82.0687C48.3681 81.5588 46.7435 82.9278 45.9179 82.3159C44.7791 81.4716 42.0377 83.0429 41.0502 82.0257Z" fill="url(#paint6_radial_35_22298)"/>
</g>
<g opacity="0.5" filter="url(#filter8_f_35_22298)">
<path d="M55.6699 84.7485V103.31C57.3261 103.508 59.0496 103.628 60.8576 103.628C62.6702 103.628 64.4235 103.533 66.1275 103.358V84.8735C64.3905 85.1745 62.6321 85.3257 60.8706 85.3255C59.0863 85.3255 57.3513 85.1133 55.6699 84.7485Z" fill="url(#paint7_linear_35_22298)"/>
</g>
</g>
</g>
<defs>
<filter id="filter0_f_35_22298" x="17.1336" y="60.1404" width="32.9926" height="30.6146" filterUnits="userSpaceOnUse" color-interpolation-filters="sRGB">
<feFlood flood-opacity="0" result="BackgroundImageFix"/>
<feBlend mode="normal" in="SourceGraphic" in2="BackgroundImageFix" result="shape"/>
<feGaussianBlur stdDeviation="0.0738221" result="effect1_foregroundBlur_35_22298"/>
</filter>
<filter id="filter1_f_35_22298" x="59.5555" y="16.5397" width="30.5922" height="24.4442" filterUnits="userSpaceOnUse" color-interpolation-filters="sRGB">
<feFlood flood-opacity="0" result="BackgroundImageFix"/>
<feBlend mode="normal" in="SourceGraphic" in2="BackgroundImageFix" result="shape"/>
<feGaussianBlur stdDeviation="0.0738221" result="effect1_foregroundBlur_35_22298"/>
</filter>
<filter id="filter2_f_35_22298" x="27.8152" y="16.4846" width="33.5443" height="27.1735" filterUnits="userSpaceOnUse" color-interpolation-filters="sRGB">
<feFlood flood-opacity="0" result="BackgroundImageFix"/>
<feBlend mode="normal" in="SourceGraphic" in2="BackgroundImageFix" result="shape"/>
<feGaussianBlur stdDeviation="0.0738221" result="effect1_foregroundBlur_35_22298"/>
</filter>
<filter id="filter3_f_35_22298" x="56.8318" y="60.8362" width="45.9691" height="42.8732" filterUnits="userSpaceOnUse" color-interpolation-filters="sRGB">
<feFlood flood-opacity="0" result="BackgroundImageFix"/>
<feBlend mode="normal" in="SourceGraphic" in2="BackgroundImageFix" result="shape"/>
<feGaussianBlur stdDeviation="0.0738221" result="effect1_foregroundBlur_35_22298"/>
</filter>
<filter id="filter4_f_35_22298" x="60.1229" y="51.2466" width="42.7543" height="18.0835" filterUnits="userSpaceOnUse" color-interpolation-filters="sRGB">
<feFlood flood-opacity="0" result="BackgroundImageFix"/>
<feBlend mode="normal" in="SourceGraphic" in2="BackgroundImageFix" result="shape"/>
<feGaussianBlur stdDeviation="0.0738221" result="effect1_foregroundBlur_35_22298"/>
</filter>
<filter id="filter5_f_35_22298" x="17.1258" y="30.555" width="27.433" height="31.6113" filterUnits="userSpaceOnUse" color-interpolation-filters="sRGB">
<feFlood flood-opacity="0" result="BackgroundImageFix"/>
<feBlend mode="normal" in="SourceGraphic" in2="BackgroundImageFix" result="shape"/>
<feGaussianBlur stdDeviation="0.0738221" result="effect1_foregroundBlur_35_22298"/>
</filter>
<filter id="filter6_f_35_22298" x="24.9378" y="19.1116" width="27.4301" height="23.766" filterUnits="userSpaceOnUse" color-interpolation-filters="sRGB">
<feFlood flood-opacity="0" result="BackgroundImageFix"/>
<feBlend mode="normal" in="SourceGraphic" in2="BackgroundImageFix" result="shape"/>
<feGaussianBlur stdDeviation="0.51889" result="effect1_foregroundBlur_35_22298"/>
</filter>
<filter id="filter7_f_35_22298" x="29.7547" y="81.8047" width="31.2904" height="21.9705" filterUnits="userSpaceOnUse" color-interpolation-filters="sRGB">
<feFlood flood-opacity="0" result="BackgroundImageFix"/>
<feBlend mode="normal" in="SourceGraphic" in2="BackgroundImageFix" result="shape"/>
<feGaussianBlur stdDeviation="0.0738221" result="effect1_foregroundBlur_35_22298"/>
</filter>
<filter id="filter8_f_35_22298" x="55.5223" y="84.6009" width="10.7533" height="19.1743" filterUnits="userSpaceOnUse" color-interpolation-filters="sRGB">
<feFlood flood-opacity="0" result="BackgroundImageFix"/>
<feBlend mode="normal" in="SourceGraphic" in2="BackgroundImageFix" result="shape"/>
<feGaussianBlur stdDeviation="0.0738221" result="effect1_foregroundBlur_35_22298"/>
</filter>
<radialGradient id="paint0_radial_35_22298" cx="0" cy="0" r="1" gradientUnits="userSpaceOnUse" gradientTransform="translate(49.5848 89.9617) rotate(-92.3394) scale(42.8631 62.961)">
<stop offset="0.142" stop-color="#1ABD4D"/>
<stop offset="0.248" stop-color="#6EC30D"/>
<stop offset="0.312" stop-color="#8AC502"/>
<stop offset="0.366" stop-color="#A2C600"/>
<stop offset="0.446" stop-color="#C8C903"/>
<stop offset="0.54" stop-color="#EBCB03"/>
<stop offset="0.616" stop-color="#F7CD07"/>
<stop offset="0.699" stop-color="#FDCD04"/>
<stop offset="0.771" stop-color="#FDCE05"/>
<stop offset="0.861" stop-color="#FFCE0A"/>
</radialGradient>
<radialGradient id="paint1_radial_35_22298" cx="0" cy="0" r="1" gradientUnits="userSpaceOnUse" gradientTransform="translate(88.8211 39.9249) scale(29.7142 38.3742)">
<stop offset="0.408" stop-color="#FB4E5A"/>
<stop offset="1" stop-color="#FF4540"/>
</radialGradient>
<radialGradient id="paint2_radial_35_22298" cx="0" cy="0" r="1" gradientTransform="matrix(-41.6321 23.0583 31.2901 56.4944 72.594 11.0773)" gradientUnits="userSpaceOnUse">
<stop offset="0.231" stop-color="#FF4541"/>
<stop offset="0.312" stop-color="#FF4540"/>
<stop offset="0.458" stop-color="#FF4640"/>
<stop offset="0.54" stop-color="#FF473F"/>
<stop offset="0.699" stop-color="#FF5138"/>
<stop offset="0.771" stop-color="#FF5B33"/>
<stop offset="0.861" stop-color="#FF6C29"/>
<stop offset="1" stop-color="#FF8C18"/>
</radialGradient>
<radialGradient id="paint3_radial_35_22298" cx="0" cy="0" r="1" gradientTransform="matrix(-75.5013 -98.558 -36.3804 27.8694 61.5159 97.9957)" gradientUnits="userSpaceOnUse">
<stop offset="0.132" stop-color="#0CBA65"/>
<stop offset="0.21" stop-color="#0BB86D"/>
<stop offset="0.297" stop-color="#09B479"/>
<stop offset="0.396" stop-color="#08AD93"/>
<stop offset="0.477" stop-color="#0AA6A9"/>
<stop offset="0.568" stop-color="#0D9CC6"/>
<stop offset="0.667" stop-color="#1893DD"/>
<stop offset="0.769" stop-color="#258BF1"/>
<stop offset="0.859" stop-color="#3086FF"/>
</radialGradient>
<radialGradient id="paint4_radial_35_22298" cx="0" cy="0" r="1" gradientUnits="userSpaceOnUse" gradientTransform="translate(57.2092 24.7549) rotate(96.6178) scale(46.3623 64.1041)">
<stop offset="0.366" stop-color="#FF4E3A"/>
<stop offset="0.458" stop-color="#FF8A1B"/>
<stop offset="0.54" stop-color="#FFA312"/>
<stop offset="0.616" stop-color="#FFB60C"/>
<stop offset="0.771" stop-color="#FFCD0A"/>
<stop offset="0.861" stop-color="#FECF0A"/>
<stop offset="0.915" stop-color="#FECF08"/>
<stop offset="1" stop-color="#FDCD01"/>
</radialGradient>
<radialGradient id="paint5_radial_35_22298" cx="0" cy="0" r="1" gradientTransform="matrix(-15.4439 17.0806 -48.1768 -43.5604 49.6959 24.2764)" gradientUnits="userSpaceOnUse">
<stop offset="0.316" stop-color="#FF4C3C"/>
<stop offset="0.604" stop-color="#FF692C"/>
<stop offset="0.727" stop-color="#FF7825"/>
<stop offset="0.885" stop-color="#FF8D1B"/>
<stop offset="1" stop-color="#FF9F13"/>
</radialGradient>
<radialGradient id="paint6_radial_35_22298" cx="0" cy="0" r="1" gradientTransform="matrix(-41.6321 -23.0583 31.2901 -56.4944 72.594 108.921)" gradientUnits="userSpaceOnUse">
<stop offset="0.231" stop-color="#0FBC5F"/>
<stop offset="0.312" stop-color="#0FBC5F"/>
<stop offset="0.366" stop-color="#0FBC5E"/>
<stop offset="0.458" stop-color="#0FBC5D"/>
<stop offset="0.54" stop-color="#12BC58"/>
<stop offset="0.699" stop-color="#28BF3C"/>
<stop offset="0.771" stop-color="#38C02B"/>
<stop offset="0.861" stop-color="#52C218"/>
<stop offset="0.915" stop-color="#67C30F"/>
<stop offset="1" stop-color="#86C504"/>
</radialGradient>
<linearGradient id="paint7_linear_35_22298" x1="55.6699" y1="94.1881" x2="66.1275" y2="94.1881" gradientUnits="userSpaceOnUse">
<stop stop-color="#0FBC5C"/>
<stop offset="1" stop-color="#0CBA65"/>
</linearGradient>
<clipPath id="clip0_35_22298">
<rect width="86" height="86" fill="white" transform="translate(17 17)"/>
</clipPath>
</defs>
</svg>
