<svg width="120" height="120" viewBox="0 0 120 120" fill="none" xmlns="http://www.w3.org/2000/svg">
<g clip-path="url(#clip0_35_22310)">
<mask id="mask0_35_22310" style="mask-type:luminance" maskUnits="userSpaceOnUse" x="17" y="17" width="86" height="86">
<path d="M103 17H17V103H103V17Z" fill="white"/>
</mask>
<g mask="url(#mask0_35_22310)">
<path fill-rule="evenodd" clip-rule="evenodd" d="M61.3029 100.993V87.2312L61.4846 87.2298C74.2344 87.0251 84.8977 78.3223 87.9471 66.5937L61.3029 66.5933V52.8333H87.9471L102.423 52.8331L103 52.8333V59.4267L103 59.5094C103 59.5772 103 59.6452 103 59.7133C103 82.5116 84.3316 100.993 61.3029 100.993ZM61.3029 18.4333C76.7367 18.4333 90.2122 26.7347 97.4218 39.0734L79.4116 39.0729C74.6182 34.8845 68.3542 32.3073 61.4846 32.197L61.3029 32.1955V18.4333ZM60.7238 26.1017C60.7238 26.3999 60.6271 26.6757 60.463 26.9L60.4597 26.9042C60.2064 27.2497 59.7954 27.4744 59.3313 27.4744C59.3145 27.4744 59.2977 27.474 59.2812 27.4735L57.9002 30.0287C58.5556 30.4665 58.9866 31.2084 58.9866 32.05C58.9866 33.1487 58.252 34.0776 57.2426 34.3816C57.0018 34.4605 56.7445 34.5032 56.4769 34.5032C55.6054 34.5032 54.8407 34.0505 54.41 33.3698L50.716 35.1977C50.7279 35.2696 50.734 35.3432 50.734 35.4183C50.734 35.7055 50.6442 35.972 50.4908 36.1916C50.2455 36.5844 49.8064 36.8461 49.3055 36.8461C48.9008 36.8461 48.5364 36.6753 48.282 36.4024L44.1792 38.4329C44.2981 38.7187 44.3636 39.0318 44.3636 39.36C44.3636 40.5279 43.5337 41.5038 42.4259 41.7414C42.2429 41.7847 42.0521 41.8077 41.8558 41.8077C41.6299 41.8077 41.4112 41.7773 41.2037 41.7204L38.3135 48.5202C38.6466 48.7687 38.862 49.1636 38.862 49.6083C38.862 49.6176 38.8618 49.6269 38.8617 49.6362C38.8619 49.6452 38.862 49.6543 38.862 49.6634C38.862 50.4246 38.2385 51.0417 37.4695 51.0417C37.3944 51.0417 37.3208 51.0358 37.249 51.0245L34.5846 57.2932C34.9636 57.5114 35.2779 57.8278 35.4916 58.2073C35.7014 58.5659 35.8215 58.9823 35.8215 59.4267C35.8215 60.2304 35.4285 60.9431 34.8223 61.3871L37.2622 66.9294C37.3797 66.8972 37.5034 66.88 37.6313 66.88C38.3909 66.88 39.0067 67.4895 39.0067 68.2417C39.0067 68.3345 38.9973 68.4251 38.9795 68.5129C38.9104 68.8963 38.681 69.2249 38.3624 69.4285L41.3672 76.2544C41.5395 76.2167 41.7186 76.1967 41.9024 76.1967C43.2617 76.1967 44.3636 77.2874 44.3636 78.6333C44.3636 78.858 44.3329 79.0755 44.2754 79.2823L48.6771 81.7541C48.9259 81.5086 49.2691 81.3567 49.6481 81.3567C49.6956 81.3567 49.7425 81.3592 49.7886 81.3638C50.5274 81.3975 51.1158 82.001 51.1158 82.7406C51.1158 82.8635 51.0994 82.9831 51.0688 83.0967L54.7124 85.1425C54.8361 85.0142 54.974 84.8991 55.1238 84.7999C55.5215 84.5268 56.0046 84.3667 56.5252 84.3667C57.8844 84.3667 58.9866 85.4574 58.9866 86.8033C58.9866 87.7877 58.3972 88.6355 57.5486 89.02L58.6383 92.5256L58.6749 92.5263C59.4256 92.5471 60.0276 93.1559 60.0276 93.9037C60.0276 94.6652 59.4041 95.2822 58.6351 95.2822C58.5943 95.2822 58.5538 95.2804 58.5136 95.2768L57.5626 98.3528C58.4036 98.7405 58.9866 99.5844 58.9866 100.563C58.9866 101.909 57.8844 103 56.5252 103C56.5181 103 56.5113 103 56.5045 103H56.4769C55.131 103 54.0398 101.92 54.0398 100.588C54.0398 100.371 54.0689 100.161 54.1233 99.961L47.9094 97.4921C47.6552 97.8239 47.2524 98.0385 46.7991 98.0385C46.3061 98.0385 45.873 97.7848 45.6255 97.4025C45.469 97.1814 45.3771 96.9123 45.3771 96.6217C45.3771 96.5769 45.3793 96.5324 45.3836 96.4884L39.0176 93.9592C38.6156 94.744 37.7927 95.2822 36.8429 95.2822C36.0911 95.2822 35.4189 94.945 34.9719 94.4158C34.5991 93.9886 34.3737 93.4321 34.3737 92.8233C34.3737 92.222 34.5938 91.6713 34.9587 91.2463L30.8501 86.5926C30.663 86.6851 30.4519 86.737 30.2286 86.737C29.4595 86.737 28.8361 86.12 28.8361 85.3589C28.8361 85.0772 28.9216 84.8149 29.0683 84.5967C29.0711 84.5924 29.0738 84.5878 29.0766 84.5835L25.6102 80.6572C25.3592 80.8242 25.0754 80.9467 24.7705 81.013C24.5788 81.061 24.378 81.0865 24.1713 81.0865C22.8255 81.0865 21.7344 80.0068 21.7344 78.6745C21.7344 78.0679 21.9609 77.5132 22.3348 77.0893C22.5794 76.794 22.8928 76.5564 23.2508 76.4009L21.7572 70.3132C21.2583 70.2218 20.8527 69.8667 20.6933 69.3994C20.6455 69.2611 20.6195 69.1128 20.6195 68.9583C20.6195 68.8085 20.6439 68.6649 20.6889 68.5301C20.7761 68.266 20.9415 68.0374 21.1579 67.8704L19.6818 61.8537C19.6091 61.8601 19.5356 61.8633 19.4613 61.8633C18.102 61.8633 17 60.7726 17 59.4267C17 59.4188 17 59.4109 17.0001 59.403C17 59.3955 17 59.3876 17 59.3797C17 58.0478 18.091 56.9678 19.4368 56.9678C19.4732 56.9678 19.5094 56.9689 19.5453 56.9703L21.0715 50.928C20.7529 50.7054 20.5329 50.3537 20.4892 49.9499C20.4797 49.8852 20.4747 49.819 20.4747 49.7517C20.4747 49.0463 21.0166 48.4661 21.7107 48.3969L23.1193 42.8205C23.0372 42.7789 22.9577 42.7328 22.8813 42.6827C22.1926 42.2566 21.7344 41.4994 21.7344 40.6362C21.7344 39.4326 22.6252 38.435 23.7898 38.2538C23.9355 38.2272 24.0856 38.2133 24.239 38.2133C24.5935 38.2133 24.9304 38.2875 25.2349 38.421L30.0668 32.5757C29.9917 32.4064 29.9501 32.2192 29.9501 32.0224C29.9501 31.4357 30.3205 30.9346 30.8426 30.7357C31.0145 30.6592 31.2051 30.6167 31.4057 30.6167C31.4948 30.6167 31.5819 30.6251 31.6662 30.6411L34.8084 26.8398C34.5343 26.4468 34.3737 25.9703 34.3737 25.4567C34.3737 24.1109 35.4757 23.02 36.835 23.02C37.7128 23.02 38.4833 23.4749 38.919 24.1596L46.1011 21.9568L46.101 21.945C46.101 21.2059 46.6958 20.6044 47.4373 20.5839L47.4764 20.5833C47.4781 20.5833 47.4799 20.5833 47.4816 20.5833H47.4953C47.9702 20.5833 48.3896 20.8187 48.641 21.1779L54.0424 19.5214C54.0409 19.4851 54.0398 19.4486 54.0398 19.4119C54.0398 18.0798 55.131 17 56.4769 17L56.5055 17.0001L56.5252 17C57.869 17 58.9612 18.066 58.9863 19.3904L58.9866 19.4367C58.9866 20.2567 58.5774 20.9821 57.9503 21.4237L59.4159 24.7204C60.1455 24.7636 60.7238 25.3631 60.7238 26.0961V26.1017ZM45.3255 91.4832L39.2817 92.5567C39.2913 92.6442 39.2963 92.7334 39.2963 92.8233C39.2963 92.9409 39.2879 93.0562 39.2717 93.1695L45.714 95.7287C45.9662 95.4417 46.3379 95.26 46.7525 95.26C46.9619 95.26 47.1604 95.3062 47.338 95.389C47.8395 95.5975 48.1916 96.0881 48.1916 96.6604C48.1916 96.6779 48.1912 96.6955 48.1906 96.7127L54.4767 99.2103L54.5071 99.1683C54.5419 99.1192 54.5781 99.0716 54.6164 99.025L49.0139 92.8735C48.6324 93.1139 48.1794 93.2533 47.6936 93.2533C46.5677 93.2533 45.6183 92.5048 45.3255 91.4832ZM54.3172 87.9246L49.9881 89.933C50.0958 90.2071 50.1549 90.5049 50.1549 90.8167C50.1549 91.3828 49.9598 91.9038 49.6326 92.3177L55.246 98.4814C55.6187 98.2564 56.0565 98.1267 56.5252 98.1267C56.603 98.1267 56.6797 98.1302 56.7553 98.1371L57.7386 94.9583C57.4354 94.7053 57.2426 94.3269 57.2426 93.9037C57.2426 93.435 57.4791 93.0208 57.8407 92.7717L56.7399 89.2307C56.6693 89.2368 56.5976 89.24 56.5252 89.24C56.1035 89.24 55.7061 89.135 55.3592 88.9498C54.9145 88.7222 54.5497 88.3632 54.3172 87.9246ZM37.9269 85.6391C37.7206 85.8645 37.439 86.0211 37.1214 86.0702L37.1213 90.4031C37.9715 90.5006 38.6896 91.027 39.0491 91.758L45.2374 90.6586C45.2544 90.3956 45.3135 90.1444 45.4081 89.9108L37.9269 85.6391ZM29.7595 75.2087L26.3834 77.4361C26.5852 77.7898 26.7003 78.1983 26.7003 78.6333C26.7003 79.1776 26.52 79.6804 26.2153 80.086L29.7101 84.0445C29.8752 83.975 30.0568 83.9367 30.2475 83.9367C31.0071 83.9367 31.6229 84.5462 31.6229 85.2983C31.6229 85.3241 31.6222 85.3499 31.6207 85.3757L31.621 85.3589C31.621 85.5975 31.5598 85.8219 31.452 86.0175L35.5996 90.7153C35.8105 90.5941 36.0412 90.5028 36.2859 90.4476L36.2858 85.9401C35.915 85.7538 35.6409 85.4058 35.558 84.9902C35.5331 84.8873 35.52 84.7802 35.52 84.6698C35.52 84.3004 35.667 83.9646 35.9063 83.717L32.37 75.939C32.1343 76.0132 31.8833 76.0533 31.6229 76.0533C30.8783 76.0533 30.2108 75.7258 29.7595 75.2087ZM43.9177 80.0323C43.7602 80.2544 43.5661 80.4494 43.3441 80.6085L47.0063 88.4764C47.2244 88.4137 47.4551 88.38 47.6936 88.38C48.4365 88.38 49.1026 88.7057 49.5539 89.221L54.0617 87.1298C54.0474 87.0237 54.0398 86.9158 54.0398 86.8062C54.0398 86.4593 54.114 86.13 54.247 85.8319L50.6196 83.7951C50.3774 83.9969 50.0647 84.1187 49.7233 84.1187C49.4659 84.1187 49.2248 84.0495 49.0179 83.9288C48.5753 83.7027 48.2727 83.2454 48.2727 82.7183C48.2727 82.6399 48.2794 82.5632 48.2922 82.4883L43.9177 80.0323ZM40.4774 80.664L37.8997 83.698C38.1502 83.9471 38.305 84.2907 38.305 84.6698C38.305 84.7447 38.2989 84.8185 38.2873 84.8902L45.8464 89.2063C45.9682 89.0694 46.1053 88.9462 46.255 88.8394L42.5943 80.974C42.3613 81.0471 42.1132 81.0865 41.8558 81.0865C41.3442 81.0865 40.8694 80.9306 40.4774 80.664ZM33.731 74.8945C33.6691 74.9884 33.6007 75.0776 33.5265 75.1614C33.4044 75.3087 33.2654 75.4413 33.1122 75.5567L36.6409 83.3178C36.7288 83.3006 36.8196 83.2917 36.9125 83.2917C36.9892 83.2917 37.0644 83.2978 37.1378 83.3096L39.8781 80.0842C39.5892 79.6875 39.4189 79.2009 39.4189 78.6745C39.4189 78.3506 39.4835 78.0417 39.6005 77.7594L33.731 74.8945ZM34.0749 61.7591C33.8794 61.8178 33.6735 61.8529 33.4608 61.8612L32.3654 71.257C33.383 71.5466 34.1275 72.475 34.1275 73.5755C34.1275 73.7675 34.1048 73.9546 34.0619 74.1337L40.0329 77.0484C40.1943 76.8621 40.3836 76.7001 40.5944 76.569L37.5467 69.646C36.8064 69.6141 36.2162 69.0099 36.2162 68.2693C36.2162 67.9288 36.341 67.6171 36.5478 67.3767L34.0749 61.7591ZM26.5248 65.0858C26.4626 65.0944 26.399 65.0991 26.3344 65.0994L24.8703 76.2777C25.2386 76.374 25.573 76.5528 25.8523 76.7929L29.3281 74.4992C29.2206 74.2258 29.1616 73.9281 29.1616 73.6167C29.1616 72.7964 29.5708 72.0712 30.1981 71.6297L26.5248 65.0858ZM21.4164 60.9069C21.1737 61.2208 20.8558 61.4742 20.4893 61.6412L21.9469 67.5816C21.9688 67.5805 21.9908 67.5802 22.0129 67.5802C22.782 67.5802 23.4054 68.1972 23.4054 68.9583C23.4054 69.5148 23.0721 69.9943 22.5923 70.2121L24.0461 76.1372L25.525 64.8461C25.1693 64.5963 24.9372 64.1857 24.9372 63.7213C24.9372 63.5665 24.9629 63.4178 25.0104 63.2787L21.4164 60.9069ZM31.341 60.8202L27.5955 63.1017C27.6534 63.2304 27.6917 63.3698 27.7067 63.5156C27.7169 63.5826 27.7221 63.6514 27.7221 63.7213C27.7221 64.1187 27.5521 64.477 27.28 64.7286L30.9525 71.2714C30.9973 71.2588 31.0427 71.2477 31.0885 71.2377C31.2325 71.2015 31.3816 71.1778 31.5346 71.1682L32.6322 61.7551C32.1035 61.5932 31.651 61.2595 31.341 60.8202ZM30.9007 59.5177H21.9209C21.9125 59.7445 21.8727 59.9634 21.8058 60.1706L25.4775 62.5929C25.7132 62.4055 26.0125 62.2933 26.3384 62.2933C26.5896 62.2933 26.8251 62.36 27.0278 62.4764L30.9847 60.0663C30.9365 59.8907 30.9077 59.7069 30.9007 59.5177ZM27.7304 50.8026L21.2562 57.7593C21.5051 58.022 21.6959 58.3391 21.8083 58.6906H31.0133C31.0834 58.4713 31.1841 58.2653 31.3103 58.0775C31.528 57.7421 31.8275 57.4637 32.1809 57.2695L29.7544 51.1855C29.5645 51.232 29.366 51.2567 29.1616 51.2567C28.6278 51.2567 28.1336 51.0884 27.7304 50.8026ZM32.6128 37.006L26.5277 39.7518C26.6391 40.0298 26.7003 40.3328 26.7003 40.65C26.7003 41.9957 25.5984 43.0867 24.239 43.0867C24.1304 43.0867 24.0234 43.0797 23.9185 43.0662L22.5291 48.5672C22.6597 48.6407 22.7769 48.7348 22.8763 48.845C23.1177 49.0928 23.2662 49.4299 23.2662 49.8013C23.2662 50.5624 22.6427 51.1795 21.8737 51.1795L21.869 51.1794L20.3616 57.1477C20.4398 57.1796 20.516 57.215 20.59 57.2544L27.1424 50.2136C26.8638 49.8187 26.7003 49.3383 26.7003 48.82C26.7003 48.0793 27.0342 47.4158 27.5611 46.9689C27.9919 46.5875 28.5607 46.3558 29.1842 46.3558C29.3051 46.3558 29.424 46.3645 29.5402 46.3813L32.8016 37.2018C32.7324 37.1428 32.6691 37.0772 32.6128 37.006ZM40.0386 41.0028L31.2962 47.5637C31.4934 47.9018 31.6101 48.2917 31.6203 48.7078C31.622 48.745 31.6229 48.7824 31.6229 48.82C31.6229 49.6687 31.1846 50.4161 30.5198 50.8524L32.9711 56.9986C33.0983 56.9785 33.2287 56.9678 33.3616 56.9678C33.5113 56.9678 33.6577 56.9814 33.7999 57.0068L36.5005 50.6533C36.2393 50.4028 36.077 50.0519 36.077 49.6634C36.077 49.3695 36.17 49.0971 36.3284 48.8733C36.5731 48.4964 37.0003 48.2467 37.4865 48.2467C37.4988 48.2467 37.5111 48.2468 37.5233 48.2471L40.4484 41.365C40.2984 41.2598 40.1609 41.1382 40.0386 41.0028ZM34.8343 36.97C34.581 37.3127 34.1717 37.5353 33.7098 37.5353C33.663 37.5353 33.6168 37.533 33.5712 37.5285L30.3338 46.6405C30.4864 46.7215 30.6294 46.8181 30.7604 46.9281L39.5951 40.2979C39.4815 40.0193 39.4189 39.7148 39.4189 39.3958C39.4189 39.154 39.4549 38.9204 39.5219 38.7001L34.8343 36.97ZM38.9787 26.6549C38.5561 27.3943 37.7544 27.8933 36.835 27.8933C36.2981 27.8933 35.8014 27.7232 35.3968 27.4343L32.4098 31.0477C32.6401 31.2912 32.7811 31.6184 32.7811 31.9783C32.7811 32.3435 32.6359 32.6752 32.3995 32.9197C32.1441 33.2142 31.7653 33.4006 31.3425 33.4006C31.0807 33.4006 30.8358 33.3291 30.6266 33.2048L25.9331 38.8823C25.987 38.933 26.0386 38.9861 26.0878 39.0414L32.3192 36.2298C32.3179 36.2057 32.3173 36.1815 32.3173 36.157C32.3173 35.5534 32.7094 35.0403 33.2554 34.8539L33.2734 34.8475C33.4141 34.7994 33.5651 34.7733 33.7222 34.7733C34.0409 34.7733 34.3342 34.8806 34.5674 35.0607L43.1368 30.0122C43.0734 29.7973 43.0394 29.57 43.0394 29.3349C43.0394 29.0749 43.081 28.8244 43.1579 28.5897L38.9787 26.6549ZM47.7738 30.3115C47.3917 31.1666 46.5272 31.7633 45.5219 31.7633C45.1864 31.7633 44.8665 31.6969 44.575 31.5765C44.1455 31.4072 43.7761 31.1204 43.5073 30.7562L35.0402 35.7444C35.0499 35.7764 35.0584 35.809 35.0657 35.8419C35.0896 35.9431 35.1022 36.0486 35.1022 36.157L35.1017 36.1863L39.8919 37.954C40.3376 37.3304 41.072 36.9233 41.9024 36.9233C42.6284 36.9233 43.2811 37.2346 43.7316 37.7297L47.9257 35.654C47.9174 35.5932 47.9131 35.5311 47.9131 35.468C47.9131 34.9457 48.2065 34.4914 48.6391 34.2575C48.8484 34.1302 49.0948 34.0567 49.3586 34.0567C49.7412 34.0567 50.0872 34.2113 50.3366 34.4609L54.0947 32.6012C54.0588 32.4369 54.0398 32.2663 54.0398 32.0914C54.0398 32.0214 54.0431 31.9522 54.0488 31.8838L47.7738 30.3115ZM52.1508 26.1703L47.7993 28.4008C47.9178 28.6863 47.9831 28.9989 47.9831 29.3267C47.9831 29.388 47.9809 29.4488 47.9764 29.509L54.262 31.0841C54.2767 31.0526 54.2921 31.0215 54.3079 30.9907C54.4655 30.6682 54.6931 30.3851 54.9704 30.1609L53.3027 26.6441C53.2701 26.6463 53.2375 26.6474 53.2046 26.6474C52.7835 26.6474 52.4062 26.4625 52.1508 26.1703ZM55.5531 21.6759L54.1595 24.2049C54.4555 24.4547 54.6429 24.8265 54.6429 25.2417C54.6429 25.6905 54.4236 26.0887 54.0853 26.3367C54.0839 26.3378 54.0828 26.3388 54.0814 26.3399L55.7004 29.7536C55.958 29.6628 56.2357 29.6133 56.5252 29.6133C56.7363 29.6133 56.9409 29.6396 57.1362 29.689L58.486 27.1913C58.1535 26.9395 57.9389 26.5426 57.9389 26.0961C57.9389 25.6028 58.2008 25.17 58.5946 24.9265L57.1964 21.7816C56.9832 21.8414 56.7578 21.8733 56.5252 21.8733C56.1802 21.8733 55.8512 21.803 55.5531 21.6759ZM54.2233 20.3316L48.8877 21.9678L48.8873 22.0008C48.8663 22.7438 48.2511 23.3397 47.4953 23.3397C47.0209 23.3397 46.6018 23.1049 46.3504 22.7462L39.2381 24.9274C39.2762 25.0978 39.2963 25.2749 39.2963 25.4567C39.2963 25.5984 39.2841 25.7373 39.2606 25.8724L43.5495 27.8581C43.6385 27.7445 43.7376 27.639 43.8454 27.5428C44.2848 27.1378 44.8741 26.89 45.5219 26.89C46.249 26.89 46.9024 27.2021 47.3529 27.6984L51.8191 25.4092C51.8144 25.3632 51.812 25.3165 51.812 25.2692C51.812 24.577 52.3277 24.0039 52.9996 23.9058L53.0372 23.8991C53.1121 23.8865 53.1892 23.88 53.2676 23.88C53.3067 23.88 53.3457 23.8816 53.3837 23.8848L54.8511 21.2228C54.7228 21.1049 54.6071 20.9735 54.5064 20.831C54.3932 20.6774 54.2978 20.5099 54.2233 20.3316Z" fill="url(#paint0_linear_35_22310)"/>
</g>
</g>
<defs>
<linearGradient id="paint0_linear_35_22310" x1="7871.42" y1="7892.74" x2="1155.19" y2="1307.68" gradientUnits="userSpaceOnUse">
<stop stop-color="#00FFF0"/>
<stop offset="0.500947" stop-color="#4400FF"/>
<stop offset="1" stop-color="#0055FF"/>
</linearGradient>
<clipPath id="clip0_35_22310">
<rect width="86" height="86" fill="white" transform="translate(17 17)"/>
</clipPath>
</defs>
</svg>
