<svg width="120" height="120" viewBox="0 0 120 120" fill="none" xmlns="http://www.w3.org/2000/svg">
<g clip-path="url(#clip0_35_26659)">
<path d="M19 40.3462C19 28.0047 29.0047 18 41.3462 18H79.6538C91.9953 18 102 28.0047 102 40.3462V78.6538C102 90.9953 91.9953 101 79.6538 101H41.3462C29.0047 101 19 90.9953 19 78.6538V40.3462Z" fill="url(#paint0_linear_35_26659)"/>
<path fill-rule="evenodd" clip-rule="evenodd" d="M37.1992 38.75V51.1362C37.1992 52.8258 37.4828 54.4613 37.9944 55.9783C38.1573 56.4419 38.3313 56.8823 38.5271 57.3235C39.6278 59.7345 41.338 61.822 43.4729 63.3823C43.8544 63.6617 44.2571 63.9202 44.6707 64.1679C46.9912 65.5456 49.7027 66.342 52.5896 66.342H58.2859C58.9502 66.342 59.5934 66.2771 60.2147 66.1478C59.4297 62.6935 56.3148 60.1107 52.5896 60.0897H52.5457C50.9225 60.0789 49.3979 59.6478 48.0802 58.9055C45.9344 57.6896 44.3331 55.613 43.7565 53.1695C43.6578 52.7825 43.5927 52.3955 43.5606 51.986C43.5269 51.7066 43.5168 51.4272 43.5168 51.1362V38.75H37.1992Z" fill="white"/>
<path fill-rule="evenodd" clip-rule="evenodd" d="M43.4738 64.8025V80.2499H37.1562V62.2414V56.7267C37.3576 57.4806 37.6921 58.3273 37.8645 58.6578C39.1602 61.1493 41.1102 63.2638 43.4738 64.8025Z" fill="white"/>
<path fill-rule="evenodd" clip-rule="evenodd" d="M46.8499 52.6642C46.1848 52.6642 45.5431 52.7292 44.9219 52.8577C45.7061 56.3019 48.8319 58.884 52.5462 58.9057H52.59C54.2125 58.9165 55.7378 59.3476 57.0665 60.0899C59.2123 61.3166 60.8019 63.3824 61.3793 65.836C61.478 66.2121 61.543 66.6107 61.5767 67.0094C61.6088 67.2888 61.619 67.579 61.619 67.8693V80.25H67.9366V67.8693C67.9366 66.1804 67.6537 64.5442 67.1312 63.0163C66.9784 62.5651 66.8037 62.1131 66.5969 61.682C65.5079 59.2609 63.7977 57.1843 61.6629 55.6239C61.2814 55.3437 60.8787 55.0752 60.465 54.8383C58.1445 53.4614 55.4331 52.6642 52.5462 52.6642H46.8499Z" fill="white"/>
<path fill-rule="evenodd" clip-rule="evenodd" d="M78.0813 41.5156C77.287 42.2872 76.8906 43.2005 76.8906 44.2578C76.8906 45.3693 77.287 46.3097 78.0813 47.0806C78.874 47.8515 79.8357 48.2361 80.9617 48.2361C82.0878 48.2361 83.0384 47.8515 83.8135 47.0806C84.6086 46.3097 85.005 45.3778 85.005 44.2849C85.005 43.192 84.6086 42.2694 83.8135 41.5156C83.02 40.7454 82.0599 40.36 80.9338 40.36C79.8261 40.36 78.874 40.7454 78.0813 41.5156ZM84.275 80.2501H77.6225V54.0689H84.275V80.2501Z" fill="white"/>
<path fill-rule="evenodd" clip-rule="evenodd" d="M61.6191 54.198V38.7506H67.9367V56.7591V62.2738C67.7353 61.5199 67.4008 60.6732 67.2285 60.3427C65.9327 57.8512 63.9827 55.7367 61.6191 54.198Z" fill="white"/>
</g>
<defs>
<linearGradient id="paint0_linear_35_26659" x1="19.0071" y1="59.5051" x2="102.007" y2="59.5051" gradientUnits="userSpaceOnUse">
<stop stop-color="#3E5CF4"/>
<stop offset="0.05" stop-color="#425BF5"/>
<stop offset="0.36" stop-color="#595BFA"/>
<stop offset="0.65" stop-color="#685BFD"/>
<stop offset="0.9" stop-color="#6D5BFF"/>
</linearGradient>
<clipPath id="clip0_35_26659">
<rect width="83" height="83" fill="white" transform="translate(19 18)"/>
</clipPath>
</defs>
</svg>
