<svg width="120" height="120" viewBox="0 0 120 120" fill="none" xmlns="http://www.w3.org/2000/svg">
<path fill-rule="evenodd" clip-rule="evenodd" d="M80.6686 22.3105C85.8658 25.2583 89.7074 30.1181 91.3756 35.8555C92.0564 36.0991 92.7265 36.4073 93.3644 36.7764C93.4575 36.8301 93.5435 36.8839 93.6259 36.9448C94.4358 37.4357 95.1883 38.0234 95.8727 38.7006C97.0266 39.8552 97.935 41.2314 98.5432 42.7462C99.1513 44.261 99.4467 45.8833 99.4116 47.5153C99.3764 49.1473 99.0115 50.7553 98.3386 52.2425C97.6658 53.7298 96.699 55.0655 95.4964 56.1694C96.7949 57.3603 97.8175 58.8205 98.4928 60.4478C99.1681 62.0752 99.4798 63.8304 99.4061 65.5907C99.3324 67.3511 98.875 69.0741 98.066 70.6392C97.257 72.2044 96.1159 73.574 94.7224 74.6522L94.5899 74.7561L94.6651 74.8708C96.0626 77.028 96.7614 79.6151 96.5786 82.2704L96.5464 82.6645C96.3559 84.5435 95.7283 86.3519 94.7138 87.9449C93.6993 89.5378 92.326 90.8712 90.7038 91.8384C89.0815 92.8055 87.2555 93.3795 85.3717 93.5144C83.4879 93.6494 81.5987 93.3415 79.8552 92.6155C79.1396 94.6661 77.8853 96.4863 76.2239 97.8852C74.5625 99.2841 72.5552 100.21 70.4127 100.566C68.2701 100.922 66.0713 100.694 64.0469 99.9078C62.0225 99.1211 60.2471 97.8041 58.907 96.0949C57.0751 96.9738 55.0792 97.4584 53.0483 97.5175C52.9049 97.5354 52.7544 97.5461 52.6004 97.5461H49.3861L49.1424 97.5354C45.1434 97.2953 45.2259 91.175 49.3861 91.175H52.2671L52.4319 91.1606L52.6004 91.157C54.7862 91.1946 56.8974 90.3623 58.4696 88.8432C60.0417 87.3241 60.946 85.2427 60.9836 83.0569C61.0211 80.8711 60.1888 78.7599 58.6697 77.1877C57.1507 75.6156 55.0693 74.7112 52.8834 74.6737C52.7883 74.6849 52.6926 74.6909 52.5968 74.6916H27.0619C26.2171 74.6916 25.4068 74.356 24.8094 73.7586C24.212 73.1612 23.8764 72.3509 23.8764 71.506C23.8764 70.6612 24.212 69.8509 24.8094 69.2535C25.4068 68.6561 26.2171 68.3205 27.0619 68.3205H52.2671L52.4319 68.3061L52.6039 68.3025C54.6337 68.3066 56.5936 67.5614 58.108 66.2099C59.6224 64.8584 60.5848 62.9955 60.8108 60.9783C61.0367 58.9612 60.5104 56.9316 59.3325 55.2785C58.1547 53.6253 56.4082 52.465 54.4279 52.0199L53.9226 51.9088C53.5697 51.8292 53.2117 51.7741 52.8512 51.744C52.7678 51.7514 52.6841 51.755 52.6004 51.7547H27.0619C26.6349 51.769 26.2092 51.6973 25.8105 51.5437C25.4117 51.3902 25.0479 51.158 24.7407 50.8609C24.4335 50.5639 24.1892 50.208 24.0223 49.8146C23.8555 49.4212 23.7695 48.9982 23.7695 48.5709C23.7695 48.1436 23.8555 47.7206 24.0223 47.3272C24.1892 46.9338 24.4335 46.578 24.7407 46.2809C25.0479 45.9839 25.4117 45.7516 25.8105 45.5981C26.2092 45.4445 26.6349 45.3728 27.0619 45.3871H52.2707L52.4355 45.3728L52.6039 45.3692C54.7898 45.4105 56.9025 44.5819 58.4773 43.0655C60.0522 41.5491 60.9601 39.4692 61.0015 37.2834C61.0428 35.0976 60.2142 32.9849 58.6978 31.41C57.1814 29.8352 55.1015 28.9272 52.9157 28.8859C52.812 28.8953 52.708 28.9001 52.6039 28.9002H49.3897L49.1424 28.8966C45.1434 28.6565 45.2259 22.5362 49.3861 22.5362H52.2528C52.3682 22.524 52.4843 22.518 52.6004 22.5183C54.0409 22.5183 55.4312 22.7261 56.7463 23.1131L56.8574 23.0415C60.3788 20.7506 64.462 19.4711 68.6611 19.3428C72.8602 19.2146 77.0139 20.2424 80.6686 22.314V22.3105ZM67.2777 63.4615L67.034 63.5905L66.7366 63.7732C65.9346 66.8197 64.17 69.5257 61.7056 71.4881C63.4249 72.8552 64.8132 74.5929 65.7669 76.5716C66.7206 78.5503 67.215 80.7188 67.2132 82.9154C67.2176 86.2847 66.0524 89.551 63.9165 92.1568C64.7145 93.1811 65.8367 93.904 67.0993 94.2071C68.3618 94.5102 69.6899 94.3754 70.8659 93.8249C72.0419 93.2744 72.996 92.3408 73.5719 91.1771C74.1478 90.0133 74.3114 88.6885 74.0359 87.4196L73.9284 86.9753L73.8818 86.6922L73.8639 86.4915L73.8603 86.341L73.8639 86.1332L73.8818 85.9433L73.9284 85.6638L73.9929 85.4058L74.0717 85.1765L74.1971 84.8934L74.215 84.8575C74.3623 84.5706 74.5533 84.3083 74.7812 84.08L74.9783 83.8936L75.1252 83.779L75.3044 83.6535L75.4549 83.5604L75.6519 83.4529L75.9135 83.3454L76.1142 83.2737L76.2575 83.2343L76.537 83.177L76.7986 83.1447L76.9599 83.1375H77.1319L77.2788 83.1447L77.4866 83.1662L77.6873 83.202L77.9094 83.2558L78.0205 83.2916L78.1961 83.3525L78.3896 83.435L78.5473 83.5102L78.7372 83.6213L78.8626 83.7037C79.0776 83.8542 79.2711 84.0262 79.4467 84.2305L79.5829 84.3953L79.7047 84.5673C80.1493 85.256 80.7364 85.8414 81.4265 86.284C82.1165 86.7265 82.8935 87.0159 83.7049 87.1327C84.5163 87.2495 85.3433 87.1909 86.1302 86.9609C86.917 86.7309 87.6454 86.3348 88.2662 85.7994C88.8869 85.264 89.3857 84.6016 89.7287 83.8571C90.0718 83.1126 90.2512 82.3031 90.2548 81.4834C90.2585 80.6636 90.0863 79.8526 89.7499 79.105C89.4135 78.3574 88.9207 77.6907 88.3047 77.1498C87.7411 77.1992 87.1746 77.2076 86.6098 77.1749L86.4055 77.157L86.3124 77.139H86.255C83.7336 76.9171 81.3452 75.9098 79.4264 74.259C77.5075 72.6082 76.1548 70.3971 75.5588 67.937L75.4656 67.5214C75.3 66.6517 74.9353 65.8322 74.4001 65.1271C73.8648 64.4219 73.1735 63.8503 72.3804 63.4571C71.5872 63.0638 70.7138 62.8595 69.8285 62.8603C68.9432 62.8611 68.0701 63.0668 67.2777 63.4615ZM51.4537 79.9269C51.8808 79.9125 52.3064 79.9843 52.7052 80.1378C53.104 80.2914 53.4678 80.5236 53.775 80.8207C54.0822 81.1177 54.3265 81.4735 54.4933 81.867C54.6601 82.2604 54.7461 82.6833 54.7461 83.1107C54.7461 83.538 54.6601 83.961 54.4933 84.3544C54.3265 84.7478 54.0822 85.1036 53.775 85.4007C53.4678 85.6977 53.104 85.9299 52.7052 86.0835C52.3064 86.237 51.8808 86.3088 51.4537 86.2945H38.2814C37.4555 86.2667 36.6726 85.9192 36.0982 85.3251C35.5237 84.7311 35.2026 83.937 35.2026 83.1107C35.2026 82.2843 35.5237 81.4903 36.0982 80.8962C36.6726 80.3022 37.4555 79.9546 38.2814 79.9269H51.4537ZM84.449 42.2911C83.623 42.7686 82.9291 43.4447 82.4304 44.2582C81.9317 45.0716 81.6439 45.9967 81.5931 46.9495L81.5859 47.254C81.5859 48.0623 81.2786 48.8403 80.7264 49.4305C80.1742 50.0206 79.4182 50.3788 78.6118 50.4325L78.4004 50.4396C77.5921 50.4396 76.8141 50.1323 76.2239 49.5801C75.6338 49.0278 75.2756 48.2719 75.2219 47.4655L75.2148 47.254C75.2132 46.2021 74.9222 45.1708 74.3737 44.2732C73.8252 43.3755 73.0403 42.6461 72.105 42.1647C71.1696 41.6834 70.1199 41.4686 69.0706 41.544C68.0213 41.6194 67.0131 41.982 66.1561 42.5921C65.2026 44.9478 63.6529 47.0149 61.659 48.5906C64.2885 50.6703 66.124 53.5899 66.8584 56.861C68.4256 56.4619 70.0569 56.3813 71.6557 56.6239C73.2546 56.8664 74.7885 57.4273 76.1667 58.2733C77.5449 59.1193 78.7394 60.2332 79.6795 61.549C80.6196 62.8649 81.2861 64.3559 81.6397 65.934L81.7114 66.2672C81.9616 67.451 82.5799 68.5252 83.4778 69.3362C84.3756 70.1472 85.5071 70.6533 86.7101 70.7822L87.1544 70.818L87.3049 70.8252C87.5199 70.8252 87.7349 70.8145 87.9499 70.7894L88.2545 70.75L88.4767 70.6962C89.8372 70.4083 91.0466 69.6357 91.8798 68.5224C92.713 67.409 93.1132 66.0308 93.0058 64.6443C92.8984 63.2579 92.2908 61.9577 91.2961 60.986C90.3014 60.0142 88.9874 59.4371 87.5988 59.3621L87.3157 59.355C86.8485 59.3554 86.387 59.2529 85.964 59.0547C85.541 58.8565 85.1669 58.5675 84.8683 58.2083L84.7464 58.0506C84.4834 57.6934 84.2984 57.2848 84.2034 56.8515C84.1083 56.4181 84.1053 55.9697 84.1946 55.5351C84.3328 54.8535 84.6903 54.2359 85.2124 53.7765C85.7346 53.3171 86.3927 53.0412 87.0864 52.991L87.3157 52.9874C88.448 52.9869 89.5547 52.6511 90.4964 52.0224C91.4381 51.3937 92.1726 50.5003 92.6072 49.4548C93.0418 48.4092 93.1571 47.2584 92.9386 46.1474C92.7201 45.0364 92.1774 44.0151 91.3792 43.212C90.6045 42.4459 89.6275 41.9164 88.5627 41.6855L88.1972 41.6175C88.1056 41.6025 88.0147 41.5833 87.9249 41.5601C86.718 41.4277 85.5003 41.6838 84.449 42.2911ZM51.4859 56.9111C52.3308 56.9111 53.1411 57.2467 53.7385 57.8442C54.3359 58.4416 54.6715 59.2518 54.6715 60.0967C54.6715 60.9416 54.3359 61.7518 53.7385 62.3493C53.1411 62.9467 52.3308 63.2823 51.4859 63.2823H20.1891C19.3632 63.2546 18.5804 62.907 18.0059 62.313C17.4315 61.7189 17.1104 60.9249 17.1104 60.0985C17.1104 59.2721 17.4315 58.4781 18.0059 57.884C18.5804 57.29 19.3632 56.9424 20.1891 56.9147H51.4895L51.4859 56.9111ZM51.4501 33.8631C51.8772 33.8488 52.3028 33.9205 52.7016 34.0741C53.1004 34.2276 53.4642 34.4599 53.7714 34.7569C54.0786 35.054 54.3229 35.4098 54.4897 35.8032C54.6565 36.1966 54.7425 36.6196 54.7425 37.0469C54.7425 37.4742 54.6565 37.8972 54.4897 38.2906C54.3229 38.684 54.0786 39.0399 53.7714 39.3369C53.4642 39.634 53.1004 39.8662 52.7016 40.0197C52.3028 40.1733 51.8772 40.245 51.4501 40.2307H38.2849C37.8579 40.245 37.4322 40.1733 37.0335 40.0197C36.6347 39.8662 36.2709 39.634 35.9637 39.3369C35.6565 39.0399 35.4122 38.684 35.2453 38.2906C35.0785 37.8972 34.9925 37.4742 34.9925 37.0469C34.9925 36.6196 35.0785 36.1966 35.2453 35.8032C35.4122 35.4098 35.6565 35.054 35.9637 34.7569C36.2709 34.4599 36.6347 34.2276 37.0335 34.0741C37.4322 33.9205 37.8579 33.8488 38.2849 33.8631H51.4573H51.4501ZM63.2644 26.8613L63.0744 26.9365C65.3141 29.2341 66.7324 32.2069 67.1093 35.3932C69.1489 34.9837 71.2597 35.1072 73.2376 35.7519C75.2156 36.3966 76.9938 37.5405 78.4004 39.0733C80.0228 37.3004 82.1378 36.0527 84.4741 35.49C82.7309 31.5966 79.5524 28.5262 75.6011 26.9187C71.6497 25.3112 67.2305 25.2906 63.2644 26.8613Z" fill="currentColor"/>
</svg>
