<svg width="120" height="120" viewBox="0 0 120 120" fill="none" xmlns="http://www.w3.org/2000/svg">
<g clip-path="url(#clip0_35_21344)">
<mask id="mask0_35_21344" style="mask-type:luminance" maskUnits="userSpaceOnUse" x="17" y="17" width="86" height="86">
<path d="M84.1875 17H35.8125C25.4226 17 17 25.4226 17 35.8125V84.1875C17 94.5774 25.4226 103 35.8125 103H84.1875C94.5774 103 103 94.5774 103 84.1875V35.8125C103 25.4226 94.5774 17 84.1875 17Z" fill="white"/>
</mask>
<g mask="url(#mask0_35_21344)">
<path d="M84.1875 17H35.8125C25.4226 17 17 25.4226 17 35.8125V84.1875C17 94.5774 25.4226 103 35.8125 103H84.1875C94.5774 103 103 94.5774 103 84.1875V35.8125C103 25.4226 94.5774 17 84.1875 17Z" fill="white"/>
<g filter="url(#filter0_f_35_21344)">
<path d="M38.752 128.027C58.1866 128.027 73.9415 112.273 73.9415 92.8379C73.9415 73.4033 58.1866 57.6484 38.752 57.6484C19.3174 57.6484 3.5625 73.4033 3.5625 92.8379C3.5625 112.273 19.3174 128.027 38.752 128.027Z" fill="#4DEE9E"/>
</g>
<g filter="url(#filter1_f_35_21344)">
<path d="M17.7559 92.9219C41.2722 92.9219 60.336 73.8582 60.336 50.3418C60.336 26.8255 41.2722 7.76172 17.7559 7.76172C-5.76046 7.76172 -24.8242 26.8255 -24.8242 50.3418C-24.8242 73.8582 -5.76046 92.9219 17.7559 92.9219Z" fill="#F6F7FA"/>
</g>
<g filter="url(#filter2_f_35_21344)">
<path d="M73.9414 160.445C95.6488 160.445 113.246 142.848 113.246 121.141C113.246 99.4332 95.6488 81.8359 73.9414 81.8359C52.234 81.8359 34.6367 99.4332 34.6367 121.141C34.6367 142.848 52.234 160.445 73.9414 160.445Z" fill="#D6E807"/>
</g>
<path d="M98.1559 40.7094C101.8 37.6192 101.078 30.7081 96.5617 25.2582C92.0456 19.8083 85.4268 17.9105 81.8014 21.0024C78.1754 24.0943 78.879 31.0037 83.3951 36.4536C87.9111 41.9036 94.5095 43.8081 98.1559 40.7094Z" fill="black"/>
<path d="M21.8432 40.7094C18.2005 37.6192 18.9213 30.7081 23.4394 25.2582C27.9575 19.8083 34.5708 17.9105 38.1983 21.0024C41.8259 24.0943 41.1202 31.0037 36.6021 36.4536C32.084 41.9036 25.4876 43.8081 21.8432 40.7094Z" fill="black"/>
<path d="M33.7683 71.7062C30.1267 68.6139 30.8473 61.702 35.3639 56.2531C39.8806 50.8042 46.4919 48.8994 50.1183 51.99C53.7448 55.0806 53.0393 61.9926 48.5243 67.4432C44.0093 72.8936 37.4115 74.7969 33.7683 71.7062Z" fill="black"/>
<path d="M71.4698 67.4431C66.9548 61.9908 66.2343 55.079 69.8758 51.99C73.5177 48.9011 80.1219 50.8008 84.6305 56.253C89.1385 61.7053 89.8673 68.6155 86.2258 71.7062C82.5842 74.7968 75.9697 72.8769 71.4698 67.4431Z" fill="black"/>
<path d="M59.9951 73.38C63.1529 73.38 65.7061 71.7976 65.7061 69.8524C65.7061 67.9073 63.1529 66.3251 59.9951 66.3251C56.8373 66.3251 54.2842 67.9073 54.2842 69.8524C54.2842 71.7976 56.8373 73.38 59.9951 73.38Z" fill="black"/>
</g>
<path d="M84.1875 18.3438H35.8125C26.1648 18.3438 18.3438 26.1648 18.3438 35.8125V84.1875C18.3438 93.8352 26.1648 101.656 35.8125 101.656H84.1875C93.8352 101.656 101.656 93.8352 101.656 84.1875V35.8125C101.656 26.1648 93.8352 18.3438 84.1875 18.3438Z" stroke="white" stroke-opacity="0.08" stroke-width="2.6875"/>
</g>
<defs>
<filter id="filter0_f_35_21344" x="-30.0312" y="24.0547" width="137.566" height="137.566" filterUnits="userSpaceOnUse" color-interpolation-filters="sRGB">
<feFlood flood-opacity="0" result="BackgroundImageFix"/>
<feBlend mode="normal" in="SourceGraphic" in2="BackgroundImageFix" result="shape"/>
<feGaussianBlur stdDeviation="16.7969" result="effect1_foregroundBlur_35_21344"/>
</filter>
<filter id="filter1_f_35_21344" x="-41.6211" y="-9.03516" width="118.754" height="118.754" filterUnits="userSpaceOnUse" color-interpolation-filters="sRGB">
<feFlood flood-opacity="0" result="BackgroundImageFix"/>
<feBlend mode="normal" in="SourceGraphic" in2="BackgroundImageFix" result="shape"/>
<feGaussianBlur stdDeviation="8.39844" result="effect1_foregroundBlur_35_21344"/>
</filter>
<filter id="filter2_f_35_21344" x="1.04297" y="48.2422" width="145.797" height="145.797" filterUnits="userSpaceOnUse" color-interpolation-filters="sRGB">
<feFlood flood-opacity="0" result="BackgroundImageFix"/>
<feBlend mode="normal" in="SourceGraphic" in2="BackgroundImageFix" result="shape"/>
<feGaussianBlur stdDeviation="16.7969" result="effect1_foregroundBlur_35_21344"/>
</filter>
<clipPath id="clip0_35_21344">
<rect width="86" height="86" fill="white" transform="translate(17 17)"/>
</clipPath>
</defs>
</svg>
