<svg width="120" height="120" viewBox="0 0 120 120" fill="none" xmlns="http://www.w3.org/2000/svg">
<g clip-path="url(#clip0_35_22267)">
<path d="M63.7952 17.4499C64.253 17.9435 64.5545 18.5016 64.8434 19.1062C65.1959 19.7851 65.6853 20.3669 66.151 20.9709C66.667 21.6709 67.1749 22.3768 67.6769 23.087C67.7485 23.1881 67.82 23.2893 67.8938 23.3935C68.026 23.5811 68.1576 23.7692 68.2884 23.9578C68.6073 24.4288 68.6073 24.4288 69.066 24.7479C69.0726 24.6549 69.0792 24.5618 69.086 24.466C69.1939 23.1187 69.4041 21.791 69.6181 20.4576C69.6547 20.2265 69.6914 19.9954 69.7279 19.7642C69.8166 19.2043 69.906 18.6446 69.9958 18.0849C73.0627 18.6058 76.0499 19.8089 78.8282 21.184C78.9736 21.2557 79.1191 21.3275 79.2689 21.4014C84.3275 23.9195 84.3275 23.9195 85.4913 25.3677C85.4797 25.8824 85.4797 25.8824 85.3297 26.4603C85.3045 26.5624 85.2793 26.6645 85.2534 26.7696C85.1722 27.0945 85.0849 27.4173 84.9974 27.7405C84.9411 27.9608 84.8854 28.1812 84.83 28.4018C84.6936 28.9413 84.5516 29.4791 84.4066 30.0164C84.5489 29.9678 84.6911 29.9193 84.8377 29.8692C85.366 29.6896 85.8952 29.513 86.4249 29.3373C86.6539 29.2609 86.8826 29.1836 87.1111 29.1055C87.4397 28.9933 87.7691 28.8842 88.0989 28.7755C88.2007 28.74 88.3026 28.7045 88.4076 28.668C88.8435 28.5272 89.125 28.4387 89.5676 28.5849C90.7813 29.4722 91.8036 30.5809 92.7742 31.7209C92.884 31.8487 92.884 31.8487 92.9961 31.979C95.5631 34.9806 97.7014 38.3275 99.2823 41.9479C97.8666 42.5526 96.4054 43.0197 94.9435 43.4975C95.1744 43.6129 95.4053 43.7282 95.6364 43.8432C95.8505 43.9507 96.0639 44.0598 96.2766 44.1701C96.9672 44.5248 97.6598 44.8355 98.3828 45.119C101.049 46.2149 101.049 46.2149 101.564 47.3253C101.795 48.0083 101.918 48.6989 102.011 49.4125C102.073 49.8606 102.158 50.2979 102.251 50.7404C102.582 52.3227 102.867 53.8881 102.864 55.5092C102.864 55.6182 102.864 55.7272 102.864 55.8395C102.864 56.195 102.863 56.5504 102.861 56.9059C102.861 57.1543 102.861 57.4026 102.861 57.651C102.86 58.3011 102.859 58.9512 102.857 59.6013C102.855 60.2661 102.855 60.9309 102.854 61.5957C102.852 62.8975 102.849 64.1993 102.846 65.5011C102.309 65.3258 101.81 65.1575 101.319 64.8764C101.212 64.8155 101.104 64.7546 100.993 64.6919C100.822 64.5939 100.822 64.5939 100.648 64.4939C100.397 64.3526 100.146 64.2116 99.8942 64.0708C99.7663 63.999 99.6383 63.9272 99.5064 63.8532C96.0274 61.9113 92.3817 60.3043 88.7453 58.6831C89.3475 60.1069 89.9511 61.5297 90.5939 62.9358C92.7592 67.6746 94.655 72.5303 96.4218 77.4307C96.5818 77.874 96.7479 78.3146 96.9166 78.7546C97.0043 78.9888 97.0919 79.2231 97.1795 79.4573C97.2216 79.5643 97.2637 79.6712 97.3072 79.7814C97.5746 80.5077 97.6124 81.0218 97.4228 81.7713C97.2307 82.1612 97.2307 82.1612 96.9876 82.5183C96.8535 82.7178 96.8535 82.7178 96.7166 82.9214C96.6205 83.0596 96.5243 83.1979 96.4253 83.3403C96.3268 83.4845 96.2284 83.6287 96.127 83.7773C94.0271 86.8306 91.6209 89.9435 88.7453 92.3083C88.4582 92.5629 88.1712 92.8175 87.8846 93.0728C87.6606 93.238 87.6606 93.238 87.3507 93.238C87.2833 93.0619 87.2158 92.8857 87.1463 92.7042C83.8371 84.0798 80.1287 75.6596 76.0444 67.3764C75.8935 67.0699 75.7432 66.7631 75.5932 66.4562C75.3521 65.963 75.1099 65.4704 74.8672 64.9781C74.7998 64.84 74.7324 64.7019 74.663 64.5597C74.6023 64.4377 74.5417 64.3157 74.4792 64.19C74.4281 64.0865 74.3771 63.9829 74.3245 63.8762C74.1903 63.613 74.1903 63.613 73.8696 63.4867C73.8157 63.6828 73.7618 63.879 73.7062 64.0811C73.3129 65.3882 72.7985 66.6523 72.3007 67.9222C72.2467 68.0605 72.1927 68.1987 72.137 68.3411C70.9666 71.3315 69.7203 74.2876 68.4442 77.2343C68.2973 77.5735 68.1508 77.913 68.0044 78.2525C66.0108 82.8726 63.9178 87.4442 61.7133 91.9674C61.4954 92.4175 61.2808 92.8689 61.0683 93.3215C60.1356 95.306 59.1496 97.2613 58.1514 99.2135C58.0828 99.3481 58.0141 99.4828 57.9434 99.6215C57.7456 100.009 57.547 100.396 57.3482 100.783C57.289 100.899 57.2298 101.015 57.1688 101.135C57.0065 101.449 56.8402 101.761 56.6696 102.07C56.6185 102.164 56.5673 102.258 56.5146 102.354C56.1468 102.972 56.1468 102.972 55.7099 103.1C55.5886 103.092 55.4673 103.083 55.3422 103.075C55.1376 103.062 55.1376 103.062 54.9287 103.049C54.2157 102.968 53.5115 102.868 52.8055 102.739C52.6498 102.711 52.4942 102.682 52.3339 102.653C48.0562 101.856 43.4244 100.471 39.7796 98.0416C39.9971 97.4599 40.2635 96.9371 40.5749 96.4001C40.7221 96.1449 40.7221 96.1449 40.8722 95.8846C40.9244 95.7944 40.9767 95.7043 41.0306 95.6114C41.3123 95.1247 41.5919 94.6369 41.8714 94.149C41.9293 94.048 41.9872 93.947 42.0468 93.8429C43.7493 90.8675 45.3676 87.8517 46.932 84.8015C47.143 84.3922 47.3575 83.9849 47.5733 83.5781C48.5045 81.8226 49.3993 80.0526 50.2681 78.2655C50.3348 78.1284 50.4015 77.9913 50.4703 77.8501C53.3924 71.8408 56.1914 65.7199 58.5291 59.4578C56.0794 60.7638 53.6466 62.0916 51.2462 63.4867C51.0754 63.5855 50.9047 63.6844 50.7287 63.7863C48.2718 65.2091 45.8417 66.6665 43.4432 68.1865C43.0727 68.4206 42.7009 68.6525 42.3284 68.8834C38.7705 71.096 35.2843 73.4458 31.8769 75.8831C31.7612 75.9657 31.6454 76.0484 31.5262 76.1336C30.7104 76.7175 29.8983 77.3063 29.0877 77.8975C28.968 77.9845 28.8484 78.0716 28.7252 78.1613C28.3549 78.4311 27.9851 78.7016 27.6156 78.9725C27.4949 79.0609 27.3743 79.1493 27.25 79.2404C26.6089 79.7132 25.9773 80.1952 25.3542 80.6915C25.2267 80.7928 25.0991 80.8941 24.9677 80.9984C24.723 81.1938 24.4795 81.3905 24.2372 81.5888C24.128 81.676 24.0188 81.7632 23.9064 81.8531C23.8107 81.9309 23.715 82.0088 23.6164 82.0891C23.5299 82.1376 23.4434 82.1862 23.3543 82.2362C22.7555 82.0366 22.7183 81.8482 22.4294 81.298C22.3418 81.1312 22.2541 80.9645 22.1637 80.7926C22.0708 80.6106 21.978 80.4287 21.8823 80.2412C21.8345 80.1482 21.7867 80.0552 21.7375 79.9595C19.8776 76.3286 18.3189 72.4818 17.621 68.4452C17.593 68.3454 17.565 68.2455 17.5362 68.1426C17.4624 67.8236 17.4624 67.8236 17.466 67.2056C17.7681 66.7975 18.1606 66.5458 18.5798 66.2662C18.8244 66.0917 19.0689 65.9172 19.3134 65.7426C19.4425 65.6527 19.5717 65.5628 19.7047 65.4701C20.2299 65.0997 20.7408 64.712 21.2525 64.3232C29.557 58.0191 38.3843 52.3758 47.405 47.1569C48.17 46.7137 48.9333 46.2676 49.6967 45.8218C47.7859 45.2905 45.8596 44.8413 43.9246 44.4078C43.76 44.3709 43.5954 44.3341 43.4259 44.2961C36.2618 42.6963 29.0453 41.4373 21.8048 40.2434C21.9744 39.7069 22.1459 39.2095 22.4294 38.7229C22.4904 38.6182 22.5513 38.5135 22.614 38.4056C22.6793 38.2962 22.7447 38.1868 22.812 38.074C22.8806 37.9585 22.9492 37.843 23.0199 37.724C23.6924 36.6078 24.4283 35.5491 25.2138 34.5101C25.2819 34.4196 25.35 34.3292 25.4202 34.236C26.3048 33.0681 27.2367 31.9623 28.239 30.8941C28.5524 30.5569 28.8508 30.2145 29.1458 29.8614C29.6261 29.3085 30.1494 28.8097 30.6856 28.3119C30.7645 28.2384 30.8434 28.1649 30.9247 28.0891C31.0911 27.9368 31.2598 27.787 31.4304 27.6394C31.6476 27.4477 31.8571 27.2472 32.0621 27.0426C32.5837 26.5588 32.9987 26.1794 33.7187 26.082C34.2434 26.1167 34.7405 26.1975 35.2568 26.2975C35.4556 26.3301 35.6544 26.3627 35.8591 26.3964C36.3041 26.4697 36.7478 26.5479 37.1912 26.6296C37.827 26.7465 38.4639 26.8548 39.1015 26.9611C42.763 27.572 46.3985 28.2937 50.0268 29.077C50.2569 29.1263 50.2569 29.1263 50.4917 29.1765C50.7804 29.2384 51.069 29.301 51.3574 29.3645C51.6805 29.4336 52.0056 29.4936 52.3309 29.5515C52.382 29.5004 52.4332 29.4493 52.4859 29.3966C52.4274 29.3257 52.369 29.2548 52.3089 29.1818C52.0353 28.8499 51.7618 28.5179 51.4883 28.186C51.3888 28.0652 51.2893 27.9444 51.1867 27.8199C50.6528 27.1717 50.1204 26.5225 49.5901 25.8713C48.3699 24.3794 47.1184 22.9209 45.8228 21.4939C45.6154 21.2654 45.4087 21.0362 45.203 20.8062C45.1167 20.7106 45.0304 20.6149 44.9415 20.5163C44.7381 20.2542 44.7381 20.2542 44.5832 19.7894C47.0073 18.7245 49.5226 18.0418 52.1275 17.5812C52.2596 17.5579 52.3916 17.5345 52.5276 17.5104C61.8614 15.9658 61.8614 15.9658 63.7952 17.4499ZM67.0516 34.665C66.2227 35.7992 65.8258 37.0757 65.3859 38.3936C65.3047 38.6332 65.2235 38.8729 65.1423 39.1125C63.3696 43.5512 63.3696 43.5512 62.8678 48.1461C63.6673 49.5318 65.4744 49.9906 66.9064 50.4995C67.1504 50.5869 67.1504 50.5869 67.3993 50.676C68.85 51.1862 70.3156 51.643 71.7874 52.0878C71.9529 52.1378 71.9529 52.1378 72.1216 52.1888C74.5702 53.0908 74.5702 53.0908 77.0753 52.9497C79.6536 50.7198 80.507 45.3764 81.4043 42.1997C81.4427 42.0675 81.4811 41.9352 81.5206 41.7989C81.8038 40.7592 82.0073 39.7978 81.5224 38.7986C79.0299 36.0043 72.3773 34.5555 68.807 34.1536C68.0948 34.1495 67.6061 34.1721 67.0516 34.665Z" fill="#6A3CFD"/>
<path d="M65.5021 37.7638C65.7102 38.18 65.5784 38.4004 65.4385 38.825C65.4033 38.9278 65.3682 39.0307 65.332 39.1366C65.2786 39.2976 65.2786 39.2976 65.2242 39.4619C65.1476 39.6929 65.0706 39.9237 64.9931 40.1543C64.792 40.7549 64.5955 41.3569 64.3992 41.9591C64.3409 42.1379 64.3409 42.1379 64.2814 42.3204C63.9619 43.3045 63.659 44.2921 63.3811 45.2888C63.3435 45.4191 63.3058 45.5494 63.267 45.6836C63.0099 46.6301 62.7816 47.6634 63.2359 48.5719C64.2663 49.4551 65.6426 49.8951 66.9064 50.3442C67.1504 50.4316 67.1504 50.4316 67.3993 50.5207C68.85 51.0309 70.3156 51.4877 71.7874 51.9325C71.9529 51.9825 71.9529 51.9825 72.1216 52.0335C74.595 52.9652 74.595 52.9652 77.0947 52.746C77.3885 52.5193 77.6497 52.2946 77.8985 52.0196C77.6993 53.0715 77.3957 54.0803 76.9881 55.0703C76.6918 55.7904 76.4465 56.5218 76.2047 57.2617C75.8075 58.4664 75.3611 59.6528 74.9186 60.8413C74.5998 61.6987 74.2865 62.5579 73.987 63.4223C73.406 65.0994 72.7698 66.7501 72.107 68.3965C72.0274 68.5949 72.0274 68.5949 71.9461 68.7975C68.7994 76.635 65.4136 84.3747 61.7133 91.967C61.4954 92.4171 61.2808 92.8685 61.0683 93.3212C60.1356 95.3057 59.1496 97.2609 58.1514 99.2131C58.0828 99.3478 58.0141 99.4824 57.9434 99.6212C57.7456 100.009 57.547 100.396 57.3482 100.783C57.289 100.899 57.2298 101.015 57.1688 101.134C57.0065 101.449 56.8402 101.76 56.6696 102.07C56.6185 102.164 56.5673 102.257 56.5146 102.354C56.1468 102.971 56.1468 102.971 55.7099 103.1C55.5886 103.091 55.4673 103.083 55.3422 103.074C55.1376 103.062 55.1376 103.062 54.9287 103.048C54.2157 102.968 53.5115 102.867 52.8055 102.738C52.6498 102.71 52.4942 102.682 52.3339 102.653C48.0562 101.856 43.4244 100.471 39.7796 98.0413C39.9971 97.4595 40.2635 96.9368 40.5749 96.3997C40.7221 96.1446 40.7221 96.1446 40.8722 95.8843C40.9244 95.7941 40.9767 95.7039 41.0306 95.611C41.3123 95.1244 41.5919 94.6365 41.8714 94.1486C41.9293 94.0476 41.9872 93.9466 42.0468 93.8426C43.7493 90.8672 45.3676 87.8513 46.932 84.8012C47.143 84.3919 47.3575 83.9845 47.5733 83.5777C48.5045 81.8223 49.3993 80.0522 50.2681 78.2651C50.3348 78.1281 50.4015 77.991 50.4703 77.8497C53.3924 71.8405 56.1914 65.7196 58.5291 59.4575C56.0794 60.7635 53.6466 62.0912 51.2462 63.4863C50.99 63.6346 50.99 63.6346 50.7287 63.7859C48.2718 65.2088 45.8417 66.6662 43.4432 68.1861C43.0727 68.4202 42.7009 68.6522 42.3284 68.8831C38.7705 71.0957 35.2843 73.4454 31.8769 75.8827C31.7612 75.9654 31.6454 76.0481 31.5262 76.1332C30.7104 76.7172 29.8983 77.306 29.0877 77.8971C28.968 77.9842 28.8484 78.0713 28.7252 78.161C28.3549 78.4308 27.9851 78.7012 27.6156 78.9721C27.4949 79.0605 27.3743 79.1489 27.25 79.24C26.6089 79.7128 25.9773 80.1948 25.3542 80.6912C25.2267 80.7924 25.0991 80.8937 24.9677 80.9981C24.723 81.1934 24.4795 81.3902 24.2372 81.5885C24.128 81.6757 24.0188 81.7629 23.9064 81.8527C23.8107 81.9306 23.715 82.0085 23.6164 82.0887C23.5299 82.1373 23.4434 82.1858 23.3543 82.2359C22.7555 82.0362 22.7183 81.8479 22.4294 81.2977C22.3418 81.1309 22.2541 80.9641 22.1637 80.7923C22.0708 80.6103 21.978 80.4283 21.8823 80.2408C21.8345 80.1479 21.7867 80.0549 21.7375 79.9591C19.8776 76.3283 18.3189 72.4815 17.621 68.4449C17.593 68.345 17.565 68.2452 17.5362 68.1423C17.4624 67.8232 17.4624 67.8232 17.466 67.2052C17.7681 66.7972 18.1606 66.5455 18.5798 66.2658C18.8244 66.0914 19.0689 65.9168 19.3134 65.7422C19.4425 65.6523 19.5717 65.5624 19.7047 65.4698C20.2299 65.0994 20.7408 64.7116 21.2525 64.3229C29.5573 58.0185 38.3847 52.3684 47.4092 47.1545C47.7131 46.9782 48.0163 46.8007 48.3191 46.6224C49.1226 46.1496 49.9216 45.6922 50.762 45.2888C51.4793 44.9374 52.1734 44.5666 52.8636 44.1636C54.0668 43.4687 55.2969 42.8312 56.5341 42.1994C56.7673 42.0799 57.0005 41.9603 57.2338 41.8408C59.0041 40.9348 60.7799 40.0395 62.5579 39.1487C62.68 39.0875 62.802 39.0263 62.9277 38.9632C63.2724 38.7904 63.6172 38.6181 63.9622 38.446C64.0646 38.3946 64.167 38.3432 64.2725 38.2903C64.6792 38.0881 65.0705 37.9077 65.5021 37.7638Z" fill="#4F19FD"/>
<path d="M89.8291 28.7767C90.9203 29.6512 91.8688 30.6585 92.7732 31.7208C92.8465 31.806 92.9198 31.8912 92.9952 31.979C95.5622 34.9806 97.7005 38.3274 99.2813 41.9479C97.8657 42.5525 96.4045 43.0197 94.9426 43.4974C95.1735 43.6128 95.4044 43.7282 95.6354 43.8432C95.8496 43.9507 96.063 44.0597 96.2757 44.1701C96.9663 44.5248 97.6589 44.8355 98.3819 45.119C101.048 46.2149 101.048 46.2149 101.563 47.3253C101.794 48.0082 101.917 48.6989 102.011 49.4125C102.072 49.8606 102.157 50.2979 102.25 50.7403C102.581 52.3226 102.866 53.888 102.863 55.5091C102.863 55.6181 102.863 55.7271 102.863 55.8394C102.863 56.1949 102.862 56.5504 102.86 56.9059C102.86 57.1542 102.86 57.4026 102.86 57.651C102.859 58.3011 102.858 58.9511 102.856 59.6012C102.854 60.266 102.854 60.9309 102.853 61.5957C102.851 62.8975 102.849 64.1992 102.845 65.501C102.309 65.3257 101.809 65.1574 101.318 64.8764C101.211 64.8155 101.103 64.7546 100.992 64.6919C100.878 64.6265 100.764 64.5611 100.647 64.4938C100.396 64.3526 100.145 64.2115 99.8933 64.0707C99.7653 63.9989 99.6374 63.9271 99.5055 63.8532C96.0264 61.9113 92.3807 60.3043 88.7444 58.683C89.3466 60.1069 89.9501 61.5297 90.593 62.9358C92.7583 67.6745 94.6541 72.5302 96.4209 77.4307C96.5808 77.874 96.747 78.3145 96.9157 78.7546C97.0034 78.9888 97.091 79.223 97.1786 79.4573C97.2207 79.5642 97.2628 79.6712 97.3062 79.7814C97.5736 80.5076 97.6115 81.0218 97.4219 81.7713C97.2297 82.1612 97.2297 82.1612 96.9867 82.5182C96.8973 82.6513 96.8078 82.7843 96.7157 82.9213C96.6196 83.0596 96.5234 83.1978 96.4244 83.3402C96.3259 83.4844 96.2275 83.6286 96.1261 83.7772C94.0261 86.8305 91.62 89.9434 88.7444 92.3082C88.4573 92.5629 88.1702 92.8175 87.8837 93.0727C87.6597 93.238 87.6597 93.238 87.3498 93.238C87.2824 93.0618 87.2149 92.8856 87.1454 92.7041C83.6462 83.5847 79.7292 74.6567 75.3233 65.9386C75.2428 65.7794 75.1624 65.6202 75.0795 65.4561C74.9368 65.1749 74.7932 64.8942 74.6485 64.6141C73.9314 63.2073 73.9314 63.2073 74.1738 62.3129C74.2509 62.0997 74.3301 61.8873 74.4111 61.6756C74.4533 61.5604 74.4956 61.4452 74.5391 61.3265C74.8882 60.3824 75.2617 59.4477 75.6327 58.512C76.0182 57.526 76.3437 56.5257 76.6516 55.5132C77.2102 53.6784 77.2102 53.6784 77.5973 52.9497C77.7714 52.6061 77.7714 52.6061 77.8776 52.0641C78.0247 51.4636 78.2483 50.9415 78.5174 50.3832C79.6996 47.8018 80.4696 44.9689 81.2291 42.2384C81.2649 42.1113 81.3006 41.9843 81.3375 41.8534C81.5187 41.1788 81.6465 40.5175 81.7381 39.8251C81.9688 38.2457 82.428 36.716 82.8464 35.1783C82.9308 34.8647 83.015 34.551 83.0991 34.2373C83.5267 32.6493 83.5267 32.6493 83.677 32.1148C83.7527 31.8407 83.8242 31.5654 83.8923 31.2894C83.9287 31.1506 83.965 31.0118 84.0025 30.8688C84.0336 30.7437 84.0647 30.6187 84.0968 30.4899C84.3004 30.0684 84.5192 29.9795 84.9444 29.8021C85.2283 29.7141 85.5138 29.6307 85.8003 29.5515C86.0924 29.4497 86.3842 29.3468 86.6755 29.2428C86.9711 29.1449 87.2669 29.0477 87.5629 28.951C87.7133 28.8995 87.8637 28.848 88.0187 28.7949C88.1635 28.7477 88.3083 28.7006 88.4575 28.652C88.6521 28.5873 88.6521 28.5873 88.8506 28.5213C89.2913 28.4543 89.4597 28.5379 89.8291 28.7767Z" fill="#9879FE"/>
<path d="M65.5021 37.7638C65.7102 38.18 65.5784 38.4004 65.4385 38.825C65.4033 38.9278 65.3682 39.0307 65.332 39.1366C65.2964 39.2439 65.2608 39.3513 65.2242 39.4618C65.1476 39.6928 65.0706 39.9235 64.9932 40.1542C64.7917 40.7556 64.5947 41.3585 64.398 41.9615C64.3396 42.1405 64.3396 42.1405 64.28 42.3232C63.9652 43.2929 63.6702 44.2667 63.4005 45.2501C63.3654 45.3751 63.3304 45.5002 63.2942 45.6291C63.1076 46.3261 62.9822 47.0124 62.8848 47.7275C62.6524 49.3039 62.0678 50.7627 61.5192 52.2512C61.2593 52.9654 61.032 53.6849 60.8163 54.4137C59.3481 59.3236 59.3481 59.3236 57.2925 60.4544C56.5544 60.8223 55.7946 61.1289 55.023 61.4196C54.2643 61.7204 53.5813 62.1183 52.8829 62.5372C52.6228 62.6878 52.3625 62.8381 52.1021 62.9882C51.8168 63.1542 51.5315 63.3202 51.2462 63.4863C50.9831 63.6387 50.7201 63.791 50.457 63.9434C48.0913 65.3146 45.7531 66.7223 43.4432 68.1861C43.0727 68.4202 42.7009 68.6522 42.3284 68.8831C38.7705 71.0957 35.2843 73.4454 31.8769 75.8827C31.7612 75.9654 31.6454 76.0481 31.5262 76.1332C30.7104 76.7172 29.8983 77.306 29.0877 77.8971C28.968 77.9842 28.8484 78.0713 28.7252 78.161C28.3549 78.4308 27.9851 78.7012 27.6156 78.9721C27.4949 79.0605 27.3743 79.1489 27.25 79.24C26.6089 79.7128 25.9773 80.1948 25.3542 80.6912C25.2267 80.7924 25.0991 80.8937 24.9677 80.9981C24.723 81.1934 24.4795 81.3902 24.2372 81.5885C24.128 81.6757 24.0188 81.7629 23.9064 81.8527C23.8107 81.9306 23.715 82.0085 23.6164 82.0887C23.5299 82.1373 23.4434 82.1858 23.3543 82.2359C22.7555 82.0362 22.7183 81.8479 22.4294 81.2977C22.3418 81.1309 22.2541 80.9641 22.1637 80.7923C22.0708 80.6103 21.978 80.4283 21.8823 80.2408C21.8345 80.1479 21.7867 80.0549 21.7375 79.9591C19.8776 76.3283 18.3189 72.4815 17.621 68.4449C17.593 68.345 17.565 68.2452 17.5362 68.1423C17.4624 67.8232 17.4624 67.8232 17.466 67.2052C17.7681 66.7972 18.1606 66.5455 18.5798 66.2658C18.8244 66.0914 19.0689 65.9168 19.3134 65.7422C19.4425 65.6523 19.5717 65.5624 19.7047 65.4698C20.2299 65.0994 20.7408 64.7116 21.2525 64.3229C29.5573 58.0185 38.3847 52.3684 47.4092 47.1545C47.7131 46.9782 48.0163 46.8007 48.3191 46.6224C49.1226 46.1496 49.9216 45.6922 50.762 45.2888C51.4793 44.9374 52.1734 44.5666 52.8636 44.1636C54.0668 43.4687 55.2969 42.8312 56.5341 42.1994C56.7673 42.0799 57.0005 41.9603 57.2338 41.8408C59.0041 40.9348 60.7799 40.0395 62.5579 39.1487C62.68 39.0875 62.802 39.0263 62.9277 38.9632C63.2724 38.7904 63.6172 38.6181 63.9622 38.446C64.0646 38.3946 64.167 38.3432 64.2725 38.2903C64.6792 38.0881 65.0705 37.9077 65.5021 37.7638Z" fill="#5D2AFD"/>
<path d="M63.793 17.4499C64.2509 17.9435 64.5524 18.5016 64.8413 19.1062C65.1938 19.7851 65.6832 20.3669 66.1488 20.9709C66.6649 21.6709 67.1728 22.3768 67.6748 23.087C67.7464 23.1881 67.8179 23.2893 67.8917 23.3935C68.0239 23.5811 68.1555 23.7692 68.2863 23.9578C68.6052 24.4288 68.6052 24.4288 69.0639 24.7479C69.0705 24.6549 69.0771 24.5618 69.0839 24.466C69.1918 23.1187 69.402 21.791 69.616 20.4576C69.6526 20.2265 69.6893 19.9954 69.7258 19.7642C69.8145 19.2043 69.9039 18.6446 69.9937 18.0849C73.0606 18.6058 76.0478 19.8089 78.8261 21.184C78.9715 21.2557 79.117 21.3275 79.2668 21.4014C81.1557 22.3416 83.0308 23.3114 84.7144 24.593C84.8602 24.6854 85.006 24.7779 85.1562 24.8732C85.5597 25.4724 85.5072 25.5986 85.3735 26.2866C85.2794 26.6696 85.1802 27.0512 85.077 27.4318C85.0241 27.639 84.9717 27.8464 84.9196 28.0538C84.7812 28.6 84.6372 29.1446 84.4916 29.6889C84.3791 30.1118 84.2694 30.5353 84.1597 30.9589C83.841 32.1898 83.5123 33.4179 83.1807 34.6455C83.0378 35.1754 82.8957 35.7056 82.7535 36.2358C82.4783 37.262 82.2021 38.2879 81.9252 39.3137C81.8229 39.3137 81.7207 39.3137 81.6153 39.3137C81.5518 39.1978 81.4883 39.082 81.4228 38.9626C79.9239 36.6309 74.6699 35.789 72.2047 35.1166C71.2377 34.8516 70.2879 34.5584 69.34 34.2335C67.6908 33.6727 66.0145 33.2158 64.3337 32.7604C63.7746 32.6089 63.216 32.4557 62.6574 32.3025C60.9056 31.8248 59.1536 31.3651 57.3812 30.9697C57.2344 30.9364 57.0876 30.9031 56.9364 30.8688C56.258 30.7152 55.5795 30.5674 54.8976 30.4306C53.365 30.1024 52.4696 29.6369 51.554 28.3119C51.4071 28.1279 51.2594 27.9446 51.1103 27.7623C50.9834 27.5972 50.8569 27.4317 50.7308 27.2659C50.0662 26.406 49.3742 25.5753 48.6623 24.7541C48.1979 24.2179 47.7459 23.6746 47.3025 23.1209C46.6499 22.313 45.9458 21.5592 45.2263 20.8111C44.5811 20.132 44.5811 20.132 44.5811 19.7894C47.0052 18.7245 49.5205 18.0418 52.1254 17.5812C52.2575 17.5579 52.3895 17.5345 52.5255 17.5104C61.8593 15.9658 61.8593 15.9658 63.793 17.4499Z" fill="#7A51FD"/>
<path d="M77.2777 54.0342C78.4865 54.3357 79.6298 54.7275 80.7836 55.1951C80.9491 55.2614 81.1146 55.3277 81.2852 55.396C81.6327 55.5354 81.9802 55.6753 82.3274 55.8156C82.8543 56.0285 83.3818 56.2399 83.9093 56.4511C84.2491 56.5876 84.5889 56.7242 84.9286 56.8609C85.084 56.9232 85.2393 56.9856 85.3993 57.0498C86.1609 57.358 86.919 57.6738 87.6719 58.0029C87.8096 58.0628 87.9473 58.1227 88.0891 58.1844C88.6263 58.4776 88.7981 58.8255 89.0349 59.3801C89.0823 59.4864 89.1297 59.5928 89.1785 59.7023C89.2869 59.9467 89.3928 60.1922 89.4968 60.4385C89.6895 60.8881 89.8938 61.3312 90.1003 61.7747C92.5252 67.0209 94.6352 72.4104 96.5646 77.8565C96.7177 78.2872 96.8772 78.7144 97.0438 79.1401C97.1164 79.3296 97.1891 79.5191 97.2639 79.7143C97.3283 79.8771 97.3926 80.0398 97.4589 80.2074C97.6359 80.9265 97.5566 81.4977 97.2297 82.161C97.1495 82.2788 97.0693 82.3967 96.9867 82.5181C96.8973 82.6511 96.8078 82.7841 96.7157 82.9212C96.6196 83.0594 96.5234 83.1976 96.4244 83.34C96.3259 83.4843 96.2275 83.6285 96.1261 83.7771C94.0261 86.8303 91.62 89.9433 88.7444 92.3081C88.4573 92.5627 88.1702 92.8173 87.8837 93.0725C87.6597 93.2378 87.6597 93.2378 87.3498 93.2378C87.2486 92.9735 87.2486 92.9735 87.1454 92.704C83.6462 83.5846 79.7292 74.6565 75.3233 65.9385C75.2428 65.7792 75.1624 65.62 75.0795 65.4559C74.9368 65.1748 74.7932 64.894 74.6485 64.6139C73.9314 63.2071 73.9314 63.2071 74.1738 62.3128C74.2509 62.0996 74.3301 61.8871 74.4111 61.6754C74.4533 61.5602 74.4956 61.445 74.5391 61.3264C74.888 60.3828 75.2608 59.4483 75.6324 58.5135C76.0271 57.5058 76.3555 56.4816 76.6652 55.4449C76.7005 55.3279 76.7359 55.2109 76.7723 55.0904C76.8027 54.9873 76.8332 54.8841 76.8645 54.7778C76.9678 54.499 76.9678 54.499 77.2777 54.0342Z" fill="#A387FE"/>
<path d="M89.8296 28.7767C90.9208 29.6512 91.8693 30.6585 92.7737 31.7208C92.847 31.806 92.9202 31.8912 92.9957 31.979C95.5627 34.9806 97.701 38.3274 99.2818 41.9479C98.3887 42.3315 97.4827 42.6568 96.5556 42.9478C96.4475 42.9817 96.3394 43.0157 96.2281 43.0506C95.9979 43.1228 95.7677 43.195 95.5375 43.2672C90.8881 44.7318 86.3511 46.5124 81.8599 48.4032C81.7569 48.4464 81.6538 48.4896 81.5477 48.5341C81.2735 48.6491 80.9997 48.7649 80.7259 48.8808C80.2003 49.0843 79.6815 49.2391 79.1377 49.3857C79.3948 48.0828 79.799 46.8327 80.203 45.5699C81.1502 42.7142 81.1502 42.7142 81.7532 39.7755C81.9713 38.2125 82.4333 36.6984 82.8469 35.1783C82.9313 34.8647 83.0155 34.551 83.0996 34.2373C83.5272 32.6493 83.5272 32.6493 83.6774 32.1148C83.7532 31.8407 83.8247 31.5654 83.8928 31.2894C83.9292 31.1506 83.9655 31.0118 84.003 30.8688C84.0341 30.7437 84.0652 30.6187 84.0973 30.4899C84.3009 30.0684 84.5197 29.9795 84.9449 29.8021C85.2288 29.7141 85.5142 29.6307 85.8008 29.5515C86.0929 29.4497 86.3847 29.3468 86.676 29.2428C86.9716 29.1449 87.2674 29.0477 87.5634 28.951C87.7138 28.8995 87.8642 28.848 88.0192 28.7949C88.164 28.7477 88.3088 28.7006 88.458 28.652C88.5877 28.6089 88.7174 28.5658 88.8511 28.5213C89.2918 28.4543 89.4602 28.5379 89.8296 28.7767Z" fill="#8C69FE"/>
</g>
<defs>
<clipPath id="clip0_35_22267">
<rect width="86" height="86" fill="white" transform="translate(17 17)"/>
</clipPath>
</defs>
</svg>
