<svg width="120" height="120" viewBox="0 0 120 120" fill="none" xmlns="http://www.w3.org/2000/svg">
<path d="M60.3031 18.8139C37.3753 18.8139 18.7852 37.4037 18.7852 60.3311C18.7852 72.8483 24.3278 84.071 33.0858 91.6859L53.6245 49.5696H76.6004L51.559 100.919C54.3819 101.525 57.3011 101.842 60.3031 101.842C83.231 101.842 101.821 83.2516 101.821 60.3243C101.821 37.3968 83.231 18.807 60.3031 18.807V18.8139Z" fill="url(#paint0_linear_35_26679)"/>
<path d="M33.0858 91.679L55.7451 45.2183C55.8071 45.0875 55.8691 44.9567 55.9379 44.8258L56.2478 44.1855H56.2614C60.2755 36.6601 68.2006 31.5376 77.3234 31.5376C87.2383 31.5376 95.7416 37.5896 99.3495 46.196C93.5726 30.2225 78.2667 18.807 60.3031 18.807C37.3753 18.807 18.7852 37.3968 18.7852 60.3243C18.7852 72.8415 24.3278 84.0642 33.0858 91.679Z" fill="url(#paint1_linear_35_26679)"/>
<defs>
<linearGradient id="paint0_linear_35_26679" x1="66.37" y1="35.8832" x2="63.126" y2="94.5778" gradientUnits="userSpaceOnUse">
<stop offset="0.313072" stop-color="#9EC0E0"/>
<stop offset="1" stop-color="white"/>
</linearGradient>
<linearGradient id="paint1_linear_35_26679" x1="67.3329" y1="33.7684" x2="38.5146" y2="80.631" gradientUnits="userSpaceOnUse">
<stop stop-color="white"/>
<stop offset="1" stop-color="#BCD5EC"/>
</linearGradient>
</defs>
</svg>
