<svg width="120" height="120" viewBox="0 0 120 120" fill="none" xmlns="http://www.w3.org/2000/svg">
<path fill-rule="evenodd" clip-rule="evenodd" d="M60.1016 47.6232L60.073 47.6411L70.9305 66.4536C72.4371 68.7562 73.2379 71.449 73.2346 74.2007C73.2346 76.9026 72.4749 79.4324 71.1562 81.5896L93.2761 74.4552L58.6755 17L50.3406 30.8747L60.1016 47.6232ZM41.5006 103L58.8797 88.4768H58.8331C50.8817 88.4768 44.4389 82.0841 44.4389 74.2007C44.4389 71.3556 45.281 68.7039 46.7322 66.4751L56.9985 48.6444L48.4666 33.9993L24.168 74.4552L41.4755 103H41.5006ZM66.2256 86.4522H66.222L46.4635 103H75.7823L90.646 78.7444L66.2256 86.4522Z" fill="currentColor"/>
</svg>
