<svg width="120" height="120" viewBox="0 0 120 120" fill="none" xmlns="http://www.w3.org/2000/svg">
<g clip-path="url(#clip0_36_27157)">
<path d="M95.0833 18H25.9167C22.0967 18 19 21.0967 19 24.9167V94.0833C19 97.9033 22.0967 101 25.9167 101H95.0833C98.9033 101 102 97.9033 102 94.0833V24.9167C102 21.0967 98.9033 18 95.0833 18Z" fill="url(#paint0_linear_36_27157)"/>
<path fill-rule="evenodd" clip-rule="evenodd" d="M34.1038 31.8335C33.6219 31.8335 33.1446 31.9284 32.6993 32.1129C32.2541 32.2973 31.8495 32.5676 31.5087 32.9084C31.1679 33.2492 30.8976 33.6538 30.7132 34.099C30.5287 34.5443 30.4338 35.0216 30.4338 35.5035C30.4338 35.9855 30.5287 36.4627 30.7132 36.9079C30.8976 37.3532 31.1679 37.7578 31.5087 38.0986C31.8495 38.4394 32.2541 38.7097 32.6993 38.8941C33.1446 39.0786 33.6219 39.1735 34.1038 39.1735H74.7576C75.7311 39.1735 76.6645 38.7869 77.3527 38.0986C78.0409 37.4103 78.4276 36.4769 78.4276 35.5035C78.4276 34.5302 78.0409 33.5967 77.3527 32.9084C76.6645 32.2202 75.7311 31.8335 74.7576 31.8335H34.1038ZM48.7867 41.43C47.813 41.43 46.8791 41.8168 46.1906 42.5053C45.5021 43.1938 45.1152 44.1277 45.1152 45.1014C45.1152 46.0752 45.5021 47.009 46.1906 47.6975C46.8791 48.386 47.813 48.7729 48.7867 48.7729H89.4348C90.3903 48.7461 91.2978 48.3477 91.9642 47.6623C92.6306 46.977 93.0034 46.0588 93.0034 45.1028C93.0034 44.1469 92.6306 43.2287 91.9642 42.5434C91.2978 41.858 90.3903 41.4596 89.4348 41.4329L48.7867 41.43ZM36.3631 54.7007C36.3631 52.672 38.0058 51.0293 40.0346 51.0293H80.6855C81.6411 51.0561 82.5485 51.4545 83.2149 52.1399C83.8814 52.8252 84.2542 53.7434 84.2542 54.6993C84.2542 55.6552 83.8814 56.5734 83.2149 57.2588C82.5485 57.9443 81.6411 58.3427 80.6855 58.3693H40.0346C38.0086 58.3693 36.3631 56.7266 36.3631 54.7007ZM29.588 61.1934C28.6146 61.1934 27.6811 61.5804 26.9929 62.2686C26.3046 62.9568 25.918 63.8902 25.918 64.8637C25.918 65.8369 26.3046 66.7703 26.9929 67.4585C27.6811 68.147 28.6146 68.5337 29.588 68.5337H70.2417C71.1976 68.5067 72.1047 68.1083 72.7711 67.4229C73.4375 66.7378 73.8104 65.8196 73.8104 64.8637C73.8104 63.9075 73.4375 62.9893 72.7711 62.3042C72.1047 61.6187 71.1976 61.2203 70.2417 61.1934H29.588ZM36.3631 74.4616C36.3631 72.4326 38.0058 70.7899 40.0346 70.7899H80.6855C81.659 70.7899 82.5924 71.1765 83.2807 71.8651C83.9689 72.5533 84.3555 73.4867 84.3555 74.4599C84.3555 75.4334 83.9689 76.3668 83.2807 77.055C82.5924 77.7432 81.659 78.1299 80.6855 78.1299H40.0346C38.0086 78.1299 36.3631 76.4875 36.3631 74.4616ZM63.4668 80.3892C62.4933 80.3892 61.5599 80.7762 60.8717 81.4644C60.1835 82.1526 59.7968 83.086 59.7968 84.0595C59.7968 85.0327 60.1835 85.9661 60.8717 86.6543C61.5599 87.3429 62.4933 87.7295 63.4668 87.7295H91.4147C92.3878 87.7295 93.3216 87.3429 94.0098 86.6543C94.698 85.9661 95.0846 85.0327 95.0846 84.0595C95.0846 83.086 94.698 82.1526 94.0098 81.4644C93.3216 80.7762 92.3878 80.3892 91.4147 80.3892H63.4668Z" fill="white" fill-opacity="0.2"/>
<path fill-rule="evenodd" clip-rule="evenodd" d="M34.1038 31.8335C33.6219 31.8335 33.1446 31.9284 32.6993 32.1129C32.2541 32.2973 31.8495 32.5676 31.5087 32.9084C31.1679 33.2492 30.8976 33.6538 30.7132 34.099C30.5287 34.5443 30.4338 35.0216 30.4338 35.5035C30.4338 35.9855 30.5287 36.4627 30.7132 36.9079C30.8976 37.3532 31.1679 37.7578 31.5087 38.0986C31.8495 38.4394 32.2541 38.7097 32.6993 38.8941C33.1446 39.0786 33.6219 39.1735 34.1038 39.1735H63.749C64.7046 39.1467 65.612 38.7483 66.2785 38.063C66.9449 37.3777 67.3177 36.4594 67.3177 35.5035C67.3177 34.5476 66.9449 33.6293 66.2785 32.944C65.612 32.2587 64.7046 31.8603 63.749 31.8335H34.1038ZM48.7867 41.43C47.813 41.43 46.8791 41.8168 46.1906 42.5053C45.5021 43.1938 45.1152 44.1277 45.1152 45.1014C45.1152 46.0752 45.5021 47.009 46.1906 47.6975C46.8791 48.386 47.813 48.7729 48.7867 48.7729H78.4262C79.3817 48.7461 80.2892 48.3477 80.9556 47.6623C81.622 46.977 81.9948 46.0588 81.9948 45.1028C81.9948 44.1469 81.622 43.2287 80.9556 42.5434C80.2892 41.858 79.3817 41.4596 78.4262 41.4329L48.7867 41.43ZM36.3631 54.7007C36.3631 52.672 38.0058 51.0293 40.0346 51.0293H69.677C70.6505 51.0293 71.5839 51.416 72.2721 52.1042C72.9603 52.7924 73.3469 53.7261 73.3469 54.6993C73.3469 55.6728 72.9603 56.6062 72.2721 57.2944C71.5839 57.9826 70.6505 58.3693 69.677 58.3693H40.0346C38.0086 58.3693 36.3631 56.7266 36.3631 54.7007ZM29.588 61.1934C28.6146 61.1934 27.6811 61.5804 26.9929 62.2686C26.3046 62.9568 25.918 63.8902 25.918 64.8637C25.918 65.8369 26.3046 66.7703 26.9929 67.4585C27.6811 68.147 28.6146 68.5337 29.588 68.5337H59.2331C60.1887 68.5067 61.0961 68.1083 61.7626 67.4229C62.429 66.7378 62.8018 65.8196 62.8018 64.8637C62.8018 63.9075 62.429 62.9893 61.7626 62.3042C61.0961 61.6187 60.1887 61.2203 59.2331 61.1934H29.588ZM36.3631 74.4616C36.3631 72.4326 38.0058 70.7899 40.0346 70.7899H69.677C70.6505 70.7899 71.5839 71.1765 72.2721 71.8651C72.9603 72.5533 73.3469 73.4867 73.3469 74.4599C73.3469 75.4334 72.9603 76.3668 72.2721 77.055C71.5839 77.7432 70.6505 78.1299 69.677 78.1299H40.0346C38.0086 78.1299 36.3631 76.4875 36.3631 74.4616ZM63.4668 80.3892C62.4933 80.3892 61.5599 80.7762 60.8717 81.4644C60.1835 82.1526 59.7968 83.086 59.7968 84.0595C59.7968 85.0327 60.1835 85.9661 60.8717 86.6543C61.5599 87.3429 62.4933 87.7295 63.4668 87.7295H80.1235C81.0971 87.7295 82.0305 87.3429 82.7187 86.6543C83.4069 85.9661 83.7935 85.0327 83.7935 84.0595C83.7935 83.086 83.4069 82.1526 82.7187 81.4644C82.0305 80.7762 81.0971 80.3892 80.1235 80.3892H63.4668Z" fill="white"/>
</g>
<defs>
<linearGradient id="paint0_linear_36_27157" x1="20.7292" y1="19.7292" x2="102" y2="101" gradientUnits="userSpaceOnUse">
<stop stop-color="#6D7DF2"/>
<stop offset="1" stop-color="#4E13BE"/>
</linearGradient>
<clipPath id="clip0_36_27157">
<rect width="83" height="83" fill="white" transform="translate(19 18)"/>
</clipPath>
</defs>
</svg>
