<svg width="120" height="120" viewBox="0 0 120 120" fill="none" xmlns="http://www.w3.org/2000/svg">
<g clip-path="url(#clip0_36_28064)">
<mask id="mask0_36_28064" style="mask-type:luminance" maskUnits="userSpaceOnUse" x="17" y="17" width="86" height="86">
<path d="M103 17H17V103H103V17Z" fill="white"/>
</mask>
<g mask="url(#mask0_36_28064)">
<path fill-rule="evenodd" clip-rule="evenodd" d="M18.8149 88.2476C18.535 88.2479 18.2588 88.1834 18.0079 88.0591C17.757 87.9351 17.5382 87.7545 17.3686 87.532C17.1989 87.3091 17.0831 87.0504 17.03 86.7752C16.9769 86.5003 16.9881 86.2169 17.0627 85.9471L32.3707 30.4199C32.5225 29.8679 32.8026 29.3597 33.1884 28.9367C33.5741 28.5137 34.0544 28.1879 34.59 27.9859C35.1257 27.7839 35.7015 27.7115 36.2705 27.7746C36.8395 27.8376 37.3855 28.0344 37.8639 28.3487L58.0094 41.5605C58.6006 41.9476 59.2915 42.1538 59.9981 42.1538C60.7047 42.1538 61.396 41.9476 61.9869 41.5605L82.2148 28.3416C82.6935 28.028 83.24 27.8321 83.8086 27.7699C84.3777 27.7077 84.9535 27.7809 85.4885 27.9835C86.0238 28.1862 86.5037 28.5125 86.8889 28.936C87.2737 29.3594 87.5532 29.8679 87.7044 30.4199L102.934 85.9507C103.008 86.2205 103.019 86.5036 102.965 86.7784C102.911 87.0529 102.795 87.3112 102.625 87.5334C102.455 87.7552 102.236 87.9351 101.985 88.0584C101.734 88.1816 101.458 88.2454 101.178 88.244H81.7489C85.286 84.1457 87.2322 78.9123 87.2314 73.4986V72.8643C87.2311 67.5674 85.3043 62.4512 81.8099 58.4701L79.3123 45.9465C79.2614 45.685 79.1449 45.4406 78.9736 45.2366C78.8024 45.0325 78.582 44.8754 78.3333 44.7801C78.0846 44.6847 77.8155 44.6542 77.5518 44.6916C77.288 44.7289 77.0379 44.8327 76.8254 44.9933L67.4156 52.0489C67.0849 52.297 66.7014 52.4653 66.2947 52.5405C65.888 52.6157 65.4699 52.5958 65.0721 52.4825C61.7547 51.5346 58.238 51.5346 54.9205 52.4825C54.5235 52.5958 54.1057 52.6157 53.6997 52.5404C53.2937 52.4652 52.9106 52.297 52.5807 52.0489L43.1637 44.9861C42.9514 44.8276 42.7022 44.7258 42.4397 44.6903C42.1772 44.6547 41.9099 44.6867 41.6632 44.7832C41.4165 44.8797 41.1984 45.0374 41.0296 45.2416C40.8607 45.4458 40.7468 45.6896 40.6983 45.95L38.2796 59.0362C34.7445 62.63 32.7638 67.4689 32.7648 72.5096V73.7028C32.7648 78.9847 34.6533 84.0945 38.0968 88.1078L38.2115 88.244L18.8149 88.2476Z" fill="#29E154"/>
<path d="M50.0107 77.3544H55.4574V64.6479H50.8349L50.0107 77.3544ZM69.9807 77.3544H64.534V64.6479H69.1565L69.9807 77.3544Z" fill="black"/>
</g>
</g>
<defs>
<clipPath id="clip0_36_28064">
<rect width="86" height="86" fill="white" transform="translate(17 17)"/>
</clipPath>
</defs>
</svg>
