<svg width="120" height="120" viewBox="0 0 120 120" fill="none" xmlns="http://www.w3.org/2000/svg">
<g clip-path="url(#clip0_36_28130)">
<path d="M18.5 40.6338C18.5 28.4099 28.4093 18.5 40.6332 18.5C53.4671 18.5 66.3498 18.5 79.3662 18.5C91.5901 18.5 101.5 28.4093 101.5 40.6332C101.5 53.4671 101.5 66.3498 101.5 79.3662C101.5 91.5901 91.5907 101.5 79.3668 101.5C66.5329 101.5 53.6502 101.5 40.6338 101.5C28.4099 101.5 18.5 91.5907 18.5 79.3668C18.5 66.5329 18.5 53.6502 18.5 40.6338Z" fill="#FEFEFE"/>
<path d="M72.2355 29.9013C74.0362 31.5089 75.1369 33.1707 75.8785 35.4605C75.9452 35.621 76.012 35.7834 76.0806 35.9494C76.3097 36.8065 76.2718 37.6203 76.261 38.5062C76.2574 38.8472 76.2556 39.19 76.252 39.5419C76.2448 39.9334 76.2448 39.9334 76.2394 40.3322C76.4396 40.3214 76.6417 40.3124 76.8474 40.3015C80.5066 40.1933 83.4748 41.3138 86.1633 43.7605C88.2852 45.7741 89.4345 48.5185 89.633 51.4055C89.6817 53.4895 89.3714 56.7247 87.8594 58.3179C87.7349 58.437 87.7349 58.437 87.6067 58.5561C87.5472 58.7347 87.4877 58.9134 87.4263 59.0974C87.3072 59.0974 87.1881 59.0974 87.0654 59.0974C86.9464 59.3356 86.8273 59.5738 86.7046 59.8192C80.3226 66.1975 73.9208 72.5542 67.5207 78.911C63.8561 81.7727 63.8561 81.7727 62.1654 85.4409C62.4199 85.7567 62.4199 85.7567 62.7067 85.9822C62.7067 86.1013 62.7067 86.2204 62.7067 86.3431C62.8511 86.399 62.8511 86.399 62.999 86.4567C63.5945 86.8014 64.0762 87.2543 64.5111 87.7865C64.5111 87.9056 64.5111 88.0247 64.5111 88.1474C64.6897 88.207 64.8684 88.2665 65.0524 88.3278C65.0524 88.4469 65.0524 88.566 65.0524 88.6887C65.1967 88.7447 65.1967 88.7447 65.3447 88.8024C65.9401 89.147 66.4219 89.5999 66.8567 90.1322C66.8567 90.2513 66.8567 90.3704 66.8567 90.4931C67.0354 90.5526 67.214 90.6122 67.398 90.6735C67.62 91.121 67.6019 91.4277 67.6001 91.9257C67.6019 92.0845 67.6019 92.2415 67.6019 92.4039C67.5749 92.9055 67.5135 93.2591 67.1617 93.6308C66.458 94.1739 65.8571 94.468 64.955 94.4175C63.6053 94.0079 62.5407 92.7467 61.6819 91.6749C61.4148 91.3483 61.4148 91.3483 60.9132 90.9568C60.3394 90.475 59.8793 89.9626 59.3976 89.3924C59.0836 89.0207 59.0836 89.0207 58.6235 88.622C57.4092 87.2777 57.1909 86.002 57.1566 84.2194C58.1219 78.8622 67.315 72.4857 70.7361 69.0899C79.8174 61.9735 79.8174 61.9735 84.7757 52.0388C84.7631 50.4365 84.3896 48.9245 83.2763 47.73C83.2763 47.6109 83.2763 47.4919 83.2763 47.3692C83.0977 47.3096 82.919 47.2501 82.735 47.1887C82.735 47.0696 82.735 46.9505 82.735 46.8279C82.634 46.7773 82.5329 46.7286 82.4283 46.6763C82.1468 46.5355 81.8653 46.3912 81.5856 46.2468C81.4359 46.1711 81.2879 46.0953 81.1327 46.0159C80.9848 45.9401 80.8368 45.8643 80.6835 45.7849C79.0704 45.0379 77.2191 44.8972 75.505 45.4295C68.3471 48.3309 62.0933 57.9192 56.8155 63.2131C52.4599 67.5382 52.4599 67.5382 51.3736 67.6464C50.78 67.641 50.4679 67.5364 50.0077 67.161C49.4015 66.5404 49.1146 66.1506 49.0713 65.2881C49.0605 65.1438 49.0496 64.9976 49.037 64.8479C50.513 59.2454 61.6061 51.7465 65.6172 47.7535C69.9151 43.912 69.9151 43.912 71.6491 38.822C71.5932 36.9382 70.8931 35.1916 69.5633 33.8365C67.9267 32.4346 65.978 31.8951 63.8489 31.9636C62.3856 32.1332 61.3336 32.79 60.1807 33.6561C60.0616 33.6561 59.9425 33.6561 59.8198 33.6561C59.7711 33.7644 59.7224 33.8726 59.6736 33.9827C59.4589 34.3779 59.2604 34.6341 58.9176 34.9192C58.7985 34.9192 58.6794 34.9192 58.5567 34.9192C58.4972 35.0978 58.4377 35.2764 58.3763 35.4605C58.2572 35.4605 58.1381 35.4605 58.0154 35.4605C57.9559 35.6391 57.8964 35.8177 57.835 36.0018C57.7159 36.0018 57.5968 36.0018 57.4741 36.0018C57.355 36.2399 57.236 36.4781 57.1133 36.7235C56.9942 36.7235 56.8751 36.7235 56.7524 36.7235C56.6929 36.9021 56.6333 37.0808 56.572 37.2648C56.4529 37.2648 56.3338 37.2648 56.2111 37.2648C56.1515 37.4434 56.092 37.6221 56.0307 37.8061C55.9116 37.8061 55.7925 37.8061 55.6698 37.8061C55.6211 37.9144 55.5724 38.0226 55.5236 38.1327C55.3089 38.5279 55.1104 38.7841 54.7676 39.0692C54.6485 39.0692 54.5294 39.0692 54.4067 39.0692C54.3472 39.2478 54.2877 39.4264 54.2263 39.6105C54.1072 39.6105 53.9881 39.6105 53.8654 39.6105C53.8059 39.7891 53.7464 39.9677 53.685 40.1518C53.5659 40.1518 53.4468 40.1518 53.3241 40.1518C53.1455 40.509 53.1455 40.509 52.9633 40.8735C52.8442 40.8735 52.7251 40.8735 52.6024 40.8735C52.5122 41.1424 52.5122 41.1424 52.422 41.4148C52.3029 41.4148 52.1838 41.4148 52.0611 41.4148C51.9709 41.6837 51.9709 41.6837 51.8807 41.9561C51.7616 41.9561 51.6425 41.9561 51.5198 41.9561C51.4476 42.1185 51.4476 42.1185 51.3736 42.2827C51.1589 42.6779 50.9604 42.9341 50.6176 43.2192C50.4985 43.2192 50.3794 43.2192 50.2567 43.2192C50.1665 43.488 50.1665 43.488 50.0763 43.7605C49.9572 43.7605 49.8381 43.7605 49.7154 43.7605C49.6252 44.0293 49.6252 44.0293 49.535 44.3018C49.4159 44.3018 49.2968 44.3018 49.1741 44.3018C48.9955 44.659 48.9955 44.659 48.8133 45.0235C48.6942 45.0235 48.5751 45.0235 48.4524 45.0235C48.3622 45.2924 48.3622 45.2924 48.272 45.5648C48.1529 45.5648 48.0338 45.5648 47.9111 45.5648C47.8209 45.8337 47.8209 45.8337 47.7307 46.1061C47.6116 46.1061 47.4925 46.1061 47.3698 46.1061C47.2976 46.2685 47.2976 46.2685 47.2236 46.4327C47.0089 46.8279 46.8104 47.0841 46.4676 47.3692C46.3485 47.3692 46.2294 47.3692 46.1067 47.3692C46.0165 47.638 46.0165 47.638 45.9263 47.9105C45.8072 47.9105 45.6881 47.9105 45.5654 47.9105C45.4752 48.1793 45.4752 48.1793 45.385 48.4518C45.2659 48.4518 45.1468 48.4518 45.0241 48.4518C44.8455 48.809 44.8455 48.809 44.6633 49.1735C44.5442 49.1735 44.4251 49.1735 44.3024 49.1735C44.2122 49.4424 44.2122 49.4424 44.122 49.7148C44.0029 49.7148 43.8838 49.7148 43.7611 49.7148C43.6709 49.9837 43.6709 49.9837 43.5807 50.2561C43.4616 50.2561 43.3425 50.2561 43.2198 50.2561C43.1711 50.3644 43.1224 50.4726 43.0736 50.5827C42.8589 50.9779 42.6604 51.2341 42.3176 51.5192C42.1985 51.5192 42.0794 51.5192 41.9567 51.5192C41.8972 51.6978 41.8377 51.8764 41.7763 52.0605C41.6572 52.0605 41.5381 52.0605 41.4154 52.0605C41.3559 52.2391 41.2964 52.4177 41.235 52.6018C41.1159 52.6018 40.9968 52.6018 40.8741 52.6018C40.755 52.8399 40.636 53.0781 40.5133 53.3235C40.3942 53.3235 40.2751 53.3235 40.1524 53.3235C40.0929 53.5021 40.0333 53.6808 39.972 53.8648C39.8529 53.8648 39.7338 53.8648 39.6111 53.8648C39.5515 54.0434 39.492 54.2221 39.4307 54.4061C39.3116 54.4061 39.1925 54.4061 39.0698 54.4061C39.0211 54.5144 38.9724 54.6226 38.9236 54.7327C38.7089 55.1278 38.5104 55.3841 38.1676 55.6692C38.0485 55.6692 37.9294 55.6692 37.8067 55.6692C37.7472 55.8478 37.6877 56.0264 37.6263 56.2105C37.5072 56.2105 37.3881 56.2105 37.2654 56.2105C37.2059 56.3891 37.1464 56.5677 37.085 56.7518C36.9659 56.7518 36.8468 56.7518 36.7241 56.7518C36.605 56.9899 36.486 57.2281 36.3633 57.4735C36.2442 57.4735 36.1251 57.4735 36.0024 57.4735C35.9429 57.6521 35.8833 57.8308 35.822 58.0148C35.7029 58.0148 35.5838 58.0148 35.4611 58.0148C35.4015 58.1934 35.342 58.3721 35.2807 58.5561C35.1616 58.5561 35.0425 58.5561 34.9198 58.5561C34.8711 58.6644 34.8224 58.7726 34.7736 58.8827C34.5589 59.2778 34.3604 59.5341 34.0176 59.8192C33.8985 59.8192 33.7794 59.8192 33.6567 59.8192C33.5972 59.9978 33.5377 60.1764 33.4763 60.3605C32.6842 60.8693 32.0635 61.0497 31.1307 60.9018C30.3873 60.438 29.846 59.913 29.5067 59.0974C29.3786 58.2674 29.4743 57.7929 29.9578 57.1253C30.5912 56.353 31.2696 55.5934 32.0328 54.9474C32.1519 54.9474 32.271 54.9474 32.3937 54.9474C32.4496 54.8031 32.4496 54.8031 32.5056 54.6551C32.8502 54.0597 33.3049 53.5779 33.8372 53.1431C33.9563 53.1431 34.0754 53.1431 34.198 53.1431C34.2395 53.042 34.2829 52.941 34.328 52.8363C34.6112 52.3275 34.9577 51.9739 35.3709 51.5643C35.5134 51.4199 35.6578 51.2756 35.8039 51.1276C36.1828 50.7974 36.1828 50.7974 36.5437 50.7974C36.5798 50.7018 36.6177 50.6044 36.6556 50.5051C37.0002 49.9097 37.4549 49.4279 37.9872 48.9931C38.1063 48.9931 38.2254 48.9931 38.348 48.9931C38.3895 48.892 38.4329 48.791 38.478 48.6863C38.7612 48.1775 39.1077 47.8239 39.5209 47.4143C39.6634 47.2699 39.8078 47.1256 39.9539 46.9776C40.3328 46.6474 40.3328 46.6474 40.6937 46.6474C40.7298 46.5518 40.7677 46.4544 40.8056 46.3551C41.1502 45.7597 41.6049 45.2779 42.1372 44.8431C42.2563 44.8431 42.3754 44.8431 42.498 44.8431C42.5395 44.742 42.5829 44.641 42.628 44.5363C42.9112 44.0275 43.2577 43.6739 43.6709 43.2643C43.8856 43.0477 43.8856 43.0477 44.1039 42.8276C44.4828 42.4974 44.4828 42.4974 44.8437 42.4974C44.8996 42.3531 44.8996 42.3531 44.9556 42.2051C45.3002 41.6097 45.7549 41.1279 46.2872 40.6931C46.4063 40.6931 46.5254 40.6931 46.648 40.6931C46.6895 40.592 46.7329 40.491 46.778 40.3863C47.0612 39.8775 47.4077 39.5239 47.8209 39.1143C48.0356 38.8977 48.0356 38.8977 48.2539 38.6776C48.6328 38.3474 48.6328 38.3474 48.9937 38.3474C49.0298 38.2518 49.0677 38.1544 49.1056 38.0551C49.4502 37.4597 49.9049 36.9779 50.4372 36.5431C50.5563 36.5431 50.6754 36.5431 50.798 36.5431C50.8395 36.442 50.8829 36.341 50.928 36.2363C51.2112 35.7275 51.5577 35.3739 51.9709 34.9643C52.1134 34.8199 52.2578 34.6756 52.4039 34.5276C52.7828 34.1974 52.7828 34.1974 53.1437 34.1974C53.1798 34.1018 53.2177 34.0044 53.2556 33.9051C53.6002 33.3097 54.0549 32.8279 54.5872 32.3931C54.7063 32.3931 54.8254 32.3931 54.948 32.3931C55.0148 32.2397 55.0148 32.2397 55.0816 32.0809C55.5309 31.269 56.2598 30.6753 56.9328 30.0474C57.0537 29.9355 57.1746 29.8219 57.2991 29.7064C61.6476 26.0021 67.9394 26.4405 72.2355 29.9013Z" fill="#020202"/>
<path d="M65.1463 36.4681C65.8897 36.5944 66.1766 36.8831 66.6764 37.446C67.1221 38.1425 67.0662 38.7884 66.9561 39.5824C66.8118 40.1435 66.5519 40.4809 66.1351 40.8743C66.016 40.8743 65.897 40.8743 65.7743 40.8743C65.7147 41.0529 65.6552 41.2315 65.5938 41.4156C65.2961 41.6592 64.9948 41.8991 64.6917 42.1373C64.5726 42.3159 64.4535 42.4946 64.3308 42.6786C64.2117 42.6786 64.0926 42.6786 63.9699 42.6786C63.9104 42.8573 63.8508 43.0359 63.7895 43.2199C63.6704 43.2199 63.5513 43.2199 63.4286 43.2199C63.3691 43.3986 63.3095 43.5772 63.2482 43.7612C62.9505 44.0048 62.6491 44.2448 62.346 44.483C62.2269 44.6616 62.1078 44.8402 61.9851 45.0243C61.866 45.0243 61.747 45.0243 61.6243 45.0243C61.5647 45.2029 61.5052 45.3815 61.4438 45.5656C61.1461 45.8092 60.8448 46.0491 60.5417 46.2873C60.4226 46.4659 60.3035 46.6446 60.1808 46.8286C60.0617 46.8286 59.9426 46.8286 59.8199 46.8286C59.7604 47.0073 59.7008 47.1859 59.6395 47.3699C59.5204 47.3699 59.4013 47.3699 59.2786 47.3699C59.2191 47.5486 59.1595 47.7272 59.0982 47.9112C58.8005 48.1548 58.4991 48.3948 58.196 48.633C58.0769 48.8116 57.9578 48.9902 57.8351 49.1743C57.716 49.1743 57.597 49.1743 57.4743 49.1743C57.384 49.4413 57.384 49.4413 57.2938 49.7156C56.9961 49.9592 56.6948 50.1991 56.3917 50.4373C56.2726 50.6159 56.1535 50.7946 56.0308 50.9786C55.9117 50.9786 55.7926 50.9786 55.6699 50.9786C55.5797 51.2457 55.5797 51.2457 55.4895 51.5199C55.3704 51.5199 55.2513 51.5199 55.1286 51.5199C55.0384 51.787 55.0384 51.787 54.9482 52.0612C54.6505 52.3048 54.3491 52.5448 54.046 52.783C53.9269 52.9616 53.8078 53.1402 53.6851 53.3243C53.566 53.3243 53.447 53.3243 53.3243 53.3243C53.234 53.5913 53.234 53.5913 53.1438 53.8656C52.8461 54.1092 52.5448 54.3491 52.2417 54.5873C52.1226 54.7659 52.0035 54.9446 51.8808 55.1286C51.7617 55.1286 51.6426 55.1286 51.5199 55.1286C51.4297 55.3957 51.4297 55.3957 51.3395 55.6699C51.2204 55.6699 51.1013 55.6699 50.9786 55.6699C50.8884 55.937 50.8884 55.937 50.7982 56.2112C50.5005 56.4548 50.1991 56.6948 49.896 56.933C49.7769 57.1116 49.6578 57.2902 49.5351 57.4743C49.416 57.4743 49.297 57.4743 49.1743 57.4743C49.084 57.7413 49.084 57.7413 48.9938 58.0156C48.6961 58.2592 48.3948 58.4991 48.0917 58.7373C47.9726 58.9159 47.8535 59.0946 47.7308 59.2786C47.6117 59.2786 47.4926 59.2786 47.3699 59.2786C47.2797 59.5457 47.2797 59.5457 47.1895 59.8199C47.0704 59.8199 46.9513 59.8199 46.8286 59.8199C46.7835 59.9156 46.7384 60.013 46.6933 60.1122C46.4677 60.5417 46.4677 60.5417 46.1177 61.0487C45.3112 62.2937 45.1271 63.2716 45.1253 64.7584C45.1217 65.0796 45.1181 65.4026 45.1145 65.7328C45.2751 67.4307 46.0618 68.8615 47.2905 70.0253C49.0155 71.4399 50.569 71.7196 52.8028 71.6564C58.6507 70.9329 63.7155 62.7881 67.308 59.1884C76.7862 49.6885 76.7862 49.6885 77.8183 49.647C78.4715 49.6542 78.8792 49.7011 79.3971 50.1107C80.0773 50.8758 80.0773 50.8758 80.209 51.5199C79.7652 55.5057 72.1905 61.1299 69.6644 63.6433C67.7446 65.5578 65.8248 67.474 63.8454 69.4461C56.7146 76.3965 56.7146 76.3965 51.8122 76.4993C49.3601 76.4578 47.4619 75.8913 45.3851 74.6156C45.0946 74.4478 45.0946 74.4478 44.7987 74.2764C42.3629 72.3944 40.6235 69.3361 40.1525 66.3156C39.7826 62.4525 41.1864 59.4988 43.5808 56.5721C46.8376 53.2846 50.1053 50.0079 53.3802 46.7384C55.1665 44.9539 56.951 43.1694 58.7914 41.3308C63.7317 36.4248 63.7317 36.4248 65.1463 36.4681Z" fill="#020202"/>
</g>
<defs>
<clipPath id="clip0_36_28130">
<rect width="83" height="83" fill="white" transform="translate(18.5 18.5)"/>
</clipPath>
</defs>
</svg>
