<svg width="120" height="120" viewBox="0 0 120 120" fill="none" xmlns="http://www.w3.org/2000/svg">
<g clip-path="url(#clip0_36_28174)">
<path d="M18.5 18.5C45.89 18.5 73.28 18.5 101.5 18.5C101.5 45.89 101.5 73.28 101.5 101.5C74.11 101.5 46.72 101.5 18.5 101.5C18.5 74.11 18.5 46.72 18.5 18.5Z" fill="#004AAD"/>
<path d="M40.0811 43.8151C44.3265 43.8151 48.572 43.8151 52.9461 43.8151C54.3652 47.5444 55.7277 51.2677 56.9712 55.059C57.9311 57.968 58.9733 60.8495 60.0011 63.7351C60.9348 62.3344 61.4241 60.9169 61.9577 59.337C62.0641 59.0262 62.1705 58.7154 62.2802 58.3952C62.5053 57.7366 62.7295 57.0776 62.953 56.4184C63.2907 55.4223 63.631 54.4272 63.9719 53.4322C64.1912 52.7895 64.4103 52.1467 64.6293 51.5039C64.7292 51.2115 64.8291 50.9191 64.932 50.6179C65.6953 48.3621 66.3705 46.1001 67.0561 43.8151C71.3015 43.8151 75.547 43.8151 79.9211 43.8151C79.9211 44.6368 79.9211 45.4585 79.9211 46.3051C79.07 46.3996 78.2189 46.4942 77.3678 46.5888C76.5963 46.6449 76.5963 46.6449 76.1861 47.1351C76.1449 47.9096 76.1329 48.6857 76.1324 49.4613C76.1304 50.2071 76.1304 50.2071 76.1284 50.9678C76.1292 51.509 76.1301 52.0503 76.1309 52.6079C76.1307 53.1646 76.1303 53.7212 76.1297 54.2779C76.1291 55.4459 76.13 56.614 76.132 57.782C76.1343 59.2823 76.133 60.7825 76.1305 62.2828C76.129 63.4327 76.1294 64.5826 76.1305 65.7325C76.1309 66.5558 76.1297 67.379 76.1284 68.2023C76.1297 68.6994 76.131 69.1966 76.1324 69.7088C76.1327 70.149 76.133 70.5891 76.1334 71.0427C76.0741 72.0156 76.0741 72.0156 76.6011 72.4501C77.1603 72.5458 77.7231 72.6208 78.287 72.6835C78.8262 72.7434 79.3655 72.8033 79.9211 72.8651C79.9211 73.6868 79.9211 74.5085 79.9211 75.3551C75.1278 75.3551 70.3346 75.3551 65.3961 75.3551C65.3961 74.5334 65.3961 73.7117 65.3961 72.8651C66.834 72.4542 66.834 72.4542 68.3011 72.0351C68.3011 64.9137 68.3011 57.7923 68.3011 50.4551C67.5478 52.7147 66.7946 54.9744 66.0186 57.3026C64.0127 63.3201 62.0069 69.3376 60.0011 75.3551C58.9055 75.3551 57.8099 75.3551 56.6811 75.3551C56.5645 75.0158 56.4479 74.6765 56.3279 74.327C53.5458 66.2296 50.7589 58.1338 47.9661 50.0401C47.9556 53.0982 47.9483 56.1563 47.9433 59.2144C47.9412 60.2555 47.9383 61.2965 47.9347 62.3375C47.9297 63.8311 47.9274 65.3247 47.9255 66.8184C47.9234 67.2861 47.9212 67.7539 47.919 68.2358C47.919 68.6678 47.919 69.0998 47.9189 69.5449C47.9176 70.1171 47.9176 70.1171 47.9161 70.701C47.9058 71.6373 47.9058 71.6373 48.3811 72.4501C49.3445 72.6191 50.3137 72.759 51.2861 72.8651C51.2861 73.6868 51.2861 74.5085 51.2861 75.3551C47.5884 75.3551 43.8908 75.3551 40.0811 75.3551C40.0811 74.5334 40.0811 73.7117 40.0811 72.8651C40.9321 72.7705 41.7832 72.6759 42.6343 72.5814C43.4058 72.5252 43.4058 72.5252 43.8161 72.0351C43.8572 71.2605 43.8692 70.4844 43.8698 69.7088C43.8711 69.2116 43.8724 68.7145 43.8737 68.2023C43.8729 67.6611 43.872 67.1199 43.8712 66.5623C43.8715 66.0056 43.8719 65.4489 43.8724 64.8922C43.873 63.7242 43.8721 62.5562 43.8702 61.3881C43.8678 59.8878 43.8692 58.3876 43.8716 56.8873C43.8731 55.7374 43.8727 54.5875 43.8716 53.4376C43.8712 52.6144 43.8724 51.7911 43.8737 50.9678C43.8724 50.4707 43.8711 49.9735 43.8698 49.4613C43.8694 49.0212 43.8691 48.581 43.8688 48.1275C43.928 47.1545 43.928 47.1545 43.4011 46.7201C42.8419 46.6243 42.279 46.5493 41.7151 46.4866C41.1759 46.4267 40.6366 46.3668 40.0811 46.3051C40.0811 45.4834 40.0811 44.6617 40.0811 43.8151Z" fill="#F9FAFD"/>
<path d="M88.6342 75.7699C88.7711 76.5916 88.9081 77.4133 89.0492 78.2599C83.6711 80.3391 78.2343 82.1458 72.7086 83.7846C72.2691 83.9167 72.2691 83.9167 71.8208 84.0514C68.1089 85.1635 64.4199 86.055 60.602 86.7228C59.355 86.9422 58.1231 87.1961 56.8867 87.4677C54.3282 87.8865 51.7696 87.8939 49.1832 87.9086C48.5573 87.9144 48.5573 87.9144 47.9188 87.9203C42.9079 87.8994 38.2151 87.2485 34.3211 83.8624C34.03 83.52 33.739 83.1776 33.4392 82.8249C33.1482 82.4996 32.8571 82.1744 32.5573 81.8393C31.4016 80.2213 30.5342 78.6313 30.5342 76.5999C31.3559 76.5999 32.1776 76.5999 33.0242 76.5999C33.1355 76.8706 33.2467 77.1413 33.3614 77.4202C34.9735 81.0156 36.9258 82.7253 40.5461 84.2255C54.2658 88.3501 73.7773 81.5974 86.2852 76.1979C87.3892 75.7699 87.3892 75.7699 88.6342 75.7699Z" fill="#F3F7FB"/>
</g>
<defs>
<clipPath id="clip0_36_28174">
<rect width="83" height="83" fill="white" transform="translate(18.5 18.5)"/>
</clipPath>
</defs>
</svg>
