<svg width="120" height="120" viewBox="0 0 120 120" fill="none" xmlns="http://www.w3.org/2000/svg">
<g clip-path="url(#clip0_36_28212)">
<path d="M18.6719 18.5C45.9478 18.5 73.2236 18.5 101.326 18.5C101.326 45.89 101.326 73.28 101.326 101.5C74.0502 101.5 46.7743 101.5 18.6719 101.5C18.6719 74.11 18.6719 46.72 18.6719 18.5Z" fill="#F0F6FD"/>
<path d="M39.9414 43.9188C42.6804 43.9188 45.4194 43.9188 48.2414 43.9188C49.0455 45.6618 49.834 47.3841 50.555 49.1599C50.9873 50.2199 51.4611 51.2401 51.9868 52.2551C52.2928 52.8915 52.5228 53.5434 52.7442 54.2126C52.9257 54.6794 53.1678 55.0771 53.4289 55.5042C53.5499 55.8259 53.6693 56.1475 53.7868 56.4708C54.0549 57.1642 54.3799 57.8317 54.6947 58.5061C55.0111 59.1908 55.312 59.8808 55.6111 60.5724C56.0642 61.6151 56.0642 61.6151 56.5622 62.6371C56.9201 63.3287 57.2089 64.0463 57.5046 64.7657C57.7933 65.4608 58.0907 66.1507 58.3899 66.8407C58.4902 67.0724 58.5905 67.3058 58.6942 67.5444C58.9467 68.1323 58.9467 68.1323 59.3081 68.6459C59.3081 68.8171 59.3081 68.9883 59.3081 69.1647C60.1346 68.7514 60.7104 66.6297 61.0269 65.9C61.3087 65.2533 61.5906 64.6066 61.8811 63.9391C62.3186 62.931 62.3186 62.931 62.7664 61.9022C63.3094 60.6693 63.8541 59.4381 64.3987 58.2052C64.6685 57.5948 64.9382 56.9844 65.2166 56.3567C65.6299 55.4212 65.6299 55.4212 66.0518 54.4667C66.6432 53.1301 67.2328 51.7934 67.8242 50.4568C68.0853 49.8672 68.3464 49.2758 68.6162 48.6671C69.0882 47.5933 69.5586 46.5195 70.0254 45.4439C70.5477 44.2647 70.5477 44.2647 70.7206 44.0917C73.5166 44.0917 76.3127 44.0917 79.1935 44.0917C79.1935 55.3901 79.1935 66.6885 79.1935 78.3292C76.5686 78.3292 73.9437 78.3292 71.2393 78.3292C71.1823 73.0795 71.1252 67.8297 71.0664 62.4209C68.6577 67.8055 68.6577 67.8055 66.2576 73.1953C65.9706 73.8403 65.6835 74.4853 65.3896 75.1493C65.1509 75.6853 64.914 76.2214 64.6685 76.773C64.4402 77.2866 64.212 77.8001 63.9768 78.3292C61.0096 78.3292 58.0423 78.3292 54.9852 78.3292C54.5857 77.4162 54.1863 76.5032 53.7747 75.5626C53.441 74.8951 53.441 74.8951 53.1021 74.2294C52.8341 73.6778 52.6179 73.1089 52.3983 72.5383C52.1493 71.9365 51.8502 71.3642 51.5528 70.7849C51.3245 70.3146 51.1499 69.839 50.9752 69.3479C50.8092 68.926 50.6086 68.5301 50.4029 68.1272C50.1435 67.6222 49.9101 67.1277 49.7216 66.5917C49.4432 65.8066 49.0576 65.0821 48.6737 64.3437C48.3746 63.7212 48.1377 63.0693 47.8956 62.4209C47.8385 67.6707 47.7814 72.9204 47.7227 78.3292C45.1548 78.3292 42.587 78.3292 39.9414 78.3292C39.9414 66.9738 39.9414 55.6184 39.9414 43.9188Z" fill="#1E416C"/>
<path d="M89.743 24.5522C89.9142 24.5522 90.0853 24.5522 90.2617 24.5522C90.5764 24.8929 90.5764 24.8929 90.8998 25.3304C91.0606 25.5465 91.0606 25.5465 91.2249 25.7679C91.3476 25.9373 91.3476 25.9373 91.4721 26.1085C90.9482 27.1564 90.1113 27.8394 89.2778 28.659C88.1798 29.7397 87.1181 30.8222 86.1117 31.9877C85.5878 32.5445 85.0569 33.0943 84.5226 33.6407C84.2529 33.9191 83.9831 34.1975 83.7047 34.4846C83.4713 34.6886 83.2396 34.8909 82.9992 35.1002C82.3473 34.9376 82.1831 34.8806 81.7352 34.4414C81.6436 34.3549 81.5502 34.2667 81.4551 34.1785C81.3946 34.0834 81.334 33.9883 81.2701 33.8897C81.443 33.1981 81.443 33.1981 82.4805 31.9877C74.8254 31.998 67.1704 32.0136 59.5154 32.0309C55.2513 32.0395 50.9889 32.0465 46.5968 32.0551C39.2669 31.3219 39.2669 31.3219 33.0436 34.0125C28.4907 38.9873 31.5513 54.3026 31.5358 59.7512C31.5219 63.9098 31.5098 68.0685 31.496 72.3533C31.4873 75.5817 31.4787 78.8083 31.4701 82.1335C31.5842 82.1335 31.6983 82.1335 31.8159 82.1335C31.8522 82.0401 31.8902 81.9467 31.9283 81.8499C32.2482 81.2897 32.6736 80.8971 33.1335 80.4476C33.3082 80.2781 33.4811 80.1069 33.6592 79.9323C33.7923 79.8026 33.9272 79.6729 34.0638 79.5397C34.8056 79.8717 35.2344 80.3386 35.793 80.9231C35.5371 81.5266 35.1947 81.8983 34.7226 82.3496C34.2402 82.8131 33.7958 83.2817 33.3583 83.79C32.1859 85.1129 30.9046 86.3319 29.6492 87.5752C29.0855 88.1441 28.5357 88.7268 28.0169 89.3372C27.493 89.9147 27.493 89.9147 26.8013 90.0877C26.4313 89.8404 26.4313 89.8404 26.0664 89.4928C25.9436 89.3787 25.8226 89.2663 25.6964 89.1487C25.558 89.0139 25.558 89.0139 25.418 88.8773C25.5909 88.1856 25.5909 88.1856 26.9742 86.8022C27.0814 78.319 27.1074 69.8357 27.0935 61.3506C27.0555 33.8707 27.0555 33.8707 29.8965 30.779C38.8156 22.2559 64.7582 27.6457 75.7869 27.6526C85.9838 28.806 85.9838 28.806 88.3596 26.1085C88.5896 25.856 88.8179 25.6019 89.0409 25.3407C89.5683 24.7269 89.5683 24.7269 89.743 24.5522Z" fill="#20426E"/>
<path d="M91.8172 30.0854C92.4691 30.248 92.6334 30.3051 93.0812 30.7443C93.1729 30.8307 93.2662 30.9189 93.3613 31.0071C93.453 31.1506 93.453 31.1506 93.5464 31.2959C93.3734 31.9875 93.3734 31.9875 92.163 33.1979C92.0627 41.555 92.0368 49.9138 92.0437 58.2709C92.061 86.2592 92.061 86.2592 88.6753 89.8282C80.8076 96.7932 53.6856 92.4669 43.6132 92.4202C32.8993 91.3446 32.8993 91.3446 29.5672 95.275C29.5101 95.3892 29.4531 95.5033 29.3943 95.6209C28.7666 95.5223 28.4847 95.2889 28.0542 94.8324C27.9487 94.7217 27.8415 94.611 27.7325 94.4969C27.653 94.4105 27.5735 94.3257 27.4922 94.2375C27.7671 93.558 28.2115 93.143 28.7355 92.6381C29.2819 92.1089 29.7972 91.5781 30.2952 91.004C31.3742 89.7797 32.5517 88.6558 33.712 87.5093C34.2446 86.9716 34.7633 86.4182 35.2579 85.8459C35.7922 85.2459 35.7922 85.2459 36.4839 84.9C36.7207 85.1127 36.9542 85.3306 37.1859 85.5485C37.3813 85.7283 37.3813 85.7283 37.5819 85.9133C37.6753 86.0361 37.7704 86.1571 37.8672 86.2834C37.6943 86.975 37.6943 86.975 36.6568 88.1855C44.4207 88.1664 52.183 88.144 59.9469 88.1197C64.2698 88.1094 68.5928 88.0973 73.0471 88.0834C79.2807 89.0604 79.2807 89.0604 84.4579 87.4281C84.591 87.2897 84.591 87.2897 84.7276 87.148C84.8884 87.0546 85.0492 86.9629 85.2135 86.8678C86.4896 85.9168 86.9081 84.6355 87.4943 83.1709C87.5738 75.6127 87.6101 68.0545 87.624 60.498C87.6343 56.3238 87.643 52.1513 87.6534 47.8509C87.6585 44.6139 87.662 41.3752 87.6672 38.0396C87.0741 38.5151 86.6487 38.8731 86.1766 39.4333C85.8222 39.8501 85.466 40.2512 85.0734 40.6334C84.5564 40.3982 84.1587 40.1233 83.7333 39.748C83.5742 39.608 83.5743 39.608 83.4117 39.4644C83.3322 39.3936 83.2526 39.3227 83.1714 39.25C83.7748 38.0448 84.8452 37.2062 85.798 36.2672C87.6516 34.4378 87.6516 34.4378 89.3964 32.5063C89.8062 32.0653 90.2194 31.6296 90.6396 31.199C90.8454 30.9846 91.0512 30.7702 91.2621 30.5489C91.4454 30.3967 91.6287 30.2428 91.8172 30.0854Z" fill="#1F426D"/>
<path d="M84.8997 91.9896C80.499 93.8761 61.7531 92.5464 57.8487 92.5412C53.0779 92.536 48.3054 92.5308 43.3894 92.5274C39.6838 92.5205 35.9782 92.5153 32.1602 92.5084C32.1602 92.3942 32.1602 92.2801 32.1602 92.1625C35.8312 92.1522 39.5005 92.1418 43.2822 92.1314C48.008 92.1158 52.7321 92.102 57.5997 92.0865C62.3237 92.0726 67.0461 92.0588 71.9102 92.045C84.8755 91.981 84.8755 91.981 84.8997 91.9896Z" fill="#416286"/>
<path d="M43.3748 92.3394C48.0419 92.3601 52.7072 92.3791 57.5142 92.3999C62.1847 92.4155 66.8569 92.431 71.6675 92.4466C75.2935 92.4673 78.9179 92.4881 82.6529 92.5088C82.6529 92.5659 82.6529 92.623 82.6529 92.6818C79.0614 92.6662 75.4682 92.6506 71.7678 92.6333C67.1353 92.6281 62.5029 92.623 57.7304 92.616C53.1049 92.6039 48.4793 92.5918 43.712 92.5797C33.2575 91.5474 33.2575 91.5474 30.0862 95.2755C29.8579 95.3326 29.6297 95.3896 29.3945 95.4484C33.6483 90.299 33.5791 92.4864 43.3748 92.3394Z" fill="#C3D0DE"/>
<path d="M47.7227 62.248C48.2414 62.7668 48.2414 62.7668 48.2535 66.2597C48.2328 67.7139 48.2103 69.1682 48.1878 70.6674C48.1567 72.8513 48.1567 72.8513 48.1238 75.0785C48.1065 76.2076 48.0875 77.3385 48.0685 78.5022C45.3866 78.5022 42.7046 78.5022 39.9414 78.5022C39.9414 78.4452 39.9414 78.3881 39.9414 78.3293C42.5092 78.3293 45.077 78.3293 47.7227 78.3293C47.7227 73.0225 47.7227 67.7157 47.7227 62.248Z" fill="#C5D2E0"/>
<path d="M71.0656 62.248C71.1227 62.248 71.1798 62.248 71.2385 62.248C71.2385 67.5549 71.2385 72.8617 71.2385 78.3293C71.1815 78.3293 71.1244 78.3293 71.0656 78.3293C71.0656 73.4219 71.0656 68.5145 71.0656 63.4585C70.8944 63.5155 70.7233 63.5726 70.5469 63.6314C70.872 62.4417 70.872 62.4417 71.0656 62.248Z" fill="#D4DFEA"/>
<path d="M36.1367 84.8999C36.3079 84.957 36.4791 85.014 36.6555 85.0728C35.675 86.2711 34.5753 87.3432 33.4773 88.4343C33.102 88.8078 32.7268 89.183 32.3395 89.5687C32.0524 89.854 31.7637 90.1393 31.468 90.4332C31.2968 90.3762 31.1256 90.3191 30.9492 90.2603C31.321 89.892 31.321 89.892 31.7014 89.515C32.1908 89.0274 32.1908 89.0274 32.6888 88.5312C33.0121 88.2095 33.3355 87.8896 33.6675 87.5594C34.4058 86.8072 35.1061 86.0446 35.7909 85.2457C35.905 85.1316 36.0191 85.0175 36.1367 84.8999Z" fill="#3D5D83"/>
<path d="M91.8154 30.0854C92.0436 30.1425 92.2719 30.1996 92.507 30.2584C92.5641 30.3725 92.6212 30.4866 92.6799 30.6042C92.4967 30.618 92.4967 30.618 92.3099 30.6301C91.6217 30.8342 91.3018 31.2232 90.8107 31.7385C90.6413 31.9132 90.4735 32.0896 90.2989 32.2694C90.1087 32.4717 90.1087 32.4717 89.9133 32.6792C89.7421 32.6221 89.5709 32.5651 89.3945 32.5063C89.7801 32.0965 90.1709 31.6901 90.5617 31.2855C90.8868 30.9448 90.8868 30.9448 91.2188 30.5973C91.5145 30.3448 91.5145 30.3448 91.8154 30.0854Z" fill="#3C5D82"/>
<path d="M31.9883 92.6812C32.1595 92.7382 32.3307 92.7953 32.507 92.8541C32.1197 93.2552 31.7306 93.6547 31.3398 94.0541C31.0148 94.3878 31.0148 94.3878 30.6828 94.7285C30.0862 95.2749 30.0862 95.2749 29.3945 95.4478C30.2072 94.4691 31.0805 93.5717 31.9883 92.6812Z" fill="#CDD9E5"/>
<path d="M31.2967 29.5668C31.4108 29.6238 31.5249 29.6809 31.6425 29.7397C30.8938 30.6354 30.126 31.4222 29.2217 32.1605C29.2217 31.3651 29.7231 30.983 30.2592 30.4314C30.5964 30.127 30.9405 29.8469 31.2967 29.5668Z" fill="#3F6084"/>
<path d="M34.0633 79.5396C34.2916 79.6537 34.5198 79.7678 34.755 79.8854C34.6599 79.9234 34.5648 79.9632 34.4662 80.003C33.9406 80.3004 33.5775 80.686 33.1555 81.1166C32.9238 81.3534 32.9238 81.3534 32.6887 81.5938C32.5123 81.7754 32.5123 81.7754 32.3342 81.9604C32.163 81.9033 31.9918 81.8463 31.8154 81.7875C32.5572 81.0457 33.2991 80.3038 34.0633 79.5396Z" fill="#3D5D83"/>
<path d="M34.063 33.1978C33.7898 33.9361 33.2832 34.2819 32.6797 34.754C32.6797 34.2353 32.6797 34.2353 32.8941 33.9569C33.0342 33.822 33.0342 33.822 33.1777 33.6836C33.2693 33.592 33.361 33.5004 33.4561 33.407C33.7172 33.1978 33.7172 33.1978 34.063 33.1978Z" fill="#C6D3E1"/>
</g>
<defs>
<clipPath id="clip0_36_28212">
<rect width="83" height="83" fill="white" transform="translate(18.5 18.5)"/>
</clipPath>
</defs>
</svg>
