<svg width="120" height="120" viewBox="0 0 120 120" fill="none" xmlns="http://www.w3.org/2000/svg">
<g clip-path="url(#clip0_36_28252)">
<mask id="mask0_36_28252" style="mask-type:luminance" maskUnits="userSpaceOnUse" x="17" y="17" width="86" height="86">
<path d="M103 17H17V103H103V17Z" fill="white"/>
</mask>
<g mask="url(#mask0_36_28252)">
<path d="M26.2734 67.212C26.2734 70.4958 26.9942 73.017 27.9363 74.5424C29.1714 76.5401 31.0136 77.3865 32.8918 77.3865C35.3143 77.3865 37.5304 76.7852 41.801 70.8785C45.2223 66.1445 49.2538 59.4992 51.9663 55.3329L56.5601 48.2751C59.7511 43.3734 63.4444 37.9244 67.6796 34.2309C71.1368 31.2163 74.8659 29.5415 78.6191 29.5415C84.9208 29.5415 90.9229 33.1931 95.5167 40.0418C100.544 47.5424 102.984 56.9898 102.984 66.7397C102.984 72.5354 101.842 76.7942 99.898 80.1586C98.0196 83.4126 94.3593 86.6634 88.2013 86.6634V77.3865C93.4738 77.3865 94.79 72.5415 94.79 66.9967C94.79 59.0954 92.9478 50.3267 88.8893 44.0613C86.0094 39.6172 82.277 36.9015 78.1705 36.9015C73.7293 36.9015 70.1556 40.2512 66.1391 46.2235C64.0038 49.3966 61.8119 53.2635 59.3505 57.627L56.6407 62.4268C51.1977 72.0778 49.819 74.2762 47.0975 77.9036C42.3274 84.2561 38.2541 86.6634 32.8918 86.6634C26.5306 86.6634 22.5081 83.9089 20.0169 79.758C17.9832 76.3757 16.9844 71.9374 16.9844 66.8802L26.2734 67.212Z" fill="#0081FB"/>
<path d="M24.2939 40.6967C28.5526 34.1322 34.6985 29.5415 41.7475 29.5415C45.8299 29.5415 49.8882 30.7497 54.1261 34.21C58.7615 37.9932 63.7022 44.2228 69.8658 54.4897L72.076 58.1741C77.4113 67.0626 80.4471 71.6353 82.2233 73.7917C84.5084 76.5609 86.1084 77.3865 88.1867 77.3865C93.4592 77.3865 94.775 72.5415 94.775 66.9967L102.97 66.7397C102.97 72.5354 101.827 76.7942 99.8834 80.1586C98.0051 83.4126 94.3447 86.6634 88.1867 86.6634C84.3586 86.6634 80.9674 85.8321 77.2171 82.2943C74.3339 79.5785 70.9634 74.7546 68.3705 70.418L60.6574 57.5341C56.7878 51.0684 53.2377 46.2474 51.1831 44.0642C48.973 41.7166 46.1319 38.8814 41.598 38.8814C37.9284 38.8814 34.8121 41.4564 32.2043 45.3951L24.2939 40.6967Z" fill="url(#paint0_linear_36_28252)"/>
<path d="M41.6126 38.8814C37.9431 38.8814 34.8268 41.4564 32.2189 45.3951C28.5314 50.9607 26.2734 59.2509 26.2734 67.212C26.2734 70.4958 26.9942 73.017 27.9363 74.5424L20.0169 79.758C17.9832 76.3757 16.9844 71.9374 16.9844 66.8802C16.9844 57.6839 19.5085 48.0986 24.3085 40.6967C28.5673 34.1321 34.7131 29.5415 41.7621 29.5415L41.6126 38.8814Z" fill="url(#paint1_linear_36_28252)"/>
</g>
</g>
<defs>
<linearGradient id="paint0_linear_36_28252" x1="29.1414" y1="64.5324" x2="93.8373" y2="68.1039" gradientUnits="userSpaceOnUse">
<stop stop-color="#0064E1"/>
<stop offset="0.4" stop-color="#0064E1"/>
<stop offset="0.83" stop-color="#0073EE"/>
<stop offset="1" stop-color="#0082FB"/>
</linearGradient>
<linearGradient id="paint1_linear_36_28252" x1="30.4425" y1="71.1121" x2="30.4425" y2="49.28" gradientUnits="userSpaceOnUse">
<stop stop-color="#0082FB"/>
<stop offset="1" stop-color="#0064E0"/>
</linearGradient>
<clipPath id="clip0_36_28252">
<rect width="86" height="86" fill="white" transform="translate(17 17)"/>
</clipPath>
</defs>
</svg>
