<svg width="120" height="120" viewBox="0 0 120 120" fill="none" xmlns="http://www.w3.org/2000/svg">
<path d="M44.4678 57.5958C44.7348 57.1374 45.1174 56.7571 45.5773 56.4928C46.0372 56.2285 46.5584 56.0894 47.0888 56.0894C47.6193 56.0894 48.1405 56.2285 48.6004 56.4928C49.0603 56.7571 49.4428 57.1374 49.7099 57.5958L64.0562 82.3442C64.5424 83.176 65.2042 83.8916 65.9954 84.4412C66.7866 84.9908 67.6882 85.3612 68.6373 85.5265C69.5865 85.6917 70.5602 85.6479 71.4906 85.398C72.421 85.1482 73.2858 84.6983 74.0244 84.0799C76.5497 81.9924 76.9015 78.2475 75.287 75.4095L52.7433 36.6704" fill="url(#paint0_linear_36_32587)"/>
<path d="M100.693 75.7261L86.863 51.8025C85.9824 50.2894 84.5382 49.1869 82.8465 48.7363C81.1548 48.2857 79.3535 48.5238 77.8369 49.3984C76.3245 50.2797 75.2229 51.7242 74.773 53.4158C74.3232 55.1075 74.5619 56.9084 75.4368 58.4245L89.2671 82.3481C90.1484 83.8605 91.5929 84.9622 93.2846 85.412C94.9762 85.8619 96.7771 85.6232 98.2932 84.7483C99.8052 83.8677 100.907 82.4242 101.358 80.7334C101.808 79.0427 101.567 77.2423 100.693 75.7261ZM78.0519 36.6743C77.1714 35.1623 75.7278 34.0605 74.0371 33.61C72.3463 33.1595 70.546 33.3969 69.0298 34.2702C67.5167 35.1508 66.4142 36.5951 65.9636 38.2868C65.513 39.9784 65.7511 41.7797 66.6257 43.2963C67.5063 44.8083 68.9498 45.9101 70.6405 46.3606C72.3313 46.8111 74.1317 46.5737 75.6479 45.7004C76.3998 45.2669 77.0587 44.6893 77.5867 44.0005C78.1148 43.3117 78.5016 42.5254 78.725 41.6868C78.9483 40.8481 79.0039 39.9736 78.8884 39.1134C78.7729 38.2532 78.4886 37.4243 78.0519 36.6743ZM50.3365 34.2663C50.141 34.149 49.9026 34.0318 49.7071 33.9536C48.3244 33.3218 46.7644 33.1924 45.2965 33.5878C43.8285 33.9831 42.5446 34.8784 41.6661 36.1192L41.627 36.1583C41.5879 36.2365 41.5489 36.2756 41.5098 36.3538C41.4707 36.4319 41.3925 36.5492 41.3534 36.6274L18.8879 75.3665C18.4539 76.117 18.1373 76.9849 18.02 77.8136V77.9699C17.7982 79.079 17.8785 80.2272 18.2526 81.2946C18.6267 82.3619 19.2809 83.309 20.1466 84.0369C21.4092 85.104 22.8673 85.577 24.3293 85.6161H24.5639C26.8077 85.6161 29.0163 84.4317 30.2359 82.3442L44.6996 57.24L52.7797 43.2533C53.2097 42.5029 53.4876 41.6751 53.5975 40.8172C53.7075 39.9593 53.6472 39.0881 53.4204 38.2535C53.1935 37.4189 52.8043 36.6372 52.2752 35.9531C51.746 35.2689 51.0873 34.6957 50.3365 34.2663Z" fill="#175CD3"/>
<defs>
<linearGradient id="paint0_linear_36_32587" x1="44.4678" y1="61.1452" x2="76.2643" y2="61.1452" gradientUnits="userSpaceOnUse">
<stop offset="0.144" stop-color="#194185"/>
<stop offset="0.218" stop-color="#1849A9"/>
<stop offset="0.375" stop-color="#175CD3"/>
<stop offset="0.579" stop-color="#175CD3"/>
<stop offset="1" stop-color="#175CD3"/>
</linearGradient>
</defs>
</svg>
