<svg width="120" height="120" viewBox="0 0 120 120" fill="none" xmlns="http://www.w3.org/2000/svg">
<path d="M92.4468 25.9253C92.4468 28.8755 90.0366 31.2672 87.0635 31.2672C84.0905 31.2672 81.6807 28.8755 81.6807 25.9253C81.6807 22.9751 84.0905 20.5835 87.0635 20.5835C90.0366 20.5835 92.4468 22.9751 92.4468 25.9253Z" fill="url(#paint0_linear_36_32625)"/>
<path d="M92.4468 25.9253C92.4468 28.8755 90.0366 31.2672 87.0635 31.2672C84.0905 31.2672 81.6807 28.8755 81.6807 25.9253C81.6807 22.9751 84.0905 20.5835 87.0635 20.5835C90.0366 20.5835 92.4468 22.9751 92.4468 25.9253Z" fill="black"/>
<path d="M74.1437 31.2668C74.1437 34.217 71.7339 36.6086 68.7608 36.6086C65.7877 36.6086 63.3779 34.217 63.3779 31.2668C63.3779 28.3166 65.7877 25.9249 68.7608 25.9249C71.7339 25.9249 74.1437 28.3166 74.1437 31.2668Z" fill="url(#paint1_linear_36_32625)"/>
<path d="M74.1437 31.2668C74.1437 34.217 71.7339 36.6086 68.7608 36.6086C65.7877 36.6086 63.3779 34.217 63.3779 31.2668C63.3779 28.3166 65.7877 25.9249 68.7608 25.9249C71.7339 25.9249 74.1437 28.3166 74.1437 31.2668Z" fill="black"/>
<path fill-rule="evenodd" clip-rule="evenodd" d="M43.4009 56.6701C43.4009 65.9495 47.9894 74.165 55.0376 79.205C59.2516 75.4568 61.9029 70.0137 61.9029 63.9561V48.9917C61.9029 46.7378 63.4355 44.7676 65.6324 44.1963L93.1535 37.04C96.3201 36.2167 99.4154 38.5872 99.4154 41.8354V60.0438C99.4154 81.6287 81.7821 99.1269 60.0309 99.1269H59.9664C38.2151 99.1269 20.582 81.6287 20.582 60.0438V47.4774C20.582 45.2152 22.1254 43.24 24.3333 42.6765L37.1612 39.4026C40.3221 38.5959 43.4009 40.9648 43.4009 44.2037V56.6701ZM26.2911 60.0438C26.2911 67.558 28.7903 74.4929 33.0088 80.0746C34.9855 82.6901 37.9963 84.4269 41.2747 84.4269C44.3956 84.4269 47.3545 83.7389 50.0062 82.5081C42.4876 76.3781 37.6918 67.08 37.6918 56.6701V45.117L26.2911 48.0267V60.0438Z" fill="url(#paint2_linear_36_32625)"/>
<path fill-rule="evenodd" clip-rule="evenodd" d="M43.4009 56.6701C43.4009 65.9495 47.9894 74.165 55.0376 79.205C59.2516 75.4568 61.9029 70.0137 61.9029 63.9561V48.9917C61.9029 46.7378 63.4355 44.7676 65.6324 44.1963L93.1535 37.04C96.3201 36.2167 99.4154 38.5872 99.4154 41.8354V60.0438C99.4154 81.6287 81.7821 99.1269 60.0309 99.1269H59.9664C38.2151 99.1269 20.582 81.6287 20.582 60.0438V47.4774C20.582 45.2152 22.1254 43.24 24.3333 42.6765L37.1612 39.4026C40.3221 38.5959 43.4009 40.9648 43.4009 44.2037V56.6701ZM26.2911 60.0438C26.2911 67.558 28.7903 74.4929 33.0088 80.0746C34.9855 82.6901 37.9963 84.4269 41.2747 84.4269C44.3956 84.4269 47.3545 83.7389 50.0062 82.5081C42.4876 76.3781 37.6918 67.08 37.6918 56.6701V45.117L26.2911 48.0267V60.0438Z" fill="black"/>
<defs>
<linearGradient id="paint0_linear_36_32625" x1="70.0338" y1="44.7003" x2="65.0508" y2="90.9351" gradientUnits="userSpaceOnUse">
<stop stop-color="white"/>
<stop offset="1" stop-color="#2E2E2E"/>
</linearGradient>
<linearGradient id="paint1_linear_36_32625" x1="70.0333" y1="44.6999" x2="65.0503" y2="90.9348" gradientUnits="userSpaceOnUse">
<stop stop-color="white"/>
<stop offset="1" stop-color="#2E2E2E"/>
</linearGradient>
<linearGradient id="paint2_linear_36_32625" x1="70.0324" y1="44.6997" x2="65.0494" y2="90.9346" gradientUnits="userSpaceOnUse">
<stop stop-color="white"/>
<stop offset="1" stop-color="#2E2E2E"/>
</linearGradient>
</defs>
</svg>
