<svg width="120" height="120" viewBox="0 0 120 120" fill="none" xmlns="http://www.w3.org/2000/svg">
<path fill-rule="evenodd" clip-rule="evenodd" d="M75.3295 24.1666C79.4718 24.1666 82.8294 27.4884 82.8294 31.5841V76.3794C82.8582 77.0657 83.1522 77.7141 83.6494 78.188C84.1467 78.6619 84.8085 78.9243 85.4954 78.92C86.1817 78.9233 86.8426 78.6605 87.3391 78.1867C87.8356 77.7129 88.1291 77.0651 88.1578 76.3794V49.6047C88.163 48.6353 88.359 47.6765 88.7348 46.7829C89.1105 45.8892 89.6586 45.0784 90.3477 44.3966C91.0368 43.7148 91.8535 43.1754 92.7511 42.8092C93.6486 42.4431 94.6095 42.2573 95.5789 42.2625C96.5486 42.2573 97.5098 42.4432 98.4076 42.8096C99.3054 43.176 100.122 43.7157 100.811 44.3979C101.501 45.08 102.049 45.8913 102.424 46.7853C102.8 47.6794 102.995 48.6386 103 49.6083V73.1185C102.996 73.7347 102.748 74.3242 102.31 74.7575C101.872 75.1909 101.28 75.4327 100.664 75.4298C100.358 75.4317 100.055 75.3734 99.7726 75.2583C99.4897 75.1431 99.2323 74.9734 99.015 74.7588C98.7977 74.5442 98.6249 74.2889 98.5062 74.0074C98.3876 73.726 98.3256 73.4239 98.3237 73.1185V49.6083C98.3219 49.2497 98.2494 48.895 98.1104 48.5645C97.9715 48.2339 97.7688 47.9339 97.5139 47.6817C97.259 47.4295 96.9569 47.23 96.6249 47.0945C96.2929 46.959 95.9375 46.8902 95.5789 46.8921C95.2203 46.8902 94.8649 46.959 94.5329 47.0945C94.2009 47.23 93.8988 47.4295 93.644 47.6817C93.3891 47.9339 93.1864 48.2339 93.0474 48.5645C92.9084 48.895 92.836 49.2497 92.8341 49.6083V76.383C92.8289 77.3415 92.635 78.2897 92.2634 79.1733C91.8918 80.0569 91.3498 80.8587 90.6683 81.5328C89.9869 82.2069 89.1793 82.7403 88.2917 83.1023C87.4042 83.4643 86.454 83.648 85.4954 83.6428C84.5369 83.648 83.5867 83.4643 82.6991 83.1023C81.8115 82.7403 81.004 82.2069 80.3225 81.5328C79.641 80.8587 79.099 80.0569 78.7274 79.1733C78.3558 78.2897 78.1619 77.3415 78.1567 76.383V31.5913C78.1271 30.8635 77.8162 30.1755 77.2895 29.6722C76.7629 29.169 76.0615 28.8897 75.3331 28.893C74.6046 28.8887 73.9029 29.1671 73.3755 29.6697C72.8482 30.1723 72.5364 30.8599 72.5058 31.5877L72.5023 88.577C72.4909 90.5123 71.7114 92.3638 70.3352 93.7246C68.9591 95.0853 67.0989 95.8438 65.1636 95.8333C64.205 95.8385 63.2548 95.6548 62.3673 95.2928C61.4797 94.9307 60.6721 94.3974 59.9907 93.7233C59.3092 93.0492 58.7672 92.2474 58.3956 91.3638C58.024 90.4802 57.8301 89.532 57.8249 88.5735V81.6433C57.8249 80.3676 58.8713 79.332 60.1613 79.332C61.4512 79.332 62.4976 80.3676 62.4976 81.6433V88.5735C62.4976 89.5159 63.0064 90.3866 63.8306 90.8596C64.6548 91.329 65.6724 91.329 66.4966 90.8596C66.901 90.6304 67.2374 90.298 67.4716 89.8964C67.7057 89.4948 67.8293 89.0383 67.8296 88.5735V31.5841C67.8296 27.4884 71.1872 24.1666 75.3295 24.1666ZM54.9977 24.1666C59.14 24.1666 62.4976 27.4884 62.4976 31.5841V72.8749C62.4962 73.1801 62.4346 73.4821 62.3164 73.7635C62.1982 74.0449 62.0256 74.3002 61.8086 74.5149C61.5916 74.7296 61.3344 74.8994 61.0518 75.0145C60.7691 75.1297 60.4665 75.188 60.1613 75.1861C59.856 75.188 59.5534 75.1297 59.2707 75.0145C58.9881 74.8994 58.7309 74.7296 58.5139 74.5149C58.2969 74.3002 58.1243 74.0449 58.0061 73.7635C57.8879 73.4821 57.8263 73.1801 57.8249 72.8749V31.5841C57.8202 30.8387 57.5198 30.1257 56.9896 29.6016C56.4595 29.0775 55.7431 28.7853 54.9977 28.7891C54.2522 28.7853 53.5358 29.0775 53.0057 29.6016C52.4756 30.1257 52.1752 30.8387 52.1704 31.5841V81.7974C52.159 83.7539 51.3714 85.6258 49.9805 87.0019C48.5897 88.378 46.7094 89.1456 44.7529 89.136C42.7958 89.1465 40.9146 88.3793 39.523 87.0032C38.1313 85.627 37.3432 83.7545 37.3318 81.7974V49.6083C37.33 49.2497 37.2575 48.895 37.1185 48.5645C36.9796 48.2339 36.7768 47.9339 36.522 47.6817C36.2671 47.4295 35.965 47.23 35.633 47.0945C35.301 46.959 34.9456 46.8902 34.587 46.8921C34.2284 46.8902 33.873 46.959 33.541 47.0945C33.209 47.23 32.9069 47.4295 32.652 47.6817C32.3972 47.9339 32.1944 48.2339 32.0555 48.5645C31.9165 48.895 31.844 49.2497 31.8422 49.6083V63.225C31.837 64.1943 31.641 65.1532 31.2652 66.0468C30.8895 66.9404 30.3414 67.7513 29.6523 68.4331C28.9632 69.1149 28.1465 69.6543 27.2489 70.0204C26.3514 70.3866 25.3905 70.5724 24.4211 70.5672C23.4517 70.5724 22.4908 70.3866 21.5932 70.0204C20.6957 69.6543 19.879 69.1149 19.1899 68.4331C18.5008 67.7513 17.9527 66.9404 17.577 66.0468C17.2012 65.1532 17.0052 64.1943 17 63.225V58.2871C17 57.0079 18.0463 55.9723 19.3363 55.9723C20.6263 55.9723 21.6762 57.0115 21.6762 58.2871V63.225C21.6762 64.7228 22.9053 65.9375 24.4211 65.9375C25.9368 65.9375 27.1659 64.7228 27.1659 63.225V49.6047C27.1773 47.6482 27.9649 45.7763 29.3558 44.4002C30.7466 43.0241 32.6269 42.2565 34.5834 42.266C36.5405 42.2556 38.4217 43.0227 39.8134 44.3989C41.205 45.7751 41.9931 47.6476 42.0045 49.6047V81.7974C42.0045 83.2988 43.2336 84.5135 44.7529 84.5135C46.2687 84.5135 47.4977 83.2988 47.4977 81.7974V31.5841C47.4977 27.4884 50.8553 24.1666 54.9977 24.1666Z" fill="currentColor"/>
</svg>
