<svg width="120" height="120" viewBox="0 0 120 120" fill="none" xmlns="http://www.w3.org/2000/svg">
<g clip-path="url(#clip0_36_27137)">
<path d="M89.6379 65.8985H77.7793V77.7222H89.6379V65.8985Z" fill="#FA500F"/>
<path d="M101.501 77.718H65.9297V89.5421H101.501V77.718Z" fill="#E10500"/>
<path d="M65.9289 65.8985H54.0703V77.7222H65.9289V65.8985Z" fill="#FA500F"/>
<path d="M42.2101 65.8985H30.3516V77.7222H42.2101V65.8985Z" fill="#FA500F"/>
<path d="M54.0679 77.718H18.5V89.5421H54.0679V77.718Z" fill="#E10500"/>
<path d="M89.6428 42.2556H65.9297V54.0792H89.6428V42.2556Z" fill="#FFAF00"/>
<path d="M54.0648 42.2556H30.3516V54.0792H54.0648V42.2556Z" fill="#FFAF00"/>
<path d="M89.6328 54.0739H30.3516V65.8976H89.6328V54.0739Z" fill="#FF8205"/>
<path d="M89.6379 30.4312H77.7793V42.2549H89.6379V30.4312Z" fill="#FFD800"/>
<path d="M42.2101 30.4312H30.3516V42.2549H42.2101V30.4312Z" fill="#FFD800"/>
</g>
<defs>
<clipPath id="clip0_36_27137">
<rect width="83" height="83" fill="white" transform="translate(18.5 18.5)"/>
</clipPath>
</defs>
</svg>
