<svg width="120" height="120" viewBox="0 0 120 120" fill="none" xmlns="http://www.w3.org/2000/svg">
<path d="M19.0303 57.4415H28.379V66.7211H19.0303V57.4415ZM55.1641 66.7244H64.5129V76.004H55.1641V66.7244ZM83.2099 76.004H73.8612V84.0319H91.2979V66.7244H83.2099V76.004Z" fill="#624AFF"/>
<path d="M64.5129 57.4416H73.8612V66.7212H64.5129V57.4416ZM19.0303 48.1622H28.379V57.4416H19.0303V48.1622Z" fill="#36CFD1"/>
<path d="M91.2988 57.4415H100.648V66.7211H91.2988V57.4415Z" fill="#624AFF"/>
<path d="M91.2988 48.1622H100.648V57.4416H91.2988V48.1622Z" fill="#36CFD1"/>
<path d="M73.8643 40.1342V48.1619H83.213V57.4413H91.3009V40.1342H73.8643Z" fill="#624AFF"/>
<path d="M45.8184 57.4415H55.1671V66.7211H45.8184V57.4415Z" fill="#36CFD1"/>
<path d="M36.4685 48.1619H45.8172V40.1342H28.3809V57.4413H36.4685V48.1619ZM36.4685 66.7247H28.3809V84.0317H45.8172V76.0038H36.4685V66.7247Z" fill="#624AFF"/>
</svg>
