<svg width="120" height="120" viewBox="0 0 120 120" fill="none" xmlns="http://www.w3.org/2000/svg">
<g clip-path="url(#clip0_36_28104)">
<path d="M60 101.5C82.9198 101.5 101.5 82.9198 101.5 60C101.5 37.0802 82.9198 18.5 60 18.5C37.0802 18.5 18.5 37.0802 18.5 60C18.5 82.9198 37.0802 101.5 60 101.5Z" fill="url(#paint0_linear_36_28104)"/>
<path d="M60 89.1816C78.6223 89.1816 93.7188 76.1166 93.7188 60.0001C93.7188 43.8837 78.6223 30.8187 60 30.8187C41.3776 30.8187 26.2812 43.8837 26.2812 60.0001C26.2812 76.1166 41.3776 89.1816 60 89.1816Z" fill="white"/>
<path d="M74.5504 53.7575C74.855 53.4336 75.2215 53.1742 75.6282 52.9946C76.0349 52.815 76.4735 52.7189 76.9181 52.7121C77.3626 52.7052 77.804 52.7877 78.2161 52.9547C78.6281 53.1217 79.0025 53.3697 79.3168 53.6841C79.6312 53.9985 79.8793 54.3728 80.0462 54.7848C80.2132 55.1969 80.2957 55.6383 80.2888 56.0828C80.282 56.5274 80.1859 56.966 80.0063 57.3727C79.8267 57.7795 79.5673 58.146 79.2434 58.4505L75.3908 62.3031L80.4849 65.2427C80.8745 65.4542 81.2178 65.7417 81.4945 66.0881C81.7712 66.4345 81.9758 66.8328 82.0961 67.2595C82.2164 67.6862 82.25 68.1327 82.1949 68.5726C82.1398 69.0125 81.9972 69.4369 81.7755 69.8208C81.5537 70.2048 81.2573 70.5404 80.9038 70.8079C80.5502 71.0754 80.1467 71.2693 79.7169 71.3783C79.2872 71.4874 78.84 71.5092 78.4017 71.4426C77.9634 71.3759 77.5428 71.2222 77.1649 70.9904L68.7127 66.1107C68.6275 66.0612 68.5444 66.0082 68.4637 65.9516C68.0024 65.7099 67.6043 65.3632 67.3014 64.9394C66.9986 64.5157 66.7994 64.0268 66.72 63.512C66.6406 62.9973 66.6832 62.4711 66.8443 61.9758C67.0054 61.4805 67.2805 61.0299 67.6476 60.6604L74.5504 53.7575ZM45.0889 52.8653C43.7131 52.8653 42.3936 53.4118 41.4208 54.3847C40.4479 55.3575 39.9014 56.677 39.9014 58.0528V65.834C39.9014 67.2099 40.4479 68.5293 41.4208 69.5022C42.3936 70.475 43.7131 71.0215 45.0889 71.0215C46.4647 71.0215 47.7841 70.475 48.757 69.5022C49.7298 68.5293 50.2764 67.2099 50.2764 65.834V58.0528C50.2764 56.677 49.7298 55.3575 48.757 54.3847C47.7841 53.4118 46.4647 52.8653 45.0889 52.8653Z" fill="#1E1E1E"/>
</g>
<defs>
<linearGradient id="paint0_linear_36_28104" x1="18.5" y1="60.9718" x2="101.5" y2="60.9718" gradientUnits="userSpaceOnUse">
<stop stop-color="#A83FE0"/>
<stop offset="0.477" stop-color="#515FFB"/>
<stop offset="1" stop-color="#2BB5DD"/>
</linearGradient>
<clipPath id="clip0_36_28104">
<rect width="83" height="83" fill="white" transform="translate(18.5 18.5)"/>
</clipPath>
</defs>
</svg>
