<svg width="120" height="120" viewBox="0 0 120 120" fill="none" xmlns="http://www.w3.org/2000/svg">
<path d="M96.3848 74.2558C94.7229 78.6013 92.45 82.5301 89.431 85.9561C81.6201 94.8116 71.7788 99.2822 59.9638 99.4169C59.9345 99.4159 59.9065 99.404 59.885 99.384C59.8628 99.3643 59.8477 99.3377 59.8424 99.3084C59.837 99.2808 59.8402 99.2521 59.852 99.2263C59.8642 99.1983 59.8864 99.1761 59.9144 99.164C66.1096 96.6051 71.2599 92.6831 75.1063 87.2107C77.6745 83.5811 79.4905 79.4746 80.4472 75.1327C81.1603 71.9138 81.5312 68.711 81.3735 65.4692C81.2159 62.1252 80.8744 60.2103 79.784 57.0437C78.5158 53.365 76.7783 49.9487 74.4394 46.8972C71.5391 43.1066 68.2775 40.7547 64.9139 37.7689C61.6455 34.8783 57.7203 29.153 61.4352 25.438C62.6965 24.1766 64.7103 23.5 67.4727 23.3982C75.6123 23.1025 83.9324 28.772 89.1422 34.7404C91.6057 37.5652 93.6751 40.6463 95.2683 44.0592C96.8646 47.4786 97.9418 51.0294 98.4807 54.7213C98.9175 57.727 98.8649 59.4549 98.7828 62.49C98.6567 66.5194 97.8458 70.498 96.3848 74.2558Z" fill="url(#paint0_linear_36_32605)"/>
<path d="M59.5382 20.6164C59.5601 20.6362 59.5748 20.6627 59.5802 20.6918C59.5855 20.7209 59.5812 20.7509 59.5676 20.7773C59.5554 20.8032 59.5343 20.8241 59.5085 20.8364C53.31 23.3952 48.1598 27.3172 44.3133 32.7896C41.7449 36.4201 39.9289 40.5278 38.9723 44.8709C38.2595 48.0866 37.8884 51.2925 38.0428 54.5313C38.2037 57.8752 38.5486 59.7902 39.6391 62.9568C40.9038 66.6354 42.6414 70.0518 44.9801 73.0998C47.8805 76.8906 51.1423 79.2488 54.5058 82.2315C57.7742 85.1222 61.6993 90.8441 57.9845 94.5589C56.7199 95.8238 54.7093 96.5004 51.9471 96.6021C43.8075 96.8945 35.4872 91.2282 30.2776 85.2566C27.8141 82.4318 25.7447 79.3541 24.1516 75.9378C22.564 72.5605 21.4816 68.9678 20.9391 65.2755C20.5023 62.2734 20.5548 60.5455 20.6402 57.5105C20.7519 53.4867 21.5731 49.5746 23.0381 45.7446C24.6936 41.3989 26.9699 37.4671 29.9886 34.0444C37.7964 25.1887 47.6407 20.7149 59.4558 20.5835C59.4856 20.5835 59.5185 20.5966 59.5382 20.6164Z" fill="url(#paint1_linear_36_32605)"/>
<path d="M49.2293 59.681L57.2935 57.3554L59.6585 49.2093C59.6718 49.1641 59.6997 49.1246 59.7381 49.0967C59.776 49.0688 59.8223 49.0541 59.8696 49.0548C59.9165 49.0556 59.9624 49.0717 59.9997 49.1008C60.0366 49.1299 60.0634 49.1703 60.0756 49.2159L61.9805 56.6395C64.5297 58.0749 67.4007 59.1195 70.5934 59.7795C70.6178 59.7867 70.6404 59.7996 70.659 59.8168C70.6776 59.8344 70.692 59.8559 70.7009 59.8799C70.7099 59.9035 70.7131 59.9293 70.7102 59.9548C70.7077 59.9802 70.6991 60.0046 70.6852 60.0261C70.6662 60.0544 70.6386 60.0762 70.6063 60.0884L62.7821 62.4172C62.6979 62.4423 62.6212 62.4878 62.5589 62.5498C62.4962 62.6118 62.4499 62.6881 62.4241 62.772L60.0591 70.8001C60.0541 70.8237 60.0416 70.8452 60.0229 70.8614C60.0047 70.8775 59.9817 70.8868 59.9574 70.8886C59.9326 70.8897 59.9083 70.8825 59.8879 70.8682C59.8678 70.8538 59.8527 70.8334 59.8456 70.8098L57.5035 62.9429C57.4759 62.8422 57.4225 62.7508 57.3491 62.677C57.2752 62.6032 57.1835 62.5498 57.0832 62.5222L49.2326 60.2067C49.1902 60.1941 49.1515 60.1716 49.1197 60.1407C49.0879 60.1103 49.0639 60.0723 49.0497 60.0307C49.0355 59.9888 49.0316 59.944 49.0383 59.9003C49.045 59.8566 49.0621 59.8154 49.0881 59.7795C49.1234 59.7326 49.1729 59.6978 49.2293 59.681Z" fill="url(#paint2_linear_36_32605)"/>
<defs>
<linearGradient id="paint0_linear_36_32605" x1="79.3404" y1="23.3883" x2="79.3404" y2="99.4169" gradientUnits="userSpaceOnUse">
<stop stop-color="#F85EAD"/>
<stop offset="1" stop-color="#FD75FD"/>
</linearGradient>
<linearGradient id="paint1_linear_36_32605" x1="40.0793" y1="20.5835" x2="40.0793" y2="96.6122" gradientUnits="userSpaceOnUse">
<stop offset="0.332" stop-color="#11F5EF"/>
<stop offset="1" stop-color="#C738FB"/>
</linearGradient>
<linearGradient id="paint2_linear_36_32605" x1="59.8717" y1="49.0484" x2="59.8717" y2="70.8886" gradientUnits="userSpaceOnUse">
<stop offset="0.332" stop-color="#11F5EF"/>
<stop offset="1" stop-color="#C738FB"/>
</linearGradient>
</defs>
</svg>
