<svg width="120" height="120" viewBox="0 0 120 120" fill="none" xmlns="http://www.w3.org/2000/svg">
<path d="M49.5081 50.528V45.4571C49.9939 45.4258 50.4798 45.3945 50.9656 45.3945C64.4473 44.9562 73.2834 57.3518 73.2834 57.3518C73.2834 57.3518 63.749 70.9996 53.5164 70.9996C52.1498 70.9996 50.8138 70.7806 49.5385 70.3422V54.9417C54.7914 55.5991 55.8541 57.9781 58.9816 63.3931L65.996 57.3207C65.996 57.3207 60.8645 50.4028 52.2409 50.4028C51.33 50.3715 50.419 50.4341 49.5081 50.528ZM49.5081 33.7501V41.3252L50.9656 41.2313C69.7003 40.5739 81.9373 57.0702 81.9373 57.0702C81.9373 57.0702 67.9089 74.6622 53.3038 74.6622C52.0284 74.6622 50.7834 74.5369 49.5385 74.3176V79.0129C50.5709 79.1382 51.6336 79.2319 52.6659 79.2319C66.2694 79.2319 76.1072 72.0638 85.6419 63.6124C87.2206 64.9272 93.6883 68.0884 95.0244 69.4658C85.9756 77.2913 64.8725 83.5831 52.9089 83.5831C51.7551 83.5831 50.662 83.5204 49.5688 83.3952V90.0001H101.249V33.7501H49.5081ZM49.5081 70.3422V74.3491C36.9373 72.0327 33.4454 58.5413 33.4454 58.5413C33.4454 58.5413 39.4879 51.6549 49.5081 50.528V54.9102H49.4778C44.2247 54.2528 40.0952 59.3239 40.0952 59.3239C40.0952 59.3239 42.4332 67.8694 49.5081 70.3422ZM27.1903 57.9781C27.1903 57.9781 34.6296 46.6466 49.5385 45.4571V41.3252C33.0203 42.7025 18.749 57.1013 18.749 57.1013C18.749 57.1013 26.826 81.2041 49.5081 83.3952V79.0129C32.8684 76.8844 27.1903 57.9781 27.1903 57.9781Z" fill="#76B900"/>
</svg>
