<svg width="120" height="120" viewBox="0 0 120 120" fill="none" xmlns="http://www.w3.org/2000/svg">
<path d="M75.6368 22.8636C81.3793 27.0171 81.3793 27.0171 85.4095 32.6364C87.1901 34.7219 88.9825 36.7996 90.7845 38.8675C98.4776 48.4838 98.2509 56.3802 98.2138 68.5277C96.4938 79.8797 90.3526 86.3141 81.5005 93.2273C73.9618 98.5065 66.0302 97.7247 57.0686 97.7462C54.1466 97.7794 51.2226 97.8126 48.2126 97.8459C40.4882 97.1403 37.8535 96.7513 32.6368 91.2727C23.253 79.8641 21.4216 68.5629 22.0471 54.0523C23.5345 43.5271 28.843 37.986 36.4247 31.1705C48.709 22.1444 60.6767 20.8446 75.6368 22.8636Z" fill="#F5F6FC"/>
<path d="M40.097 34.4C43.1578 34.4235 46.2186 34.445 49.3732 34.4684C52.4399 34.486 55.5066 34.5036 58.6651 34.5212C61.0419 34.5447 63.4166 34.5681 65.8657 34.5916C59.6541 38.7313 53.4641 41.4462 46.6251 44.3643C41.989 46.3834 41.989 46.3834 36.5475 50.2279C37.1925 53.4529 37.8375 56.6779 38.5021 60.0007C50.7571 60.6457 63.0121 61.2907 75.6384 61.9552C70.0562 65.6747 65.7035 67.3537 59.3903 69.4059C47.8252 73.4909 41.2541 78.7467 32.6384 87.3643C21.9979 74.3216 21.3138 65.0805 22.8657 48.2734C26.4914 39.173 30.3008 34.6502 40.097 34.4Z" fill="#1335BB"/>
<path d="M83.4554 32.6364C94.7781 40.9784 94.7781 40.9784 97.1373 48.2727C97.3816 54.625 97.3816 54.625 97.1373 60C95.7261 59.0735 94.3149 58.1451 92.8607 57.1894C87.5698 54.2497 83.5297 53.0301 77.5918 52.1818C78.1958 51.1342 78.8017 50.0865 79.4252 49.0057C81.8488 43.5857 82.656 38.5 83.4554 32.6364Z" fill="#1837BB"/>
<path d="M32.6362 34.5909C43.6012 34.5909 54.5662 34.5909 65.8635 34.5909C60.2832 38.3104 57.2263 39.403 50.8369 40.6989C49.2576 41.0272 47.6784 41.3536 46.0502 41.6918C44.8482 41.9283 43.6481 42.1648 42.4089 42.4091C42.4089 41.7641 42.4089 41.1191 42.4089 40.4545C36.6039 39.487 36.6039 39.487 30.6816 38.5C31.3266 37.21 31.9716 35.92 32.6362 34.5909Z" fill="#0E2FB9"/>
<path d="M38.5009 28.7273C40.4359 29.3723 42.3709 30.0173 44.3645 30.6818C49.0418 31.1235 53.7248 31.4793 58.4138 31.7803C62.1431 32.0265 62.1431 32.0265 65.9486 32.2767C67.8562 32.3959 69.7638 32.5152 71.7282 32.6364C71.7282 33.9264 71.7282 35.2164 71.7282 36.5454C59.4732 35.9004 47.2182 35.2554 34.5918 34.5909C35.8818 32.6559 37.1718 30.7209 38.5009 28.7273Z" fill="#CDD4F0"/>
<path d="M83.4545 85.4091C84.7445 86.0541 86.0345 86.6991 87.3636 87.3636C77.284 95.5864 73.1306 97.3787 60 97.1364C61.1239 96.5793 62.2477 96.0223 63.4048 95.4496C66.2409 94.0208 69.0632 92.5627 71.8641 91.0675C73.1893 90.3678 74.5145 89.67 75.8807 88.9507C77.8841 87.8816 77.8841 87.8816 79.9266 86.791C81.0915 86.3355 82.2545 85.8782 83.4545 85.4091Z" fill="#1C37BB"/>
</svg>
