<svg width="120" height="120" viewBox="0 0 120 120" fill="none" xmlns="http://www.w3.org/2000/svg">
<path fill-rule="evenodd" clip-rule="evenodd" d="M44.6424 19.0876C45.4524 19.4063 46.1836 19.9313 46.8474 20.6251C47.9536 21.7726 48.8874 23.4151 49.5999 25.3613C50.3161 27.3188 50.7811 29.4863 50.9574 31.6613C53.3184 30.3256 55.9387 29.5123 58.6411 29.2763L58.8324 29.2613C62.0949 28.9988 65.3199 29.5876 68.1324 31.0388C68.5111 31.2376 68.8824 31.4513 69.2461 31.6763C69.4336 29.5426 69.8911 27.4238 70.5961 25.5113C71.3086 23.5613 72.2424 21.9226 73.3449 20.7713C73.961 20.1048 74.7147 19.5802 75.5536 19.2338C76.5174 18.8588 77.5411 18.7913 78.5386 19.0763C80.0424 19.5038 81.3324 20.4563 82.3486 21.8401C83.2786 23.1038 83.9761 24.7238 84.4524 26.6663C85.3149 30.1688 85.4649 34.7776 84.8836 40.3351L85.0824 40.4851L85.1799 40.5563C88.0186 42.7163 89.9949 45.7951 91.0411 49.3688C92.6724 54.9451 91.8511 61.2001 89.0386 64.6988L88.9711 64.7776L88.9786 64.7888C90.5424 67.6463 91.4911 70.6651 91.6936 73.7888L91.7011 73.9013C91.9411 77.8951 90.9511 81.9151 88.6486 85.8638L88.6224 85.9013L88.6599 85.9913C90.4299 90.3301 90.9849 94.6988 90.3024 99.0638L90.2799 99.2101C90.1741 99.8477 89.8199 100.417 89.2947 100.794C88.7696 101.171 88.1165 101.324 87.4786 101.22C87.1628 101.171 86.8598 101.06 86.5869 100.893C86.3141 100.726 86.0768 100.508 85.8887 100.249C85.7006 99.9906 85.5653 99.6975 85.4907 99.3867C85.416 99.0758 85.4034 98.7533 85.4536 98.4376C86.0799 94.5638 85.4911 90.6788 83.6536 86.7263C83.4822 86.3591 83.4061 85.9546 83.4323 85.5502C83.4585 85.1458 83.5862 84.7546 83.8036 84.4126L83.8186 84.3901C86.0836 80.9251 87.0211 77.5276 86.8186 74.1901C86.6461 71.2688 85.5999 68.4001 83.8186 65.6663C83.4722 65.1349 83.3488 64.4884 83.4751 63.8667C83.6014 63.245 83.9673 62.698 84.4936 62.3438L84.5274 62.3213C85.4386 61.7251 86.2786 60.2026 86.7024 58.1213C87.1699 55.6603 87.0479 53.1236 86.3461 50.7188C85.5774 48.0938 84.1711 45.9038 82.2024 44.4076C79.9711 42.7051 77.0161 41.8838 73.2774 42.1201C72.7885 42.1519 72.3013 42.0363 71.8788 41.7883C71.4563 41.5402 71.1179 41.1712 70.9074 40.7288C69.7299 38.2351 68.0124 36.4501 65.8711 35.3438C63.8154 34.3178 61.5139 33.8866 59.2261 34.0988C54.5574 34.4701 50.4399 37.1026 49.2136 40.4213C49.0402 40.8884 48.7281 41.2913 48.3193 41.5762C47.9105 41.861 47.4244 42.0141 46.9261 42.0151C42.9249 42.0226 39.8274 42.9601 37.5624 44.6513C35.6049 46.1138 34.2699 48.1576 33.5649 50.6063C32.9269 52.9113 32.8396 55.3339 33.3099 57.6788C33.7299 59.7713 34.5511 61.5038 35.4924 62.4376L35.5224 62.4638C36.3174 63.2401 36.4861 64.4513 35.9311 65.4076C34.5811 67.7401 33.5724 71.2163 33.4074 74.5576C33.2199 78.3751 34.1049 81.6901 36.1036 84.0676L36.1636 84.1388C36.4653 84.4903 36.6593 84.9213 36.7224 85.3801C36.7856 85.839 36.7153 86.3064 36.5199 86.7263C34.3599 91.3613 33.6961 95.1713 34.4124 98.1713C34.5411 98.7951 34.4213 99.4446 34.0785 99.9814C33.7357 100.518 33.1969 100.9 32.5768 101.046C31.9567 101.191 31.3043 101.089 30.7583 100.761C30.2124 100.433 29.816 99.9047 29.6536 99.2888C28.7424 95.4713 29.3611 91.0988 31.4274 86.1713L31.4799 86.0401L31.4499 85.9951C30.4344 84.495 29.6764 82.836 29.2074 81.0863L29.1886 81.0151C28.6194 78.8321 28.3955 76.5735 28.5249 74.3213C28.6899 70.9088 29.5674 67.4138 30.8574 64.6088L30.9024 64.5113L30.8949 64.5038C29.7961 62.9363 28.9824 60.9301 28.5324 58.7101L28.5136 58.6201C27.8936 55.5235 28.0131 52.3243 28.8624 49.2826C29.8449 45.8513 31.7761 42.9038 34.6224 40.7738C34.8474 40.6051 35.0836 40.4363 35.3199 40.2788C34.7236 34.6801 34.8736 30.0413 35.7399 26.5163C36.2161 24.5738 36.9174 22.9538 37.8474 21.6901C38.8599 20.3101 40.1499 19.3576 41.6536 18.9263C42.6511 18.6413 43.6786 18.7051 44.6424 19.0838V19.0876ZM60.0774 53.1751C63.5874 53.1751 66.8274 54.3488 69.2499 56.3813C71.6124 58.3576 73.0186 61.0126 73.0186 63.6563C73.0186 66.9863 71.4961 69.5813 68.7699 71.2388C66.4449 72.6451 63.3286 73.3276 59.7586 73.3276C55.9749 73.3276 52.7424 72.3563 50.4099 70.5751C48.0961 68.8126 46.7986 66.3376 46.7986 63.6563C46.7986 61.0051 48.2911 58.3426 50.7586 56.3588C53.2636 54.3451 56.5711 53.1751 60.0774 53.1751ZM60.0774 56.5351C57.4758 56.5124 54.9432 57.3715 52.8924 58.9726C51.1636 60.3601 50.1849 62.1038 50.1849 63.6601C50.1849 65.2651 50.9724 66.7688 52.4724 67.9126C54.1786 69.2138 56.6874 69.9676 59.7586 69.9676C62.7549 69.9676 65.2824 69.4163 67.0036 68.3701C68.7399 67.3201 69.6286 65.7976 69.6286 63.6563C69.6286 62.0701 68.7061 60.3188 67.0674 58.9463C65.2524 57.4276 62.7924 56.5351 60.0774 56.5351ZM62.5599 61.0726L62.5749 61.0876C63.0249 61.6538 62.9311 62.4751 62.3649 62.9251L61.2699 63.7876V65.4601C61.2679 65.8324 61.1184 66.1887 60.854 66.4509C60.5897 66.7131 60.2322 66.8598 59.8599 66.8588C59.4876 66.8598 59.1301 66.7131 58.8657 66.4509C58.6014 66.1887 58.4519 65.8324 58.4499 65.4601V63.7351L57.4336 62.9176C57.2996 62.8101 57.1881 62.6772 57.1057 62.5265C57.0233 62.3758 56.9715 62.2103 56.9534 62.0394C56.9352 61.8686 56.9511 61.6959 57.0001 61.5312C57.049 61.3666 57.1301 61.2132 57.2386 61.0801C57.46 60.8106 57.7787 60.6394 58.1256 60.6036C58.4724 60.5678 58.8194 60.6703 59.0911 60.8888L59.8974 61.5338L60.7224 60.8813C60.9932 60.6674 61.3368 60.5677 61.68 60.6034C62.0232 60.6391 62.339 60.8075 62.5599 61.0726ZM43.6599 53.8763C45.4524 53.8763 46.9111 55.3388 46.9111 57.1426C46.9121 58.0072 46.5699 58.8368 45.9595 59.4493C45.3492 60.0617 44.5208 60.4068 43.6561 60.4088C42.7928 60.4058 41.9659 60.0608 41.3565 59.4493C40.7471 58.8378 40.4049 58.0096 40.4049 57.1463C40.4029 56.2817 40.7442 55.4516 41.3538 54.8385C41.9634 54.2254 42.7953 53.8793 43.6599 53.8763ZM76.3074 53.8763C78.1074 53.8763 79.5624 55.3388 79.5624 57.1426C79.5634 58.0072 79.2211 58.8368 78.6108 59.4493C78.0005 60.0617 77.172 60.4068 76.3074 60.4088C75.4441 60.4058 74.6171 60.0608 74.0077 59.4493C73.3983 58.8378 73.0561 58.0096 73.0561 57.1463C73.0541 56.2817 73.3954 55.4516 74.0051 54.8385C74.6147 54.2254 75.4428 53.8793 76.3074 53.8763ZM42.8986 23.6251L42.8874 23.6326C42.453 23.8215 42.082 24.1313 41.8186 24.5251L41.7999 24.5476C41.2824 25.2563 40.8324 26.2988 40.4949 27.6676C39.8574 30.2626 39.6849 33.7838 40.0299 38.1001C41.6424 37.6201 43.4011 37.3201 45.2949 37.2113L45.3324 37.2076L45.4036 37.0801C45.5761 36.7726 45.7599 36.4763 45.9586 36.1838C46.4199 33.2926 46.0411 29.8388 45.0099 27.0188C44.5074 25.6538 43.8961 24.5813 43.3111 23.9701C43.1904 23.843 43.0558 23.7298 42.9099 23.6326L42.8986 23.6251ZM77.3011 23.7751L77.2936 23.7788C77.1477 23.876 77.0132 23.9892 76.8924 24.1163C76.3074 24.7276 75.6924 25.8038 75.1936 27.1688C74.1061 30.1463 73.7424 33.8288 74.3311 36.8138L74.5486 37.1776L74.5786 37.2301H74.6911C76.5522 37.2305 78.4036 37.4983 80.1886 38.0251C80.5111 33.8101 80.3311 30.3638 79.7086 27.8176C79.3711 26.4488 78.9211 25.4063 78.3999 24.6976L78.3849 24.6751C78.1221 24.2799 77.7511 23.9687 77.3161 23.7788H77.3011V23.7751Z" fill="currentColor"/>
</svg>
