<svg width="120" height="120" viewBox="0 0 120 120" fill="none" xmlns="http://www.w3.org/2000/svg">
<path d="M60 24.1667C38.5 24.1667 27.75 42.0833 27.75 56.4167C27.75 70.75 38.5 85.0833 49.25 88.6667V95.8333H56.4167V88.6667C56.4167 88.6667 60 90.1 63.5833 88.6667V95.8333H70.75V88.6667C81.5 85.0833 92.25 70.75 92.25 56.4167C92.25 42.0833 81.5 24.1667 60 24.1667Z" fill="url(#paint0_linear_37_192)"/>
<path d="M31.333 49.25C20.583 45.6667 16.9997 52.8333 20.583 60C24.1663 67.1667 31.333 63.5833 34.9163 56.4167C37.0663 51.4 34.9163 49.25 31.333 49.25Z" fill="url(#paint1_linear_37_192)"/>
<path d="M88.6667 49.25C99.4167 45.6667 103 52.8333 99.4167 60C95.8334 67.1667 88.6667 63.5833 85.0834 56.4167C82.9334 51.4 85.0834 49.25 88.6667 49.25Z" fill="url(#paint2_linear_37_192)"/>
<path d="M49.25 27.75C44.4722 22.9722 40.8889 21.3 38.5 22.7333" stroke="#FF4D4D" stroke-width="2.15" stroke-linecap="round"/>
<path d="M70.75 27.75C75.5278 22.9722 79.1111 21.3 81.5 22.7333" stroke="#FF4D4D" stroke-width="2.15" stroke-linecap="round"/>
<path d="M49.2502 46.3833C51.625 46.3833 53.5502 44.4582 53.5502 42.0833C53.5502 39.7085 51.625 37.7833 49.2502 37.7833C46.8754 37.7833 44.9502 39.7085 44.9502 42.0833C44.9502 44.4582 46.8754 46.3833 49.2502 46.3833Z" fill="#050810"/>
<path d="M70.7502 46.3833C73.125 46.3833 75.0502 44.4582 75.0502 42.0833C75.0502 39.7085 73.125 37.7833 70.7502 37.7833C68.3754 37.7833 66.4502 39.7085 66.4502 42.0833C66.4502 44.4582 68.3754 46.3833 70.7502 46.3833Z" fill="#050810"/>
<path d="M49.9665 43.1583C50.956 43.1583 51.7581 42.3562 51.7581 41.3667C51.7581 40.3772 50.956 39.575 49.9665 39.575C48.977 39.575 48.1748 40.3772 48.1748 41.3667C48.1748 42.3562 48.977 43.1583 49.9665 43.1583Z" fill="#00E5CC"/>
<path d="M71.4665 43.1583C72.456 43.1583 73.2581 42.3562 73.2581 41.3667C73.2581 40.3772 72.456 39.575 71.4665 39.575C70.477 39.575 69.6748 40.3772 69.6748 41.3667C69.6748 42.3562 70.477 43.1583 71.4665 43.1583Z" fill="#00E5CC"/>
<defs>
<linearGradient id="paint0_linear_37_192" x1="27.75" y1="24.1667" x2="99.0207" y2="88.3103" gradientUnits="userSpaceOnUse">
<stop stop-color="#FF4D4D"/>
<stop offset="1" stop-color="#991B1B"/>
</linearGradient>
<linearGradient id="paint1_linear_37_192" x1="19.2393" y1="48.2969" x2="34.823" y2="64.8044" gradientUnits="userSpaceOnUse">
<stop stop-color="#FF4D4D"/>
<stop offset="1" stop-color="#991B1B"/>
</linearGradient>
<linearGradient id="paint2_linear_37_192" x1="84.2256" y1="48.2969" x2="99.8093" y2="64.8044" gradientUnits="userSpaceOnUse">
<stop stop-color="#FF4D4D"/>
<stop offset="1" stop-color="#991B1B"/>
</linearGradient>
</defs>
</svg>
