<svg width="120" height="120" viewBox="0 0 120 120" fill="none" xmlns="http://www.w3.org/2000/svg">
<g clip-path="url(#clip0_36_28157)">
<path d="M18.5 18.5C45.89 18.5 73.28 18.5 101.5 18.5C101.5 45.89 101.5 73.28 101.5 101.5C74.11 101.5 46.72 101.5 18.5 101.5C18.5 74.11 18.5 46.72 18.5 18.5Z" fill="#363FE5"/>
<path d="M44.3134 47.9855C44.5458 47.9856 44.7782 47.9865 45.0106 47.9881C45.1937 47.9885 45.1937 47.9885 45.3806 47.9888C45.7721 47.9897 46.1636 47.9917 46.5551 47.9938C46.8199 47.9946 47.0847 47.9954 47.3495 47.996C47.9999 47.9978 48.6503 48.0006 49.3008 48.0039C49.2073 48.807 48.9483 49.4718 48.6055 50.1956C48.5512 50.3127 48.4969 50.4298 48.441 50.5504C48.3239 50.8028 48.2062 51.0549 48.088 51.3068C47.8992 51.7092 47.7118 52.1124 47.5248 52.5157C47.2677 53.07 47.0101 53.6242 46.7523 54.1782C46.2239 55.3153 45.7051 56.4568 45.1873 57.5988C45.0889 57.8155 44.9904 58.0322 44.892 58.2488C44.3304 59.4856 43.7707 60.7233 43.2115 61.9612C43.0172 62.3915 42.8228 62.8218 42.6283 63.2521C42.497 63.5428 42.3657 63.8335 42.2344 64.1241C41.2632 66.2739 40.2817 68.4186 39.293 70.5604C38.6567 71.9397 38.0272 73.3218 37.4123 74.7108C37.3545 74.8414 37.2967 74.972 37.2371 75.1066C36.9628 75.7269 36.6894 76.3477 36.4174 76.9692C35.7335 78.5257 34.9949 80.0447 34.2246 81.5606C32.4592 81.5606 30.6939 81.5606 28.875 81.5606C28.6777 80.7715 28.8849 80.4092 29.2201 79.7134C29.2754 79.5948 29.3306 79.4763 29.3875 79.3541C29.5696 78.9641 29.7542 78.5755 29.9388 78.1867C30.0659 77.9154 30.1928 77.644 30.3195 77.3725C30.5132 76.9574 30.7071 76.5423 30.9017 76.1275C31.5022 74.8473 32.0855 73.5598 32.6643 72.2697C33.6057 70.174 34.5642 68.0867 35.5215 65.9981C31.7233 65.9446 27.925 65.8911 24.0117 65.836C24.0117 65.0317 24.0757 64.8087 24.4373 64.1338C24.9107 63.2307 25.3352 62.3139 25.7468 61.3811C25.957 60.9727 25.957 60.9727 26.2812 60.8106C26.6504 60.7957 27.02 60.7915 27.3895 60.7922C27.5034 60.7922 27.6173 60.7921 27.7346 60.7921C28.1118 60.7922 28.489 60.7935 28.8661 60.7947C29.1274 60.795 29.3886 60.7953 29.6498 60.7954C30.3379 60.7961 31.026 60.7977 31.7142 60.7994C32.4161 60.8011 33.118 60.8018 33.82 60.8027C35.1977 60.8044 36.5754 60.8072 37.9531 60.8106C38.0011 60.6626 38.0491 60.5146 38.0986 60.3621C38.232 59.971 38.3696 59.6053 38.5434 59.232C38.6194 59.0679 38.6194 59.0679 38.6968 58.9005C38.7513 58.7841 38.8057 58.6678 38.8618 58.548C38.9485 58.3611 38.9485 58.3611 39.0369 58.1704C39.2257 57.7635 39.4152 57.3569 39.6046 56.9503C39.8687 56.3816 40.1325 55.8127 40.3962 55.2438C40.4628 55.1 40.5295 54.9563 40.5982 54.8082C41.0442 53.8454 41.4857 52.8807 41.9235 51.9142C42.0082 51.7272 42.0082 51.7272 42.0947 51.5365C42.3623 50.9452 42.6294 50.3537 42.896 49.7619C42.9913 49.5512 43.0865 49.3405 43.1818 49.1298C43.2642 48.9468 43.3467 48.7638 43.4316 48.5752C43.7029 48.007 43.7029 48.007 44.3134 47.9855Z" fill="white"/>
<path d="M73.4551 48.0039C75.3274 48.0039 77.1998 48.0039 79.1289 48.0039C79.0147 48.575 78.9415 48.9265 78.7068 49.424C78.6267 49.5956 78.6267 49.5956 78.545 49.7707C78.4576 49.9547 78.4576 49.9547 78.3684 50.1424C78.3073 50.2728 78.2463 50.4032 78.1834 50.5376C78.0516 50.8192 77.9193 51.1006 77.7868 51.3819C77.4315 52.1363 77.0792 52.8921 76.727 53.648C76.6197 53.8783 76.6197 53.8783 76.5101 54.1133C75.8526 55.5276 75.2182 56.9515 74.5898 58.3789C73.6681 60.4707 72.7186 62.5482 71.7529 64.6201C70.4815 67.3484 69.2473 70.0914 68.032 72.845C67.1473 74.8491 66.2495 76.8469 65.3173 78.8294C64.892 79.738 64.4732 80.6496 64.0527 81.5605C62.2339 81.5605 60.415 81.5605 58.541 81.5605C58.6679 80.6721 58.8225 80.0487 59.1838 79.2606C59.2578 79.0946 59.2578 79.0946 59.3334 78.9253C59.4967 78.5602 59.6622 78.1961 59.8278 77.832C59.9444 77.5729 60.0609 77.3137 60.1773 77.0545C61.2099 74.7609 62.2657 72.4778 63.3231 70.1955C64.028 68.6739 64.7274 67.1501 65.4205 65.6232C65.4931 65.4634 65.4931 65.4634 65.5671 65.3004C66.1748 63.9617 66.7803 62.6221 67.3855 61.2823C67.6457 60.7063 67.906 60.1302 68.1663 59.5542C68.2307 59.4115 68.2952 59.2688 68.3617 59.1217C70.0406 55.4071 71.7468 51.7051 73.4551 48.0039Z" fill="white"/>
<path d="M54.1631 48.004C54.8201 47.9877 55.477 47.976 56.1341 47.9683C56.3567 47.9651 56.5793 47.9607 56.8018 47.955C59.5418 47.8869 61.6953 48.6884 63.7111 50.5546C65.5181 52.5028 66.2433 54.8384 66.1991 57.4424C66.0399 59.8863 64.9433 61.6993 63.2412 63.4043C63.1497 63.4978 63.0582 63.5912 62.9639 63.6874C60.7077 65.806 57.8105 65.9081 54.9053 65.8835C54.5882 65.8826 54.2712 65.8819 53.9541 65.8814C53.1258 65.8796 52.2975 65.8748 51.4693 65.8694C50.6216 65.8644 49.7739 65.8622 48.9262 65.8597C47.2675 65.8545 45.6089 65.8463 43.9502 65.836C43.7835 65.2607 43.8069 65.0273 44.0743 64.4847C44.1385 64.3522 44.2026 64.2197 44.2687 64.0832C44.3719 63.8776 44.3719 63.8776 44.4771 63.6678C44.5433 63.5319 44.6096 63.3961 44.6778 63.2562C44.8656 62.8722 45.056 62.4898 45.2471 62.1075C45.3399 61.9181 45.4327 61.7288 45.5283 61.5338C45.7334 61.1348 45.7334 61.1348 45.8955 60.9727C46.24 60.9543 46.585 60.9473 46.9299 60.9446C47.038 60.9435 47.1461 60.9424 47.2575 60.9413C47.4932 60.939 47.7289 60.9371 47.9647 60.9355C48.339 60.9328 48.7133 60.929 49.0876 60.9249C50.1522 60.9135 51.2169 60.9038 52.2816 60.8954C52.9324 60.8902 53.5832 60.8835 54.234 60.8759C54.4811 60.8733 54.7281 60.8713 54.9752 60.8699C57.8071 60.8948 57.8071 60.8948 60.1612 59.5137C60.9368 58.5544 61.1765 57.6635 61.1136 56.4438C60.984 55.2646 60.6664 54.436 59.7863 53.6271C58.6832 52.7579 57.5166 52.5343 56.1357 52.4917C55.9262 52.4849 55.7167 52.4781 55.5008 52.4711C55.2812 52.4647 55.0616 52.4583 54.8419 52.4518C54.6191 52.4448 54.3964 52.4378 54.1736 52.4306C53.6297 52.4134 53.0859 52.3969 52.542 52.3809C52.4031 51.9898 52.3625 51.7872 52.4903 51.3864C52.5502 51.2649 52.6101 51.1434 52.6718 51.0182C52.7367 50.8842 52.8016 50.7503 52.8685 50.6123C52.9727 50.4045 52.9727 50.4045 53.079 50.1924C53.1466 50.0539 53.2142 49.9153 53.2839 49.7726C53.467 49.3982 53.6523 49.025 53.8389 48.6524C53.9302 48.4698 53.9302 48.4698 54.0233 48.2835C54.0694 48.1913 54.1156 48.099 54.1631 48.004Z" fill="white"/>
<path d="M83.8294 48.0039C84.5035 47.9835 85.1775 47.969 85.8518 47.9594C86.0801 47.9554 86.3083 47.9499 86.5365 47.9428C88.9127 47.8706 90.8729 48.391 92.7454 49.9492C92.8582 50.042 92.9711 50.1348 93.0874 50.2304C94.6654 51.6617 95.7829 53.8335 95.8958 55.9713C95.8996 56.2537 95.8997 56.5362 95.8964 56.8186C95.8946 57.0417 95.8946 57.0417 95.8927 57.2694C95.834 59.6923 94.7848 61.6025 93.1481 63.3517C91.3642 65.0207 89.0103 65.8947 86.5875 65.8728C86.4481 65.8728 86.3088 65.8728 86.1653 65.8729C85.7091 65.8727 85.2531 65.8702 84.797 65.8676C84.479 65.867 84.161 65.8665 83.843 65.8662C83.0094 65.865 82.1758 65.8618 81.3422 65.8582C80.4902 65.8549 79.6382 65.8534 78.7863 65.8518C77.117 65.8483 75.4478 65.8428 73.7786 65.8359C73.6051 65.1083 73.6627 64.7832 73.985 64.1009C74.0653 63.9287 74.1455 63.7565 74.2282 63.5791C74.3139 63.401 74.3996 63.223 74.4878 63.0396C74.5723 62.859 74.6567 62.6785 74.7437 62.4924C75.3677 61.1668 75.3677 61.1668 75.5618 60.9727C75.9121 60.9543 76.2629 60.9472 76.6136 60.9445C76.7236 60.9434 76.8335 60.9424 76.9468 60.9412C77.1865 60.939 77.4262 60.937 77.6659 60.9354C78.0463 60.9328 78.4267 60.929 78.8071 60.9249C79.889 60.9134 80.971 60.9037 82.0529 60.8954C82.7143 60.8902 83.3756 60.8835 84.0369 60.8759C84.2882 60.8733 84.5394 60.8713 84.7907 60.8699C87.4914 60.8881 87.4914 60.8881 89.8274 59.6758C90.7538 58.5196 90.9391 57.4066 90.8001 55.9473C90.5378 54.938 90.1567 54.1885 89.3411 53.5156C89.1806 53.3802 89.1806 53.3802 89.0169 53.2421C88.0265 52.5921 86.9432 52.5275 85.7861 52.4917C85.4726 52.4815 85.4726 52.4815 85.1529 52.4711C84.9346 52.4647 84.7163 52.4582 84.4981 52.4518C84.276 52.4448 84.054 52.4377 83.8319 52.4306C83.2907 52.4134 82.7495 52.3969 82.2083 52.3809C81.9983 51.7508 82.1419 51.5875 82.4204 50.996C82.5014 50.822 82.5824 50.648 82.6658 50.4688C82.7522 50.2873 82.8386 50.1058 82.9277 49.9188C83.0563 49.6438 83.0563 49.6438 83.1876 49.3632C83.4001 48.9094 83.6141 48.4564 83.8294 48.0039Z" fill="white"/>
<path d="M91.4495 38.4394C91.9822 38.6813 92.3466 38.9891 92.7463 39.4121C92.8276 39.4917 92.9089 39.5713 92.9927 39.6533C93.6183 40.3223 93.8744 41.0003 93.8862 41.9121C93.8131 43.1181 93.4905 43.8554 92.6248 44.7211C91.6231 45.4146 90.8015 45.6881 89.5782 45.5133C88.4789 45.2284 87.7077 44.5423 87.0725 43.6269C86.6629 42.7491 86.558 41.7692 86.8654 40.8419C87.1979 40.1285 87.6054 39.6037 88.2073 39.0878C88.3377 38.9641 88.4681 38.8404 88.6024 38.713C89.5318 38.2727 90.4417 38.2874 91.4495 38.4394Z" fill="white"/>
<path d="M61.6203 38.4394C62.148 38.687 62.5191 38.9898 62.9171 39.4121C63.0409 39.5391 63.1646 39.6662 63.292 39.7971C63.9148 40.7658 64.1612 41.588 63.9911 42.7429C63.6985 43.8915 63.0192 44.6185 62.0192 45.2265C61.141 45.6308 60.2552 45.6979 59.3305 45.4101C58.3669 44.9801 57.6238 44.3129 57.0812 43.4142C56.7379 42.1481 56.7952 41.1088 57.4504 39.9535C58.5122 38.5112 59.8804 38.108 61.6203 38.4394Z" fill="white"/>
</g>
<defs>
<clipPath id="clip0_36_28157">
<rect width="83" height="83" fill="white" transform="translate(18.5 18.5)"/>
</clipPath>
</defs>
</svg>
