<svg width="120" height="120" viewBox="0 0 120 120" fill="none" xmlns="http://www.w3.org/2000/svg">
<g clip-path="url(#clip0_36_28233)">
<mask id="mask0_36_28233" style="mask-type:luminance" maskUnits="userSpaceOnUse" x="10" y="10" width="100" height="100">
<path d="M10 10H110V110H10V10Z" fill="white"/>
</mask>
<g mask="url(#mask0_36_28233)">
<path d="M46.8544 53.3565H41.1924V66.7025H44.2044V62.8885H46.8544C50.2484 62.8885 52.1924 61.0965 52.1924 57.9885C52.1924 55.0345 50.2484 53.3565 46.8544 53.3565ZM46.7004 60.3725H44.2024V55.8545H46.7004C48.3784 55.8545 49.3324 56.5985 49.3324 58.0845C49.3324 59.6105 48.3784 60.3725 46.7004 60.3725ZM63.1737 58.9245H57.1297V53.3565H54.1177V66.7025H57.1297V61.4405H63.1737V66.7025H66.1877V53.3565H63.1737V58.9245ZM76.404 59.5518C77.472 58.9798 78.1201 57.9498 78.1201 56.7678C78.1201 54.5758 76.3461 53.2018 73.524 53.2018C70.722 53.2018 68.948 54.5358 68.948 56.6538C68.948 57.8558 69.6541 58.9218 70.8161 59.5518C69.2721 60.1438 68.2621 61.4398 68.2621 62.9838C68.2621 65.3478 70.322 66.8358 73.544 66.8358C76.766 66.8358 78.8061 65.3298 78.8061 62.9278C78.8081 61.4018 77.8741 60.1438 76.404 59.5518ZM73.5461 55.2818C74.8621 55.2818 75.606 55.8738 75.606 56.9218C75.606 57.9518 74.8621 58.5418 73.5461 58.5418C72.2121 58.5418 71.468 57.9498 71.468 56.9218C71.466 55.8718 72.2101 55.2818 73.5461 55.2818ZM73.5461 64.5678C71.9821 64.5678 71.106 63.8818 71.106 62.6618C71.106 61.4798 71.9821 60.8118 73.5281 60.8118C75.0921 60.8118 75.988 61.4978 75.988 62.6798C75.986 63.8798 75.0901 64.5678 73.5461 64.5678Z" fill="#00F0FF"/>
<path d="M93.0666 22.6011H26.9346C24.5406 22.6011 22.6006 24.5411 22.6006 26.9351V93.0691C22.6006 95.4611 24.5406 97.4011 26.9346 97.4011H93.0686C95.4626 97.4011 97.4026 95.4611 97.4026 93.0671V26.9351C97.4006 24.5411 95.4606 22.6011 93.0666 22.6011ZM88.1946 63.8931C88.3145 63.591 88.5223 63.3319 88.7912 63.1493C89.0601 62.9667 89.3776 62.8691 89.7026 62.8691C90.1332 62.8694 90.5461 63.0406 90.8505 63.3451C91.155 63.6496 91.3262 64.0625 91.3266 64.4931C91.3262 64.9237 91.155 65.3365 90.8505 65.641C90.5461 65.9455 90.1332 66.1167 89.7026 66.1171C89.3776 66.117 89.0601 66.0194 88.7912 65.8368C88.5223 65.6543 88.3145 65.3951 88.1946 65.0931H83.3006V72.8771L91.4526 72.9131C91.5741 72.6118 91.7831 72.3538 92.0526 72.1724C92.3221 71.991 92.6397 71.8944 92.9646 71.8951C93.3954 71.8974 93.8078 72.0705 94.1111 72.3765C94.4144 72.6824 94.584 73.0962 94.5826 73.5271C94.5803 73.9579 94.4072 74.3702 94.1012 74.6736C93.7952 74.9769 93.3814 75.1465 92.9506 75.1451C92.6257 75.1432 92.3088 75.0441 92.0408 74.8605C91.7727 74.677 91.5658 74.4173 91.4466 74.1151L83.2986 74.0791V80.9671C83.2986 82.2671 82.2446 83.3211 80.9446 83.3211H74.0746L74.1106 91.4511C74.4131 91.5699 74.673 91.7767 74.8566 92.0449C75.0403 92.313 75.1392 92.6301 75.1406 92.9551C75.1423 93.386 74.9728 93.8 74.6694 94.106C74.366 94.412 73.9535 94.5851 73.5226 94.5871C73.0917 94.5888 72.6777 94.4193 72.3717 94.1159C72.0657 93.8125 71.8926 93.4 71.8906 92.9691C71.8888 92.644 71.985 92.3259 72.1666 92.0562C72.3482 91.7865 72.6067 91.5778 72.9086 91.4571L72.8726 83.3231H65.0886V88.1991C65.3907 88.319 65.6498 88.5268 65.8323 88.7957C66.0149 89.0646 66.1126 89.3821 66.1126 89.7071C66.1122 90.1377 65.941 90.5505 65.6365 90.855C65.3321 91.1595 64.9192 91.3307 64.4886 91.3311C64.058 91.3307 63.6451 91.1595 63.3406 90.855C63.0362 90.5505 62.8649 90.1377 62.8646 89.7071C62.8646 89.3821 62.9623 89.0646 63.1448 88.7957C63.3274 88.5268 63.5865 88.319 63.8886 88.1991V83.3231H56.0566L56.0926 91.4531C56.3951 91.5719 56.655 91.7787 56.8386 92.0469C57.0223 92.315 57.1212 92.6321 57.1226 92.9571C57.1243 93.388 56.9548 93.802 56.6514 94.108C56.348 94.414 55.9355 94.587 55.5046 94.5891C55.0737 94.5908 54.6597 94.4213 54.3537 94.1179C54.0477 93.8145 53.8746 93.402 53.8726 92.9711C53.8712 92.646 53.9675 92.3281 54.1491 92.0585C54.3306 91.7889 54.5889 91.5801 54.8906 91.4591L54.8546 83.3251H47.0706V88.2011C47.3727 88.321 47.6318 88.5288 47.8143 88.7977C47.9969 89.0666 48.0945 89.3841 48.0946 89.7091C48.0942 90.1397 47.923 90.5525 47.6185 90.857C47.3141 91.1615 46.9012 91.3327 46.4706 91.3331C46.04 91.3327 45.6271 91.1615 45.3226 90.857C45.0182 90.5525 44.8469 90.1397 44.8466 89.7091C44.8466 89.3841 44.9443 89.0666 45.1268 88.7977C45.3094 88.5288 45.5685 88.321 45.8706 88.2011V83.3251H39.0506C38.4263 83.3251 37.8275 83.0771 37.3861 82.6356C36.9446 82.1941 36.6966 81.5954 36.6966 80.9711V74.0831L28.5486 74.1191C28.4298 74.4216 28.223 74.6815 27.9548 74.8651C27.6867 75.0487 27.3696 75.1477 27.0446 75.1491C26.6137 75.1508 26.1997 74.9813 25.8937 74.6779C25.5877 74.3745 25.4146 73.962 25.4126 73.5311C25.4109 73.1002 25.5804 72.6862 25.8838 72.3802C26.1872 72.0741 26.5997 71.9011 27.0306 71.8991C27.3557 71.8973 27.6738 71.9935 27.9435 72.1751C28.2131 72.3567 28.4219 72.6152 28.5426 72.9171L36.6946 72.8811V65.0971H31.8006C31.6807 65.3991 31.4728 65.6583 31.204 65.8408C30.9351 66.0234 30.6176 66.121 30.2926 66.1211C29.862 66.1207 29.4491 65.9495 29.1446 65.645C28.8402 65.3405 28.6689 64.9277 28.6686 64.4971C28.6689 64.0665 28.8402 63.6536 29.1446 63.3491C29.4491 63.0446 29.862 62.8734 30.2926 62.8731C30.6176 62.8731 30.9351 62.9707 31.204 63.1533C31.4728 63.3359 31.6807 63.595 31.8006 63.8971H36.6946V56.0631L28.5466 56.0991C28.4278 56.4016 28.221 56.6615 27.9528 56.8451C27.6847 57.0287 27.3676 57.1277 27.0426 57.1291C26.6117 57.1308 26.1977 56.9613 25.8917 56.6579C25.5857 56.3545 25.4126 55.942 25.4106 55.5111C25.4089 55.0802 25.5784 54.6662 25.8818 54.3602C26.1852 54.0541 26.5977 53.8811 27.0286 53.8791C27.3537 53.8773 27.6718 53.9735 27.9415 54.1551C28.2111 54.3366 28.4199 54.5952 28.5406 54.8971L36.6926 54.8611V47.0771H31.7986C31.6787 47.3791 31.4708 47.6383 31.202 47.8208C30.9331 48.0034 30.6156 48.101 30.2906 48.1011C29.8599 48.1008 29.447 47.9296 29.1424 47.6251C28.8379 47.3207 28.6666 46.9077 28.6663 46.4771C28.6666 46.0465 28.8378 45.6336 29.1423 45.3291C29.4468 45.0246 29.8596 44.8534 30.2903 44.8531C30.6153 44.8531 30.9328 44.9507 31.2016 45.1333C31.4705 45.3159 31.6783 45.575 31.7983 45.8771H36.6923V39.0751C36.6923 37.7751 37.7463 36.7211 39.0463 36.7211H45.8663V31.8091C45.5642 31.6892 45.3051 31.4813 45.1225 31.2124C44.9399 30.9436 44.8423 30.6261 44.8423 30.3011C44.8426 29.8705 45.0138 29.4576 45.3183 29.1531C45.6228 28.8486 46.0357 28.6774 46.4663 28.6771C46.8969 28.6774 47.3097 28.8486 47.6142 29.1531C47.9187 29.4576 48.0899 29.8705 48.0903 30.3011C48.0902 30.6261 47.9926 30.9436 47.81 31.2124C47.6274 31.4813 47.3683 31.6892 47.0663 31.8091V36.7211H54.8503L54.8863 28.5511C54.585 28.4295 54.327 28.2205 54.1456 27.9511C53.9641 27.6816 53.8676 27.3639 53.8683 27.0391C53.8703 26.6082 54.0433 26.1957 54.3493 25.8923C54.6554 25.5889 55.0693 25.4194 55.5003 25.4211C55.9312 25.4231 56.3437 25.5961 56.6471 25.9022C56.9505 26.2082 57.1199 26.6221 57.1183 27.0531C57.1164 27.378 57.0173 27.6948 56.8337 27.9629C56.6501 28.231 56.3905 28.4379 56.0883 28.5571L56.0523 36.7211H63.8863V31.8091C63.5842 31.6892 63.3251 31.4813 63.1425 31.2124C62.9599 30.9436 62.8623 30.6261 62.8623 30.3011C62.8626 29.8705 63.0338 29.4576 63.3383 29.1531C63.6428 28.8486 64.0557 28.6774 64.4863 28.6771C64.9169 28.6774 65.3297 28.8486 65.6342 29.1531C65.9387 29.4576 66.1099 29.8705 66.1103 30.3011C66.1102 30.6261 66.0126 30.9436 65.83 31.2124C65.6474 31.4813 65.3883 31.6892 65.0863 31.8091V36.7211H72.8703L72.9062 28.5511C72.605 28.4295 72.347 28.2205 72.1656 27.9511C71.9841 27.6816 71.8876 27.3639 71.8883 27.0391C71.8903 26.6082 72.0633 26.1957 72.3693 25.8923C72.6754 25.5889 73.0893 25.4194 73.5203 25.4211C73.9511 25.4234 74.3634 25.5965 74.6668 25.9025C74.9701 26.2084 75.1397 26.6222 75.1383 27.0531C75.1364 27.378 75.0373 27.6948 74.8537 27.9629C74.6701 28.231 74.4105 28.4379 74.1083 28.5571L74.0723 36.7211H80.9423C82.2423 36.7211 83.2963 37.7751 83.2963 39.0751V45.8771H88.1903C88.3102 45.575 88.518 45.3159 88.7869 45.1333C89.0557 44.9507 89.3733 44.8531 89.6983 44.8531C90.1289 44.8534 90.5417 45.0246 90.8462 45.3291C91.1507 45.6336 91.3219 46.0465 91.3223 46.4771C91.3219 46.9077 91.1507 47.3205 90.8462 47.625C90.5417 47.9295 90.1289 48.1007 89.6983 48.1011C89.3733 48.101 89.0557 48.0034 88.7869 47.8208C88.518 47.6383 88.3102 47.3791 88.1903 47.0771H83.3003V54.8611L91.4523 54.8971C91.5738 54.5958 91.7828 54.3378 92.0523 54.1564C92.3217 53.975 92.6394 53.8784 92.9643 53.8791C93.3951 53.8814 93.8074 54.0545 94.1108 54.3605C94.4141 54.6664 94.5837 55.0802 94.5823 55.5111C94.5802 55.942 94.4072 56.3545 94.1012 56.6579C93.7951 56.9613 93.3812 57.1308 92.9503 57.1291C92.6254 57.1272 92.3085 57.0281 92.0404 56.8445C91.7724 56.661 91.5654 56.4013 91.4463 56.0991L83.2982 56.0631V63.8971H88.1943V63.8931H88.1946Z" fill="url(#paint0_linear_36_28233)"/>
</g>
</g>
<defs>
<linearGradient id="paint0_linear_36_28233" x1="60.0016" y1="22.6011" x2="60.0016" y2="97.4011" gradientUnits="userSpaceOnUse">
<stop stop-color="#00F0FF"/>
<stop offset="1" stop-color="#00FF38"/>
</linearGradient>
<clipPath id="clip0_36_28233">
<rect width="100" height="100" fill="white" transform="translate(10 10)"/>
</clipPath>
</defs>
</svg>
