<svg width="120" height="120" viewBox="0 0 120 120" fill="none" xmlns="http://www.w3.org/2000/svg">
<g clip-path="url(#clip0_36_32618)">
<mask id="mask0_36_32618" style="mask-type:luminance" maskUnits="userSpaceOnUse" x="18" y="18" width="84" height="84">
<path d="M101.5 18.5H18.5V101.5H101.5V18.5Z" fill="white"/>
</mask>
<g mask="url(#mask0_36_32618)">
<path d="M59.7078 18.7989C36.9604 18.7989 18.5 37.2336 18.5 59.981C18.5 71.1936 22.9928 81.3767 30.2792 88.8045V60.0194C30.2792 52.1667 33.343 44.7516 38.8914 39.2032C44.4657 33.6291 51.8549 30.5909 59.7206 30.5909H59.9654L59.7078 30.6167C75.9668 30.6167 89.1493 43.7991 89.1493 60.0453C89.1493 61.4615 89.0462 62.8517 88.8532 64.2292L72.2207 47.5453C68.8993 44.2239 64.4453 42.3829 59.7337 42.3829C55.0217 42.3829 50.5805 44.2239 47.2464 47.5453C43.8992 50.8922 42.0712 55.3209 42.0712 60.0453C42.0712 64.7697 43.9121 69.1985 47.2464 72.5454C50.5676 75.8668 55.0217 77.7077 59.7337 77.7077C64.4453 77.7077 68.8865 75.8668 72.2207 72.5454C75.3232 69.443 77.1125 65.3877 77.3574 61.0493L87.1154 70.846C82.8029 81.7626 72.1692 89.4996 59.7206 89.4996C53.2711 89.4996 47.1176 87.4398 42.0583 83.6166V97.2366C47.4136 99.7854 53.387 101.202 59.695 101.202C82.4422 101.202 100.903 82.7669 100.903 60.0194C100.928 37.2465 82.4809 18.8118 59.7206 18.8118L59.7078 18.7989Z" fill="#0062E2"/>
</g>
</g>
<defs>
<clipPath id="clip0_36_32618">
<rect width="83" height="83" fill="white" transform="translate(18.5 18.5)"/>
</clipPath>
</defs>
</svg>
