<svg width="120" height="120" viewBox="0 0 120 120" fill="none" xmlns="http://www.w3.org/2000/svg">
<path d="M101.666 32.2503C101.12 32.0726 100.538 32.0348 99.9743 32.1402C99.4103 32.2457 98.8815 32.4912 98.4368 32.8541C92.0194 40.4363 83.5047 45.9534 73.962 48.7128C64.4198 51.4722 54.2745 51.3509 44.8007 48.3641L42.6744 40.6166C42.3531 39.711 41.7192 38.9499 40.8867 38.4701C40.0542 37.9902 39.0778 37.8232 38.1332 37.9991L39.1457 46.1741C32.3357 43.0728 30.4719 42.6266 25.6944 36.9866C25.0269 36.4841 19.7357 31.7703 18.3369 32.2503C22.3333 42.8873 30.2349 51.6003 40.4319 56.6141L43.1994 79.0016C43.1994 79.0016 44.4369 87.5741 52.4732 87.5741H69.6705C77.7105 87.5741 78.948 79.0016 78.948 79.0016L80.8905 62.9516C75.6668 62.5391 72.3855 66.1653 71.343 69.7541C69.5993 75.8066 69.5993 76.1891 69.2543 77.2466C68.5493 79.4028 66.2318 79.6616 66.2318 79.6616H55.908C55.908 79.6616 53.5943 79.3991 52.8855 77.2466C52.4357 75.8553 50.1594 67.7216 47.8794 59.4716C58.6249 62.5001 70.1157 61.3826 80.0764 56.3403C90.0368 51.2982 97.7408 42.6993 101.662 32.2466L101.666 32.2503Z" fill="#06AEEF"/>
</svg>
