<svg width="120" height="120" viewBox="0 0 120 120" fill="none" xmlns="http://www.w3.org/2000/svg">
<path d="M62.1648 21.8013C63.573 24.2738 64.9741 26.7534 66.3716 29.2367C66.4281 29.336 66.51 29.4185 66.6088 29.4758C66.7077 29.5331 66.82 29.5631 66.9342 29.5628H86.8289C87.4524 29.5628 87.9827 29.9569 88.427 30.7345L93.6372 39.9437C94.318 41.1513 94.4972 41.6565 93.7232 42.9429C92.7915 44.4838 91.8849 46.0389 90.9999 47.6013L89.6848 49.9591C89.305 50.6614 88.8857 50.9624 89.5415 51.7938L99.0444 68.4097C99.6608 69.4883 99.4422 70.1798 98.8904 71.1688C97.3245 73.9818 95.7299 76.7732 94.1066 79.5539C93.5369 80.5285 92.8453 80.8976 91.6699 80.8797C88.8857 80.8223 86.1086 80.8439 83.3315 80.937C83.272 80.9401 83.2142 80.9581 83.1635 80.9894C83.1127 81.0207 83.0707 81.0643 83.0413 81.1162C79.8372 86.7932 76.6062 92.4549 73.3484 98.1012C72.7428 99.1511 71.9867 99.4019 70.7505 99.4055C67.1779 99.4163 63.5766 99.4199 59.9395 99.4127C59.6009 99.4117 59.2685 99.3215 58.976 99.151C58.6834 98.9805 58.441 98.7358 58.2733 98.4416L53.4895 90.1175C53.4617 90.0631 53.419 90.0176 53.3663 89.9866C53.3136 89.9555 53.2532 89.94 53.1921 89.9419H34.8526C33.8314 90.0494 32.871 89.9383 31.968 89.6123L26.2239 79.6864C26.0541 79.3925 25.964 79.0593 25.9628 78.7199C25.9615 78.3804 26.0491 78.0466 26.2168 77.7514L30.5419 70.1548C30.6035 70.0473 30.6359 69.9256 30.6359 69.8018C30.6359 69.678 30.6035 69.5563 30.5419 69.4488C28.2889 65.5483 26.0493 61.6401 23.8231 57.7242L20.9923 52.7254C20.4189 51.6146 20.3724 50.9481 21.3327 49.2675C22.9989 46.3543 24.6544 43.4446 26.3028 40.5385C26.7758 39.7 27.3921 39.3417 28.3954 39.3381C31.4878 39.3251 34.5803 39.3239 37.6727 39.3345C37.7508 39.3339 37.8274 39.3127 37.8947 39.2731C37.962 39.2335 38.0177 39.1768 38.0561 39.1088L48.1109 21.5683C48.2633 21.3015 48.4833 21.0795 48.7488 20.9248C49.0143 20.77 49.3158 20.688 49.6231 20.6868C51.5008 20.6833 53.3964 20.6868 55.2955 20.6653L58.9398 20.5829C60.1617 20.5722 61.5341 20.6976 62.1648 21.8013ZM49.8668 23.2453C49.829 23.2453 49.7919 23.2552 49.7592 23.2741C49.7265 23.293 49.6993 23.3201 49.6804 23.3528L39.4106 41.3233C39.3613 41.4079 39.2907 41.4783 39.2059 41.5273C39.121 41.5763 39.0249 41.6023 38.9269 41.6028H28.657C28.4564 41.6028 28.4062 41.6923 28.5101 41.8679L49.3293 78.2603C49.4189 78.4108 49.3759 78.4824 49.2074 78.486L39.192 78.5398C39.0456 78.5349 38.9008 78.5713 38.7741 78.6448C38.6473 78.7183 38.5438 78.8259 38.4754 78.9554L33.7454 87.2329C33.5877 87.5124 33.6701 87.6558 33.989 87.6558L54.4714 87.6844C54.6362 87.6844 54.758 87.7561 54.844 87.903L59.8714 96.6965C60.0363 96.9868 60.2011 96.9903 60.3695 96.6965L78.3077 65.3065L81.1134 60.3543C81.1306 60.3238 81.1555 60.2983 81.1858 60.2806C81.216 60.2628 81.2504 60.2535 81.2855 60.2535C81.3205 60.2535 81.3549 60.2628 81.3852 60.2806C81.4154 60.2983 81.4403 60.3238 81.4575 60.3543L86.5601 69.4202C86.5984 69.488 86.6542 69.5444 86.7216 69.5834C86.789 69.6225 86.8656 69.6428 86.9435 69.6423L96.8443 69.5707C96.8697 69.5709 96.8946 69.5644 96.9167 69.5518C96.9387 69.5392 96.957 69.521 96.9697 69.499C96.9819 69.4771 96.9884 69.4524 96.9884 69.4273C96.9884 69.4023 96.9819 69.3776 96.9697 69.3557L86.578 51.1308C86.5406 51.0699 86.5209 50.9999 86.5209 50.9284C86.5209 50.8569 86.5406 50.7868 86.578 50.7259L87.6279 48.9092L91.6413 41.8249C91.7273 41.678 91.6843 41.6028 91.5159 41.6028H49.9671C49.7557 41.6028 49.7055 41.5096 49.813 41.3268L54.9515 32.3506C54.99 32.2894 55.0105 32.2186 55.0105 32.1463C55.0105 32.0741 54.99 32.0033 54.9515 31.9421L50.0567 23.3564C50.038 23.3225 50.0105 23.2943 49.977 23.2748C49.9436 23.2552 49.9055 23.245 49.8668 23.2453ZM72.4059 51.9837C72.5708 51.9837 72.6138 52.0553 72.5278 52.1987L69.5464 57.4483L60.1832 73.8778C60.1656 73.9098 60.1396 73.9364 60.1081 73.9547C60.0765 73.973 60.0405 73.9824 60.004 73.9818C59.9677 73.9816 59.932 73.972 59.9006 73.9537C59.8691 73.9355 59.843 73.9093 59.8249 73.8778L47.4516 52.2632C47.3799 52.1413 47.4158 52.0768 47.5519 52.0697L48.3259 52.0267L72.4131 51.9837H72.4059Z" fill="url(#paint0_linear_36_27059)"/>
<defs>
<linearGradient id="paint0_linear_36_27059" x1="20.582" y1="20.5823" x2="99.4164" y2="20.5823" gradientUnits="userSpaceOnUse">
<stop stop-color="#6336E7" stop-opacity="0.84"/>
<stop offset="1" stop-color="#6F69F7" stop-opacity="0.84"/>
</linearGradient>
</defs>
</svg>
