<svg width="120" height="120" viewBox="0 0 120 120" fill="none" xmlns="http://www.w3.org/2000/svg">
<path fill-rule="evenodd" clip-rule="evenodd" d="M80.2645 98.014C71.0342 98.8613 63.3637 88.0679 57.4499 82.6106C54.4584 104.125 21.957 102.112 21.957 80.2659V39.7688C21.957 36.5837 22.8009 33.3328 24.492 30.6042C27.6114 25.3371 33.6566 21.8892 39.7674 21.9584H80.2645C102.107 21.9584 104.189 54.4598 82.6058 57.3821L92.8771 67.5876C104.124 78.1839 95.6714 98.4671 80.268 98.0106L80.2645 98.014ZM75.326 85.1456C81.6963 91.7095 91.8361 81.5697 85.2722 75.1994L67.524 57.4512H57.5779V67.3974L72.919 82.7386L75.326 85.1456ZM32.747 80.2036C32.6191 89.3059 46.985 89.3059 46.7879 80.2036V39.7065C46.9193 35.1554 42.1087 31.5794 37.7547 32.9455C37.5576 33.0112 37.3639 33.0734 37.2359 33.1391C34.5039 34.1801 32.6191 36.9087 32.6813 39.8345V80.2036H32.747ZM80.2645 46.7269C89.3669 46.8549 89.3669 32.5547 80.2645 32.6861H56.1496C57.9687 36.5214 57.5156 42.5666 57.5779 46.7269H80.2645Z" fill="currentColor"/>
</svg>
