<svg width="120" height="120" viewBox="0 0 120 120" fill="none" xmlns="http://www.w3.org/2000/svg">
<g clip-path="url(#clip0_62_123)">
<path d="M79.0131 22.4651C89.4399 29.559 97.6362 37.7552 100.995 50.1274C102.357 65.3398 101.229 76.2335 91.5149 88.061C83.8763 96.2573 76.4193 101.419 64.9809 102.43C49.7296 102.586 40.5996 100.589 29.3946 90.149C19.2271 79.5795 17.4245 69.827 17.5671 55.2501C18.1118 48.8046 19.7848 43.9154 23.1826 38.4556C24.0385 38.8835 24.8945 39.3115 25.7763 39.7524C25.3484 41.0363 24.9204 42.3202 24.4795 43.6431C23.8699 52.8898 25.2706 59.1926 31.2103 66.6626C37.6038 71.7723 43.336 73.951 51.5582 73.2248C55.5656 72.706 56.5512 72.5245 59.4951 69.5806C58.5873 69.1266 57.6795 68.6598 56.7457 68.1929C43.6732 61.3973 33.7651 54.5498 28.4609 40.4009C28.3312 35.6284 29.654 31.9712 32.2607 28.0806C44.0104 16.7977 64.7993 14.7616 79.0131 22.4651ZM49.1201 24.1899C49.3406 29.7146 49.7296 32.5029 53.5035 36.6659C59.2228 40.8937 65.9406 43.5004 72.4638 46.2368C71.8413 39.7265 70.0906 35.771 65.9795 30.6743C60.4807 26.1482 56.1881 24.7476 49.1201 24.1899Z" fill="#7680F8"/>
<path d="M55.6097 19C54.7537 19.4798 53.8978 19.9597 53.0159 20.4525C50.059 22.735 50.059 22.735 49.7737 26.6256C50.6037 31.7872 51.9395 33.3953 55.6097 37.1562C59.5651 39.4258 63.5984 41.5397 67.6836 43.5628C75.8668 47.5961 82.7532 51.5256 89.3284 57.9062C89.3284 58.7622 89.3284 59.6181 89.3284 60.5C88.2261 60.6686 87.1107 60.8502 85.9695 61.0188C84.5429 61.2522 83.1034 61.4856 81.625 61.7191C80.1984 61.9395 78.7718 62.173 77.2934 62.3934C73.8956 62.7306 73.8956 62.7306 72.469 64.3906C64.9601 66.5045 57.6847 68.2423 50.2147 65.4541C40.0861 59.1902 32.0584 51.6812 28.7514 40.0094C28.09 34.9905 29.5425 32.2411 32.2659 28.0781C38.867 21.8402 46.4407 18.4553 55.6097 19Z" fill="#B9DCFE"/>
<path d="M73.0475 19.8409C83.617 24.1466 92.9675 32.2391 98.4014 42.3417C102.733 52.9761 103.265 66.9175 98.8164 77.6037C96.3264 82.2466 93.3046 85.6055 89.3232 89.0292C91.7614 82.8691 91.7614 82.8691 93.2139 79.9511C93.8882 73.3111 94.0568 67.527 91.2686 61.3928C86.4182 56.1794 80.8676 52.185 74.889 48.3462C71.9062 45.7395 71.2837 43.6775 70.1165 39.9166C67.6136 33.1858 64.6826 29.8528 58.1982 26.7792C55.1765 25.6639 52.2975 24.8987 49.1201 24.1855C55.6823 17.338 64.0731 17.4676 73.0475 19.8409Z" fill="#3D4990"/>
<path d="M21.8893 43.6406C22.3173 43.6406 22.7452 43.6406 23.1862 43.6406C23.3029 44.6652 23.4066 45.6767 23.5234 46.7272C24.6776 55.2866 25.8188 62.173 32.2643 68.2812C38.2299 72.3534 44.5716 73.5336 51.7174 73.4688C54.3241 72.6647 56.9309 71.8088 59.4987 70.875C63.6616 71.0695 65.5681 71.8866 68.9788 74.2728C72.0524 78.6044 71.8968 81.237 71.1706 86.4375C68.3952 90.8339 67.0465 92.5717 62.0924 94.2188C51.7563 95.3989 44.5068 93.9723 36.1549 87.7344C27.6604 80.9517 22.6804 72.4961 20.5924 61.7969C20.4757 59.3977 20.4238 56.9855 20.4368 54.5862C20.4238 53.3542 20.4238 52.1222 20.4238 50.8512C20.5924 47.5312 20.5924 47.5312 21.8893 43.6406Z" fill="#3D558C"/>
<path d="M55.6094 19C54.7534 19.4799 53.8975 19.9597 53.0156 20.4525C50.0588 22.735 50.0587 22.735 49.7734 26.6256C50.6164 31.852 51.7058 33.538 55.6094 37.1563C59.8242 39.5684 64.1428 41.6564 68.5781 43.6406C68.5781 44.0686 68.5781 44.4966 68.5781 44.9375C65.1155 45.5989 61.6658 46.2474 58.2031 46.8828C56.2837 47.2459 54.3514 47.6091 52.3672 47.9722C46.8555 48.7763 41.7069 48.9838 36.1562 48.8281C35.7283 50.112 35.3003 51.3959 34.8594 52.7188C28.5047 42.2659 28.5047 42.2659 28.375 37.1563C30.3592 30.205 32.8881 26.7813 38.9705 22.8906C44.4952 19.8819 49.3325 18.6369 55.6094 19Z" fill="#BEEAFF"/>
<path d="M91.8411 60.9053C94.5386 65.1979 94.6553 67.9214 94.5905 72.9792C94.5905 74.289 94.5775 75.5859 94.5646 76.9217C94.5516 77.9203 94.5257 78.9189 94.5127 79.9564C87.1724 83.6265 80.6491 84.664 72.4658 85.1439C71.9082 83.7173 71.3505 82.3037 70.7669 80.8512C67.4729 73.2904 62.6874 70.8523 55.6064 66.9876C55.6064 66.5596 55.6064 66.1317 55.6064 65.6907C56.7477 65.5351 57.8889 65.3795 59.0691 65.2109C60.5735 64.9904 62.0779 64.7829 63.6341 64.5495C65.1255 64.342 66.6169 64.1345 68.1472 63.914C72.0897 63.1618 75.28 62.0465 78.9502 60.5032C87.9894 58.2986 87.9894 58.2986 91.8411 60.9053Z" fill="#8EA2F9"/>
<path d="M71.1719 81.25C71.5998 82.5339 72.0278 83.8178 72.4688 85.1406C73.5322 84.8423 74.5956 84.5441 75.685 84.2458C77.0856 83.8697 78.4862 83.4936 79.9258 83.1175C81.3134 82.7414 82.6881 82.3653 84.1147 81.9763C87.8237 81.2889 89.7431 81.2759 93.2188 82.5469C88.4462 91.4175 83.4922 97.033 74.0769 100.859C69.3173 102.156 65.2322 102.259 60.3041 102.156C58.6959 102.143 57.0748 102.117 55.4148 102.091C54.1958 102.065 52.9767 102.026 51.7188 102C53.0027 101.144 54.2866 100.288 55.6094 99.4062C56.4653 98.5503 57.3212 97.6944 58.2031 96.8125C56.0633 96.3845 53.9234 95.9566 51.7188 95.5156C51.7188 95.0877 51.7188 94.6597 51.7188 94.2188C53.1972 94.0242 53.1972 94.0242 54.7016 93.8297C55.9855 93.6352 57.2823 93.4406 58.6052 93.2461C59.8891 93.0645 61.16 92.883 62.4828 92.7014C66.6458 91.4175 67.7352 90.1466 69.875 86.4375C70.7958 83.6492 70.7958 83.6492 71.1719 81.25Z" fill="#6C74F2"/>
<path d="M92.0026 60.6621C93.2217 63.1002 93.2217 63.1002 92.9753 66.498C91.9248 69.5846 91.9248 69.5846 89.3311 70.8815C85.7128 71.2057 82.0945 71.4651 78.4632 71.6855C76.505 71.8152 74.5467 71.9319 72.5236 72.0616C65.5982 72.2043 61.2926 70.7777 55.6123 66.9909C55.6123 66.5629 55.6123 66.1349 55.6123 65.694C56.7536 65.5254 57.8948 65.3698 59.075 65.2141C60.5793 64.9937 62.0837 64.7732 63.627 64.5527C65.1184 64.3452 66.6098 64.1377 68.1531 63.9173C72.0826 63.1651 75.2729 62.0498 78.9561 60.5065C87.7748 58.3537 87.7748 58.3537 92.0026 60.6621Z" fill="#A4BFFB"/>
<path d="M73.7656 46.2344C73.7656 47.5183 73.7656 48.8022 73.7656 50.125C71.4961 50.7864 69.2266 51.4219 66.957 52.0703C65.6991 52.4334 64.4281 52.7966 63.1312 53.1597C59.5 54.0156 59.5 54.0156 54.3125 54.0156C54.3125 54.8716 54.3125 55.7275 54.3125 56.6094C51.7706 56.6742 49.2288 56.7261 46.6869 56.765C45.2733 56.8039 43.8597 56.8298 42.4072 56.8687C38.75 56.6094 38.75 56.6094 36.1562 54.0156C36.1562 52.3037 36.1562 50.5919 36.1562 48.8281C40.0469 48.1667 43.9375 47.5183 47.8281 46.8828C49.9939 46.5197 52.1597 46.1566 54.3903 45.7934C68.9931 43.8481 68.9931 43.8481 73.7656 46.2344Z" fill="#C7EFFE"/>
<path d="M55.6094 19C54.7534 19.4798 53.8975 19.9597 53.0156 20.4525C50.0069 22.748 50.0069 22.748 50.0198 26.7813C50.2922 30.7367 50.2922 30.7367 51.7188 34.5625C41.4475 35.2109 41.4475 35.2109 30.9688 35.8594C30.9688 36.7153 30.9688 37.5713 30.9688 38.4531C30.1128 38.0252 29.2569 37.5972 28.375 37.1563C30.9947 29.3102 34.0813 25.5622 41.3438 21.5938C46.2978 19.5188 50.2533 18.6888 55.6094 19Z" fill="#9ED4FF"/>
<path d="M76.3594 48.8281C86.6695 54.4695 86.6695 54.4695 89.3281 57.9062C89.3281 58.7622 89.3281 59.6181 89.3281 60.5C88.2258 60.6686 87.1105 60.8502 85.9692 61.0187C84.5427 61.2522 83.1031 61.4856 81.6247 61.7191C80.1981 61.9395 78.7716 62.173 77.2931 62.3934C73.8953 62.7306 73.8953 62.7306 72.4688 64.3906C69.5378 64.9742 66.5939 65.48 63.637 65.9339C61.2119 66.323 61.2119 66.323 58.7478 66.712C54.4033 66.9844 52.6525 66.7769 49.125 64.3906C49.125 63.5347 49.125 62.6787 49.125 61.7969C50.6553 61.6542 52.1856 61.5116 53.7678 61.3689C55.765 61.1614 57.7622 60.9539 59.8242 60.7464C61.8084 60.5519 63.7927 60.3573 65.8417 60.1498C71.8981 59.1123 71.8981 59.1123 76.3594 55.3125C76.3594 54.0286 76.3594 52.7447 76.3594 51.4219C76.3594 50.5659 76.3594 49.71 76.3594 48.8281Z" fill="#AFCDFD"/>
<path d="M23.1868 38.4531C24.0427 38.8811 24.8986 39.3091 25.7805 39.75C25.3525 41.0339 24.9246 42.3178 24.4836 43.6406C23.6277 43.6406 22.7718 43.6406 21.8899 43.6406C21.1766 57.1541 22.0196 68.4758 29.6711 79.9531C29.6711 81.237 29.6711 82.5209 29.6711 83.8438C27.1033 84.4792 27.1033 84.4792 24.4836 85.1406C23.6407 83.4936 22.8107 81.8466 21.9677 80.1995C21.5008 79.2787 21.0339 78.358 20.5541 77.4113C16.1966 68.2553 16.3393 55.7923 19.1535 46.1695C20.3725 43.485 21.6305 40.9561 23.1868 38.4531Z" fill="#ABCDF9"/>
<path d="M71.1719 81.25C71.5998 82.5339 72.0278 83.8178 72.4688 85.1406C74.0639 84.6997 74.0639 84.6997 75.685 84.2458C77.0856 83.8697 78.4862 83.4936 79.9258 83.1175C81.3134 82.7414 82.6881 82.3653 84.1147 81.9763C87.8237 81.2889 89.7431 81.2759 93.2188 82.5469C91.6755 85.7113 91.6755 85.7113 89.3281 89.0312C85.8395 90.0817 85.8395 90.0817 82.8438 90.3281C83.2717 91.1841 83.6997 92.04 84.1406 92.9219C78.577 92.9219 73.0134 92.9219 67.2812 92.9219C68.5652 89.0702 69.8491 85.2184 71.1719 81.25Z" fill="#808EF7"/>
<path d="M38.75 87.7344C48.5933 87.7344 58.4366 87.7344 68.5781 87.7344C67.7222 89.4463 66.8663 91.1581 65.9844 92.9219C59.3314 95.1395 51.4983 95.6583 44.8712 93.0645C42.3942 91.625 42.3942 91.625 38.75 89.0312C38.75 88.6033 38.75 88.1753 38.75 87.7344Z" fill="#34478E"/>
<path d="M47.5039 34.1572C48.4377 34.1054 49.3584 34.0664 50.3181 34.0146C54.118 34.7927 55.7002 36.8936 58.2031 39.7468C48.697 41.1214 39.2039 42.4961 29.6719 43.6374C30.0998 41.0696 30.5278 38.5018 30.9688 35.8561C36.4675 35.065 41.9533 34.4036 47.5039 34.1572Z" fill="#AEDFFF"/>
<path d="M93.2188 65.6875C93.6467 65.6875 94.0747 65.6875 94.5156 65.6875C94.5156 68.2553 94.5156 70.8231 94.5156 73.4688C86.0081 76.9573 77.9805 77.3723 69.3044 74.2728C64.6875 72.1719 64.6875 72.1719 62.0938 69.5781C68.0075 69.4095 68.0075 69.4095 70.8995 70.2525C74.6086 71.0566 77.8508 70.8361 81.6247 70.5508C83.6608 70.4211 83.6608 70.4211 85.7228 70.2914C89.6264 69.5133 90.7547 68.6833 93.2188 65.6875Z" fill="#96ADF9"/>
<path d="M72.4688 46.2344C72.8967 47.5183 73.3247 48.8022 73.7656 50.125C71.4961 50.7864 69.2266 51.4219 66.957 52.0703C65.6991 52.4334 64.4281 52.7966 63.1312 53.1597C59.5 54.0156 59.5 54.0156 54.3125 54.0156C54.3125 54.8716 54.3125 55.7275 54.3125 56.6094C49.1769 56.6094 44.0412 56.6094 38.75 56.6094C38.322 55.7534 37.8941 54.8975 37.4531 54.0156C49.2547 50.955 60.2133 48.4391 72.4688 48.8281C72.4688 47.9722 72.4688 47.1163 72.4688 46.2344Z" fill="#C3E9FE"/>
<path d="M55.6094 19C54.7794 19.5317 53.9494 20.0764 53.0934 20.6211C49.8902 22.9036 49.8902 22.9036 49.125 28.0781C43.1334 28.9341 37.1419 29.79 30.9688 30.6719C37.8033 23.8373 45.2992 17.6642 55.6094 19Z" fill="#8FC9FE"/>
<path d="M73.7656 47.5312C75.0884 48.8022 76.3853 50.0991 77.6562 51.4219C77.6562 51.8498 77.6562 52.2778 77.6562 52.7188C76.6966 52.8744 75.7498 53.03 74.7642 53.1986C73.4933 53.4061 72.2353 53.6266 70.9255 53.86C69.058 54.1713 69.058 54.1712 67.1386 54.4955C63.4944 55.2866 60.3559 56.4797 56.9062 57.9062C54.7145 58.5417 52.4969 59.1123 50.2662 59.6052C49.1639 59.8645 48.0616 60.1369 46.9203 60.4092C45.9347 60.4352 44.9491 60.4611 43.9375 60.5C42.6536 59.2161 41.3697 57.9322 40.0469 56.6094C44.7545 56.6094 49.4622 56.6094 54.3125 56.6094C54.3125 55.7534 54.3125 54.8975 54.3125 54.0156C63.9353 52.0962 63.9353 52.0962 73.7656 50.125C73.7656 49.2691 73.7656 48.4131 73.7656 47.5312Z" fill="#BDE1FD"/>
<path d="M91.9219 63.0938C92.3498 64.8056 92.7778 66.5175 93.2188 68.2812C88.0572 71.718 84.2184 71.4067 78.0583 71.6791C75.0495 71.8347 75.0495 71.8347 71.963 71.9773C70.4197 72.0422 68.8764 72.107 67.2812 72.1719C67.7092 71.3159 68.1372 70.46 68.5781 69.5781C72.1705 68.4758 72.1705 68.4758 76.6836 67.4772C78.162 67.127 79.6405 66.7898 81.1578 66.4527C84.8798 65.7912 88.1609 65.5319 91.9219 65.6875C91.9219 64.8316 91.9219 63.9756 91.9219 63.0938Z" fill="#9EB7FB"/>
<path d="M82.8438 89.0312C84.9836 89.0312 87.1234 89.0312 89.3281 89.0312C86.4102 93.6352 84.1406 95.2173 78.9531 96.8125C74.3492 97.0719 74.3492 97.0719 69.473 96.9681C67.8389 96.9552 66.2178 96.9292 64.5448 96.9033C63.2998 96.8773 62.0678 96.8384 60.7969 96.8125C62.0808 96.3845 63.3647 95.9566 64.6875 95.5156C65.1155 94.2317 65.5434 92.9478 65.9844 91.625C71.12 91.625 76.2556 91.625 81.5469 91.625C81.9748 90.7691 82.4028 89.9131 82.8438 89.0312Z" fill="#717BF2"/>
<path d="M60.7969 39.75C56.4523 42.1881 52.1856 43.3294 47.3353 44.4447C45.9087 44.7949 44.4822 45.132 43.0167 45.4692C38.8927 46.2084 35.1447 46.377 30.9688 46.2344C30.9688 45.3784 30.9688 44.5225 30.9688 43.6406C41.1103 40.2817 50.1366 39.2442 60.7969 39.75Z" fill="#B5E4FF"/>
<path d="M94.5156 77.3594C94.0877 78.6433 93.6597 79.9272 93.2188 81.25C86.6825 84.2458 79.6534 85.7112 72.4688 85.1406C72.0408 83.4287 71.6128 81.7169 71.1719 79.9531C73.1431 80.0309 73.1431 80.0309 75.1403 80.1087C81.923 79.9012 87.7459 77.3594 94.5156 77.3594Z" fill="#8798F8"/>
<path d="M84.5456 60.3379C86.1278 60.3898 87.697 60.4416 89.3311 60.4935C83.8193 66.0182 74.2095 66.8223 66.6876 67.2373C62.9786 67.2243 59.3084 67.1595 55.6123 66.9779C55.6123 66.5629 55.6123 66.1349 55.6123 65.681C56.7536 65.5254 57.8948 65.3698 59.075 65.2141C60.5793 64.9937 62.0837 64.7732 63.64 64.5527C65.1184 64.3452 66.6098 64.1377 68.1531 63.9173C72.3939 63.2559 72.3939 63.2559 75.9084 61.7126C79.0598 60.4546 81.1867 60.2212 84.5456 60.3379Z" fill="#A9C6FC"/>
<path d="M32.2656 81.2496C35.858 81.2626 38.737 84.1417 38.75 87.734C38.737 91.3264 35.858 94.2054 32.2656 94.2184C28.6733 94.2054 25.7942 91.3264 25.7812 87.734C25.7942 84.1417 28.6733 81.2626 32.2656 81.2496Z" fill="#8CA0F5"/>
<path d="M76.3594 48.8281C82.4677 52.0573 85.0484 53.4969 89.3281 59.2031C83.3366 59.6311 77.345 60.0591 71.1719 60.5C72.8189 59.0605 72.8189 59.0605 74.4919 57.582C75.5423 56.4019 76.5798 55.2217 77.6562 54.0156C77.6044 51.0588 77.6044 51.0588 76.3594 48.8281Z" fill="#B1D2FA"/>
<path d="M69.875 86.4375C70.303 87.2934 70.7309 88.1494 71.1719 89.0312C72.2483 88.8238 73.3117 88.6033 74.4141 88.3828C79.4848 87.6566 84.2055 87.6436 89.3281 87.7344C89.3281 88.1623 89.3281 88.5903 89.3281 89.0312C87.1883 89.4592 85.0484 89.8872 82.8438 90.3281C83.2717 91.1841 83.6997 92.04 84.1406 92.9219C78.577 92.9219 73.0134 92.9219 67.2812 92.9219C68.1372 90.782 68.9931 88.6422 69.875 86.4375Z" fill="#7985F7"/>
<path d="M38.75 87.7344C48.5933 87.7344 58.4366 87.7344 68.5781 87.7344C68.1502 88.5903 67.7222 89.4462 67.2812 90.3281C61.7177 90.3281 56.1541 90.3281 50.4219 90.3281C51.7058 91.1841 52.9897 92.04 54.3125 92.9219C50.9406 94.1539 48.723 94.6078 45.377 93.1553C43.1205 91.8455 40.9287 90.4448 38.75 89.0312C38.75 88.6033 38.75 88.1753 38.75 87.7344Z" fill="#384D92"/>
<path d="M75.306 55.7988C76.5121 56.0712 77.7182 56.3305 78.9502 56.6029C72.2583 59.9618 67.0968 61.142 59.4971 62.0368C57.3832 62.2962 55.2693 62.5555 53.1035 62.8279C50.4838 62.9576 50.4838 62.9576 47.8252 63.0873C46.9693 62.2443 46.1133 61.3754 45.2314 60.4935C46.7747 60.3379 48.331 60.1823 49.9261 60.0266C51.9363 59.8062 53.9464 59.5857 56.0085 59.3652C58.0186 59.1577 60.0158 58.9502 62.0779 58.7298C67.5247 57.8738 69.9369 55.1634 75.306 55.7988Z" fill="#B5D6FD"/>
<path d="M53.0156 34.5625C53.4436 35.4185 53.8716 36.2744 54.3125 37.1563C42.1089 38.4402 42.1089 38.4402 29.6719 39.75C30.0998 38.4661 30.5278 37.1822 30.9688 35.8594C38.3869 34.783 45.5197 34.4069 53.0156 34.5625Z" fill="#A6DAFF"/>
<path d="M40.0469 89.0309C43.6392 89.0439 46.5183 91.9229 46.5312 94.2184C46.5183 97.8107 43.6392 100.69 40.0469 100.703C37.1808 100.703 34.8723 98.3814 34.8594 94.2184C34.8723 91.3523 37.1808 89.0439 40.0469 89.0309Z" fill="#7D8BF7"/>
<path d="M55.6094 19C50.0847 24.3561 46.1552 24.9786 38.75 25.4844C38.75 24.6284 38.75 23.7725 38.75 22.8906C49.6827 18.4423 49.6827 18.4423 55.6094 19Z" fill="#88C5FD"/>
<path d="M94.5156 68.2812C94.9436 68.2812 95.3716 68.2812 95.8125 68.2812C95.8125 70.8491 95.8125 73.4169 95.8125 76.0625C96.6684 76.0625 97.5244 76.0625 98.4062 76.0625C96.6036 81.8077 93.7245 84.972 89.3281 89.0312C91.7662 82.8711 91.7662 82.8711 93.2188 79.9531C93.5041 77.9559 93.7505 75.9588 93.945 73.9616C94.0617 72.8981 94.1655 71.8347 94.2822 70.7453C94.36 69.9283 94.4378 69.1242 94.5156 68.2812Z" fill="#435C96"/>
<path d="M49.125 28.0781C43.0945 32.0984 36.9084 33.7066 29.6719 33.2656C32.2138 29.8289 33.6403 29.362 37.9459 28.4802C41.7069 28.1559 45.3511 27.9614 49.125 28.0781Z" fill="#96CFFF"/>
<path d="M20.5938 61.7969C23.0059 65.8561 23.4469 68.7611 23.1875 73.4688C21.9036 73.4688 20.6197 73.4688 19.2969 73.4688C18.6484 70.2525 18.6484 70.2525 18 66.9844C18.8559 66.9844 19.7119 66.9844 20.5938 66.9844C20.5938 65.2725 20.5938 63.5606 20.5938 61.7969Z" fill="#AAC8F6"/>
<path d="M23.1875 70.875C24.0434 71.7309 24.8994 72.5869 25.7812 73.4688C25.3014 76.8666 25.3014 76.8666 24.4844 79.9531C23.2005 79.5252 21.9166 79.0972 20.5938 78.6562C19.6989 75.9847 19.6989 75.9847 19.2969 73.4688C20.5808 73.4688 21.8647 73.4688 23.1875 73.4688C23.1875 72.6128 23.1875 71.7569 23.1875 70.875Z" fill="#A1BCF9"/>
<path d="M54.556 98.0283C57.0071 98.0672 57.0071 98.0672 59.4971 98.1061C55.6713 100.661 53.6222 101.556 49.1221 101.997C47.8382 101.141 46.5543 100.285 45.2314 99.403C48.7979 98.2229 50.8858 97.9635 54.556 98.0283Z" fill="#727BF8"/>
<path d="M46.5312 92.9219C49.0991 93.7778 51.6669 94.6337 54.3125 95.5156C54.3125 95.9436 54.3125 96.3716 54.3125 96.8125C49.6048 97.2405 44.8972 97.6684 40.0469 98.1094C41.7588 97.2534 43.4706 96.3975 45.2344 95.5156C45.6623 94.6597 46.0903 93.8038 46.5312 92.9219Z" fill="#7984F8"/>
<path d="M34.8594 86.4373C37.0122 86.4373 38.75 88.1751 38.75 90.3279C38.75 92.4807 37.0122 94.2185 34.8594 94.2185C32.7066 94.2185 30.9688 92.4807 30.9688 90.3279C30.9688 88.1751 32.7066 86.4373 34.8594 86.4373Z" fill="#8696F8"/>
</g>
<defs>
<clipPath id="clip0_62_123">
<rect width="83" height="83" fill="white" transform="translate(18 19)"/>
</clipPath>
</defs>
</svg>
