<svg width="120" height="120" viewBox="0 0 120 120" fill="none" xmlns="http://www.w3.org/2000/svg">
<path fill-rule="evenodd" clip-rule="evenodd" d="M99.259 40.3668H61.8705C59.8029 40.3668 58.1295 42.0438 58.1295 44.1078V55.3237C58.1295 57.3912 56.4597 59.0647 54.3921 59.0647H20.741C18.6734 59.0647 17 60.7381 17 62.8057V77.7625C17 79.8265 18.6734 81.4999 20.741 81.4999H58.1295C60.1971 81.4999 61.8705 79.8265 61.8705 77.7625V66.5467C61.8705 64.4755 63.5403 62.8057 65.6079 62.8057H99.259C101.327 62.8057 103 61.1322 103 59.0647V44.1078C103 42.0438 101.327 40.3668 99.259 40.3668Z" fill="#6E29F6"/>
</svg>
