<svg width="120" height="120" viewBox="0 0 120 120" fill="none" xmlns="http://www.w3.org/2000/svg">
<g clip-path="url(#clip0_36_28217)">
<path d="M65.1345 23.2924C59.6044 18.9829 52.7319 16.7613 45.7257 17.0182C38.7195 17.2751 32.0282 19.9941 26.8286 24.697C20.9584 30.006 17.4354 37.4279 17.0337 45.3326C16.6319 53.2372 19.3841 60.9781 24.6858 66.8549C29.3813 72.0622 35.7625 75.4471 42.7071 76.4144C49.6516 77.3818 56.715 75.8697 62.6548 72.1439L39.4957 46.4765L65.1345 23.2924Z" fill="#4D5EFF"/>
<path d="M54.8685 94.9088C60.398 99.2164 67.269 101.437 74.2736 101.18C81.2782 100.923 87.9681 98.2052 93.1672 93.5041C99.0366 88.1947 102.559 80.7729 102.961 72.8685C103.362 64.9642 100.611 57.2234 95.31 51.3462C90.6145 46.139 84.2333 42.7541 77.2887 41.7867C70.3442 40.8193 63.2809 42.3315 57.341 46.0572L80.5001 71.7246L54.8613 94.9088H54.8685Z" fill="#00FFCE"/>
</g>
<defs>
<clipPath id="clip0_36_28217">
<rect width="86" height="86" fill="white" transform="translate(17 17)"/>
</clipPath>
</defs>
</svg>
