<svg width="120" height="120" viewBox="0 0 120 120" fill="none" xmlns="http://www.w3.org/2000/svg">
<path d="M24.168 31.1556C24.168 25.3166 28.8398 20.5833 34.603 20.5833H85.0388C90.8018 20.5833 95.4734 25.3166 95.4734 31.1556C95.4734 36.9945 90.8018 41.7278 85.0388 41.7278H34.603C28.8398 41.7278 24.168 36.9945 24.168 31.1556Z" fill="#6200EE"/>
<path d="M28.4815 24.0863C32.7868 20.2047 39.3827 20.5941 43.2138 24.956L71.6333 57.3125C75.4646 61.6741 75.0801 68.357 70.7751 72.2385C66.4697 76.1203 59.8739 75.7308 56.0429 71.3688L27.6232 39.0124C23.792 34.6505 24.1763 27.9679 28.4815 24.0863Z" fill="#6200EE"/>
<path d="M24.168 64.6358C24.168 58.7968 28.8398 54.0635 34.603 54.0635H64.1687C69.9318 54.0635 74.6037 58.7968 74.6037 64.6358C74.6037 70.4745 69.9318 75.2081 64.1687 75.2081H34.603C28.8398 75.2081 24.168 70.4745 24.168 64.6358Z" fill="#6200EE"/>
<path d="M45.0379 91.0646C45.0379 96.9033 40.366 101.637 34.603 101.637C28.8398 101.637 24.168 96.9033 24.168 91.0646C24.168 85.2256 28.8398 80.4924 34.603 80.4924C40.366 80.4924 45.0379 85.2256 45.0379 91.0646Z" fill="#BF7AFF"/>
</svg>
