<svg width="120" height="120" viewBox="0 0 120 120" fill="none" xmlns="http://www.w3.org/2000/svg">
<g clip-path="url(#clip0_36_27081)">
<mask id="mask0_36_27081" style="mask-type:luminance" maskUnits="userSpaceOnUse" x="17" y="17" width="86" height="86">
<path d="M103 17H17V103H103V17Z" fill="white"/>
</mask>
<g mask="url(#mask0_36_27081)">
<path fill-rule="evenodd" clip-rule="evenodd" d="M95.8763 17H99.5743V20.3218H103V23.7904H99.5743V30.545H95.8763V23.794H89.1468V20.3182H95.8763V17ZM26.3167 61.3294V23.7008H29.7889V61.333H26.3131L26.3167 61.3294ZM63.6657 63.6944H102.903V66.9839H80.6579V101.309H63.6657V63.6908V63.6944ZM37.1706 28.9433V73.2189H17V89.3798H54.2165V45.6667H91.7447L91.734 28.9397L37.1706 28.9433Z" fill="url(#paint0_linear_36_27081)"/>
</g>
</g>
<defs>
<linearGradient id="paint0_linear_36_27081" x1="22.8982" y1="23.8657" x2="82.7255" y2="96.1594" gradientUnits="userSpaceOnUse">
<stop stop-color="#01A9FF"/>
<stop offset="1" stop-color="#0160FF"/>
</linearGradient>
<clipPath id="clip0_36_27081">
<rect width="86" height="86" fill="white" transform="translate(17 17)"/>
</clipPath>
</defs>
</svg>
