<svg width="120" height="120" viewBox="0 0 120 120" fill="none" xmlns="http://www.w3.org/2000/svg">
<g clip-path="url(#clip0_36_28150)">
<path d="M15 15C44.7 15 74.4 15 105 15C105 44.7 105 74.4 105 105C75.3 105 45.6 105 15 105C15 75.3 15 45.6 15 15Z" fill="#1866C0"/>
<path d="M15 15C44.7 15 74.4 15 105 15C105 44.7 105 74.4 105 105C75.3 105 45.6 105 15 105C15 75.3 15 45.6 15 15ZM58.0005 16.9445C57.7393 17.1057 57.4779 17.2669 57.2088 17.4328C56.9117 17.6162 56.6146 17.7995 56.3086 17.9883C55.5886 18.408 54.867 18.8254 54.1444 19.2407C53.7538 19.4657 53.3634 19.6907 52.9612 19.9226C51.7272 20.6313 50.4915 21.3371 49.2554 22.0421C47.7349 22.91 46.2182 23.784 44.707 24.668C42.7815 25.7944 40.8455 26.902 38.9077 28.0071C37.7334 28.6781 36.5615 29.3527 35.3906 30.0293C33.804 30.946 32.2144 31.8572 30.6226 32.7648C28.3952 34.0364 26.1751 35.32 23.9648 36.6211C23.6426 36.8074 23.3204 36.9936 22.9884 37.1855C22.2028 37.6041 22.2028 37.6041 21.8555 38.2031C21.8059 45.4613 21.7855 52.7197 21.7785 59.978C21.7716 64.009 21.7646 68.0402 21.7572 72.1934C21.023 77.9485 21.023 77.9485 22.7344 82.6758C23.4108 83.0926 24.0972 83.4933 24.7889 83.8843C25.1992 84.1177 25.6095 84.351 26.0324 84.5914C26.4521 84.8295 26.8721 85.0673 27.3047 85.3125C28.0669 85.7513 28.8285 86.1907 29.5898 86.6309C30.1555 86.9571 30.1555 86.9571 30.7324 87.29C34.1602 89.2676 34.1602 89.2676 35.3013 89.9261C36.0676 90.368 36.8338 90.8097 37.6002 91.2513C39.7941 92.5155 41.9837 93.7866 44.17 95.0636C46.0446 96.1556 47.9249 97.2373 49.8047 98.3203C50.942 98.9763 52.0793 99.6327 53.2166 100.289C54.0308 100.759 54.8452 101.228 55.6598 101.697C56.2799 102.054 56.2799 102.054 56.9129 102.418C57.2896 102.635 57.6665 102.852 58.0548 103.075C58.534 103.354 59.0112 103.638 59.4727 103.945C60.8293 103.945 61.4295 103.485 62.5928 102.792C63.2059 102.43 63.2059 102.43 63.8315 102.06C64.2493 101.812 64.6672 101.564 65.0977 101.309C65.8586 100.868 66.6204 100.428 67.3828 99.9902C67.7593 99.773 68.136 99.5557 68.524 99.3318C69.2902 98.8898 70.0564 98.4481 70.8229 98.0065C72.6671 96.9438 74.5097 95.8782 76.3477 94.8047C78.5694 93.5071 80.7979 92.2218 83.0273 90.9375C83.7892 90.498 84.5508 90.0586 85.3125 89.6191C86.836 88.7402 88.3593 87.8613 89.8828 86.9824C90.2558 86.7669 90.6288 86.5514 91.0131 86.3294C91.8148 85.8674 92.6178 85.4076 93.4218 84.9493C94.0302 84.6016 94.0302 84.6016 94.6509 84.2469C95.0176 84.0381 95.3841 83.8294 95.7618 83.6145C97.2352 82.8259 97.2352 82.8259 98.3203 81.6211C98.3616 74.3958 98.3838 67.1705 98.3973 59.9452C98.4078 55.9287 98.4186 51.9123 98.4295 47.7742C98.3934 44.6158 98.3574 41.4574 98.3203 38.2031C97.3108 37.3618 96.3403 36.7638 95.2002 36.1157C94.7915 35.8823 94.3826 35.649 93.9615 35.4086C93.5436 35.1705 93.1258 34.9327 92.6953 34.6875C91.9333 34.2486 91.1716 33.8091 90.4102 33.3691C90.0326 33.1513 89.6552 32.9336 89.2662 32.7093C88.5089 32.2723 87.7518 31.8351 86.9947 31.3978C85.0304 30.2633 83.0639 29.1325 81.0938 28.0078C78.7458 26.6675 76.4036 25.3173 74.0625 23.9648C73.3008 23.5254 72.5392 23.0859 71.7773 22.6465C71.4008 22.4292 71.0241 22.212 70.6362 21.988C69.8699 21.5461 69.1037 21.1044 68.3373 20.6628C67.9571 20.4436 67.5769 20.2246 67.1851 19.9989C66.8117 19.7844 66.4382 19.5701 66.0536 19.3492C65.2801 18.8997 64.5113 18.4425 63.7463 17.9786C63.3729 17.7534 62.9995 17.5283 62.6147 17.2961C62.1138 16.9891 62.1138 16.9891 61.6026 16.6761C60.1345 15.9487 59.3552 16.0856 58.0005 16.9445Z" fill="#FEFEFE"/>
<path d="M25.7227 42.5977C26.832 43.0413 27.8174 43.6281 28.8537 44.2236C29.2963 44.4778 29.7389 44.7322 30.1947 44.9941C32.0474 46.0644 33.8954 47.1421 35.7422 48.2227C36.4754 48.4564 37.2087 48.6904 37.9642 48.9312C39.9609 50.6836 39.9609 50.6836 40.373 55.0382C40.3239 56.7554 40.2751 58.4725 40.2246 60.2417C40.1865 61.9652 40.1485 63.6886 40.1093 65.4643C40.0603 66.7936 40.0114 68.1227 39.9609 69.4922C38.8008 70.1303 37.6406 70.7684 36.4453 71.4258C35.7622 71.8178 35.0807 72.2128 34.4019 72.6123C32.489 73.7345 30.5684 74.843 28.645 75.9474C28.041 76.2993 27.4423 76.6611 26.8543 77.0392C26.25 77.4023 26.25 77.4023 25.7227 77.4023C25.7227 65.9168 25.7227 54.4312 25.7227 42.5977Z" fill="#FDFDFE"/>
<path d="M58.0664 21.6797C58.0664 27.0744 58.0664 32.4691 58.0664 38.0273C55.6301 39.4195 55.6301 39.4195 53.1445 40.8398C48.1569 43.6743 48.1569 43.6743 43.2445 46.6352C42.2461 47.168 42.2461 47.168 41.1914 46.9922C40.5595 46.6538 39.9383 46.2954 39.3237 45.9266C37.7275 44.9783 36.1256 44.0429 34.5117 43.125C32.2765 41.8506 30.0518 40.5588 27.832 39.2578C28.5865 38.5034 29.465 38.0723 30.3918 37.5439C30.8048 37.3077 31.2179 37.0713 31.6437 36.8278C32.068 36.5856 32.4923 36.3434 32.9297 36.0938C33.6991 35.6511 34.4681 35.208 35.2368 34.7645C35.6144 34.5467 35.9918 34.3289 36.3808 34.1046C37.4585 33.4811 38.5343 32.8545 39.6094 32.2266C42.2152 30.7046 44.8304 29.1994 47.4454 27.6933C52.3764 24.8631 52.3764 24.8631 57.252 21.9393C57.7148 21.6797 57.7148 21.6797 58.0664 21.6797Z" fill="#FDFDFE"/>
<path d="M41.7188 72.832C42.8207 73.2729 43.7984 73.8549 44.828 74.4471C45.2704 74.7013 45.713 74.9555 46.1688 75.2174C46.6146 75.4744 47.0604 75.7314 47.5195 75.9961C47.9091 76.2204 48.2986 76.4447 48.6999 76.6758C49.4493 77.1079 50.1984 77.5402 50.9473 77.9729C51.7451 78.4338 52.5435 78.8937 53.3423 79.3532C53.7483 79.5868 54.1544 79.8204 54.5728 80.061C54.9394 80.2718 55.3059 80.4826 55.6837 80.6996C56.4865 81.1681 57.2782 81.6557 58.0664 82.1484C58.1692 84.8602 58.184 87.5757 58.1543 90.2892C58.1416 91.7823 58.129 93.2754 58.1158 94.8137C58.0995 95.9708 58.0833 97.128 58.0664 98.3203C56.9126 97.9357 55.9966 97.4075 54.9463 96.7931C54.5379 96.5553 54.1296 96.3173 53.709 96.0722C53.2906 95.8279 52.8724 95.5838 52.4414 95.332C51.6725 94.8885 50.9037 94.4454 50.1343 94.0028C48.325 92.959 46.5202 91.9078 44.7167 90.8544C42.8422 89.7624 40.9618 88.6805 39.082 87.5977C36.462 86.0886 33.8457 84.5739 31.235 83.0486C30.1045 82.3903 28.9702 81.7389 27.832 81.0938C27.832 80.9777 27.832 80.8617 27.832 80.7422C28.14 80.5722 28.448 80.4022 28.7653 80.2271C30.7801 79.1122 32.791 77.9947 34.7706 76.818C36.5499 75.7663 38.343 74.738 40.1367 73.7109C40.425 73.5327 40.7131 73.3543 41.0102 73.1706C41.244 73.0588 41.4778 72.9472 41.7188 72.832Z" fill="#FDFDFE"/>
<path d="M78.1055 72.832C79.2148 73.2757 80.2003 73.8625 81.2365 74.458C81.6791 74.7122 82.1217 74.9665 82.5775 75.2285C84.4301 76.2988 86.2784 77.3763 88.125 78.457C88.916 78.9186 89.707 79.3801 90.498 79.8413C91.1133 80.2003 91.7285 80.559 92.3438 80.918C91.6498 81.612 90.8848 81.9902 90.0255 82.467C88.5634 83.2849 87.1093 84.1135 85.6641 84.9609C83.9614 85.9578 82.2472 86.9321 80.5279 87.8998C79.4811 88.494 78.441 89.0988 77.4023 89.707C76.0316 90.5096 74.6558 91.301 73.2715 92.0801C71.1781 93.2587 69.1051 94.4711 67.0312 95.6836C66.1894 96.1753 65.3473 96.666 64.5044 97.1558C64.1224 97.3783 63.7403 97.6008 63.3467 97.8301C62.4609 98.3203 62.4609 98.3203 62.1094 98.3203C62.1094 92.9256 62.1094 87.5309 62.1094 81.9727C64.2847 80.7545 64.2847 80.7545 66.5039 79.5117C67.5435 78.9067 68.5829 78.3016 69.6205 77.6934C71.6202 76.5273 73.6334 75.3846 75.6445 74.2383C76.081 73.9713 76.5173 73.7044 76.9669 73.4293C77.3428 73.2323 77.7184 73.0351 78.1055 72.832Z" fill="#FDFEFE"/>
<path d="M94.2784 42.5977C94.2784 54.0252 94.2784 65.4527 94.2784 77.2266C93.0889 76.9887 92.2411 76.4192 91.1914 75.8094C90.7509 75.5547 90.3104 75.3 89.8565 75.0376C89.4014 74.7737 88.9465 74.51 88.4777 74.2383C87.6248 73.7507 86.7715 73.2636 85.9179 72.7772C84.0126 71.6898 82.1146 70.5913 80.2159 69.4922C79.8095 65.2385 79.8095 65.2385 79.8644 60.0548C79.8681 58.3431 79.8716 56.6312 79.8753 54.8674C79.9878 53.4868 80.1001 52.106 80.2159 50.6836C81.6851 49.7796 83.1488 48.894 84.6435 48.036C85.0383 47.8089 85.4333 47.5818 85.8402 47.3478C86.2465 47.1145 86.6529 46.8811 87.0714 46.6406C87.8772 46.1757 88.6828 45.7106 89.4884 45.2453C90.2061 44.8315 90.9238 44.4177 91.6417 44.0039C91.9147 43.8462 92.1879 43.6886 92.4691 43.526C92.6927 43.3973 92.9165 43.2686 93.1468 43.1359C93.4245 42.9759 93.4245 42.9759 93.7079 42.8126C94.1027 42.5977 94.1027 42.5977 94.2784 42.5977Z" fill="#FEFEFE"/>
<path d="M62.1105 21.6797C65.487 23.5215 68.8128 25.4521 72.1328 27.394C74.0024 28.4851 75.8792 29.564 77.755 30.6445C80.3295 32.1274 82.901 33.6152 85.466 35.1146C87.0267 36.0233 88.5933 36.9217 90.1599 37.8199C90.8477 38.2228 91.5155 38.6275 92.1691 39.082C91.3773 39.8738 90.4292 40.3227 89.4553 40.8729C88.79 41.2501 88.79 41.2501 88.111 41.6349C87.4224 42.0244 87.4224 42.0244 86.7198 42.4219C85.8662 42.9084 85.013 43.3955 84.1601 43.883C83.5554 44.227 83.5554 44.227 82.9384 44.578C82.2161 44.9937 81.4974 45.416 80.7837 45.8468C80.3395 46.1147 80.3395 46.1147 79.8863 46.3879C79.633 46.5441 79.3797 46.7002 79.1187 46.8611C78.3876 47.2008 78.1528 47.2559 77.4034 46.9922C76.9622 46.7637 76.5308 46.5155 76.107 46.256C75.8427 46.0966 75.5781 45.9371 75.3057 45.7726C75.0117 45.5951 74.718 45.4174 74.4151 45.2344C73.7458 44.8413 73.0755 44.4495 72.4046 44.0587C71.8679 43.7459 71.8679 43.7459 71.3205 43.4265C69.8236 42.5569 68.3226 41.6941 66.8209 40.833C65.2418 39.9128 63.6775 38.9676 62.1105 38.0273C61.7672 34.2452 61.7672 34.2452 61.8907 29.7217C61.9224 28.2235 61.9542 26.7251 61.9869 25.1816C62.0277 24.026 62.0684 22.8703 62.1105 21.6797Z" fill="#FDFEFE"/>
<path d="M43.8281 53.1445C44.9301 53.5854 45.9078 54.1674 46.9373 54.7596C47.3789 55.0133 47.8205 55.2671 48.2756 55.5285C48.9455 55.9147 48.9455 55.9147 49.6289 56.3086C50.0265 56.5369 50.4243 56.7654 50.8339 57.0008C51.9571 57.6466 53.0795 58.2935 54.1992 58.9453C54.8781 59.1791 55.557 59.4131 56.2564 59.6539C58.0664 61.2305 58.0664 61.2305 58.444 64.9913C58.3992 66.4656 58.3543 67.94 58.3081 69.4591C58.2731 70.9396 58.2383 72.4198 58.2023 73.9451C58.1575 75.0859 58.1126 76.2269 58.0664 77.4023C56.875 77.164 56.0521 76.5816 55.0122 75.9521C53.1595 74.8403 51.2946 73.7589 49.4106 72.7016C47.9298 71.8638 46.4624 71.0036 44.9948 70.1431C44.4182 69.8051 44.4182 69.8051 43.8281 69.4922C43.8281 64.0975 43.8281 58.7027 43.8281 53.1445Z" fill="#FCFDFE"/>
<path d="M59.8242 41.3672C60.9336 41.8109 61.919 42.3976 62.9552 42.9932C63.3979 43.2473 63.8405 43.5017 64.2963 43.7636C66.1488 44.8339 67.9972 45.9115 69.8438 46.9922C70.6348 47.4538 71.4258 47.9152 72.2168 48.3765C72.832 48.7354 73.4473 49.0942 74.0625 49.4531C73.1836 50.332 72.2467 50.8202 71.1621 51.4307C70.7205 51.6804 70.2788 51.9301 69.8239 52.1874C69.3663 52.4453 68.9088 52.7031 68.4375 52.9688C67.5765 53.4588 66.7159 53.9494 65.8556 54.4409C65.4526 54.6708 65.0495 54.9009 64.6341 55.1379C63.4404 55.8245 62.2554 56.5245 61.0767 57.2362C60.5273 57.5391 60.5273 57.5391 59.8242 57.7148C59.1376 57.3615 58.4661 56.9785 57.8027 56.5832C57.3919 56.3409 56.9811 56.0987 56.5579 55.8493C56.1275 55.5947 55.6972 55.3402 55.2539 55.0781C54.4235 54.6005 53.5922 54.1243 52.7599 53.6499C52.3556 53.4189 51.9512 53.1881 51.5344 52.9503C48.7634 51.3268 48.7634 51.3268 45.9375 49.8047C45.9375 49.6887 45.9375 49.5727 45.9375 49.4531C46.2398 49.2807 46.542 49.1082 46.8535 48.9305C48.9629 47.7264 51.0715 46.5213 53.1776 45.3114C53.5469 45.0992 53.9162 44.887 54.2968 44.6685C55.8632 43.7496 57.402 42.7864 58.9378 41.817C59.2303 41.6685 59.5228 41.5201 59.8242 41.3672Z" fill="#FDFDFE"/>
<path d="M76.1719 53.1445C76.2332 55.8103 76.2777 58.4763 76.3146 61.1426C76.3412 62.6272 76.3677 64.1119 76.3951 65.6415C76.3215 66.8542 76.2478 68.067 76.1719 69.3164C74.7064 70.2183 73.2472 71.0995 71.7554 71.9531C69.7112 73.128 67.6801 74.3237 65.6538 75.5292C65.2963 75.7412 64.9387 75.9534 64.5703 76.1719C63.9904 76.5173 63.9904 76.5173 63.3989 76.8695C62.4609 77.4023 62.4609 77.4023 62.1094 77.4023C62.1094 72.0076 62.1094 66.6129 62.1094 61.0547C63.6176 60.1846 65.1258 59.3145 66.6797 58.418C68.2489 57.5027 68.2489 57.5027 69.8177 56.5867C75.7259 53.1445 75.7259 53.1445 76.1719 53.1445Z" fill="#FDFEFE"/>
</g>
<defs>
<clipPath id="clip0_36_28150">
<rect x="15" y="15" width="90" height="90" rx="24" fill="white"/>
</clipPath>
</defs>
</svg>
