<svg width="120" height="120" viewBox="0 0 120 120" fill="none" xmlns="http://www.w3.org/2000/svg">
<g clip-path="url(#clip0_36_32684)">
<path d="M18.5 18.5C45.89 18.5 73.28 18.5 101.5 18.5C101.5 45.89 101.5 73.28 101.5 101.5C74.11 101.5 46.72 101.5 18.5 101.5C18.5 74.11 18.5 46.72 18.5 18.5Z" fill="#FEFEFE"/>
<path d="M39.2489 47.9649C53.0809 47.9649 66.9128 47.9649 81.1639 47.9649C80.89 49.0605 80.6161 50.1561 80.3339 51.2849C66.502 51.2849 52.67 51.2849 38.4189 51.2849C38.6928 50.1893 38.9667 49.0937 39.2489 47.9649Z" fill="#8968FB"/>
<path d="M43.8154 64.15C56.4148 64.15 69.0142 64.15 81.9953 64.15C81.1654 67.055 81.1654 67.055 80.7504 67.47C74.4465 67.4991 68.1427 67.5032 61.843 67.4949C58.3404 67.4908 54.8378 67.4866 51.2314 67.4866C47.1478 67.4783 47.1478 67.4783 42.9854 67.47C43.2593 66.3744 43.5332 65.2788 43.8154 64.15Z" fill="#8A69FB"/>
<path d="M41.7392 53.36C54.2016 53.36 66.6641 53.36 79.5042 53.36C79.3672 54.4556 79.2303 55.5512 79.0892 56.68C66.4898 56.68 53.8904 56.68 40.9092 56.68C41.1831 55.5844 41.457 54.4888 41.7392 53.36Z" fill="#8867FB"/>
<path d="M42.1552 69.96C55.9872 69.96 69.8191 69.96 84.0702 69.96C83.7963 70.9186 83.5224 71.8773 83.2402 72.865C69.5452 72.865 55.8502 72.865 41.7402 72.865C41.8772 71.9063 42.0141 70.9477 42.1552 69.96Z" fill="#815DFB"/>
<path d="M42.5702 58.755C54.3479 58.755 66.1256 58.755 78.2602 58.755C77.9863 59.8506 77.7124 60.9462 77.4302 62.075C65.6525 62.075 53.8748 62.075 41.7402 62.075C42.0141 60.9794 42.288 59.8838 42.5702 58.755Z" fill="#8867FB"/>
<path d="M67.5366 42.5295C69.3045 42.5336 71.0724 42.5378 72.8901 42.5461C74.658 42.5461 76.4259 42.5502 78.2478 42.5544C80.3103 42.5627 80.3103 42.5627 82.4102 42.571C82.2733 43.5296 82.1363 44.4883 81.9952 45.476C75.5586 45.476 69.1219 45.476 62.4902 45.476C62.9758 42.5751 62.9758 42.5751 67.5366 42.5295Z" fill="#825EFB"/>
<path d="M40.9111 75.355C47.2108 75.355 53.5105 75.355 60.0011 75.355C59.8641 76.3137 59.7272 77.2723 59.5861 78.26C53.1494 78.26 46.7128 78.26 40.0811 78.26C40.4961 76.185 40.4961 76.185 40.9111 75.355Z" fill="#815DFB"/>
<path d="M70.79 37.175C75.1724 37.175 79.5548 37.175 84.07 37.175C83.9331 38.1337 83.7961 39.0923 83.655 40.08C79.2726 40.08 74.8902 40.08 70.375 40.08C70.512 39.1214 70.6489 38.1627 70.79 37.175Z" fill="#815EFB"/>
<path d="M39.25 80.75C43.6324 80.75 48.0148 80.75 52.53 80.75C52.2561 81.7086 51.9822 82.6673 51.7 83.655C47.4545 83.655 43.2091 83.655 38.835 83.655C38.9719 82.6963 39.1089 81.7377 39.25 80.75Z" fill="#805CFB"/>
<path d="M37.5898 86.145C39.644 86.145 41.6983 86.145 43.8148 86.145C43.6778 87.2406 43.5409 88.3362 43.3998 89.465C41.2086 89.465 39.0174 89.465 36.7598 89.465C37.0337 88.3694 37.3076 87.2738 37.5898 86.145Z" fill="#8B6AFB"/>
<path d="M79.5058 31.78C81.5601 31.78 83.6143 31.78 85.7308 31.78C85.3158 33.855 85.3158 33.855 84.9008 34.685C82.9835 34.685 81.0662 34.685 79.0908 34.685C79.2278 33.7263 79.3647 32.7677 79.5058 31.78Z" fill="#825FFB"/>
</g>
<defs>
<clipPath id="clip0_36_32684">
<rect width="83" height="83" fill="white" transform="translate(18.5 18.5)"/>
</clipPath>
</defs>
</svg>
