<svg width="120" height="120" viewBox="0 0 120 120" fill="none" xmlns="http://www.w3.org/2000/svg">
<g clip-path="url(#clip0_36_27096)">
<mask id="mask0_36_27096" style="mask-type:luminance" maskUnits="userSpaceOnUse" x="17" y="17" width="86" height="86">
<path d="M103 17H17V103H103V17Z" fill="white"/>
</mask>
<g mask="url(#mask0_36_27096)">
<path d="M59.9817 89.4411C58.1832 89.4411 56.4585 90.1556 55.1864 91.4273C53.9147 92.699 53.2002 94.4237 53.2002 96.2225C53.2002 98.021 53.9147 99.746 55.1864 101.018C56.4585 102.289 58.1832 103.004 59.9817 103.004C61.7805 103.004 63.5051 102.289 64.7769 101.018C66.049 99.746 66.7631 98.021 66.7631 96.2225C66.7631 94.4237 66.049 92.699 64.7769 91.4273C63.5051 90.1556 61.7805 89.4411 59.9817 89.4411ZM59.9817 99.4959C59.3227 99.4955 58.6788 99.2995 58.1316 98.9326C57.5844 98.5653 57.1587 98.0439 56.9086 97.434C56.6588 96.8245 56.5958 96.1541 56.7276 95.5087C56.8599 94.863 57.1806 94.2714 57.65 93.8088C58.119 93.3462 58.7153 93.0334 59.3628 92.9104C60.0103 92.7875 60.6793 92.8603 61.2856 93.1186C61.8916 93.3774 62.4072 93.8102 62.7666 94.3628C63.1257 94.915 63.3127 95.5618 63.3034 96.2207C63.3038 96.6547 63.2174 97.0843 63.0497 97.4849C62.8824 97.8852 62.6369 98.2485 62.328 98.5531C62.0188 98.8577 61.6522 99.0982 61.2494 99.2601C60.8467 99.4217 60.416 99.502 59.9817 99.4959Z" fill="#4285F4"/>
<path fill-rule="evenodd" clip-rule="evenodd" d="M94.7125 67.6831C95.5617 67.8192 96.3321 68.2564 96.8804 68.9157C97.3695 69.6338 97.5745 70.5085 97.4551 71.3692C97.3362 72.23 96.9012 73.0158 96.2354 73.5741L66.7087 95.3679C66.5589 94.1854 66.1003 93.0631 65.3789 92.1146C64.6573 91.1657 63.6984 90.4243 62.5986 89.9642L92.2686 68.1776C92.9968 67.7228 93.865 67.5473 94.7125 67.6831Z" fill="#669DF6"/>
<path fill-rule="evenodd" clip-rule="evenodd" d="M53.2701 95.2675L23.8259 73.531C23.1395 73.0004 22.681 72.2281 22.5439 71.3714C22.4067 70.5146 22.6012 69.6378 23.0878 68.9193C23.6313 68.251 24.4021 67.8063 25.2527 67.6701C26.1034 67.534 26.9745 67.7157 27.6995 68.1811L57.3695 89.9678C56.2859 90.4207 55.3384 91.1471 54.62 92.0762C53.9012 93.0054 53.436 94.1048 53.2701 95.2675Z" fill="#AECBFA"/>
<path d="M32.3106 33.0357C31.3972 33.0237 30.5247 32.6555 29.8788 32.0096C29.2329 31.3637 28.8647 30.4912 28.8526 29.5778V20.9062C28.7958 20.4152 28.8434 19.9177 28.9924 19.4465C29.1413 18.9752 29.3883 18.5408 29.7171 18.1717C30.0459 17.8026 30.4489 17.5073 30.8999 17.3051C31.3509 17.1028 31.8396 16.9983 32.3338 16.9983C32.8281 16.9983 33.3168 17.1028 33.7678 17.3051C34.2188 17.5073 34.6219 17.8026 34.9507 18.1717C35.2794 18.5408 35.5264 18.9752 35.6754 19.4465C35.8243 19.9177 35.872 20.4152 35.8151 20.9062V29.5778C35.8028 30.4992 35.4282 31.3786 34.7723 32.0258C34.1164 32.673 33.232 33.0358 32.3106 33.0357ZM32.2174 63.7056C33.1468 63.7056 34.0382 63.3361 34.6954 62.6789C35.3527 62.0218 35.7219 61.1306 35.7219 60.2011C35.7219 59.2715 35.3527 58.38 34.6954 57.7228C34.0382 57.0657 33.1468 56.6966 32.2174 56.6966C31.2879 56.6966 30.3966 57.0657 29.7393 57.7228C29.0821 58.38 28.7129 59.2715 28.7129 60.2011C28.7129 61.1306 29.0821 62.0218 29.7393 62.6789C30.3966 63.3361 31.2879 63.7056 32.2174 63.7056ZM32.2174 53.5146C32.6776 53.5146 33.1333 53.4239 33.5585 53.2476C33.9837 53.0717 34.37 52.8135 34.6954 52.4881C35.0209 52.1626 35.279 51.7763 35.4551 51.3511C35.6313 50.9259 35.7219 50.4702 35.7219 50.01C35.7219 49.5498 35.6313 49.0941 35.4551 48.6689C35.279 48.2437 35.0209 47.8574 34.6954 47.5319C34.37 47.2065 33.9837 46.9484 33.5585 46.7723C33.1333 46.5962 32.6776 46.5055 32.2174 46.5055C31.2879 46.5055 30.3966 46.8747 29.7393 47.5319C29.0821 48.1892 28.7129 49.0806 28.7129 50.01C28.7129 50.9394 29.0821 51.8308 29.7393 52.4881C30.3966 53.1451 31.2879 53.5146 32.2174 53.5146ZM32.2174 43.2733C33.1468 43.2733 34.0382 42.9041 34.6954 42.2469C35.3527 41.5897 35.7219 40.6983 35.7219 39.7688C35.7219 38.8394 35.3527 37.948 34.6954 37.2908C34.0382 36.6336 33.1468 36.2643 32.2174 36.2643C31.2879 36.2643 30.3966 36.6336 29.7393 37.2908C29.0821 37.948 28.7129 38.8394 28.7129 39.7688C28.7129 40.6983 29.0821 41.5897 29.7393 42.2469C30.3966 42.9041 31.2879 43.2733 32.2174 43.2733Z" fill="#AECBFA"/>
<path d="M87.6562 43.1836C86.7342 43.1714 85.8545 42.7963 85.207 42.1396C84.5598 41.4829 84.1972 40.5976 84.1982 39.6755V31.0039C84.1982 30.0868 84.5627 29.2073 85.2113 28.5588C85.8595 27.9103 86.7392 27.546 87.6562 27.546C88.5735 27.546 89.4528 27.9103 90.1014 28.5588C90.75 29.2073 91.1141 30.0868 91.1141 31.0039V39.6755C91.1212 40.134 91.037 40.5893 90.8665 41.0148C90.6959 41.4404 90.4422 41.8277 90.1204 42.1542C89.7986 42.4808 89.4149 42.7399 88.9917 42.9167C88.5688 43.0934 88.1148 43.1842 87.6562 43.1836ZM87.7458 63.7521C88.2062 63.7521 88.6617 63.6615 89.087 63.4852C89.5123 63.3092 89.8986 63.0509 90.224 62.7255C90.5493 62.4001 90.8073 62.0138 90.9836 61.5885C91.1596 61.1635 91.2502 60.7077 91.2502 60.2476C91.2502 59.7872 91.1596 59.3317 90.9836 58.9064C90.8073 58.481 90.5493 58.0947 90.224 57.7694C89.8986 57.444 89.5123 57.186 89.087 57.0097C88.6617 56.8338 88.2062 56.7431 87.7458 56.7431C86.8162 56.7431 85.9251 57.1122 85.2679 57.7694C84.6107 58.4266 84.2412 59.3181 84.2412 60.2476C84.2412 61.1768 84.6107 62.0683 85.2679 62.7255C85.9251 63.3827 86.8162 63.7521 87.7458 63.7521ZM87.7458 53.3748C88.6753 53.3748 89.5668 53.0053 90.224 52.3482C90.8812 51.691 91.2502 50.7996 91.2502 49.8701C91.2502 48.9407 90.8812 48.0493 90.224 47.3921C89.5668 46.7349 88.6753 46.3656 87.7458 46.3656C86.8162 46.3656 85.9251 46.7349 85.2679 47.3921C84.6107 48.0493 84.2412 48.9407 84.2412 49.8701C84.2412 50.7996 84.6107 51.691 85.2679 52.3482C85.9251 53.0053 86.8162 53.3748 87.7458 53.3748ZM87.7458 24.4105C88.2062 24.4105 88.6617 24.3199 89.087 24.1438C89.5123 23.9677 89.8986 23.7095 90.224 23.3841C90.5493 23.0587 90.8073 22.6723 90.9836 22.2471C91.1596 21.822 91.2502 21.3663 91.2502 20.906C91.2502 20.4458 91.1596 19.9901 90.9836 19.5649C90.8073 19.1398 90.5493 18.7534 90.224 18.428C89.8986 18.1026 89.5123 17.8444 89.087 17.6683C88.6617 17.4922 88.2062 17.4016 87.7458 17.4016C86.8162 17.4016 85.9251 17.7708 85.2679 18.428C84.6107 19.0852 84.2412 19.9766 84.2412 20.906C84.2412 21.8355 84.6107 22.7269 85.2679 23.3841C85.9251 24.0413 86.8162 24.4105 87.7458 24.4105Z" fill="#4285F4"/>
<path d="M59.982 74.0356C59.0686 74.0234 58.1961 73.6554 57.5504 73.0093C56.9043 72.3636 56.5363 71.4911 56.5241 70.5777V61.7663C56.623 60.9124 57.0322 60.1247 57.6744 59.5528C58.3161 58.9809 59.1457 58.6652 60.0053 58.6652C60.865 58.6652 61.6945 58.9809 62.3363 59.5528C62.9781 60.1247 63.3876 60.9124 63.4865 61.7663V70.4845C63.4937 70.9489 63.4081 71.4101 63.2353 71.8412C63.0623 72.2722 62.805 72.6643 62.4789 72.995C62.1525 73.3254 61.7637 73.5877 61.3351 73.7665C60.9065 73.9449 60.4464 74.0367 59.982 74.0356ZM59.982 84.2302C60.9116 84.2302 61.8027 83.8611 62.4599 83.2039C63.1175 82.5464 63.4865 81.6552 63.4865 80.7257C63.4865 79.7962 63.1175 78.905 62.4599 78.2478C61.8027 77.5903 60.9116 77.2212 59.982 77.2212C59.0525 77.2212 58.161 77.5903 57.5038 78.2478C56.8466 78.905 56.4775 79.7962 56.4775 80.7257C56.4775 81.6552 56.8466 82.5464 57.5038 83.2039C58.161 83.8611 59.0525 84.2302 59.982 84.2302ZM59.982 55.1263C60.9116 55.1263 61.8027 54.7573 62.4599 54.1001C63.1175 53.4425 63.4865 52.5513 63.4865 51.6218C63.4865 50.6924 63.1175 49.801 62.4599 49.1438C61.8027 48.4866 60.9116 48.1173 59.982 48.1173C59.0525 48.1173 58.161 48.4866 57.5038 49.1438C56.8466 49.801 56.4775 50.6924 56.4775 51.6218C56.4775 52.5513 56.8466 53.4425 57.5038 54.1001C58.161 54.7573 59.0525 55.1263 59.982 55.1263ZM59.982 44.8888C60.9116 44.8888 61.8027 44.5196 62.4599 43.8623C63.1175 43.2051 63.4865 42.3137 63.4865 41.3843C63.4865 40.4548 63.1175 39.5634 62.4599 38.9062C61.8027 38.249 60.9116 37.8798 59.982 37.8798C59.0525 37.8798 58.161 38.249 57.5038 38.9062C56.8466 39.5634 56.4775 40.4548 56.4775 41.3843C56.4775 42.3137 56.8466 43.2051 57.5038 43.8623C58.161 44.5196 59.0525 44.8888 59.982 44.8888Z" fill="#669DF6"/>
<path d="M73.8176 53.4676C72.9042 53.4558 72.0317 53.0874 71.3856 52.4416C70.7399 51.7957 70.3715 50.9232 70.3597 50.0098V41.3382C70.2712 40.5972 70.4217 39.8474 70.7893 39.198C71.1573 38.5487 71.7228 38.0339 72.4036 37.7286C73.0845 37.4234 73.8452 37.3437 74.5748 37.5012C75.304 37.6586 75.964 38.0451 76.4585 38.6041C76.7868 38.9733 77.0333 39.4077 77.1824 39.8789C77.3311 40.35 77.3787 40.8473 77.3221 41.3382V50.0098C77.3096 50.9312 76.9351 51.8106 76.2793 52.4578C75.6232 53.105 74.7389 53.468 73.8176 53.4676ZM73.8642 34.6051C74.3243 34.6051 74.7801 34.5144 75.2051 34.3383C75.6304 34.1622 76.0167 33.9041 76.3421 33.5786C76.6674 33.2532 76.9258 32.8669 77.1017 32.4417C77.278 32.0165 77.3687 31.5608 77.3687 31.1006C77.3687 30.6404 77.278 30.1846 77.1017 29.7595C76.9258 29.3343 76.6674 28.948 76.3421 28.6225C76.0167 28.2971 75.6304 28.039 75.2051 27.8628C74.7801 27.6867 74.3243 27.5961 73.8642 27.5961C72.9347 27.5961 72.0431 27.9653 71.3859 28.6225C70.7288 29.2797 70.3597 30.1711 70.3597 31.1006C70.3597 32.03 70.7288 32.9214 71.3859 33.5786C72.0431 34.2358 72.9347 34.6051 73.8642 34.6051ZM73.8642 73.8066C74.7933 73.8066 75.6849 73.4375 76.3421 72.7804C76.9992 72.1232 77.3687 71.2316 77.3687 70.3021C77.3687 69.373 76.9992 68.4814 76.3421 67.8243C75.6849 67.1671 74.7933 66.7976 73.8642 66.7976C72.9347 66.7976 72.0431 67.1671 71.3859 67.8243C70.7288 68.4814 70.3597 69.373 70.3597 70.3021C70.3597 71.2316 70.7288 72.1232 71.3859 72.7804C72.0431 73.4375 72.9347 73.8066 73.8642 73.8066ZM73.8642 63.569C74.7933 63.569 75.6849 63.2 76.3421 62.5428C76.9992 61.8856 77.3687 60.9941 77.3687 60.0645C77.3687 59.135 76.9992 58.2439 76.3421 57.5867C75.6849 56.9295 74.7933 56.56 73.8642 56.56C72.9347 56.56 72.0431 56.9295 71.3859 57.5867C70.7288 58.2439 70.3597 59.135 70.3597 60.0645C70.3597 60.9941 70.7288 61.8856 71.3859 62.5428C72.0431 63.2 72.9347 63.569 73.8642 63.569Z" fill="#4285F4"/>
<path d="M46.1 73.807C47.0295 73.807 47.9209 73.4375 48.5781 72.7803C49.2353 72.1232 49.6045 71.2316 49.6045 70.3025C49.6045 69.3729 49.2353 68.4814 48.5781 67.8242C47.9209 67.167 47.0295 66.798 46.1 66.798C45.1706 66.798 44.2792 67.167 43.622 67.8242C42.9648 68.4814 42.5955 69.3729 42.5955 70.3025C42.5955 71.2316 42.9648 72.1232 43.622 72.7803C44.2792 73.4375 45.1706 73.807 46.1 73.807ZM46.1 44.8893C47.0295 44.8893 47.9209 44.5201 48.5781 43.8628C49.2353 43.2056 49.6045 42.3143 49.6045 41.3848C49.6045 40.4553 49.2353 39.5639 48.5781 38.9067C47.9209 38.2495 47.0295 37.8803 46.1 37.8803C45.1706 37.8803 44.2792 38.2495 43.622 38.9067C42.9648 39.5639 42.5955 40.4553 42.5955 41.3848C42.5955 42.3143 42.9648 43.2056 43.622 43.8628C44.2792 44.5201 45.1706 44.8893 46.1 44.8893ZM46.1 34.6051C47.03 34.6051 47.9218 34.2357 48.5793 33.5782C49.2369 32.9206 49.6063 32.0288 49.6063 31.0988C49.6063 30.1689 49.2369 29.2771 48.5793 28.6195C47.9218 27.962 47.03 27.5925 46.1 27.5925C45.1701 27.5925 44.2783 27.962 43.6207 28.6195C42.9632 29.2771 42.5938 30.1689 42.5938 31.0988C42.5938 32.0288 42.9632 32.9206 43.6207 33.5782C44.2783 34.2357 45.1701 34.6051 46.1 34.6051ZM46.1466 63.5694C45.2403 63.5697 44.3689 63.2193 43.7155 62.5915C43.0621 61.9633 42.6773 61.1066 42.6421 60.201V51.4396C42.6421 50.5225 43.0064 49.643 43.6549 48.9945C44.3034 48.346 45.1829 47.9817 46.1 47.9817C47.0171 47.9817 47.8967 48.346 48.5452 48.9945C49.1936 49.643 49.558 50.5225 49.558 51.4396V60.201C49.534 61.094 49.1656 61.9433 48.5298 62.5711C47.894 63.1989 47.04 63.5565 46.1466 63.5694Z" fill="#AECBFA"/>
</g>
</g>
<defs>
<clipPath id="clip0_36_27096">
<rect width="86" height="86" fill="white" transform="translate(17 17)"/>
</clipPath>
</defs>
</svg>
