<svg width="120" height="120" viewBox="0 0 120 120" fill="none" xmlns="http://www.w3.org/2000/svg">
<path d="M88.5104 56.8226L77.4029 100.271C77.3755 100.39 77.3763 100.514 77.4044 100.632C77.4329 100.751 77.4884 100.862 77.5664 100.957C77.6444 101.051 77.7434 101.127 77.8555 101.177C77.9676 101.228 78.0895 101.253 78.2129 101.25H100.42C100.543 101.253 100.666 101.228 100.777 101.177C100.89 101.127 100.989 101.051 101.067 100.957C101.145 100.862 101.2 100.751 101.229 100.632C101.257 100.514 101.258 100.39 101.23 100.271L90.0659 56.8226C90.0171 56.6558 89.9148 56.5095 89.7741 56.4049C89.6343 56.3006 89.4636 56.2444 89.2881 56.2444C89.113 56.2444 88.9424 56.3006 88.8021 56.4049C88.6619 56.5095 88.5595 56.6558 88.5104 56.8226Z" fill="#00E5E5"/>
<path d="M27.3731 66.6668L18.7689 100.269C18.7418 100.388 18.7424 100.511 18.7708 100.631C18.7991 100.749 18.8545 100.86 18.9326 100.955C19.0107 101.049 19.1096 101.125 19.2216 101.176C19.3336 101.227 19.4559 101.252 19.5791 101.249H36.7226C36.8458 101.252 36.9681 101.227 37.0801 101.176C37.1921 101.125 37.291 101.049 37.3691 100.955C37.4472 100.86 37.5026 100.749 37.531 100.631C37.5593 100.511 37.5599 100.388 37.5328 100.269L28.9206 66.6668C28.8692 66.5033 28.7665 66.36 28.6273 66.2584C28.4881 66.1568 28.3197 66.102 28.1468 66.102C27.9739 66.102 27.8055 66.1568 27.6663 66.2584C27.5271 66.36 27.4244 66.5033 27.3731 66.6668Z" fill="#00E5E5"/>
<path d="M42.5486 38.8468L26.8715 100.268C26.8451 100.384 26.8449 100.504 26.871 100.62C26.8971 100.736 26.9489 100.845 27.0225 100.938C27.0961 101.032 27.1898 101.109 27.2968 101.162C27.4037 101.215 27.5214 101.245 27.6411 101.248H59.0035C59.1265 101.251 59.2491 101.226 59.3608 101.175C59.473 101.124 59.5716 101.049 59.65 100.954C59.728 100.86 59.7835 100.749 59.8116 100.63C59.8401 100.511 59.8405 100.387 59.8139 100.268L44.096 38.8468C44.0447 38.6831 43.942 38.5399 43.8028 38.4383C43.6635 38.3367 43.4952 38.2819 43.3223 38.2819C43.1494 38.2819 42.981 38.3367 42.8418 38.4383C42.7026 38.5399 42.5998 38.6831 42.5486 38.8468Z" fill="#006EFF"/>
<path d="M69.5932 19.3149C69.5419 19.1512 69.4395 19.0081 69.3004 18.9065C69.1609 18.8049 68.9925 18.75 68.82 18.75C68.6467 18.75 68.4784 18.8049 68.3392 18.9065C68.2001 19.0081 68.0974 19.1512 68.046 19.3149L46.6166 100.268C46.5894 100.387 46.5901 100.511 46.6184 100.629C46.6468 100.748 46.7022 100.859 46.7803 100.954C46.8584 101.048 46.9572 101.124 47.0693 101.175C47.1813 101.226 47.3036 101.25 47.4268 101.247H90.2531C90.3765 101.25 90.4984 101.226 90.6109 101.175C90.7226 101.124 90.8216 101.048 90.8996 100.954C90.9776 100.859 91.0331 100.748 91.0616 100.629C91.0897 100.511 91.0905 100.387 91.0631 100.268L69.5932 19.3149Z" fill="#006EFF"/>
<path d="M53.849 47.7795L40.2542 100.262C40.2256 100.382 40.2252 100.507 40.2528 100.627C40.2806 100.746 40.3357 100.858 40.414 100.954C40.4922 101.049 40.5917 101.126 40.7044 101.177C40.8172 101.228 40.9403 101.253 41.0644 101.25H68.1894C68.3135 101.253 68.4365 101.228 68.5494 101.177C68.6619 101.126 68.7617 101.049 68.8397 100.954C68.918 100.858 68.9732 100.746 69.0009 100.627C69.0287 100.507 69.0283 100.382 68.9998 100.262L55.3967 47.7795C55.3453 47.6157 55.2425 47.4728 55.103 47.371C54.9643 47.2693 54.7959 47.2147 54.6227 47.2147C54.4502 47.2147 54.2818 47.2693 54.1423 47.371C54.0032 47.4728 53.9004 47.6157 53.849 47.7795Z" fill="#00E5E5"/>
</svg>
