<svg width="120" height="120" viewBox="0 0 120 120" fill="none" xmlns="http://www.w3.org/2000/svg">
<path d="M36.3738 17V17.2365C36.279 17.5205 36.2212 17.8156 36.2018 18.1144C36.1624 18.5086 36.1444 18.8598 36.1444 19.1715C36.1444 20.3862 36.2985 21.7336 36.6031 23.2207C36.9507 24.6719 37.5849 26.4887 38.5059 28.6817L64.0371 87.3265L88.7048 29.1475C89.2817 27.6998 89.898 26.116 90.5502 24.3924C91.2024 22.6724 91.5285 20.9309 91.5285 19.1679C91.5419 18.5066 91.425 17.8491 91.1844 17.2329V17H102.999V17.2365C102.268 17.9782 101.386 19.3077 100.347 21.2283C99.3079 23.1454 98.1755 25.5104 96.9465 28.3305L63.9225 103H59.3107L28.0174 31.2079C27.2864 29.5237 26.5196 27.9005 25.7098 26.3346C24.9429 24.7687 24.2119 23.3604 23.5239 22.1062C22.8288 20.8162 22.216 19.7412 21.6785 18.8812C21.3402 18.3131 20.9742 17.7618 20.582 17.2293V17H36.3738Z" fill="#012E33"/>
</svg>
