<svg width="120" height="120" viewBox="0 0 120 120" fill="none" xmlns="http://www.w3.org/2000/svg">
<path d="M57.451 19.41C58.231 18.9765 59.1086 18.7491 60.001 18.7491C60.8933 18.7491 61.771 18.9765 62.551 19.41L94.951 37.5712C96.5297 38.4487 97.501 40.0837 97.501 41.85V78.15C97.501 79.92 96.5297 81.555 94.951 82.4362L62.551 100.586C61.771 101.02 60.8933 101.247 60.001 101.247C59.1086 101.247 58.231 101.02 57.451 100.586L25.051 82.4362C24.282 82.0144 23.64 81.3945 23.1916 80.6408C22.7432 79.887 22.5047 79.027 22.501 78.15V41.8462C22.501 40.08 23.4722 38.445 25.051 37.5637L57.451 19.4137V19.41ZM85.276 71.3062V45.8512L60.0085 60L60.001 88.3162L82.7222 75.5887C83.4906 75.1672 84.1323 74.5479 84.5807 73.7949C85.0291 73.0419 85.2716 72.1826 85.276 71.3062ZM62.551 33.1237C61.7717 32.6879 60.8938 32.459 60.001 32.459C59.1081 32.459 58.2302 32.6879 57.451 33.1237L37.291 44.4225C35.7122 45.3037 34.741 46.935 34.741 48.705V71.3062C34.741 73.0687 35.7122 74.7 37.291 75.5887L47.7722 81.4612V56.5875C47.7767 57.6316 48.063 58.6551 48.601 59.55C48.0364 58.6068 47.7552 57.5211 47.791 56.4225L47.806 56.07L47.881 55.5075L47.9485 55.1925L48.0122 54.96L48.1585 54.5212L48.391 53.9887L48.5222 53.745L48.826 53.2575L49.1785 52.8L49.4935 52.4587L49.7935 52.1775L50.2622 51.8025L50.5285 51.6225L51.031 51.3375L73.0435 39L62.5585 33.1275L62.551 33.1237Z" fill="url(#paint0_linear_36_28127)"/>
<path d="M60.0003 56.58C60.0003 53.2987 57.2628 50.64 53.8841 50.64C52.7545 50.6398 51.6461 50.9471 50.6778 51.5287C50.5766 51.5887 50.4716 51.6525 50.3778 51.7162C50.2203 51.8274 50.0665 51.9437 49.9166 52.065C49.8341 52.14 49.7478 52.2075 49.6691 52.2862L49.4891 52.455L49.2528 52.7062C49.2003 52.7662 49.1478 52.8225 49.1028 52.8862C48.98 53.0384 48.8625 53.1948 48.7503 53.355L48.5928 53.6137C48.4983 53.7724 48.4107 53.935 48.3303 54.1012L48.1953 54.405C48.1647 54.4788 48.1372 54.5539 48.1128 54.63C48.0753 54.7425 48.0378 54.8475 48.0078 54.9562L47.9441 55.1887C47.8882 55.3848 47.8505 55.5857 47.8316 55.7887C47.8241 55.8825 47.8053 55.9762 47.8016 56.0662C47.6893 57.283 47.9692 58.5037 48.6003 59.55C49.7328 61.455 51.7878 62.52 53.9028 62.52C54.9416 62.52 55.9953 62.265 56.9553 61.725L60.0116 60.0112V56.5837L60.0003 56.58Z" fill="#012F8D"/>
<defs>
<linearGradient id="paint0_linear_36_28127" x1="29.3672" y1="80.7686" x2="93.4603" y2="44.8603" gradientUnits="userSpaceOnUse">
<stop stop-color="#0A51C3"/>
<stop offset="1" stop-color="#23A4FB"/>
</linearGradient>
</defs>
</svg>
