<svg width="120" height="120" viewBox="0 0 120 120" fill="none" xmlns="http://www.w3.org/2000/svg">
<path d="M20.001 64.32C20.001 48.728 31.089 37.468 49.281 20.488C46.681 52.02 74.921 53.576 69.373 69.344C65.413 80.604 52.397 77.14 51.013 74.712C51.013 74.712 55.861 76.1 56.553 71.248C57.249 66.396 47.545 63.8 41.313 51.5C30.913 63.452 37.497 87.532 58.113 87.532C77.169 87.532 84.445 67.784 77.689 55.136C77.689 55.136 93.973 57.908 95.361 70.38C96.745 82.856 80.809 104.512 58.981 103.992C37.153 103.472 20.001 87.36 20.001 64.32Z" fill="#3DC8F9"/>
<path d="M83.4094 36.428L58.4614 12C56.3814 35.732 61.9254 45.496 78.0374 49.94C88.9534 52.952 91.2654 54.1 96.0534 61.028C94.7014 51.4 92.9334 45.78 83.4094 36.428Z" fill="#EA0100"/>
<path fill-rule="evenodd" clip-rule="evenodd" d="M48.1318 85.292C50.9678 86.708 54.2998 87.532 58.1118 87.532C77.1678 87.532 84.4438 67.784 77.6878 55.136C77.6878 55.136 93.9718 57.908 95.3598 70.38C95.9838 75.992 93.0998 83.46 87.7518 89.94C73.9198 96.22 58.5918 93.3 48.1318 85.292Z" fill="#1652D8"/>
</svg>
