<svg width="120" height="120" viewBox="0 0 120 120" fill="none" xmlns="http://www.w3.org/2000/svg">
<g clip-path="url(#clip0_36_32621)">
<path d="M59.9588 101.389C82.8253 101.389 101.362 82.8492 101.362 59.9792C101.362 37.1092 82.8253 18.5726 59.9588 18.5726C37.0923 18.5691 18.5557 37.1058 18.5557 59.9792C18.5557 82.8526 37.0923 101.389 59.9588 101.389Z" fill="#E5FFE7"/>
<path d="M78.2646 69.3894C78.2646 69.3894 66.9454 103.731 25.5596 83.1605C25.5596 83.1605 36.8337 101.953 61.004 101.403L93.789 72.0454L78.2646 69.3825V69.3894Z" fill="#8FF793"/>
<path d="M93.338 35.4458C86.6634 27.2253 74.6284 25.2783 65.6506 31.2681C63.3885 32.7805 61.4465 34.7237 59.9355 36.9868C58.4244 39.2498 57.374 41.7883 56.8441 44.4573C56.3142 47.1263 56.3153 49.8736 56.8472 52.5422C57.3791 55.2108 58.4316 57.7485 59.9443 60.0103C61.665 62.5842 62.7874 65.5107 63.2291 68.5751C63.6707 71.6394 63.4205 74.7638 62.4968 77.7188C61.573 80.6738 59.9992 83.3844 57.8908 85.6516C55.7825 87.9188 53.1931 89.6851 50.3129 90.8206C46.5448 92.3385 42.4108 92.7031 38.4352 91.8682C34.4596 91.0333 30.8216 89.0366 27.9824 86.1311C26.8065 84.9295 25.7779 83.592 24.9183 82.1471C12.9456 63.2231 18.1642 38.0845 36.898 25.5688C45.7536 19.5913 56.5819 17.2802 67.1063 19.1216C77.6306 20.9629 87.0311 26.8132 93.3311 35.4423H93.3415L93.338 35.4458Z" fill="#38CF6F"/>
<path d="M100.637 51.9075C100.057 49.1161 99.2078 46.3874 98.1018 43.7597C95.4388 38.088 88.2766 35.5357 82.2972 38.7382C78.2993 40.8892 75.9096 45.2537 76.4491 49.7599C76.5079 50.1991 76.6048 50.7074 76.6981 51.1224C77.5627 53.6539 78.1852 56.3445 78.5138 59.1734C79.3642 66.531 77.9909 73.9746 74.5711 80.5444C71.1512 87.1141 65.8416 92.5087 59.3269 96.0324C55.8755 97.893 52.3238 99.1795 48.7617 99.9092C59.7938 103.015 72.1401 101.77 83.0684 94.4242C96.9467 85.0937 104.067 68.2689 100.657 51.9006H100.647L100.64 51.9109L100.637 51.9075Z" fill="#38CF6F"/>
</g>
<defs>
<clipPath id="clip0_36_32621">
<rect width="83" height="83" fill="white" transform="translate(18.5 18.5)"/>
</clipPath>
</defs>
</svg>
