<svg width="120" height="120" viewBox="0 0 120 120" fill="none" xmlns="http://www.w3.org/2000/svg">
<g clip-path="url(#clip0_37_178)">
<path d="M59.9667 101.219C59.8501 101.217 59.7343 101.239 59.6264 101.283C59.5184 101.327 59.4206 101.393 59.3388 101.476C59.257 101.559 59.193 101.658 59.1507 101.766C59.1083 101.875 59.0884 101.991 59.0923 102.108C59.0879 102.225 59.1074 102.341 59.1496 102.45C59.1917 102.559 59.2557 102.659 59.3375 102.742C59.4193 102.826 59.5173 102.891 59.6255 102.936C59.7337 102.98 59.8498 103.002 59.9667 103C60.0839 103.003 60.2004 102.981 60.309 102.937C60.4176 102.893 60.516 102.827 60.5982 102.743C60.6804 102.66 60.7447 102.56 60.7871 102.451C60.8294 102.342 60.849 102.225 60.8446 102.108C60.8518 101.887 60.774 101.672 60.6273 101.508C60.4805 101.343 60.2761 101.241 60.0563 101.223L59.9667 101.219ZM51.6533 36.2246C53.1881 36.7162 54.465 37.797 55.2034 39.2294C55.9418 40.6619 56.0814 42.3289 55.5914 43.8642L55.337 44.4806L55.2797 44.6239L55.2152 44.8174C54.9643 45.3907 54.8425 45.9641 54.8425 46.6019C54.7171 49.1461 56.5267 51.185 59.0923 51.3104H60.4038C65.0944 51.5003 68.7817 55.5137 68.5953 60.3512C68.409 65.1242 64.4673 68.8795 59.7158 68.6896H59.0923C56.5303 68.7541 54.5272 70.9829 54.6526 73.5916C54.6526 74.0359 54.7171 74.4157 54.8425 74.7992C55.5914 76.1357 56.7775 77.157 58.2825 77.6658C60.97 78.49 63.7184 77.2179 65.0908 74.8637L65.1553 74.7383C66.5958 72.4449 69.3478 71.2982 72.0353 72.1905C75.0955 73.2082 76.9732 76.5837 75.9734 79.9556C75.7447 80.704 75.3706 81.3999 74.8726 82.0035C74.3745 82.6072 73.7624 83.1067 73.0711 83.4735C72.3798 83.8403 71.6229 84.0671 70.8439 84.1411C70.0648 84.215 69.2788 84.1346 68.5308 83.9044C67.1855 83.4566 66.0369 82.5562 65.2808 81.3567L65.2198 81.2312C64.5032 80.0738 63.5608 79.1529 62.1704 78.6835L61.9698 78.619C60.6737 78.1841 59.2668 78.2129 57.9897 78.7005C56.7125 79.1881 55.6444 80.1042 54.9679 81.2922C54.5509 81.9836 53.9975 82.5829 53.3414 83.0536C52.6853 83.5243 51.9403 83.8564 51.1517 84.0298C49.5992 84.3624 47.9782 84.0671 46.6428 83.2083C45.3073 82.3496 44.366 80.9973 44.0244 79.4468C43.2755 76.2002 45.2141 72.8892 48.5287 72.126C48.8772 72.0493 49.2325 72.0073 49.5893 72.0006H49.6538C52.0905 71.7462 53.7783 69.7717 53.6528 67.224C53.6228 66.3358 53.3407 65.4746 52.8394 64.7407C51.9182 63.23 51.4621 61.4815 51.5279 59.7133C51.5693 58.179 52.0223 56.684 52.8394 55.3847C53.3411 54.6859 53.5919 53.7937 53.6528 52.9014C53.7173 50.3572 51.8397 48.3828 49.403 48.1284L49.1522 48.0639C48.7871 48.019 48.4279 47.9349 48.0808 47.8131L47.9016 47.745C46.4176 47.2132 45.1976 46.1267 44.4979 44.7141C43.7983 43.3014 43.6735 41.6726 44.1498 40.1698C44.6275 38.6556 45.684 37.3914 47.0894 36.6525C48.4948 35.9135 50.1351 35.7598 51.6533 36.2246ZM31.6763 72.4521C32.6079 71.5061 33.966 71.137 35.2381 71.4846C36.5102 71.8286 37.5063 72.8427 37.8468 74.1362C38.1872 75.4334 37.8217 76.8166 36.89 77.7662C35.4495 79.2353 33.1168 79.2353 31.6763 77.7662C30.9841 77.0556 30.5968 76.1029 30.5968 75.1109C30.5968 74.119 30.9841 73.1627 31.6763 72.4521ZM84.8708 71.3986C86.1573 71.0761 87.5154 71.4846 88.4255 72.4628C89.3357 73.4447 89.6582 74.8457 89.2748 76.1357C88.8913 77.4258 87.8558 78.4076 86.5658 78.7086C84.5913 79.1673 82.6241 77.9202 82.1583 75.91C81.9296 74.9521 82.0856 73.9428 82.5927 73.0987C83.0999 72.2545 83.9178 71.6465 84.8708 71.3986ZM84.6415 55.6677C85.7667 56.8144 86.3974 58.366 86.3974 59.9892C86.3974 61.6089 85.7667 63.1641 84.6415 64.3107C83.5128 65.4574 81.9898 66.1024 80.3953 66.1024C78.8043 66.1024 77.2778 65.4574 76.1526 64.3107C75.0249 63.1549 74.3938 61.604 74.3938 59.9892C74.3938 58.3744 75.0249 56.8236 76.1526 55.6677C76.7048 55.1012 77.3648 54.6509 78.0938 54.3434C78.8228 54.036 79.6059 53.8776 80.3971 53.8776C81.1882 53.8776 81.9714 54.036 82.7003 54.3434C83.4293 54.6509 84.0893 55.1012 84.6415 55.6677ZM44.3541 56.2518C45.6584 57.9862 45.9558 60.2938 45.1353 62.3112C44.8432 63.0475 44.4074 63.7183 43.8534 64.2844C43.2994 64.8504 42.6382 65.3005 41.9084 65.6084C41.1786 65.9163 40.3948 66.0757 39.6027 66.0775C38.8106 66.0793 38.0261 65.9233 37.2949 65.6187C34.2312 64.3287 32.7799 60.7525 34.0448 57.635C34.4407 56.6498 35.09 55.7868 35.927 55.1336C36.764 54.4804 37.7589 54.0601 38.8107 53.9155C40.9356 53.6288 43.0498 54.5211 44.3541 56.2518ZM85.7237 41.1266C87.0424 41.1266 88.2607 41.8432 88.92 43.0042C89.5793 44.1652 89.5793 45.5986 88.92 46.7596C88.6013 47.3276 88.1374 47.8008 87.5758 48.1308C87.0142 48.4607 86.375 48.6355 85.7237 48.6372C83.6884 48.6372 82.0329 46.9531 82.0329 44.8819C82.0329 42.8072 83.6884 41.1266 85.7237 41.1266ZM34.2742 41.1266C35.5928 41.1266 36.8076 41.8432 37.4669 43.0042C38.1263 44.1652 38.1263 45.5986 37.4669 46.7596C37.1485 47.3271 36.6852 47.8 36.1243 48.1299C35.5634 48.4597 34.9249 48.6348 34.2742 48.6372C32.2353 48.6372 30.5833 46.9531 30.5833 44.8819C30.5833 42.8072 32.2353 41.1266 34.2742 41.1266ZM70.2186 35.8412C73.5332 35.8412 76.2207 38.5788 76.2207 41.9543C76.2207 45.3298 73.5332 48.0639 70.2186 48.0639C66.904 48.0639 64.2201 45.3298 64.2201 41.9543C64.2201 38.5788 66.9076 35.8412 70.2186 35.8412ZM60.8088 33.3902C62.1059 33.0963 63.1487 32.1145 63.5357 30.8173C63.7269 30.1822 63.7487 29.5082 63.5991 28.8621C63.4495 28.2159 63.1337 27.6201 62.6828 27.1337C62.2375 26.6536 61.671 26.3024 61.0429 26.117C60.4149 25.9316 59.7485 25.9189 59.1138 26.0802C57.1538 26.5818 55.9569 28.5885 56.4192 30.5844C56.885 32.5839 58.8379 33.8345 60.8088 33.3902ZM60.8088 93.8625C62.0952 93.5508 63.1164 92.5725 63.4963 91.2825C63.6819 90.6523 63.7013 89.9848 63.5525 89.345C63.4036 88.7051 63.0917 88.1146 62.647 87.6311C62.2077 87.1537 61.6491 86.8021 61.0287 86.6125C60.4083 86.4229 59.7485 86.4022 59.1174 86.5525C58.4754 86.7003 57.8842 87.016 57.4044 87.4675C56.9246 87.919 56.5734 88.4899 56.3869 89.1217C55.9999 90.4153 56.326 91.8236 57.2433 92.8054C58.1213 93.7478 59.4148 94.1563 60.6583 93.8983L60.8123 93.8625H60.8088ZM78.5964 29.5417C78.8952 29.5403 79.1907 29.4797 79.4659 29.3634C79.7411 29.2471 79.9906 29.0775 80.1998 28.8642C80.409 28.651 80.574 28.3984 80.685 28.121C80.7961 27.8437 80.851 27.5471 80.8468 27.2483C80.8468 25.9762 79.847 24.955 78.5964 24.955C78.2977 24.9564 78.0022 25.017 77.7269 25.1332C77.4517 25.2495 77.2023 25.4192 76.9931 25.6324C76.7838 25.8457 76.6189 26.0983 76.5079 26.3756C76.3968 26.653 76.3418 26.9496 76.3461 27.2483C76.3461 28.5204 77.3494 29.5417 78.5964 29.5417ZM41.4014 29.5417C41.7002 29.5403 41.9957 29.4797 42.2709 29.3634C42.5461 29.2471 42.7955 29.0775 43.0048 28.8642C43.214 28.651 43.379 28.3984 43.49 28.121C43.601 27.8437 43.656 27.5471 43.6518 27.2483C43.6518 25.9762 42.6484 24.955 41.4014 24.955C41.1027 24.9564 40.8072 25.017 40.5319 25.1332C40.2567 25.2495 40.0073 25.4192 39.7981 25.6324C39.5888 25.8457 39.4239 26.0983 39.3129 26.3756C39.2018 26.653 39.1468 26.9496 39.1511 27.2483C39.1511 28.5204 40.1508 29.5417 41.4014 29.5417ZM22.8326 57.678C22.5338 57.6794 22.2383 57.74 21.9631 57.8562C21.6879 57.9725 21.4385 58.1422 21.2292 58.3554C21.02 58.5687 20.8551 58.8213 20.744 59.0986C20.633 59.376 20.578 59.6726 20.5823 59.9713C20.5823 61.2398 21.5856 62.2611 22.8326 62.2611C23.4149 62.2587 23.9737 62.0315 24.3924 61.6268C24.811 61.2222 25.0572 60.6714 25.0793 60.0896L25.0829 59.9677C25.0926 59.6676 25.0414 59.3686 24.9323 59.0888C24.8232 58.809 24.6585 58.5542 24.4482 58.3399C24.2378 58.1255 23.9862 57.956 23.7086 57.8416C23.4309 57.7273 23.1329 57.6704 22.8326 57.6744V57.678ZM41.4014 90.3938C41.1027 90.3952 40.8072 90.4558 40.5319 90.5721C40.2567 90.6884 40.0073 90.858 39.7981 91.0713C39.5888 91.2845 39.4239 91.5371 39.3129 91.8145C39.2018 92.0918 39.1468 92.3884 39.1511 92.6872C39.1511 93.9593 40.1508 94.9805 41.4014 94.9805C41.7002 94.9791 41.9957 94.9185 42.2709 94.8022C42.5461 94.686 42.7955 94.5163 43.0048 94.3031C43.214 94.0898 43.379 93.8372 43.49 93.5599C43.601 93.2825 43.656 92.9859 43.6518 92.6872C43.6518 91.4151 42.6484 90.3938 41.4014 90.3938ZM78.5964 90.4583C78.2977 90.4597 78.0022 90.5203 77.7269 90.6366C77.4517 90.7529 77.2023 90.9225 76.9931 91.1358C76.7838 91.349 76.6189 91.6016 76.5079 91.879C76.3968 92.1563 76.3418 92.4529 76.3461 92.7517C76.3461 94.0238 77.3494 95.045 78.5964 95.045C78.8952 95.0436 79.1907 94.983 79.4659 94.8667C79.7411 94.7505 79.9906 94.5808 80.1998 94.3676C80.409 94.1543 80.574 93.9017 80.685 93.6244C80.7961 93.347 80.851 93.0504 80.8468 92.7517C80.8468 91.4796 79.847 90.4583 78.5964 90.4583ZM97.1653 57.678C96.8665 57.6794 96.571 57.74 96.2958 57.8562C96.0206 57.9725 95.7711 58.1422 95.5619 58.3554C95.3527 58.5687 95.1877 58.8213 95.0767 59.0986C94.9656 59.376 94.9107 59.6726 94.9149 59.9713C94.9149 61.2398 95.9147 62.2611 97.1653 62.2611C97.464 62.2597 97.7595 62.1991 98.0348 62.0828C98.31 61.9666 98.5594 61.7969 98.7686 61.5836C98.9779 61.3704 99.1428 61.1178 99.2538 60.8404C99.3649 60.5631 99.4199 60.2665 99.4156 59.9677C99.4156 58.6957 98.4123 57.6744 97.1653 57.6744V57.678ZM95.7893 39.79C95.9062 39.792 96.0223 39.7702 96.1304 39.7258C96.2386 39.6815 96.3366 39.6155 96.4185 39.532C96.5003 39.4485 96.5642 39.3492 96.6064 39.2402C96.6485 39.1311 96.668 39.0146 96.6636 38.8977C96.668 38.7809 96.6485 38.6644 96.6064 38.5553C96.5642 38.4463 96.5003 38.347 96.4185 38.2635C96.3366 38.1799 96.2386 38.114 96.1304 38.0696C96.0223 38.0253 95.9062 38.0035 95.7893 38.0055C95.6724 38.0035 95.5563 38.0253 95.4481 38.0696C95.3399 38.114 95.2419 38.1799 95.1601 38.2635C95.0782 38.347 95.0143 38.4463 94.9722 38.5553C94.93 38.6644 94.9105 38.7809 94.9149 38.8977C94.9149 39.4066 95.3521 39.79 95.7893 39.79ZM59.9667 18.7809C60.0836 18.7834 60.1997 18.7621 60.3081 18.7181C60.4165 18.6742 60.5147 18.6087 60.5969 18.5255C60.679 18.4423 60.7434 18.3433 60.786 18.2344C60.8286 18.1255 60.8485 18.0091 60.8446 17.8922C60.849 17.7748 60.8294 17.6577 60.7868 17.5481C60.7442 17.4386 60.6796 17.3389 60.597 17.2553C60.5144 17.1717 60.4155 17.1059 60.3065 17.062C60.1975 17.0181 60.0806 16.997 59.9631 17C59.8462 16.998 59.7301 17.0198 59.6219 17.0641C59.5137 17.1085 59.4157 17.1744 59.3339 17.258C59.2521 17.3415 59.1881 17.4408 59.146 17.5498C59.1038 17.6589 59.0844 17.7754 59.0888 17.8922C59.0888 18.3688 59.4758 18.7379 59.8878 18.7773L59.9631 18.7809H59.9667ZM24.205 39.79C24.3222 39.7925 24.4387 39.7711 24.5473 39.7269C24.6559 39.6828 24.7543 39.6169 24.8366 39.5334C24.9188 39.4498 24.983 39.3503 25.0254 39.241C25.0678 39.1317 25.0874 39.0149 25.0829 38.8977C25.0873 38.7809 25.0679 38.6644 25.0257 38.5553C24.9836 38.4463 24.9196 38.347 24.8378 38.2635C24.756 38.1799 24.658 38.114 24.5498 38.0696C24.4416 38.0253 24.3255 38.0035 24.2086 38.0055C24.0917 38.0035 23.9756 38.0253 23.8674 38.0696C23.7592 38.114 23.6612 38.1799 23.5794 38.2635C23.4976 38.347 23.4336 38.4463 23.3915 38.5553C23.3493 38.6644 23.3299 38.7809 23.3343 38.8977C23.3299 39.0146 23.3493 39.1311 23.3915 39.2402C23.4336 39.3492 23.4976 39.4485 23.5794 39.532C23.6612 39.6155 23.7592 39.6815 23.8674 39.7258C23.9756 39.7702 24.0917 39.792 24.2086 39.79H24.205ZM24.205 80.1491C24.0887 80.1476 23.9733 80.1697 23.8658 80.214C23.7583 80.2584 23.6609 80.3241 23.5795 80.4071C23.4981 80.4902 23.4344 80.5889 23.3923 80.6973C23.3501 80.8057 23.3304 80.9215 23.3343 81.0378C23.3299 81.1546 23.3493 81.2711 23.3915 81.3802C23.4336 81.4892 23.4976 81.5885 23.5794 81.672C23.6612 81.7556 23.7592 81.8215 23.8674 81.8659C23.9756 81.9102 24.0917 81.932 24.2086 81.93C24.3255 81.932 24.4416 81.9102 24.5498 81.8659C24.658 81.8215 24.756 81.7556 24.8378 81.672C24.9196 81.5885 24.9836 81.4892 25.0257 81.3802C25.0679 81.2711 25.0873 81.1546 25.0829 81.0378C25.0794 80.8056 24.9865 80.5838 24.8237 80.4183C24.6609 80.2528 24.4406 80.1564 24.2086 80.1491H24.205ZM95.8538 80.0846C95.7369 80.0821 95.6207 80.1034 95.5124 80.1474C95.404 80.1913 95.3057 80.2568 95.2236 80.34C95.1414 80.4232 95.0771 80.5222 95.0345 80.6311C94.9919 80.74 94.9719 80.8564 94.9758 80.9733C94.9709 81.0907 94.9901 81.2079 95.0323 81.3176C95.0744 81.4274 95.1386 81.5273 95.2209 81.6112C95.3031 81.6952 95.4017 81.7614 95.5106 81.8057C95.6195 81.8501 95.7363 81.8716 95.8538 81.8691C95.971 81.8711 96.0874 81.8492 96.1958 81.8046C96.3042 81.7601 96.4024 81.6938 96.4843 81.6099C96.5662 81.526 96.6301 81.4262 96.672 81.3168C96.7139 81.2073 96.733 81.0904 96.7281 80.9733C96.7245 80.7411 96.6317 80.5193 96.4689 80.3538C96.3061 80.1883 96.0858 80.0919 95.8538 80.0846Z" fill="#3859FF"/>
</g>
<defs>
<clipPath id="clip0_37_178">
<rect width="86" height="86" fill="white" transform="translate(17 17)"/>
</clipPath>
</defs>
</svg>
