<?xml version="1.0" encoding="UTF-8"?>
<svg id="_图层_2" data-name="图层_2" xmlns="http://www.w3.org/2000/svg" viewBox="0 0 198.45 66.73">
  <defs>
    <style>
      .cls-1 {
        fill: #ea5e5d;
      }

      .cls-2 {
        fill: #23af69;
      }

      .cls-3 {
        fill: #ea5756;
      }
    </style>
  </defs>
  <g id="_图层_1-2" data-name="图层_1">
    <g>
      <g>
        <g>
          <path class="cls-1" d="M16.72,51.21c-4.45,0-8.64-1.78-11.81-5.01-3.17-3.23-4.91-7.51-4.91-12.04s1.74-8.81,4.91-12.04,7.36-5.01,11.81-5.01,8.71,1.82,11.82,4.99c2.32,2.36,2.32,6.2,0,8.56-2.32,2.36-6.08,2.36-8.4,0-.9-.92-2.15-1.45-3.43-1.45-2.63,0-4.85,2.26-4.85,4.94s2.22,4.94,4.85,4.94c1.28,0,2.52-.53,3.43-1.45,2.32-2.36,6.08-2.36,8.4,0,2.32,2.36,2.32,6.2,0,8.56-3.11,3.17-7.42,4.99-11.82,4.99Z"/>
          <path class="cls-1" d="M32.05,66.73c-4.45,0-8.64-1.78-11.81-5.01s-4.91-7.51-4.91-12.04,1.79-8.88,4.9-12.06c2.32-2.36,6.08-2.36,8.4,0,2.32,2.36,2.32,6.2,0,8.56-.9.92-1.42,2.19-1.42,3.49,0,2.68,2.22,4.94,4.85,4.94s4.85-2.26,4.85-4.94c0-.95-.23-2.31-1.32-3.43-3.13-3.19-4.92-7.6-4.92-12.09s1.74-8.81,4.91-12.04,7.36-5.01,11.81-5.01,8.64,1.78,11.81,5.01,4.91,7.51,4.91,12.04-1.79,8.88-4.9,12.06c-2.32,2.36-6.08,2.36-8.4,0-2.32-2.36-2.32-6.2,0-8.56.9-.92,1.42-2.19,1.42-3.49,0-2.68-2.22-4.94-4.85-4.94s-4.85,2.26-4.85,4.94c0,1.31.53,2.6,1.45,3.53,3.1,3.16,4.8,7.42,4.8,11.99s-1.74,8.81-4.91,12.04c-3.17,3.23-7.36,5.01-11.81,5.01Z"/>
        </g>
        <path class="cls-2" d="M32.05,19.09l-9.72-9.12c-1.5-1.4-1.57-3.75-.17-5.25,1.4-1.49,3.75-1.57,5.25-.17l3.89,3.65,5.53-6.83c1.29-1.59,3.63-1.84,5.22-.55,1.59,1.29,1.84,3.63.55,5.22l-10.56,13.05Z"/>
      </g>
      <g>
        <path class="cls-3" d="M93.93,24.6l.55-.39c.69-.4,1.17-.61,1.46-.61.63,0,1.3.57,2.03,1.7.44.71.67,1.27.67,1.7s-.14.78-.41,1.06c-.27.28-.59.54-.96.76-.36.22-.71.43-1.05.64-.33.2-1.02.47-2.05.79-1.03.32-2.03.49-2.99.49s-1.93-.13-2.91-.38c-.98-.25-1.99-.68-3.03-1.27-1.04-.6-1.98-1.32-2.81-2.18-.83-.86-1.51-1.96-2.05-3.31-.54-1.35-.8-2.81-.8-4.38s.26-3.01.79-4.29c.53-1.28,1.2-2.35,2.02-3.19.82-.84,1.75-1.54,2.81-2.11,1.98-1.09,3.97-1.64,5.98-1.64.95,0,1.92.15,2.9.44.98.29,1.72.59,2.23.9l.73.42c.36.22.65.4.85.55.53.42.79.91.79,1.44s-.21,1.1-.64,1.68c-.79,1.09-1.5,1.64-2.12,1.64-.36,0-.88-.22-1.55-.67-.85-.69-1.98-1.03-3.4-1.03-1.31,0-2.61.46-3.88,1.36-.61.44-1.11,1.07-1.52,1.88-.4.81-.61,1.72-.61,2.75s.2,1.94.61,2.75c.4.81.92,1.45,1.55,1.91,1.23.89,2.52,1.34,3.85,1.34.63,0,1.22-.08,1.77-.24.56-.16.96-.32,1.2-.49Z"/>
        <path class="cls-3" d="M114.38,9.07c.16-.3.43-.52.82-.64.38-.12.87-.18,1.46-.18s1.05.05,1.4.15c.34.1.61.22.79.36.18.14.32.34.42.61.1.34.15.87.15,1.58v16.84c0,.47-.02.81-.05,1.05-.03.23-.13.5-.29.8-.28.55-1.07.82-2.37.82-1.42,0-2.25-.37-2.49-1.12-.12-.34-.18-.87-.18-1.58v-6.16h-8.04v6.19c0,.47-.02.81-.05,1.05-.03.23-.13.5-.29.8-.28.55-1.07.82-2.37.82-1.42,0-2.25-.37-2.49-1.12-.12-.34-.18-.87-.18-1.58V10.92c0-.46.02-.81.05-1.05.03-.23.13-.5.29-.8.28-.55,1.07-.82,2.37-.82,1.42,0,2.25.37,2.52,1.12.1.34.15.87.15,1.58v6.19h8.04v-6.22c0-.46.02-.81.05-1.05.03-.23.13-.5.29-.8Z"/>
        <path class="cls-3" d="M127.21,25.1h9.34c.47,0,.81.02,1.05.05.23.03.5.13.8.29.55.28.82,1.07.82,2.37,0,1.42-.37,2.25-1.12,2.49-.34.12-.87.18-1.58.18h-12.01c-1.42,0-2.25-.38-2.49-1.15-.12-.32-.18-.84-.18-1.55V10.9c0-1.03.19-1.73.58-2.11.38-.37,1.11-.56,2.18-.56h11.95c.47,0,.81.02,1.05.05.23.03.5.13.8.29.55.28.82,1.07.82,2.37,0,1.42-.37,2.25-1.12,2.49-.34.12-.87.18-1.58.18h-9.31v3.06h6.01c.46,0,.81.02,1.05.05.23.03.5.13.8.29.55.28.82,1.07.82,2.37,0,1.42-.38,2.25-1.15,2.49-.34.12-.87.18-1.58.18h-5.95v3.06Z"/>
        <path class="cls-3" d="M196.96,8.79c.99.69,1.49,1.35,1.49,2,0,.38-.23.92-.7,1.61l-6.55,9.8v5.79c0,.47-.02.81-.05,1.05-.03.23-.13.5-.29.8-.16.3-.43.52-.82.64-.38.12-.9.18-1.55.18s-1.16-.06-1.55-.18c-.38-.12-.66-.34-.82-.65-.16-.31-.26-.59-.29-.82-.03-.23-.05-.59-.05-1.08v-5.73l-6.55-9.8c-.47-.69-.7-1.22-.7-1.61,0-.65.44-1.27,1.33-1.87.89-.6,1.53-.9,1.91-.9s.69.08.91.24c.34.22.71.64,1.09,1.24l4.7,7.52,4.7-7.52c.38-.61.72-1.01,1-1.2s.61-.29.99-.29.97.25,1.77.76Z"/>
        <g>
          <path class="cls-3" d="M81.93,56.63c-.53-.65-.79-1.23-.79-1.74s.43-1.2,1.3-2.05c.51-.49,1.04-.73,1.61-.73s1.36.51,2.37,1.52c.28.34.69.67,1.21.99.53.31,1.01.47,1.46.47,1.88,0,2.82-.77,2.82-2.31,0-.46-.26-.85-.77-1.17-.52-.31-1.16-.54-1.93-.68-.77-.14-1.6-.37-2.49-.68-.89-.31-1.72-.68-2.49-1.11-.77-.42-1.41-1.1-1.93-2.02-.52-.92-.77-2.03-.77-3.32,0-1.78.66-3.33,1.99-4.66s3.13-1.99,5.42-1.99c1.21,0,2.32.16,3.32.47,1,.31,1.69.63,2.08.96l.76.58c.63.59.94,1.08.94,1.49s-.24.96-.73,1.67c-.69,1.01-1.4,1.52-2.12,1.52-.42,0-.95-.2-1.58-.61-.06-.04-.18-.14-.35-.3-.17-.16-.33-.29-.47-.39-.42-.26-.97-.39-1.62-.39s-1.2.16-1.64.47c-.43.31-.65.75-.65,1.3s.26,1.01.77,1.35c.52.34,1.16.58,1.93.7.77.12,1.61.31,2.52.56.91.25,1.75.56,2.52.93.77.36,1.41,1,1.93,1.9.52.9.77,2.01.77,3.32s-.26,2.47-.79,3.47c-.53,1-1.21,1.77-2.06,2.32-1.64,1.07-3.39,1.61-5.25,1.61-.95,0-1.85-.12-2.7-.35-.85-.23-1.54-.52-2.06-.86-1.07-.65-1.82-1.27-2.24-1.88l-.27-.33Z"/>
          <path class="cls-3" d="M100.74,37.49h16.87c.65,0,1.12.08,1.43.23.3.15.51.39.61.71.1.32.15.75.15,1.27s-.05.95-.15,1.26c-.1.31-.27.53-.52.65-.36.18-.88.27-1.55.27h-5.79v15.26c0,.47-.02.81-.05,1.03s-.12.48-.27.77c-.15.29-.42.5-.8.62-.38.12-.89.18-1.52.18s-1.13-.06-1.5-.18c-.37-.12-.64-.33-.79-.62-.15-.29-.24-.56-.27-.79-.03-.23-.05-.58-.05-1.05v-15.23h-5.82c-.65,0-1.12-.08-1.43-.23-.3-.15-.51-.39-.61-.71-.1-.32-.15-.75-.15-1.27s.05-.95.15-1.26c.1-.31.27-.53.52-.65.36-.18.88-.27,1.55-.27Z"/>
          <path class="cls-3" d="M135.99,38.34c.2-.32.5-.55.88-.67.38-.12.86-.18,1.44-.18s1.04.05,1.38.15c.34.1.61.22.79.36.18.14.31.35.39.64.12.34.18.87.18,1.58v9.16c0,2.67-.83,5.1-2.49,7.28-.81,1.03-1.85,1.87-3.12,2.5s-2.68.96-4.23.96-2.95-.32-4.22-.97c-1.26-.65-2.29-1.5-3.08-2.55-1.64-2.14-2.46-4.57-2.46-7.28v-9.13c0-.49.02-.84.05-1.08.03-.23.13-.5.29-.8.16-.3.43-.52.82-.64.38-.12.9-.18,1.55-.18s1.16.06,1.55.18c.38.12.65.33.79.64.24.47.36,1.1.36,1.91v9.1c0,1.23.3,2.41.91,3.52.3.57.76,1.02,1.37,1.36.61.34,1.32.52,2.15.52,1.48,0,2.58-.55,3.31-1.64.73-1.09,1.09-2.36,1.09-3.79v-9.28c0-.79.1-1.34.3-1.67Z"/>
          <path class="cls-3" d="M146.18,37.49l5.61.03c2.93,0,5.51,1.06,7.74,3.17,2.22,2.11,3.34,4.71,3.34,7.8s-1.09,5.73-3.26,7.93c-2.17,2.2-4.81,3.31-7.9,3.31h-5.55c-1.23,0-2-.25-2.31-.76-.24-.42-.36-1.07-.36-1.94v-16.87c0-.49.02-.84.05-1.06s.13-.49.29-.79c.28-.55,1.07-.82,2.37-.82ZM151.79,54.35c1.46,0,2.77-.54,3.94-1.62,1.17-1.08,1.76-2.44,1.76-4.08s-.57-3.01-1.71-4.11c-1.14-1.1-2.48-1.65-4.02-1.65h-2.91v11.47h2.94Z"/>
          <path class="cls-3" d="M164.84,40.19c0-.46.02-.81.05-1.05.03-.23.13-.5.29-.8.28-.55,1.07-.82,2.37-.82,1.42,0,2.25.37,2.52,1.12.1.34.15.87.15,1.58v16.87c0,.49-.02.84-.05,1.06s-.13.49-.29.79c-.28.55-1.07.82-2.37.82-1.42,0-2.25-.38-2.49-1.15-.12-.32-.18-.84-.18-1.55v-16.87Z"/>
          <path class="cls-3" d="M183.07,37.24c2.99,0,5.59,1.08,7.8,3.25,2.2,2.16,3.31,4.85,3.31,8.05s-1.05,5.94-3.16,8.19c-2.1,2.26-4.69,3.38-7.77,3.38s-5.69-1.11-7.84-3.34c-2.15-2.22-3.23-4.87-3.23-7.95,0-1.68.3-3.25.91-4.72.61-1.47,1.42-2.7,2.43-3.69,1.01-.99,2.17-1.77,3.49-2.34,1.31-.57,2.67-.85,4.07-.85ZM177.55,48.68c0,1.8.58,3.26,1.74,4.38,1.16,1.12,2.46,1.68,3.9,1.68s2.73-.55,3.88-1.64c1.15-1.09,1.73-2.56,1.73-4.4s-.58-3.32-1.74-4.43c-1.16-1.11-2.46-1.67-3.9-1.67s-2.73.56-3.88,1.68c-1.15,1.12-1.73,2.58-1.73,4.38Z"/>
        </g>
        <g>
          <path class="cls-3" d="M176.92,11.06c-.03-.23-.13-.5-.29-.8-.28-.55-1.07-.82-2.37-.82h-6.55c-1.78,0-3.51.65-5.19,1.94-.81.63-1.48,1.48-2,2.55-.53,1.07-.79,2.27-.79,3.58,0,2.29.76,4.17,2.28,5.64-.44,1.07-1.13,2.66-2.06,4.76-.3.73-.45,1.25-.45,1.58,0,.77.63,1.42,1.88,1.94.65.28,1.17.43,1.56.43s.72-.1.97-.29c.25-.19.44-.39.56-.59.2-.38.99-2.21,2.37-5.49l.94.06h3.82v3.43c0,.47.02.81.05,1.05.03.23.13.5.29.8.28.55,1.07.82,2.37.82,1.42,0,2.25-.37,2.49-1.12.12-.34.18-.87.18-1.58V12.11c0-.46-.02-.81-.05-1.05ZM172.81,19.44c-.09.14-.48.77-1.24.91-.2.04-.37.03-.48.02-.02.14-.04.26-.06.38-.16.83-.38,1.05-.57,1.07-.29.05-.51-.35-.93-.9-.23.01-.46.02-.69.02-.51,0-1.01-.03-1.49-.09-.25-.03-.5-.07-.74-.11-1.18-.32-2.03-1.27-2.03-2.4v-1.37c0-1.13.86-2.08,2.03-2.4.24-.04.49-.08.74-.11.48-.06.98-.09,1.49-.09s1.01.03,1.49.09c.25.03.5.07.74.11.6.16,1.12.49,1.49.93.34.41.55.92.55,1.47v1.37c0,.23-.01.66-.29,1.1Z"/>
          <circle class="cls-2" cx="167.24" cy="17.67" r=".49"/>
          <circle class="cls-2" cx="168.88" cy="17.71" r=".49"/>
          <circle class="cls-2" cx="170.59" cy="17.71" r=".49"/>
        </g>
        <g>
          <path class="cls-3" d="M141.01,8.24c.03-.23.13-.5.29-.8.28-.55,1.07-.82,2.37-.82h6.55c1.78,0,3.51.65,5.19,1.94.81.63,1.48,1.48,2,2.55.53,1.07.79,2.27.79,3.58,0,2.29-.76,4.17-2.28,5.64.44,1.07,1.13,2.66,2.06,4.76.3.73.45,1.25.45,1.58,0,.77-.63,1.42-1.88,1.94-.65.28-1.17.43-1.56.43s-.72-.1-.97-.29c-.25-.19-.44-.39-.56-.59-.2-.38-.99-2.21-2.37-5.49l-.94.06h-3.82v3.43c0,.47-.02.81-.05,1.05-.03.23-.13.5-.29.8-.28.55-1.07.82-2.37.82-1.42,0-2.25-.37-2.49-1.12-.12-.34-.18-.87-.18-1.58V9.28c0-.46.02-.81.05-1.05ZM145.12,16.62c.09.14.48.77,1.24.91.2.04.37.03.48.02.02.14.04.26.06.38.16.83.38,1.05.57,1.07.29.05.51-.35.93-.9.23.01.46.02.69.02.51,0,1.01-.03,1.49-.09.25-.03.5-.07.74-.11,1.18-.32,2.03-1.27,2.03-2.4v-1.37c0-1.13-.86-2.08-2.03-2.4-.24-.04-.49-.08-.74-.11-.48-.06-.98-.09-1.49-.09s-1.01.03-1.49.09c-.25.03-.5.07-.74.11-.6.16-1.12.49-1.49.93-.34.41-.55.92-.55,1.47v1.37c0,.23.01.66.29,1.1Z"/>
          <circle class="cls-2" cx="150.69" cy="14.84" r=".49"/>
          <circle class="cls-2" cx="149.05" cy="14.89" r=".49"/>
          <circle class="cls-2" cx="147.35" cy="14.89" r=".49"/>
        </g>
      </g>
    </g>
  </g>
</svg>