<?xml version="1.0" encoding="UTF-8"?>
<svg id="_图层_2" data-name="图层_2" xmlns="http://www.w3.org/2000/svg" viewBox="0 0 84.39 115.44">
  <defs>
    <style>
      .cls-1 {
        fill: #ea5e5d;
      }

      .cls-2 {
        fill: #23af69;
      }

      .cls-3 {
        fill: #ea5756;
      }
    </style>
  </defs>
  <g id="_图层_1-2" data-name="图层_1">
    <g>
      <g>
        <g>
          <path class="cls-1" d="M25.31,51.21c-4.45,0-8.64-1.78-11.81-5.01-3.17-3.23-4.91-7.51-4.91-12.04s1.74-8.81,4.91-12.04,7.36-5.01,11.81-5.01,8.71,1.82,11.82,4.99c2.32,2.36,2.32,6.2,0,8.56-2.32,2.36-6.08,2.36-8.4,0-.9-.92-2.15-1.45-3.43-1.45-2.63,0-4.85,2.26-4.85,4.94s2.22,4.94,4.85,4.94c1.28,0,2.52-.53,3.43-1.45,2.32-2.36,6.08-2.36,8.4,0,2.32,2.36,2.32,6.2,0,8.56-3.11,3.17-7.42,4.99-11.82,4.99Z"/>
          <path class="cls-1" d="M40.64,66.73c-4.45,0-8.64-1.78-11.81-5.01s-4.91-7.51-4.91-12.04,1.79-8.88,4.9-12.06c2.32-2.36,6.08-2.36,8.4,0,2.32,2.36,2.32,6.2,0,8.56-.9.92-1.42,2.19-1.42,3.49,0,2.68,2.22,4.94,4.85,4.94s4.85-2.26,4.85-4.94c0-.95-.23-2.31-1.32-3.43-3.13-3.19-4.92-7.6-4.92-12.09s1.74-8.81,4.91-12.04c3.17-3.23,7.36-5.01,11.81-5.01s8.64,1.78,11.81,5.01,4.91,7.51,4.91,12.04-1.79,8.88-4.9,12.06c-2.32,2.36-6.08,2.36-8.4,0-2.32-2.36-2.32-6.2,0-8.56.9-.92,1.42-2.19,1.42-3.49,0-2.68-2.22-4.94-4.85-4.94s-4.85,2.26-4.85,4.94c0,1.31.53,2.6,1.45,3.53,3.1,3.16,4.8,7.42,4.8,11.99s-1.74,8.81-4.91,12.04c-3.17,3.23-7.36,5.01-11.81,5.01Z"/>
        </g>
        <path class="cls-2" d="M40.64,19.09l-9.72-9.12c-1.5-1.4-1.57-3.75-.17-5.25,1.4-1.49,3.75-1.57,5.25-.17l3.89,3.65,5.53-6.83c1.29-1.59,3.63-1.84,5.22-.55,1.59,1.29,1.84,3.63.55,5.22l-10.56,13.05Z"/>
      </g>
      <g>
        <path class="cls-3" d="M10.19,90.22l.39-.28c.49-.29.83-.43,1.03-.43.45,0,.93.4,1.44,1.21.32.5.47.9.47,1.21s-.1.55-.29.75c-.19.2-.42.38-.68.54-.26.16-.51.31-.74.45-.24.14-.72.33-1.45.56-.73.23-1.44.34-2.12.34s-1.37-.09-2.07-.27c-.7-.18-1.41-.48-2.15-.9-.74-.42-1.4-.94-1.99-1.55-.59-.61-1.07-1.39-1.45-2.35-.38-.96-.57-1.99-.57-3.11s.19-2.14.56-3.05c.37-.91.85-1.67,1.43-2.26.58-.6,1.25-1.09,1.99-1.5,1.41-.78,2.82-1.16,4.24-1.16.67,0,1.36.1,2.06.31.7.21,1.22.42,1.58.64l.52.3c.26.16.46.29.6.39.37.3.56.64.56,1.02s-.15.78-.45,1.2c-.56.78-1.06,1.16-1.51,1.16-.26,0-.62-.16-1.1-.47-.6-.49-1.41-.73-2.41-.73-.93,0-1.85.32-2.76.97-.43.32-.79.76-1.08,1.34-.29.57-.43,1.22-.43,1.95s.14,1.37.43,1.95c.29.57.65,1.03,1.1,1.36.88.63,1.79.95,2.74.95.45,0,.87-.06,1.26-.17.39-.11.68-.23.85-.34Z"/>
        <path class="cls-3" d="M24.7,79.2c.11-.22.31-.37.58-.45.27-.09.62-.13,1.03-.13s.75.04.99.11c.24.07.43.16.56.26.13.1.23.24.3.43.07.24.11.62.11,1.12v11.95c0,.33-.01.58-.03.74-.02.17-.09.36-.2.57-.2.39-.76.58-1.68.58-1.01,0-1.59-.27-1.77-.8-.09-.24-.13-.62-.13-1.12v-4.37h-5.71v4.39c0,.33-.01.58-.03.74-.02.17-.09.36-.2.57-.2.39-.76.58-1.68.58-1.01,0-1.59-.27-1.77-.8-.09-.24-.13-.62-.13-1.12v-11.95c0-.33.01-.58.03-.74.02-.17.09-.36.2-.57.2-.39.76-.58,1.68-.58,1.01,0,1.6.27,1.79.8.07.24.11.62.11,1.12v4.39h5.71v-4.42c0-.33.01-.58.03-.74.02-.17.09-.36.2-.57Z"/>
        <path class="cls-3" d="M33.82,90.58h6.63c.33,0,.58.01.74.03.17.02.36.09.57.2.39.2.58.76.58,1.68,0,1.01-.27,1.59-.8,1.77-.24.09-.62.13-1.12.13h-8.53c-1.01,0-1.59-.27-1.77-.82-.09-.23-.13-.6-.13-1.1v-11.98c0-.73.14-1.23.41-1.5.27-.27.79-.4,1.55-.4h8.49c.33,0,.58.01.74.03.17.02.36.09.57.2.39.2.58.76.58,1.68,0,1.01-.27,1.59-.8,1.77-.24.09-.62.13-1.12.13h-6.61v2.18h4.26c.33,0,.58.01.74.03.17.02.36.09.57.2.39.2.58.76.58,1.68,0,1.01-.27,1.59-.82,1.77-.24.09-.62.13-1.12.13h-4.22v2.18Z"/>
        <path class="cls-3" d="M83.34,79c.7.49,1.06.96,1.06,1.42,0,.27-.17.65-.5,1.14l-4.65,6.96v4.11c0,.33-.01.58-.03.74-.02.17-.09.36-.2.57-.11.22-.31.37-.58.45-.27.09-.64.13-1.1.13s-.83-.04-1.1-.13c-.27-.09-.47-.24-.58-.46-.11-.22-.18-.42-.2-.58-.02-.17-.03-.42-.03-.76v-4.07l-4.65-6.96c-.33-.49-.5-.87-.5-1.14,0-.46.32-.9.95-1.32.63-.42,1.08-.64,1.36-.64s.49.06.65.17c.24.16.5.45.78.88l3.34,5.34,3.34-5.34c.27-.43.51-.71.71-.85s.43-.2.7-.2.69.18,1.26.54Z"/>
        <g>
          <path class="cls-3" d="M1.66,112.96c-.37-.46-.56-.87-.56-1.24s.31-.85.93-1.45c.36-.34.74-.52,1.14-.52s.96.36,1.68,1.08c.2.24.49.48.86.7.37.22.72.33,1.03.33,1.34,0,2-.55,2-1.64,0-.33-.18-.61-.55-.83-.37-.22-.82-.38-1.37-.48-.55-.1-1.13-.26-1.77-.48-.63-.22-1.22-.48-1.77-.79-.55-.3-1-.78-1.37-1.43-.37-.65-.55-1.44-.55-2.36,0-1.26.47-2.37,1.41-3.31s2.22-1.41,3.84-1.41c.86,0,1.65.11,2.36.33.71.22,1.2.45,1.48.68l.54.41c.45.42.67.77.67,1.06s-.17.68-.52,1.18c-.49.72-.99,1.08-1.51,1.08-.3,0-.67-.14-1.12-.43-.04-.03-.13-.1-.25-.22-.12-.11-.23-.21-.33-.28-.3-.19-.69-.28-1.15-.28s-.85.11-1.16.33c-.31.22-.46.53-.46.93s.18.71.55.96c.37.24.82.41,1.37.5.55.09,1.14.22,1.79.4.65.18,1.24.4,1.79.66.55.26,1,.71,1.37,1.35.37.64.55,1.42.55,2.36s-.19,1.76-.56,2.47c-.37.71-.86,1.26-1.46,1.65-1.16.76-2.4,1.14-3.73,1.14-.68,0-1.31-.08-1.92-.25-.6-.17-1.09-.37-1.46-.61-.76-.46-1.29-.9-1.59-1.34l-.19-.24Z"/>
          <path class="cls-3" d="M15.02,99.37h11.98c.46,0,.8.05,1.01.16.22.11.36.28.43.51.07.23.11.53.11.9s-.04.67-.11.89c-.07.22-.19.38-.37.46-.26.13-.62.19-1.1.19h-4.11v10.83c0,.33-.01.57-.03.73s-.09.34-.19.55c-.11.21-.3.36-.57.44-.27.09-.63.13-1.08.13s-.8-.04-1.07-.13c-.27-.09-.45-.23-.56-.44-.11-.21-.17-.4-.19-.56-.02-.17-.03-.41-.03-.74v-10.81h-4.14c-.46,0-.8-.05-1.01-.16-.22-.11-.36-.28-.43-.51-.07-.23-.11-.53-.11-.9s.04-.67.11-.89c.07-.22.19-.38.37-.46.26-.13.62-.19,1.1-.19Z"/>
          <path class="cls-3" d="M40.05,99.98c.14-.23.35-.39.62-.47.27-.09.61-.13,1.02-.13s.74.04.98.11c.24.07.43.16.56.26.13.1.22.25.28.45.09.24.13.62.13,1.12v6.5c0,1.9-.59,3.62-1.77,5.17-.57.73-1.31,1.32-2.22,1.78s-1.91.68-3,.68-2.1-.23-2.99-.69c-.9-.46-1.63-1.06-2.19-1.81-1.16-1.52-1.74-3.25-1.74-5.17v-6.48c0-.34.01-.6.03-.76.02-.17.09-.36.2-.57.11-.22.31-.37.58-.45.27-.09.64-.13,1.1-.13s.83.04,1.1.13c.27.09.46.24.56.45.17.33.26.78.26,1.36v6.46c0,.88.22,1.71.65,2.5.22.4.54.72.97.97.43.24.94.37,1.53.37,1.05,0,1.83-.39,2.35-1.16.52-.78.78-1.67.78-2.69v-6.59c0-.56.07-.95.22-1.18Z"/>
          <path class="cls-3" d="M47.28,99.37l3.98.02c2.08,0,3.91.75,5.49,2.25,1.58,1.5,2.37,3.35,2.37,5.54s-.77,4.07-2.32,5.63c-1.54,1.57-3.41,2.35-5.61,2.35h-3.94c-.88,0-1.42-.18-1.64-.54-.17-.3-.26-.76-.26-1.38v-11.98c0-.34.01-.6.03-.75s.09-.34.2-.56c.2-.39.76-.58,1.68-.58ZM51.27,111.35c1.03,0,1.97-.38,2.8-1.15.83-.77,1.25-1.73,1.25-2.9s-.41-2.14-1.22-2.92c-.81-.78-1.76-1.17-2.85-1.17h-2.07v8.14h2.09Z"/>
          <path class="cls-3" d="M60.53,101.29c0-.33.01-.58.03-.74.02-.17.09-.36.2-.57.2-.39.76-.58,1.68-.58,1.01,0,1.6.27,1.79.8.07.24.11.62.11,1.12v11.98c0,.34-.01.6-.03.75s-.09.34-.2.56c-.2.39-.76.58-1.68.58-1.01,0-1.59-.27-1.77-.82-.09-.23-.13-.6-.13-1.1v-11.98Z"/>
          <path class="cls-3" d="M73.47,99.2c2.13,0,3.97.77,5.54,2.3,1.57,1.54,2.35,3.44,2.35,5.72s-.75,4.21-2.24,5.82c-1.49,1.6-3.33,2.4-5.51,2.4s-4.04-.79-5.57-2.37c-1.53-1.58-2.29-3.46-2.29-5.64,0-1.19.22-2.31.65-3.35.43-1.04,1.01-1.91,1.72-2.62.72-.7,1.54-1.26,2.48-1.66.93-.4,1.9-.6,2.89-.6ZM69.55,107.32c0,1.28.41,2.32,1.24,3.11.83.8,1.75,1.2,2.77,1.2s1.94-.39,2.76-1.16c.82-.78,1.23-1.82,1.23-3.12s-.41-2.35-1.24-3.14c-.83-.79-1.75-1.18-2.77-1.18s-1.94.4-2.76,1.2c-.82.8-1.23,1.83-1.23,3.11Z"/>
        </g>
        <g>
          <path class="cls-3" d="M69.11,80.61c-.02-.17-.09-.36-.2-.57-.2-.39-.76-.58-1.68-.58h-4.65c-1.26,0-2.49.46-3.68,1.38-.57.45-1.05,1.05-1.42,1.81-.37.76-.56,1.61-.56,2.54,0,1.62.54,2.96,1.62,4.01-.32.76-.8,1.89-1.46,3.38-.22.52-.32.89-.32,1.12,0,.55.45,1.01,1.34,1.38.46.2.83.3,1.11.3s.51-.07.69-.2c.18-.14.31-.28.4-.42.14-.27.7-1.57,1.68-3.9l.67.04h2.71v2.43c0,.33.01.58.03.74.02.17.09.36.2.57.2.39.76.58,1.68.58,1.01,0,1.59-.27,1.77-.8.09-.24.13-.62.13-1.12v-11.95c0-.33-.01-.58-.03-.74ZM66.19,86.56c-.06.1-.34.54-.88.65-.14.03-.26.02-.34.02-.01.1-.03.19-.04.27-.11.59-.27.74-.4.76-.21.03-.36-.25-.66-.64-.16,0-.32.01-.49.01-.36,0-.72-.02-1.06-.06-.18-.02-.35-.05-.52-.08-.84-.22-1.44-.9-1.44-1.7v-.97c0-.8.61-1.48,1.44-1.7.17-.03.34-.06.52-.08.34-.04.69-.06,1.06-.06s.72.02,1.06.06c.18.02.35.05.52.08.43.12.8.35,1.06.66.24.29.39.65.39,1.05v.97c0,.16,0,.47-.21.78Z"/>
          <circle class="cls-2" cx="62.23" cy="85.3" r=".35"/>
          <circle class="cls-2" cx="63.4" cy="85.33" r=".35"/>
          <circle class="cls-2" cx="64.61" cy="85.33" r=".35"/>
        </g>
        <g>
          <path class="cls-3" d="M43.62,78.61c.02-.17.09-.36.2-.57.2-.39.76-.58,1.68-.58h4.65c1.26,0,2.49.46,3.68,1.38.57.45,1.05,1.05,1.42,1.81.37.76.56,1.61.56,2.54,0,1.62-.54,2.96-1.62,4.01.32.76.8,1.89,1.46,3.38.22.52.32.89.32,1.12,0,.55-.45,1.01-1.34,1.38-.46.2-.83.3-1.11.3s-.51-.07-.69-.2c-.18-.14-.31-.28-.4-.42-.14-.27-.7-1.57-1.68-3.9l-.67.04h-2.71v2.43c0,.33-.01.58-.03.74-.02.17-.09.36-.2.57-.2.39-.76.58-1.68.58-1.01,0-1.59-.27-1.77-.8-.09-.24-.13-.62-.13-1.12v-11.95c0-.33.01-.58.03-.74ZM46.53,84.56c.06.1.34.54.88.65.14.03.26.02.34.02.01.1.03.19.04.27.11.59.27.74.4.76.21.03.36-.25.66-.64.16,0,.32.01.49.01.36,0,.72-.02,1.06-.06.18-.02.35-.05.52-.08.84-.22,1.44-.9,1.44-1.7v-.97c0-.8-.61-1.48-1.44-1.7-.17-.03-.34-.06-.52-.08-.34-.04-.69-.06-1.06-.06s-.72.02-1.06.06c-.18.02-.35.05-.52.08-.43.12-.8.35-1.06.66-.24.29-.39.65-.39,1.05v.97c0,.16,0,.47.21.78Z"/>
          <circle class="cls-2" cx="50.49" cy="83.3" r=".35"/>
          <circle class="cls-2" cx="49.32" cy="83.33" r=".35"/>
          <circle class="cls-2" cx="48.11" cy="83.33" r=".35"/>
        </g>
      </g>
    </g>
  </g>
</svg>