<svg width="20" height="20" viewBox="0 0 20 20" fill="none" xmlns="http://www.w3.org/2000/svg">
<path fill-rule="evenodd" clip-rule="evenodd" d="M1.06667 7.26667C1.06667 5.978 2.26057 4.93333 3.73333 4.93333H8V4H3.73333C1.67147 4 0 5.46254 0 7.26667V9H1.06667V7.26667ZM1.06667 11.2667C1.06667 12.7394 2.26057 13.9333 3.73333 13.9333H8V15H3.73333C1.67147 15 0 13.3285 0 11.2667V10H1.06667V11.2667ZM16.2667 4.93333C17.7394 4.93333 18.9333 5.978 18.9333 7.26667V9H20V7.26667C20 5.46254 18.3285 4 16.2667 4H12V4.93333H16.2667ZM18.9333 11.2667C18.9333 12.7394 17.7394 13.9333 16.2667 13.9333H12V15H16.2667C18.3285 15 20 13.3285 20 11.2667V10H18.9333V11.2667Z" fill="#030712"/>
</svg>
