<svg width="20" height="20" viewBox="0 0 20 20" fill="none" xmlns="http://www.w3.org/2000/svg">
<path fill-rule="evenodd" clip-rule="evenodd" d="M2.06667 4.73333C2.06667 3.26057 3.26057 2.06667 4.73333 2.06667H9V1H4.73333C2.67147 1 1 2.67147 1 4.73333V9H2.06667V4.73333ZM2.06667 15.2667C2.06667 16.7394 3.26057 17.9333 4.73333 17.9333H9V19H4.73333C2.67147 19 1 17.3285 1 15.2667V11H2.06667V15.2667ZM15.2667 2.06667C16.7394 2.06667 17.9333 3.26057 17.9333 4.73333V9H19V4.73333C19 2.67147 17.3285 1 15.2667 1H11V2.06667H15.2667ZM17.9333 15.2667C17.9333 16.7394 16.7394 17.9333 15.2667 17.9333H11V19H15.2667C17.3285 19 19 17.3285 19 15.2667V11H17.9333V15.2667Z" fill="#030712"/>
</svg>
