<svg width="20" height="20" viewBox="0 0 20 20" fill="none" xmlns="http://www.w3.org/2000/svg">
<path fill-rule="evenodd" clip-rule="evenodd" d="M1.06667 5.26667C1.06667 3.978 2.26057 2.93333 3.73333 2.93333H8V2H3.73333C1.67147 2 0 3.46254 0 5.26667V9H1.06667V5.26667ZM1.06667 14.7333C1.06667 16.022 2.26057 17.0667 3.73333 17.0667H8V18H3.73333C1.67147 18 0 16.5375 0 14.7333V11H1.06667V14.7333ZM16.2667 2.93333C17.7394 2.93333 18.9333 3.978 18.9333 5.26667V9H20V5.26667C20 3.46254 18.3285 2 16.2667 2H12V2.93333H16.2667ZM18.9333 14.7333C18.9333 16.022 17.7394 17.0667 16.2667 17.0667H12V18H16.2667C18.3285 18 20 16.5375 20 14.7333V11H18.9333V14.7333Z" fill="#030712"/>
</svg>
