<svg width="20" height="20" viewBox="0 0 20 20" fill="none" xmlns="http://www.w3.org/2000/svg">
<path fill-rule="evenodd" clip-rule="evenodd" d="M5.93333 3.73333C5.93333 2.26057 6.978 1.06667 8.26667 1.06667H10V0H8.26667C6.46254 0 5 1.67147 5 3.73333V8H5.93333V3.73333ZM5.93333 16.2667C5.93333 17.7394 6.978 18.9333 8.26667 18.9333H10V20H8.26667C6.46254 20 5 18.3285 5 16.2667V12H5.93333V16.2667ZM12.7333 1.06667C14.022 1.06667 15.0667 2.26057 15.0667 3.73333V8H16V3.73333C16 1.67147 14.5375 0 12.7333 0H11V1.06667H12.7333ZM15.0667 16.2667C15.0667 17.7394 14.022 18.9333 12.7333 18.9333H11V20H12.7333C14.5375 20 16 18.3285 16 16.2667V12H15.0667V16.2667Z" fill="#030712"/>
</svg>
