<svg xmlns="http://www.w3.org/2000/svg" width="32" height="32" fill="none" viewBox="0 0 228 220"><path fill="#010302" d="M0 0h228v220H0z"/><path fill="#020302" d="m34 72-1 5c1.34.06 1.34.06 2.7.11 4.49 1.21 5.52 3.28 8.11 7.08C48.01 89.93 51.69 93.76 58 97c.75.4 1.51.79 2.28 1.2 10.76 5.24 23.01 4.09 34.72 4.36 5.32.13 5.32.13 10.75.26 2.72.06 5.44.12 8.25.18v1l-22 1v3l7 1c.1 1.09.21 2.19.31 3.31.66 3.55.89 4.62 3.69 6.69h-3l1 2c1.48.5 1.48.5 3 1v-2c1.98.5 1.98.5 4 1h-3l-2 4h-2l-2-3c-2.56-.73-2.56-.73-5-1v3H84v4c1.48.5 1.48.5 3 1l-1 3c-11.88 3.4-24.13 2.46-36.44 2.62-5.32.08-10.64.15-16.12.23-6.16.08-6.16.08-12.44.15.98 21.63 6.2 37.39 21 53 18.85 16.37 39.88 16.23 64.19 16.12 5.19-.01 10.38-.03 15.73-.05 3.99-.02 7.97-.05 12.08-.07.28-11.84.28-11.84-3-23-.19-3-.19-3 0-5l3.44-.88c1.17-.37 2.35-.74 3.56-1.12l1-2h7l1-2c2.32-.41 4.66-.74 7-1v2h3v-4c.6-.04 1.21-.07 1.83-.11.8-.07 1.6-.13 2.42-.2.79-.06 1.58-.12 2.39-.18 2.85-.45 2.85-.45 6.36-3.51 4.91-.51 4.91-.51 10.62-.69 1.89-.06 3.78-.13 5.73-.2C191 162 191 162 193 162v-2l1.93-.15c1.24-.11 1.24-.11 2.51-.23.82-.06 1.64-.13 2.49-.21 1.03-.2 1.03-.2 2.07-.41l1-2h4v-4h8v6c1.22-.33 2.43-.66 3.69-1 3.39-.92 5.61-1 9.31-1v63H0V78c9-2.25 9-2.25 13-2.12.76.01 1.53.03 2.31.05.84.03.84.03 1.69.07v-2c5.76-1.3 11.09-2.26 17-2"/><path fill="#365839" d="M195 91.875c3.73.02 7.47.04 11.31.05 2.87.03 5.74.05 8.69.07.08 10.83-.45 17.78-5.82 26.95-1.31 2.28-2.3 4.58-3.18 7.05 4.83.34 6.95-.52 11-3 3.81-.68 3.81-.68 7-1 .33-.98.66-1.98 1-3h3v38c-9 2.26-9 2.26-13 2v-6h-8v4h-4c-.33 1-.66 1.99-1 3h-9v2c-6.34 1.23-12.66 1.31-19.1 1.53-3.96.48-4.97 1.04-7.9 3.47-2.36.3-2.36.3-4.75.19-.8-.02-1.6-.05-2.42-.08-.61-.03-1.21-.07-1.83-.11v4h-3v-2c-3.47.5-3.47.5-7 1-.5 1.49-.5 1.49-1 3-2.31-.32-4.62-.65-7-1l-2 4h-6c.47 1.99.96 3.96 1.44 5.94.26 1.1.53 2.21.81 3.34.48 2.62.48 2.62 1.75 3.72.1 2.5.13 5 .12 7.5.01 2.06.01 2.06.01 4.16-.13 3.34-.13 3.34-1.13 4.34-9.23.16-18.46.23-27.69.26-7.68.03-7.68.03-15.51.07-20.77-.49-36.99-4.88-51.8-19.33-6.49-7.33-11.6-14.8-15-24-.31-.76-.61-1.52-.93-2.3-2.81-7.91-3.03-16.37-3.07-24.7 2.51-2.51 27.5-1.18 29.5-1.18 5.27-.02 10.54-.03 15.97-.05 13.53.23 13.53.23 22.53 2.23v-3h5v3c1.32-.32 2.64-.65 4-1 .33-1.97.66-3.96 1-6 1.98.5 1.98.5 4 1-.33 1.66-.66 3.31-1 5 1.32-.32 2.64-.65 4-1l1 2h3.81c7.57 0 7.57 0 11.19 1v-4h8c.33-.99.66-1.97 1-3h3c.08-.82.17-1.65.25-2.5 2.67-12.43 12.37-22.7 22.75-29.5 12.48-6.35 25.16-6.21 39-6.12"/><path fill="#1B211A" d="M174.438 8c2.56 1 2.56 1 4.31 4.25 3.45 10.35 3.71 21.66-.75 31.75-3.98 7.53-9.49 14.15-17.5 17.44-.82.18-1.65.37-2.5.56v2c-.95.37-1.9.74-2.87 1.12-4.22 1.78-7.96 4.19-11.8 6.67-2.33 1.21-2.33 1.21-6.33 1.21-.84-1.56-1.67-3.12-2.5-4.69-.46-.87-.93-1.74-1.4-2.63-1.1-2.68-1.1-2.68-1.1-7.68h-10v3c-.61.04-1.23.07-1.86.11-1.21.1-1.21.1-2.45.2-.8.06-1.6.12-2.43.18-2.65.6-3.44 1.57-5.26 3.51-2.19-.31-2.19-.31-4-1v-2h-5c1.79 4.41 3.51 8.57 6.5 12.31 3.05 3.98 4.27 8.47 5.71 13.21.56 2.4.56 2.4 1.79 3.48q.06 6 0 12c-6.43.05-12.87.09-19.31.12l-10.86.08c-14.72-.3-26.39-2.34-37.39-12.59-1.93-2.14-3.71-4.3-5.44-6.61-.56-.71-1.12-1.41-1.7-2.14-1.3-1.86-1.3-1.86-1.3-3.86-2.97-.5-2.97-.5-6-1l1-5c-.83.22-.83.22-1.68.44-5.26 1.28-9.91 1.76-15.32 1.56v2l-17 2V40c5-1 5-1 8.06-.94 3.04-.06 4.32-.71 6.94-2.06l3 1v3h2c.13-.78.25-1.57.38-2.38.62-2.62.62-2.62 2.62-4.62 2.44.38 2.44.38 5 1h3v-3h6c.5 4.45.5 4.45 1 9 2.48-.49 2.48-.49 5-1l1-4 8 1c.5-1.48.5-1.48 1-3 5.05-2.52 12.75-1 18.28-.94 4.39.29 4.39.29 6.72-1.06v2h8l2-6c.99 1.48.99 1.48 2 3 2.2.33 2.2.33 4.69.12 4.27-.13 8.11.15 12.31.88l1-5h10v-2c1.98.49 1.98.49 4 1v4c.58-.19 1.16-.37 1.75-.56 2.46-.48 3.9-.2 6.25.56-.99-3.46-.99-3.46-2-7h4v6l3-1v3c4.93-.42 6.66-2.5 10-6 7-6.14 20.15-17 29.44-17"/><path fill="#020502" d="M0 0h228v13l-6 2-3 2h-5l-2 2c-2.16-.02-2.16-.02-4.62-.38-.82-.11-1.64-.22-2.48-.33-.63-.1-1.25-.19-1.9-.29l-1 4c-5.75 1.13-5.75 1.13-8 0v2c-3.9 2.6-7.47 2.15-12 2-.2-3.72-.15-4.77 2-8h-2l-1 2-5-11c-12.5 1.33-26.59 11.78-35 21-1 1-1 1-3.56 1.06L135 31l-1-2h-2v-6h-4c.33.6.66 1.2 1 1.81 1 2.19 1 2.19 1 5.19h-8v-4l-4-1v2c-7.75 1.13-7.75 1.13-10 0-.5 2.48-.5 2.48-1 5H89c-.5-.99-.5-.99-1-2-.37.96-.37.96-.75 1.94C86 34 86 34 84.19 34.88c-2.82.16-4.67-.69-7.19-1.88l-1 1c-3.85.07-7.71.08-11.56.06-2.13-.01-4.25-.02-6.44-.02-1.65-.02-3.3-.03-5-.04l-1 4-8-1v4h-6c-1.48-2.96-1.06-5.74-1-9h-6l1 4c-.99.49-.99.49-2 1l-3-2c-2.6-.08-2.6-.08-5 1-1.37 2.48-1.37 2.48-2 5h-2v-3c-2.42-.17-2.42-.17-5 0l-2 2H0z"/><path fill="#D5FB51" d="M45.063 133.75c4.45-.03 8.89-.05 13.47-.08 19.09.5 36.42 3.22 51.47 15.33.85.68 1.71 1.36 2.59 2.06 10.77 9.09 15.56 19.94 20.41 32.94.38.81.76 1.62 1.15 2.46 1.16 3.49 1.07 6.63 1.03 10.29 0 1.34-.01 2.67-.01 4.05-.17 3.2-.17 3.2-1.17 4.2-9.23.16-18.46.22-27.69.25l-15.51.08c-20.77-.5-37-4.89-51.8-19.33-6.49-7.34-11.6-14.8-15-24-.31-.76-.61-1.52-.93-2.31-2.81-7.9-3.03-16.36-3.07-24.69 2.55-2.55 22.72-1.24 25.06-1.25"/><path fill="#010201" d="M228 157v63c-17.44.11-34.87.19-52.31.25l-29.43.14c-7.67-.13-15.35-.26-23.26-.39l-3-4h3v-4l-5-1v-2l-3-1c10.89-1.49 10.89-1.49 22-3h-1v-8h2l1-3c1.49.5 1.49.5 3 1v-4h-2l1-5h2v-3l5-1c-.21.74-.41 1.49-.62 2.25-.42 3.07 0 4.18 1.62 6.75h4v-3h-4c.67-2 1.33-4 2-6h2v-5l2-1v2l5 1c.5-1.49.5-1.49 1-3l-3-1c.5-1.49.5-1.49 1-3l6-1v3l5 1c-.5-2.47-.5-2.47-1-5h2v-2h5v3h3v-4c2.97-.5 2.97-.5 6-1v3h4c-.5-2.47-.5-2.47-1-5 7.43-.14 7.43-.14 11 1v-3c.68-.05 1.35-.1 2.05-.15.89-.07 1.78-.15 2.7-.23.88-.06 1.76-.13 2.67-.21 2.61-.42 4.26-1.2 6.58-2.41 1.63-.43 3.28-.8 4.94-1.12q1.245-.255 2.52-.51C223 157 223 157 228 157"/><path fill="#010301" d="M19 136c1.93 3.85 2.2 5.22 2.31 9.31 1.21 17.01 10.16 33.55 23 44.69 19.31 14.18 38.02 14.23 61.88 14.12 5.19-.01 10.38-.03 15.73-.05 5.98-.03 5.98-.03 12.08-.07.28-11.84.28-11.84-3-23-.19-3-.19-3 0-5 1.7-.43 1.7-.43 3.44-.88 1.17-.37 2.35-.74 3.56-1.12l1-2h7l1-2c2.32-.41 4.66-.74 7-1v2h3v-4c.6-.04 1.21-.07 1.83-.11.8-.07 1.6-.13 2.42-.2.79-.06 1.58-.12 2.39-.18 2.85-.45 2.85-.45 6.36-3.51 4.91-.51 4.91-.51 10.62-.69 1.89-.06 3.78-.13 5.73-.2C191 162 191 162 193 162v-2c.96-.07.96-.07 1.93-.15.83-.07 1.66-.15 2.51-.23.82-.06 1.64-.13 2.49-.21.69-.13 1.37-.27 2.07-.41l1-2h4v-4h8v6c-5.37 3.39-9.87 3.33-16 3v3l-11-1 1 5h-4v-3c-2.97.5-2.97.5-6 1v4h-3v-3h-5v2h-2l1 5-5-1v-3l-6 2v2l2 1-1 4-6-3-1 5h-2l1 3-3 3h4v3c-2.48.5-2.48.5-5 1-2.22-5.42-2.22-5.42-1.12-8.38.55-.8.55-.8 1.12-1.62-2.48.5-2.48.5-5 1v3h-2l-1 5h2v4h-3l-1 2h-2l1 7 4 1v1l-23 3v2l5 1v4c-.99.5-.99.5-2 1 .99 1.49.99 1.49 2 3H0v-61c3.46-.5 3.46-.5 7-1 1.51-1.94 1.51-1.94 2-4l4 3v-2l6-1z"/><path fill="#D6FB51" d="m195.25 91.813 11.2.08c4.23.05 4.23.05 8.55.11.13 17.3-4.05 27.44-16 40-13.9 11.83-27.87 11.11-45.87 11.06l-11.93-.03-9.2-.03c-.26-16.35 3.69-26.3 15.05-38.14 13.89-12.83 29.8-13.22 48.2-13.05M33 53c7.04-.14 14.08-.23 21.12-.31 3.93-.06 7.85-.12 11.89-.18C82.46 53.24 92.69 57.53 104 69c4.87 5.57 7.13 11.55 9.24 18.59.53 2.34.53 2.34 1.76 3.41q.06 6 0 12c-6.44.05-12.87.09-19.31.12-3.59.03-7.17.05-10.87.08-14.75-.3-26.16-2.39-37.31-12.45A74 74 0 0 1 42 84c-.48-.64-.96-1.27-1.45-1.93C34.28 72.98 32.78 63.91 33 53"/><path fill="#010201" d="M0 0h86v3c.99.5.99.5 2 1v2c2.44-.19 2.44-.19 5-1 1.36-1.97 1.36-1.97 2-4h2c.5 3.96.5 3.96 1 8h-2v3c-.69.13-1.37.27-2.08.4-.9.18-1.8.36-2.73.54-.9.17-1.79.35-2.71.52-2.59.52-2.59.52-5.48 1.54-.73 2.02-.73 2.02-1 4h3v2l-7-1c-.5-1.98-.5-1.98-1-4h-2c-1.64 1.96-1.64 1.96-3 4-1.48-.49-1.48-.49-3-1-.5-2.97-.5-2.97-1-6H54c.49.99.49.99 1 2l3 1v5c-.76-.64-1.53-1.28-2.31-1.94-2.57-2.2-2.57-2.2-5.69-3.06v7l-4 1v-2h-2v2c-9.41 3.63-9.41 3.63-14 2l-1 4h-6v-5h-4l-1 6h-3l-1-2c-2.02-.65-2.02-.65-4-1l1 7c-1.98.49-1.98.49-4 1v-6l-7 1z"/><path fill="#D4FA50" d="M174.438 8c2.56 1 2.56 1 4.31 4.25 3.45 10.35 3.71 21.66-.75 31.75-3.98 7.53-9.49 14.15-17.5 17.44-.82.18-1.65.37-2.5.56v2c-.95.37-1.9.74-2.87 1.12-4.22 1.78-7.96 4.19-11.8 6.67-2.33 1.21-2.33 1.21-6.33 1.21-6.33-8.79-6.24-18.55-5-29 1.43-4.47 3.35-8.14 6-12 .58-.9.58-.9 1.16-1.81 6.08-8.37 25.33-22.19 35.28-22.19"/><path fill="#010301" d="M208 54c.5.99.5.99 1 2h5l3 6h3l-1 7h-2l-2-4-5 2v4l2 1v-3h3l.06 1.81c.83 2.57.83 2.57 4.19 3.88 2.96 1.03 5.66 1.84 8.75 2.31v7c-1.49.5-1.49.5-3 1v-7c-3.96.5-3.96.5-8 1-.5 1.48-.5 1.48-1 3h-5v-2h-2c.67 3.11.67 3.11 3.06 4.19.64.27 1.28.53 1.94.81h-2c.5 2.97.5 2.97 1 6h-49l-1-4h-3c-1.12-2.25-1.12-2.25-2-5 .88-2.31.88-2.31 2-4-3.15 1.84-6.12 3.76-9 6l-1-3c-2.02-.73-2.02-.73-4-1 .22-1.9.22-1.9 1-4 2.03-.94 2.03-.94 4.5-1.56 2.43-.56 2.43-.56 4.5-1.44l1-3c3.21-1.61 6.44-1.06 10-1l-3-8c4.45-.49 4.45-.49 9-1v4h4v-4l5-1c.5.99.5.99 1 2h4l2-4 9 1 1-2h3v2h3v-2z"/><path fill="#050803" d="m34 72-1 5c1.34.06 1.34.06 2.7.11 4.49 1.21 5.52 3.28 8.11 7.08C48.01 89.93 51.69 93.76 58 97c.75.4 1.51.79 2.28 1.2 10.76 5.24 23.01 4.09 34.72 4.36 5.32.13 5.32.13 10.75.26 2.72.06 5.44.12 8.25.18v1H66v-2l-4 1c-.49-1.48-.49-1.48-1-3H49v7l-4-1v-5l-3-1v4h2c-.19 1.81-.19 1.81-1 4-.85.5-1.69.99-2.56 1.5-.81.5-1.61.99-2.44 1.5v4l-3-1c-.49-2.97-.49-2.97-1-6l-1 9c-.99-.5-.99-.5-2-1l-1-3h-6l-1 6h-3v-3h-5v-3h2l-1-7h-3l-2-4h5c.8-3.29 1.1-4.71 0-8l-6 2c-.1-6.15-.1-6.15 0-8l1-1-2.38.12C6 87 6 87 4 85c-2.07-.64-2.07-.64-4-1v-6c5.84-1.7 10.93-2.25 17-2v-2c5.76-1.3 11.09-2.26 17-2"/><path fill="#47466A" d="M223 13h5v30h-3v2c-1.94.19-3.89.39-5.89.59l-7.8.79c-2.54.25-5.08.51-7.7.77-6.91.77-13.75 1.74-20.61 2.85v2c-4.46.49-4.46.49-9 1l-1 3-4-1c.39-.4.77-.8 1.17-1.21 7.9-8.63 9.98-17.07 9.89-28.6-.01-1.54-.02-3.07-.02-4.65-.02-1.17-.03-2.34-.04-3.54l4 1-2 8c.68-.14 1.36-.29 2.06-.44 3.3-.63 6.61-1.1 9.94-1.56v-2l8-1 1-3c.94.03.94.03 1.9.07 1.22.03 1.22.03 2.48.05l2.46.08c2.37.01 2.37.01 4.16-2.2l2.94.06c3.05.29 3.05.29 4.62-1.56z"/><path fill="#315B36" d="m131 30 8 1c-.27.52-.53 1.04-.8 1.57-.36.7-.71 1.4-1.08 2.12q-.51 1.02-1.05 2.07c-2.39 5-3.38 8.96-3.69 14.55-.08 1.26-.15 2.51-.23 3.8-.08 1.43-.08 1.43-.15 2.89h-10v3c-.92.06-.92.06-1.86.11l-2.45.2c-.8.06-1.6.12-2.43.18-2.65.6-3.45 1.57-5.26 3.51-2.19-.31-2.19-.31-4-1v-2h-5c.5 2.47.5 2.47 1 5-3.11-1.75-5.82-3.68-8.56-5.94-11.95-8.24-24.55-7.64-38.69-7.81-3.88-.06-7.77-.11-11.77-.17-2.96-.03-5.93-.05-8.98-.08l4-2c.81-2.05.81-2.05 1-4 3.38-.84 5.67-1.11 9 0-.35-1.98-.35-1.98-1-4l-2-1v-5c3.88.88 3.88.88 5 2 .04 2.33.04 4.67 0 7l5 1v5h18v-2l7-1v-6l-2-1v-5h3v2h2l2 7h6l1-3h4v-2h2v2l2-1c.2-3.63-.14-5.87-2-9h4l2 7c2.44-.27 2.44-.27 5-1l2-3c2.16-.29 2.16-.29 4.62-.19.82.03 1.64.06 2.48.08.63.04 1.25.07 1.9.11l1-2 5 1v7h7c-.46-1.36-.46-1.36-.94-2.75-2.25-6.88-2.25-6.88-1.06-9.25"/><path fill="#28474A" d="M19 136c1.93 3.85 2.2 5.22 2.31 9.31C22.56 162.88 31.78 177.78 44 190H32v2h-9v2c-11.52 2.3-11.52 2.3-17 2v2H0v-39c3.46-.5 3.46-.5 7-1 1.51-1.94 1.51-1.94 2-4l4 3v-2l6-1z"/><path fill="#323732" d="m98 129 4 1-1 5 4-1c.5.99.5.99 1 2h3.81c7.57 0 7.57 0 11.19 1v-4h8l1-3 3 1-1 12h46c-1 5-1 5-2 6-1.67.04-3.33.04-5 0-.5-.99-.5-.99-1-2-.41.82-.82 1.65-1.25 2.5-.87 1.24-.87 1.24-1.75 2.5h-4v-2h-2c-.5-1.49-.5-1.49-1-3h-2l.06 3.44C158 154 158 154 157 155c-1.67.04-3.33.04-5 0-.62-2.31-.62-2.31-1-5 .99-1.49.99-1.49 2-3l-4 1 .06 3.38C149 155 149 155 148 157c-3.23.86-5.22 1.31-8.38.06-.53-.35-1.07-.7-1.62-1.06l-1 6-5-1-1.5-4.38c-.28-.81-.56-1.62-.84-2.46C129 152 129 152 129 150h-3c-.5 2.47-.5 2.47-1 5-4.79.71-7.55.99-11.62-1.79-1.85-1.6-3.68-3.21-5.51-4.82C97.49 139.75 84.05 137.04 71 135v-1c6-.22 11.19.49 17 2v-3h5v3l4-1z"/><path fill="#407554" d="M225 119h3v38c-9 2.25-9 2.25-13 2v-6h-8v-2c-4.44-.11-8.61.3-13 1l-2-5-10-1c-.5-2.47-.5-2.47-1-5 .91-.29.91-.29 1.84-.59 9.34-3.34 16.43-9.23 23.16-16.41v2c4.83.34 6.95-.53 11-3 3.81-.69 3.81-.69 7-1z"/><path fill="#0D0B04" d="M196 0h32v13l-6 2-3 2h-5l-2 2c-2.16-.02-2.16-.02-4.62-.38-.82-.11-1.64-.22-2.48-.33-.63-.1-1.25-.19-1.9-.29l-1 4c-5.75 1.12-5.75 1.12-8 0v2c-3.9 2.6-7.47 2.15-12 2-.2-3.72-.15-4.77 2-8h-2l-1 2c-.34-.77-.68-1.54-1.02-2.34-.45-1-.9-2-1.36-3.04-.66-1.49-.66-1.49-1.33-3.02-1.16-2.68-1.16-2.68-3.29-4.6 3.01-1 5.04-1.1 8.19-1.06.9.01 1.8.02 2.73.02.69.02 1.37.03 2.08.04V3h4l1 2h2V3h2z"/><path fill="#252E22" d="M128 23h4v6l3-1c.5 1.98.5 1.98 1 4l-5-2c-.17 2.42-.17 2.42 0 5l2 2c.12 2.62.12 2.62 0 5-2.33.38-4.66.71-7 1l-1-1c.29-2.34.62-4.67 1-7l-5-1-1 3-1.86-.14c-2.44-.11-4.72-.15-7.14.14-2.12 1.82-2.12 1.82-3 4-4.88-.88-4.88-.88-6-2q-.06-3 0-6h-4c.5.56.99 1.11 1.5 1.69 1.75 2.69 1.76 4.16 1.5 7.31l-3 1v-2h-2v2c-.6.1-1.2.21-1.81.31-2.28.51-2.28.51-3.63 2.31-.77.69-.77.69-1.56 1.38-2.69-.31-2.69-.31-5-1l-1-7h-2v-2h-3v5l3 1q.06 3 0 6c-1 1-1 1-4.56 1.06L73 50v2c-1.79.08-3.58.14-5.38.19l-3.02.1c-.86-.09-1.72-.19-2.6-.29l-2-3-3-1V38h-2l1-4c1.98.5 1.98.5 4 1l1 7h4c.72-4.48.72-4.48 1-9 .7.01 1.4.02 2.12.04.91 0 1.82.01 2.76.02.9.01 1.8.03 2.74.04 2.4.06 2.4.06 4.38-1.1v2h8l2-6 2 3c2.2.33 2.2.33 4.69.12 4.27-.13 8.11.15 12.31.88l1-5h10v-2l4 1v4c.87-.28.87-.28 1.75-.56 2.46-.48 3.89-.2 6.25.56z"/><path fill="#030205" d="M207 153h8v6c-5.37 3.39-9.87 3.33-16 3v3c-5.44-.5-5.44-.5-11-1l1 5h-4v-3l-6 1v4h-3v-3h-5v2h-2c.5 2.47.5 2.47 1 5l-5-1v-3l-6 2v2l2 1-1 4-6-3c-.5 2.47-.5 2.47-1 5h-2c.5 1.49.5 1.49 1 3l-3 3h4v3l-5 1c-2.22-5.42-2.22-5.42-1.12-8.38.37-.53.74-1.07 1.12-1.62l-5 1v3h-2l-1 5h2v4h-3c-.5.99-.5.99-1 2h-2c.5 3.47.5 3.47 1 7 1.98.5 1.98.5 4 1v1H76l-1 2h-8v-2l-7-2v-3l-7-1-1 2v-6c3.46 1.04 6.54 2.26 9.69 4 13.65 6.33 29.88 4.19 44.5 4.12 5.19-.01 10.38-.03 15.73-.05 3.99-.02 7.97-.05 12.08-.07.28-11.84.28-11.84-3-23-.19-3-.19-3 0-5l3.44-.88c1.17-.37 2.35-.74 3.56-1.12l1-2h7l1-2c2.32-.41 4.66-.74 7-1v2h3v-4c.6-.04 1.21-.07 1.83-.11.8-.07 1.6-.13 2.42-.2.79-.06 1.58-.12 2.39-.18 2.85-.45 2.85-.45 6.36-3.51 4.91-.51 4.91-.51 10.62-.69 1.89-.06 3.78-.13 5.73-.2C191 162 191 162 193 162v-2c.96-.07.96-.07 1.93-.15.83-.07 1.66-.15 2.51-.23.82-.06 1.64-.13 2.49-.21.69-.13 1.37-.27 2.07-.41l1-2h4z"/><path fill="#010201" d="M111 0h85v3h-2v2h-2l-1 2V3h-4v3c-.87.11-1.74.22-2.63.33-7.07.89-7.07.89-13.68 3.36-3.9 1.9-6.48 1.11-10.69.31v2c-3.97 3.13-7.04 3.29-12 3v-2l-3 1c-1.69-.62-3.35-1.28-5-2h-2v-2h-3V7h-5l1 5 7 1c-.31 1.94-.31 1.94-1 4l-3 1 3 1v3h-6l-1-3h-3l1-3h2v-4h-4v-2h3V8l-5 1 1-6h-4v3h2c.12 6.62.12 6.62-1 10h-2l-2-4h-2c-.12-.97-.25-1.94-.38-2.94-.3-1.51-.3-1.51-.62-3.06l-2-1V1z"/><path fill="#010301" d="M47.14 191.184c1.67 1.2 3.27 2.5 4.86 3.82l-3 2c-.74 3.56-.74 3.56-1 7h-4l1-4h2v-4h-7c.49 2.47.49 2.47 1 5h-2v-3h-2v2h-3l-1 5 6-1v3h-6v3h-2v-2h-2l-1 4-4-1-1 3h-8v2h-4l-1 3-1 1H0v-22h6v-2c1.89-.34 3.79-.67 5.69-1 1.58-.28 1.58-.28 3.2-.57 2.76-.38 5.33-.52 8.11-.43v-2h9v-2c5.13-1.51 10.39-1.45 15.14 1.18"/><path fill="#020301" d="M225 43h3v34c-9-1-9-1-12.06-3.56-.64-.81-1.28-1.61-1.94-2.44l1-2h-3v3l-3-1c-.69-2.06-.69-2.06-1-4 2.31-1.56 2.31-1.56 5-3l3 1c.69 2.06.69 2.06 1 4h2v-6c-.99.49-.99.49-2 1-2-3-2-3-2-6l-3-1-2-1.12c-2.14-1.21-2.14-1.21-5 .12v2h-3v-2h-3l-1 3-6-2v-7l-8 1 .06 2.44C184 56 184 56 183 57c-1.67.04-3.33.04-5 0v2l-14 1c4.12-4.12 4.12-4.12 9-5 .45-.52.91-1.03 1.38-1.56 2.6-2.31 5.29-1.63 8.62-1.44v-2c13.7-3.63 27.81-5.56 42-5z"/><path fill="#284936" d="M7 47c3.12 2.52 3.95 3.73 4.75 7.75.12 1.61.12 1.61.25 3.25l4 1 1-3c2.06-1.19 2.06-1.19 4-2v2c2.35-.6 4.69-1.27 7-2l1-2 4 1c.11.97.22 1.93.33 2.93.93 7.63 2.11 14.81 4.67 22.07l-5-1 1-5c-.56.14-1.11.29-1.69.44C27.06 73.72 22.4 74.2 17 74v2L0 78V53l6-2c.97-2.03.97-2.03 1-4"/><path fill="#050C06" d="m52 24 7 1c.49 2.48.49 2.48 1 5 2.47.5 2.47.5 5 1v-3h3v3h7v-3c3.03-.24 3.03-.24 6.05-.49 2.35-.38 2.35-.38 3.95-3.51l5 1v3h-2l-.75 2.94C86 34 86 34 84.19 35c-2.77 0-4.71-.83-7.19-2l-1 1c-3.85.07-7.71.08-11.56.06-2.13-.01-4.25-.02-6.44-.02-1.65-.02-3.3-.03-5-.04l-1 4-8-1v4h-6c-1.48-2.96-1.06-5.74-1-9h-6l1 4c-.99.5-.99.5-2 1l-3-2c-2.6-.08-2.6-.08-5 1-1.37 2.48-1.37 2.48-2 5h-2v-3c-2.42-.17-2.42-.17-5 0l-2 2c-2.6.2-2.6.2-5.62.12-1.51-.02-1.51-.02-3.04-.05C1.57 40.05.79 40.02 0 40v-9c3.47-.5 3.47-.5 7-1l1 5h3l-1-7 5 1v2h3l1-6h4v5l6-1 1-3 2.44.06c2.49.24 2.49.24 3.56-1.06 2.42-.13 4.52-.13 6.88.5 3.04.72 6 .56 9.12.5z"/><path fill="#010302" d="M225 78v7l3-1v35h-3l-1 4c-1.05.1-2.1.21-3.19.31-3.76.43-3.76.43-6.37 2.31-3.19 1.8-4.97 1.27-8.44.38.74-5.12 3.02-8.78 5.62-13.18 2.38-4.88 2.53-9.71 2.57-15.07l.04-3.14c.04-2.77.04-2.77-2.23-4.61l.06-2.5L212 85l-3-2v-3h2v2c2.47-.34 2.47-.34 5-1l1-2c2.77-.73 5.13-1 8-1"/><path fill="#050A05" d="m136 7-1 3h3v2l3-1c1.69.62 3.35 1.28 5 2h2v2c4.32-.51 8.03-1.2 12-3v-2l7 1c-5.05 4-10.68 7.16-16.15 10.53-4.39 2.82-7.95 5.12-10.85 9.47-2.62.19-2.62.19-5 0-.5-.99-.5-.99-1-2h-2v-6h-4c.5.9.5.9 1 1.81 1 2.19 1 2.19 1 5.19h-8v-4l-4-1v2c-7.75 1.12-7.75 1.12-10 0l-1 5H89v-2c6.75-2.12 6.75-2.12 9-1l-1-4h-2v-4h4l1 5 4 1v-3h2l-1-6c1.09.08 2.19.16 3.31.25 1.83-.12 1.83-.12 3.69-.25 1.73-1.88 1.73-1.88 3-4 2.19-.75 2.19-.75 4-1 .12.62.25 1.24.38 1.88.49 2.31.49 2.31 2.62 4.12-2.71 1.35-5.01 1.07-8 1l-1 3h-2v3l3-1 1-2c2.07-.41 2.07-.41 4.56-.62.83-.08 1.66-.15 2.51-.23.95-.08.95-.08 1.93-.15.94-3.42 1.08-6.45 1-10h5c0 4 0 4-1.5 5.75-.5.41-.99.82-1.5 1.25h3c.5.99.5.99 1 2 3.03.66 3.03.66 6 1v-3c-2.47-.5-2.47-.5-5-1v-1l5-1 1-3-7-1c-.5-2.48-.5-2.48-1-5 3-1 3-1 6 0"/><path fill="#395F49" d="M225.688 12.813c.76.06 1.53.12 2.31.19.48 7.2.48 7.2-1.5 10.5-3.64 2.18-6.29 1.78-10.5 1.5v2l-4 1c.5.99.5.99 1 2 2.53.65 2.53.65 5 1a83 83 0 0 1 1 5c-1 1-1 1-4.56 1.06l-3.44-.06-1-3h-2v7c-1.99.38-3.99.71-6 1-1-1-1-1-1.12-3.94.12-3.06.12-3.06 1.12-5.06l-6-1-1 3c-6.75-.88-6.75-.88-9-2l-1 4-4 1c-.49-10.4-.49-10.4-1-21l4 1-2 8c.68-.15 1.36-.29 2.07-.44 3.3-.63 6.6-1.11 9.93-1.56v-2l8-1 1-3c.94.03.94.03 1.9.07 1.23.02 1.23.02 2.48.05 1.22.04 1.22.04 2.46.07 2.38.02 2.38.02 4.16-2.19l2.94.06c3.06.28 3.06.28 4.63-1.56 1.43-1.5 1.43-1.5 4.12-1.69"/><path fill="#222A28" d="m20 153 1 3-5 1v3c2.48.5 2.48.5 5 1v6l-5 1v2h7c.04 2.33.04 4.67 0 7-1 1-1 1-4.82 1.1-1.56-.01-3.13-.03-4.74-.04-1.57-.01-3.14-.02-4.76-.02-1.21-.02-2.43-.03-3.68-.04v4H3v2H0v-25c3.46-.5 3.46-.5 7-1 1.51-1.94 1.51-1.94 2-4l4 3v-2z"/><path fill="#2C4E24" d="m98 129 4 1-1 5 4-1c.5.99.5.99 1 2h3.81c7.57 0 7.57 0 11.19 1v-4h8l1-3 3 1-2 11c-9.68 3.52-9.68 3.52-15 3l-2-1v4c-2.2.7-2.2.7-5 1-2.37-1.26-2.37-1.26-4.88-3.12-9.93-6.7-21.35-9.41-33.12-10.88v-1c6-.22 11.19.49 17 2v-3h5v3l4-1z"/><path fill="#436A3D" d="M193 135c2.62.38 2.62.38 5 1l1 9 3 1v3h2l-.06-3.44C204 142 204 142 205 141q3-.06 6 0c1 6.75 1 6.75 1 9 .66-.16 1.32-.33 2-.5 3.73-.62 7.22-.56 11-.5l1-4h2v12c-8.43 2.29-8.43 2.29-13 2v-6h-8v-2c-4.44-.11-8.61.3-13 1l-2-5-10-1c-.5-2.47-.5-2.47-1-5 .7-.27 1.4-.53 2.12-.8.91-.36 1.82-.71 2.76-1.08.9-.34 1.8-.69 2.74-1.05 2.5-.96 2.5-.96 4.38-3.07"/><path fill="#030503" d="M218 199h5l1 4h4v17h-36l1-4h5v3h4v-3l3-1-3-2 4-1-1-4h8v-8h2l1 7h5v-3h-3z"/><path fill="#3C6368" d="m131 30 8 1c-.27.52-.53 1.04-.8 1.57-.53 1.05-.53 1.05-1.08 2.12-.52 1.02-.52 1.02-1.05 2.07-2.39 5-3.38 8.96-3.69 14.55-.08 1.26-.15 2.51-.23 3.8L132 58c-.71.06-1.42.12-2.15.18-1.38.13-1.38.13-2.79.26-.91.08-1.83.16-2.77.24-2.25.08-2.25.08-3.29 1.32-1.67.04-3.33.04-5 0v-5h-7v5h-2c-.41-.5-.83-.99-1.25-1.5-2.52-2.16-4.54-1.71-7.75-1.5v3h-2c-2.09-4.43-2.09-4.43-1.62-7.31.2-.56.41-1.12.62-1.69h2l1 2c3.42.25 3.42.25 7 0l2-3c.39.5.78.99 1.19 1.5 2.36 1.96 3.82 1.74 6.81 1.5-.21-.62-.41-1.24-.62-1.88-.13-.7-.25-1.4-.38-2.12l2-2c.17-3.08.17-3.08 0-6l3-1 1 3c6.44-.5 6.44-.5 13-1l-2-6c-1.14-3.72-1.14-3.72 0-6"/><path fill="#0E180E" d="M174 7h7v4l11 1v2h2l1 3 3-1c1.23-3.01 1.23-3.01 2-6l4 1v2c1-.14 2-.29 3.04-.44 1.32-.18 2.65-.37 4.02-.56 1.31-.19 2.62-.37 3.98-.56 3.69-.41 7.25-.52 10.96-.44V9h2v4c-1.39.43-1.39.43-2.81.88-3.29 1.01-3.29 1.01-6.19 3.12h-5l-2 2c-2.16-.02-2.16-.02-4.62-.38-.82-.11-1.64-.22-2.48-.33-.63-.1-1.25-.19-1.9-.29l-1 4c-5.75 1.12-5.75 1.12-8 0v2c-3.9 2.6-7.47 2.15-12 2-.2-3.72-.15-4.77 2-8h-2l-1 2c-.51-1.16-.51-1.16-1.02-2.34-.45-1-.9-2-1.36-3.04-.66-1.49-.66-1.49-1.33-3.02-1.16-2.68-1.16-2.68-3.29-4.6"/><path fill="#0C1206" d="M122 58h10c1.67 5 3.33 10 5 15l6-1-1 2h-5c.5 2.47.5 2.47 1 5h-2v-2h-2l1-5-2-1v-3l-8-2v4h-4v-2l-5 1v9l2 1-2 4-3-8-2 1c.16.62.33 1.24.5 1.88.5 2.12.5 2.12.5 4.12l3 1c1.15 6.34 1.1 12.57 1 19h-1c-.03-.68-.05-1.36-.08-2.05-.67-10.98-4.71-21.29-11.53-30-1.83-2.56-2.04-4.87-2.39-7.95h5v2c3.93-.57 3.93-.57 7-3 2.16-.2 2.16-.2 4.62-.12 1.23.02 1.23.02 2.48.05.94.03.94.03 1.9.07z"/><path fill="#315836" d="M98 33h4l2 7c2.44-.27 2.44-.27 5-1l2-3c2.16-.29 2.16-.29 4.62-.19.82.03 1.64.06 2.48.08.94.06.94.06 1.9.11l1-2c2.47.49 2.47.49 5 1v9h-6l-1-4c-.99.49-.99.49-2 1l.12 3.38C117 48 117 48 115 50v4c-4.55.37-4.55.37-6.81-1.5-.59-.74-.59-.74-1.19-1.5l-2 3c-3.62.19-3.62.19-7 0-.67-1.27-1.34-2.54-2-3.81l-1.12-2.15C94 46 94 46 94 43h2v-2h2v2l2-1c.2-3.63-.14-5.87-2-9"/><path fill="#222926" d="M8 41v4c.76-.33 1.53-.66 2.31-1C13 43 13 43 16 43v2c3.87-1.04 7.49-2.04 11-4l1 1c2.02.07 4.04.08 6.06.06 1.11-.01 2.21-.02 3.35-.02L40 42v4c-1.46.17-2.92.33-4.38.5-1.21.14-1.21.14-2.46.28C31 47 31 47 29 47v2h-2l-1 4 3 1c-2 2-2 2-5 2.12L21 56h-2c-.65.77-.65.77-1.31 1.56-.56.48-1.12.95-1.69 1.44-2.69-.31-2.69-.31-5-1-.12-1.11-.25-2.23-.38-3.38-.27-3.65-.27-3.65-2.62-5.62-.99 1.48-.99 1.48-2 3-3.13.69-3.13.69-6 1-.62-8.26-.62-8.26 1.75-11.06C4 41 4 41 8 41"/><path fill="#182718" d="M225 43h3l-1 5c-.71.19-1.42.39-2.15.59l-2.79.79c-.91.25-1.83.51-2.77.77-2.46.62-2.46.62-3.29 2.85-2.03.38-2.03.38-4.5.56-3.05.02-3.05.02-5.5 1.44-1.59.4-3.2.74-4.81 1.06-.88.18-1.75.36-2.65.54-2.54.4-2.54.4-6.54.4v-7l-8 1 .06 2.44C184 56 184 56 183 57c-1.67.04-3.33.04-5 0v2l-14 1c4.12-4.12 4.12-4.12 9-5 .45-.52.91-1.03 1.38-1.56 2.6-2.31 5.29-1.63 8.62-1.44v-2c13.7-3.63 27.81-5.56 42-5z"/><path fill="#020302" d="M228 157v15l-3 1-2-4 1 6h-5l-1-4h-2l-2 5-5-2v-5h-2v-3l-3 1c-1.73-.08-3.46-.24-5.19-.44A384 384 0 0 1 194 166l1-2c1.98.5 1.98.5 4 1v-3c.68-.05 1.35-.1 2.05-.15.89-.07 1.78-.15 2.7-.23.88-.06 1.76-.13 2.67-.21 2.61-.42 4.26-1.2 6.58-2.41 1.63-.43 3.28-.8 4.94-1.12 1.25-.26 1.25-.26 2.52-.51C223 157 223 157 228 157"/><path fill="#456A49" d="M175 142h6l1 4h10l2 5c.99-.16 1.98-.33 3-.5 4.03-.58 7.93-.57 12-.5l-2 1-1 3-15 2v-7c-2.35-.69-2.35-.69-5-1-3.22 1.67-3.22 1.67-3.69 4.62-.1.79-.2 1.57-.31 2.38l-3-4-5 1v4h9l1 3c-2.67 1.33-5.04 1.01-7.96.97-2.43.04-4.68.44-7.04 1.03-1.1-3.29-.8-4.71 0-8-.45.5-.91.99-1.38 1.5C166 156 166 156 164 156l-1 5h-2v2c-2.89-.4-3.82-.79-5.75-3.06-.41-.64-.82-1.28-1.25-1.94h3v-2h2l-2-9h4v3h2v2c2.52-.63 2.52-.63 5-2 .89-2.55.89-2.55 1-5l2 4c3-.7 3-.7 6-2 .97-2.03.97-2.03 1-4z"/><path fill="#2B4C37" d="M226 125c2 2 2 2 2.2 5.7-.03 1.46-.05 2.92-.08 4.42-.01 1.47-.03 2.94-.05 4.45-.02 1.13-.05 2.26-.07 3.43l-7-1-1 4q-3 .06-6 0c-1-1-1-1-1.06-4.06L213 139c2.81-.62 2.81-.62 6-1l3 2v-5l-3 2c-1.97.2-1.97.2-4.06.12-1.98-.06-3.96-.12-5.94-.12-.99 1.49-.99 1.49-2 3-2.56.25-2.56.25-5 0-1-1-1-1-1.06-4.06L201 133c3.33-1.11 5.62-.84 9 0 .12-.64.25-1.28.38-1.94.2-.68.41-1.36.62-2.06 2.71-1.35 5.01-1.07 8-1v-2c2.51-1.26 4.22-1.21 7-1"/><path fill="#020502" d="m10 135 9 1c.76 5.98 1.46 11.97 1 18-1 1-1 1-4.06 1.06L13 155v2l-4-2-2 3c-3.63.69-3.63.69-7 1-.08-1.79-.14-3.58-.19-5.38-.03-.99-.07-1.99-.1-3.02.09-.86.19-1.72.29-2.6l3-2c.25-3.58.25-3.58 0-7h3v5l3-2c1.66-.38 3.32-.73 5-1-2.48-.99-2.48-.99-5-2z"/><path fill="#060D06" d="M40.5 189.188c.75.06 1.51.11 2.28.17 2.22.64 2.22.64 6.22 4.64-6.44.5-6.44.5-13 1v2c-3.77 1.26-5.37.37-9-1l-2 6-6.15.69c-1.86.13-1.86.13-2.85 1.31-3.49.2-6.6-.22-10-1l-1 3H1c-1.35-2.71-1.07-5.01-1-8h6v-2c1.89-.34 3.79-.67 5.69-1 1.58-.28 1.58-.28 3.2-.56 2.76-.39 5.33-.52 8.11-.44v-2h9v-2c2.97-.88 5.41-1.09 8.5-.81"/><path fill="#142512" d="M207 153h8v6c-5.37 3.39-9.87 3.33-16 3v3c-5.44-.5-5.44-.5-11-1l1 5h-4v-3l-6 1v4h-3v-3c-.87.14-1.74.29-2.63.44-1.73.28-1.73.28-3.49.56-1.14.19-2.28.37-3.45.56-3.19.41-6.22.52-9.43.44v-3c.6-.04 1.21-.07 1.83-.11.8-.07 1.6-.13 2.42-.2.79-.06 1.58-.12 2.39-.18 2.85-.45 2.85-.45 6.36-3.51 4.91-.51 4.91-.51 10.62-.69 1.89-.06 3.78-.13 5.73-.2C191 162 191 162 193 162v-2c.96-.07.96-.07 1.93-.15.83-.07 1.66-.15 2.51-.23.82-.06 1.64-.13 2.49-.21.69-.13 1.37-.27 2.07-.41l1-2h4z"/><path fill="#394F31" d="m29 52 4 1 2 17h-3v-2c-.74.52-1.48 1.03-2.25 1.56C27 71 27 71 24.69 70.69c-.56-.23-1.12-.46-1.69-.69v-3h-2v2h-6c-.77-8.78-.77-8.78 1.11-11.78C17.5 55.88 17.5 55.88 20 54l1 2c2.35-.6 4.69-1.27 7-2z"/><path fill="#2C382C" d="m66 33 3 1-1 5h3v2h2l1 2 2-6h2v5l3 1q.06 3 0 6c-1 1-1 1-4.56 1.06L73 50v2c-1.79.08-3.58.14-5.38.19l-3.02.1c-.86-.09-1.72-.19-2.6-.29l-2-3-3-1V38h-2l1-4c1.98.49 1.98.49 4 1l1 7h4c.72-4.48.72-4.48 1-9"/><path fill="#46683B" d="M149 147h4c-.33.54-.66 1.07-1 1.62-1.24 2.95-1.13 5.2-1 8.38v4l-10-1-1 4h-3l-2 4c-3.59.32-6.58.18-10-1-8-8.12-8-8.12-8-12l8-1 1-4h3c.16.7.32 1.4.48 2.12 1.21 5.7 1.21 5.7 5.21 9.5.76.13 1.52.25 2.31.38v-6c2.85 0 5.22.44 8 1h3c-.01-.64-.02-1.28-.04-1.93 0-.83-.01-1.66-.02-2.51-.01-.82-.03-1.64-.04-2.49.1-2.07.1-2.07 1.1-3.07"/><path fill="#050905" d="m52 24 7 1 1 5c2.48.5 2.48.5 5 1v-3h3v3h7v-3c2.02-.16 4.04-.33 6.05-.49 2.35-.38 2.35-.38 3.95-3.51 2.47.5 2.47.5 5 1v3h-2c-.25.97-.5 1.94-.75 2.94C86 34 86 34 84.19 35c-2.77 0-4.71-.83-7.19-2l-1 1c-4 .1-8 .13-12 .12-3.31.01-3.31.01-6.69.01C52 34 52 34 51 33c-2.06-.28-4.12-.45-6.19-.62-.6-.13-1.19-.25-1.81-.38l-1-2 1-2c2.07-.63 2.07-.63 4.56-1.12.83-.17 1.66-.34 2.51-.51.95-.18.95-.18 1.93-.37z"/><path fill="#121D1A" d="m34 72-1 5 6 1-1 2H21l-1 3c-.69.05-1.37.1-2.08.15-.9.07-1.8.15-2.73.23-.9.06-1.79.13-2.71.21-2.72.28-2.72.28-5.48 2.41l-1-3H0v-5c5.84-1.7 10.93-2.25 17-2v-2c5.76-1.3 11.09-2.26 17-2"/><path fill="#030705" d="M44 193.813c1.07-.01 2.15-.03 3.25-.04 2.75.23 2.75.23 4.75 2.23l-3 1-1 7h-4l1-4h2v-4h-7l1 5h-2v-3h-2v2h-3l-1 5 6-1v3h-6v3h-2v-2h-2l-1 4-4-1-1 3h-9v-3h5l1-4 4-1c.08-1.07.16-2.15.25-3.25.8-4.03 1.63-5.23 4.75-7.75l1 2h6v-2c2.73-1.37 4.96-1.17 8-1.19"/><path fill="#4D6147" d="M5 178c2.49 1.2 4.68 2.45 7 4l-1 6c1.66.38 3.32.71 5 1 1.42-1.18 1.42-1.18 1.06-4.56L17 181h3c.12.97.25 1.94.38 2.94.2 1.01.41 2.02.62 3.06l2 1h-2l1 4c-.64.2-1.28.41-1.93.62-1.24.41-1.24.41-2.51.82l-2.49.81c-2.03.57-2.03.57-3.07 1.75q-3 .06-6 0v2H0v-14h3v-2h2z"/><path fill="#323E21" d="m141 160 10 1c.62 2.81.62 2.81 1 6-.99 1.49-.99 1.49-2 3h-3l-1 3-7-1-2 4h-6l-1 3c-.7-1.6-1.38-3.2-2.06-4.81-.39-.9-.77-1.79-1.16-2.71C126 169 126 169 127 166l8 1 2-3h3z"/><path fill="#060E0A" d="m134 118 2 1c-.67 3.81-1.53 7.41-3 11l-3 1-1 2h-8v4c-1.99.38-3.99.71-6 1l-1-1c-3.34-.14-6.66-.04-10 0l1-11c2.97.5 2.97.5 6 1v3c-.99.5-.99.5-2 1l2 1v2l6-1c-.19-.95-.37-1.9-.56-2.88C116 127 116 127 117 125h4l-1 5h3l-1-4c.8-.25 1.61-.5 2.44-.75 2.73-.97 2.73-.97 3.37-3.37.1-.93.1-.93.19-1.88h6z"/><path fill="#030805" d="m136 7-1 3h3v2l3-1c1.69.62 3.35 1.28 5 2h2v2c4.32-.51 8.03-1.2 12-3v-2l7 1c-3.65 2.87-7.54 5.27-11.5 7.69-1.31.81-2.62 1.61-3.97 2.45C148 23 148 23 144 23v-2c-2.97-.5-2.97-.5-6-1v3l-5 2v-3h4v-3l-5-1v-1l5-1 1-3-7-1c-.5-2.48-.5-2.48-1-5 3-1 3-1 6 0"/><path fill="#5A7873" d="M196 32h6v9h6v-7l3-1v4c3.44-.18 3.44-.18 7-1 1.51-1.94 1.51-1.94 2-4 2.42 2.42 2.53 3.8 3.12 7.12.26 1.37.26 1.37.51 2.76.12.7.25 1.4.37 2.12-2.88.19-2.88.19-6 0l-2-3-4 4-7-2v2c-2.35 1.18-3.7 1.07-6.31 1-3.38-.04-6.4.15-9.69 1v-4c4.46-.5 4.46-.5 9-1-.26-2.34-.59-4.68-1-7l-2-1z"/><path fill="#0F1A14" d="M31 32h2c3.07 5.4 3.07 5.4 2.75 8.31C35 42 35 42 34 43q-3 .06-6 0c-4.05-.37-4.05-.37-7 2-2.69.12-2.69.12-5 0v-2c-2.47.34-2.47.34-5 1l-1 2-2-1v-4l-8 3v-4c2.79-.66 5.18-1 8.06-.94C11.09 39 12.38 38.35 15 37l3 1v3h2c.12-.78.25-1.57.38-2.38C21 36 21 36 23 34c2.44.38 2.44.38 5 1h3z"/><path fill="#406E48" d="M188.75 147.125c2.25.88 2.25.88 3.25 1.88v6l15-2v4h-5v-2c-1.98.33-3.96.65-6 1v3c-1.99-.3-3.97-.59-5.96-.88-2.24-.26-2.24-.26-5.04.88-.33.65-.66 1.31-1 2l-2-2h2l-1-2h-9c-.63-2.38-.63-2.38-1-5l2-2c4.56.55 4.56.55 6 2 .72-.85 1.44-1.7 2.19-2.57 2.81-2.43 2.81-2.43 5.56-2.31"/><path fill="#2D3533" d="m6 65 5 1c.93 3.01 1.04 3.87 0 7l4 1 1-5h5v-2h2l1 3c.58-.14 1.16-.29 1.75-.44 1.11-.28 1.11-.28 2.25-.56l1.94-.88C32 68 32 68 34.69 70.12c2.29 2.85 3 4.31 3.31 7.88-2.47-.5-2.47-.5-5-1l1-5c-.56.14-1.11.29-1.69.44C27.06 73.72 22.4 74.2 17 74v2L0 78v-2c1.13-.14 2.27-.29 3.44-.44C6.81 75.39 6.81 75.39 8 74l-3-1c-.12-5.75-.12-5.75 1-8"/><path fill="#040A05" d="M38.313 24.875c2.43.11 4.37.45 6.69 1.12.74.19 1.48.38 2.25.57.58.14 1.15.29 1.75.43-1 1-1 1-3.57 1.07-1.2-.03-1.2-.03-2.43-.07v3c1.92.19 1.92.19 3.87.38 3.88.38 3.88.38 6.13 2.62-.38 2.13-.38 2.13-1 4-2.64-.32-5.28-.65-8-1v4h-6c-1.48-2.95-1.06-5.74-1-9h-4l-1-4h-2v-2c1.2.04 1.2.04 2.43.07 2.95-.07 3.03-1.04 5.88-1.19"/><path fill="#13211B" d="m212 112 1 2h2l1 4c.6-.33 1.2-.66 1.81-1 2.19-1 2.19-1 5.19-1v-4h3l2 7h-3l-1 4c-1.05.1-2.1.21-3.19.31-3.76.43-3.76.43-6.37 2.31-3.19 1.8-4.97 1.27-8.44.38.58-3.76 1.65-6.53 3.56-9.81.46-.79.91-1.58 1.38-2.4.53-.88.53-.88 1.06-1.79"/><path fill="#080B05" d="M192 50v7l-3 1c-1.21 2-1.21 2-2 4-3.33-.67-6.67-1.33-10-2v4h-4v-4l-8 2 1 5h-2l-1-3h-3c-.41.47-.82.95-1.25 1.44-2.63 2.34-5.34 2.24-8.75 2.56 1.75-2 1.75-2 4-4h4v-2c6.8-3.14 12.57-3.33 20-3v-2l5-1 1-5c2.93-.98 4.96-1.08 8-1"/><path fill="#416B4E" d="M115 48h4v8c1.18-.28 1.18-.28 2.38-.56C124 55 124 55 126 56l1-5h2l2 2h1v5c-.71.06-1.42.12-2.15.18-.92.09-1.84.17-2.79.26-.91.08-1.83.16-2.77.24-2.25.08-2.25.08-3.29 1.32-1.67.04-3.33.04-5 0v-5h-7v5h-2c-.41-.49-.83-.99-1.25-1.5-2.52-2.16-4.54-1.71-7.75-1.5v3h-2c-2.09-4.43-2.09-4.43-1.62-7.31.2-.56.41-1.12.62-1.69h2l1 2c3.42.25 3.42.25 7 0l2-3c.39.49.78.99 1.19 1.5 2.36 1.96 3.82 1.74 6.81 1.5-.19-.64-.37-1.28-.56-1.94-.15-.68-.29-1.36-.44-2.06z"/><path fill="#293739" d="M129 144h11l1 3 5-2-1 4c-3.08.29-3.08.29-6.15.59-.61.13-1.22.27-1.85.41l-1 2c-3.33-.67-6.67-1.33-10-2l-1 5h-9l-2-4c.62-.1 1.24-.21 1.88-.31 2.49-.57 2.49-.57 4.12-3.69 2.16-.51 2.16-.51 4.62-.69.82-.06 1.64-.13 2.48-.2.63-.03 1.25-.07 1.9-.11z"/><path fill="#385F4B" d="m148 146 3 1c-.99.5-.99.5-2 1l.06 3.38C149 155 149 155 148 157c-3.23.86-5.22 1.31-8.38.06-.53-.35-1.07-.7-1.62-1.06l-1 6-5-1-1.5-4.38c-.28-.81-.56-1.62-.84-2.46C129 152 129 152 129 150l7 2 1-3c2.98-.29 2.98-.29 5.96-.59 2.34-.34 2.34-.34 5.04-2.41"/><path fill="#0C1D09" d="M122 58h10c1.67 5 3.33 10 5 15l6-1-1 2h-5l1 5h-2v-2h-2l1-5-2-1v-3l-8-2v4h-4v-4h-2l-1-3h-6l1-2h9z"/><path fill="#0D1509" d="M154 169v2c.56-.14 1.11-.29 1.69-.44 5.25-1.28 9.91-1.76 15.31-1.56l-2 1c.5 2.47.5 2.47 1 5-2.47-.5-2.47-.5-5-1v-3l-6 2v2l2 1-1 4-4-2v-4c-2.47-.5-2.47-.5-5-1l-1 3-2-1c-2.22.31-2.22.31-5 1-1.6.36-3.21.71-4.81 1.06-1.4.31-2.79.63-4.19.94l1 2 1 2h-2v6c-2.39-3.83-2.56-7.6-3-12l3.44-.88c1.17-.37 2.35-.74 3.56-1.12l1-2h7l1-2c3-1 3-1 7-1"/><path fill="#232625" d="m130 130 3 1-2 11c-9.71 3.53-9.71 3.53-15 3-1-1-1-1-1.06-4.06L115 138c1.88-1.06 1.88-1.06 4-2l2 1v-4h8z"/><path fill="#4E672E" d="M19 136c1.89 3.21 2.22 5.61 2.31 9.31.77 10.81 4.51 20.79 10.55 29.74C33 177 33 177 33 180l-6-2v-4l-4 2v-6h-7v-2l5-1-1-6-4-1v-3l4-1c-.11-1.03-.11-1.03-.22-2.09-.59-6.01-.88-11.88-.78-17.91"/><path fill="#455872" d="M210 21h2v2l4 1v3l-4 1 1 2c2.53.66 2.53.66 5 1 .38 1.66.71 3.32 1 5-1 1-1 1-4.56 1.06L211 37l-1-3h-2v7c-1.99.38-3.99.71-6 1-1-1-1-1-1.19-3.94C201 35 201 35 203 33c1.98-.71 3.98-1.39 6-2-.21-1.09-.41-2.19-.62-3.31C208 24 208 24 210 21"/><path fill="#1C273C" d="m25 41 3 1c2.06.07 4.13.08 6.19.06 1.08-.01 2.17-.02 3.29-.02.83-.02 1.66-.03 2.52-.04v4c-1.46.17-2.92.33-4.38.5-1.21.14-1.21.14-2.46.28C31 47 31 47 29 47v2h-2l-1 4 3 1c-2 2-2 2-5.12 2.12L21 56l1-9c-4.45.49-4.45.49-9 1l-2-4 5-1v2c4.97-1.13 4.97-1.13 9-4"/><path fill="#111A09" d="M215 93h1c.06.77.12 1.54.18 2.34.09 1 .17 2 .26 3.04.12 1.49.12 1.49.24 3.02.17 2.58.17 2.58 1.32 4.6l1-4h4l-1 5 2 1v2h3v-2l-2-1h3v11l-2-1v-5h-3v4l-7 2-1-4h-2z"/><path fill="#071107" d="M222 210c3 1 3 1 4.69 3.31C228 216 228 216 228 220h-36l1-4h5v3h4v-3l9 1 1-4h5v3l4-1v-1c.32-1.34.66-2.67 1-4"/><path fill="#44534B" d="m218 131 2 1v2h3v8h-2l-1 4q-3 .06-6 0c-1-1-1-1-1.06-4.06L213 139c2.81-.62 2.81-.62 6-1l3 2v-5l-3 2c-1.97.2-1.97.2-4.06.12-1.98-.06-3.96-.12-5.94-.12-.99 1.49-.99 1.49-2 3-2.56.25-2.56.25-5 0-1-1-1-1-1.06-4.06L201 133c4.11-1.54 7.79-.76 12 0l1 2c2.02.65 2.02.65 4 1z"/><path fill="#030906" d="M228 47v11h-2v-3h-3v-2h-3l-1 8h-4v-3l-3-1-2-1.12c-2.14-1.21-2.14-1.21-5 .12v2h-3v-2h-3l-1 3-4-2c2.71-1.69 5.07-2.22 8.19-2.56 3.59-.01 3.59-.01 4.81-1.44 1.52-.07 3.04-.08 4.56-.06.83.01 1.66.02 2.51.02.63.02 1.27.03 1.93.04l1-3c2.25-.95 2.25-.95 5-1.69.91-.25 1.81-.5 2.75-.76C227 47 227 47 228 47"/><path fill="#25392D" d="M88 33c2.47.99 2.47.99 5 2v7h2l-1-8 4-1c2.1 2.36 2.97 3.55 3.19 6.75-.1 1.11-.1 1.11-.19 2.25l-3 1v-2h-2v2c-.6.1-1.2.21-1.81.31-2.28.51-2.28.51-3.63 2.31-.51.46-1.03.91-1.56 1.38-2.69-.31-2.69-.31-5-1-.12-1.13-.25-2.27-.38-3.44-.2-1.17-.41-2.35-.62-3.56l-2-1 2.94-.81c1.01-.39 2.02-.79 3.06-1.19z"/><path fill="#222B2D" d="M225.688 12.813c.76.06 1.53.12 2.31.19.48 7.2.48 7.2-1.5 10.5-3.52 2.11-6.49 2.07-10.5 1.5-2.5-1-2.5-1-4-2v-2h-2l-1 3-1-2 1-2-2-1c1.46-.47 1.46-.47 2.94-.94 2.9-.76 2.9-.76 4.06-2.06l2.88.12c4.31-.17 4.7-3.02 8.81-3.31"/><path fill="#020304" d="M201 0h27v4h-11v4h-2V4c-.99.5-.99.5-2 1-2.33.04-4.67.04-7 0l-1 4c-2.31.25-2.31.25-5 0-1.81-2-1.81-2-3-4h3z"/><path fill="#3E705E" d="M186 33c1.79.25 3.59.53 5.38.81 1.49.23 1.49.23 3.02.46C197 35 197 35 199 38c-.38 2.69-.38 2.69-1 5-6.2.38-10.45-.16-16-3v7l-3 1c-1.62-2.5-2.07-3.59-1.54-6.58.3-.88.6-1.76.92-2.67.29-.89.59-1.78.89-2.7.24-.68.48-1.35.73-2.05l1 4c2-.79 2-.79 4-2z"/><path fill="#414F19" d="M52 196c3.46 1.04 6.54 2.26 9.69 4 13.43 6.23 29.59 4.43 44 4.62 5.1.08 10.19.15 15.45.23L133 205v1H76l-1 2h-8v-2l-7-2v-3l-7-1-1 2z"/><path fill="#1A2320" d="m88 28 2 3c1.96.58 1.96.58 4.12.69 1.28.1 2.56.2 3.88.31-.5.35-.99.7-1.5 1.06-2.23 2.88-1.7 5.41-1.5 8.94h-2v-7l-5-2-1 4c-4.02.84-7.02 1.05-11 0 .06.78.12 1.57.19 2.38-.06.86-.13 1.73-.19 2.62l-3 2v-3h-2v-2h-3v-6c2.02.03 4.04.07 6.05.1 2.03.03 2.03.03 3.95-1.1v2h8z"/><path fill="#0A0D09" d="M16 145h4q.045 2.22.06 4.44c.01.82.03 1.64.04 2.49C20 154 20 154 19 155q-3 .06-6 0v2l-4-2c-.99 1.49-.99 1.49-2 3-3.62.69-3.62.69-7 1v-7h4l1-3c5.75-1.12 5.75-1.12 8 0v2h3z"/><path fill="#223B26" d="M226 145h2v12c-8.43 2.29-8.43 2.29-13 2v-6h-8v-2l1.93-.18c1.24-.13 1.24-.13 2.51-.26.82-.08 1.64-.16 2.49-.24 2.06-.11 2.06-.11 3.07-1.32 2.67-.14 5.32-.04 8 0z"/><path fill="#020604" d="m75 15 3 1v4h4v3h-3l5 2-1 3c-7.47.37-13.82-.96-21-3l1-3h6v-2c.62-.27 1.24-.54 1.88-.81C73.3 18.04 73.3 18.04 75 15"/><path fill="#0F1E0E" d="M40.5 189.188c.75.06 1.51.11 2.28.17 2.22.64 2.22.64 6.22 4.64-6.44.5-6.44.5-13 1v2c-3.77 1.26-5.37.37-9-1l-1 3h-4v-4l-4-1h5v-2h9v-2c2.97-.88 5.41-1.09 8.5-.81"/><path fill="#45724F" d="M182 40c2.97.49 2.97.49 6 1l1 5 8-1c-1.87 2.63-3.3 3.86-6.49 4.49-2.51.24-5 .41-7.51.51v2c-4.46.5-4.46.5-9 1l-1 3-4-1c.94-1.11 1.87-2.21 2.81-3.31.52-.62 1.05-1.23 1.58-1.87A91 91 0 0 1 178 45l1 3 2-1c.41-2.32.74-4.66 1-7"/><path fill="#404D5A" d="M96 41h2v2h12c-.88 4.4-1.78 7.78-5 11-2.33.04-4.67.04-7 0-.67-1.27-1.34-2.54-2-3.81l-1.12-2.15C94 46 94 46 94 43h2z"/><path fill="#36525C" d="m208.063 140.938 2.94.06c1 6.63 1 6.63 1 10-1.07-.01-1.07-.01-2.16-.03-5.41-.05-10.52.09-15.84 1.03-.63-2.31-.63-2.31-1-5l2-3c2.97.5 2.97.5 6 1l1 4h2l-.06-3.44c.07-4.54.07-4.54 4.12-4.62"/><path fill="#1D1A24" d="M138 20c2.97.5 2.97.5 6 1v2l3 1c-.78.6-1.57 1.2-2.38 1.81-2.77 2.1-2.77 2.1-4.62 5.19-2.62.19-2.62.19-5 0l-1-2h-2v-6h-4c.33.6.66 1.2 1 1.81 1 2.19 1 2.19 1 5.19h-8l1-4v2h3l1-7c2.97.5 2.97.5 6 1v3l5-2z"/><path fill="#020703" d="m160 63 4 1v3h2l1-2v4l-10 2-1 3c-1.74.73-1.74.73-3.88 1.19-.69.16-1.39.31-2.11.48C148 76 148 76 145 76l-2-5c4.8-3.64 10.2-4.14 16-5z"/><path fill="#4D7856" d="m209 134 2 2c4.14.2 7.08.31 11-1v5l-9-1 1 6c2.97.5 2.97.5 6 1 .1-.64.21-1.28.31-1.94.34-1.02.34-1.02.69-2.06l3-1v2h4v2h-2l-1 4c-1.83.22-1.83.22-3.69.44-3.14.39-6.22.88-9.31 1.56-1-3-1-3-1.44-6.44-.36-3.44-.36-3.44-1.68-5.81-.29-.58-.58-1.16-.88-1.75z"/><path fill="#091209" d="m98 129 4 1-1 5 4-1c.5.99.5.99 1 2h5l-2 4c-5.53.25-5.53.25-7.96-1.04-2.9-1.36-5.26-.5-8.34-.06-4.37.16-8.37-1.01-12.59-2.11-3.02-.77-6.02-1.32-9.11-1.79v-1c6-.22 11.19.49 17 2v-3h5v3l4-1z"/><path fill="#0E120E" d="M105 19h4l1 8h-2l-1 5H89v-2c6.75-2.12 6.75-2.12 9-1l-1-4h-2v-4h4l1 5 4 1v-3h2z"/><path fill="#1C261A" d="M195 48v6h2l-1 3h-4v-7l-8 1 .06 2.44C184 56 184 56 183 57c-1.67.04-3.33.04-5 0v2l-14 1c4.12-4.12 4.12-4.12 9-5 .45-.52.91-1.03 1.38-1.56 2.6-2.31 5.29-1.63 8.62-1.44v-2c1.62-.34 3.25-.67 4.88-1 .9-.19 1.8-.37 2.74-.56C193 48 193 48 195 48"/><path fill="#557834" d="M131 137h1v6h38v1h-41v2c-.9.15-.9.15-1.83.3-4.88.91-8.01 1.58-11.17 5.7l-2-1-1 2-3-4 4-1v-4l3.44.12c4.7.02 9.02-.94 13.56-2.12z"/><path fill="#040504" d="m151 173 5 1-1 4-1-1-1 5h-2l1 3-3 3h4v3l-5 1c-2.22-5.42-2.22-5.42-1.12-8.38.37-.53.74-1.07 1.12-1.62h-2v-2h-3v-2h-3v-3l2.81.06c3.21.1 3.21.1 6.19-1.06l1 1z"/><path fill="#1D1D23" d="m20 153 1 3-5 1v3c2.48.5 2.48.5 5 1v6l-6 1v-2h-2l-1-7-4-1-1 3-5 1v-2l-2-1c1.67-.12 1.67-.12 3.38-.25 3.68-.33 3.68-.33 5.06-2.81.18-.64.37-1.28.56-1.94l4 3v-2z"/><path fill="#060906" d="m226 3 2 1v5h-2v2c-6.04.69-11.92 1.11-18 1 .69-1.94.69-1.94 2-4 2.88-.94 4.26-1.37 7 0V4c3.23-1.08 5.62-1.14 9-1"/><path fill="#324B47" d="m23 176 1 2 2 1h-4v2h-5c.21 1.11.41 2.23.62 3.38.13 1.19.25 2.39.38 3.62l-2 2c-2.62-.38-2.62-.38-5-1-1.12-4.75-1.12-4.75 0-7l-4-4c5.04-.63 9.92-1 15-1z"/><path fill="#2B4228" d="M45 37c3.88.88 3.88.88 5 2 .04 2.33.04 4.67 0 7l5 1v5H38l1-5c3.38-.84 5.67-1.11 9 0-.35-1.98-.35-1.98-1-4l-2-1z"/><path fill="#050B05" d="M93 19h12l1 5h-2v3h-5v-6h-4v4h2l1 4c-4.45.5-4.45.5-9 1l1-5-4-2c3.47-.5 3.47-.5 7-1z"/><path fill="#19211E" d="M33 32h4l1 9h3v6h-2l-1 5c-1.44.17-2.87.33-4.31.5-.8.09-1.6.19-2.43.28C29 53 29 53 26 53v-5l3 1v-2c3.73-.57 7.21-1 11-1v-4l-6 1c.21-.76.41-1.53.62-2.31.71-2.91.71-2.91-1.62-5.69z"/><path fill="#010201" d="m125 65 8 3v3l3 1c-.75 7.75-.75 7.75-3 10l-3-1 2-3-5 1 1-6-3-1c-1.12-4.75-1.12-4.75 0-7"/><path fill="#0D150E" d="M85 24c2.47.5 2.47.5 5 1v3h-2c-.25.97-.5 1.94-.75 2.94C86 34 86 34 84.19 35c-2.77 0-4.71-.83-7.19-2l-1 1a86 86 0 0 1-5.06-.44c-.92-.1-1.84-.2-2.79-.31-.71-.08-1.42-.16-2.15-.25v-1l8 1 1-5c3.03-.24 3.03-.24 6.05-.49 2.35-.38 2.35-.38 3.95-3.51"/><path fill="#040703" d="M19 25h4v5l9-2 1 4h-2l1 4c-.99.5-.99.5-2 1l-3-2 1-4h-3v2c-2.97-.49-2.97-.49-6-1v2c-4.46-.99-4.46-.99-9-2v-4c2.47.5 2.47.5 5 1v2h3z"/><path fill="#020802" d="M187 3h4l1 2h4l-1 9h-3v-2l-11-1V7l-4-1h10z"/><path fill="#263349" d="M178 143c-.88 4.88-.88 4.88-2 6-1.67.04-3.33.04-5 0l-1-2c-.41.82-.82 1.65-1.25 2.5-.58.82-1.16 1.65-1.75 2.5h-4v-2h-2v-5c5.81-1.51 11-2.22 17-2"/><path fill="#24302A" d="M108 29h5c.43 4.4.46 6.37-2.19 10-2.81 2-2.81 2-5.56 1.88C103 40 103 40 102 39q-.06-3 0-6l-4-1c3.07-1.53 5.7-.55 9 0z"/><path fill="#2E2F38" d="M202 155c.56 1.94.56 1.94 1 4-1 1-1 1-3.07 1.1-.82-.01-1.64-.03-2.49-.04-.83-.01-1.66-.02-2.51-.02-.63-.02-1.27-.03-1.93-.04v2c-5.67 1.23-11.24 1.09-17 1v-3c1.24.06 2.47.12 3.75.19 3.81.02 5.3-.75 8.25-3.19 3.78-.46 4.74-.17 8 2v-3c2-1 2-1 6-1"/><path fill="#39663D" d="M225 119h3v8c-1.67-.25-1.67-.25-3.38-.5-3.34-.55-3.34-.55-5.62-.5v2c-.57.11-1.13.22-1.71.33-.74.16-1.47.32-2.23.48-.73.15-1.46.3-2.21.46-.92.36-.92.36-1.85.73l-1 3h-5l-2-5 2-1v2h2v-2c1.09-.29 2.19-.58 3.31-.88 3.73-.94 3.73-.94 6.69-3.12 2.32-.39 4.66-.73 7-1z"/><path fill="#0E170B" d="m8.625 76.813 2.35-.04c2.03.23 2.03.23 4.03 2.23v3h5v1l-2.09.15c-.9.07-1.8.15-2.73.22-.89.07-1.78.14-2.7.21-2.73.28-2.73.28-5.48 2.42-.34-.99-.67-1.98-1-3h-6v-5c2.92-.84 5.58-1.16 8.62-1.19"/><path fill="#557636" d="M73 50h13l2 7c-1.36-.48-2.71-.96-4.11-1.46-9.71-2.17-19.14-2.08-29.08-2.23l-11.79-.2c-2.98-.03-5.95-.07-9.02-.11v-1h39z"/><path fill="#020302" d="m208 54 1 2h5c-.99.49-.99.49-2 1-.37 1.32-.69 2.66-1 4-.64 1.35-1.3 2.69-2 4l-6-2v-3c-1.98.35-1.98.35-4 1l-1 2h-2l-2-5h4l1-2h3v2h3v-2z"/><path fill="#19200C" d="M161 88h2l1 2c24.75.5 24.75.5 50 1v1l-8.19.08c-3.57.05-7.13.11-10.81.17l-10.69.14c-9.34.55-17.36 1.99-26.31 4.61l1-3h3z"/><path fill="#3C4F34" d="M109 55h7v5l6-1v2c-.61.04-1.23.07-1.86.11-.81.07-1.62.13-2.45.2-.8.06-1.6.12-2.43.18-2.65.6-3.45 1.57-5.26 3.51-2.19-.31-2.19-.31-4-1v-2l-6 1v-5l3-1v3h6z"/><path fill="#3D4C52" d="M224 37h4v6h-3v2l-31 3 1-2c2.29-.41 2.29-.41 5.06-.62 1.38-.12 1.38-.12 2.79-.23 1.06-.08 1.06-.08 2.15-.15v-2h8c1.36-.96 2.7-1.96 4-3l1 4h6c-.19-.97-.37-1.94-.56-2.94-.15-1.01-.29-2.02-.44-3.06z"/><path fill="#234A29" d="m8 158 5 1v7h2l1 5-5 1v-8H4l-2 4H0v-8h2v2c3.73-1.12 3.73-1.12 6-4"/><path fill="#4F6165" d="M149 147h4c-.33.54-.66 1.07-1 1.62-1.24 2.95-1.13 5.2-1 8.38v4l-10-1-1 4h-3v-8c2.85 0 5.22.44 8 1h3c-.01-.64-.02-1.28-.04-1.93 0-.83-.01-1.66-.02-2.51-.01-.82-.03-1.64-.04-2.49.1-2.07.1-2.07 1.1-3.07"/><path fill="#20261E" d="M207 153h8v6c-5.15 3.17-9.16 3.35-15 3l-1-2 3-1 1-2h4z"/><path fill="#466C43" d="M31 54h2l2 16h-3v-2c-.74.52-1.48 1.03-2.25 1.56C27 71 27 71 24.69 70.69c-.56-.23-1.12-.46-1.69-.69l-1-7 9 1 1-6h-3v-2h2z"/><path fill="#040805" d="M199 162c1.6-.03 3.21-.05 4.81-.06.9-.01 1.79-.03 2.71-.04 2.48.1 2.48.1 5.48 1.1v11h-3v-5h-2v-3l-3 1c-1.73-.08-3.46-.24-5.19-.44A384 384 0 0 1 194 166l1-2c1.98.5 1.98.5 4 1z"/><path fill="#3A3F42" d="M2 186c2.62.38 2.62.38 5 1 .62 2.31.62 2.31 1 5-.99 1.49-.99 1.49-2 3h6v1H6v2H0c-.05-1.62-.09-3.25-.12-4.88-.03-.9-.05-1.8-.08-2.74C0 188 0 188 2 186"/><path fill="#030704" d="m187 67 3 1v9h3v4h-4l-1-3c-.58.99-1.16 1.98-1.75 3-.74.99-1.49 1.98-2.25 3h-4v-4h3c.54-3.06 1-5.89 1-9h2l1 1z"/><path fill="#34514B" d="m0 61 7 2-2 10 4 1-2 2H0z"/><path fill="#0B121A" d="M226 9h2v4c-1.39.43-1.39.43-2.81.88-3.29 1.01-3.29 1.01-6.19 3.12-2.48.2-2.48.2-5.19.12-.9-.01-1.8-.03-2.73-.05-.69-.02-1.37-.05-2.08-.07v-3l-5 1v-2c2.35-.34 4.71-.67 7.06-1 1.31-.19 2.62-.37 3.98-.56 3.69-.41 7.25-.52 10.96-.44z"/><path fill="#0E1513" d="M18 195c-.99.5-.99.5-2 1v6c-1.88.62-1.88.62-4 1l-2-2c-2.57-.65-2.57-.65-5-1v2H0v-4h6v-2c4.06-.77 7.86-1.1 12-1"/><path fill="#162423" d="M108 27h10v2h2c.38 2.33.71 4.66 1 7-1 1-1 1-4.56 1.06L113 37c-1.12-5.75-1.12-5.75 0-8h-5z"/><path fill="#3D4F40" d="M23 159c2.14 3.21 3.79 6.48 5.5 9.94.61 1.22 1.22 2.45 1.84 3.71.55 1.11 1.1 2.21 1.66 3.35.67 1.33 1.33 2.67 2 4l-7-2v-4l-4 2c-2.46-8.07-2.46-8.07 0-13z"/><path fill="#19282D" d="M129 144h11l1 3 5-2-1 4c-3.08.29-3.08.29-6.15.59-.61.13-1.22.27-1.85.41l-1 2-5-1z"/><path fill="#527072" d="M106 50c.54.49 1.07.99 1.62 1.5 2.97 1.87 4.93 1.74 8.38 1.5v2h-7v5h-2c-.41-.49-.83-.99-1.25-1.5-2.52-2.16-4.54-1.71-7.75-1.5v3h-2c-2.09-4.43-2.09-4.43-1.62-7.31.2-.56.41-1.12.62-1.69h2l1 2h7z"/><path fill="#264B20" d="M225 43h3l-1 5c-1.56.48-3.12.96-4.69 1.44-.87.26-1.74.53-2.63.81-2.55.71-5.08 1.27-7.68 1.75v-6c2.64-1.32 4.68-1.1 7.62-1.06l3.04.02c.77.02 1.55.03 2.34.04z"/><path fill="#040A0A" d="M3 139h3v9c.91-.5 1.82-.99 2.75-1.5C12 145 12 145 16 145v6h-3v-2H5l-1 4-4-1v-4l3-2c.25-3.58.25-3.58 0-7"/><path fill="#122315" d="m130 130 3 1-2 11-4 1c-1.75-1.06-1.75-1.06-3-3-.19-3.19-.19-3.19 0-6l-3-1h8z"/><path fill="#232C38" d="m6 65 5 1c.93 3.01 1.04 3.87 0 7l4 1v2c-1.75.34-3.5.67-5.25 1-1.46.28-1.46.28-2.95.56C4 78 4 78 0 78v-2c1.13-.14 2.27-.29 3.44-.44C6.81 75.39 6.81 75.39 8 74l-3-1c-.12-5.75-.12-5.75 1-8"/><path fill="#040E04" d="M174 7h7v4l9 1-2 7h-2v-3h-7c-.45-1.11-.91-2.23-1.38-3.38-1.34-3.58-1.34-3.58-3.62-5.62"/><path fill="#2F5B3B" d="M5 178c2.49 1.2 4.68 2.45 7 4-.6 3.68-1.25 7.35-2 11l-3-1c-.5-2.47-.5-2.47-1-5l-6 1v-4h3v-2h2z"/><path fill="#2B4A2E" d="m0 170 8 2-1 6H5v4H3v2H0z"/><path fill="#2B3D3F" d="M26 186v2h2v2c.72-.47 1.44-.95 2.19-1.44 2.7-1.5 4.77-2.13 7.81-2.56v3l-6 1v2h-9v2l-10 1 1-2c2.65-.59 5.29-.74 8-1l-1-4c3-2 3-2 5-2"/><path fill="#030808" d="M188 164h5l-1 6c-5.62 1.12-5.62 1.12-9 0l-1 3h-9l1-3-3-2h5v3h3v-4l6-1v3h4z"/><path fill="#111D21" d="M175.75 162.813c.98.03 1.97.05 2.98.08.75.04 1.5.07 2.27.11l-1 3-5 1v-2h-3l-1 4-14 1v-3l1.83-.12c.8-.06 1.6-.13 2.42-.19.79-.06 1.58-.12 2.39-.18 2.45-.35 2.45-.35 4.3-2.04 2.73-1.95 4.5-1.78 7.81-1.66"/><path fill="#CDEF4C" d="m153 100 2 1c-2 3-2 3-5 5-.08.74-.16 1.48-.25 2.25-1.14 4.19-4.18 6.42-7.75 8.75-2.23.67-2.23.67-4 1 1.4-4.2 3.39-6.88 6.38-10.12.77-.85 1.54-1.7 2.33-2.58A45 45 0 0 1 153 100"/><path fill="#182427" d="M60.625 32.938c1.5.01 1.5.01 3.04.03l2.34.03c1.24 6.63 1.24 6.63-1 10l-5-1v-7h-4c-.66.66-1.33 1.32-2 2l-1-3c2.64-1.32 4.67-1.09 7.62-1.06"/><path fill="#0E1507" d="m160 10 7 1c-3.69 2.94-7.7 5.28-11.75 7.69-1.36.81-2.71 1.61-4.11 2.45-1.04.61-2.07 1.23-3.14 1.86-1.04-3.12-1.23-4.05 0-7 1.71-1.01 1.71-1.01 3.81-1.69.69-.23 1.38-.46 2.08-.7 2.03-.59 4.06-1.12 6.11-1.61z"/><path fill="#596C4E" d="M219 32c3 2 3 2 3.73 4.38.15.91.3 1.81.46 2.74.16.92.31 1.83.48 2.76.11.7.22 1.4.33 2.12-2.88.19-2.88.19-6 0l-2-3-3 2c-1-1-1-1-1.06-3.56L212 37l6-1z"/><path fill="#21302C" d="M180 16c2.47.5 2.47.5 5 1v4c.68-.11 1.35-.21 2.05-.32.89-.12 1.78-.24 2.7-.37.88-.13 1.76-.25 2.67-.38 3.14.09 4.3 1 6.58 3.07-2.47-.5-2.47-.5-5-1v2c-3.9 2.6-7.47 2.15-12 2-.2-3.72-.15-4.77 2-8h-2l-1 2z"/><path fill="#0B120B" d="M40 30v2h-2v2h2v2l2-1v-2c4.56.44 7.58.85 11 4-3.07 1.53-5.7.55-9 0v4h-6c-1.48-2.96-1.06-5.74-1-9l-4-1c4.75-1 4.75-1 7-1"/><path fill="#D2F64F" d="M103 71c4.28 1.75 5.3 3.9 7.18 7.96.93 2.32 1.51 4.56 1.82 7.04-3.99-2.17-7.12-4.46-10-8-.38-3.25-.38-3.25 0-6z"/><path fill="#1B2A1B" d="M122 58h10l2 9-4-1-1-3-2-1v-2h-4v3h-2l-1 3-2-3c-3.08-.25-3.08-.25-6 0l1-2h9z"/><path fill="#28373B" d="m25 41 3 1c2.06.07 4.13.08 6.19.06 1.08-.01 2.17-.02 3.29-.02.83-.02 1.66-.03 2.52-.04v4c-1.46.17-2.92.33-4.38.5-1.21.14-1.21.14-2.46.28C31 47 31 47 29 47v2l-3-1v-4l-3-1z"/><path fill="#101C13" d="M13 37c2.12.38 2.12.38 4 1v5c-.97.12-1.94.25-2.94.38-1.51.3-1.51.3-3.06.62l-1 2-2-1v-4l-8 3v-4c2.84-.67 5.25-1 8.19-.94 2.95.26 2.95.26 4.81-2.06"/><path fill="#457543" d="M226 21h2v6l-8 1-1 5-2-2c-2.58-.17-2.58-.17-5 0v-3l4-1v-2h8z"/><path fill="#1B2223" d="m4 163 7 1v6c-1.46.19-2.92.38-4.38.56-.81.11-1.62.21-2.46.32C2 171 2 171 0 170v-2h2z"/><path fill="#45613B" d="m93 56 3 2v2h2v-3c2.81-.62 2.81-.62 6-1l3 2v2h-4v-3c-.99.49-.99.49-2 1-.09 3.2.09 5.93 1 9-4.64-2.61-8.79-5.77-13-9z"/><path fill="#1F2C3F" d="M128 32c2.77.01 4.99 2.23 5 4a5 5 0 0 1-5 5c-2.21 0-3.99-1.79-4-5a4.01 4.01 0 0 1 4-4"/><path fill="#25472F" d="M56 34c1.98.49 1.98.49 4 1 .1 1.05.21 2.1.31 3.19.68 3.75 1.76 5.62 3.69 8.81.19 2.81.19 2.81 0 5l-3-1-1-2-3-1V38h-2z"/><path fill="#466243" d="m34 180 10 10c-2.97-.5-2.97-.5-6-1v-3c-2.92 1.07-4.78 1.78-7 4h-3v-2h-2v-2h2v-2l6-1z"/><path fill="#1A2830" d="M4 54c2.77.01 4.99 2.23 5 4a5 5 0 0 1-5 5c-2.21 0-3.99-1.79-4-5a4.01 4.01 0 0 1 4-4"/><path fill="#0A0E06" d="M125 12h5c0 4 0 4-1.5 5.75-.5.41-.99.82-1.5 1.25h3l1 3-4-1-1 7h-3v-2l-3-1h2v-3h2c1.04-3.38 1.08-6.48 1-10"/><path fill="#3D6865" d="m158 146 3 1v10l3 1-1 3h-2v2c-2.89-.4-3.82-.79-5.75-3.06-.41-.64-.82-1.28-1.25-1.94h3v-2h2c-.16-.64-.31-1.28-.47-1.93-.29-1.24-.29-1.24-.59-2.51-.2-.82-.4-1.64-.6-2.49-.11-.69-.22-1.37-.34-2.07z"/><path fill="#050D0B" d="M25 31h3l-1 3c-1.21.43-1.21.43-2.44.88-2.8.9-2.8.9-3.87 3.74-.34 1.18-.34 1.18-.69 2.38h-2v-3c-.78-.06-1.57-.12-2.38-.19-.86-.27-1.73-.53-2.62-.81-1.31-2.56-1.31-2.56-2-5l8 2v-2c2.97.49 2.97.49 6 1z"/><path fill="#315C31" d="M203 18c2.17.51 4 1 6 2l-.06 3.25c-.1 3.55-.1 3.55.68 6.06.13.56.25 1.12.38 1.69-2 2-2 2-5.12 2.12L202 33l2-2c.46-2.2.46-2.2.62-4.62.08-.82.15-1.64.23-2.48.05-.63.1-1.25.15-1.9l-3-1z"/><path fill="#3C6639" d="M141 160q3-.06 6 0c1 1 1 1 1.25 3.81-.27 3.47-.82 4.76-3.25 7.19h-2c-.12-.8-.25-1.61-.38-2.44-.3-1.27-.3-1.27-.62-2.56l-2-1z"/><path fill="#506A69" d="M169 153h2l1 3h11l1 3c-2.67 1.33-5.04 1.01-7.96.97-2.43.04-4.68.44-7.04 1.03-1.1-3.29-.8-4.71 0-8"/><path fill="#31414E" d="M197 144c2.77.01 4.99 2.23 5 4a5 5 0 0 1-5 5c-2.21 0-3.99-1.79-4-5a4.01 4.01 0 0 1 4-4"/><path fill="#1C2933" d="m40.563 189.25 2.32.2c2.49.65 3.48 1.6 5.12 3.55h-8v-2l-7 1 1 4h-3v-3l-8 1v-2h9v-2c3.01-.91 5.44-1.07 8.56-.75"/><path fill="#020603" d="m153.75 2.938 2.42.03 1.83.03v3c-2.02.43-4.04.85-6.05 1.27-2.32.66-2.32.66-3.95 3.73l-4-2 1-5c2.99-.87 5.64-1.11 8.75-1.06"/><path fill="#AED248" d="m136 36 2 2c-.03 2.73-.56 5.3-1 8l-3 1v18c-3.22-3.22-2.34-6.69-2.38-11.12l-.08-5.01c.49-5.18 1.85-8.41 4.46-12.87"/><path fill="#473960" d="M201 23c2.21.01 3.99 1.79 4 4-.01 2.21-1.79 4-4 4s-3.99-1.79-4-4a4.01 4.01 0 0 1 4-4"/><path fill="#050C06" d="M147 16c.93 3.01 1.04 3.87 0 7h-3v-2c-2.97-.5-2.97-.5-6-1v3l-5 2v-3h4v-3l-5-1v-1h9v2h3v-2z"/><path fill="#161F18" d="m20 153 1 3c-4.5 2.25-8.08 2.17-13 2l-1 3-5 1v-2l-2-1c1.67-.12 1.67-.12 3.38-.25 3.68-.33 3.68-.33 5.06-2.81.18-.64.37-1.28.56-1.94l4 3v-2z"/><path fill="#101D12" d="M192 50c.04 1.67.04 3.33 0 5-1 1-1 1-3.56 1.06L186 56v4h-3l1-9c2.93-.98 4.96-1.08 8-1"/><path fill="#32363A" d="m110 43 3 1c.95 2.07.95 2.07 1.69 4.56.25.83.5 1.66.76 2.51.18.63.36 1.27.55 1.93-1 1-1 1-3.44 1.19C110 54 110 54 108 52c.31-2.38.31-2.38 1-5 .19-.76.37-1.53.56-2.31.15-.56.29-1.12.44-1.69"/><path fill="#395736" d="m131 30 8 1c-.27.52-.53 1.04-.8 1.57-1.91 3.76-3.72 7.48-5.2 11.43h-3v-2h3c-.31-.91-.62-1.81-.94-2.75-2.25-6.88-2.25-6.88-1.06-9.25"/><path fill="#1E303C" d="M14 182c2.21.01 3.99 1.79 4 4-.01 2.21-1.79 4-4 4s-3.99-1.79-4-4a4.01 4.01 0 0 1 4-4"/><path fill="#4F7B4C" d="M192 150c1.11.19 2.23.37 3.38.56 3.45.76 3.45.76 5.62-.56 2.67-.13 5.32-.04 8 0-.99.5-.99.5-2 1l-1 3-15 2z"/><path fill="#233032" d="M215 128c2.77.01 4.99 2.23 5 5a5 5 0 0 1-5 5 5 5 0 0 1-5-5 5 5 0 0 1 5-5"/><path fill="#383132" d="M192 27c2.21.01 3.99 1.79 4 4-.01 2.21-1.79 4-4 4s-3.99-1.79-4-4a4.01 4.01 0 0 1 4-4"/><path fill="#050B07" d="M228 157c-.99.5-.99.5-2 1v4h-6l-1 3-1-4c-4.46.5-4.46.5-9 1l1-2c2.77-.85 2.77-.85 6.25-1.62 1.14-.27 2.28-.53 3.45-.79 2.87-.51 5.4-.71 8.3-.59"/><path fill="#335C40" d="M127.5 155.563c1.86 3.01 1.82 4.96 1.5 8.44-.99.49-.99.49-2 1v-4c-.91.12-1.81.25-2.75.37-1.61-.18-1.61-.18-3.25-.37-2.38-3-2.38-3-4-6 7.27-1.46 7.27-1.46 10.5.56"/><path fill="#293B37" d="M188 147c2.21.01 3.99 1.79 4 4-.01 2.21-1.79 4-4 4s-3.99-1.79-4-4a4.01 4.01 0 0 1 4-4"/><path fill="#283947" d="M223 125c2.21.01 3.99 1.79 4 4-.01 2.21-1.79 4-4 4s-3.99-1.79-4-4a4.01 4.01 0 0 1 4-4"/><path fill="#3C4D33" d="M122 34c2.21.01 3.99 1.79 4 4-.01 2.21-1.79 4-4 4s-3.99-1.79-4-4a4.01 4.01 0 0 1 4-4"/><path fill="#060903" d="M112 125c2.77.01 4.99 2.23 5 4a5 5 0 0 1-5 5c-2.21 0-3.99-1.79-4-5a4.01 4.01 0 0 1 4-4"/><path fill="#385B5A" d="M13 59h2l1 16c-2.48-.99-2.48-.99-5-2V63h2z"/><path fill="#181F17" d="m24 35 3 1-1 4c5.17-.41 5.17-.41 10-2-.88 3.88-.88 3.88-2 5q-3 .06-6 0c-3.89-.21-3.89-.21-7 1v-3h3c-.28-1.21-.28-1.21-.56-2.44-.15-.84-.29-1.69-.44-2.56z"/><path fill="#151D1F" d="M68 33c6.88 1.88 6.88 1.88 8 3 .25 2.94.25 2.94 0 6l-3 2v-3h-2v-2h-3z"/><path fill="#0A1605" d="M52 24c2.44.38 2.44.38 5 1l1 2h-2v2c-.6.13-1.21.27-1.83.4-.8.18-1.6.36-2.42.54-1.18.26-1.18.26-2.39.52-2.13.49-4.25 1-6.36 1.54l-1-2 1-2c2.07-.63 2.07-.63 4.56-1.12.83-.17 1.66-.34 2.51-.51.95-.18.95-.18 1.93-.37z"/><path fill="#2D342E" d="M145 150c2.21.01 3.99 1.79 4 4-.01 2.21-1.79 4-4 4s-3.99-1.79-4-4a4.01 4.01 0 0 1 4-4"/><path fill="#131F17" d="M195 48h7v6l4 1c-4.46.49-4.46.49-9 1v-2h-2z"/><path fill="#334A28" d="m39 47 2 2c2.2.46 2.2.46 4.62.62.82.08 1.64.15 2.48.23.63.05 1.25.1 1.9.15v-3h5v5H38z"/><path fill="#232947" d="M76 37h2v5l3 1v5l-5 1-1-3h-2z"/><path fill="#111C1C" d="M127 21c2.97.5 2.97.5 6 1v3l3-1v3h-2v2h-2v-6h-4c.33.6.66 1.2 1 1.81 1 2.19 1 2.19 1 5.19h-8l1-4v2h3z"/><path fill="#030704" d="M146 211c2.06.44 2.06.44 4 1l-1 4c-1.11.12-2.23.25-3.38.38-3.65.27-3.65.27-5.62 2.62h-4c.25-1.89.25-1.89 1-4 1.81-1.01 1.81-1.01 4-1.69 2.75-.74 2.75-.74 5-2.31"/><path fill="#0F1A0B" d="m182 162 3 1 1 5 3 1h-4v-3l-6 1v4h-3v-3h-4v-3c.93.28.93.28 1.88.56 2.16.68 2.16.68 4.12-.56l2 1z"/><path fill="#282F3D" d="M194 135c2.21.01 3.99 1.79 4 4-.01 2.21-1.79 4-4 4s-3.99-1.79-4-4a4.01 4.01 0 0 1 4-4"/><path fill="#070E0F" d="m127 126 3 1-1 6h-8v4c-2.75.69-2.75.69-6 1-2.38-1.44-2.38-1.44-4-3h9l-1-4 7 1-.06-2.44C126 127 126 127 127 126"/><path fill="#10201C" d="M101 62h5v2l6-1v4l-7 1-1 3c-3-6.75-3-6.75-3-9"/><path fill="#4A6E63" d="m209 134 2 2c4.14.2 7.08.31 11-1v5l-9-1 1 7h-2c-1.52-2.98-2.94-5.82-4-9z"/><path fill="#2B333B" d="M204 132c2.21.01 3.99 1.79 4 3-.01 2.21-1.79 4-4 4-1.66 0-3-1.34-3-4 0-1.66 1.34-3 3-3"/><path fill="#101913" d="M119 63v4h-5v6h-3v-5l-2-1h3v-4c3.01-.93 3.87-1.04 7 0"/><path fill="#050B04" d="M187 3h4v3h-3l-1 5h-6V7l-4-1h10z"/><path fill="#050905" d="M215 4v3c-.78.25-1.57.5-2.38.75-2.94 1.4-3.52 2.26-4.62 5.25h-4l-1-4h2l1-4c6.75-1 6.75-1 9-1"/><path fill="#282E4A" d="M24 179c2.21.01 3.99 1.79 4 4-.01 2.21-1.79 4-4 4s-3.99-1.79-4-4a4.01 4.01 0 0 1 4-4"/><path fill="#283B36" d="M217 138c2.21.01 3.99 1.79 4 4-.01 2.21-1.79 4-4 4s-3.99-1.79-4-4a4.01 4.01 0 0 1 4-4"/><path fill="#ADD144" d="M137 118c1 3 1 3 1 6h-2l-1 7h1v6h-2l-1 6h-1c-.56-8.76.57-15.89 4-24z"/><path fill="#182726" d="M55 41h2c1.12 4.75 1.12 4.75 0 7 .64.1 1.28.21 1.94.31.68.23 1.36.46 2.06.69l1 3h-7c-1.76-5.96-1.76-5.96-2-8z"/><path fill="#2D463D" d="M195 36c2.21.01 3.99 1.79 4 4-.01 2.21-1.79 4-4 4s-3.99-1.79-4-4a4.01 4.01 0 0 1 4-4"/><path fill="#030703" d="M132 14c2.77.01 4.99 2.23 5 5a5 5 0 0 1-5 5 5 5 0 0 1-5-5 5 5 0 0 1 5-5"/><path fill="#0D1107" d="M136 191c2 3 2 3 2 6h-2l1 7 4 1v1h-8l1-2c.31-3.11.51-6.23.72-9.35C135 192 135 192 136 191m4 0h2v4l-4-1z"/><path fill="#2E5126" d="m127 166 7 2v2h2l1 4-5 1c-.5-2.47-.5-2.47-1-5h-2l-1 2-2-5z"/><path fill="#313F3B" d="M177 150c2.21.01 3.99 1.79 4 4-.01 2.21-1.79 4-4 4s-3.99-1.79-4-4a4.01 4.01 0 0 1 4-4"/><path fill="#27322B" d="M154 147c2.21.01 3.99 1.79 4 3-.01 2.21-1.79 4-4 4-1.66 0-3-1.34-3-4 0-1.66 1.34-3 3-3"/><path fill="#2C3A2C" d="M209 118h1l1 5 1-1c1.67-.04 3.33-.04 5 0-2.12 2.56-2.12 2.56-5 5-3.31-.19-3.31-.19-6-1 .55-3.37 1.05-5.08 3-8"/><path fill="#233329" d="M29 68c3.05.24 4.56.56 6.75 2.75 1.35 2.44 1.87 4.5 2.25 7.25l-5-1 1-5-8 1c1.88-3.88 1.88-3.88 3-5"/><path fill="#3E4650" d="M123 49c2.21.01 3.99 1.79 4 4-.01 2.21-1.79 4-4 4s-3.99-1.79-4-4a4.01 4.01 0 0 1 4-4"/><path fill="#090906" d="M63 23c7.12-.66 13.31 1.75 20 4v1c-7.47.37-13.82-.96-21-3z"/><path fill="#25344F" d="M138 164c2.77.01 4.99 2.23 5 4a5 5 0 0 1-5 5c-2.21 0-3.99-1.79-4-5a4.01 4.01 0 0 1 4-4"/><path fill="#2E3543" d="M18 62c2.21.01 3.99 1.79 4 3-.01 2.21-1.79 4-4 4-1.66 0-3-1.34-3-4 0-1.66 1.34-3 3-3"/><path fill="#152034" d="m77 32 1 2c3.52.08 6.62.04 10-1l-1 4c-4.66 1.11-7.6.95-12-1l-1-2z"/><path fill="#153212" d="m30 76-1 4h-8v2h-5v-4l8 1-1-3c3.01-.93 3.87-1.04 7 0"/><path fill="#263332" d="M28 58c2.21.01 3.99 1.79 4 4-.01 2.21-1.79 4-4 4s-3.99-1.79-4-4a4.01 4.01 0 0 1 4-4"/><path fill="#222939" d="M97 33c3.94 3.32 3.94 3.32 4.25 6.75-.08.74-.17 1.48-.25 2.25l-3 1v-2l-3 1-1-8z"/><path fill="#2D3239" d="m66 33 3 1-1 5 3 1h-2v6l-5 1-2-4 3-1c.72-4.48.72-4.48 1-9"/><path fill="#071005" d="M38 194q2.94-.075 5.88-.12l3.3-.08C50 194 50 194 52 196l-3 1-1 7h-4l1-4h2v-4l-9-1z"/><path fill="#283A3D" d="M137 154v8c-4.88-.88-4.88-.88-6-2-.04-1.67-.04-3.33 0-5 2-1 2-1 6-1"/><path fill="#325D44" d="M215 128c-.64.27-1.28.54-1.94.81-2.39 1.08-2.39 1.08-3.06 4.19h-5l-2-5 2-1v2h2v-2c4.62-1.25 4.62-1.25 8 1"/><path fill="#4E6D38" d="m205 124 1 2 2 1-1 2-3-1v4c-2.5 2.25-2.5 2.25-5 4l-4-2c.91-.72 1.81-1.44 2.75-2.19 2.82-2.34 5.06-4.86 7.25-7.81"/><path fill="#090D05" d="M150.313 68.313c.84.34.84.34 1.69.69l-1 3h-2v2h5v1c-4.46.49-4.46.49-9 1l-2-5c4.43-3.08 4.43-3.08 7.31-2.69"/><path fill="#3B4B6B" d="M185 40c2.21.01 3.99 1.79 4 4-.01 2.21-1.79 4-4 4s-3.99-1.79-4-4a4.01 4.01 0 0 1 4-4"/><path fill="#131909" d="M49 92c1 .55 2 1.11 3.04 1.68l4.02 2.2c1.97 1.07 1.97 1.07 3.98 2.17 3.64 1.79 7.03 2.98 10.96 3.95l-4 2-1-2-4 1-1-3c-.78-.14-1.57-.29-2.38-.44C56 99 56 99 54 98v-2h-4z"/><path fill="#17212A" d="M3 45c1.66 0 3 1.34 3 3s-1.34 3-3 3-3-1.34-3-3 1.34-3 3-3"/><path fill="#597274" d="M196 32h6v10l-4 1 .06-2.31c.07-2.79.07-2.79-1.06-5.69l-2-1z"/><path fill="#1B301B" d="M208 154h2l-1 8h-9l-1-2 3-1 1-2h4z"/><path fill="#3E4A5D" d="M205 43h9v3l-20 2 1-2c2.29-.41 2.29-.41 5.06-.62.92-.08 1.84-.15 2.79-.23L205 45z"/><path fill="#1D3522" d="M33 32h4l1 9h3v6h-2l-1 2v-3h2v-4l-6 1c.21-.76.41-1.53.62-2.31.71-2.91.71-2.91-1.62-5.69z"/><path fill="#0B0E16" d="m220 12-4 1v2h-2l-1 2h-4v-3l-5 1v-2c1.91-.36 3.83-.72 5.75-1.06 1.07-.2 2.13-.4 3.23-.6 2.77-.31 4.43-.24 7.02.66"/><path fill="#202C45" d="M3 186c2.21.01 3.99 1.79 4 3-.01 2.21-1.79 4-4 4-1.66 0-3-1.34-3-4 0-1.66 1.34-3 3-3"/><path fill="#244527" d="m8 158 4 1H9l1 5H4l-2 4H0v-8h2v2c3.73-1.12 3.73-1.12 6-4"/><path fill="#3A6A5C" d="m138 155 8 4v1h-5l-1 4h-3c-.1-6.15-.1-6.15 0-8z"/><path fill="#3A6443" d="m150 151 2 4c3.93-.57 3.93-.57 7-3v4h-2v2h-3l-1 4h-2z"/><path fill="#467365" d="M179 144h3v2h10l1 4-3-2c-2.87.31-5.53.87-8.31 1.62-.56.13-1.12.25-1.69.38-1-1-1-1-1.06-3.56z"/><path fill="#29382E" d="M185 140c2.21.01 3.99 1.79 4 4-.01 2.21-1.79 4-4 4s-3.99-1.79-4-4a4.01 4.01 0 0 1 4-4"/><path fill="#333F14" d="M110 79c.99.5.99.5 2 1v2l3 1c1.15 6.34 1.1 12.57 1 19h-1l-.08-2.05c-.38-6.24-1.52-11.25-4.08-16.95-.84-2-.84-2-.84-4"/><path fill="#09130C" d="M31 32h2c1.43 2.35 2.09 3.48 1.62 6.25-.2.58-.41 1.16-.62 1.75h-8l1-5c1.98.49 1.98.49 4 1z"/><path fill="#3E5C48" d="M114 146h6c-1.75 4.88-1.75 4.88-4 6l-2-1-1 2-3-4 4-1z"/><path fill="#10170C" d="M28 73h5v4c2.97.5 2.97.5 6 1l-1 2h-9l1-4h-2z"/><path fill="#284C46" d="m29 52 4 2h-2v2h-2v2c-.62.27-1.24.54-1.88.81C24.7 59.96 24.7 59.96 23 63v-6l-4-1 2-2v2c2.35-.6 4.69-1.27 7-2z"/><path fill="#162346" d="M15 52c2.21.01 3.99 1.79 4 4-.01 2.21-1.79 4-4 4s-3.99-1.79-4-4a4.01 4.01 0 0 1 4-4"/><path fill="#131B0D" d="M228 47v6l-12-1c3.45-3.45 6.92-5 12-5"/><path fill="#33355B" d="M212 21c2.21.01 3.99 1.79 4 4-.01 2.21-1.79 4-4 4s-3.99-1.79-4-4a4.01 4.01 0 0 1 4-4"/><path fill="#151E09" d="m68 203 17 2v1h-9l-1 2-7-1z"/><path fill="#3B643B" d="M161 150h2v2l6-1c0 2 0 2-1.38 3.62C166 156 166 156 164 156l-1 2c-1.56-1.19-1.56-1.19-3-3 .31-2.69.31-2.69 1-5"/><path fill="#212923" d="M122 149c2.21.01 3.99 1.79 4 4-.01 2.21-1.79 4-4 4s-3.99-1.79-4-4a4.01 4.01 0 0 1 4-4"/><path fill="#243C2E" d="M101 57h2v3h4v2l6-1-3 4-4-1v-2l-6 1c-.04-1.67-.04-3.33 0-5z"/><path fill="#18262A" d="M63 47h8v5h-7c-.49-2.48-.49-2.48-1-5"/><path fill="#273056" d="M117 40h2l1 3c2.02.73 2.02.73 4 1l-1 3c-1.99.38-3.99.71-6 1-1-1-1-1-1.12-4 .12-3 .12-3 1.12-4"/><path fill="#314349" d="M204 36c2.21.01 3.99 1.79 4 3-.01 2.21-1.79 4-4 4-1.66 0-3-1.34-3-4 0-1.66 1.34-3 3-3"/><path fill="#2A4053" d="M215 30c2.21.01 3.99 1.79 4 3-.01 2.21-1.79 4-4 4-1.66 0-3-1.34-3-4 0-1.66 1.34-3 3-3"/><path fill="#2F562E" d="M153 160c2 3.75 2 3.75 2 6l3 1-1 4h-3v-2h-3v-7h2z"/><path fill="#1A2A34" d="M202 155c.56 1.94.56 1.94 1 4-1 1-1 1-3.29 1.1l-2.77-.04c-.92-.01-1.84-.02-2.79-.02-.71-.02-1.42-.03-2.15-.04l1-3c1.49.99 1.49.99 3 2v-3c2-1 2-1 6-1"/><path fill="#223341" d="M135 144h5l1 3 5-2-1 4c-4.46.5-4.46.5-9 1z"/><path fill="#172529" d="m117 136 4 2-1 7-5-1c-.12-2.88-.12-2.88 0-6z"/><path fill="#D1F34E" d="M90 139c5.85.45 10.08 3.04 15 6v1h-6v-2c-.74-.12-1.48-.25-2.25-.38-2.55-.57-4.48-1.36-6.75-2.62z"/><path fill="#343633" d="M114 137h1c.14 7.43.14 7.43-1 11-2.25.69-2.25.69-5 1-2.31-1.31-2.31-1.31-4-3v-2c5.75.88 5.75.88 8 2z"/><path fill="#061107" d="M75 127h3v4h-2l1 3-12-1v-3l10 2z"/><path fill="#21361F" d="M223 112h3l2 7h-3l-1 4-7 1c.64-.1 1.28-.21 1.94-.31 1.02-.34 1.02-.34 2.06-.69l1-3h2z"/><path fill="#0C180A" d="M225 107h3v11l-2-1v-5h-3v4l-3-1 2-5h5v-2z"/><path fill="#020407" d="M220 53h3c-.19 1.07-.37 2.15-.56 3.25-.37 3.15-.48 4.85.56 7.75-.62-.19-1.24-.37-1.88-.56-2.16-.68-2.16-.68-4.12.56l-1-3h3z"/><path fill="#5D7382" d="M219 32c3 2 3 2 3.73 4.38.15.91.3 1.81.46 2.74.24 1.37.24 1.37.48 2.76.16 1.05.16 1.05.33 2.12h-6c.16-.87.33-1.73.5-2.62.47-3.19.58-6.16.5-9.38"/><path fill="#547236" d="m180 17 4 1-2 9h3v2h2v2l-5-1-1 4z"/><path fill="#050F02" d="m140 180 2 2c-1.28 1.71-2.62 3.37-4 5h-2l-2 2v-7z"/><path fill="#446650" d="M126 150h3c1.42 3.82 2.24 6.91 2 11-.99.5-.99.5-2 1-.31-.8-.62-1.61-.94-2.44-.82-2.45-.82-2.45-2.06-3.56q-.06-3 0-6"/><path fill="#020504" d="M51 124h5l2 8c-2.48-.99-2.48-.99-5-2v-2h-2z"/><path fill="#41565E" d="m22 63 7 1-1 3h-2v4l-3-1z"/><path fill="#151E18" d="M29 193v3h-2l-1 3h-4v-4l-4-1c7.62-1 7.62-1 11-1"/><path fill="#3E5730" d="M27 169c2.39 2.96 4.74 5.94 7 9l-1 2-6-2v-4h-2v-2h2z"/><path fill="#385435" d="m206 153 1 4h-5v-2l-6 1v3l-4-2 1-2c2.94-.63 2.94-.63 6.56-1.12 1.2-.17 2.4-.34 3.63-.51.93-.12 1.86-.25 2.81-.37"/><path fill="#43616F" d="m106 50 1.62 1.5c2.97 1.87 4.93 1.74 8.38 1.5v2h-7v5h-2c-1.62-2-1.62-2-3-4h3v-2l-2-1z"/><path fill="#5D776F" d="M115 48h4l1 9-3 2-3-10z"/><path fill="#20302E" d="M101 46c1.66 0 3 1.34 3 3s-1.34 3-3 3-3-1.34-3-3 1.34-3 3-3"/><path fill="#050D05" d="M197 0c2.21.01 3.99 1.79 4 3-.01 2.21-1.79 4-4 4-1.66 0-3-1.34-3-4 0-1.66 1.34-3 3-3"/><path fill="#030603" d="M1 214h7v3l-7-1zm1 3 7 1v2H2z"/><path fill="#030805" d="m156 182 2 1v3h5c-.19 1.88-.19 1.88-1 4-2.56 1.25-2.56 1.25-5 2v-3h2v-2h-3v-3l-2-1z"/><path fill="#243550" d="M148 161h3c.62 2.81.62 2.81 1 6-.99 1.49-.99 1.49-2 3l-4-1z"/><path fill="#463C36" d="m207.563 140.938 2.44.06c.04 1.67.04 3.34 0 5-1 1-1 1-3.56 1.06l-2.44-.06a93 93 0 0 1 0-5c1-1 1-1 3.56-1.06"/><path fill="#537F71" d="M180 34h1c.2 1.77.38 3.54.56 5.31.11.99.21 1.97.32 2.99C182 45 182 45 181 48h-2c-1.62-2.5-2.07-3.59-1.54-6.58.3-.88.6-1.76.92-2.67.29-.89.59-1.78.89-2.7.24-.68.48-1.35.73-2.05"/><path fill="#0F1818" d="m60.125 32.938 2.76.03 2.12.03-1 6h-3v-4c-2.42-.16-2.42-.16-5 0-.66.66-1.33 1.32-2 2l-1-3c2.52-1.26 4.31-1.1 7.12-1.06"/><path fill="#1C241D" d="M175.688 162.875c1.49.03 1.49.03 3.01.05.76.03 1.52.05 2.3.07-.33 1-.66 1.98-1 3-1.65.34-3.3.66-5 1v-2h-3c-.33 1-.66 1.98-1 3v-2c-1.32-.33-2.64-.65-4-1 3.42-2.28 4.68-2.21 8.69-2.12"/><path fill="#4D601F" d="M71 134c6-.22 11.19.49 17 2v-2h2l2 5-21-4z"/><path fill="#232B0F" d="m134 67 2 1c.62 2.56.62 2.56 1 5l6-1-1 2h-5l1 5h-2v-2h-2l1-5-2-1z"/><path fill="#2A5433" d="M58 44h5c1 5.75 1 5.75 1 8l-3-1-1-2-3-1z"/><path fill="#1F2749" d="M45 42c2.21.01 3.99 1.79 4 4-.01 2.21-1.79 4-4 4s-3.99-1.79-4-4a4.01 4.01 0 0 1 4-4"/><path fill="#213D2B" d="M8 41 7 51H6c-.5-2.48-.5-2.48-1-5H0c1.55-4.65 3.21-5 8-5"/><path fill="#2D5842" d="M120 36v3l-3 2c-.25 3.58-.25 3.58 0 7l-3 1c-.5-2.48-.5-2.48-1-5h2l-1-7z"/><path fill="#2E3C3A" d="M157 159c2.21.01 3.99 1.79 4 3-.01 2.21-1.79 4-4 4-1.66 0-3-1.34-3-4 0-1.66 1.34-3 3-3"/><path fill="#2A4E30" d="M207 151h9c1.26 2.91 2 4.8 2 8h-3v-6h-8z"/><path fill="#060B05" d="m134 118 2 1c-.61 3.56-1.58 6.68-3 10h-2c-.8-3.29-1.1-4.71 0-8l3-1z"/><path fill="#090C05" d="M65 28h3v3h6v2H58v-2l7 1z"/><path fill="#446E56" d="M226 21h2v6l-8 1-1-3h5z"/><path fill="#030404" d="m0 204 1 2h4l1 6H3v-2l-3 1z"/><path fill="#1C272C" d="M15 195v5l-4-1v-2H7v2H0v-1h6v-2c3.06-.54 5.89-1 9-1"/><path fill="#3E6B51" d="m11 189 5 1c-1.06 2.5-1.06 2.5-3 5-3.69.31-3.69.31-7 0v-2h4z"/><path fill="#061007" d="M163 169h8c-.99.5-.99.5-2 1l1 5-5-1v-3h-2z"/><path fill="#B3D143" d="m153 100 2 1c-2 3-2 3-5 4l-1 2-1 2-3 1-1 2-2-1c1.08-1.28 2.16-2.54 3.25-3.81.6-.71 1.21-1.42 1.83-2.15 1.84-1.96 3.72-3.5 5.92-5.04"/><path fill="#325351" d="m0 61 7 2-2 9H4v-6H0z"/><path fill="#2B3F18" d="M193 48h2v6h2l-1 3h-4c-.1-6.15-.1-6.15 0-8z"/><path fill="#09120B" d="M88 133h5v3h8v2H91c-.12-.64-.25-1.28-.38-1.94-.2-.68-.41-1.36-.62-2.06z"/><path fill="#040806" d="M123 111c2.47.5 2.47.5 5 1v3h-2l-1 6h-2z"/><path fill="#0B1B15" d="M105 19h4l1 8h-4z"/><path fill="#3F6036" d="m9 181 3 1c-.6 3.68-1.25 7.35-2 11l-3-1c1-7.43 1-7.43 2-11"/><path fill="#323942" d="M223 136c2.47.5 2.47.5 5 1v6h-4z"/><path fill="#334059" d="m94 52 1 3c-2 2-2 2-4.62 2.12L88 57l-2-4 2.88.06c3.03.17 3.03.17 5.12-1.06"/><path fill="#31561E" d="m214 45 4 3-2 4h-4v-6z"/><path fill="#5C8085" d="M210 33c2.39 3.83 2.56 7.6 3 12-1.95-.71-1.95-.71-4-2-.61-2.16-.61-2.16-.75-4.62-.06-.82-.11-1.64-.17-2.48-.03-.63-.05-1.25-.08-1.9z"/><path fill="#22344A" d="m182 30 3 1c.62 2.38.62 2.38 1 5l-2 2h-3z"/><path fill="#1F1D14" d="M205 14h4v3l4 1c-1 1-1 1-3.94 1.12C206 19 206 19 204 18z"/><path fill="#12210F" d="m160 10 7 1c-3.12 2.52-6.38 4.27-10 6l1-5h2z"/><path fill="#1F2A42" d="M2 177h3v5H3v2H0c-.12-2.38-.12-2.38 0-5z"/><path fill="#162A1F" d="M9 170c2.21.01 3.99 1.79 4 4-.01 2.21-1.79 4-4 4s-3.99-1.79-4-4a4.01 4.01 0 0 1 4-4"/><path fill="#2C3D49" d="M167 153h2v8l-5-1v-4h2z"/><path fill="#3C4E31" d="m129 150 7 2 1-2 1 6-1-2-7 2z"/><path fill="#3D4632" d="M226 145h2v8h-4c.88-5.75.88-5.75 2-8"/><path fill="#C4E64E" d="M81 55c1.65.45 3.29.91 4.94 1.38.91.25 1.83.51 2.77.77C91 58 91 58 92 60H82c-.5-2.48-.5-2.48-1-5"/><path fill="#090B08" d="m207 53 2 1-4 2v2h-3v-2h-3l-1 3-4-2c2.71-1.69 5.07-2.22 8.19-2.56 3.59-.01 3.59-.01 4.81-1.44"/><path fill="#040A04" d="M9 33c2.21.01 3.99 1.79 4 3-.01 2.21-1.79 4-4 4-1.66 0-3-1.34-3-4 0-1.66 1.34-3 3-3"/><path fill="#18254C" d="M107 32c2.21.01 3.99 1.79 4 3-.01 2.21-1.79 4-4 4-1.66 0-3-1.34-3-4 0-1.66 1.34-3 3-3"/><path fill="#3E3F37" d="M223 27h5v6h-4z"/><path fill="#C9ED4D" d="M180 21h1v13c-3.32-4.42-3.3-5.72-3-11h2z"/><path fill="#356134" d="m190 26-2 7h-3v-2h2v-2h-2v-2l-3-1c2.86-1.43 4.93-.6 8 0"/><path fill="#020504" d="M126 213c2.38.25 2.38.25 5 1 1.31 2.06 1.31 2.06 2 4h-2v2h-4c0-2 0-2 2-4l-3-1z"/><path fill="#192522" d="M16 170h6v4l-6 1z"/><path fill="#284133" d="m185 159 2 1-1 2c-2.29.41-2.29.41-5.06.62-.92.08-1.84.15-2.79.23L176 163v-3l3.94.06c1.35.02 2.71.01 4.06-.06z"/><path fill="#1D2522" d="M106 141h6l1 5-8-2z"/><path fill="#081406" d="m128 120 3 1v8l2 1h-3l-1-3-2-1c-.04-1.67-.04-3.33 0-5z"/><path fill="#040805" d="M224 103c2.21.01 3.99 1.79 4 3-.01 2.21-1.79 4-4 4-1.66 0-3-1.34-3-4 0-1.66 1.34-3 3-3"/><path fill="#030806" d="M146 78c2.21.01 3.99 1.79 4 4-.01 2.21-1.79 4-4 4s-3.99-1.79-4-4a4.01 4.01 0 0 1 4-4"/><path fill="#323E16" d="M162 61v2c-3.76 3.76-6.76 4.59-12 5 1.75-2 1.75-2 4-4h4v-2c2-1 2-1 4-1"/><path fill="#28322F" d="M88 49h5l1 4c-3.01.93-3.87 1.04-7 0z"/><path fill="#010501" d="M204 3c2.21.01 3.99 1.79 4 4-.01 2.21-1.79 4-4 4s-3.99-1.79-4-4a4.01 4.01 0 0 1 4-4"/><path fill="#020904" d="M186 197c1.66 0 3 1.34 3 3s-1.34 3-3 3-3-1.34-3-3 1.34-3 3-3"/><path fill="#323C58" d="M123 157c1.67-.04 3.33-.04 5 0 1 1 1 1 1.06 4.06L129 164c-.99.5-.99.5-2 1v-4l-5-1z"/><path fill="#3A425A" d="M191 148c.62 1.88.62 1.88 1 4l-2 2-1-3-5-1v-2c2.67-1.33 4.17-.67 7 0"/><path fill="#397043" d="M224 141c2.21.01 3.99 1.79 4 4-.01 2.21-1.79 4-4 4s-3.99-1.79-4-4a4.01 4.01 0 0 1 4-4"/><path fill="#0E1209" d="m150 98 5 1c-3.02 3.26-6.26 5.62-10 8l1-5h4z"/><path fill="#0B0C06" d="M105 68h6l-1 4-4 1c-.5-2.47-.5-2.47-1-5"/><path fill="#627D75" d="M127 51h2c2.14 2.14 2.43 3.13 3 6h-6z"/><path fill="#3E3361" d="M110 43c-.55 3.37-1.05 5.08-3 8-1.46-2.65-2-3.89-2-7 2-1 2-1 5-1"/><path fill="#1D2E30" d="m212 18 1 2 3 1-1 3-3-1v-2h-2l-1 3-1-2 1-2-2-1z"/><path fill="#080C07" d="M193 216h5v3l4 1h-10z"/><path fill="#030904" d="M166 203c1.66 0 3 1.34 3 3s-1.34 3-3 3-3-1.34-3-3 1.34-3 3-3"/><path fill="#252948" d="m2 166 4 1v4c-2.97-.5-2.97-.5-6-1v-2h2z"/><path fill="#040B04" d="M219 166h8v2l-9 2z"/><path fill="#493A30" d="M170 143h8v4h-5l-1-3z"/><path fill="#0F1B28" d="m111 136-2 4h-6l-1-2c3.13-1.86 5.37-2.2 9-2"/><path fill="#0A0A04" d="M98 128h7v6l-4 1c.06-.78.12-1.57.19-2.38-.06-.86-.13-1.73-.19-2.62z"/><path fill="#0A0908" d="m127 124-1 8-3-1c-.5-2.47-.5-2.47-1-5 3-2 3-2 5-2"/><path fill="#050B05" d="M103 117h5v3h-4v2l-4-1v-2h3z"/><path fill="#4C644D" d="m12 67 4 2v6c-2.48-.99-2.48-.99-5-2z"/><path fill="#34583A" d="M21 67h2l1 4-9 2 1-4h5z"/><path fill="#33513F" d="m31 64 4 4-1 2h-2v-2l-6 3v-4c2.5-1.75 2.5-1.75 5-3"/><path fill="#172C10" d="M131 59c1.41 2.64 2.37 5.07 3 8-1.94-.31-1.94-.31-4-1l-1-3-2-1v-2z"/><path fill="#30404E" d="M109 55h7v2c-1.81 1.69-1.81 1.69-4 3l-3-1z"/><path fill="#38592D" d="M183 51v1c-4.46.49-4.46.49-9 1l-1 3-4-1c4.12-4.77 7.99-5.4 14-4"/><path fill="#395F42" d="m112 49 4 2-1 3c-2.38.19-2.38.19-5 0l-2-3h4z"/><path fill="#2B512A" d="m39 47 2 2c2.2.68 2.2.68 4.62 1.12.82.17 1.64.34 2.48.51.63.12 1.25.25 1.9.37v1H38z"/><path fill="#294D2B" d="M89 34c1.98.49 1.98.49 4 1v7l-5-4z"/><path fill="#122612" d="M76 29h3c-.38 1.94-.38 1.94-1 4-2.62 1.31-4.23.9-7.12.56-.92-.1-1.83-.2-2.76-.31-.7-.08-1.4-.16-2.12-.25v-1l8 1z"/><path fill="#26331B" d="M142 23h5c-.95 1.15-1.91 2.29-2.88 3.44-.53.64-1.06 1.27-1.61 1.93C141 30 141 30 139 31v-2h-2v-2h4z"/><path fill="#101D12" d="M141 20c1.66 0 3 1.34 3 3s-1.34 3-3 3-3-1.34-3-3 1.34-3 3-3"/><path fill="#3B562F" d="M214 16c1.98.5 1.98.5 4 1v8h-2c-.12-.64-.25-1.28-.38-1.94-.2-.68-.41-1.36-.62-2.06l-2-1z"/><path fill="#0A0603" d="m220 211 3 4-1 2-5-1-1 3-1-3 2-3h3z"/><path fill="#A2BC3C" d="M61 200h10l1 2 3 2c-4.97-.41-9.45-.8-14-3z"/><path fill="#3D3C3B" d="M145 161h3v6l-3 1c-.38-1.99-.71-3.99-1-6z"/><path fill="#4B4039" d="M125 160c1.66 0 3 1.34 3 3s-1.34 3-3 3-3-1.34-3-3 1.34-3 3-3"/><path fill="#2D4328" d="m22 156 1 5-7-1v-3c2.08-.55 3.84-1 6-1"/><path fill="#02070B" d="M5 147v6l-5-1v-4c2-1 2-1 5-1"/><path fill="#315734" d="M154 144h9c-.99.5-.99.5-2 1l-1 2h-9l3-1z"/><path fill="#254423" d="M121 134h3c.2 2.05.39 4.1.59 6.15.13.61.27 1.22.41 1.85l2 1-4 1v-6h-2z"/><path fill="#284835" d="M213 128h6c.69 1.75.69 1.75 1 4-1.44 2.25-1.44 2.25-3 4v-2h-3c0-2 0-2 1.5-3.62L217 129z"/><path fill="#3C6932" d="M225 119h3v8l-4-2z"/><path fill="#121B31" d="M221 116c1.66 0 3 1.34 3 3s-1.34 3-3 3-3-1.34-3-3 1.34-3 3-3"/><path fill="#20361D" d="m212 112 1 2h2v5l-4 1c-.93-2.61-1.15-3.64-.06-6.25.35-.58.7-1.16 1.06-1.75"/><path fill="#030B04" d="m220 64 2 1v7h-2l-1 2q-.045-2.22-.06-4.44c-.01-.82-.03-1.64-.04-2.49C219 65 219 65 220 64"/><path fill="#050D05" d="M216 55c2.21.01 3.99 1.79 4 4-.01 2.21-1.79 4-4 4s-3.99-1.79-4-4a4.01 4.01 0 0 1 4-4"/><path fill="#365A41" d="m102 46 4 1q.06 3 0 6c-1 1-1 1-4.56 1.06L98 54v-1h5l1-6z"/><path fill="#53714A" d="M84 50c2.21.01 3.99 1.79 4 4-.01 2.21-1.79 4-4 4s-3.99-1.79-4-4a4.01 4.01 0 0 1 4-4"/><path fill="#16242D" d="M36 46c1.66 0 3 1.34 3 2 0 1.66-1.34 3-3 3-1.11 0-2-.89-2-3 0-1.11.89-2 2-2"/><path fill="#436841" d="m126 46 1 5-1-2c-2.44.27-2.44.27-5 1l-2 3v-5c2.65-1.46 3.89-2 7-2"/><path fill="#20294F" d="M86 42c2.47.99 2.47.99 5 2v2l-6 1c0-4 0-4 1-5"/><path fill="#192654" d="M118 32c1.66 0 3 1.34 3 3s-1.34 3-3 3-3-1.34-3-3 1.34-3 3-3"/><path fill="#0B0D18" d="M42 33c4.56.44 7.58.85 11 4-2 1-2 1-4.16.44-.82-.29-1.63-.58-2.46-.88-.82-.28-1.64-.57-2.48-.87-.63-.23-1.25-.45-1.9-.69z"/><path fill="#254C25" d="M108 29h5v7c-2 0-2 0-4.12-2L107 32z"/><path fill="#141910" d="M127 21c2.97.5 2.97.5 6 1v3l3-1v3h-2v2h-2v-6l-5 1z"/><path fill="#040304" d="M11 204c1.66 0 3 1.34 3 3s-1.34 3-3 3-3-1.34-3-3 1.34-3 3-3"/><path fill="#020803" d="M169 183c3.38-.12 3.38-.12 7 0l2 2c-2.96 1.48-5.74 1.06-9 1z"/><path fill="#3E5633" d="M17 181h3c.19 1.45.19 1.45.38 2.94.3 1.51.3 1.51.62 3.06l2 1-6 1z"/><path fill="#1B391F" d="m146 169 1 3c-3.29 1.1-4.71.8-8 0v2h-2l-1-3 1.93-.18c1.24-.13 1.24-.13 2.51-.26.82-.08 1.64-.16 2.49-.24 2.06-.11 2.06-.11 3.07-1.32"/><path fill="#141006" d="M199 162h10v2l-10 1z"/><path fill="#1A2938" d="M207 153h5v6h-3l1-5h-2v5h-1z"/><path fill="#1B2426" d="M95 137c2.97.5 2.97.5 6 1l-1 3-7-1z"/><path fill="#232850" d="M55 41h2c1.12 4.75 1.12 4.75 0 7l-4-2z"/><path fill="#3A302F" d="M88 39c2.67 1.33 5.33 2.67 8 4-3.31.69-3.31.69-7 1-1.94-1.44-1.94-1.44-3-3z"/><path fill="#1E3B20" d="m118 25 4 1 1 8h-2c-.5-2.48-.5-2.48-1-5h-2z"/><path fill="#080B12" d="M115 23h7v2h-4v2h-5z"/><path fill="#091707" d="M211 7c2.06.44 2.06.44 4 1l-2 4h-5c1.88-3.88 1.88-3.88 3-5"/><path fill="#050907" d="M225 4h3v5h-2l-1 2-2-4z"/><path fill="#13180E" d="M226 216h2v4h-11c3.77-1.88 5.03-2.22 9-2z"/><path fill="#352F43" d="m15 177-1 3-5 1-2-3c2.93-.98 4.96-1.08 8-1"/><path fill="#141E17" d="M154 169v2l2 1-10 1 1-3c3-1 3-1 7-1"/><path fill="#131F1C" d="M19 161h2v6l-4 1c.88-5.88.88-5.88 2-7"/><path fill="#464465" d="M154 158h6l1 5c-2.89-.4-3.82-.79-5.75-3.06-.41-.64-.82-1.28-1.25-1.94"/><path fill="#41456B" d="M169 153h2l1 7h-4z"/><path fill="#213531" d="M146 150c1.66 0 3 1.34 3 3s-1.34 3-3 3-3-1.34-3-3 1.34-3 3-3"/><path fill="#0E1A0A" d="M16 145h4v4h-2v3l-3-1z"/><path fill="#050C07" d="m10 148 3 1 1 5H9c-.04-1.67-.04-3.33 0-5z"/><path fill="#8EA836" d="M137 118c1 3 1 3 1 6h-2c-.99 3.47-.99 3.47-2 7-.93-2.55-1.09-3.74-.22-6.36.38-.79.76-1.58 1.16-2.39l1.15-2.42c.3-.61.6-1.21.91-1.83"/><path fill="#36282A" d="m7 55 2 1-1 6H5c-.12-2.38-.12-2.38 0-5z"/><path fill="#32512C" d="M16 47h6l-2 5-5-1z"/><path fill="#24262B" d="M54 40h4l-1 3v-2h-2l-1 6-4-1c1.15-2.47 2.05-4.05 4-6"/><path fill="#3B572C" d="M80 37c1.66 0 3 1.34 3 2 0 1.66-1.34 3-3 3-1.11 0-2-.89-2-3 0-1.11.89-2 2-2"/><path fill="#1A3315" d="M14 37c1.66 0 3 1.34 3 2 0 1.66-1.34 3-3 3-1.11 0-2-.89-2-3 0-1.11.89-2 2-2"/><path fill="#3B7341" d="M207 28h3c-.88 3.88-.88 3.88-2 5q-3 .06-6 0c.64-.27 1.28-.54 1.94-.81 2.39-1.08 2.39-1.08 3.06-4.19"/><path fill="#102912" d="M87 24c1.66 0 3 1.34 3 2 0 1.66-1.34 3-3 3-1.11 0-2-.89-2-3 0-1.11.89-2 2-2"/><path fill="#0C230C" d="M52 24c2.44.38 2.44.38 5 1l1 2h-2v2h-4z"/><path fill="#07100D" d="M63 23h7l1 3-9-1z"/><path fill="#182221" d="M192 19h11l-1 3c-6.62-.75-6.62-.75-10-3"/><path fill="#1C2A0D" d="M148 16h3v3l2 1-6 3z"/><path fill="#213F20" d="M223 13h5v4l-4 1c-.5-2.48-.5-2.48-1-5"/><path fill="#2F4316" d="M174 7h6l-1 6 2 1-2 2c-.45-1.11-.91-2.23-1.38-3.38-1.34-3.58-1.34-3.58-3.62-5.62"/><path fill="#020504" d="M166 194c1.66 0 3 1.34 3 3s-1.34 3-3 3-3-1.34-3-3 1.34-3 3-3"/><path fill="#1B2F1F" d="M23 192h10l1 4h-3v-3l-8 1z"/><path fill="#325960" d="M26 186v2h2v2l-6 1-1-3c3-2 3-2 5-2"/><path fill="#020405" d="M132 177h6v3l2 1h-7z"/><path fill="#122322" d="m224 154-1 4-5 1v-4c3-1 3-1 6-1"/><path fill="#313F53" d="M168 144h4l1 2c2.02 1.13 2.02 1.13 4 2-1 1-1 1-3.38 1.25-2.62-.25-2.62-.25-4.43-1.63C168 146 168 146 168 144"/><path fill="#020804" d="M1 137h6v5l-1-3H3v3H1z"/><path fill="#3D4137" d="m193 135 5 1c.19 2.38.19 2.38 0 5l-3 2-1-3h3v-3h-5z"/><path fill="#030A06" d="M29 109v3h-9v-2c3.06-.54 5.89-1 9-1"/><path fill="#171F25" d="m34 72-1 2-5-1-1 3-5-1c4.42-2.95 6.68-3.1 12-3"/><path fill="#2C4033" d="m10 69 2 1-1 3 2 1-8-1v-2c2.38-1.06 2.38-1.06 5-2"/><path fill="#020904" d="M203 60c2.97.49 2.97.49 6 1v4l-6-2z"/><path fill="#485F4C" d="M179 45v5l-6 2c3.28-7 3.28-7 6-7"/><path fill="#3C4440" d="M130 46h2v7h-3q-.06-3 0-6z"/><path fill="#362C2C" d="M41 46c2.17.51 4 1 6 2v2h-6z"/><path fill="#202A29" d="m130 36 3 1v5h-4z"/><path fill="#346035" d="M193 25h4l2 7h-3c-3-4.22-3-4.22-3-7"/><path fill="#030602" d="M52 29v2l3 1-1 2-8-2c1.39-2.79 2.99-3 6-3"/><path fill="#020407" d="m13 23 4 1-1 5c-2.97-.5-2.97-.5-6-1l3-1z"/><path fill="#040D06" d="M75 19v3h-6v-2c3-1 3-1 6-1m-12 3h6v1h-6z"/><path fill="#080804" d="M93 19c5.75-.12 5.75-.12 8 1v2c-2.97-.5-2.97-.5-6-1l-1 3c-.5-2.48-.5-2.48-1-5"/><path fill="#0B1708" d="M115 16c4.75.75 4.75.75 7 3l-7 1z"/><path fill="#020605" d="M186 217h7l-1 3h-6z"/><path fill="#030604" d="M101 214c2.47.5 2.47.5 5 1v3h-3v2h-2z"/><path fill="#030A03" d="M189 209h4v5h-4z"/><path fill="#030702" d="M48 200h1v7l-4 1-1-4h4z"/><path fill="#222E13" d="M52 196c5.75 1.75 5.75 1.75 8 4h-7l-1 2z"/><path fill="#304763" d="M129 166c1.66 0 3 1.34 3 3s-1.34 3-3 3-3-1.34-3-3 1.34-3 3-3"/><path fill="#3E7347" d="m130 164 1 1 2-1 1 4-9-1v-2c3-1 3-1 5-1"/><path fill="#110B07" d="M223 157h5c-.99.5-.99.5-2 1v4l-4-1z"/><path fill="#0B1E0B" d="M5 149h4v5H5z"/><path fill="#2E415A" d="M131 147v3h-5l-1-3c2.49-1.25 3.41-.78 6 0"/><path fill="#453451" d="M223 126c1.66 0 3 1.34 3 2 0 1.66-1.34 3-3 3-1.11 0-2-.89-2-3 0-1.11.89-2 2-2"/><path fill="#1B120A" d="M217 113c1.66 0 3 1.34 3 2 0 1.66-1.34 3-3 3-1.11 0-2-.89-2-3 0-1.11.89-2 2-2"/><path fill="#0A141E" d="m127 62 3 1v3l4 1c-3.62 1.21-4.64.54-8-1z"/><path fill="#3E4043" d="M100 56c2.97.49 2.97.49 6 1l1 3h-4v-3c-2.33.96-2.33.96-4 4z"/><path fill="#03040F" d="M209 53h5v2l3 1c-3.29 1.1-4.71.8-8 0z"/><path fill="#2B5427" d="M7 47c2 1.81 2 1.81 4 4v3l-5-1z"/><path fill="#264C31" d="M26 44h5v3h-2v2l-3-1z"/><path fill="#2C5637" d="M70 40c1.66 0 3 1.34 3 2 0 1.66-1.34 3-3 3-1.11 0-2-.89-2-3 0-1.11.89-2 2-2"/><path fill="#051304" d="M10 28c2.47.5 2.47.5 5 1l1 3h-6z"/><path fill="#040B02" d="M19 25h4v5l-5-1z"/><path fill="#101E0F" d="M95 21h4v6h-2v-2h-2z"/><path fill="#203265" d="M220 20h2l2 5h-6z"/><path fill="#0B1C16" d="M190 12h2l1 5-3-1 1 3h-3z"/><path fill="#060B07" d="m186 12 4 1-2 6h-2z"/><path fill="#071808" d="M125 12h5v4h-5z"/><path fill="#050806" d="M158 3v3h-8V4c2.89-.83 4.89-1 8-1"/><path fill="#0A1007" d="M55 200c4.22-.2 7.17.2 11 2l-2 2h-4v-3h-5z"/><path fill="#526439" d="m36 182 8 8c-2.97-.5-2.97-.5-6-1z"/><path fill="#303C5E" d="M34 186h4v3l-6 1z"/><path fill="#36312F" d="M20 181h3l1 6h-3z"/><path fill="#041007" d="M188 176h4v4h-5z"/><path fill="#1F262C" d="m13 173 2 1v3l-8 1 1-3h5z"/><path fill="#374E4C" d="M13 166h2l1 5h-4z"/><path fill="#132231" d="m162 166 1 4h-6v-3c3-1 3-1 5-1"/><path fill="#1B2E3C" d="M12 158h4l-1 8h-2z"/><path fill="#396F39" d="M164 160c1.66 0 3 1.34 3 2 0 1.66-1.34 3-3 3-1.11 0-2-.89-2-3 0-1.11.89-2 2-2"/><path fill="#366C3B" d="M173 159c1.66 0 3 1.34 3 2 0 1.66-1.34 3-3 3-1.11 0-2-.89-2-3 0-1.11.89-2 2-2"/><path fill="#090D11" d="M0 153h2v3l4 1c-3.75 2-3.75 2-6 2z"/><path fill="#507D44" d="M194 150c2.21.01 3.99 1.79 4 3-.01 2.21-1.79 4-4 4-1.66 0-3-1.34-3-4 0-1.66 1.34-3 3-3"/><path fill="#3E696E" d="M220 145c2.47.99 2.47.99 5 2v2h-7z"/><path fill="#232F29" d="M129 144h6l1 3h-6z"/><path fill="#213229" d="M168 144v3h-7v-2c2.46-1.23 4.28-1.07 7-1"/><path fill="#3B693B" d="M210 140v1l-5 1-1 5c-1.46-2.65-2-3.89-2-7 3.29-.8 4.71-1.1 8 0"/><path fill="#132146" d="m131 136-1 4-5-1v-2c2-1 2-1 6-1"/><path fill="#587D45" d="M198 130c1.66 0 3 1.34 3 3s-1.34 3-3 3-3-1.34-3-3 1.34-3 3-3"/><path fill="#030804" d="M33 130h3v3H23v-1h10z"/><path fill="#23140C" d="M10 77c1.66 0 3 1.34 3 2 0 1.66-1.34 3-3 3-1.11 0-2-.89-2-3 0-1.11.89-2 2-2"/><path fill="#393422" d="m21 49 2 4-4 2-3-5h4z"/><path fill="#1B2B21" d="M28 47c1.66 0 3 1.34 3 2 0 1.66-1.34 3-3 3-1.11 0-2-.89-2-3 0-1.11.89-2 2-2"/><path fill="#4D8488" d="M189 43h5v3l-5 1z"/><path fill="#141E44" d="M13 43c1.66 0 3 1.34 3 2 0 1.66-1.34 3-3 3-1.11 0-2-.89-2-3 0-1.11.89-2 2-2"/><path fill="#426030" d="M112 36c1.66 0 3 1.34 3 2 0 1.66-1.34 3-3 3-1.11 0-2-.89-2-3 0-1.11.89-2 2-2"/><path fill="#070811" d="M3 33h3v5H2z"/><path fill="#2E3634" d="M203 25h2v6l-3 1q-.06-3 0-6z"/><path fill="#23334F" d="M198 24h3l-1 6-3-1z"/><path fill="#080C09" d="M195 13h4l-1 4-4 1z"/><path fill="#020903" d="M102 9h3v5l-4 1z"/><path fill="#122A0D" d="m200 10 4 1v7l-2-2v-3h-2z"/><path fill="#07130C" d="M220 3h6l-2 4h-4z"/><path fill="#1A1F13" d="m15 195 3 1h-2v6l-4 1v-3h3z"/><path fill="#0D180A" d="m22 195-1 4h-5v-3c2-1 2-1 6-1"/><path fill="#39634C" d="M0 193c2.48.5 2.48.5 5 1v2l-5 2z"/><path fill="#27491A" d="M41 190c4.75.75 4.75.75 7 3h-8z"/><path fill="#25374B" d="M0 190h6l-1 4-5-1z"/><path fill="#364731" d="M28 181h5l1 3h-6l-1 2z"/><path fill="#24462E" d="M15 171c.23.62.45 1.24.69 1.88 1.69 2.73 3.3 3.17 6.31 4.12v1h-6l-3-6z"/><path fill="#1F2E53" d="M198 155h4l1 3-6 1z"/><path fill="#3B3845" d="M153 147h4l1 4h-7z"/><path fill="#27362C" d="M214 143h6v3h-6z"/><path fill="#345E61" d="M200 134h1l1 7h-3c-.62-2.38-.62-2.38-1-5z"/><path fill="#111C3E" d="M118 136c1.66 0 3 1.34 3 3s-1.34 3-3 3-3-1.34-3-3 1.34-3 3-3"/><path fill="#2A3F11" d="M39 80c1.69 1.65 3.35 3.31 5 5v1h-5z"/><path fill="#CBEF4C" d="M103 71c1.94.75 1.94.75 4 2 .75 2.12.75 2.12 1 4l-5-1z"/><path fill="#272B12" d="M101 63h3c1.12 2.31 1.12 2.31 2 5-.99 1.48-.99 1.48-2 3-3-6.88-3-6.88-3-8"/><path fill="#0D1706" d="m162 60 4 1v6h-2c-1.46-2.65-2-3.89-2-7"/><path fill="#346031" d="m10 58 3 1v4l-4 1z"/><path fill="#20180C" d="M123 60h4l-1 5-3-1z"/><path fill="#071509" d="m191 55 1 2-3 1-1 3-4-1h2v-4z"/><path fill="#222851" d="M1 54h6l-2 4-4-1z"/><path fill="#224C19" d="m203 50 5 1-1 3h-5z"/><path fill="#4F423E" d="m197 37 2 1-1 5h-5v-2h4z"/><path fill="#3C5044" d="M205 36c1.66 0 3 1.34 3 3s-1.34 3-3 3-3-1.34-3-3 1.34-3 3-3"/><path fill="#597343" d="M189 37v5l-7-2c3.62-3 3.62-3 7-3"/><path fill="#1A2E25" d="M76 36c.19 2.88.19 2.88 0 6l-3 2v-3l-2-1c3.88-4 3.88-4 5-4"/><path fill="#467563" d="M222 34h6v3c-.93.19-.93.19-1.88.38-2.31.49-2.31.49-4.12 2.62z"/><path fill="#213B58" d="M127 32h3l1 4-5 1v-2l-2-1h3z"/><path fill="#0F0909" d="M25 31h3l-1 3c-3.29.8-4.71 1.1-8 0v-2c2.97.49 2.97.49 6 1z"/><path fill="#473429" d="M225 17c1.66 0 3 1.34 3 2 0 1.66-1.34 3-3 3-1.11 0-2-.89-2-3 0-1.11.89-2 2-2"/><path fill="#0A111B" d="M199 13h3v4l-7 1 3-2z"/><path fill="#051012" d="M179 12h6l-1 4h-4z"/><path fill="#30533E" d="M3 182h2v4l-5 2v-4h3z"/><path fill="#3A5851" d="M20 179v2l-8 1v-2c2.89-.83 4.89-1 8-1"/><path fill="#2D2A23" d="M0 170h2v8c-.99.5-.99.5-2 1z"/><path fill="#1C3B1E" d="M8 158c2.19.31 2.19.31 4 1H9l1 5-5-1c0-2 0-2 1.25-3.69.58-.43 1.16-.86 1.75-1.31"/><path fill="#0F1B34" d="m6 158-1 4H2v-2l-2-1c2-1 2-1 6-1"/><path fill="#3C4662" d="M139 155c1.66 0 3 1.34 3 2 0 1.66-1.34 3-3 3-1.11 0-2-.89-2-3 0-1.11.89-2 2-2"/><path fill="#273544" d="M217 149h6v4h-3v-3l-4 1z"/><path fill="#55633F" d="M161 150h2v2l3 1h-3v2h-3z"/><path fill="#386D69" d="M169 145c1.56 1.75 1.56 1.75 3 4-.31 2.25-.31 2.25-1 4h-2c-1.1-3.29-.8-4.71 0-8"/><path fill="#1E282E" d="M125 139h6v3c-3.75 1.12-3.75 1.12-6 0z"/><path fill="#D0F34E" d="M20 135h3v6l-3-1z"/><path fill="#142116" d="m120 134 1 3c-2.75.69-2.75.69-6 1-2.38-1.44-2.38-1.44-4-3 4.45-.5 4.45-.5 9-1"/><path fill="#0A1E07" d="M100 129c1.11 0 2 .89 2 2s-.89 2-2 2-2-.89-2-2 .89-2 2-2"/><path fill="#040C04" d="M84 124h4l-1 5-3-1z"/><path fill="#040D04" d="M118 90h3v5l-3 1z"/><path fill="#0C150A" d="M18 76h5l1 3h-6z"/><path fill="#3D4F36" d="m29 52 4 2h-2v2h-2v2h-2c.51-2.17 1-4 2-6"/><path fill="#557953" d="M185 48v2l-6 1v-3c2.49-1.25 3.41-.78 6 0"/><path fill="#1F251F" d="M215 45h7c-.99 1.48-.99 1.48-2 3l-5-1z"/><path fill="#3D3956" d="m68 43 1 3-5 1-1-3c3-1 3-1 5-1"/><path fill="#484443" d="M182 40c2.97.49 2.97.49 6 1l-1 3c-2.47-.99-2.47-.99-5-2z"/><path fill="#101C13" d="M37 38h6l1 3h-6z"/><path fill="#2E261E" d="m68 33 4 2v3l-4 1z"/><path fill="#353667" d="m190 31 6 2-1 2-7-1z"/><path fill="#556C47" d="M132 33h6l-2 5-1-2-3-1z"/><path fill="#202212" d="M108 27h8v3l-3 1v-2h-5z"/><path fill="#121A10" d="m213 13 1 2h2v-2h3l1 4h-7z"/><path fill="#060A04" d="M167.188 8.375c.93.21 1.86.41 2.81.62-.66.67-1.32 1.33-2 2-3.62-.37-3.62-.37-7-1 3-2 3-2 6.19-1.62"/></svg>