<svg fill="none" viewBox="0 0 200 200" version="1.1" xmlns="http://www.w3.org/2000/svg" width="32" height="32">
<path d="M0 0 C66 0 132 0 200 0 C200 66 200 132 200 200 C134 200 68 200 0 200 C0 134 0 68 0 0 Z " fill="#00E6E6" transform="translate(0,0)"/>
<path d="M0 0 C2.56 2.12 2.56 2.12 4 5 C4 9.85 2.33 12.56 -1 16 C-1.66 16 -2.32 16 -3 16 C-3.25 16.62 -3.5 17.24 -3.75 17.88 C-5.24 20.4 -6.44 20.72 -9 22 C-9.66 23.32 -10.32 24.64 -11 26 C-14.34 29.32 -17.77 32.51 -21.23 35.71 C-24.13 38.7 -24.13 38.7 -24.85 41.94 C-23.51 46.76 -20.4 49.16 -16.81 52.56 C-15.48 53.84 -14.14 55.12 -12.77 56.44 C-11.53 57.62 -10.28 58.79 -9 60 C-4.12 64.63 -4.12 64.63 -3 68 C2.62 68.61 2.62 68.61 7.44 66.19 C9.36 62.26 9.53 58.96 9.63 54.62 C10 52 10 52 13 48 C18.22 47.5 18.22 47.5 24.5 47.56 C27.61 47.56 27.61 47.56 30.78 47.57 C36 48 36 48 39 51 C39 56 39 56 31.52 64.14 C28.32 67.33 25.11 70.53 21.81 73.81 C17.03 78.62 17.03 78.62 12.14 83.52 C4 91 4 91 -1 91 C-8.75 83.82 -16.33 76.46 -23.81 69 C-27.94 64.92 -32.08 60.83 -36.33 56.62 C-46 46 -46 46 -46 38 C-40.07 31.28 -33.85 24.82 -27.5 18.5 C-22.35 13.32 -22.35 13.32 -17.09 8.03 C-8 0 -8 0 0 0 Z " fill="#171E1E" transform="translate(75,55)"/>
<path d="M0 0 C7.61 7.13 15.02 14.48 22.31 21.94 C33.16 34.34 33.16 34.34 46 45 C46.5 47.56 46.5 47.56 46 51 C43.38 53.38 40.7 55.71 38 58 C34.75 61.19 31.52 64.39 28.31 67.62 C26.68 69.27 25.05 70.91 23.36 72.6 C21.92 74.05 20.48 75.5 19 77 C17.33 78.67 15.67 80.33 14 82 C13.15 82.85 12.31 83.69 11.44 84.56 C10.63 85.37 9.83 86.17 9 87 C8.07 88.18 8.07 88.18 7.12 89.38 C5 91 5 91 1.44 90.94 C-2 90 -2 90 -3.94 88.94 C-5 87 -5 87 -5 79 C0.91 72.56 0.91 72.56 8.5 65.44 C13.13 61.09 17.66 56.63 22 52 C22.75 44.7 22.75 44.7 17.4 39.54 C15.41 37.59 13.42 35.64 11.38 33.62 C9.4 31.66 7.43 29.69 5.4 27.66 C0.41 22.53 0.41 22.53 -6 22 C-9.43 24.74 -10.73 26.41 -11.46 30.75 C-11.61 32.66 -11.71 34.59 -11.76 36.51 C-12 39 -12 39 -14 42 C-19.59 42.4 -19.59 42.4 -26.5 42.38 C-28.78 42.38 -31.06 42.39 -33.41 42.4 C-35.25 42.27 -37.1 42.14 -39 42 C-41 39 -41 39 -40.94 36.69 C-39.63 32.95 -37.73 30.87 -35 28 C-34.34 28 -33.68 28 -33 28 C-32.34 26.68 -31.68 25.36 -31 24 C-27.17 19.85 -23.27 15.78 -19.31 11.75 C-17.18 9.56 -15.06 7.37 -12.86 5.11 C-7 0 -7 0 0 0 Z " fill="#171E1E" transform="translate(126,55)"/>
</svg>
