<svg width="32" height="32" viewBox="0 0 24 24" fill="none" xmlns="http://www.w3.org/2000/svg">
<g clip-path="url(#clip0_1004_325513)">
<path d="M5.30998 15.7561C5.48198 12.0061 7.19298 9.75709 7.85898 9.01709C4.59898 11.0751 2.43398 14.6751 1.50098 17.3251V18.4451C1.50098 21.5131 4.22598 24.0001 7.58998 24.0001C8.3393 24.0011 9.0833 23.8743 9.78998 23.6251C10.143 23.5051 10.49 23.3771 10.829 23.2471C11.742 22.3481 12.479 21.3371 13.072 20.2551C8.19498 22.6861 5.09798 20.3271 5.30898 15.7551L5.30998 15.7561Z" fill="#1E37FC"/>
<path d="M22.5701 10.2829C21.3581 9.38191 18.4611 7.87891 15.1731 7.48291C15.4681 11.2749 15.2661 16.2489 13.0731 20.2559C12.4758 21.3579 11.7198 22.366 10.8291 23.2479C14.5931 21.7999 17.5751 19.7909 19.4251 18.0289C22.2451 15.3459 22.7781 12.8509 22.7861 11.3689C22.7886 10.9966 22.7151 10.6278 22.5701 10.2849V10.2829Z" fill="#37E1BE"/>
<path d="M14.303 1.867C12.955 0.7 11.248 0 9.39 0C7.532 0 5.883 0.677 4.545 1.807C2.791 3.29 1.627 5.557 1.5 8.125V17.326C2.432 14.676 4.597 11.076 7.857 9.019C8.357 8.701 8.882 8.424 9.426 8.19C11.309 7.389 13.304 7.258 15.172 7.484C14.95 4.654 14.454 2.482 14.302 1.867H14.303Z" fill="#A569FF"/>
<path d="M17.3052 4.96094C16.9437 4.59767 16.5837 4.233 16.2252 3.86694C16.0232 3.65394 15.8272 3.44794 15.6392 3.24494L14.3062 1.86694C14.4572 2.48194 14.9542 4.65294 15.1752 7.48394C18.4632 7.87894 21.3602 9.38194 22.5712 10.2839C21.2652 9.00894 19.0962 6.79694 17.3052 4.96094Z" fill="#1E37FC"/>
</g>
<defs>
<clipPath id="clip0_1004_325513">
<rect width="24" height="24" fill="white"/>
</clipPath>
</defs>
</svg>
