<svg fill="none" viewBox="0 0 432 389" version="1.1" xmlns="http://www.w3.org/2000/svg" width="32" height="32">
<path d="M0 0 C0.99 0 1.98 0 3 0 C3 18.81 3 37.62 3 57 C7.95 57 12.9 57 18 57 C46.07 60.7 74.75 72.75 95 93 C95.33 78.15 95.66 63.3 96 48 C96.99 48 97.98 48 99 48 C99 63.84 99 79.68 99 96 C114.84 96 130.68 96 147 96 C147 96.99 147 97.98 147 99 C132.15 99.33 117.3 99.66 102 100 C104.97 103.3 107.94 106.6 111 110 C128.95 134.32 138 161.91 138 192 C156.81 192 175.62 192 195 192 C195 192.99 195 193.98 195 195 C176.19 195 157.38 195 138 195 C138 199.95 138 204.9 138 210 C134.3 238.07 122.25 266.75 102 287 C116.85 287.33 131.7 287.66 147 288 C147 288.99 147 289.98 147 291 C131.16 291 115.32 291 99 291 C99 306.84 99 322.68 99 339 C98.01 339 97.02 339 96 339 C95.67 324.15 95.34 309.3 95 294 C91.7 296.97 88.4 299.94 85 303 C60.68 320.95 33.09 330 3 330 C3 348.81 3 367.62 3 387 C2.01 387 1.02 387 0 387 C0 368.19 0 349.38 0 330 C-4.95 330 -9.9 330 -15 330 C-43.07 326.3 -71.75 314.25 -92 294 C-92.33 308.85 -92.66 323.7 -93 339 C-93.99 339 -94.98 339 -96 339 C-96 323.16 -96 307.32 -96 291 C-111.84 291 -127.68 291 -144 291 C-144 290.01 -144 289.02 -144 288 C-129.15 287.67 -114.3 287.34 -99 287 C-103.45 282.05 -103.45 282.05 -108 277 C-125.91 252.44 -135 225.37 -135 195 C-153.81 195 -172.62 195 -192 195 C-192 194.01 -192 193.02 -192 192 C-173.19 192 -154.38 192 -135 192 C-135 187.05 -135 182.1 -135 177 C-131.3 148.93 -119.25 120.25 -99 100 C-113.85 99.67 -128.7 99.34 -144 99 C-144 98.01 -144 97.02 -144 96 C-128.16 96 -112.32 96 -96 96 C-96 80.16 -96 64.32 -96 48 C-95.01 48 -94.02 48 -93 48 C-92.67 62.85 -92.34 77.7 -92 93 C-88.7 90.03 -85.4 87.06 -82 84 C-57.44 66.09 -30.37 57 0 57 C0 38.19 0 19.38 0 0 Z M3 60 C2.89 62.62 2.81 65.25 2.75 67.88 C2.7 69.34 2.66 70.8 2.61 72.3 C3.16 80.32 5.26 88.16 7 96 C34.72 96 62.44 96 91 96 C72.88 74.25 41.18 63.12 13.68 60.61 C10.12 60.36 6.57 60.15 3 60 Z M-85 92 C-85.99 93.32 -86.98 94.64 -88 96 C-60.28 96 -32.56 96 -4 96 C-0.5 81.65 -0.5 81.65 0.25 67.88 C0.21 66.37 0.18 64.86 0.14 63.3 C0.09 62.21 0.05 61.12 0 60 C-30.81 60 -61.79 71.84 -85 92 Z M-91 99 C-81.8 109.73 -71.63 119.46 -61.62 129.44 C-57.41 133.64 -53.19 137.85 -48.85 142.18 C-45.6 145.42 -42.35 148.66 -39 152 C-22.55 143.77 -12.15 118.23 -6 102 C-6 101.01 -6 100.02 -6 99 C-34.05 99 -62.1 99 -91 99 Z M9 99 C13.73 127.37 37.72 153.02 60.27 169.37 C71 176.58 83.16 183.86 96 186 C96 157.29 96 128.58 96 99 C67.29 99 38.58 99 9 99 Z M-93 103 C-93 130.39 -93 157.78 -93 186 C-73.73 182.79 -54.91 169.39 -41 156 C-46.36 145.28 -59.29 135.5 -67.56 127.25 C-72.08 122.74 -76.6 118.23 -81.25 113.58 C-86.37 106.44 -86.37 106.44 -93 103 Z M-98.5 105.44 C-120.6 129.59 -130.33 159.84 -132 192 C-129.38 192.11 -126.75 192.19 -124.12 192.25 C-122.66 192.3 -121.2 192.34 -119.7 192.39 C-111.68 191.84 -103.84 189.74 -96 188 C-96 160.28 -96 132.56 -96 104 C-97.23 103.88 -97.23 103.88 -98.5 105.44 Z M99 104 C99 131.72 99 159.44 99 188 C113.35 191.5 113.35 191.5 127.12 192.25 C128.63 192.21 130.14 192.18 131.7 192.14 C132.79 192.09 133.88 192.05 135 192 C133.01 160.44 124.03 131.21 103 107 C101.68 106.01 100.36 105.02 99 104 Z M1 117 C0.39 118.21 -0.21 119.42 -0.84 120.66 C-8.84 136.3 -17.84 149.37 -30 162 C-30.69 162.77 -31.38 163.53 -32.1 164.32 C-43.39 176.44 -59.45 187.18 -75 193 C-71.62 195.75 -68 197.6 -64.12 199.56 C-51.26 206.37 -40.46 214.93 -30 225 C-29.23 225.69 -28.47 226.38 -27.68 227.1 C-14.93 238.98 -6.66 254.57 1 270 C3.75 266.62 5.6 263 7.56 259.12 C14.37 246.26 22.93 235.46 33 225 C33.69 224.23 34.38 223.47 35.1 222.68 C46.98 209.93 62.57 201.66 78 194 C74.62 191.25 71 189.4 67.12 187.44 C54.26 180.63 43.46 172.07 33 162 C32.23 161.31 31.47 160.62 30.68 159.9 C18.56 148.61 7.82 132.55 2 117 C1.67 117 1.34 117 1 117 Z M-132 195 C-130.01 226.56 -121.03 255.79 -100 280 C-98.68 280.99 -97.36 281.98 -96 283 C-96 255.28 -96 227.56 -96 199 C-110.35 195.5 -110.35 195.5 -124.12 194.75 C-125.63 194.79 -127.14 194.82 -128.7 194.86 C-129.79 194.91 -130.88 194.95 -132 195 Z M99 200 C98.93 213.85 98.92 227.71 98.94 241.56 C98.95 249.26 98.96 256.95 98.96 264.88 C98.98 270.86 98.99 276.84 99 283 C120.75 264.88 131.88 233.18 134.39 205.68 C134.64 202.12 134.85 198.57 135 195 C115.96 193.62 115.96 193.62 99 200 Z M-93 201 C-93 229.71 -93 258.42 -93 288 C-64.29 288 -35.58 288 -6 288 C-12.09 267.71 -22.89 250.67 -37 235 C-37.59 234.33 -38.19 233.67 -38.8 232.98 C-52.62 218.34 -71.43 208.19 -90 201 C-90.99 201 -91.98 201 -93 201 Z M43 232 C48.43 242.87 61.69 252.9 70.06 261.25 C74.67 265.85 79.28 270.46 84.04 275.2 C89.25 282.49 89.25 282.49 96 286 C96 257.95 96 229.9 96 201 C77.79 201 55.76 220.33 43 232 Z M39 236 C25.68 249.7 12.18 268.92 9 288 C36.39 288 63.78 288 92 288 C82.97 277.47 73.05 267.88 63.25 258.06 C59.15 253.95 55.05 249.84 50.83 245.6 C45.64 239.03 45.64 239.03 39 236 Z M-88 291 C-69.88 312.75 -38.18 323.88 -10.68 326.39 C-7.12 326.64 -3.57 326.85 0 327 C0.52 314.75 -0.41 303.76 -4 292 C-8.55 287.45 -16.83 290.94 -23.25 290.9 C-30.95 290.91 -38.64 290.93 -46.56 290.94 C-54.26 290.95 -61.95 290.96 -69.88 290.96 C-75.86 290.98 -81.84 290.99 -88 291 Z M7 291 C3.5 305.35 3.5 305.35 2.75 319.12 C2.79 320.63 2.82 322.14 2.86 323.7 C2.91 324.79 2.95 325.88 3 327 C34.56 325.01 63.79 316.03 88 295 C88.99 293.68 89.98 292.36 91 291 C63.28 291 35.56 291 7 291 Z " fill="#328CFF" transform="translate(211,0)"/>
<path d="M0 0 C0.99 0 1.98 0 3 0 C3 18.81 3 37.62 3 57 C7.95 57 12.9 57 18 57 C46.07 60.7 74.75 72.75 95 93 C95.33 78.15 95.66 63.3 96 48 C96.99 48 97.98 48 99 48 C99 63.84 99 79.68 99 96 C114.84 96 130.68 96 147 96 C147 96.99 147 97.98 147 99 C132.15 99.33 117.3 99.66 102 100 C104.97 103.3 107.94 106.6 111 110 C128.95 134.32 138 161.91 138 192 C156.81 192 175.62 192 195 192 C195 192.99 195 193.98 195 195 C176.19 195 157.38 195 138 195 C138 199.95 138 204.9 138 210 C137.49 213.52 136.88 217.03 136.12 220.5 C135.78 222.14 135.43 223.78 135.07 225.47 C134.15 229.35 133.14 233.18 132 237 C130.68 236.34 129.36 235.68 128 235 C128.52 232.52 128.52 232.52 129.06 229.99 C132.32 214.69 132.32 214.69 133.86 199.16 C134 197 134 197 135 195 C132.35 195.06 129.71 195.15 127.06 195.25 C125.59 195.3 124.12 195.34 122.6 195.39 C114.96 196.22 107.48 198.24 100 200 C99.67 216.5 99.34 233 99 250 C98.01 249.34 97.02 248.68 96 248 C95.78 240.13 95.75 232.25 95.81 224.38 C95.84 220.03 95.87 215.69 95.89 211.21 C95.93 207.84 95.96 204.47 96 201 C84.42 205.86 73.37 210.54 62.84 217.45 C61.9 217.96 60.96 218.47 60 219 C59.01 218.67 58.02 218.34 57 218 C57.38 216.06 57.38 216.06 58 214 C58.66 213.67 59.32 213.34 60 213 C61.23 210.91 62.02 208.93 62.72 206.6 C63.98 202.51 64.91 199.77 68.48 197.24 C70.96 196.02 73.41 194.94 76 194 C72.89 191.51 69.67 189.74 66.12 187.94 C53.67 181.29 43.13 172.76 33 163 C32.16 162.23 31.32 161.47 30.45 160.68 C19.61 150.49 11.65 137.72 4.52 124.76 C3 121.91 3 121.91 1 119 C0.4 120.16 -0.21 121.32 -0.83 122.51 C-1.63 124.03 -2.43 125.56 -3.25 127.12 C-4.04 128.63 -4.83 130.14 -5.64 131.7 C-9.56 138.84 -9.56 138.84 -12 142 C-12.99 142 -13.98 142 -15 142 C-15 141.01 -15 140.02 -15 139 C-16.65 138.67 -18.3 138.34 -20 138 C-18.68 137.01 -17.36 136.02 -16 135 C-16.5 132.52 -16.5 132.52 -17 130 C-15.02 129.01 -15.02 129.01 -13 128 C-12.91 126.54 -12.91 126.54 -15 124 C-14.5 123.46 -14.01 122.93 -13.5 122.38 C-11.47 119.62 -11.47 119.62 -12 114 C-10.08 108.97 -8.09 103.96 -6 99 C-9.37 99.01 -12.74 99.02 -16.21 99.04 C-20.56 99.04 -24.9 99.05 -29.38 99.06 C-33.71 99.07 -38.05 99.09 -42.52 99.1 C-53 99 -53 99 -55 98 C-55 97.34 -55 96.68 -55 96 C-38.17 96 -21.34 96 -4 96 C-3.67 93.36 -3.34 90.72 -3 88 C-2.69 86.54 -2.36 85.08 -2 83.62 C-0.37 75.87 -0.33 67.89 0 60 C-0.99 60.49 -0.99 60.49 -2 61 C-4.98 61.27 -7.96 61.52 -10.94 61.75 C-28.67 63.48 -45.57 68.43 -61.36 76.77 C-62.23 77.18 -63.1 77.58 -64 78 C-64.66 77.67 -65.32 77.34 -66 77 C-65.91 75.21 -65.91 75.21 -65 73 C-45.68 61.17 -22.2 57 0 57 C0 38.19 0 19.38 0 0 Z M3 60 C2.89 62.62 2.81 65.25 2.75 67.88 C2.7 69.34 2.66 70.8 2.61 72.3 C3.16 80.32 5.26 88.16 7 96 C34.72 96 62.44 96 91 96 C72.88 74.25 41.18 63.12 13.68 60.61 C10.12 60.36 6.57 60.15 3 60 Z M9 99 C13.73 127.37 37.72 153.02 60.27 169.37 C71 176.58 83.16 183.86 96 186 C96 157.29 96 128.58 96 99 C67.29 99 38.58 99 9 99 Z M99 104 C99 131.72 99 159.44 99 188 C113.35 191.5 113.35 191.5 127.12 192.25 C128.63 192.21 130.14 192.18 131.7 192.14 C132.79 192.09 133.88 192.05 135 192 C133.01 160.44 124.03 131.21 103 107 C101.68 106.01 100.36 105.02 99 104 Z " fill="#91B9FF" transform="translate(211,0)"/>
<path d="M0 0 C0.99 0 1.98 0 3 0 C3.33 14.85 3.66 29.7 4 45 C7.3 42.03 10.6 39.06 14 36 C16.66 34.08 19.37 32.22 22.12 30.44 C23.43 29.59 24.73 28.74 26.07 27.87 C27.04 27.25 28 26.64 29 26 C29.99 27.98 29.99 27.98 31 30 C25.92 34.16 20.55 37.88 15.18 41.66 C11.9 43.95 11.9 43.95 9 47 C24.84 47.5 24.84 47.5 41 48 C41 48.66 41 49.32 41 50 C41.66 50.33 42.32 50.66 43 51 C30.79 51.33 18.58 51.66 6 52 C22.83 68.83 39.66 85.66 57 103 C68.21 97.39 74.98 82.53 81 72 C82 70.33 82.99 68.66 84 67 C85.06 70.18 85.05 70.96 84 74 C83.34 74.99 82.68 75.98 82 77 C82.66 77.66 83.32 78.32 84 79 C84.12 81.63 84.12 81.63 84 84 C83.01 84.5 83.01 84.5 82 85 C82.33 83.35 82.66 81.7 83 80 C82.01 80.66 81.02 81.32 80 82 C80.33 83.98 80.66 85.96 81 88 C79.02 88.99 79.02 88.99 77 90 C78.32 90.33 79.64 90.66 81 91 C81 91.99 81 92.98 81 94 C81.66 94.33 82.32 94.66 83 95 C68.48 115.38 50.61 130.46 28.76 142.48 C25.91 144 25.91 144 23 146 C24.06 146.53 25.13 147.07 26.23 147.62 C41.25 155.33 53.86 164.3 66 176 C66.84 176.77 67.68 177.53 68.55 178.32 C80.61 189.65 90.69 204.71 97 220 C96.67 221.32 96.34 222.64 96 224 C93.03 223.01 93.03 223.01 90 222 C90 221.34 90 220.68 90 220 C87.36 220.33 84.72 220.66 82 221 C81.29 219.69 81.29 219.69 80.57 218.36 C63.32 187.29 37.04 164.35 3 153 C3 155.31 3 157.62 3 160 C2.01 159.67 1.02 159.34 0 159 C0 156.36 0 153.72 0 151 C-1.11 150.88 -2.23 150.75 -3.38 150.62 C-6.44 150.25 -9.37 149.7 -12.38 149 C-20.13 147.37 -28.11 147.33 -36 147 C-35.67 147.66 -35.34 148.32 -35 149 C-34.96 151.33 -34.96 153.67 -35 156 C-35.99 155.67 -36.98 155.34 -38 155 C-38.33 152.36 -38.66 149.72 -39 147 C-57.81 147 -76.62 147 -96 147 C-96 146.01 -96 145.02 -96 144 C-77.19 144 -58.38 144 -39 144 C-39 139.05 -39 134.1 -39 129 C-35.3 100.93 -23.25 72.25 -3 52 C-17.85 51.67 -32.7 51.34 -48 51 C-48 50.01 -48 49.02 -48 48 C-32.16 48 -16.32 48 0 48 C0 32.16 0 16.32 0 0 Z M3 55 C3 82.39 3 109.78 3 138 C22.27 134.79 41.09 121.39 55 108 C49.64 97.28 36.71 87.5 28.44 79.25 C23.92 74.74 19.4 70.23 14.75 65.58 C9.63 58.44 9.63 58.44 3 55 Z M-2.5 57.44 C-24.6 81.59 -34.33 111.84 -36 144 C-33.38 144.11 -30.75 144.19 -28.12 144.25 C-26.66 144.3 -25.2 144.34 -23.7 144.39 C-15.68 143.84 -7.84 141.74 0 140 C0 112.28 0 84.56 0 56 C-1.23 55.88 -1.23 55.88 -2.5 57.44 Z " fill="#328CFF" transform="translate(115,48)"/>
<path d="M0 0 C0.99 0 1.98 0 3 0 C3 15.84 3 31.68 3 48 C18.84 48 34.68 48 51 48 C51 48.99 51 49.98 51 51 C36.15 51.33 21.3 51.66 6 52 C8.97 55.3 11.94 58.6 15 62 C32.95 86.32 42 113.91 42 144 C60.81 144 79.62 144 99 144 C99 144.99 99 145.98 99 147 C80.19 147 61.38 147 42 147 C42 151.95 42 156.9 42 162 C41.49 165.52 40.88 169.03 40.12 172.5 C39.78 174.14 39.43 175.78 39.07 177.47 C38.15 181.35 37.14 185.18 36 189 C34.02 188.01 34.02 188.01 32 187 C32.52 184.52 32.52 184.52 33.06 181.99 C36.32 166.69 36.32 166.69 37.86 151.16 C38 149 38 149 39 147 C36.15 147.14 33.29 147.29 30.44 147.44 C28.85 147.52 27.26 147.6 25.62 147.68 C21.7 147.95 17.88 148.38 14 149 C14.04 148.22 14.08 147.43 14.12 146.62 C14.29 143.84 14.29 143.84 12 142 C20.91 142.66 29.82 143.32 39 144 C38.67 143.34 38.34 142.68 38 142 C37.73 139.02 37.48 136.04 37.25 133.06 C34.58 105.65 23.81 76.81 4 57 C3.67 78.78 3.34 100.56 3 123 C2.01 123 1.02 123 0 123 C0 99.24 0 75.48 0 51 C-8.63 51.02 -8.63 51.02 -17.43 51.04 C-28.54 51.05 -28.54 51.05 -39.88 51.06 C-47.28 51.07 -54.68 51.09 -62.3 51.1 C-80 51 -80 51 -82 50 C-82 49.34 -82 48.68 -82 48 C-56.92 47.67 -31.84 47.34 -6 47 C-18.8 35.8 -32.73 26.42 -49 21 C-49.5 18.53 -49.5 18.53 -50 16 C-31.97 21.15 -14.27 31.73 -1 45 C-0.67 30.15 -0.34 15.3 0 0 Z " fill="#B0C4FF" transform="translate(307,48)"/>
<path d="M0 0 C0.99 0 1.98 0 3 0 C3.33 14.85 3.66 29.7 4 45 C7.3 42.03 10.6 39.06 14 36 C16.66 34.08 19.37 32.22 22.12 30.44 C23.43 29.59 24.73 28.74 26.07 27.87 C27.04 27.25 28 26.64 29 26 C29.99 27.98 29.99 27.98 31 30 C25.92 34.16 20.55 37.88 15.18 41.66 C11.9 43.95 11.9 43.95 9 47 C24.84 47.5 24.84 47.5 41 48 C41 48.66 41 49.32 41 50 C41.66 50.33 42.32 50.66 43 51 C30.79 51.33 18.58 51.66 6 52 C22.83 68.83 39.66 85.66 57 103 C68.21 97.39 74.98 82.53 81 72 C82 70.33 82.99 68.66 84 67 C85.06 70.18 85.05 70.96 84 74 C83.34 74.99 82.68 75.98 82 77 C82.66 77.66 83.32 78.32 84 79 C84.12 81.63 84.12 81.63 84 84 C83.01 84.5 83.01 84.5 82 85 C82.33 83.35 82.66 81.7 83 80 C82.01 80.66 81.02 81.32 80 82 C80.33 83.98 80.66 85.96 81 88 C79.02 88.99 79.02 88.99 77 90 C78.98 90.5 78.98 90.5 81 91 C81 91.99 81 92.98 81 94 C81.66 94.33 82.32 94.66 83 95 C71.66 110.92 58.17 124.04 42 135 C41.34 134.34 40.68 133.68 40 133 C40 132.34 40 131.68 40 131 C39.34 130.34 38.68 129.68 38 129 C38.66 127.02 39.32 125.04 40 123 C38.51 123.5 38.51 123.5 37 124 C37 123.01 37 122.02 37 121 C39.2 119.13 39.2 119.13 42.12 117.12 C46.26 114.24 50.19 111.3 54 108 C48.71 97.42 36.05 87.88 27.88 79.75 C23.44 75.33 19 70.91 14.43 66.36 C10.99 62.94 7.55 59.52 4 56 C3.67 66.56 3.34 77.12 3 88 C2.01 87.67 1.02 87.34 0 87 C-0.33 77.1 -0.66 67.2 -1 57 C-3.31 59.64 -5.62 62.28 -8 65 C-9.32 64.67 -10.64 64.34 -12 64 C-10 60 -10 60 -3 52 C-17.85 51.67 -32.7 51.34 -48 51 C-48 50.01 -48 49.02 -48 48 C-32.16 48 -16.32 48 0 48 C0 32.16 0 16.32 0 0 Z " fill="#53A3FF" transform="translate(115,48)"/>
<path d="M0 0 C-0.45 1.42 -0.91 2.83 -1.38 4.25 C-1.76 5.43 -1.76 5.43 -2.15 6.64 C-2.95 8.87 -3.9 10.9 -5 13 C-5.33 13.66 -5.66 14.32 -6 15 C-6.66 15 -7.32 15 -8 15 C-7.67 16.65 -7.34 18.3 -7 20 C-7.58 20.45 -8.16 20.89 -8.76 21.36 C-13.24 24.83 -17.67 28.34 -22 32 C-16.64 42.72 -3.65 52.51 4.62 60.75 C9.15 65.26 13.68 69.77 18.35 74.42 C21.87 77.91 25.38 81.4 29 85 C29.33 72.79 29.66 60.58 30 48 C31.49 48.99 31.49 48.99 33 50 C33.38 55.37 33.58 60.75 33.69 66.12 C33.75 69.08 33.82 72.03 33.89 75.07 C33.94 78.5 33.94 78.5 34 82 C46.67 67.84 54.61 52.37 62 35 C62.99 35 63.98 35 65 35 C63.07 53.9 49.16 73.84 36 87 C50.85 87.33 65.7 87.66 81 88 C81 88.99 81 89.98 81 91 C65.16 91 49.32 91 33 91 C33 106.84 33 122.68 33 139 C32.01 139 31.02 139 30 139 C29.67 124.15 29.34 109.3 29 94 C25.7 96.97 22.4 99.94 19 103 C16.38 104.74 13.73 106.43 11 108 C10.67 106.35 10.34 104.7 10 103 C10.84 102.37 11.69 101.75 12.55 101.1 C13.65 100.28 14.75 99.47 15.88 98.62 C16.97 97.81 18.06 97 19.18 96.16 C21.96 94.13 21.96 94.13 24 92 C13.44 91.67 2.88 91.34 -8 91 C-7.5 89.51 -7.5 89.51 -7 88 C3.56 87.67 14.12 87.34 25 87 C16.88 78.62 8.73 70.27 0.56 61.94 C-3.97 57.29 -8.51 52.63 -13.18 47.84 C-17.08 44.26 -20.98 40.69 -25 37 C-33.02 37.37 -33.02 37.37 -36 39 C-35.72 37.98 -35.72 37.98 -35.44 36.94 C-34.8 33.92 -34.8 33.92 -35.78 30.67 C-36 27 -36 27 -34.07 24.11 C-8.71 0 -8.71 0 0 0 Z " fill="#59A5FF" transform="translate(277,200)"/>
<path d="M0 0 C0.29 0.6 0.58 1.2 0.88 1.81 C2.05 4.19 2.05 4.19 4 7 C4.64 10.34 5.21 13.7 5.75 17.06 C10.07 41.48 20.09 67.09 38 85 C38.33 60.25 38.66 35.5 39 10 C39.99 10.33 40.98 10.66 42 11 C42 37.4 42 63.8 42 91 C58.83 91 75.66 91 93 91 C93.33 91.99 93.66 92.98 94 94 C78.82 94.33 63.64 94.66 48 95 C69.9 114.16 94.46 124.07 123 129 C123.33 130.32 123.66 131.64 124 133 C94.08 130.27 64.51 118.51 43 97 C42.67 111.85 42.34 126.7 42 142 C41.01 142 40.02 142 39 142 C39 126.16 39 110.32 39 94 C23.16 94 7.32 94 -9 94 C-9 93.01 -9 92.02 -9 91 C13.28 90.5 13.28 90.5 36 90 C33.03 86.7 30.06 83.4 27 80 C10.52 57.39 -1.87 28.48 0 0 Z " fill="#4071FF" transform="translate(76,197)"/>
<path d="M0 0 C23.87 13.79 44.62 38.11 55.1 63.49 C54.6 65.47 54.6 65.47 54.1 67.49 C51.13 66.5 51.13 66.5 48.1 65.49 C48.1 64.83 48.1 64.17 48.1 63.49 C45.46 63.82 42.82 64.15 40.1 64.49 C39.39 63.18 39.39 63.18 38.66 61.85 C27.42 41.59 12.4 23.2 -7.9 11.49 C-7.24 10.83 -6.58 10.17 -5.9 9.49 C-5.9 8.5 -5.9 7.51 -5.9 6.49 C-6.56 6.16 -7.22 5.83 -7.9 5.49 C-6.93 3.07 -6.26 1.73 -4.07 0.25 C-1.9 -0.51 -1.9 -0.51 0 0 Z " fill="#3090FF" transform="translate(156.90234375,204.51171875)"/>
<path d="M0 0 C-0.66 9.57 -1.32 19.14 -2 29 C-1.34 28.67 -0.68 28.34 0 28 C2.98 27.73 5.96 27.48 8.94 27.25 C30.03 25.19 49.31 18.5 67.34 7.41 C68.22 6.94 69.1 6.48 70 6 C70.99 6.5 70.99 6.5 72 7 C71.93 8.73 71.93 8.73 71 11 C49.73 26.16 23.62 32 -2 32 C-2 50.81 -2 69.62 -2 89 C-2.99 89 -3.98 89 -5 89 C-5 70.19 -5 51.38 -5 32 C-8.63 32 -12.26 32 -16 32 C-16.33 30.68 -16.66 29.36 -17 28 C-15.38 27.97 -13.75 27.95 -12.12 27.94 C-11.22 27.93 -10.32 27.91 -9.38 27.9 C-7 28 -7 28 -5 29 C-5.65 15.47 -5.65 15.47 -7 2 C-6.34 2.33 -5.68 2.66 -5 3 C-5.33 3.66 -5.66 4.32 -6 5 C-5.2 4.18 -4.39 3.35 -3.56 2.5 C-1 0 -1 0 0 0 Z " fill="#3880FF" transform="translate(216,298)"/>
<path d="M0 0 C0.68 1.73 0.68 1.73 1 4 C-0.15 6.05 -0.15 6.05 -1.94 8.31 C-16.42 28.12 -23.52 52.18 -24.79 76.52 C-25 79 -25 79 -26 81 C-18.74 80.67 -11.48 80.34 -4 80 C-4 80.66 -4 81.32 -4 82 C-4.66 82 -5.32 82 -6 82 C-6.33 82.66 -6.66 83.32 -7 84 C-5.02 84.5 -5.02 84.5 -3 85 C-10.59 84.67 -18.18 84.34 -26 84 C-25.67 84.66 -25.34 85.32 -25 86 C-24.96 88.33 -24.96 90.67 -25 93 C-25.99 92.67 -26.98 92.34 -28 92 C-28.5 88.04 -28.5 88.04 -29 84 C-47.81 84 -66.62 84 -86 84 C-86 83.01 -86 82.02 -86 81 C-67.19 81 -48.38 81 -29 81 C-29 76.05 -29 71.1 -29 66 C-26.04 43.49 -17.92 18.65 -3 1 C-2.01 0.67 -1.02 0.34 0 0 Z " fill="#3880FF" transform="translate(105,111)"/>
<path d="M0 0 C0.66 0.33 1.32 0.66 2 1 C0.07 19.9 -13.84 39.84 -27 53 C-12.15 53.33 2.7 53.66 18 54 C18 54.99 18 55.98 18 57 C1.5 57 -15 57 -32 57 C-32 56.34 -32 55.68 -32 55 C-32.66 55 -33.32 55 -34 55 C-34.33 53.68 -34.66 52.36 -35 51 C-34.67 51 -34.34 51 -34 51 C-33.67 38.79 -33.34 26.58 -33 14 C-32.01 14.66 -31.02 15.32 -30 16 C-29.62 21.37 -29.42 26.75 -29.31 32.12 C-29.25 35.08 -29.18 38.03 -29.11 41.07 C-29.08 43.36 -29.04 45.64 -29 48 C-17.13 34.74 -9.23 20.4 -2.34 4.06 C-1 1 -1 1 0 0 Z " fill="#5CA6FF" transform="translate(340,234)"/>
<path d="M0 0 C2.68 2.68 3 5.27 3 9 C5.47 9.5 5.47 9.5 8 10 C5.74 13.99 3.11 17.48 0.25 21.06 C-4.44 27.08 -8.36 33.31 -12 40 C-13.5 38.62 -13.5 38.62 -15 37 C-15 36.34 -15 35.68 -15 35 C-15.99 34.67 -16.98 34.34 -18 34 C-18 33.34 -18 32.68 -18 32 C-18.66 32 -19.32 32 -20 32 C-16.97 19.28 -9.18 9.18 0 0 Z M0 11 C1 13 1 13 1 13 Z " fill="#3699FF" transform="translate(240,228)"/>
<path d="M0 0 C1.45 0.03 1.45 0.03 2.94 0.06 C2.71 0.99 2.48 1.92 2.25 2.88 C1.57 6.03 1.57 6.03 3.38 7.94 C3.89 8.31 4.41 8.68 4.94 9.06 C3.43 13.59 0.21 14.96 -3.81 17.19 C-5.02 17.87 -6.24 18.55 -7.48 19.26 C-10.65 20.86 -13.67 22.05 -17.06 23.06 C-20.06 18.31 -20.06 18.31 -20.06 16.06 C-23.15 16.84 -23.15 16.84 -25.06 19.12 C-27.06 21.06 -27.06 21.06 -30.06 21.06 C-30.06 19.74 -30.06 18.42 -30.06 17.06 C-30.39 16.07 -30.72 15.08 -31.06 14.06 C-30.04 13.63 -29.01 13.19 -27.95 12.74 C-20.18 9.41 -8.17 0.17 0 0 Z " fill="#3094FF" transform="translate(152.0625,170.9375)"/>
<path d="M0 0 C0.66 0.33 1.32 0.66 2 1 C2 1.66 2 2.32 2 3 C2.66 3 3.32 3 4 3 C4 3.66 4 4.32 4 5 C4.66 5 5.32 5 6 5 C6 20.84 6 36.68 6 53 C5.01 53 4.02 53 3 53 C2.67 38.15 2.34 23.3 2 8 C-1.3 10.97 -4.6 13.94 -8 17 C-10.62 18.74 -13.27 20.43 -16 22 C-16.33 20.35 -16.66 18.7 -17 17 C-16.16 16.37 -15.31 15.75 -14.45 15.1 C-12.8 13.88 -12.8 13.88 -11.12 12.62 C-9.49 11.41 -9.49 11.41 -7.82 10.16 C-5.04 8.13 -5.04 8.13 -3 6 C-13.56 5.67 -24.12 5.34 -35 5 C-34.67 4.01 -34.34 3.02 -34 2 C-31.63 1.94 -29.26 1.88 -26.82 1.82 C-23.76 1.73 -20.71 1.65 -17.56 1.56 C-14.51 1.48 -11.46 1.4 -8.32 1.32 C-1.63 1.85 -1.63 1.85 0 0 Z " fill="#4CA1FF" transform="translate(304,286)"/>
<path d="M0 0 C1.06 3.18 1.05 3.96 0 7 C-0.99 8.48 -0.99 8.48 -2 10 C-1.34 10.66 -0.68 11.32 0 12 C0.12 14.62 0.12 14.62 0 17 C-0.66 17.33 -1.32 17.66 -2 18 C-1.67 16.35 -1.34 14.7 -1 13 C-1.99 13.66 -2.98 14.32 -4 15 C-3.67 16.98 -3.34 18.96 -3 21 C-4.98 21.99 -4.98 21.99 -7 23 C-5.68 23.33 -4.36 23.66 -3 24 C-3 24.99 -3 25.98 -3 27 C-2.34 27.33 -1.68 27.66 -1 28 C-2.62 30.13 -4.25 32.25 -5.88 34.38 C-6.78 35.56 -7.68 36.74 -8.62 37.96 C-11 41 -11 41 -13 43 C-15.12 42.62 -15.12 42.62 -17 42 C-16.67 39.36 -16.34 36.72 -16 34 C-16.66 34 -17.32 34 -18 34 C-18 33.34 -18 32.68 -18 32 C-18.99 31.67 -19.98 31.34 -21 31 C-20.62 30.63 -20.24 30.26 -19.86 29.88 C-12.89 22.54 -8.13 13.66 -3 5 C-2 3.33 -1 1.67 0 0 Z M-16 31 C-16 31.99 -16 32.98 -16 34 C-14.68 34.33 -13.36 34.66 -12 35 C-12.66 33.68 -13.32 32.36 -14 31 C-14.66 31 -15.32 31 -16 31 Z " fill="#5FA8FF" transform="translate(199,115)"/>
<path d="M0 0 C0.66 1.32 1.32 2.64 2 4 C-3.08 8.16 -8.45 11.88 -13.82 15.66 C-17.1 17.95 -17.1 17.95 -20 21 C-4.16 21.5 -4.16 21.5 12 22 C12 22.66 12 23.32 12 24 C12.66 24.33 13.32 24.66 14 25 C1.79 25.33 -10.42 25.66 -23 26 C-19.37 29.63 -15.74 33.26 -12 37 C-12.66 38.32 -13.32 39.64 -14 41 C-25.56 30.98 -25.56 30.98 -26.88 24.94 C-26.82 21.57 -26.16 20.21 -24.1 17.5 C-16.94 10.61 -8.37 5.31 0 0 Z " fill="#53A3FF" transform="translate(144,74)"/>
<path d="M0 0 C0.66 0.66 1.32 1.32 2 2 C1.34 3.32 0.68 4.64 0 6 C2.64 6.99 5.28 7.98 8 9 C4.75 17.25 -5.64 22.7 -13 27 C-13.12 26.38 -13.25 25.76 -13.38 25.12 C-13.87 22.81 -13.87 22.81 -16 21 C-15.34 19.02 -14.68 17.04 -14 15 C-14.99 15.33 -15.98 15.66 -17 16 C-17 15.01 -17 14.02 -17 13 C-14.8 11.13 -14.8 11.13 -11.88 9.12 C-7.74 6.24 -3.81 3.3 0 0 Z " fill="#439EFF" transform="translate(169,156)"/>
<path d="M0 0 C5 0 5 0 16.43 10.94 C21.01 15.58 25.59 20.22 30.31 25 C34.91 29.64 39.5 34.28 44.24 39.06 C49.57 44.48 49.57 44.48 55 50 C54.67 50.99 54.34 51.98 54 53 C43.46 47.73 33.97 35.09 25.88 26.94 C14 13.6 14 13.6 0 2 C0 1.34 0 0.68 0 0 Z " fill="#53A3FF" transform="translate(250,234)"/>
<path d="M0 0 C0.66 0.33 1.32 0.66 2 1 C1.93 2.73 1.93 2.73 1 5 C-10.57 13.24 -25.78 20.51 -40 22 C-40 20.68 -40 19.36 -40 18 C-38.96 17.66 -37.92 17.32 -36.84 16.97 C-25.02 12.97 -13.88 8.13 -3.16 1.7 C-2.12 1.14 -1.08 0.58 0 0 Z " fill="#308EFF" transform="translate(286,304)"/>
<path d="M0 0 C0.68 1.73 0.68 1.73 1 4 C-0.15 6.05 -0.15 6.05 -1.94 8.31 C-8.81 17.62 -13.91 27.93 -17.8 38.8 C-19 41 -19 41 -21.14 41.82 C-21.75 41.88 -22.37 41.94 -23 42 C-21.51 28.8 -13.33 15.82 -6 5 C-5.49 4.24 -4.98 3.49 -4.46 2.71 C-3 1 -3 1 0 0 Z " fill="#2E94FF" transform="translate(105,111)"/>
<path d="M0 0 C2.68 2.68 3 5.27 3 9 C5.47 9.5 5.47 9.5 8 10 C6.17 13.25 4.13 16.3 1.94 19.31 C1.43 20.01 0.92 20.71 0.4 21.43 C-0.06 21.95 -0.52 22.46 -1 23 C-1.66 23 -2.32 23 -3 23 C-3 21.68 -3 20.36 -3 19 C-3.66 19 -4.32 19 -5 19 C-5.5 16.53 -5.5 16.53 -6 14 C-7.98 14.66 -9.96 15.32 -12 16 C-10.45 12.54 -8.39 9.81 -6 6.88 C-5.3 6.01 -4.6 5.14 -3.88 4.24 C-2 2 -2 2 0 0 Z M0 11 C1 13 1 13 1 13 Z " fill="#479FFF" transform="translate(240,228)"/>
<path d="M0 0 C0.99 0.33 1.98 0.66 3 1 C3 18.82 3 36.64 3 55 C2.01 55 1.02 55 0 55 C0 36.85 0 18.7 0 0 Z " fill="#397FFF" transform="translate(115,207)"/>
<path d="M0 0 C16.83 0 33.66 0 51 0 C51.5 1.49 51.5 1.49 52 3 C34.84 3 17.68 3 0 3 C0 2.01 0 1.02 0 0 Z " fill="#3E75FF" transform="translate(19,192)"/>
<path d="M0 0 C1.5 1.31 1.5 1.31 3 3 C3 3.99 3 4.98 3 6 C-21.75 5.5 -21.75 5.5 -47 5 C-47 4.01 -47 3.02 -47 2 C-31.49 2 -15.98 2 0 2 C0 1.34 0 0.68 0 0 Z " fill="#436DFF" transform="translate(114,286)"/>
<path d="M0 0 C15.51 0 31.02 0 47 0 C47 0.99 47 1.98 47 3 C39.54 3.03 32.08 3.05 24.62 3.06 C20.47 3.07 16.32 3.09 12.04 3.1 C2 3 2 3 0 2 C0 1.34 0 0.68 0 0 Z " fill="#8CB8FF" transform="translate(156,96)"/>
<path d="M0 0 C0.99 0 1.98 0 3 0 C3 15.18 3 30.36 3 46 C2.01 46 1.02 46 0 46 C0 30.82 0 15.64 0 0 Z " fill="#3D77FF" transform="translate(211,341)"/>
<path d="M0 0 C-0.45 1.42 -0.91 2.83 -1.38 4.25 C-1.76 5.43 -1.76 5.43 -2.15 6.64 C-2.95 8.87 -3.9 10.9 -5 13 C-5.33 13.66 -5.66 14.32 -6 15 C-6.66 15 -7.32 15 -8 15 C-8.33 15.66 -8.66 16.32 -9 17 C-9.62 16.81 -10.24 16.63 -10.88 16.44 C-13.04 15.76 -13.04 15.76 -15 17 C-15.12 16.2 -15.25 15.39 -15.38 14.56 C-15.68 13.29 -15.68 13.29 -16 12 C-16.66 11.67 -17.32 11.34 -18 11 C-16.27 9.73 -14.54 8.46 -12.81 7.19 C-11.85 6.48 -10.89 5.77 -9.89 5.04 C-2.75 0 -2.75 0 0 0 Z " fill="#6DADFF" transform="translate(277,200)"/>
<path d="M0 0 C0.66 0.33 1.32 0.66 2 1 C1.46 6.54 -0.04 10.93 -2.31 16 C-3.2 18.01 -3.2 18.01 -4.11 20.06 C-5.91 23.82 -7.88 27.41 -10 31 C-11.65 31 -13.3 31 -15 31 C-14.48 30 -13.96 28.99 -13.43 27.96 C-9.5 20.25 -5.9 12.63 -3.01 4.48 C-2 2 -2 2 0 0 Z " fill="#7FB2FF" transform="translate(340,234)"/>
<path d="M0 0 C1.06 3.18 1.05 3.96 0 7 C-0.99 8.48 -0.99 8.48 -2 10 C-1.34 10.66 -0.68 11.32 0 12 C0.12 14.62 0.12 14.62 0 17 C-0.66 17.33 -1.32 17.66 -2 18 C-1.67 16.35 -1.34 14.7 -1 13 C-1.99 13.66 -2.98 14.32 -4 15 C-3.67 16.98 -3.34 18.96 -3 21 C-4.98 21.99 -4.98 21.99 -7 23 C-5.68 23.33 -4.36 23.66 -3 24 C-3 24.99 -3 25.98 -3 27 C-2.34 27.33 -1.68 27.66 -1 28 C-2.65 28.33 -4.3 28.66 -6 29 C-6.33 28.01 -6.66 27.02 -7 26 C-7.99 26 -8.98 26 -10 26 C-11.26 23.47 -11.26 23.47 -12 20 C-10.33 16.31 -10.33 16.31 -7.81 12.44 C-6.99 11.16 -6.18 9.88 -5.33 8.56 C-4.56 7.38 -3.79 6.21 -3 5 C-1.99 3.34 -0.99 1.67 0 0 Z " fill="#6DADFF" transform="translate(199,115)"/>
<path d="M0 0 C0.99 0 1.98 0 3 0 C3 14.19 3 28.38 3 43 C1.52 43.5 1.52 43.5 0 44 C0 29.48 0 14.96 0 0 Z " fill="#64A9FF" transform="translate(115,48)"/>
<path d="M0 0 C0.66 0 1.32 0 2 0 C2 14.19 2 28.38 2 43 C1.01 43 0.02 43 -1 43 C-1.03 36.02 -1.05 29.04 -1.06 22.06 C-1.07 18.18 -1.09 14.29 -1.1 10.29 C-1 1 -1 1 0 0 Z " fill="#436DFF" transform="translate(116,296)"/>
<path d="M0 0 C0.29 0.6 0.58 1.2 0.88 1.81 C2.05 4.19 2.05 4.19 4 7 C4.76 10.59 5.43 14.2 6.06 17.81 C6.4 19.76 6.75 21.7 7.1 23.71 C7.74 27.47 8.38 31.23 9 35 C8.34 35 7.68 35 7 35 C7 35.66 7 36.32 7 37 C6.34 37 5.68 37 5 37 C4.35 34.31 3.71 31.63 3.06 28.94 C2.7 27.44 2.34 25.94 1.97 24.4 C0.6 18.2 -0.13 12.41 -0.06 6.06 C-0.05 4.92 -0.04 3.78 -0.04 2.6 C-0.02 1.74 -0.01 0.88 0 0 Z " fill="#3C78FF" transform="translate(76,197)"/>
<path d="M0 0 C0 0.66 0 1.32 0 2 C0.66 2.33 1.32 2.66 2 3 C0.65 3.53 -0.7 4.06 -2.09 4.61 C-4.77 5.67 -4.77 5.67 -7.5 6.75 C-9.26 7.45 -11.03 8.14 -12.84 8.86 C-17.96 10.9 -17.96 10.9 -22.53 13.33 C-24.25 14.16 -24.25 14.16 -26 15 C-26.66 14.67 -27.32 14.34 -28 14 C-27.94 12.22 -27.94 12.22 -27 10 C-23.9 8.18 -23.9 8.18 -19.94 6.44 C-18.58 5.84 -17.22 5.24 -15.82 4.62 C-14.56 4.08 -13.3 3.55 -12 3 C-11.13 2.63 -10.26 2.26 -9.37 1.88 C-5.99 0.53 -3.69 0 0 0 Z " fill="#88B6FF" transform="translate(173,63)"/>
<path d="M0 0 C13.53 0 27.06 0 41 0 C40.67 0.99 40.34 1.98 40 3 C27.13 3 14.26 3 1 3 C0.67 2.01 0.34 1.02 0 0 Z " fill="#2F93FF" transform="translate(229,288)"/>
<path d="M0 0 C0 0.66 0 1.32 0 2 C0.99 2.66 1.98 3.32 3 4 C0.99 4.29 0.99 4.29 -1.06 4.59 C-2.83 4.85 -4.61 5.11 -6.44 5.38 C-9.07 5.76 -9.07 5.76 -11.75 6.15 C-16.99 6.91 -16.99 6.91 -21.97 8.29 C-23.3 8.52 -24.63 8.76 -26 9 C-26.99 8.01 -27.98 7.02 -29 6 C-24.36 3.68 -20.15 2.88 -15.06 1.88 C-13.3 1.52 -11.54 1.17 -9.72 0.8 C-5 0 -5 0 0 0 Z " fill="#A2BFFF" transform="translate(201,57)"/>
<path d="M0 0 C11.55 0 23.1 0 35 0 C35 0.66 35 1.32 35 2 C35.66 2.33 36.32 2.66 37 3 C24.79 3 12.58 3 0 3 C0 2.01 0 1.02 0 0 Z " fill="#3F9CFF" transform="translate(67,96)"/>
<path d="M0 0 C11.55 0 23.1 0 35 0 C35 0.99 35 1.98 35 3 C23.78 3 12.56 3 1 3 C0.67 2.01 0.34 1.02 0 0 Z " fill="#3980FF" transform="translate(169,288)"/>
<path d="M0 0 C1.33 2 2.67 4 4 6 C6.67 6.5 6.67 6.5 9 6 C5.53 9.9 1.45 12.37 -3 15 C-3.12 14.38 -3.25 13.76 -3.38 13.12 C-3.87 10.81 -3.87 10.81 -6 9 C-5.34 7.02 -4.68 5.04 -4 3 C-4.99 3.33 -5.98 3.66 -7 4 C-7 3.01 -7 2.02 -7 1 C-4.35 -0.33 -2.94 -0.49 0 0 Z " fill="#3A9AFF" transform="translate(159,168)"/>
<path d="M0 0 C1.32 0.33 2.64 0.66 4 1 C3.62 10.04 1.51 18.34 -1 27 C-2.32 26.34 -3.64 25.68 -5 25 C-3.35 16.75 -1.7 8.5 0 0 Z " fill="#9ABDFF" transform="translate(344,210)"/>
<path d="M0 0 C0.99 0.33 1.98 0.66 3 1 C3.08 6.29 3.14 11.58 3.19 16.88 C3.22 19.82 3.26 22.77 3.29 25.8 C3.2 28.18 3.1 30.55 3 33 C2.01 33.66 1.02 34.32 0 35 C0 23.45 0 11.9 0 0 Z " fill="#2F94FF" transform="translate(115,135)"/>
<path d="M0 0 C11.22 0 22.44 0 34 0 C34 0.66 34 1.32 34 2 C34.66 2.33 35.32 2.66 36 3 C25.11 3 14.22 3 3 3 C3 2.34 3 1.68 3 1 C2.01 0.67 1.02 0.34 0 0 Z " fill="#5DA7FF" transform="translate(122,96)"/>
<path d="M0 0 C7.37 1.19 14.69 2.48 22 4 C22.33 5.32 22.66 6.64 23 8 C6.11 6.07 6.11 6.07 -1 4 C-0.67 2.68 -0.34 1.36 0 0 Z " fill="#3C78FF" transform="translate(177,322)"/>
<path d="M0 0 C3 3 3 3 3.29 9.86 C3.26 12.61 3.22 15.35 3.19 18.19 C3.16 20.94 3.13 23.7 3.11 26.54 C3.07 28.67 3.04 30.8 3 33 C2.01 32.34 1.02 31.68 0 31 C-0.22 25.8 -0.25 20.58 -0.19 15.38 C-0.16 12.52 -0.13 9.66 -0.11 6.71 C-0.07 4.5 -0.04 2.28 0 0 Z " fill="#75AFFF" transform="translate(307,217)"/>
<path d="M0 0 C0.66 0 1.32 0 2 0 C4.29 4.58 3.08 11.7 3.06 16.62 C3.05 19.3 3.04 21.97 3.04 24.73 C3.02 26.8 3.01 28.87 3 31 C2.01 30.67 1.02 30.34 0 30 C0 20.1 0 10.2 0 0 Z " fill="#4AA0FF" transform="translate(115,105)"/>
<path d="M0 0 C0.99 0.33 1.98 0.66 3 1 C2.35 3.92 1.71 6.83 1.06 9.75 C0.7 11.37 0.34 13 -0.03 14.67 C-0.65 17.46 -1.31 20.23 -2 23 C-3.32 23 -4.64 23 -6 23 C-5.4 15.76 -3.88 9.01 -2 2 C-1.34 2 -0.68 2 0 2 C0 1.34 0 0.68 0 0 Z " fill="#3488FF" transform="translate(83,151)"/>
<path d="M0 0 C0.66 0 1.32 0 2 0 C2.66 1.65 3.32 3.3 4 5 C4.99 5 5.98 5 7 5 C7 5.99 7 6.98 7 8 C8.32 8.33 9.64 8.66 11 9 C9.02 11.31 7.04 13.62 5 16 C4.34 14.68 3.68 13.36 3 12 C2.34 11.67 1.68 11.34 1 11 C1 10.01 1 9.02 1 8 C-0.98 8 -2.96 8 -5 8 C-4.22 6.66 -3.42 5.33 -2.62 4 C-2.18 3.26 -1.74 2.51 -1.29 1.75 C-0.86 1.17 -0.44 0.59 0 0 Z " fill="#67AAFF" transform="translate(186,136)"/>
<path d="M0 0 C0.66 1.32 1.32 2.64 2 4 C-1.5 6.82 -5.03 9.6 -8.62 12.31 C-9.57 13.03 -10.51 13.75 -11.48 14.49 C-12.31 14.99 -13.14 15.49 -14 16 C-14.99 15.67 -15.98 15.34 -17 15 C-16.66 12.1 -16.18 11.15 -13.93 9.22 C-13.06 8.65 -12.2 8.08 -11.31 7.5 C-10.41 6.9 -9.52 6.3 -8.59 5.68 C-7.74 5.13 -6.88 4.57 -6 4 C-4.79 3.19 -3.58 2.38 -2.38 1.56 C-1.59 1.05 -0.81 0.53 0 0 Z " fill="#73AFFF" transform="translate(144,74)"/>
<path d="M0 0 C0.66 0.33 1.32 0.66 2 1 C1 5 1 5 -2.53 7.36 C-4.71 8.54 -4.71 8.54 -6.94 9.75 C-9.12 10.95 -9.12 10.95 -11.34 12.17 C-15 14 -15 14 -17 14 C-17.33 12.68 -17.66 11.36 -18 10 C-16.95 9.45 -15.9 8.89 -14.82 8.32 C-13.46 7.6 -12.09 6.87 -10.69 6.12 C-9.33 5.41 -7.97 4.69 -6.57 3.95 C-3.04 2.09 -3.04 2.09 0 0 Z " fill="#2E95FF" transform="translate(286,304)"/>
<path d="M0 0 C9.9 0 19.8 0 30 0 C30 0.99 30 1.98 30 3 C21.09 3 12.18 3 3 3 C3 2.34 3 1.68 3 1 C2.01 0.67 1.02 0.34 0 0 Z " fill="#76B0FF" transform="translate(328,288)"/>
<path d="M0 0 C1.07 0.22 1.07 0.22 2.17 0.44 C-0.27 6.03 -3.68 10.96 -7.83 15.44 C-8.82 15.77 -9.81 16.1 -10.83 16.44 C-11.49 15.78 -12.15 15.12 -12.83 14.44 C-11.29 12.09 -9.72 9.76 -8.14 7.44 C-7.27 6.14 -6.4 4.84 -5.51 3.5 C-2.83 0.44 -2.83 0.44 0 0 Z " fill="#63A9FF" transform="translate(326.83203125,264.5625)"/>
<path d="M0 0 C0.66 0 1.32 0 2 0 C2 8.25 2 16.5 2 25 C1.01 25 0.02 25 -1 25 C-1.03 21.02 -1.05 17.04 -1.06 13.06 C-1.07 10.85 -1.09 8.63 -1.1 6.35 C-1 1 -1 1 0 0 Z " fill="#3C9BFF" transform="translate(308,314)"/>
<path d="M0 0 C0.33 0.66 0.66 1.32 1 2 C0.34 2.66 -0.32 3.32 -1 4 C-1.31 4.68 -1.62 5.36 -1.94 6.06 C-3 8 -3 8 -6 9 C-6.66 9.68 -7.32 10.36 -8 11.06 C-10 13 -10 13 -13 13 C-13 11.68 -13 10.36 -13 9 C-13.33 8.01 -13.66 7.02 -14 6 C-9.38 4.02 -4.76 2.04 0 0 Z " fill="#2F8FFF" transform="translate(135,179)"/>
<path d="M0 0 C0.66 0.33 1.32 0.66 2 1 C2 8.26 2 15.52 2 23 C1.01 23 0.02 23 -1 23 C-1.03 19.35 -1.05 15.71 -1.06 12.06 C-1.07 10.03 -1.09 8 -1.1 5.91 C-1 1 -1 1 0 0 Z " fill="#3C79FF" transform="translate(116,239)"/>
<path d="M0 0 C0.33 1.32 0.66 2.64 1 4 C-4.83 6.5 -9.65 7.12 -16 7 C-15.67 5.68 -15.34 4.36 -15 3 C-7.57 1.51 -7.57 1.51 0 0 Z " fill="#3586FF" transform="translate(245,322)"/>
<path d="M0 0 C0.66 0.33 1.32 0.66 2 1 C1.46 7.18 -0.55 12.33 -3 18 C-3.66 18 -4.32 18 -5 18 C-6.39 13.49 -5.52 11 -3.62 6.75 C-3.16 5.69 -2.7 4.64 -2.23 3.55 C-1 1 -1 1 0 0 Z " fill="#8CB7FF" transform="translate(340,234)"/>
<path d="M0 0 C1.06 3.18 1.05 3.96 0 7 C-0.99 8.48 -0.99 8.48 -2 10 C-1.34 10.66 -0.68 11.32 0 12 C0.12 14.62 0.12 14.62 0 17 C-0.66 17.33 -1.32 17.66 -2 18 C-1.67 16.35 -1.34 14.7 -1 13 C-1.99 13.66 -2.98 14.32 -4 15 C-4 15.99 -4 16.98 -4 18 C-6.47 17.01 -6.47 17.01 -9 16 C-7.69 13.52 -6.38 11.04 -5.06 8.56 C-3.97 6.49 -3.97 6.49 -2.85 4.38 C-1 1 -1 1 0 0 Z " fill="#76B0FF" transform="translate(199,115)"/>
<path d="M0 0 C0.99 0.33 1.98 0.66 3 1 C1.26 4.06 -0.38 6.63 -3 9 C-2.34 9.33 -1.68 9.66 -1 10 C-1 10.66 -1 11.32 -1 12 C-2.98 12 -4.96 12 -7 12 C-7.5 9.53 -7.5 9.53 -8 7 C-6.74 5.8 -5.47 4.62 -4.19 3.44 C-3.13 2.45 -3.13 2.45 -2.04 1.43 C-1.37 0.96 -0.69 0.49 0 0 Z " fill="#58A5FF" transform="translate(126,87)"/>
<path d="M0 0 C0.66 0 1.32 0 2 0 C2 6.6 2 13.2 2 20 C1.01 20 0.02 20 -1 20 C-1.03 16.85 -1.05 13.71 -1.06 10.56 C-1.08 7.93 -1.08 7.93 -1.1 5.25 C-1 1 -1 1 0 0 Z " fill="#4171FF" transform="translate(212,367)"/>
<path d="M0 0 C0.66 0.99 1.32 1.98 2 3 C0.57 4.2 -0.87 5.38 -2.31 6.56 C-3.51 7.55 -3.51 7.55 -4.74 8.57 C-5.48 9.04 -6.23 9.51 -7 10 C-7.99 9.67 -8.98 9.34 -10 9 C-8.49 2.71 -7.12 -0.91 0 0 Z " fill="#67AAFF" transform="translate(268,217)"/>
<path d="M0 0 C0.66 0.33 1.32 0.66 2 1 C1.55 2.58 1.09 4.17 0.62 5.75 C0.37 6.63 0.11 7.51 -0.15 8.42 C-0.93 10.78 -1.72 12.87 -3 15 C-5.12 15.75 -5.12 15.75 -7 16 C-6.41 11.15 -5.02 7.39 -3 3 C-2.34 3 -1.68 3 -1 3 C-0.67 2.01 -0.34 1.02 0 0 Z " fill="#308FFF" transform="translate(89,137)"/>
<path d="M0 0 C0.66 0.66 1.32 1.32 2 2 C1.34 3.32 0.68 4.64 0 6 C2.64 6.99 5.28 7.98 8 9 C7.34 10.32 6.68 11.64 6 13 C4.68 12.01 3.36 11.02 2 10 C1.67 10.66 1.34 11.32 1 12 C-0.32 11.67 -1.64 11.34 -3 11 C-3.33 8.36 -3.66 5.72 -4 3 C-2.68 2.01 -1.36 1.02 0 0 Z " fill="#4BA0FF" transform="translate(169,156)"/>
<path d="M0 0 C0.71 1.67 0.71 1.67 1 4 C-0.43 6.58 -0.43 6.58 -2.44 9.25 C-3.43 10.59 -3.43 10.59 -4.43 11.95 C-4.95 12.63 -5.47 13.3 -6 14 C-6.99 13.67 -7.98 13.34 -9 13 C-8.56 8.15 -6.27 4.51 -3 1 C-2.01 0.67 -1.02 0.34 0 0 Z " fill="#3699FF" transform="translate(105,111)"/>
<path d="M0 0 C6.6 0 13.2 0 20 0 C19.67 0.99 19.34 1.98 19 3 C16.21 3.03 13.42 3.05 10.62 3.06 C8.29 3.08 8.29 3.08 5.91 3.1 C2 3 2 3 0 2 C0 1.34 0 0.68 0 0 Z " fill="#74AFFF" transform="translate(156,96)"/>
<path d="M0 0 C5.61 0 11.22 0 17 0 C17.33 0.99 17.66 1.98 18 3 C12.06 3 6.12 3 0 3 C0 2.01 0 1.02 0 0 Z " fill="#3B7BFF" transform="translate(152,288)"/>
<path d="M0 0 C5.94 0 11.88 0 18 0 C18 0.99 18 1.98 18 3 C11.73 3 5.46 3 -1 3 C-0.67 2.01 -0.34 1.02 0 0 Z " fill="#3E76FF" transform="translate(134,288)"/>
<path d="M0 0 C1 3 1 3 1 5 C-0.62 5.86 -2.25 6.72 -3.88 7.56 C-5.23 8.28 -5.23 8.28 -6.62 9 C-7.4 9.33 -8.19 9.66 -9 10 C-9.66 9.67 -10.32 9.34 -11 9 C-10.82 7.17 -10.82 7.17 -10 5 C-7.71 3.52 -7.71 3.52 -4.94 2.25 C-4.02 1.82 -3.1 1.39 -2.15 0.95 C-1.44 0.64 -0.73 0.32 0 0 Z " fill="#7CB1FF" transform="translate(156,68)"/>
<path d="M0 0 C5.61 0 11.22 0 17 0 C17 0.99 17 1.98 17 3 C11.72 3 6.44 3 1 3 C0.67 2.01 0.34 1.02 0 0 Z " fill="#3585FF" transform="translate(187,288)"/>
<path d="M0 0 C5.28 0 10.56 0 16 0 C16 0.99 16 1.98 16 3 C10.72 3 5.44 3 0 3 C0 2.01 0 1.02 0 0 Z " fill="#4170FF" transform="translate(19,192)"/>
<path d="M0 0 C0.99 0.33 1.98 0.66 3 1 C2.67 1.66 2.34 2.32 2 3 C2.66 3 3.32 3 4 3 C4.33 2.01 4.66 1.02 5 0 C5.33 0.66 5.66 1.32 6 2 C5 4.6 5 4.6 3.56 7.62 C3.09 8.63 2.62 9.63 2.13 10.66 C1.76 11.43 1.38 12.21 1 13 C0.34 12.34 -0.32 11.68 -1 11 C-0.62 8.88 -0.62 8.88 0 7 C-2.31 6.01 -4.62 5.02 -7 4 C-6.34 3.67 -5.68 3.34 -5 3 C-4.34 3.33 -3.68 3.66 -3 4 C-2.67 3.34 -2.34 2.68 -2 2 C-1.34 2 -0.68 2 0 2 C0 1.34 0 0.68 0 0 Z " fill="#2E91FF" transform="translate(221,269)"/>
<path d="M0 0 C0.99 0.33 1.98 0.66 3 1 C3.08 3.29 3.14 5.58 3.19 7.88 C3.22 9.15 3.26 10.43 3.29 11.74 C3.2 12.82 3.1 13.89 3 15 C2.01 15.66 1.02 16.32 0 17 C0 11.39 0 5.78 0 0 Z " fill="#3784FF" transform="translate(115,207)"/>
<path d="M0 0 C4.95 0 9.9 0 15 0 C15 0.99 15 1.98 15 3 C9.72 3 4.44 3 -1 3 C-0.67 2.01 -0.34 1.02 0 0 Z " fill="#3C9BFF" transform="translate(270,288)"/>
<path d="M0 0 C-0.45 1.44 -0.91 2.88 -1.38 4.31 C-1.63 5.11 -1.89 5.91 -2.15 6.74 C-3 9 -3 9 -5 12 C-5 11.34 -5 10.68 -5 10 C-5.66 10 -6.32 10 -7 10 C-7 8.68 -7 7.36 -7 6 C-7.99 5.67 -8.98 5.34 -10 5 C-8.71 4.16 -7.42 3.33 -6.12 2.5 C-5.41 2.04 -4.69 1.57 -3.95 1.09 C-2 0 -2 0 0 0 Z " fill="#77B0FF" transform="translate(277,200)"/>
<path d="M0 0 C2.27 -0.08 4.54 -0.14 6.81 -0.19 C8.08 -0.22 9.34 -0.26 10.64 -0.29 C14 0 14 0 17 3 C11.39 3 5.78 3 0 3 C0 2.01 0 1.02 0 0 Z " fill="#3599FF" transform="translate(67,96)"/>
<path d="M0 0 C4.95 0 9.9 0 15 0 C15.33 0.99 15.66 1.98 16 3 C10.72 3 5.44 3 0 3 C0 2.01 0 1.02 0 0 Z " fill="#3B7AFF" transform="translate(55,192)"/>
<path d="M0 0 C4.62 0 9.24 0 14 0 C14 0.66 14 1.32 14 2 C14.66 2.33 15.32 2.66 16 3 C10.72 3 5.44 3 0 3 C0 2.01 0 1.02 0 0 Z " fill="#6BACFF" transform="translate(142,96)"/>
<path d="M0 0 C1.49 0.99 1.49 0.99 3 2 C3.29 5.26 3.29 5.26 3.19 9.12 C3.16 10.41 3.13 11.69 3.11 13.01 C3.07 14 3.04 14.98 3 16 C2.01 15.67 1.02 15.34 0 15 C0 10.05 0 5.1 0 0 Z " fill="#6AABFF" transform="translate(307,248)"/>
<path d="M0 0 C0 1.32 0 2.64 0 4 C-1.43 4.42 -2.87 4.81 -4.31 5.19 C-5.11 5.41 -5.91 5.63 -6.74 5.86 C-9 6 -9 6 -10.79 4.55 C-11.19 4.04 -11.59 3.53 -12 3 C-7.8 0.75 -4.79 0 0 0 Z " fill="#9ABDFF" transform="translate(184,60)"/>
<path d="M0 0 C1 3 1 3 -0.44 6.19 C-1.21 7.58 -1.21 7.58 -2 9 C-1.34 9 -0.68 9 0 9 C-0.33 10.65 -0.66 12.3 -1 14 C-1.99 13.67 -2.98 13.34 -4 13 C-4.66 13.99 -5.32 14.98 -6 16 C-7 13 -7 13 -5.57 9.86 C-4.91 8.69 -4.24 7.52 -3.56 6.31 C-2.57 4.54 -2.57 4.54 -1.57 2.74 C-1.05 1.83 -0.53 0.93 0 0 Z " fill="#2D93FF" transform="translate(222,251)"/>
<path d="M0 0 C0.99 0 1.98 0 3 0 C3 4.62 3 9.24 3 14 C2.01 13.67 1.02 13.34 0 13 C0 8.71 0 4.42 0 0 Z " fill="#72AEFF" transform="translate(115,48)"/>
<path d="M0 0 C0.66 0 1.32 0 2 0 C2 4.62 2 9.24 2 14 C1.01 13.67 0.02 13.34 -1 13 C-1.03 11.02 -1.05 9.04 -1.06 7.06 C-1.07 5.96 -1.09 4.86 -1.1 3.72 C-1 1 -1 1 0 0 Z " fill="#3D9BFF" transform="translate(116,122)"/>
<path d="M0 0 C1.32 0 2.64 0 4 0 C3.53 4.25 1.03 6.2 -2 9 C-2.99 8.67 -3.98 8.34 -5 8 C-3.63 5.05 -2.22 2.4 0 0 Z " fill="#459FFF" transform="translate(108,104)"/>
<path d="M0 0 C-4.96 5.14 -4.96 5.14 -8 7 C-8.99 6.67 -9.98 6.34 -11 6 C-10.64 3.37 -10.14 2.16 -8.31 0.19 C-5.21 -1.41 -3.31 -0.83 0 0 Z " fill="#68A9FF" transform="translate(138,83)"/>
<path d="M0 0 C4.62 0 9.24 0 14 0 C14.33 0.99 14.66 1.98 15 3 C11.04 3 7.08 3 3 3 C3 2.34 3 1.68 3 1 C2.01 0.67 1.02 0.34 0 0 Z " fill="#66AAFF" transform="translate(328,288)"/>
<path d="M0 0 C1.49 1.14 1.49 1.14 3 3 C3.29 5.7 3.29 5.7 3.19 8.69 C3.16 9.68 3.13 10.68 3.11 11.7 C3.07 12.46 3.04 13.22 3 14 C2.01 14.5 2.01 14.5 1 15 C-0.44 12.12 -0.09 9.58 -0.06 6.38 C-0.05 5.19 -0.04 4 -0.04 2.77 C-0.02 1.86 -0.01 0.94 0 0 Z " fill="#83B4FF" transform="translate(307,217)"/>
<path d="M0 0 C0 0.66 0 1.32 0 2 C-0.66 2 -1.32 2 -2 2 C-2.33 2.66 -2.66 3.32 -3 4 C-1.68 4.33 -0.36 4.66 1 5 C-2.96 4.67 -6.92 4.34 -11 4 C-11.33 3.01 -11.66 2.02 -12 1 C-7.92 0.46 -4.13 0 0 0 Z " fill="#3683FF" transform="translate(101,191)"/>
<path d="M0 0 C1.98 0.5 1.98 0.5 4 1 C3.67 4.3 3.34 7.6 3 11 C1.68 10.34 0.36 9.68 -1 9 C-0.67 6.03 -0.34 3.06 0 0 Z " fill="#A5C0FF" transform="translate(344,210)"/>
<path d="M0 0 C2.97 0.33 5.94 0.66 9 1 C9 2.65 9 4.3 9 6 C6.69 6.33 4.38 6.66 2 7 C2.04 6.22 2.08 5.43 2.12 4.62 C2.29 1.84 2.29 1.84 0 0 Z " fill="#A5C0FF" transform="translate(319,190)"/>
<path d="M0 0 C2.21 0.01 3.99 1.79 4 3 C3.99 5.21 2.21 7 0 7 C-1.66 7 -3 5.66 -3 3 C-3 1.34 -1.66 0 0 0 Z " fill="#2E96FF" transform="translate(228,258.99977924)"/>
<path d="M0 0 C1.44 -0.03 2.87 -0.05 4.31 -0.06 C5.51 -0.08 5.51 -0.08 6.74 -0.1 C9 0 9 0 12 1 C12 1.66 12 2.32 12 3 C8.04 3 4.08 3 0 3 C0 2.01 0 1.02 0 0 Z " fill="#60A8FF" transform="translate(319,288)"/>
<path d="M0 0 C4.29 0 8.58 0 13 0 C12.67 0.99 12.34 1.98 12 3 C10.38 3.08 8.75 3.14 7.12 3.19 C5.77 3.24 5.77 3.24 4.38 3.29 C3.2 3.15 3.2 3.15 2 3 C1.34 2.01 0.68 1.02 0 0 Z " fill="#3498FF" transform="translate(257,288)"/>
<path d="M0 0 C1.14 0.34 1.14 0.34 2.31 0.69 C1.36 1.84 0.4 2.98 -0.56 4.12 C-1.1 4.76 -1.63 5.4 -2.18 6.06 C-3.69 7.69 -3.69 7.69 -5.69 8.69 C-6.05 3.28 -6.05 3.28 -4.5 0.75 C-2.69 -0.31 -2.69 -0.31 0 0 Z " fill="#5DA6FF" transform="translate(315.6875,280.3125)"/>
<path d="M0 0 C2.69 -0.31 2.69 -0.31 5 0 C2.38 5.75 2.38 5.75 -1 8 C-1.66 7.01 -2.32 6.02 -3 5 C-1.81 2.5 -1.81 2.5 0 0 Z " fill="#6FADFF" transform="translate(324,265)"/>
<path d="M0 0 C0 0.66 0 1.32 0 2 C0.66 2.33 1.32 2.66 2 3 C-1.37 4.5 -3.2 5 -7 5 C-7 4.34 -7 3.68 -7 3 C-7.66 2.67 -8.32 2.34 -9 2 C-5.63 0.5 -3.8 0 0 0 Z " fill="#91B8FF" transform="translate(173,63)"/>
<path d="M0 0 C3.3 0 6.6 0 10 0 C10 0.99 10 1.98 10 3 C6.37 3 2.74 3 -1 3 C-0.67 2.01 -0.34 1.02 0 0 Z " fill="#82B4FF" transform="translate(176,96)"/>
<path d="M0 0 C0.99 0.33 1.98 0.66 3 1 C3 4.3 3 7.6 3 11 C2.01 11.33 1.02 11.66 0 12 C0 8.04 0 4.08 0 0 Z " fill="#5CA7FF" transform="translate(115,80)"/>
<path d="M0 0 C0 0.66 0 1.32 0 2 C0.99 2.66 1.98 3.32 3 4 C-0.63 4 -4.26 4 -8 4 C-8.33 3.01 -8.66 2.02 -9 1 C-5.93 0.09 -3.2 -0.09 0 0 Z " fill="#AAC2FF" transform="translate(201,57)"/>
<path d="M0 0 C0.99 0.33 1.98 0.66 3 1 C3 4.3 3 7.6 3 11 C2.01 11 1.02 11 0 11 C0 7.37 0 3.74 0 0 Z " fill="#3598FF" transform="translate(307,328)"/>
<path d="M0 0 C1.62 -0.08 3.25 -0.14 4.88 -0.19 C5.78 -0.22 6.68 -0.26 7.62 -0.29 C8.8 -0.15 8.8 -0.15 10 0 C10.66 0.99 11.32 1.98 12 3 C10.38 3.03 8.75 3.05 7.12 3.06 C5.77 3.08 5.77 3.08 4.38 3.1 C2 3 2 3 0 2 C0 1.34 0 0.68 0 0 Z " fill="#A7C1FF" transform="translate(225,96)"/>
<path d="M0 0 C2.21 0.01 3.99 1.79 4 4 C3.99 6.21 2.21 8 0 8 C-2.21 8 -3.99 6.21 -4 4 C-3.99 1.79 -2.21 0.01 0 0 Z " fill="#3698FF" transform="translate(284,303.99977924)"/>
<path d="M0 0 C0.76 0.21 1.53 0.41 2.31 0.62 C0 3.12 0 3.12 -2.69 5.62 C-3.68 5.62 -4.67 5.62 -5.69 5.62 C-5.69 4.31 -5.69 2.99 -5.69 1.62 C-2.69 -0.38 -2.69 -0.38 0 0 Z " fill="#3D9BFF" transform="translate(292.6875,301.375)"/>
<path d="M0 0 C3.3 0 6.6 0 10 0 C10 0.66 10 1.32 10 2 C10.66 2.33 11.32 2.66 12 3 C10.38 3.03 8.75 3.05 7.12 3.06 C5.77 3.08 5.77 3.08 4.38 3.1 C2 3 2 3 0 2 C0 1.34 0 0.68 0 0 Z " fill="#469EFF" transform="translate(92,96)"/>
<path d="M0 0 C0.66 0.33 1.32 0.66 2 1 C2 3.97 2 6.94 2 10 C1.01 10.33 0.02 10.66 -1 11 C-1.03 9.35 -1.05 7.71 -1.06 6.06 C-1.07 5.15 -1.09 4.23 -1.1 3.29 C-1 1 -1 1 0 0 Z " fill="#479FFF" transform="translate(308,304)"/>
<path d="M0 0 C1.66 0 3 1.34 3 3 C3 4.66 1.66 6 0 6 C-1.66 6 -3 4.66 -3 3 C-3 1.34 -1.66 0 0 0 Z " fill="#77B0FF" transform="translate(328,256.99983443)"/>
<path d="M0 0 C2.97 1.98 2.97 1.98 6 4 C5.34 5.65 4.68 7.3 4 9 C3.34 9 2.68 9 2 9 C2 7.68 2 6.36 2 5 C1.34 5 0.68 5 0 5 C0 3.35 0 1.7 0 0 Z " fill="#3F9CFF" transform="translate(235,242)"/>
<path d="M0 0 C0.99 0.33 1.98 0.66 3 1 C3 4.3 3 7.6 3 11 C2.01 10.34 1.02 9.68 0 9 C-0.29 6.84 -0.29 6.84 -0.19 4.38 C-0.16 3.56 -0.13 2.74 -0.11 1.9 C-0.05 0.96 -0.05 0.96 0 0 Z " fill="#7BB2FF" transform="translate(307,230)"/>
<path d="M0 0 C0.99 0.33 1.98 0.66 3 1 C3 3.97 3 6.94 3 10 C2.01 9.67 1.02 9.34 0 9 C0 6.03 0 3.06 0 0 Z " fill="#3498FF" transform="translate(115,135)"/>
<path d="M0 0 C2.21 0.01 3.99 1.79 4 3 C3.99 5.21 2.21 7 0 7 C-1.66 7 -3 5.66 -3 3 C-3 1.34 -1.66 0 0 0 Z " fill="#3D9BFF" transform="translate(102,110.99977924)"/>
<path d="M0 0 C1.66 0 3 1.34 3 3 C3 4.66 1.66 6 0 6 C-1.66 6 -3 4.66 -3 3 C-3 1.34 -1.66 0 0 0 Z " fill="#62A8FF" transform="translate(261,218.99983443)"/>
<path d="M0 0 C3.3 0 6.6 0 10 0 C9.67 0.99 9.34 1.98 9 3 C6.36 3 3.72 3 1 3 C0.67 2.01 0.34 1.02 0 0 Z " fill="#7BB1FF" transform="translate(166,96)"/>
<path d="M0 0 C2.64 0 5.28 0 8 0 C8 0.99 8 1.98 8 3 C5.36 3 2.72 3 0 3 C0 2.01 0 1.02 0 0 Z " fill="#469FFF" transform="translate(285,288)"/>
<path d="M0 0 C0.99 0 1.98 0 3 0 C3 2.64 3 5.28 3 8 C2.01 8.33 1.02 8.66 0 9 C0 6.03 0 3.06 0 0 Z " fill="#5DA7FF" transform="translate(307,274)"/>
<path d="M0 0 C0.99 0 1.98 0 3 0 C3 1.98 3 3.96 3 6 C1.68 6.33 0.36 6.66 -1 7 C-1.04 5 -1.04 3 -1 1 C-0.67 0.67 -0.34 0.34 0 0 Z " fill="#ABC2FF" transform="translate(346,204)"/>
<path d="M0 0 C2.21 0.01 3.99 1.79 4 3 C3.99 5.21 2.21 7 0 7 C-1.66 7 -3 5.66 -3 3 C-3 1.34 -1.66 0 0 0 Z " fill="#5FA7FF" transform="translate(125,86.99977924)"/>
<path d="M0 0 C6.75 -0.12 6.75 -0.12 9 1 C9 1.66 9 2.32 9 3 C6.36 3 3.72 3 1 3 C0.67 2.01 0.34 1.02 0 0 Z " fill="#70AEFF" transform="translate(342,288)"/>
<path d="M0 0 C0.33 0.66 0.66 1.32 1 2 C-0.98 4.97 -0.98 4.97 -3 8 C-3.66 7.67 -4.32 7.34 -5 7 C-4.49 4.83 -4 3 -3 1 C-2.01 0.67 -1.02 0.34 0 0 Z " fill="#74AFFF" transform="translate(203,132)"/>
<path d="M0 0 C0.99 0.33 1.98 0.66 3 1 C3.19 3.81 3.19 3.81 3 7 C2.01 7.99 1.02 8.98 0 10 C0 6.7 0 3.4 0 0 Z " fill="#6AACFF" transform="translate(115,61)"/>
<path d="M0 0 C1.66 0 3 1.34 3 3 C3 4.66 1.66 6 0 6 C-1.66 6 -3 4.66 -3 3 C-3 1.34 -1.66 0 0 0 Z " fill="#69AAFF" transform="translate(321,270.99983443)"/>
<path d="M0 0 C0.33 0 0.66 0 1 0 C1 2.64 1 5.28 1 8 C0.01 8.33 -0.98 8.66 -2 9 C-2.12 5.62 -2.12 5.62 -2 2 C-1.34 1.34 -0.68 0.68 0 0 Z " fill="#449EFF" transform="translate(117,114)"/>
<path d="M0 0 C1 3 1 3 1 5 C-0.98 5.66 -2.96 6.32 -5 7 C-4.75 4.62 -4.75 4.62 -4 2 C-1.94 0.69 -1.94 0.69 0 0 Z " fill="#81B3FF" transform="translate(156,68)"/>
<path d="M0 0 C2.31 0 4.62 0 7 0 C7 0.99 7 1.98 7 3 C4.69 3 2.38 3 0 3 C0 2.01 0 1.02 0 0 Z " fill="#ABC2FF" transform="translate(328,192)"/>
<path d="M0 0 C2.97 0 5.94 0 9 0 C9 0.99 9 1.98 9 3 C6.19 3.19 6.19 3.19 3 3 C2.01 2.01 1.02 1.02 0 0 Z " fill="#63A9FF" transform="translate(133,96)"/>
<path d="M0 0 C1.66 0 3 1.34 3 3 C3 4.66 1.66 6 0 6 C-1.66 6 -3 4.66 -3 3 C-3 1.34 -1.66 0 0 0 Z " fill="#3398FF" transform="translate(148,170.99983443)"/>
<path d="M0 0 C1.06 3.17 0.98 3.96 0 7 C-0.33 7.66 -0.66 8.32 -1 9 C-1.99 8.67 -2.98 8.34 -4 8 C-2.68 5.36 -1.36 2.72 0 0 Z " fill="#7EB2FF" transform="translate(199,115)"/>
<path d="M0 0 C1.65 0.33 3.3 0.66 5 1 C5 1.66 5 2.32 5 3 C2.69 3.33 0.38 3.66 -2 4 C-1.34 2.68 -0.68 1.36 0 0 Z " fill="#6EADFF" transform="translate(136,79)"/>
<path d="M0 0 C0.66 0 1.32 0 2 0 C2 1.98 2 3.96 2 6 C1.01 6 0.02 6 -1 6 C-1.04 4.33 -1.04 2.67 -1 1 C-0.67 0.67 -0.34 0.34 0 0 Z " fill="#419DFF" transform="translate(308,314)"/>
<path d="M0 0 C2.31 0 4.62 0 7 0 C7.33 0.99 7.66 1.98 8 3 C3.45 3.37 3.45 3.37 1.19 1.5 C0.6 0.76 0.6 0.76 0 0 Z " fill="#6BACFF" transform="translate(335,288)"/>
<path d="M0 0 C1.49 0.99 1.49 0.99 3 2 C3.19 5.12 3.19 5.12 3 8 C2.01 7.34 1.02 6.68 0 6 C-0.19 2.88 -0.19 2.88 0 0 Z " fill="#6FADFF" transform="translate(307,248)"/>
<path d="M0 0 C2.31 0 4.62 0 7 0 C7 0.99 7 1.98 7 3 C2.25 3.12 2.25 3.12 0 2 C0 1.34 0 0.68 0 0 Z " fill="#419DFF" transform="translate(278,288)"/>
<path d="M0 0 C0.66 0.99 1.32 1.98 2 3 C0 6 0 6 -2.12 6.69 C-2.74 6.79 -3.36 6.89 -4 7 C-2.8 4.51 -1.55 2.32 0 0 Z " fill="#409CFF" transform="translate(232,237)"/>
<path d="M0 0 C1.66 0 3 1.34 3 3 C3 4.66 1.66 6 0 6 C-1.66 6 -3 4.66 -3 3 C-3 1.34 -1.66 0 0 0 Z " fill="#4DA0FF" transform="translate(112,99.99983442999999)"/>
</svg>
