<svg fill="none" viewBox="0 0 200 200" version="1.1" xmlns="http://www.w3.org/2000/svg" width="32" height="32">
<path d="M0 0 C66 0 132 0 200 0 C200 66 200 132 200 200 C134 200 68 200 0 200 C0 134 0 68 0 0 Z " fill="#FEFEFE" transform="translate(0,0)"/>
<path d="M0 0 C3.46 1.82 6.87 3.73 10.25 5.69 C13.31 7.45 13.31 7.45 16.44 9.24 C18.61 10.48 20.77 11.72 23 13 C27.39 15.46 31.79 17.92 36.19 20.38 C44.18 24.83 52.09 29.39 60 34 C61.17 50.87 61.17 50.87 60.75 71.44 C60.64 78.24 60.53 85.05 60.42 92.06 C60.28 97.32 60.14 102.58 60 108 C55.65 110.48 51.3 112.97 46.82 115.52 C24.49 128.14 24.49 128.14 2.57 141.46 C-2 144 -2 144 -6 143 C-20.14 135.48 -33.95 127.34 -47.7 119.13 C-54.09 115.35 -60.55 111.68 -67 108 C-67 83.58 -67 59.16 -67 34 C-52.26 25.74 -37.51 17.49 -22.76 9.25 C-18.65 6.93 -14.6 4.51 -10.58 2.03 C-5 -1 -5 -1 0 0 Z " fill="#6D78F2" transform="translate(104,28)"/>
<path d="M0 0 C7.13 2.38 13.13 5.82 19.69 9.5 C22.1 10.85 24.52 12.2 27.01 13.59 C30.05 15.32 33.09 17.06 36 19 C36.22 31.37 36.25 43.75 36.19 56.12 C36.16 62.98 36.13 69.83 36.11 76.88 C36.07 82.2 36.04 87.52 36 93 C29.48 96.72 29.48 96.72 22.82 100.52 C11.56 106.96 0.33 113.45 -10.86 120.01 C-24.61 128 -24.61 128 -27 128 C-27.05 124.19 -27.09 120.38 -27.12 116.56 C-27.15 114.44 -27.17 112.32 -27.2 110.13 C-26.69 94.27 -19.91 80.8 -8.85 69.55 C-1.17 62.68 7.42 58.63 17 55 C16.35 54.79 15.69 54.58 15.02 54.37 C-0.6 49.1 -11.42 41.03 -20 27 C-19 25 -19 25 -17.06 24.19 C-14.79 23.18 -14.79 23.18 -14.25 20.81 C-12.87 17.72 -11.64 16.69 -9.06 14.56 C-5.6 11.68 -3.7 9.25 -2 5 C-1.61 4.24 -1.22 3.47 -0.81 2.69 C0.07 1.16 0.07 1.16 0 0 Z " fill="#6178ED" transform="translate(128,43)"/>
<path d="M0 0 C0.33 0 0.66 0 1 0 C1.35 1.56 1.35 1.56 1.7 3.15 C5.26 18.36 11.35 33.07 25 42 C33.03 46.52 40.81 50.69 50 52 C50 52.33 50 52.66 50 53 C49.16 53.09 49.16 53.09 48.3 53.19 C34.02 55.37 21.72 63.31 12.94 74.66 C6.72 83.95 2.64 93.94 1 105 C0.67 105 0.34 105 0 105 C-0.21 104 -0.42 102.99 -0.63 101.96 C-4.35 85.44 -11.27 71.57 -25.43 61.58 C-32.34 57.43 -39.09 54.55 -47 53 C-44.59 50.59 -42.89 50.26 -39.62 49.31 C-24.21 44.3 -13.63 35.2 -6 21 C-2.96 14.22 -1.21 7.31 0 0 Z " fill="#FDFDFE" transform="translate(100,46)"/>
<path d="M0 0 C7.13 2.38 13.13 5.82 19.69 9.5 C22.1 10.85 24.52 12.2 27.01 13.59 C30.05 15.32 33.09 17.06 36 19 C36.22 25.04 36.25 31.08 36.19 37.12 C36.15 42.11 36.15 42.11 36.11 47.2 C36.07 49.77 36.04 52.35 36 55 C14.85 55.6 14.85 55.6 6 51 C4.99 50.49 3.99 49.98 2.95 49.46 C-7.33 43.87 -13.94 36.92 -20 27 C-19 25 -19 25 -17.06 24.19 C-14.79 23.18 -14.79 23.18 -14.25 20.81 C-12.87 17.72 -11.64 16.69 -9.06 14.56 C-5.6 11.68 -3.7 9.25 -2 5 C-1.61 4.24 -1.22 3.47 -0.81 2.69 C0.07 1.16 0.07 1.16 0 0 Z " fill="#4765E7" transform="translate(128,43)"/>
<path d="M0 0 C13.48 10.67 21.66 24.9 24 42 C24.51 49 24.81 55.99 25 63 C6.66 58.42 -13.26 43.49 -29 33 C-29 31 -29 31 -27 28.88 C-26 27.91 -25 26.95 -24 26 C-20.04 22.2 -16.23 18.54 -13.12 14 C-12.42 13.01 -11.72 12.02 -11 11 C-10.34 11 -9.68 11 -9 11 C-8.77 10.46 -8.55 9.93 -8.31 9.38 C-6.31 5.74 -3.77 1.89 0 0 Z " fill="#7C92F5" transform="translate(77,109)"/>
<path d="M0 0 C14.46 0 26.08 0.66 38 9 C38.66 9.99 39.32 10.98 40 12 C39.26 12.72 38.52 13.44 37.75 14.19 C34.99 16.91 34.99 16.91 32.81 19.81 C32.21 20.53 31.62 21.26 31 22 C30.34 22 29.68 22 29 22 C28.76 22.56 28.52 23.12 28.27 23.7 C26.73 26.48 24.85 28.54 22.69 30.88 C20.08 33.7 17.54 36.52 15.19 39.56 C13 42 13 42 9 43 C6.03 41.35 3.06 39.7 0 38 C0 25.46 0 12.92 0 0 Z " fill="#5794EB" transform="translate(37,98)"/>
<path d="M0 0 C0 12.54 0 25.08 0 38 C-4.69 40.35 -7.09 41.42 -12 42 C-13.61 38.79 -13.06 35.56 -13 32 C-13.66 32 -14.32 32 -15 32 C-16 29.54 -17 27.08 -18 24.62 C-18.56 23.26 -19.11 21.89 -19.69 20.48 C-21 17 -21 17 -21 15 C-21.66 15 -22.32 15 -23 15 C-23.33 14.67 -23.66 14.34 -24 14 C-24.33 14.66 -24.66 15.32 -25 16 C-28.4 14.87 -29.05 13.87 -31 11 C-31.66 11.66 -32.32 12.32 -33 13 C-33.33 12.01 -33.66 11.02 -34 10 C-34.66 10.66 -35.32 11.32 -36 12 C-36.66 12 -37.32 12 -38 12 C-38.33 12.99 -38.66 13.98 -39 15 C-40.32 14.67 -41.64 14.34 -43 14 C-31.2 1.14 -16.54 0 0 0 Z " fill="#8183F6" transform="translate(164,98)"/>
<path d="M0 0 C6.43 1.29 11 4.19 16.69 7.44 C18.75 8.61 20.82 9.79 22.95 11 C28 14 28 14 30 16 C29.38 21.95 24.81 26.73 21 31 C20.11 31.66 19.23 32.32 18.31 33 C15.74 34.88 15.74 34.88 14.94 38.19 C14 41 14 41 12.06 42 C10 42 10 42 7 40 C0.83 27.35 0.54 13.81 0 0 Z " fill="#717AF3" transform="translate(99,27)"/>
<path d="M0 0 C0.99 0 1.98 0 3 0 C3.9 29.29 3.9 29.29 -2.38 37.89 C-3.75 39.31 -3.75 39.31 -6 41 C-9 39 -9 39 -9.69 35.88 C-9.79 34.93 -9.89 33.98 -10 33 C-11.48 32.51 -11.48 32.51 -13 32 C-14.17 29.71 -14.17 29.71 -15.19 26.94 C-15.53 26.02 -15.88 25.1 -16.23 24.15 C-16.48 23.44 -16.74 22.73 -17 22 C-17.99 22 -18.98 22 -20 22 C-22.19 20 -22.19 20 -24 18 C-23.83 18.52 -23.67 19.03 -23.5 19.56 C-22.85 22.73 -22.94 25.77 -23 29 C-23.99 28.67 -24.98 28.34 -26 28 C-26 26.02 -26 24.04 -26 22 C-27.65 21.67 -29.3 21.34 -31 21 C-30 17 -30 17 -23.59 13.14 C-20.92 11.71 -18.25 10.29 -15.5 8.81 C-7.42 5.03 -7.42 5.03 0 0 Z " fill="#3E61E4" transform="translate(97,28)"/>
<path d="M0 0 C0.33 0 0.66 0 1 0 C1.12 0.78 1.25 1.57 1.38 2.38 C1.79 5.14 1.79 5.14 4 7 C3.67 7.99 3.34 8.98 3 10 C3.99 11.49 3.99 11.49 5 13 C5.66 11.68 6.32 10.36 7 9 C7.29 10.24 7.58 11.47 7.88 12.75 C8.46 15.12 9.03 17.06 10.12 19.25 C11 21 11 21 11 25 C11.66 25 12.32 25 13 25 C13 24.34 13 23.68 13 23 C13.66 23 14.32 23 15 23 C15.33 24.65 15.66 26.3 16 28 C19.61 27.34 19.61 27.34 23 26 C23 24.35 23 22.7 23 21 C27.75 22.88 27.75 22.88 30 24 C21.29 29.3 12.52 34.47 3.69 39.56 C1.9 40.6 0.11 41.63 -1.74 42.69 C-6 45 -6 45 -8 45 C-8.05 41.19 -8.09 37.38 -8.12 33.56 C-8.15 31.44 -8.17 29.32 -8.2 27.13 C-7.94 19.04 -6.65 12.58 -2.88 5.44 C-2.07 3.89 -2.07 3.89 -1.24 2.31 C-0.63 1.17 -0.63 1.17 0 0 Z " fill="#3F6CE4" transform="translate(109,126)"/>
<path d="M0 0 C0.33 0 0.66 0 1 0 C1 11.55 1 23.1 1 35 C-12.73 35.39 -22.33 35.2 -34 28 C-32.68 27.67 -31.36 27.34 -30 27 C-29.67 27.66 -29.34 28.32 -29 29 C-28.34 29 -27.68 29 -27 29 C-26.94 28.45 -26.87 27.9 -26.81 27.33 C-24.03 19.32 -13.64 12.67 -7.09 7.66 C-5 6.07 -5 6.07 -3.34 4.28 C-2 3 -2 3 0 3 C0 2.01 0 1.02 0 0 Z " fill="#3D61E4" transform="translate(163,63)"/>
<path d="M0 0 C6.16 1.67 11.48 4.88 17 8 C16.48 12.08 14.42 13.87 11.5 16.62 C8.33 19.5 8.33 19.5 6 23 C4.34 24.01 2.67 25.01 1 26 C-3.85 29.45 -8.47 33.15 -13 37 C-15.31 33.7 -17.62 30.4 -20 27 C-19 25 -19 25 -17.06 24.19 C-14.79 23.18 -14.79 23.18 -14.25 20.81 C-12.87 17.72 -11.64 16.69 -9.06 14.56 C-5.6 11.68 -3.7 9.25 -2 5 C-1.61 4.24 -1.22 3.47 -0.81 2.69 C0.07 1.16 0.07 1.16 0 0 Z " fill="#6675F0" transform="translate(128,43)"/>
<path d="M0 0 C0.99 0 1.98 0 3 0 C6.75 12.33 7.75 24.14 8 37 C2.86 35.71 -1.08 33.31 -5.69 30.69 C-7.4 29.72 -9.12 28.76 -10.89 27.76 C-15 25 -15 25 -16 21 C-13.75 18.56 -13.75 18.56 -11 16 C-9.98 14.35 -8.97 12.68 -8 11 C-7 10 -6 9 -5 8 C-4.67 7.01 -4.34 6.02 -4 5 C-3.02 3.98 -2.02 2.98 -1 2 C-0.67 1.34 -0.34 0.68 0 0 Z " fill="#9C8FFD" transform="translate(94,135)"/>
<path d="M0 0 C3.47 2.97 3.47 2.97 7 6 C5.19 9.62 3.98 11.2 1.12 13.88 C-2.11 17.03 -4.64 20.12 -7 24 C-9.06 27.25 -10.93 29.93 -13.69 32.62 C-15.91 34.91 -16.66 35.91 -17 39 C-21.31 37.43 -25.06 35.32 -29 33 C-29 31 -29 31 -27 28.88 C-26 27.91 -25 26.95 -24 26 C-20.04 22.2 -16.23 18.54 -13.12 14 C-12.42 13.01 -11.72 12.02 -11 11 C-10.34 11 -9.68 11 -9 11 C-8.77 10.46 -8.55 9.93 -8.31 9.38 C-6.31 5.74 -3.77 1.89 0 0 Z " fill="#6893EF" transform="translate(77,109)"/>
<path d="M0 0 C3.95 1.17 6.78 2.45 10 5 C6.33 8.67 2.67 12.33 -1 16 C-1.72 16.74 -2.43 17.47 -3.17 18.23 C-5 20 -5 20 -8 22 C-8.68 23.32 -9.35 24.66 -10 26 C-13.4 30.06 -16.76 33.57 -22 35 C-23.98 33.02 -25.96 31.04 -28 29 C-26.59 25.7 -24.93 23.8 -22.19 21.5 C-21.48 20.9 -20.76 20.3 -20.03 19.68 C-19.36 19.13 -18.69 18.57 -18 18 C-17.07 17.2 -16.14 16.39 -15.19 15.56 C-13 14 -13 14 -10 14 C-9.63 13.14 -9.63 13.14 -9.26 12.26 C-7.79 9.63 -6.06 7.94 -3.88 5.88 C-2.55 4.62 -1.24 3.34 0 2 C0 1.34 0 0.68 0 0 Z " fill="#536BEA" transform="translate(144,52)"/>
<path d="M0 0 C15.75 0 15.75 0 23 2 C23 4 23 4 20.75 6.5 C18 9 18 9 15.75 10.06 C13.79 10.85 13.79 10.85 13.38 13 C13.25 13.66 13.13 14.32 13 15 C12.34 15.66 11.68 16.32 11 17 C10.01 17 9.02 17 8 17 C7.73 17.56 7.46 18.11 7.19 18.69 C3.89 25.11 3.89 25.11 2 27 C1.77 28.68 1.59 30.37 1.44 32.06 C1.35 32.98 1.27 33.9 1.18 34.85 C1.12 35.56 1.06 36.27 1 37 C0.67 37 0.34 37 0 37 C0 24.79 0 12.58 0 0 Z " fill="#4097E5" transform="translate(37,98)"/>
<path d="M0 0 C1.32 0.45 2.63 0.91 3.94 1.38 C4.67 1.63 5.4 1.89 6.15 2.15 C8 3 8 3 9 5 C7.35 5.66 5.7 6.32 4 7 C4 7.99 4 8.98 4 10 C2.43 11.65 2.43 11.65 0.31 13.38 C-0.42 14 -1.16 14.62 -1.92 15.26 C-2.61 15.83 -3.29 16.41 -4 17 C-8.47 21.02 -11.77 25.69 -15.23 30.57 C-17 33 -17 33 -19 35 C-19.99 35 -20.98 35 -22 35 C-22.08 33.4 -22.14 31.79 -22.19 30.19 C-22.22 29.29 -22.26 28.4 -22.29 27.48 C-21.94 24.5 -21.21 23.92 -19 22 C-18.38 20.84 -17.76 19.69 -17.12 18.5 C-15.3 15.14 -13.39 13.83 -10 12 C-9.67 11.01 -9.34 10.02 -9 9 C-6.25 5.95 -3.83 3.56 0 2 C0 1.34 0 0.68 0 0 Z " fill="#4B95E8" transform="translate(60,100)"/>
<path d="M0 0 C5.1 0.55 8.92 3.03 13.31 5.56 C14.75 6.39 16.19 7.22 17.68 8.07 C18.77 8.7 19.87 9.34 21 10 C19.68 15.27 17.28 16.63 13.12 20.06 C7.92 24.38 7.92 24.38 3 29 C0.65 19.43 0.38 9.82 0 0 Z " fill="#8082F7" transform="translate(99,27)"/>
<path d="M0 0 C2.97 2.55 4.42 5.45 6 9 C6 9.66 6 10.32 6 11 C5.34 11 4.68 11 4 11 C3.34 12.65 2.68 14.3 2 16 C1.34 16 0.68 16 0 16 C-0.08 16.58 -0.16 17.16 -0.25 17.75 C-1.21 20.64 -2.83 21.89 -5 24 C-6.01 25.66 -7.01 27.33 -8 29 C-8.56 29.54 -9.11 30.07 -9.69 30.62 C-11.35 32.04 -11.35 32.04 -11 35 C-15.62 33.68 -19.1 31.79 -23 29 C-21.04 27.51 -19.08 26.05 -17.04 24.68 C-12.59 21.6 -9.86 18.73 -7.23 14.02 C-5.91 11.86 -4.41 10.16 -2.69 8.31 C-0.57 5.95 -0.04 5.32 0.38 2.06 C0.25 1.38 0.13 0.7 0 0 Z " fill="#8892F8" transform="translate(90,124)"/>
<path d="M0 0 C0.33 0 0.66 0 1 0 C1.12 0.78 1.25 1.57 1.38 2.38 C1.79 5.14 1.79 5.14 4 7 C3.67 7.99 3.34 8.98 3 10 C3.99 11.49 3.99 11.49 5 13 C5.66 11.68 6.32 10.36 7 9 C7.29 10.24 7.58 11.47 7.88 12.75 C8.46 15.12 9.03 17.06 10.12 19.25 C11 21 11 21 11 25 C11.66 25 12.32 25 13 25 C13 24.34 13 23.68 13 23 C13.66 23 14.32 23 15 23 C15.33 24.65 15.66 26.3 16 28 C19.61 27.34 19.61 27.34 23 26 C23 24.35 23 22.7 23 21 C27.75 22.88 27.75 22.88 30 24 C27.58 25.46 25.17 26.92 22.75 28.38 C21.4 29.19 20.06 30 18.67 30.84 C11.61 35 11.61 35 8 35 C7.75 34.29 7.49 33.57 7.23 32.84 C4.93 26.41 4.93 26.41 2.25 20.12 C1.05 17.11 0.71 15.2 1 12 C-0.65 12 -2.3 12 -4 12 C-4.33 11.34 -4.66 10.68 -5 10 C-4 7.62 -4 7.62 -2.56 4.88 C-1.85 3.51 -1.85 3.51 -1.13 2.12 C-0.76 1.42 -0.38 0.72 0 0 Z " fill="#446DE5" transform="translate(109,126)"/>
<path d="M0 0 C5.75 1.75 5.75 1.75 8 4 C6.53 7.42 4.62 9.56 1.94 12.12 C-0.92 14.78 -0.92 14.78 -3 18 C-4.66 19.01 -6.33 20.01 -8 21 C-12.85 24.45 -17.47 28.15 -22 32 C-22.99 30.35 -23.98 28.7 -25 27 C-24.11 26.28 -23.23 25.56 -22.31 24.81 C-16.75 20.15 -12 14.82 -7.18 9.4 C-3.17 4.99 -3.17 4.99 -1 3 C-0.34 3 0.32 3 1 3 C0.67 2.01 0.34 1.02 0 0 Z " fill="#5E71EE" transform="translate(137,48)"/>
<path d="M0 0 C1.98 1.32 3.96 2.64 6 4 C5.6 4.46 5.2 4.92 4.79 5.39 C1.4 9.32 1.4 9.32 -1.75 13.44 C-2.16 13.95 -2.58 14.47 -3 15 C-3.66 15 -4.32 15 -5 15 C-5.36 15.84 -5.36 15.84 -5.73 16.7 C-7.27 19.48 -9.15 21.54 -11.31 23.88 C-13.92 26.7 -16.46 29.52 -18.81 32.56 C-21 35 -21 35 -22.94 36.12 C-26.29 35.92 -28.38 33.96 -31 32 C-30.01 32 -29.02 32 -28 32 C-25.99 31.37 -23.99 30.71 -22 30 C-22.33 29.01 -22.66 28.02 -23 27 C-22.07 26.24 -21.14 25.47 -20.19 24.69 C-18.44 23.24 -16.83 21.82 -15.25 20.19 C-14 19 -14 19 -12 19 C-11.71 18.42 -11.42 17.84 -11.12 17.25 C-10.08 15.17 -9.04 13.08 -8 11 C-7.34 11 -6.68 11 -6 11 C-5.73 10.44 -5.46 9.89 -5.19 9.31 C-3.9 6.8 -2.46 4.41 -1 2 C-0.67 1.34 -0.34 0.68 0 0 Z " fill="#5E94ED" transform="translate(71,105)"/>
<path d="M0 0 C1.98 0.66 3.96 1.32 6 2 C4.04 5.73 2.75 7.23 -1 9 C-2.71 10.62 -4.37 12.3 -6 14 C-8.02 16.03 -10.05 18.05 -12.08 20.07 C-13.65 21.64 -15.17 23.25 -16.69 24.88 C-19.09 27.08 -20.98 27.89 -24 29 C-25.77 30.52 -25.77 30.52 -27 32 C-27.99 31.01 -28.98 30.02 -30 29 C-29.13 28.46 -28.27 27.93 -27.38 27.38 C-23.38 24.7 -18.78 21.55 -17.33 16.81 C-17.22 16.21 -17.11 15.62 -17 15 C-16.01 15 -15.02 15 -14 15 C-13.75 14.41 -13.5 13.82 -13.24 13.22 C-11.84 10.71 -10.33 9.33 -8.12 7.5 C-5.29 5.1 -2.57 2.68 0 0 Z " fill="#4B68E8" transform="translate(153,57)"/>
<path d="M0 0 C1.32 1.32 2.64 2.64 4 4 C2.69 7.53 0.6 9.23 -2.3 11.53 C-4.85 13.74 -6.94 16.3 -9.12 18.88 C-11.73 21.83 -14.55 24.53 -17.4 27.24 C-19.23 29.01 -19.23 29.01 -20 32 C-21.65 31.67 -23.3 31.34 -25 31 C-23.83 27.66 -22.81 25.23 -20 23 C-19.34 23 -18.68 23 -18 23 C-17.75 22.28 -17.5 21.56 -17.25 20.81 C-15.85 17.67 -14.25 15.61 -12 13 C-11.46 12.37 -10.92 11.73 -10.36 11.08 C-7.04 7.24 -3.65 3.54 0 0 Z " fill="#7592F3" transform="translate(84,116)"/>
<path d="M0 0 C0.33 0 0.66 0 1 0 C1 7.59 1 15.18 1 23 C-5.27 23 -11.54 23 -18 23 C-18.33 22.34 -18.66 21.68 -19 21 C-17.02 21 -15.04 21 -13 21 C-12.9 20.42 -12.81 19.85 -12.71 19.25 C-11.85 16.52 -10.6 15.06 -8.69 12.94 C-8.09 12.27 -7.5 11.59 -6.89 10.9 C-5 9 -5 9 -2.82 7.45 C-0.66 6.04 -0.66 6.04 -0.25 2.81 C-0.17 1.88 -0.09 0.96 0 0 Z " fill="#2955DF" transform="translate(163,75)"/>
<path d="M0 0 C4.09 2.22 5.74 3.29 7.38 7.75 C7.58 8.82 7.79 9.89 8 11 C7.01 11 6.02 11 5 11 C4.73 10.2 4.46 9.39 4.19 8.56 C3.8 7.72 3.4 6.87 3 6 C2.01 5.67 1.02 5.34 0 5 C0.24 5.53 0.48 6.07 0.73 6.62 C3.31 12.35 5.69 18.15 8 24 C12.62 23.67 17.24 23.34 22 23 C22 22.34 22 21.68 22 21 C21.01 20.67 20.02 20.34 19 20 C18.67 18.02 18.34 16.04 18 14 C20 16 20 16 21 19 C21.66 19.33 22.32 19.66 23 20 C23 20.66 23 21.32 23 22 C24.98 21.34 26.96 20.68 29 20 C29 20.66 29 21.32 29 22 C18.58 26.71 10.3 27.48 -1 26 C-1.03 22.23 -1.05 18.46 -1.06 14.69 C-1.08 11.54 -1.08 11.54 -1.1 8.32 C-1 3 -1 3 0 0 Z " fill="#8D87FC" transform="translate(38,72)"/>
<path d="M0 0 C0.33 0 0.66 0 1 0 C1.41 13.88 1.41 13.88 -1 19 C-2.92 20.87 -4.93 22.55 -7.02 24.22 C-9.9 26.81 -11.31 29.55 -13 33 C-15.88 33.12 -15.88 33.12 -19 33 C-19.66 32.34 -20.32 31.68 -21 31 C-17.2 25.21 -13.73 20 -8 16 C-7.34 16 -6.68 16 -6 16 C-5.67 15.01 -5.34 14.02 -5 13 C-3.35 12.34 -1.7 11.68 0 11 C0 7.37 0 3.74 0 0 Z " fill="#355CE2" transform="translate(163,63)"/>
<path d="M0 0 C1.98 0.99 3.96 1.98 6 3 C4.62 4.5 4.62 4.5 3 6 C2.34 6 1.68 6 1 6 C1 6.99 1 7.98 1 9 C-0.57 10.65 -0.57 10.65 -2.69 12.38 C-3.42 13 -4.16 13.62 -4.92 14.26 C-5.61 14.83 -6.29 15.41 -7 16 C-11.47 20.02 -14.77 24.69 -18.23 29.57 C-20 32 -20 32 -22 34 C-22.99 34 -23.98 34 -25 34 C-24.62 31.22 -24.33 29.41 -22.56 27.19 C-21 26 -21 26 -19 26 C-18.81 25.3 -18.63 24.6 -18.44 23.88 C-17.02 21.04 -16.14 20.11 -13.75 18.19 C-7.64 13.23 -3.71 6.85 0 0 Z " fill="#5196E9" transform="translate(63,101)"/>
<path d="M0 0 C1.98 0.66 3.96 1.32 6 2 C3.81 6.52 0.69 9.13 -3.08 12.3 C-5.17 14.05 -5.17 14.05 -7.19 16.75 C-9.22 19.28 -11.08 20.62 -14 22 C-14.66 21.67 -15.32 21.34 -16 21 C-15.79 16.85 -15.22 15.24 -12.38 12.11 C-11.31 11.19 -10.23 10.26 -9.12 9.31 C-8.06 8.38 -6.99 7.45 -5.88 6.49 C-4.93 5.67 -3.98 4.85 -3 4 C-1.97 3.03 -0.95 2.05 0 1 C0 0.67 0 0.34 0 0 Z " fill="#787EF5" transform="translate(119,38)"/>
<path d="M0 0 C5.75 1.75 5.75 1.75 8 4 C5 6 5 6 1 6 C0.67 6.99 0.34 7.98 0 9 C-1.75 10.58 -1.75 10.58 -4 12.25 C-6.52 14.13 -9.01 16 -11.42 18.01 C-12.57 18.96 -12.57 18.96 -13.75 19.94 C-14.45 20.52 -15.14 21.11 -15.86 21.71 C-18.43 23.26 -20.06 23.25 -23 23 C-19.84 19.75 -16.71 16.63 -13 14 C-12.01 14 -11.02 14 -10 14 C-9.76 13.43 -9.51 12.85 -9.26 12.26 C-7.79 9.63 -6.06 7.94 -3.88 5.88 C-2.55 4.62 -1.24 3.34 0 2 C0 1.34 0 0.68 0 0 Z M-25 24 C-24.67 24.99 -24.34 25.98 -24 27 C-24.66 27.66 -25.32 28.32 -26 29 C-26.66 29 -27.32 29 -28 29 C-26.12 25.12 -26.12 25.12 -25 24 Z " fill="#586EEC" transform="translate(144,52)"/>
<path d="M0 0 C1.32 0.66 2.64 1.32 4 2 C2.76 5.73 1.27 6.6 -1.81 9 C-8.15 14.05 -14.1 19.45 -20 25 C-20.59 25.54 -21.18 26.08 -21.78 26.63 C-23.25 28.1 -23.25 28.1 -24 31 C-24.66 31 -25.32 31 -26 31 C-26.33 29.68 -26.66 28.36 -27 27 C-23.98 23.43 -23.98 23.43 -19.75 19.31 C-17.56 17.18 -17.56 17.18 -15.33 15.01 C-10.98 10.98 -6.56 7.19 -1.84 3.6 C-0.93 2.81 -0.93 2.81 0 2 C0 1.34 0 0.68 0 0 Z " fill="#4363E6" transform="translate(160,61)"/>
<path d="M0 0 C0.99 0 1.98 0 3 0 C4.12 4.75 4.12 4.75 3 7 C2.34 7 1.68 7 1 7 C0.92 7.58 0.85 8.16 0.77 8.75 C-0.26 11.76 -1.88 12.92 -4.31 14.94 C-7.61 17.75 -10.46 20.46 -13 24 C-13.99 23.67 -14.98 23.34 -16 23 C-14.69 20.07 -13.25 18.25 -11 16 C-10.5 15.18 -10.01 14.35 -9.5 13.5 C-8.15 11.26 -6.82 9.82 -5 8 C-4.67 7.01 -4.34 6.02 -4 5 C-3.02 3.98 -2.02 2.98 -1 2 C-0.67 1.34 -0.34 0.68 0 0 Z " fill="#9491FB" transform="translate(94,135)"/>
<path d="M0 0 C0 3 0 3 -1.61 4.83 C-2.67 5.81 -2.67 5.81 -3.75 6.81 C-7.05 9.99 -9.61 13.07 -12 17 C-14.06 20.25 -15.93 22.93 -18.69 25.62 C-20.91 27.91 -21.66 28.91 -22 32 C-24.48 31.01 -24.48 31.01 -27 30 C-22.36 21.68 -22.36 21.68 -20 19 C-19.34 19 -18.68 19 -18 19 C-18 18.34 -18 17.68 -18 17 C-15.62 14.38 -15.62 14.38 -13 12 C-12.34 12 -11.68 12 -11 12 C-10.67 11.01 -10.34 10.02 -10 9 C-9.34 9 -8.68 9 -8 9 C-7.73 8.42 -7.46 7.84 -7.19 7.25 C-5.23 3.54 -4.07 1.36 0 0 Z " fill="#6F93F1" transform="translate(82,116)"/>
<path d="M0 0 C2.97 0.5 2.97 0.5 6 1 C6.33 1.99 6.66 2.98 7 4 C7.66 3.34 8.32 2.68 9 2 C11.12 2.38 11.12 2.38 13 3 C12.3 3.68 11.6 4.36 10.88 5.06 C9.45 6.52 9.45 6.52 8 8 C6.97 8.98 5.94 9.96 4.88 10.97 C1.08 16.28 1.2 19.97 1.12 26.44 C1.09 28.42 1.05 30.39 1.01 32.43 C1 34.69 1 34.69 1 37 C0.67 37 0.34 37 0 37 C0 24.79 0 12.58 0 0 Z " fill="#3491E3" transform="translate(37,98)"/>
<path d="M0 0 C0 0.99 0 1.98 0 3 C-0.66 3 -1.32 3 -2 3 C-2 3.66 -2 4.32 -2 5 C-1.34 5 -0.68 5 0 5 C0.12 6.13 0.25 7.27 0.38 8.44 C0.58 9.61 0.79 10.79 1 12 C1.66 12.33 2.32 12.66 3 13 C2.67 14.98 2.34 16.96 2 19 C-2.87 17.61 -5.28 15.24 -8 11 C-8.25 7.38 -8.25 7.38 -7 4 C-4.75 2.18 -2.67 1.21 0 0 Z " fill="#6072EE" transform="translate(64,47)"/>
<path d="M0 0 C0.99 0 1.98 0 3 0 C3 0.66 3 1.32 3 2 C2.34 2 1.68 2 1 2 C0.34 3.65 -0.32 5.3 -1 7 C-1.66 7 -2.32 7 -3 7 C-3.08 7.58 -3.16 8.16 -3.25 8.75 C-4.21 11.64 -5.83 12.89 -8 15 C-9.01 16.66 -10.01 18.33 -11 20 C-11.56 20.54 -12.11 21.07 -12.69 21.62 C-14.35 23.04 -14.35 23.04 -14 26 C-16.47 25.01 -16.47 25.01 -19 24 C-17.76 19.44 -15.25 17.06 -11.94 13.9 C-8.14 10.18 -4.47 6.17 -1.48 1.76 C-0.99 1.18 -0.5 0.6 0 0 Z " fill="#8E90F9" transform="translate(93,133)"/>
<path d="M0 0 C-0.12 4.04 -1.56 5.77 -4.38 8.44 C-5.01 9.03 -5.65 9.63 -6.3 10.24 C-8.22 12.04 -8.22 12.04 -9.5 15.06 C-12.19 20.32 -17.27 23.6 -22 27 C-22.66 26.34 -23.32 25.68 -24 25 C-23.35 24.29 -22.7 23.57 -22.02 22.84 C-16.69 16.99 -11.39 11.14 -6.38 5.02 C-5.84 4.37 -5.3 3.73 -4.75 3.06 C-4.03 2.18 -4.03 2.18 -3.3 1.29 C-2 0 -2 0 0 0 Z " fill="#8291F6" transform="translate(91,126)"/>
<path d="M0 0 C3.96 1.98 7.92 3.96 12 6 C10.33 7.67 8.67 9.33 7 11 C5.67 12.39 5.67 12.39 4.31 13.81 C2 16 2 16 0 16 C0 10.72 0 5.44 0 0 Z " fill="#8D88FB" transform="translate(101,27)"/>
<path d="M0 0 C0.33 0 0.66 0 1 0 C1 2.64 1 5.28 1 8 C1.62 8.23 2.24 8.45 2.88 8.69 C5.63 10.39 5.89 12.03 7 15 C7.99 15.66 8.98 16.32 10 17 C8.71 17.84 7.42 18.67 6.12 19.5 C5.41 19.96 4.69 20.43 3.95 20.91 C2 22 2 22 0 22 C0 14.74 0 7.48 0 0 Z " fill="#2963DF" transform="translate(101,149)"/>
<path d="M0 0 C2 2 2 2 3 5 C3.66 5.33 4.32 5.66 5 6 C5 6.66 5 7.32 5 8 C6.98 7.34 8.96 6.68 11 6 C11 6.66 11 7.32 11 8 C0.88 12.51 -7.04 13.55 -18 12 C-18 9.03 -18 6.06 -18 3 C-16.02 3.99 -16.02 3.99 -14 5 C-14 5.99 -14 6.98 -14 8 C-13.01 8 -12.02 8 -11 8 C-10.67 8.66 -10.34 9.32 -10 10 C-5.38 9.67 -0.76 9.34 4 9 C4 8.34 4 7.68 4 7 C3.01 6.67 2.02 6.34 1 6 C0.67 4.02 0.34 2.04 0 0 Z " fill="#938CFC" transform="translate(56,86)"/>
<path d="M0 0 C0.6 0.33 1.2 0.66 1.81 1 C4.05 2.21 4.05 2.21 7 2 C8.17 5.98 9.26 9.92 10 14 C10.99 14.33 11.98 14.66 13 15 C11.25 16.12 11.25 16.12 9 17 C6.88 16.44 6.88 16.44 5 15 C4.3 13.35 3.63 11.68 3 10 C2.01 9.34 1.02 8.68 0 8 C-0.41 5.29 -0.13 2.76 0 0 Z " fill="#3267E1" transform="translate(102,149)"/>
<path d="M0 0 C2 3 2 3 3 5 C5.02 6.13 5.02 6.13 7 7 C6.67 7.66 6.34 8.32 6 9 C3 9 3 9 0.81 7 C0.21 6.34 -0.38 5.68 -1 5 C-0.83 5.52 -0.67 6.03 -0.5 6.56 C0.15 9.73 0.06 12.77 0 16 C-0.99 15.67 -1.98 15.34 -3 15 C-3 13.02 -3 11.04 -3 9 C-4.65 8.67 -6.3 8.34 -8 8 C-7.94 6.25 -7.94 6.25 -7 4 C-4.76 2.4 -2.46 1.25 0 0 Z " fill="#4967E7" transform="translate(74,41)"/>
<path d="M0 0 C0.99 0.33 1.98 0.66 3 1 C2.01 1.33 1.02 1.66 0 2 C0 1.34 0 0.68 0 0 Z M-2 2 C-1.34 2.33 -0.68 2.66 0 3 C-1.28 4.71 -2.62 6.37 -4 8 C-4.66 8 -5.32 8 -6 8 C-6.12 8.62 -6.25 9.24 -6.38 9.88 C-7 12 -7 12 -9 14 C-9.99 14 -10.98 14 -12 14 C-12.4 14.84 -12.4 14.84 -12.81 15.69 C-16.42 22.71 -16.42 22.71 -19 24 C-19.5 21.44 -19.5 21.44 -19 18 C-16.6 15.34 -13.8 13.22 -11 11 C-9.31 9.35 -7.64 7.69 -6 6 C-4 4 -4 4 -2 2 Z " fill="#4696E6" transform="translate(57,101)"/>
<path d="M0 0 C0 2.64 0 5.28 0 8 C-5.94 8.33 -11.88 8.66 -18 9 C-18 8.67 -18 8.34 -18 8 C-16.02 8 -14.04 8 -12 8 C-11.86 7.24 -11.71 6.47 -11.56 5.69 C-9.4 1.97 -6.99 1.64 -3 0.48 C-1 0 -1 0 0 0 Z " fill="#345EE1" transform="translate(163,89)"/>
<path d="M0 0 C1.32 0 2.64 0 4 0 C4 0.99 4 1.98 4 3 C4.93 3.22 4.93 3.22 5.88 3.44 C8 4 8 4 10 5 C10.59 7.65 10.74 10.29 11 13 C7.37 11.02 3.74 9.04 0 7 C0 4.69 0 2.38 0 0 Z " fill="#7A7FF6" transform="translate(38,64)"/>
<path d="M0 0 C0.33 2.31 0.66 4.62 1 7 C1.99 7 2.98 7 4 7 C4.33 8.32 4.66 9.64 5 11 C2.11 10.6 1.18 10.21 -0.75 7.94 C-1.16 7.3 -1.57 6.66 -2 6 C-2.66 6.66 -3.32 7.32 -4 8 C-4.33 7.01 -4.66 6.02 -5 5 C-5.66 5.66 -6.32 6.32 -7 7 C-7.66 7 -8.32 7 -9 7 C-9.33 7.99 -9.66 8.98 -10 10 C-11.32 9.67 -12.64 9.34 -14 9 C-10.44 5.12 -5.62 0 0 0 Z " fill="#7A81F4" transform="translate(135,103)"/>
<path d="M0 0 C0.99 0.33 1.98 0.66 3 1 C3 1.66 3 2.32 3 3 C4.32 3.33 5.64 3.66 7 4 C7.33 5.65 7.66 7.3 8 9 C5.39 9.93 4.36 10.15 1.75 9.06 C1.17 8.71 0.59 8.36 0 8 C0 7.01 0 6.02 0 5 C-1.65 4.67 -3.3 4.34 -5 4 C-2.69 1.94 -2.69 1.94 0 0 Z " fill="#737BF4" transform="translate(42,59)"/>
<path d="M0 0 C1.98 0.66 3.96 1.32 6 2 C4.73 5.82 2.78 6.98 -0.31 9.4 C-2.15 11.14 -2.96 12.71 -4 15 C-5.5 16.75 -5.5 16.75 -7 18 C-7.66 18 -8.32 18 -9 18 C-7.06 13.97 -4.77 10.21 -2.38 6.44 C-1.13 4.23 -0.46 2.47 0 0 Z " fill="#6B77F2" transform="translate(128,43)"/>
<path d="M0 0 C4.29 0.33 8.58 0.66 13 1 C13 6.28 13 11.56 13 17 C12.34 16.67 11.68 16.34 11 16 C10.43 13.2 10.11 10.4 9.76 7.57 C9.26 4.88 9.26 4.88 7.1 3.72 C6.41 3.48 5.71 3.25 5 3 C4.09 2.63 3.19 2.26 2.25 1.88 C1.51 1.59 0.76 1.3 0 1 C0 0.67 0 0.34 0 0 Z " fill="#968CFB" transform="translate(150,98)"/>
<path d="M0 0 C0 7.26 0 14.52 0 22 C-0.33 22 -0.66 22 -1 22 C-1.5 14.58 -1.5 14.58 -2 7 C-3.32 6.67 -4.64 6.34 -6 6 C-6.33 6.66 -6.66 7.32 -7 8 C-7.66 6.68 -8.32 5.36 -9 4 C-3.38 0 -3.38 0 0 0 Z " fill="#2655DE" transform="translate(100,28)"/>
<path d="M0 0 C0.66 0 1.32 0 2 0 C2 5.28 2 10.56 2 16 C3.11 15.01 4.23 14.02 5.38 13 C8.75 10 8.75 10 11 10 C11.33 9.01 11.66 8.02 12 7 C12.66 7.33 13.32 7.66 14 8 C12.69 11.92 10.84 12.82 7.5 15.19 C6.5 15.9 5.5 16.62 4.47 17.36 C2 19 2 19 1 19 C0.67 12.73 0.34 6.46 0 0 Z " fill="#757DF4" transform="translate(99,27)"/>
<path d="M0 0 C4.09 2.22 5.74 3.29 7.38 7.75 C7.58 8.82 7.79 9.89 8 11 C7.01 11 6.02 11 5 11 C4.73 10.2 4.46 9.39 4.19 8.56 C3.8 7.72 3.4 6.87 3 6 C2.01 5.67 1.02 5.34 0 5 C0 7.64 0 10.28 0 13 C-0.33 13 -0.66 13 -1 13 C-1.03 11.4 -1.05 9.79 -1.06 8.19 C-1.07 7.29 -1.09 6.4 -1.1 5.48 C-1 3 -1 3 0 0 Z " fill="#8281F9" transform="translate(38,72)"/>
<path d="M0 0 C0 0.99 0 1.98 0 3 C-0.66 3 -1.32 3 -2 3 C-2 3.66 -2 4.32 -2 5 C-1.34 5 -0.68 5 0 5 C0.33 7.31 0.66 9.62 1 12 C0.67 11.34 0.34 10.68 0 10 C-1.32 9.63 -2.66 9.29 -4 9 C-5 8 -5 8 -5.38 5.62 C-5.25 4.76 -5.13 3.89 -5 3 C-2.5 1.19 -2.5 1.19 0 0 Z " fill="#576DEC" transform="translate(64,47)"/>
<path d="M0 0 C0.33 0.66 0.66 1.32 1 2 C2.65 2.7 4.32 3.37 6 4 C7 5 7 5 7.06 8.56 C7.04 9.7 7.02 10.83 7 12 C6.01 11.67 5.02 11.34 4 11 C4 9.02 4 7.04 4 5 C2.35 4.67 0.7 4.34 -1 4 C-0.67 2.68 -0.34 1.36 0 0 Z " fill="#506AEA" transform="translate(67,45)"/>
<path d="M0 0 C1.88 0.12 1.88 0.12 4 1 C6.07 5.35 6.19 9.24 6 14 C5.67 14 5.34 14 5 14 C4.63 12.33 4.63 12.33 4.25 10.62 C3.39 6.95 3.39 6.95 0.88 5.56 C0.26 5.38 -0.36 5.19 -1 5 C-0.67 3.35 -0.34 1.7 0 0 Z " fill="#3969E3" transform="translate(102,144)"/>
<path d="M0 0 C1.65 0 3.3 0 5 0 C5.31 2.19 5.31 2.19 5 5 C2.5 7.81 2.5 7.81 0 10 C0 6.7 0 3.4 0 0 Z " fill="#3497E1" transform="translate(38,99)"/>
<path d="M0 0 C0.66 0.33 1.32 0.66 2 1 C0.02 3.97 -1.96 6.94 -4 10 C-4.33 8.68 -4.66 7.36 -5 6 C-5.66 6 -6.32 6 -7 6 C-7.5 3.53 -7.5 3.53 -8 1 C-6.02 1.99 -6.02 1.99 -4 3 C-4 3.66 -4 4.32 -4 5 C-3.34 5 -2.68 5 -2 5 C-1.34 3.35 -0.68 1.7 0 0 Z " fill="#586FEC" transform="translate(93,66)"/>
<path d="M0 0 C1.98 0.99 3.96 1.98 6 3 C5 6 5 6 2 8 C1.34 8.99 0.68 9.98 0 11 C0 7.37 0 3.74 0 0 Z " fill="#948CFD" transform="translate(101,27)"/>
<path d="M0 0 C0.33 0 0.66 0 1 0 C1 2.31 1 4.62 1 7 C-1.31 7 -3.62 7 -6 7 C-5.02 5.83 -4.04 4.66 -3.06 3.5 C-2.52 2.85 -1.97 2.2 -1.41 1.53 C-0.71 0.77 -0.71 0.77 0 0 Z " fill="#2856DE" transform="translate(162,90)"/>
<path d="M0 0 C0.99 0 1.98 0 3 0 C3.33 2.31 3.66 4.62 4 7 C4.99 7.33 5.98 7.66 7 8 C4 9 4 9 1.81 7.94 C0 6 0 6 -0.25 2.81 C-0.17 1.88 -0.08 0.96 0 0 Z " fill="#2C66DF" transform="translate(102,160)"/>
<path d="M0 0 C0 2.33 0 4.67 0 7 C-5.54 6.38 -5.54 6.38 -7.88 4.44 C-8.25 3.96 -8.62 3.49 -9 3 C-7.89 3.09 -7.89 3.09 -6.75 3.19 C-3.55 2.97 -2.36 2.1 0 0 Z " fill="#4166E4" transform="translate(144,90)"/>
<path d="M0 0 C1.32 0.33 2.64 0.66 4 1 C4.33 2.65 4.66 4.3 5 6 C6.98 5.34 8.96 4.68 11 4 C7.66 7.94 7.66 7.94 4.94 8.19 C1.82 6.28 1.21 3.33 0 0 Z " fill="#376AE2" transform="translate(109,156)"/>
<path d="M0 0 C0.33 0 0.66 0 1 0 C1.08 0.78 1.17 1.57 1.25 2.38 C1.73 5.15 1.73 5.15 4.06 6.31 C4.7 6.54 5.34 6.77 6 7 C6 8.65 6 10.3 6 12 C5.01 12.5 5.01 12.5 4 13 C4 11.35 4 9.7 4 8 C3.01 8 2.02 8 1 8 C-0.35 5.29 -0.07 2.99 0 0 Z " fill="#757CF4" transform="translate(68,78)"/>
<path d="M0 0 C1.66 0 3 1.34 3 3 C3 4.66 1.66 6 0 6 C-1.66 6 -3 4.66 -3 3 C-3 1.34 -1.66 0 0 0 Z " fill="#4263E6" transform="translate(78,39.99983443)"/>
<path d="M0 0 C0.33 0 0.66 0 1 0 C1.1 1.09 1.21 2.19 1.31 3.31 C1.97 6.86 2.2 7.93 5 10 C3.35 10.66 1.7 11.32 0 12 C0 8.04 0 4.08 0 0 Z " fill="#1E5EDC" transform="translate(101,159)"/>
<path d="M0 0 C0.33 0 0.66 0 1 0 C1.12 0.78 1.25 1.57 1.38 2.38 C1.79 5.14 1.79 5.14 4 7 C3.67 7.66 3.34 8.32 3 9 C2.34 9 1.68 9 1 9 C0.67 8.34 0.34 7.68 0 7 C-0.99 6.34 -1.98 5.68 -3 5 C-2.03 3.32 -1.03 1.65 0 0 Z " fill="#5072E9" transform="translate(109,126)"/>
<path d="M0 0 C0.33 1.32 0.66 2.64 1 4 C0.01 4 -0.98 4 -2 4 C-2.33 4.99 -2.66 5.98 -3 7 C-4.32 6.67 -5.64 6.34 -7 6 C-2.25 1.12 -2.25 1.12 0 0 Z " fill="#707DF1" transform="translate(128,106)"/>
<path d="M0 0 C4.75 1.88 4.75 1.88 7 3 C4.69 4.32 2.38 5.64 0 7 C0 4.69 0 2.38 0 0 Z " fill="#5072E9" transform="translate(132,147)"/>
<path d="M0 0 C0.33 0.99 0.66 1.98 1 3 C-1.64 4.98 -4.28 6.96 -7 9 C-5.79 4.14 -5.79 4.14 -3 2 C-2.01 2 -1.02 2 0 2 C0 1.34 0 0.68 0 0 Z " fill="#8886FA" transform="translate(109,34)"/>
<path d="M0 0 C1.66 0 3 1.34 3 2 C3 3.66 1.66 5 0 5 C-1.11 5 -2 4.11 -2 2 C-2 0.89 -1.11 0 0 0 Z " fill="#4970E7" transform="translate(106,131.99983443)"/>
<path d="M0 0 C0.66 0.33 1.32 0.66 2 1 C-1.5 5.88 -1.5 5.88 -6 7 C-4.02 4.69 -2.04 2.38 0 0 Z " fill="#687BEF" transform="translate(120,112)"/>
</svg>
