<svg width="32" height="32" viewBox="0 0 32 32" fill="none" xmlns="http://www.w3.org/2000/svg"><path d="M29.5715 15.9992C29.5715 8.2658 23.0792 2.02246 15.2601 2.44076C8.38082 2.80721 2.8145 8.37655 2.44825 15.2595C2.03362 23.0794 8.2737 29.5786 15.9995 29.5786H24.9174C27.4846 29.5786 29.5647 27.4974 29.5647 24.9288V16.4521C29.5681 16.3035 29.5715 16.1513 29.5715 15.9992ZM9.02004 23.5426C6.86054 21.6966 5.52684 18.7442 5.58903 15.7366C5.59248 15.5257 5.60284 15.3148 5.62357 15.1039V15.0901C5.938 11.4982 8.25644 8.14827 11.5043 6.5926C14.7557 5.03693 18.8155 5.33421 21.8077 7.34275C24.7965 9.35476 26.607 13.0054 26.3962 16.6042C26.3513 17.3924 26.2131 18.1737 26.0231 18.9377C25.9332 19.3007 25.8192 19.681 25.5013 19.9092C25.3251 20.0336 25.0936 20.082 24.8932 19.9956C24.5581 19.8504 24.5166 19.4597 24.4924 19.1244C24.3231 16.7079 23.6804 14.2189 22.0461 12.4316C20.8126 11.0799 19.0643 10.2226 17.2434 10.0532C15.4225 9.8838 13.5533 10.4057 12.0675 11.4705C10.8237 12.3624 9.84927 13.6381 9.37591 15.0901C8.90255 16.542 8.95093 18.1738 9.57286 19.5739C10.0289 20.6007 10.7856 21.4924 11.722 22.1078C13.3805 23.1968 15.6506 23.3523 17.3747 22.3671C19.0988 21.3818 20.1285 19.2454 19.6897 17.3095C19.2301 15.2802 17.1017 13.721 15.0355 14.1048C14.8386 14.1428 14.6313 14.0252 14.5794 13.8316C14.5069 13.5516 14.8178 13.4065 15.0735 13.3615C17.0775 13.002 19.2232 14.0183 20.322 15.733C21.4207 17.4477 21.476 19.7432 20.5777 21.572C19.6793 23.4008 17.8999 24.7352 15.9201 25.2192C13.2561 25.8691 10.8409 25.1017 9.01658 23.5426H9.02004Z" fill="url(#paint0_linear_2256_58349)"></path><defs><linearGradient id="paint0_linear_2256_58349" x1="3.03563" y1="3.41911" x2="33.5332" y2="32.9813" gradientUnits="userSpaceOnUse"><stop offset="0.11" stop-color="#FFD400"></stop><stop offset="0.22" stop-color="#FF891F"></stop><stop offset="0.42" stop-color="#E4659A"></stop><stop offset="0.56" stop-color="#DB2ED7"></stop><stop offset="0.75" stop-color="#7264F4"></stop></linearGradient></defs></svg>