<svg fill="none" viewBox="0 0 60 60" version="1.1" xmlns="http://www.w3.org/2000/svg" width="32" height="32">
<path d="M0 0 C6.36 4.64 11.24 9.71 13.11 17.54 C14.32 28.56 13.38 36.78 6.54 45.56 C1.37 51.28 -4.01 54.12 -11.67 54.96 C-22.46 55.34 -29.74 53.54 -37.76 46.29 C-44.56 38.75 -45.61 31.48 -45.33 21.43 C-44.42 13.45 -40.73 7.36 -34.8 2.02 C-24.98 -5.52 -10.71 -6.42 0 0 Z " fill="#0054E0" transform="translate(45.88671875,4.45703125)"/>
<path d="M0 0 C4.28 4.17 5.56 6.83 5.75 12.81 C5.61 17.12 5.43 20.06 2.38 23.31 C-1.88 26.41 -4.98 27.46 -10.19 28.12 C-14.11 28.76 -16.5 29.45 -19.31 32.31 C-22 36.04 -22.3 39.36 -22.04 43.87 C-21.44 47.4 -20.28 50.14 -18.62 53.31 C-23.14 51.47 -26.58 48.43 -28.75 44.04 C-30.54 38.46 -30.8 31.57 -28.8 26.02 C-27.75 24.19 -27.75 24.19 -25.62 21.31 C-23.32 17.86 -23.19 16.37 -23.62 12.31 C-27.48 9.75 -29.21 10.48 -33.62 11.31 C-25.56 0.72 -13.25 -6.17 0 0 Z " fill="#B0DBF1" transform="translate(38.625,2.6875)"/>
<path d="M0 0 C3.75 0.26 5.64 0.7 8.56 3.12 C14.1 9.66 17.46 14.42 17.34 23.23 C16.65 28.91 14.33 33.79 10.17 37.74 C5.44 41.05 1.69 41.84 -4 41 C-6.94 39.38 -6.94 39.38 -9 37 C-9.69 33.81 -9.69 33.81 -10 31 C-10.66 30.67 -11.32 30.34 -12 30 C-11.12 29.81 -10.24 29.61 -9.33 29.41 C-8.17 29.15 -7.01 28.89 -5.81 28.62 C-4.66 28.37 -3.52 28.11 -2.33 27.85 C1.98 26.79 1.98 26.79 6 25 C8.82 20.02 8.54 14.56 8 9 C6.29 4.67 4.03 3.18 0 1 C0 0.67 0 0.34 0 0 Z " fill="#2CB6FD" transform="translate(35,1)"/>
<path d="M0 0 C2.94 0.75 2.94 0.75 4.94 2.75 C5.44 5.81 5.45 7.88 3.85 10.59 C2.97 11.79 2.06 12.98 1.13 14.14 C-2.47 19.02 -1.45 26.01 -1.06 31.75 C0.55 36.51 3.12 39.49 6.94 42.75 C8.86 43.5 8.86 43.5 10.94 43.75 C12.94 44.41 14.94 45.07 16.94 45.75 C16.94 46.08 16.94 46.41 16.94 46.75 C8.96 46.55 3.76 44.41 -2.01 38.89 C-9.22 31.1 -10.62 24.07 -10.42 13.59 C-9.95 8.6 -8.92 5.84 -6.06 1.75 C-3.06 -0.25 -3.06 -0.25 0 0 Z " fill="#0859E0" transform="translate(11.0625,12.25)"/>
<path d="M0 0 C2 1.31 2 1.31 4 4 C4.71 8.83 4.6 13.34 2.94 17.94 C-0.27 21.35 -3.55 23.73 -8.23 24.25 C-10.16 24.25 -12.08 24.13 -14 24 C-13.07 20.83 -12.54 19.34 -9.69 17.56 C-8.8 17.19 -7.91 16.82 -7 16.44 C-3.34 14.95 -3.34 14.95 -0.7 12.18 C0.13 9.59 0.2 7.46 0.12 4.75 C0.1 3.41 0.1 3.41 0.07 2.05 C0.05 1.37 0.02 0.7 0 0 Z " fill="#E5EAEE" transform="translate(40,6)"/>
</svg>
