<svg fill="none" viewBox="0 0 600 712" version="1.1" xmlns="http://www.w3.org/2000/svg" width="32" height="32">
<path d="M0 0 C3.88 1.94 7.75 3.89 11.75 5.89 C15.79 7.9 19.83 9.91 24 11.98 C27.69 13.83 31.38 15.67 35.18 17.57 C39.51 19.67 43.84 21.76 48.18 23.82 C49.86 24.62 51.53 25.42 53.26 26.25 C56.88 27.96 60.51 29.65 64.14 31.34 C67.04 32.69 67.04 32.69 70 34.07 C71.71 34.87 73.43 35.66 75.2 36.48 C79.18 38.57 79.18 38.57 81.18 41.57 C81.56 44.51 81.56 44.51 81.18 47.57 C76.5 52.26 71.81 54.71 66 57.89 C39.61 72.49 13.87 88.24 -10.82 105.57 C-12.24 106.56 -13.66 107.55 -15.12 108.57 C-23.87 114.69 -32.42 120.99 -40.82 127.57 C-41.95 128.45 -43.07 129.32 -44.24 130.22 C-55.94 139.31 -67.14 148.92 -78.01 158.99 C-80.63 161.4 -83.28 163.77 -85.94 166.14 C-92.96 172.44 -99.68 179.04 -105.8 186.22 C-107.39 188.08 -109.01 189.91 -110.64 191.74 C-161.78 249.42 -188.18 326.72 -185.82 403.57 C-181.49 461.9 -156.67 514.36 -113.25 553.64 C-66.83 593.35 -9.79 607.49 50.18 605.57 C93.26 601.68 134.49 582.75 167.18 554.57 C167.97 553.89 168.76 553.21 169.58 552.51 C172.15 550.24 174.68 547.92 177.18 545.57 C178.13 544.69 179.08 543.81 180.06 542.9 C213.83 510.4 231.78 463.34 233.22 416.99 C232.95 375.99 221 338.85 200.32 303.71 C199.62 302.34 198.91 300.98 198.18 299.57 C198.51 298.58 198.84 297.59 199.18 296.57 C218.36 315.06 233.36 335.85 247.18 358.57 C239.55 333.63 226.09 310.4 209.18 290.57 C207.78 288.89 207.78 288.89 206.34 287.18 C197.35 276.54 188.15 267.17 177.18 258.57 C176.28 257.85 175.38 257.14 174.45 256.39 C130.15 222.01 74.84 209.75 19.53 215.82 C-26.29 222.28 -67.94 239.81 -101.82 271.57 C-103.33 272.99 -103.33 272.99 -104.88 274.44 C-118.08 287.18 -128.57 301.77 -137.82 317.57 C-138.49 318.73 -139.16 319.88 -139.86 321.07 C-145.35 330.91 -149.39 341.24 -153.42 351.75 C-154.61 354.14 -154.61 354.14 -155.82 356.57 C-157.47 356.9 -159.12 357.23 -160.82 357.57 C-162.77 354.84 -162.81 353.49 -162.49 350.08 C-150.05 290.96 -116.98 232.95 -67.82 196.57 C-66.5 195.58 -65.18 194.58 -63.82 193.55 C-7.58 151.77 61.23 138.13 130.18 145.57 C132.12 146.01 132.12 146.01 134.09 146.46 C140.39 147.74 143.19 147.19 148.77 143.75 C152.22 141.15 155.61 138.49 158.97 135.77 C193.9 107.67 237.16 89.04 279.18 74.57 C280.51 74.1 281.84 73.62 283.21 73.13 C289.93 70.84 297.14 68.84 304.18 70.57 C313.1 77.26 320.65 84.66 328.56 92.51 C332.87 96.76 332.87 96.76 337.27 101.1 C344.18 108.57 344.18 108.57 346.18 115.57 C345.62 118.32 345.62 118.32 344.18 120.57 C336.54 125.16 328.4 125.92 319.68 127.64 C281.04 135.58 242.79 145.75 206.74 162.03 C203.18 163.57 203.18 163.57 201.18 163.57 C201.18 164.23 201.18 164.89 201.18 165.57 C202.41 165.94 203.65 166.31 204.91 166.69 C219.79 172.01 234.47 180.16 247.18 189.57 C249.1 190.96 249.1 190.96 251.06 192.38 C258.32 197.7 265.25 203.19 271.81 209.36 C273.87 211.28 275.96 213.09 278.12 214.89 C295.43 230.09 315.5 253.2 322.18 275.57 C322.12 277.89 322.12 277.89 321.62 280.14 C321.48 280.88 321.33 281.62 321.18 282.39 C318.56 288.14 313.02 289.42 307.55 291.55 C304.56 292.61 301.57 293.67 298.5 294.76 C289.2 297.81 289.2 297.81 280.18 301.57 C280.73 302.53 281.27 303.49 281.84 304.48 C315.28 365.26 317.6 437.38 299.31 503.32 C288.13 540.82 271.28 575.4 246.18 605.57 C245.34 606.61 244.49 607.64 243.62 608.7 C232.36 622.16 220.14 634.89 206.18 645.57 C204.72 646.75 204.72 646.75 203.22 647.95 C155.17 685.97 92.89 707.25 31.75 707.82 C29.24 707.86 29.24 707.86 26.69 707.9 C22.27 707.58 19.86 706.96 16.18 704.57 C11.98 699.15 13.4 694.1 14.18 687.57 C15.16 682 16.18 676.44 17.25 670.89 C17.79 668.02 18.34 665.15 18.91 662.19 C19.54 658.91 19.54 658.91 20.18 655.57 C18.13 655.63 18.13 655.63 16.04 655.68 C-3.08 655.34 -22.34 651.34 -40.82 646.57 C-42.25 646.21 -43.69 645.84 -45.18 645.46 C-85.49 634.39 -124.71 612.32 -155.32 583.89 C-157.53 581.84 -159.78 579.85 -162.07 577.89 C-168.52 572.26 -174.32 566.13 -179.82 559.57 C-181.13 558.02 -181.13 558.02 -182.47 556.43 C-233.91 493.97 -251.85 411.07 -244.5 331.68 C-234.94 246.74 -196.51 167.64 -141.82 102.57 C-140.48 100.98 -140.48 100.98 -139.12 99.36 C-123.33 80.68 -106.37 62.52 -87.82 46.57 C-86.1 45.05 -86.1 45.05 -84.35 43.5 C-23.07 -10.4 -23.07 -10.4 0 0 Z M248.18 360.57 C249.18 362.57 249.18 362.57 249.18 362.57 Z " fill="#0291FF" transform="translate(245.81640625,4.42578125)"/>
<path d="M0 0 C3.88 1.94 7.75 3.89 11.75 5.89 C15.79 7.9 19.83 9.91 24 11.98 C27.69 13.83 31.38 15.67 35.18 17.57 C39.51 19.67 43.84 21.76 48.18 23.82 C49.86 24.62 51.53 25.42 53.26 26.25 C56.88 27.96 60.51 29.65 64.14 31.34 C67.04 32.69 67.04 32.69 70 34.07 C71.71 34.87 73.43 35.66 75.2 36.48 C79.18 38.57 79.18 38.57 81.18 41.57 C81.56 44.51 81.56 44.51 81.18 47.57 C76.5 52.26 71.81 54.71 66 57.89 C39.61 72.49 13.87 88.24 -10.82 105.57 C-12.24 106.56 -13.66 107.55 -15.12 108.57 C-23.87 114.69 -32.42 120.99 -40.82 127.57 C-41.95 128.45 -43.07 129.32 -44.24 130.22 C-55.94 139.31 -67.14 148.92 -78.01 158.99 C-80.63 161.4 -83.28 163.77 -85.94 166.14 C-92.96 172.44 -99.68 179.04 -105.8 186.22 C-107.39 188.08 -109.01 189.91 -110.64 191.74 C-161.78 249.42 -188.18 326.72 -185.82 403.57 C-181.49 461.9 -156.67 514.36 -113.25 553.64 C-73.11 587.98 -21.55 605.99 31 605.76 C34.34 605.76 37.69 605.75 41.14 605.74 C47.91 605.62 54.46 605.21 61.18 604.57 C62.17 604.9 63.16 605.23 64.18 605.57 C66.04 610.27 66.29 614.27 66.21 619.28 C66.11 627.84 68.49 634.34 71.91 642.22 C73.18 645.57 73.18 645.57 73.18 649.57 C74.12 649.29 75.07 649 76.04 648.7 C77.28 648.33 78.53 647.96 79.81 647.57 C81.04 647.2 82.27 646.83 83.54 646.45 C86.92 645.64 89.72 645.4 93.18 645.57 C93.35 646.26 93.52 646.95 93.7 647.66 C94.9 652.32 96.15 656.77 98.18 661.14 C103.16 671.86 106.56 684.74 106.18 696.57 C81.68 702.88 57.12 707.59 31.75 707.82 C29.24 707.86 29.24 707.86 26.69 707.9 C22.27 707.58 19.86 706.96 16.18 704.57 C11.98 699.15 13.4 694.1 14.18 687.57 C15.16 682 16.18 676.44 17.25 670.89 C17.79 668.02 18.34 665.15 18.91 662.19 C19.54 658.91 19.54 658.91 20.18 655.57 C18.13 655.63 18.13 655.63 16.04 655.68 C-3.08 655.34 -22.34 651.34 -40.82 646.57 C-42.25 646.21 -43.69 645.84 -45.18 645.46 C-85.49 634.39 -124.71 612.32 -155.32 583.89 C-157.53 581.84 -159.78 579.85 -162.07 577.89 C-168.52 572.26 -174.32 566.13 -179.82 559.57 C-181.13 558.02 -181.13 558.02 -182.47 556.43 C-233.91 493.97 -251.85 411.07 -244.5 331.68 C-234.94 246.74 -196.51 167.64 -141.82 102.57 C-140.48 100.98 -140.48 100.98 -139.12 99.36 C-123.33 80.68 -106.37 62.52 -87.82 46.57 C-86.1 45.05 -86.1 45.05 -84.35 43.5 C-23.07 -10.4 -23.07 -10.4 0 0 Z " fill="#0F64FF" transform="translate(245.81640625,4.42578125)"/>
<path d="M0 0 C8.92 6.69 16.46 14.08 24.38 21.94 C27.25 24.77 30.12 27.61 33.09 30.53 C40 38 40 38 42 45 C41.44 47.75 41.44 47.75 40 50 C32.36 54.58 24.22 55.34 15.5 57.06 C-23.14 65.01 -61.39 75.17 -97.44 91.45 C-101 93 -101 93 -103 93 C-103 93.66 -103 94.32 -103 95 C-101.76 95.37 -100.53 95.73 -99.25 96.11 C-93.15 98.3 -87.66 101.15 -81.94 104.19 C-79.88 105.27 -77.83 106.36 -75.71 107.48 C-74.16 108.31 -72.6 109.14 -71 110 C-71.33 110.99 -71.66 111.98 -72 113 C-73.67 113.67 -75.34 114.33 -77.02 114.97 C-80.11 116.58 -82.2 119.01 -84.52 121.57 C-86 123 -86 123 -88 123 C-88 123.66 -88 124.32 -88 125 C-89.68 126.51 -89.68 126.51 -91.88 128.12 C-92.59 128.66 -93.31 129.2 -94.05 129.76 C-96 131 -96 131 -98 131 C-98.14 131.9 -98.14 131.9 -98.29 132.82 C-99.16 135.48 -100.17 136.26 -102.38 137.94 C-105.39 140.38 -107.08 142.6 -109 146 C-109.73 146.71 -110.46 147.42 -111.21 148.16 C-114.52 151.53 -117.25 155.14 -120.06 158.94 C-121.6 160.99 -121.6 160.99 -123.16 163.09 C-124.89 165.47 -126.58 167.88 -128.2 170.33 C-130.18 173.27 -132.47 175.54 -135 178 C-135.33 178.66 -135.66 179.32 -136 180 C-140.23 178.51 -143.65 176.37 -147.38 173.88 C-195.25 142.95 -254.11 138.04 -308.99 149.59 C-345.72 158.21 -378.51 175.23 -406 201 C-407.01 201.94 -408.02 202.89 -409.06 203.86 C-422.26 216.61 -432.76 231.2 -442 247 C-442.67 248.15 -443.35 249.3 -444.04 250.49 C-449.54 260.34 -453.57 270.66 -457.61 281.18 C-458.4 282.77 -459.19 284.36 -460 286 C-461.65 286.33 -463.3 286.66 -465 287 C-466.96 284.26 -466.99 282.92 -466.67 279.51 C-454.24 220.38 -421.17 162.37 -372 126 C-370.68 125 -369.37 124 -368.01 122.97 C-311.76 81.2 -242.95 67.55 -174 75 C-172.71 75.29 -171.42 75.58 -170.09 75.88 C-163.8 77.16 -160.99 76.61 -155.41 73.18 C-151.97 70.58 -148.57 67.91 -145.21 65.2 C-110.28 37.09 -67.02 18.47 -25 4 C-23.67 3.52 -22.34 3.05 -20.97 2.55 C-14.26 0.27 -7.04 -1.74 0 0 Z " fill="#0489FF" transform="translate(550,75)"/>
<path d="M0 0 C3.88 1.94 7.75 3.89 11.75 5.89 C17.81 8.91 17.81 8.91 24 11.98 C27.69 13.83 31.38 15.67 35.18 17.57 C39.51 19.67 43.84 21.76 48.18 23.82 C49.86 24.62 51.53 25.42 53.26 26.25 C56.88 27.96 60.51 29.65 64.14 31.34 C67.04 32.69 67.04 32.69 70 34.07 C71.71 34.87 73.43 35.66 75.2 36.48 C79.18 38.57 79.18 38.57 81.18 41.57 C81.56 44.51 81.56 44.51 81.18 47.57 C76.5 52.26 71.81 54.71 66 57.89 C39.61 72.49 13.87 88.24 -10.82 105.57 C-12.24 106.56 -13.66 107.55 -15.12 108.57 C-23.87 114.69 -32.42 120.99 -40.82 127.57 C-41.95 128.45 -43.07 129.32 -44.24 130.22 C-51.63 135.96 -58.79 141.9 -65.86 148.04 C-72.33 153.57 -72.33 153.57 -74.75 153.57 C-79.79 151.13 -83.43 145.93 -86.82 141.57 C-86.82 140.91 -86.82 140.25 -86.82 139.57 C-87.62 139.24 -87.62 139.24 -88.45 138.91 C-91.64 137.11 -94.03 134.77 -96.69 132.26 C-100.64 128.56 -104.65 125.02 -108.82 121.57 C-111.13 119.32 -113.39 117.02 -115.62 114.69 C-119.52 110.7 -123.48 107.23 -127.98 103.95 C-130.61 101.98 -132.74 100.12 -134.82 97.57 C-134.47 94.26 -133.15 92.48 -130.94 90.07 C-130.3 89.37 -129.65 88.66 -128.99 87.93 C-127.92 86.77 -127.92 86.77 -126.82 85.57 C-126.09 84.75 -125.36 83.93 -124.61 83.09 C-113.09 70.25 -100.91 57.81 -87.82 46.57 C-86.67 45.56 -85.53 44.55 -84.35 43.5 C-23.07 -10.4 -23.07 -10.4 0 0 Z " fill="#125AFF" transform="translate(245.81640625,4.42578125)"/>
<path d="M0 0 C12.03 7.68 23.12 16.25 33.64 25.86 C35.68 27.71 37.76 29.48 39.88 31.25 C57.2 46.5 77.31 69.58 84 92 C83.93 94.32 83.93 94.32 83.44 96.56 C83.22 97.68 83.22 97.68 83 98.82 C80.38 104.56 74.84 105.84 69.36 107.98 C66.38 109.04 63.39 110.1 60.31 111.19 C51.02 114.23 51.02 114.23 42 118 C42.55 118.96 43.09 119.92 43.65 120.91 C55.12 141.74 64.63 165.32 68 189 C65 192 65 192 60.99 192.29 C59.45 192.26 57.9 192.22 56.31 192.19 C54.76 192.16 53.21 192.13 51.61 192.11 C50.42 192.07 49.23 192.04 48 192 C48 192.66 48 193.32 48 194 C41.27 195.13 34.84 196.13 28 196 C25.11 196.29 22.23 196.62 19.36 196.98 C18.58 196.98 17.8 196.99 17 197 C14.46 194.46 14.28 192.6 13.5 189.12 C12.67 185.43 11.72 182.36 10 179 C9.6 177.47 9.22 175.92 8.88 174.38 C2.4 149.96 -12.75 126.06 -29 107 C-30.41 105.32 -30.41 105.32 -31.84 103.61 C-43.38 89.94 -55.85 78.87 -70 68 C-69.42 64.1 -67.53 61.95 -65 59 C-59.18 51.87 -53.74 44.54 -48.42 37.03 C-46 34 -46 34 -43 33 C-42.77 32.3 -42.55 31.6 -42.31 30.88 C-40.58 27.08 -38 25.22 -34.78 22.65 C-32.74 21.02 -32.74 21.02 -32 18 C-28.82 15.66 -25.59 13.66 -22 12 C-22 11.34 -22 10.68 -22 10 C-20.39 8.38 -20.39 8.38 -18.25 6.56 C-17.55 5.97 -16.86 5.37 -16.14 4.75 C-6.5 -3.14 -6.5 -3.14 0 0 Z " fill="#115CFF" transform="translate(484,188)"/>
<path d="M0 0 C4.26 3.07 8.29 6.26 12.18 9.8 C50.39 43.14 102.39 59.16 152.38 59.12 C155.79 59.13 159.2 59.13 162.71 59.13 C169.58 59.03 176.18 58.66 183 58 C183.99 58.33 184.98 58.66 186 59 C187.86 63.7 188.1 67.7 188.03 72.7 C187.93 81.27 190.31 87.76 193.72 95.64 C195 99 195 99 195 103 C195.94 102.71 196.88 102.42 197.85 102.12 C199.1 101.75 200.34 101.38 201.62 101 C202.85 100.63 204.08 100.26 205.35 99.88 C208.74 99.06 211.54 98.83 215 99 C215.17 99.69 215.34 100.38 215.52 101.09 C216.72 105.75 217.97 110.2 220 114.56 C224.98 125.29 228.38 138.17 228 150 C203.49 156.3 178.94 161.01 153.56 161.25 C151.06 161.29 151.06 161.29 148.5 161.33 C144.08 161.01 141.68 160.39 138 158 C133.8 152.58 135.22 147.52 136 141 C136.97 135.43 138 129.87 139.06 124.31 C139.88 120.01 139.88 120.01 140.72 115.61 C141.14 113.43 141.57 111.25 142 109 C139.95 109.05 139.95 109.05 137.86 109.11 C118.74 108.76 99.47 104.77 81 100 C78.84 99.45 78.84 99.45 76.64 98.89 C36.13 87.77 -3.18 65.51 -34 37 C-32.59 29.49 -25.62 24.62 -20 20 C-18.56 18.8 -17.12 17.59 -15.69 16.38 C-15.03 15.83 -14.38 15.28 -13.7 14.71 C-11.92 13.1 -11.92 13.1 -11.02 11.02 C-9.75 8.5 -8.16 7.18 -6 5.38 C-3.92 3.63 -1.92 1.92 0 0 Z " fill="#1259FF" transform="translate(124,551)"/>
<path d="M0 0 C8.86 0.83 17.65 2.04 26.46 3.28 C30.23 3.77 34.01 4.17 37.8 4.5 C41.84 4.89 45.37 5.42 49.25 6.5 C53.51 7.64 57.62 8.5 62 9 C63.17 14.83 62.32 18.6 61.19 24.44 C50.65 82.83 59.55 142.86 92.54 192.85 C100.22 203.77 108.62 213.8 117.91 223.37 C120 226 120 226 120 230 C117.75 232 117.75 232 115 234 C112.78 236.02 111.18 237.67 109.75 240.31 C107.59 243.63 104.95 245.81 101.93 248.35 C99.86 250.06 99.86 250.06 97.62 252.44 C96 254 96 254 94 254 C93.77 254.54 93.55 255.07 93.31 255.62 C91.57 258.79 89.36 261.27 87 264 C77.58 258.08 70.07 249.52 63 241 C62.13 239.97 61.26 238.94 60.36 237.88 C8.4 174.84 -8.64 92.03 -1.54 12.06 C-1.11 8.02 -0.62 4.02 0 0 Z " fill="#0197FF" transform="translate(3,323)"/>
<path d="M0 0 C0.65 2.41 1.06 4.62 1.31 7.12 C1.54 8.07 1.77 9.02 2 10 C3.97 11.15 3.97 11.15 6 12 C6.35 13.33 6.69 14.66 7 16 C9.42 19.03 9.42 19.03 12.91 20.33 C15.89 21.29 16.79 23.04 18.56 25.56 C20.23 28.03 20.23 28.03 22 30 C27.54 30 30.57 26.55 34.31 22.81 C35.55 21.55 36.78 20.28 38 19 C42.94 20.41 44.81 23.11 48 27 C50.26 28.76 52.58 30.44 54.94 32.06 C59.48 35.19 63.8 38.41 68 42 C68.64 42.54 69.28 43.07 69.94 43.62 C73.46 46.61 76.79 49.69 80 53 C70.4 64.43 59.82 74.88 48 84 C47.02 84.79 46.04 85.57 45.03 86.38 C21.01 105.38 -20.18 134 -52 134 C-52.18 132.9 -52.36 131.8 -52.55 130.67 C-55.2 114.84 -55.2 114.84 -61 100 C-65 89.29 -65 89.29 -65 84 C-66.28 84.29 -67.55 84.58 -68.87 84.88 C-71.35 85.43 -71.35 85.43 -73.88 86 C-75.52 86.37 -77.17 86.74 -78.87 87.12 C-83 88 -83 88 -85 88 C-85.42 86.8 -85.84 85.59 -86.28 84.35 C-86.83 82.79 -87.37 81.23 -87.94 79.62 C-88.48 78.07 -89.03 76.52 -89.59 74.91 C-90.82 71.27 -90.82 71.27 -92 69 C-92.21 67.23 -92.37 65.46 -92.5 63.69 C-92.62 62.09 -92.62 62.09 -92.75 60.46 C-92.83 59.32 -92.91 58.18 -93 57 C-93.19 54.58 -93.37 52.17 -93.56 49.75 C-93.71 47.83 -93.85 45.92 -94 44 C-94.99 43.67 -95.98 43.34 -97 43 C-95.61 42.73 -94.21 42.46 -92.78 42.19 C-61.72 35.87 -23.19 23.19 0 0 Z " fill="#0587FF" transform="translate(404,566)"/>
<path d="M0 0 C35.74 29.65 55.62 68.25 60.52 113.83 C62.2 135.39 60.27 158.27 54 179 C53.63 180.62 53.27 182.25 52.94 183.88 C51.34 191.22 49.06 198.14 46 205 C45.41 206.52 44.83 208.04 44.25 209.56 C42.06 215.08 39.39 220.33 36.68 225.61 C35.55 227.89 34.49 230.21 33.5 232.57 C22.7 257.34 3.08 278.39 -16 297 C-20.29 293.55 -23.19 290.65 -26 286 C-27.32 286.33 -28.64 286.66 -30 287 C-30.68 285.82 -30.68 285.82 -31.38 284.62 C-32.88 281.96 -32.88 281.96 -35 280 C-39.13 275.75 -40 272.8 -40 267 C-37.54 263.37 -34.72 260.83 -31.25 258.19 C6.59 227.67 27.79 183.6 34 136 C38.68 89.82 25 46.75 2.2 7.13 C0 3 0 3 0 0 Z " fill="#009CFF" transform="translate(444,301)"/>
<path d="M0 0 C0.33 1.32 0.66 2.64 1 4 C3.49 5.3 3.49 5.3 6 6 C5.67 6.99 5.34 7.98 5 9 C5.24 11.12 5.24 11.12 6 13 C6.99 13.5 6.99 13.5 8 14 C7.67 14.99 7.34 15.98 7 17 C7.89 19.61 7.89 19.61 9 22 C9 22.33 9 22.66 9 23 C9.51 30.94 11.36 37.92 15 45 C17.13 49.6 17.13 49.6 16 53 C16.99 53.99 17.98 54.98 19 56 C16.93 56.42 14.87 56.85 12.74 57.29 C-30.52 66.41 -68.82 81.92 -101 113 C-102.46 114.37 -102.46 114.37 -103.95 115.76 C-116.84 128.13 -127 142.62 -136 158 C-136.67 159.15 -137.35 160.3 -138.04 161.49 C-143.54 171.34 -147.57 181.66 -151.61 192.18 C-152.4 193.77 -153.19 195.36 -154 197 C-155.65 197.33 -157.3 197.66 -159 198 C-160.96 195.26 -160.99 193.92 -160.67 190.51 C-148.24 131.38 -115.17 73.37 -66 37 C-64.68 36 -63.37 35 -62.01 33.97 C-43.03 19.88 -22.29 8.02 0 0 Z " fill="#0683FF" transform="translate(244,164)"/>
<path d="M0 0 C7.89 0.75 13.83 4.45 20.42 8.5 C24.14 10.66 28.02 12.37 32 14 C32 14.66 32 15.32 32 16 C32.59 16.14 33.18 16.29 33.79 16.43 C41.34 18.36 47.23 21.85 53.75 26.06 C57.07 28.04 60.42 29.55 64 31 C63.29 32.29 63.29 32.29 62.57 33.61 C47.48 61.47 35.28 91.01 28.61 122.09 C28.41 122.72 28.21 123.35 28 124 C23.06 126.47 15.53 123.22 10.44 122 C3.8 120.5 -2.49 119.61 -9.27 119.27 C-28.23 117.88 -28.23 117.88 -36 114 C-19.91 19.91 -19.91 19.91 0 0 Z " fill="#0B73FF" transform="translate(39,208)"/>
<path d="M0 0 C-1.32 0.33 -2.64 0.66 -4 1 C-4.01 1.59 -4.03 2.19 -4.04 2.8 C-4.39 8.9 -5.85 13.41 -8.54 18.87 C-10.87 23.86 -12.68 29.03 -14.57 34.2 C-15.54 36.77 -16.57 39.3 -17.68 41.81 C-18.97 44.94 -19.09 46.7 -19 50 C-19.66 50.99 -20.32 51.98 -21 53 C-20.34 53.33 -19.68 53.66 -19 54 C-19.5 54.39 -19.99 54.78 -20.5 55.19 C-22.26 56.91 -22.26 56.91 -21.94 59.38 C-22.02 62.99 -23.73 64.26 -26 67 C-26.33 68.07 -26.66 69.14 -27 70.25 C-27.33 71.16 -27.66 72.06 -28 73 C-33.55 74.39 -37.88 73.14 -43.5 72.12 C-65.07 68.25 -86.78 68.07 -108.59 70.07 C-112.24 69.99 -113.46 69.54 -116 67 C-115.69 66.13 -115.69 66.13 -115.38 65.25 C-114.9 62.39 -115.67 61.54 -117 59 C-119.41 53.03 -121.38 47.13 -122.51 40.78 C-122.91 38.76 -122.91 38.76 -125 37 C-124.62 35 -124.62 35 -124 33 C-124 32.34 -124 31.68 -124 31 C-124.66 30.67 -125.32 30.34 -126 30 C-125.67 29.01 -125.34 28.02 -125 27 C-125.65 25.33 -126.32 23.66 -127 22 C-126.67 21.34 -126.34 20.68 -126 20 C-126.64 19.88 -127.28 19.75 -127.94 19.62 C-128.96 19.32 -128.96 19.32 -130 19 C-130.33 18.34 -130.66 17.68 -131 17 C-130.67 16.01 -130.34 15.02 -130 14 C-90.18 -3.49 -42.54 -4.52 0 0 Z " fill="#0099FF" transform="translate(375,150)"/>
<path d="M0 0 C12.02 7.67 23.1 16.23 33.61 25.83 C35.83 27.85 38.09 29.8 40.38 31.75 C43.28 34.27 45.73 36.88 48 40 C46.73 41.15 45.46 42.3 44.19 43.44 C43.48 44.08 42.77 44.71 42.04 45.37 C40 47 40 47 37 48 C36.3 49.65 35.64 51.32 35 53 C33.74 54.93 32.43 56.83 31.06 58.69 C30.37 59.64 29.68 60.59 28.97 61.57 C27 64 27 64 24 66 C22.74 67.98 22.74 67.98 21.62 70.25 C19.45 74.32 17.18 77.65 14 81 C13.34 81 12.68 81 12 81 C12 81.66 12 82.32 12 83 C11.34 83 10.68 83 10 83 C9.63 83.87 9.63 83.87 9.25 84.75 C7.82 87.33 6.22 89.06 4 91 C3.34 91 2.68 91 2 91 C1.73 91.64 1.46 92.28 1.19 92.94 C0 95 0 95 -3 96 C-3.7 97.31 -4.36 98.65 -5 100 C-6.11 101.32 -7.26 102.61 -8.44 103.88 C-11.31 107.07 -13.11 110.13 -15 114 C-17 115.94 -17 115.94 -19 117 C-22.43 115.86 -22.88 115.15 -24.94 112.31 C-38.03 94.96 -52.85 81.17 -70 68 C-69.42 64.1 -67.53 61.95 -65 59 C-59.18 51.87 -53.74 44.54 -48.42 37.03 C-46 34 -46 34 -43 33 C-42.77 32.3 -42.55 31.6 -42.31 30.88 C-40.58 27.08 -38 25.22 -34.78 22.65 C-32.74 21.02 -32.74 21.02 -32 18 C-28.82 15.66 -25.59 13.66 -22 12 C-22 11.34 -22 10.68 -22 10 C-20.39 8.38 -20.39 8.38 -18.25 6.56 C-17.55 5.97 -16.86 5.37 -16.14 4.75 C-6.5 -3.14 -6.5 -3.14 0 0 Z " fill="#0978FF" transform="translate(484,188)"/>
<path d="M0 0 C7.26 3.27 14.44 6.74 21.56 10.31 C27.63 13.33 27.63 13.33 33.82 16.41 C37.51 18.25 41.2 20.1 45 22 C49.33 24.1 53.66 26.19 58 28.25 C59.67 29.05 61.35 29.85 63.07 30.67 C66.7 32.38 70.32 34.08 73.96 35.77 C75.89 36.67 77.82 37.57 79.81 38.5 C81.53 39.29 83.25 40.09 85.02 40.91 C89 43 89 43 91 46 C91.38 48.94 91.38 48.94 91 52 C86.32 56.68 81.63 59.14 75.81 62.31 C56.58 72.95 37.86 84.31 19.42 96.27 C15 99 15 99 10 101 C6.29 97.29 4.9 91.83 3 87 C2.34 87 1.68 87 1 87 C-0.3 85.09 -1.52 83.12 -2.69 81.12 C-6.24 75.22 -10 69.6 -14 64 C-15.98 61.19 -17.96 58.38 -19.94 55.56 C-21.96 52.71 -23.98 49.85 -26 47 C-26.78 45.89 -27.57 44.78 -28.38 43.64 C-31.04 39.91 -33.53 36.45 -36.81 33.25 C-39.61 30.37 -40.6 27.75 -42 24 C-37.31 18.14 -32.39 15 -26.12 10.88 C-22.94 8.77 -22.94 8.77 -19.7 6.62 C-12.23 1.88 -9.01 0 0 0 Z " fill="#1450FF" transform="translate(236,0)"/>
<path d="M0 0 C8.86 0.83 17.65 2.04 26.46 3.28 C30.23 3.77 34.01 4.17 37.8 4.5 C41.84 4.89 45.37 5.42 49.25 6.5 C53.51 7.64 57.62 8.5 62 9 C63.17 14.83 62.32 18.6 61.19 24.44 C57.26 46.21 56.55 67.9 56 90 C54.35 90 52.7 90 51 90 C49.94 90.31 48.87 90.62 47.77 90.94 C43.38 92.18 39.17 92.59 34.62 93 C29.77 93.44 25.18 93.96 20.43 95.05 C15.95 96.01 12.01 96.2 7.44 96.12 C6.03 96.11 4.63 96.09 3.18 96.07 C2.13 96.05 1.08 96.02 0 96 C-4.05 64.22 -4.9 31.75 0 0 Z " fill="#0683FF" transform="translate(3,323)"/>
<path d="M0 0 C13.12 26.25 8.64 75.5 0 103 C-1.21 102.61 -2.42 102.23 -3.66 101.83 C-21.79 95.44 -21.79 95.44 -40.62 92.27 C-43.82 91.91 -46.91 90.88 -50 90 C-49.78 87.6 -49.57 85.2 -49.34 82.73 C-49.07 79.58 -48.79 76.43 -48.5 73.19 C-48.22 70.07 -47.94 66.95 -47.66 63.73 C-46.8 52.3 -47.1 41.82 -48.44 30.44 C-49.35 22.63 -50.24 14.82 -51 7 C-49.95 7.02 -48.9 7.04 -47.81 7.06 C-44.21 7.12 -44.21 7.12 -41.56 6.5 C-38.8 5.96 -36.21 5.99 -33.4 6.03 C-28.59 5.97 -23.79 5.45 -19 5 C-19 4.34 -19 3.68 -19 3 C-17.19 2.93 -17.19 2.93 -15.35 2.85 C-13.79 2.78 -12.23 2.7 -10.62 2.62 C-9.07 2.56 -7.52 2.49 -5.91 2.41 C-2 2.41 -2 2.41 0 0 Z " fill="#0D6BFF" transform="translate(551,377)"/>
<path d="M0 0 C0.17 0.69 0.34 1.38 0.52 2.09 C1.72 6.75 2.97 11.2 5 15.56 C9.98 26.29 13.38 39.17 13 51 C-11.51 57.3 -36.06 62.01 -61.44 62.25 C-63.11 62.28 -64.78 62.3 -66.5 62.33 C-70.92 62.01 -73.32 61.39 -77 59 C-81.2 53.59 -79.76 48.51 -79 42 C-78.23 37.18 -77.42 32.37 -76.56 27.56 C-76.13 25.11 -75.7 22.66 -75.25 20.13 C-74 14 -74 14 -72 10 C-67.02 9.29 -62.01 8.81 -57 8.44 C-40.68 7.09 -25.23 5.1 -9.45 0.77 C-6.17 0.04 -3.35 -0.15 0 0 Z " fill="#1D31FF" transform="translate(339,650)"/>
<path d="M0 0 C2.5 1.38 2.5 1.38 5 3 C5 3.66 5 4.32 5 5 C5.73 5.1 6.46 5.19 7.22 5.29 C10.38 6.1 12 7.25 14.5 9.31 C15.67 10.26 15.67 10.26 16.86 11.22 C17.57 11.81 18.27 12.4 19 13 C21.38 14.95 23.61 16.77 26.27 18.33 C30.42 20.87 34.2 23.89 38.06 26.84 C40.64 28.74 43.24 30.39 46 32 C47.48 32.99 47.48 32.99 49 34 C49 34.66 49 35.32 49 36 C49.56 36.27 50.12 36.53 50.7 36.8 C53.18 38.09 55.44 39.56 57.75 41.12 C58.55 41.66 59.35 42.2 60.17 42.76 C60.78 43.17 61.38 43.58 62 44 C60.64 47.96 58.87 50.6 56.12 53.75 C48.39 62.97 41.63 72.97 35 83 C29.61 81.5 25.35 79.74 20.69 76.62 C15.09 72.89 9.27 70.38 3 68 C3 67.34 3 66.68 3 66 C1.78 65.67 0.57 65.34 -0.69 65 C-6.2 63.2 -10.71 60.16 -15.5 56.94 C-19.84 54.54 -24.23 53.3 -29 52 C-20.79 33.85 -11.48 16.31 0 0 Z " fill="#0D6BFF" transform="translate(68,156)"/>
<path d="M0 0 C3.77 1.26 3.96 2.24 5.75 5.69 C6.27 6.68 6.78 7.66 7.32 8.68 C8.15 10.33 8.15 10.33 9 12 C9.61 13.19 10.21 14.37 10.84 15.6 C13.19 20.24 15.51 24.85 17.55 29.63 C18.75 32.42 20.02 35.04 21.5 37.69 C21.9 38.41 22.3 39.14 22.72 39.89 C23.98 42.06 23.98 42.06 25.66 44.14 C27 46 27 46 27 48 C-23.81 77 -23.81 77 -43 77 C-43.18 75.9 -43.36 74.8 -43.55 73.67 C-46.2 57.84 -46.2 57.84 -52 43 C-56 32.29 -56 32.29 -56 27 C-56.66 26.67 -57.32 26.34 -58 26 C-56.93 25.67 -55.87 25.34 -54.77 25 C-36.61 19.21 -18.27 11.72 -2.28 1.21 C-1.53 0.81 -0.77 0.41 0 0 Z " fill="#0D6BFF" transform="translate(395,623)"/>
<path d="M0 0 C0.99 0.5 0.99 0.5 2 1 C1.05 1.8 0.1 2.59 -0.88 3.41 C-2.09 4.47 -3.31 5.53 -4.56 6.62 C-5.78 7.67 -7 8.71 -8.25 9.79 C-11.39 12.73 -11.39 12.73 -10.9 16.4 C-10.46 17.69 -10.46 17.69 -10 19 C-8.51 19.5 -8.51 19.5 -7 20 C-7 20.99 -7 21.98 -7 23 C-6.34 23.33 -5.68 23.66 -5 24 C-1.89 27.54 0.49 31.36 2.85 35.43 C3.23 35.95 3.61 36.46 4 37 C4.66 37 5.32 37 6 37 C6.12 37.78 6.25 38.57 6.38 39.38 C6.79 42.14 6.79 42.14 9 44 C7.96 44.58 6.92 45.17 5.84 45.77 C-9.54 54.57 -23.25 64.69 -36 77 C-37.46 78.37 -37.46 78.37 -38.95 79.76 C-51.84 92.13 -62 106.62 -71 122 C-71.67 123.15 -72.35 124.3 -73.04 125.49 C-78.54 135.34 -82.57 145.66 -86.61 156.18 C-87.4 157.77 -88.19 159.36 -89 161 C-90.65 161.33 -92.3 161.66 -94 162 C-95.96 159.26 -95.99 157.92 -95.67 154.51 C-83.12 94.84 -50.01 38.1 -1 1 C-0.67 0.67 -0.34 0.34 0 0 Z " fill="#0E66FF" transform="translate(179,200)"/>
<path d="M0 0 C4.1 1.38 6.67 3.24 9.81 6.19 C12.95 9.1 16.11 11.97 19.38 14.75 C22.28 17.27 24.73 19.88 27 23 C25.73 24.15 24.46 25.3 23.19 26.44 C22.48 27.08 21.77 27.71 21.04 28.37 C19 30 19 30 16 31 C15.3 32.65 14.64 34.32 14 36 C12.74 37.93 11.43 39.83 10.06 41.69 C9.37 42.64 8.68 43.59 7.97 44.57 C6 47 6 47 3 49 C1.74 50.98 1.74 50.98 0.62 53.25 C-1.55 57.32 -3.82 60.65 -7 64 C-7.66 64 -8.32 64 -9 64 C-9 64.66 -9 65.32 -9 66 C-9.66 66 -10.32 66 -11 66 C-11.25 66.58 -11.5 67.15 -11.75 67.75 C-13.18 70.33 -14.78 72.06 -17 74 C-17.66 74 -18.32 74 -19 74 C-19.27 74.64 -19.54 75.28 -19.81 75.94 C-21 78 -21 78 -24 79 C-24.7 80.31 -25.36 81.65 -26 83 C-27.11 84.32 -28.26 85.61 -29.44 86.88 C-32.31 90.07 -34.11 93.13 -36 97 C-38 98.94 -38 98.94 -40 100 C-43.43 98.86 -43.88 98.15 -45.94 95.31 C-50.12 89.74 -54.67 84.5 -59.23 79.23 C-61.55 76.53 -63.8 73.8 -66 71 C-64.38 69.29 -62.71 67.63 -61 66 C-60.34 66 -59.68 66 -59 66 C-59 65.34 -59 64.68 -59 64 C-58.38 63.92 -57.76 63.83 -57.12 63.75 C-54.85 63.22 -54.85 63.22 -54.04 61.17 C-53.69 60.45 -53.35 59.74 -53 59 C-50.3 55.27 -47.4 52.12 -43.56 49.56 C-40.1 47.23 -37.62 44.49 -34.95 41.3 C-32.71 38.66 -30.36 36.15 -28 33.62 C-24 29.27 -20.59 24.76 -17.38 19.8 C-16.92 19.21 -16.47 18.61 -16 18 C-15.34 18 -14.68 18 -14 18 C-13.73 17.44 -13.46 16.89 -13.19 16.31 C-11.89 13.79 -10.58 11.36 -9 9 C-8.34 9 -7.68 9 -7 9 C-6.96 8.44 -6.92 7.89 -6.88 7.31 C-5.53 3.76 -2.99 2.29 0 0 Z " fill="#0F64FF" transform="translate(505,205)"/>
<path d="M0 0 C2.52 2.25 4.04 4.08 5.56 7.12 C10.94 17.02 22.69 25 33 29 C33 29.66 33 30.32 33 31 C33.74 31.29 34.49 31.58 35.25 31.88 C37.57 32.82 39.78 33.85 42 35 C36.78 54.15 19.47 72.83 6 87 C5.23 86.38 4.47 85.77 3.68 85.13 C1.87 83.69 0.03 82.27 -1.81 80.88 C-2.53 80.26 -3.26 79.64 -4 79 C-4 78.34 -4 77.68 -4 77 C-4.66 76.81 -5.32 76.63 -6 76.44 C-9.6 74.71 -12.08 72.41 -15.02 69.73 C-17.51 67.55 -20.22 65.81 -23 64 C-26.93 60.88 -30.51 57.59 -34 54 C-37.45 55.48 -39.65 57.44 -42.25 60.12 C-42.96 60.85 -43.66 61.57 -44.39 62.32 C-45.19 63.15 -45.19 63.15 -46 64 C-46.66 63.67 -47.32 63.34 -48 63 C-46.44 61.49 -46.44 61.49 -44.85 59.96 C-36.48 51.75 -28.78 43.56 -22 34 C-21.26 32.97 -20.51 31.93 -19.75 30.87 C-12.69 20.88 -6.26 10.5 0 0 Z " fill="#038EFF" transform="translate(478,532)"/>
<path d="M0 0 C4.25 3.06 8.26 6.24 12.14 9.77 C17.01 14.01 21.99 17.57 27.38 21.12 C29.99 22.86 29.99 22.86 32.65 24.63 C37.99 27.99 43.43 31.04 49 34 C49 34.66 49 35.32 49 36 C48.3 36.66 47.6 37.32 46.88 38 C42.27 42.41 39.29 48.3 36.56 54 C35.09 56.83 33.44 59.18 31.56 61.75 C28.11 66.56 25.91 71.42 24 77 C2.94 66.58 -16.75 52.96 -34 37 C-32.59 29.49 -25.62 24.62 -20 20 C-18.56 18.8 -17.12 17.59 -15.69 16.38 C-15.03 15.83 -14.38 15.28 -13.7 14.71 C-11.92 13.1 -11.92 13.1 -11.02 11.02 C-9.75 8.5 -8.16 7.18 -6 5.38 C-3.92 3.63 -1.92 1.92 0 0 Z " fill="#0978FF" transform="translate(124,551)"/>
<path d="M0 0 C5.22 0.75 9.37 2.01 14.1 4.31 C17.38 5.68 20.66 6.46 24.11 7.29 C36.39 10.22 48.54 13.5 59.74 19.41 C58.3 24.39 56.86 29.37 55.43 34.35 C54.23 38.51 54.23 38.51 53 42.75 C51.35 48.35 49.64 53.89 47.74 59.41 C41.18 58.5 34.73 57.46 28.3 55.85 C22.72 54.51 17.36 54.03 11.64 53.72 C-7.7 52.19 -7.7 52.19 -15.26 48.41 C-6.85 1.24 -6.85 1.24 0 0 Z " fill="#087BFF" transform="translate(18.26171875,273.58984375)"/>
<path d="M0 0 C4.95 1.19 9.46 3.55 14.06 5.69 C22.75 9.6 31.57 12.66 40.65 15.55 C45 17 45 17 49 19 C48.34 19 47.68 19 47 19 C46.83 19.59 46.66 20.19 46.48 20.8 C43.36 31.5 39.36 41.75 35 52 C34.34 52 33.68 52 33 52 C32.71 52.72 32.42 53.44 32.12 54.19 C31.75 55.12 31.38 56.04 31 57 C30.57 58.36 30.57 58.36 30.12 59.75 C29 62 29 62 27.41 62.78 C11.69 64.21 -11.99 49.84 -25 42 C-23.06 33.26 -18.55 25.93 -13 19 C-11.43 16.25 -9.94 13.46 -8.45 10.66 C-4.15 2.77 -4.15 2.77 0 0 Z " fill="#0D6AFF" transform="translate(173,586)"/>
<path d="M0 0 C2.9 3.6 5.71 7.25 8.5 10.94 C15.49 20.04 22.78 28.97 31 37 C28.99 41.93 25.36 45.09 21 48 C20.61 48.72 20.22 49.44 19.81 50.19 C17.63 53.58 15.01 55.77 11.93 58.35 C9.86 60.06 9.86 60.06 7.62 62.44 C6 64 6 64 4 64 C3.77 64.54 3.55 65.07 3.31 65.62 C1.57 68.79 -0.64 71.27 -3 74 C-12.42 68.08 -19.95 59.53 -27 51 C-28 49.79 -29 48.59 -30.02 47.35 C-39.52 35.7 -39.52 35.7 -41 31 C-36.52 26.95 -32.08 23.28 -27 20 C-25.64 18.96 -24.29 17.92 -22.94 16.88 C-20.07 14.7 -17.47 13.08 -14 12 C-14 11.34 -14 10.68 -14 10 C-13.34 10 -12.68 10 -12 10 C-11.67 9.01 -11.34 8.02 -11 7 C-9.26 5.94 -9.26 5.94 -7.12 5 C-4.17 3.69 -2.18 2.41 0 0 Z " fill="#048CFF" transform="translate(93,513)"/>
<path d="M0 0 C7.18 0 10.71 2.04 17.06 5.31 C18.99 6.3 20.92 7.28 22.91 8.3 C26.32 10.11 29.69 12.01 33 14 C32.67 14.99 32.34 15.98 32 17 C30.33 17.67 28.66 18.33 26.98 18.97 C23.89 20.58 21.8 23.01 19.48 25.57 C18 27 18 27 16 27 C16 27.66 16 28.32 16 29 C14.32 30.51 14.32 30.51 12.12 32.12 C11.41 32.66 10.69 33.2 9.95 33.76 C8 35 8 35 6 35 C5.9 35.6 5.81 36.2 5.71 36.82 C4.84 39.48 3.83 40.26 1.62 41.94 C-1.39 44.38 -3.08 46.6 -5 50 C-5.73 50.71 -6.46 51.42 -7.21 52.16 C-10.52 55.53 -13.25 59.14 -16.06 62.94 C-17.6 64.99 -17.6 64.99 -19.16 67.09 C-20.89 69.47 -22.58 71.88 -24.2 74.33 C-26.18 77.27 -28.47 79.54 -31 82 C-31.33 82.66 -31.66 83.32 -32 84 C-36.43 82.45 -40.08 80.13 -44 77.56 C-47.96 74.97 -51.92 72.4 -56 70 C-55.01 69.5 -55.01 69.5 -54 69 C-51.88 69.94 -51.88 69.94 -50 71 C-49.6 69.67 -49.6 69.67 -49.19 68.31 C-48.06 65.18 -46.73 62.83 -45 60 C-43.82 57.86 -42.66 55.71 -41.5 53.56 C-40.91 52.47 -40.32 51.38 -39.72 50.25 C-38.58 48.09 -37.47 45.92 -36.41 43.72 C-34.93 40.86 -33.29 39.22 -31 37 C-30.46 36.09 -29.93 35.19 -29.38 34.25 C-28.92 33.51 -28.47 32.76 -28 32 C-27.34 32 -26.68 32 -26 32 C-25.74 31.44 -25.48 30.88 -25.21 30.31 C-23.87 27.75 -22.34 25.44 -20.69 23.06 C-19.83 21.81 -19.83 21.81 -18.95 20.54 C-16.82 17.77 -14.51 15.42 -12 13 C-10.27 11.29 -8.54 9.58 -6.81 7.88 C-5.95 7.03 -5.09 6.18 -4.21 5.3 C-1.88 3.01 -1.88 3.01 0 0 Z " fill="#0780FF" transform="translate(446,171)"/>
<path d="M0 0 C35.74 29.65 55.62 68.25 60.52 113.83 C61.74 129.52 61.74 129.52 59 135 C55.67 136.08 52.48 136.1 49 136 C49 135.34 49 134.68 49 134 C48.01 134.33 47.02 134.66 46 135 C45.2 134.84 44.39 134.67 43.56 134.5 C40.9 133.98 39.56 134.29 37 135 C36.34 134.67 35.68 134.34 35 134 C35.02 132.92 35.05 131.84 35.07 130.72 C35.6 85.54 24.67 46.18 2.2 7.13 C0 3 0 3 0 0 Z " fill="#009BFF" transform="translate(444,301)"/>
<path d="M0 0 C0.99 0.33 1.98 0.66 3 1 C2.34 1.99 1.68 2.98 1 4 C2.2 7.34 2.2 7.34 4 11 C4.95 13.58 5.88 16.16 6.81 18.75 C9.06 24.82 11.62 30.39 14.9 35.96 C16 38 16 38 16 40 C16.66 40.33 17.32 40.66 18 41 C0.54 49.54 -18.41 58.28 -38 60 C-38.42 58.8 -38.84 57.59 -39.28 56.35 C-39.83 54.79 -40.37 53.23 -40.94 51.62 C-41.48 50.07 -42.03 48.52 -42.59 46.91 C-43.82 43.27 -43.82 43.27 -45 41 C-45.21 39.23 -45.37 37.46 -45.5 35.69 C-45.62 34.09 -45.62 34.09 -45.75 32.46 C-45.83 31.32 -45.91 30.18 -46 29 C-46.19 26.58 -46.37 24.17 -46.56 21.75 C-46.71 19.83 -46.85 17.92 -47 16 C-47.99 15.67 -48.98 15.34 -50 15 C-48.61 14.73 -47.21 14.46 -45.78 14.19 C-30.15 11.01 -14.35 7.17 0 0 Z " fill="#0978FF" transform="translate(357,594)"/>
<path d="M0 0 C17.33 22.42 17.33 22.42 18.22 33.87 C17.27 39.4 15.74 40.21 11 44 C5.47 46.16 -0.1 48.21 -5.69 50.19 C-14.98 53.23 -14.98 53.23 -24 57 C-24.33 57.99 -24.66 58.98 -25 60 C-25.57 59.78 -26.14 59.57 -26.73 59.34 C-29.77 58.88 -30.79 59.82 -33.31 61.5 C-36.47 63.39 -38.38 64.39 -42.06 63.81 C-43.03 63.54 -44 63.28 -45 63 C-45.29 61.9 -45.29 61.9 -45.59 60.77 C-45.85 59.79 -46.11 58.82 -46.38 57.81 C-46.63 56.85 -46.89 55.89 -47.15 54.89 C-47.95 52.18 -48.95 49.63 -50 47 C-50.38 44.44 -50.38 44.44 -50 42 C-48.31 40 -48.31 40 -46 38 C-44.7 36.64 -44.7 36.64 -43.38 35.25 C-41 33 -41 33 -39 33 C-39 32.34 -39 31.68 -39 31 C-37.57 29.73 -36.08 28.53 -34.56 27.38 C-28.47 22.62 -22.65 17.65 -17.19 12.19 C-15.22 10.22 -13.33 8.53 -11 7 C-10.34 7 -9.68 7 -9 7 C-8.67 6.01 -8.34 5.02 -8 4 C-2.63 0 -2.63 0 0 0 Z " fill="#1450FF" transform="translate(550,249)"/>
<path d="M0 0 C0.12 1.05 0.25 2.1 0.38 3.19 C0.92 6.53 1.72 8.91 3 12 C3.35 13.41 3.68 14.83 4 16.25 C4.5 18.11 4.5 18.11 5 20 C5.66 20.33 6.32 20.66 7 21 C7 25 7 25 6 28 C7.61 32.27 7.61 32.27 11 35 C10.72 35.93 10.72 35.93 10.44 36.88 C9.73 41.94 9.44 47.86 12.55 52.12 C13.03 52.74 13.51 53.36 14 54 C14 54.99 14 55.98 14 57 C14.66 57 15.32 57 16 57 C15.44 58.89 15.44 58.89 14 61 C3.58 64.44 -9.08 65.52 -20 65 C-22.52 63.51 -22.52 63.51 -24 62 C-23.69 61.13 -23.69 61.13 -23.38 60.25 C-22.9 57.39 -23.67 56.54 -25 54 C-27.41 48.03 -29.38 42.13 -30.51 35.78 C-30.91 33.76 -30.91 33.76 -33 32 C-32.62 30 -32.62 30 -32 28 C-32 27.34 -32 26.68 -32 26 C-32.66 25.67 -33.32 25.34 -34 25 C-33.67 24.01 -33.34 23.02 -33 22 C-33.65 20.33 -34.32 18.66 -35 17 C-34.67 16.34 -34.34 15.68 -34 15 C-34.64 14.88 -35.28 14.75 -35.94 14.62 C-36.62 14.42 -37.3 14.21 -38 14 C-38.33 13.34 -38.66 12.68 -39 12 C-38.67 11.01 -38.34 10.02 -38 9 C-8.63 -2.92 -8.63 -2.92 0 0 Z " fill="#0291FF" transform="translate(283,155)"/>
<path d="M0 0 C2.74 1.37 3.76 3.16 5.4 5.73 C7.93 9.65 10.6 12.76 13.96 15.98 C16.07 18.04 18.18 20.11 20.28 22.17 C21.88 23.74 21.88 23.74 23.52 25.34 C25.96 27.98 25.96 27.98 25.96 29.98 C26.62 29.98 27.28 29.98 27.96 29.98 C29.69 32.17 29.69 32.17 31.59 34.98 C32.22 35.91 32.85 36.84 33.5 37.8 C33.99 38.52 34.47 39.24 34.96 39.98 C26.04 51.97 11.16 59.77 -1.04 67.98 C-5.15 65.93 -5.92 64.86 -7.97 60.96 C-9.05 58.95 -10.27 57.08 -11.54 55.17 C-13.33 52.33 -14.67 49.57 -15.85 46.42 C-18.11 40.41 -21.23 34.91 -24.33 29.3 C-25.64 26.75 -26.56 24.78 -27.04 21.98 C-27.7 21.98 -28.36 21.98 -29.04 21.98 C-29.04 21.32 -29.04 20.66 -29.04 19.98 C-27.13 18.54 -25.15 17.18 -23.16 15.86 C-17.96 12.35 -13.01 8.69 -8.16 4.71 C-7.46 4.14 -6.76 3.57 -6.04 2.98 C-5.37 2.39 -4.7 1.8 -4.01 1.2 C-2.04 -0.02 -2.04 -0.02 0 0 Z " fill="#0978FF" transform="translate(425.03515625,602.015625)"/>
<path d="M0 0 C0.33 0 0.66 0 1 0 C0.67 11.88 0.34 23.76 0 36 C-1.65 36 -3.3 36 -5 36 C-6.06 36.31 -7.13 36.62 -8.23 36.94 C-12.62 38.18 -16.83 38.59 -21.38 39 C-26.23 39.44 -30.82 39.96 -35.57 41.05 C-40.05 42.01 -43.99 42.2 -48.56 42.12 C-49.97 42.11 -51.37 42.09 -52.82 42.07 C-53.87 42.05 -54.92 42.02 -56 42 C-57.91 28.36 -58.56 14.76 -59 1 C-58.67 2.32 -58.34 3.64 -58 5 C-57.34 4.67 -56.68 4.34 -56 4 C-37.35 2.89 -18.67 2.87 0 3 C0 2.01 0 1.02 0 0 Z " fill="#048BFF" transform="translate(59,377)"/>
<path d="M0 0 C2.02 4.03 -1.14 9.44 -2.45 13.51 C-4.73 20.11 -7.31 26.56 -10 33 C-10.66 33 -11.32 33 -12 33 C-12.1 33.85 -12.2 34.71 -12.3 35.59 C-13.08 39.38 -14.43 42.15 -16.25 45.56 C-19.68 52.24 -22.42 58.96 -25 66 C-25.53 67.37 -26.06 68.75 -26.61 70.16 C-27.15 71.57 -27.69 72.98 -28.25 74.44 C-28.75 75.74 -29.25 77.03 -29.77 78.37 C-30.87 81.62 -31.56 84.61 -32 88 C-39.33 86 -46.67 84 -54 82 C-54 76.22 -51.93 71.84 -49 67 C-48.61 65.35 -48.28 63.68 -48 62 C-47.5 60.3 -47.5 60.3 -47 58.56 C-45.96 55.16 -45.96 55.16 -45.61 52.19 C-44.93 48.63 -43.73 45.74 -42.25 42.44 C-39.69 36.63 -37.32 30.78 -35.08 24.84 C-34.39 23.03 -33.68 21.22 -32.93 19.43 C-32.01 17.02 -31.4 14.71 -30.88 12.19 C-30.71 11.4 -30.54 10.61 -30.37 9.79 C-30.25 9.2 -30.12 8.61 -30 8 C-25.82 6.88 -22.62 7.28 -18.38 7.94 C-12.39 8.48 -9.46 7.64 -4.62 4.06 C-3.05 2.74 -1.5 1.4 0 0 Z " fill="#0290FF" transform="translate(401,143)"/>
<path d="M0 0 C0.14 1.1 0.28 2.2 0.43 3.34 C0.82 6.9 0.82 6.9 2.12 9.56 C3 12 3 12 2.5 14.88 C1.31 22.34 6.01 30.41 8.66 37.26 C9.72 40.23 10.49 42.91 11 46 C11.32 47.34 11.66 48.67 12 50 C0.33 54.23 -19.02 56.12 -30.48 51.64 C-33.92 49.4 -34.8 47.94 -36 44 C-35.5 35.4 -34.07 27.03 -32.56 18.56 C-32.13 16.11 -31.7 13.66 -31.25 11.13 C-30 5 -30 5 -28 1 C-25.49 0.39 -25.49 0.39 -22.31 0.25 C-20.58 0.17 -20.58 0.17 -18.82 0.08 C-12.55 -0.05 -6.28 -0.08 0 0 Z " fill="#1F2AFF" transform="translate(295,659)"/>
<path d="M0 0 C0.33 0 0.66 0 1 0 C1.48 4.12 1.96 8.25 2.44 12.38 C2.7 14.67 2.97 16.97 3.25 19.34 C3.87 24.89 4.46 30.44 5 36 C1.47 37.58 -1.46 38.28 -5.31 38.5 C-9.22 38.8 -12.8 39.37 -16.6 40.39 C-27.67 43.21 -37.62 44.48 -49 43 C-52.82 32.8 -55.3 21.92 -55 11 C-54.02 10.95 -53.04 10.9 -52.04 10.85 C-50.72 10.78 -49.41 10.7 -48.06 10.62 C-46.77 10.56 -45.49 10.49 -44.16 10.41 C-39.65 9.97 -35.42 8.99 -31 8 C-26.24 7.43 -21.49 7 -16.72 6.56 C-11.94 6.08 -11.94 6.08 -7.09 4.88 C-3 4 -3 4 0 5 C0 3.35 0 1.7 0 0 Z " fill="#0291FF" transform="translate(59,408)"/>
<path d="M0 0 C3.95 15.47 3.95 15.47 5.06 21.25 C6.82 30.28 8.9 38.48 13.11 46.72 C14 49 14 49 13 52 C-8.43 62 -8.43 62 -19 62 C-19.18 60.9 -19.36 59.8 -19.55 58.67 C-22.2 42.84 -22.2 42.84 -28 28 C-32 17.29 -32 17.29 -32 12 C-32.66 11.67 -33.32 11.34 -34 11 C-32.84 10.62 -31.68 10.25 -30.48 9.86 C-22.29 7.18 -14.24 4.44 -6.38 0.88 C-4 0 -4 0 0 0 Z " fill="#115CFF" transform="translate(371,638)"/>
<path d="M0 0 C8.19 -0.23 16.03 -0.08 24 2 C24.33 2.33 24.66 2.66 25 3 C26.2 2.96 27.39 2.92 28.62 2.88 C35.77 2.77 44.57 3.78 51 7 C52.42 12.67 51.4 17.53 50.69 23.31 C50.42 25.52 50.16 27.72 49.89 29.99 C49.21 34.55 48.44 38.65 47 43 C45.79 42.61 44.58 42.23 43.34 41.83 C25.21 35.44 25.21 35.44 6.38 32.27 C3.13 31.9 0.12 30.95 -3 30 C-2.69 26.31 -2.38 22.62 -2.06 18.94 C-1.89 16.88 -1.71 14.83 -1.54 12.71 C-1.14 8.44 -0.67 4.24 0 0 Z " fill="#087BFF" transform="translate(504,437)"/>
<path d="M0 0 C5.4 1.52 8.98 5.27 13 9 C12.34 10.32 11.68 11.64 11 13 C10.34 13 9.68 13 9 13 C8.73 13.6 8.46 14.2 8.19 14.81 C7 17 5.9 18.41 4 20 C3.34 20 2.68 20 2 20 C1.79 20.68 1.59 21.36 1.38 22.06 C0.16 24.67 -0.81 26.05 -2.69 28.12 C-7.45 33.45 -11.11 39.62 -14.58 45.84 C-15.05 46.55 -15.52 47.26 -16 48 C-16.66 48 -17.32 48 -18 48 C-18.23 48.72 -18.45 49.44 -18.69 50.19 C-21.2 55.56 -24.63 57.91 -30 60 C-30.33 60.99 -30.66 61.98 -31 63 C-36.46 68.97 -42.82 74.17 -49 79.38 C-51.98 81.65 -51.98 81.65 -53 84 C-56.36 82.57 -58.28 80.84 -60.62 78.06 C-61.22 77.37 -61.81 76.68 -62.41 75.97 C-64 74 -64 74 -66 71 C-64.38 69.29 -62.71 67.63 -61 66 C-60.34 66 -59.68 66 -59 66 C-59 65.34 -59 64.68 -59 64 C-58.38 63.92 -57.76 63.83 -57.12 63.75 C-54.85 63.22 -54.85 63.22 -54.04 61.17 C-53.69 60.45 -53.35 59.74 -53 59 C-50.3 55.27 -47.4 52.12 -43.56 49.56 C-40.1 47.23 -37.62 44.49 -34.95 41.3 C-32.71 38.66 -30.36 36.15 -28 33.62 C-24 29.27 -20.59 24.76 -17.38 19.8 C-16.92 19.21 -16.47 18.61 -16 18 C-15.34 18 -14.68 18 -14 18 C-13.73 17.44 -13.46 16.89 -13.19 16.31 C-11.89 13.79 -10.58 11.36 -9 9 C-8.34 9 -7.68 9 -7 9 C-6.96 8.44 -6.92 7.89 -6.88 7.31 C-5.53 3.76 -2.99 2.29 0 0 Z " fill="#0D6BFF" transform="translate(505,205)"/>
<path d="M0 0 C2.54 1.21 3.3 2.56 4.69 4.99 C5.12 5.72 5.55 6.46 5.99 7.21 C6.3 7.78 6.62 8.34 6.94 8.93 C5.89 9.65 4.84 10.37 3.75 11.11 C1.35 12.82 -0.58 14.45 -2.68 16.55 C-5.06 18.93 -5.06 18.93 -7.43 20.24 C-9.96 21.86 -11.24 23.21 -13.12 25.49 C-17.76 31 -23.27 35.64 -29.06 39.93 C-29.72 39.93 -30.38 39.93 -31.06 39.93 C-31.06 40.59 -31.06 41.25 -31.06 41.93 C-31.8 42.34 -32.54 42.75 -33.31 43.18 C-36.6 45.27 -37.97 47.68 -40.06 50.93 C-40.72 50.93 -41.38 50.93 -42.06 50.93 C-41.6 52.47 -41.14 54.01 -40.68 55.55 C-40.41 56.46 -40.14 57.38 -39.86 58.32 C-39.25 60.31 -38.57 62.28 -37.87 64.24 C-37.05 66.95 -36.89 69.11 -37.06 71.93 C-31.21 72.55 -28.22 71.21 -23.37 67.92 C-20.06 66.49 -18.44 66.68 -15.06 67.93 C-12.72 71.13 -12.72 71.13 -10.68 75.18 C-10 76.5 -9.31 77.83 -8.6 79.19 C-7.22 82.53 -6.66 84.4 -7.06 87.93 C-7.95 87.98 -7.95 87.98 -8.86 88.04 C-13.65 88.42 -17.97 89.12 -22.56 90.55 C-33.21 93.61 -43.12 89.9 -53.06 85.93 C-54.78 58.15 -54.78 58.15 -48.81 50.68 C-46.91 48.74 -44.99 46.83 -43.06 44.93 C-40.96 42.16 -38.9 39.37 -36.87 36.55 C-32.14 30.09 -27.13 24.39 -20.87 19.36 C-18.58 17.38 -17.37 16.08 -15.81 13.61 C-14.94 12.28 -14.94 12.28 -14.06 10.93 C-13.4 10.93 -12.74 10.93 -12.06 10.93 C-12.06 10.27 -12.06 9.61 -12.06 8.93 C-11.4 8.93 -10.74 8.93 -10.06 8.93 C-9.73 7.94 -9.4 6.95 -9.06 5.93 C-7.57 4.29 -7.57 4.29 -5.75 2.68 C-5.15 2.13 -4.56 1.59 -3.95 1.04 C-2.06 -0.07 -2.06 -0.07 0 0 Z " fill="#1257FF" transform="translate(542.05859375,240.07421875)"/>
<path d="M0 0 C1.6 0.17 3.21 0.34 4.86 0.52 C6.13 0.74 7.39 0.96 8.69 1.19 C9.69 3.19 9.69 3.19 8.2 8.23 C-6.63 51.35 -6.63 51.35 -12.31 54.19 C-12.33 53.44 -12.36 52.69 -12.38 51.93 C-13.1 48.88 -13.1 48.88 -16.34 47.23 C-17.63 46.62 -18.92 46.01 -20.25 45.38 C-36.83 36.97 -36.83 36.97 -39.11 31.16 C-39.38 29.25 -39.38 29.25 -39.31 26.19 C-39.64 25.86 -39.97 25.53 -40.31 25.19 C-40.66 22.86 -41 20.52 -41.31 18.19 C-41.63 16.85 -41.96 15.52 -42.31 14.19 C-28.97 5.54 -16.14 -1.82 0 0 Z " fill="#0097FF" transform="translate(534.3125,508.8125)"/>
<path d="M0 0 C0.66 0.33 1.32 0.66 2 1 C1.61 1.56 1.22 2.11 0.81 2.69 C0.54 3.45 0.28 4.21 0 5 C1.21 7.38 1.21 7.38 3 10 C3.53 11.34 4.03 12.7 4.5 14.06 C5.61 17.18 6.98 19.36 9 22 C9.69 23.99 10.36 25.99 11 28 C11.99 30.29 13.02 32.55 14.06 34.82 C15 37 15 37 16.06 40.44 C16.83 43.31 16.83 43.31 20 45 C18.26 45.69 16.53 46.37 14.74 47.08 C12.48 47.98 10.21 48.88 7.88 49.81 C5.62 50.71 3.37 51.6 1.05 52.52 C-5.06 54.94 -5.06 54.94 -11 58 C-13.87 57.69 -13.87 57.69 -16 57 C-16.33 56.01 -16.66 55.02 -17 54 C-17.66 53.34 -18.32 52.68 -19 52 C-20.33 50 -21.67 48 -23 46 C-23.66 45.34 -24.32 44.68 -25 44 C-28.87 39.55 -28.87 39.55 -29.5 36.94 C-29.88 34.76 -29.88 34.76 -32.12 33 C-32.74 32.34 -33.36 31.68 -34 31 C-33.67 27.53 -32.21 25.86 -29.75 23.5 C-29.12 22.89 -28.49 22.29 -27.84 21.66 C-25.64 19.67 -23.33 17.84 -21 16 C-20.27 15.24 -19.55 14.49 -18.8 13.71 C-15.67 10.68 -12.37 8.25 -8.81 5.75 C-7.58 4.88 -6.35 4.01 -5.08 3.11 C-2 1 -2 1 0 0 Z " fill="#087BFF" transform="translate(201,185)"/>
<path d="M0 0 C5.38 2.91 10.18 6.24 15 10 C14.67 10.66 14.34 11.32 14 12 C13.01 12 12.02 12 11 12 C7.03 14.74 7.03 14.74 5 19 C4.34 19 3.68 19 3 19 C2.73 19.74 2.46 20.49 2.19 21.25 C1.05 23.89 -0.09 25.86 -2 28 C-2.66 28 -3.32 28 -4 28 C-4.27 28.57 -4.53 29.15 -4.81 29.74 C-8.57 36.87 -14.57 42.86 -19.98 48.74 C-22.02 50.94 -22.02 50.94 -23.64 53.29 C-24.09 53.86 -24.54 54.42 -25 55 C-25.66 55 -26.32 55 -27 55 C-27.33 55.99 -27.66 56.98 -28 58 C-32.46 62 -32.46 62 -35 62 C-35.66 63.32 -36.32 64.64 -37 66 C-37.66 66 -38.32 66 -39 66 C-39.25 66.58 -39.5 67.15 -39.75 67.75 C-41.18 70.33 -42.78 72.06 -45 74 C-45.66 74 -46.32 74 -47 74 C-47 74.66 -47 75.32 -47 76 C-47.66 76 -48.32 76 -49 76 C-49.37 76.96 -49.37 76.96 -49.75 77.94 C-51 80 -51 80 -52.82 80.83 C-55 81 -55 81 -57.11 79.71 C-57.79 79.08 -58.48 78.46 -59.19 77.81 C-59.88 77.2 -60.58 76.59 -61.29 75.96 C-63.08 73.91 -63.61 72.65 -64 70 C-63.34 70 -62.68 70 -62 70 C-61.93 69.44 -61.86 68.88 -61.79 68.3 C-60.69 65.11 -58.81 63.56 -56.38 61.25 C-52 57.01 -47.93 52.65 -44 48 C-43 46.83 -42 45.67 -41 44.5 C-40.52 43.93 -40.03 43.37 -39.53 42.78 C-37.29 40.17 -35.01 37.58 -32.74 35 C-31.57 33.66 -30.43 32.31 -29.29 30.94 C-28.76 30.3 -28.23 29.66 -27.69 29 C-27.22 28.42 -26.75 27.84 -26.26 27.25 C-25 26 -25 26 -23 26 C-22.5 24.51 -22.5 24.51 -22 23 C-21.34 23 -20.68 23 -20 23 C-19.34 21.68 -18.68 20.36 -18 19 C-15.19 16.08 -12.33 13.21 -9.44 10.38 C-4.13 5.66 -4.13 5.66 0 0 Z " fill="#0B72FF" transform="translate(493,195)"/>
<path d="M0 0 C4.94 1.41 6.81 4.11 10 8 C12.26 9.76 14.58 11.44 16.94 13.06 C21.48 16.19 25.8 19.41 30 23 C30.64 23.54 31.28 24.07 31.94 24.62 C35.46 27.61 38.79 30.69 42 34 C37.66 39.18 33.12 44.07 28.38 48.88 C27.08 50.19 25.79 51.51 24.46 52.87 C21 56 21 56 17 57 C15.99 55.71 15 54.42 14 53.12 C13.44 52.41 12.89 51.69 12.31 50.95 C11 49 11 49 11 47 C10.34 47 9.68 47 9 47 C7.55 45.53 7.55 45.53 5.88 43.5 C2.62 39.65 -0.85 36.14 -4.5 32.66 C-6 31 -6 31 -6 29 C-6.87 28.69 -6.87 28.69 -7.75 28.38 C-11.67 25.98 -13.58 22.27 -15 18 C-15.99 17.67 -16.98 17.34 -18 17 C-13.62 11.37 -13.62 11.37 -10.69 9.62 C-6.51 7.1 -3.36 3.51 0 0 Z " fill="#0780FF" transform="translate(442,585)"/>
<path d="M0 0 C4.91 1.23 7.18 3.39 11.06 6.62 C16.37 10.96 21.66 14.86 27.5 18.41 C30.85 20.54 33.89 23.01 36.98 25.49 C39.54 27.41 42.08 28.73 45 30 C42.94 35.48 40.33 39.39 36.5 43.81 C35.06 45.49 35.06 45.49 33.59 47.21 C31 50 31 50 28 52 C27.44 51.42 26.89 50.85 26.31 50.25 C24.01 47.92 24.01 47.92 21.25 45.88 C20.51 45.26 19.76 44.64 19 44 C19 43.34 19 42.68 19 42 C18.34 41.81 17.68 41.63 17 41.44 C13.4 39.71 10.92 37.41 7.98 34.73 C5.49 32.55 2.78 30.81 0 29 C-3.93 25.88 -7.51 22.59 -11 19 C-14.45 20.48 -16.65 22.44 -19.25 25.12 C-19.96 25.85 -20.66 26.57 -21.39 27.32 C-21.92 27.87 -22.45 28.43 -23 29 C-23.66 28.67 -24.32 28.34 -25 28 C-23.95 26.98 -22.9 25.97 -21.82 24.92 C-13.8 17.06 -6.34 9.29 0 0 Z " fill="#0587FF" transform="translate(455,567)"/>
<path d="M0 0 C0.91 0.2 1.81 0.41 2.75 0.62 C3.96 0.89 5.18 1.16 6.44 1.44 C8.23 1.84 8.23 1.84 10.06 2.25 C14.06 3.08 14.06 3.08 18.41 3.42 C23.26 4.03 27.39 5.27 32 6.88 C33.49 7.39 34.97 7.9 36.5 8.43 C37.99 8.95 39.47 9.47 41 10 C44 11 47 12.01 50 13 C51.53 17.89 50.37 21.8 49.19 26.69 C48.83 28.2 48.47 29.71 48.11 31.26 C47 35 47 35 45 37 C45 36.34 45 35.68 45 35 C36.81 33.15 28.59 31.52 20.35 29.9 C16 29 16 29 13 28 C10.33 28.11 7.66 28.29 5 28.5 C-2.67 29.11 -2.67 29.11 -6 28 C-5.41 23.15 -4.37 18.68 -3 14 C-1.89 9.35 -0.93 4.68 0 0 Z " fill="#0589FF" transform="translate(500,466)"/>
<path d="M0 0 C0.66 0.33 1.32 0.66 2 1 C1.05 1.8 0.1 2.59 -0.88 3.41 C-2.09 4.47 -3.31 5.53 -4.56 6.62 C-6.39 8.19 -6.39 8.19 -8.25 9.79 C-11.39 12.73 -11.39 12.73 -10.9 16.4 C-10.6 17.26 -10.31 18.12 -10 19 C-9.01 19.33 -8.02 19.66 -7 20 C-7 20.99 -7 21.98 -7 23 C-6.34 23.33 -5.68 23.66 -5 24 C-1.89 27.54 0.49 31.36 2.85 35.43 C3.23 35.95 3.61 36.46 4 37 C4.66 37 5.32 37 6 37 C6.12 37.78 6.25 38.57 6.38 39.38 C6.79 42.14 6.79 42.14 9 44 C7.9 44.63 6.8 45.26 5.67 45.91 C-2.9 50.87 -11.16 55.94 -19 62 C-21.86 60.64 -23.86 59.35 -26 57 C-26.33 57.66 -26.66 58.32 -27 59 C-27.55 56.92 -28 55.16 -28 53 C-28.99 53 -29.98 53 -31 53 C-31.67 51 -32.33 49 -33 47 C-33.66 46.67 -34.32 46.34 -35 46 C-35.5 44.51 -35.5 44.51 -36 43 C-36.66 43 -37.32 43 -38 43 C-38 42.34 -38 41.68 -38 41 C-38.99 40.67 -39.98 40.34 -41 40 C-15.47 12.27 -15.47 12.27 -1 1 C-0.67 0.67 -0.34 0.34 0 0 Z " fill="#0B70FF" transform="translate(179,200)"/>
<path d="M0 0 C4.31 3.36 7.86 6.96 11.39 11.13 C12.86 12.84 14.39 14.43 16 16 C13.99 20.93 10.36 24.09 6 27 C5.61 27.72 5.22 28.44 4.81 29.19 C2.63 32.58 0.01 34.77 -3.07 37.35 C-5.14 39.06 -5.14 39.06 -7.38 41.44 C-9 43 -9 43 -11 43 C-11.23 43.54 -11.45 44.07 -11.69 44.62 C-13.43 47.79 -15.64 50.27 -18 53 C-22.4 50.23 -26.07 47.23 -29.75 43.56 C-31.17 42.17 -31.17 42.17 -32.61 40.75 C-34.86 38.17 -35.99 36.24 -37 33 C-34.99 30.91 -32.97 28.83 -30.94 26.75 C-29.25 25.01 -29.25 25.01 -27.53 23.23 C-24.17 20.15 -21 18.14 -17 16 C-14.35 13.6 -14.35 13.6 -12 11 C-8.83 7.68 -5.93 5.34 -2 3 C-1.34 2.01 -0.68 1.02 0 0 Z " fill="#0684FF" transform="translate(108,534)"/>
<path d="M0 0 C0.33 1.32 0.66 2.64 1 4 C3.49 5.3 3.49 5.3 6 6 C5.67 6.99 5.34 7.98 5 9 C5.24 11.12 5.24 11.12 6 13 C6.66 13.33 7.32 13.66 8 14 C7.67 14.99 7.34 15.98 7 17 C7.89 19.61 7.89 19.61 9 22 C9 22.33 9 22.66 9 23 C9.51 30.94 11.36 37.92 15 45 C17.13 49.6 17.13 49.6 16 53 C16.99 53.99 17.98 54.98 19 56 C15.94 56.7 12.88 57.38 9.81 58.06 C8.11 58.45 6.4 58.83 4.64 59.22 C0.79 59.87 -1.38 60.19 -5 59 C-4.94 57.74 -4.88 56.48 -4.81 55.19 C-4.73 51.88 -4.73 51.88 -6.5 49.19 C-7.24 48.6 -7.24 48.6 -8 48 C-8 47.01 -8 46.02 -8 45 C-8.16 43.84 -8.33 42.69 -8.5 41.5 C-9 38 -9 38 -9 35 C-10.31 33.65 -11.65 32.31 -13 31 C-13 30.34 -13 29.68 -13 29 C-13.83 26.83 -13.83 26.83 -16 26 C-16.33 25.01 -16.66 24.02 -17 23 C-17.33 23 -17.66 23 -18 23 C-17.96 22.15 -17.92 21.31 -17.88 20.44 C-18.02 16.58 -18.83 13.66 -20 10 C-16.37 6.37 -13.07 5.21 -8.31 3.31 C-6.76 2.69 -5.21 2.07 -3.61 1.43 C-2.42 0.96 -1.23 0.48 0 0 Z " fill="#0489FF" transform="translate(244,164)"/>
<path d="M0 0 C1.34 3.93 2.13 7.22 2.06 11.38 C1.92 20.93 3.88 27.77 7.72 36.64 C9 40 9 40 9 44 C4.7 45.56 0.59 46.49 -3.94 47.12 C-5.68 47.38 -5.68 47.38 -7.46 47.63 C-11 48 -14.44 48.06 -18 48 C-20.7 42.6 -20.6 37.83 -21 31.81 C-21.5 24.3 -22.36 17.33 -24 10 C-24 7.36 -24 4.72 -24 2 C-31.59 2 -39.18 2 -47 2 C-47 1.67 -47 1.34 -47 1 C-43.58 0.91 -43.58 0.91 -40.1 0.82 C-35.63 0.69 -35.63 0.69 -31.06 0.56 C-28.1 0.48 -25.15 0.4 -22.1 0.32 C-1.66 -0.48 -1.66 -0.48 0 0 Z " fill="#115CFF" transform="translate(310,610)"/>
<path d="M0 0 C0.66 0.33 1.32 0.66 2 1 C1.34 1.66 0.68 2.32 0 3 C0.34 6.4 1.97 8.35 4 11 C4 11.66 4 12.32 4 13 C4.66 13 5.32 13 6 13 C6.25 13.8 6.5 14.61 6.75 15.44 C7.16 16.28 7.57 17.13 8 18 C9.95 18.59 9.95 18.59 12 19 C15 22.32 15 22.32 15 25 C15.99 25.33 16.98 25.66 18 26 C18 26.66 18 27.32 18 28 C18.66 28 19.32 28 20 28 C20.5 29.49 20.5 29.49 21 31 C14.3 38.65 7.24 45.87 0 53 C-4.29 49.55 -7.19 46.65 -10 42 C-11.98 42.5 -11.98 42.5 -14 43 C-14.45 42.22 -14.91 41.43 -15.38 40.62 C-16.88 37.96 -16.88 37.96 -19 36 C-23.13 31.75 -24 28.8 -24 23 C-21.44 19.21 -18.4 16.55 -14.81 13.75 C-9.5 9.5 -4.7 4.91 0 0 Z " fill="#0194FF" transform="translate(428,545)"/>
<path d="M0 0 C1.45 0.03 1.45 0.03 2.94 0.06 C3.85 3.66 4.75 7.27 5.62 10.88 C6.12 12.88 6.62 14.89 7.14 16.96 C7.53 19.48 7.53 19.48 7.94 22.06 C4.94 25.06 4.94 25.06 0.93 25.36 C-0.62 25.32 -2.16 25.29 -3.75 25.25 C-5.3 25.22 -6.85 25.2 -8.45 25.17 C-9.64 25.13 -10.83 25.1 -12.06 25.06 C-12.06 25.72 -12.06 26.38 -12.06 27.06 C-18.79 28.2 -25.23 29.19 -32.06 29.06 C-34.95 29.36 -37.83 29.68 -40.71 30.04 C-41.48 30.05 -42.26 30.05 -43.06 30.06 C-45.6 27.53 -45.78 25.66 -46.56 22.19 C-47.5 17.91 -47.5 17.91 -49.22 13.93 C-50.06 12.06 -50.06 12.06 -49.06 8.06 C-47.72 7.94 -46.38 7.82 -45 7.7 C-43.23 7.53 -41.45 7.36 -39.62 7.19 C-37.87 7.03 -36.12 6.86 -34.32 6.7 C-29.44 6.11 -24.84 5.18 -20.06 4.06 C-15.83 3.27 -11.59 2.5 -7.34 1.75 C-3.82 1.01 -3.53 0.07 0 0 Z " fill="#0F63FF" transform="translate(544.0625,354.9375)"/>
<path d="M0 0 C0.17 0.69 0.34 1.38 0.52 2.09 C1.72 6.75 2.97 11.2 5 15.56 C9.98 26.29 13.38 39.17 13 51 C9.75 51.87 6.5 52.72 3.25 53.56 C1.44 54.04 -0.37 54.51 -2.23 55 C-7 56 -7 56 -11 55 C-9.51 54.5 -9.51 54.5 -8 54 C-9.54 46.02 -11.52 38.18 -14.17 30.5 C-19 15.92 -19 15.92 -19 11 C-19.66 10.67 -20.32 10.34 -21 10 C-21.62 6.94 -21.62 6.94 -22 4 C-19.46 3.32 -16.92 2.66 -14.38 2 C-12.96 1.63 -11.54 1.26 -10.09 0.88 C-6.55 0.12 -3.59 -0.18 0 0 Z " fill="#193FFF" transform="translate(339,650)"/>
<path d="M0 0 C1.09 4.07 2.02 8.19 2.88 12.31 C5.09 22.95 7.38 33.17 14 42 C10.84 42.99 7.67 43.96 4.5 44.94 C2.74 45.48 0.97 46.03 -0.84 46.59 C-5.29 47.81 -9.42 48.58 -14 49 C-14.42 47.8 -14.84 46.59 -15.28 45.35 C-15.83 43.79 -16.37 42.23 -16.94 40.62 C-17.48 39.07 -18.03 37.52 -18.59 35.91 C-19.82 32.27 -19.82 32.27 -21 30 C-21.21 28.23 -21.37 26.46 -21.5 24.69 C-21.62 23.09 -21.62 23.09 -21.75 21.46 C-21.83 20.32 -21.91 19.18 -22 18 C-22.19 15.58 -22.37 13.17 -22.56 10.75 C-22.71 8.83 -22.85 6.92 -23 5 C-23.99 4.67 -24.98 4.34 -26 4 C-22.23 3.14 -18.46 2.28 -14.69 1.44 C-12.59 0.96 -10.49 0.49 -8.32 -0 C-3 -1 -3 -1 0 0 Z " fill="#0D6BFF" transform="translate(333,605)"/>
<path d="M0 0 C6.68 3.64 13.36 7.29 20 11 C20 11.66 20 12.32 20 13 C18.95 13.99 18.95 13.99 17.88 15 C13.27 19.41 10.29 25.3 7.56 31 C6.09 33.83 4.44 36.18 2.56 38.75 C-0.89 43.56 -3.09 48.42 -5 54 C-20.74 45.74 -20.74 45.74 -28 41 C-27.67 40.34 -27.34 39.68 -27 39 C-26.34 39 -25.68 39 -25 39 C-24.63 37.98 -24.63 37.98 -24.25 36.94 C-22.76 33.43 -20.93 30.28 -19 27 C-18.34 27 -17.68 27 -17 27 C-17 26.34 -17 25.68 -17 25 C-16.34 25 -15.68 25 -15 25 C-14.92 24.29 -14.83 23.58 -14.75 22.85 C-13.83 19.35 -12.25 17.25 -10.06 14.38 C-9.35 13.43 -8.64 12.49 -7.91 11.52 C-7.28 10.69 -6.65 9.86 -6 9 C-5.34 8.01 -4.68 7.02 -4 6 C-3.34 6 -2.68 6 -2 6 C-1.34 4.02 -0.68 2.04 0 0 Z " fill="#0B72FF" transform="translate(153,574)"/>
<path d="M0 0 C7.78 1.61 15.37 3.77 23 6 C22.34 6.33 21.68 6.66 21 7 C20.23 8.97 20.23 8.97 19.62 11.38 C16.83 21.21 13 30.6 9 40 C8.34 40 7.68 40 7 40 C6.71 40.72 6.42 41.44 6.12 42.19 C5.75 43.12 5.38 44.04 5 45 C4.57 46.36 4.57 46.36 4.12 47.75 C3.75 48.49 3.38 49.24 3 50 C-2.27 51.32 -5.08 49.93 -10.19 48.19 C-12.62 47.37 -12.62 47.37 -15.11 46.54 C-19 45 -19 45 -20 43 C-19.67 42.01 -19.34 41.02 -19 40 C-18.34 40 -17.68 40 -17 40 C-16.91 39.34 -16.82 38.69 -16.73 38.01 C-15.76 34.01 -14.04 30.58 -12.25 26.88 C-11.53 25.37 -10.81 23.86 -10.07 22.31 C-9.38 20.89 -8.7 19.47 -8 18 C-5.24 12.04 -2.56 6.05 0 0 Z " fill="#0F63FF" transform="translate(199,598)"/>
<path d="M0 0 C0.33 0 0.66 0 1 0 C1 11.22 1 22.44 1 34 C0.67 33.01 0.34 32.02 0 31 C-2.83 30.49 -5.67 29.99 -8.5 29.5 C-10.08 29.22 -11.66 28.94 -13.28 28.66 C-17.6 28.06 -21.65 27.96 -26 28 C-28 27.33 -30 26.67 -32 26 C-36.85 25.34 -41.67 25 -46.56 25 C-49 25 -49 25 -51 24 C-51 16.41 -51 8.82 -51 1 C-50.67 1 -50.34 1 -50 1 C-49.67 2.65 -49.34 4.3 -49 6 C-47.89 5.83 -46.77 5.67 -45.62 5.5 C-34.68 4.29 -23.57 4.75 -12.64 5.84 C-8.65 6.08 -4.94 5.59 -1 5 C-0.67 3.35 -0.34 1.7 0 0 Z " fill="#0A74FF" transform="translate(555,413)"/>
<path d="M0 0 C3.62 1.43 4.63 4.61 6.3 7.91 C8.11 10.79 9.74 13.37 12.2 15.73 C14.52 18.14 16.12 20.61 17.86 23.47 C20.13 27.26 20.13 27.26 23.01 30.56 C24.3 31.91 24.3 31.91 24.3 34.91 C24.96 34.91 25.62 34.91 26.3 34.91 C27.62 37.55 28.94 40.19 30.3 42.91 C25.89 47.76 20.72 51.25 15.3 54.91 C11.53 53.29 10.28 51.53 8.36 47.89 C7.28 45.87 6.06 44 4.8 42.09 C3 39.25 1.67 36.49 0.48 33.34 C-1.78 27.34 -4.89 21.83 -8 16.23 C-9.31 13.67 -10.23 11.7 -10.7 8.91 C-11.36 8.91 -12.02 8.91 -12.7 8.91 C-12.7 8.25 -12.7 7.59 -12.7 6.91 C-10.69 5.14 -10.69 5.14 -8.02 3.22 C-7.15 2.58 -6.28 1.93 -5.38 1.27 C-2.7 -0.09 -2.7 -0.09 0 0 Z " fill="#0B72FF" transform="translate(408.703125,615.09375)"/>
<path d="M0 0 C5.9 10.55 6.14 27.36 4 39 C0.58 40.14 -2.09 40.1 -5.69 40.06 C-7.46 40.05 -7.46 40.05 -9.26 40.04 C-10.17 40.02 -11.07 40.01 -12 40 C-12.33 40.66 -12.66 41.32 -13 42 C-13 41.34 -13 40.68 -13 40 C-13.57 40.02 -14.14 40.05 -14.73 40.07 C-21.98 40.23 -28.87 39.25 -36 38 C-36 33.97 -34.39 32.16 -32 29 C-31.34 29 -30.68 29 -30 29 C-29.34 27.68 -28.68 26.36 -28 25 C-27.34 25 -26.68 25 -26 25 C-25.57 23.89 -25.57 23.89 -25.12 22.75 C-24.75 21.84 -24.38 20.93 -24 20 C-23.73 19.3 -23.46 18.6 -23.19 17.88 C-21.57 15.31 -19.63 14.55 -17 13 C-14.24 11.16 -11.49 9.31 -8.75 7.44 C-7.32 6.47 -5.89 5.5 -4.42 4.5 C-1.01 2.41 -1.01 2.41 0 0 Z " fill="#1451FF" transform="translate(279,620)"/>
<path d="M0 0 C1.8 2.89 1.8 2.89 3.75 6.69 C4.45 8.04 5.15 9.4 5.88 10.79 C8.42 15.83 10.95 20.88 13.46 25.95 C15.19 29.38 17.03 32.7 19 36 C15.35 39.08 11.63 41.47 7.44 43.75 C6.32 44.36 5.21 44.98 4.06 45.61 C1 47 1 47 -3 47 C-11.76 29.85 -11.76 29.85 -15 21 C-15.37 19.99 -15.74 18.99 -16.12 17.95 C-17.09 15.3 -18.05 12.65 -19 10 C-14.75 5.02 -6.7 -2.23 0 0 Z " fill="#0780FF" transform="translate(376,587)"/>
<path d="M0 0 C2.65 5.39 4.48 10.54 5.94 16.38 C7.42 22.23 9.34 27.44 12.05 32.83 C13 35 13 35 13 38 C13.66 38.33 14.32 38.66 15 39 C15.71 40.65 16.37 42.32 17 44 C17.59 45.05 17.59 45.05 18.19 46.12 C19 48 19 48 18 51 C14.69 52.82 14.69 52.82 10.56 54.69 C9.2 55.31 7.84 55.93 6.44 56.57 C3 58 3 58 1 58 C-3.76 48.1 -6.8 38.88 -8.46 28.04 C-9.49 22.23 -11.14 16.59 -13 11 C-13 9.68 -13 8.36 -13 7 C-13.66 6.67 -14.32 6.34 -15 6 C-13.07 4.99 -11.13 3.99 -9.19 3 C-8.11 2.44 -7.03 1.89 -5.92 1.31 C-3 0 -3 0 0 0 Z " fill="#0F64FF" transform="translate(384,631)"/>
<path d="M0 0 C19.18 15.91 42.07 41.2 50 65 C49.11 64.77 48.23 64.55 47.31 64.31 C43.35 63.94 42.12 64.64 39 67 C37.98 67.98 36.98 68.98 36 70 C34.34 71.35 32.68 72.68 31 74 C28.84 69.69 27.68 65.58 26.38 60.94 C20.69 41.84 12.12 24.37 2.2 7.13 C0 3 0 3 0 0 Z " fill="#0197FF" transform="translate(444,301)"/>
<path d="M0 0 C4.64 3.28 8.69 6.3 12 11 C11.5 11.41 11.01 11.83 10.5 12.25 C4.3 17.51 -0.98 23.17 -5.75 29.75 C-8.52 33.5 -11.53 37.01 -14.62 40.5 C-15.55 41.54 -16.47 42.58 -17.41 43.66 C-20 46 -20 46 -24 46 C-26.58 44.03 -26.58 44.03 -29.25 41.5 C-30.14 40.66 -31.03 39.83 -31.95 38.97 C-32.63 38.32 -33.3 37.67 -34 37 C-32.59 29.49 -25.62 24.62 -20 20 C-18.56 18.8 -17.12 17.59 -15.69 16.38 C-15.03 15.83 -14.38 15.28 -13.7 14.71 C-11.92 13.1 -11.92 13.1 -11.02 11.02 C-9.75 8.5 -8.16 7.18 -6 5.38 C-3.92 3.63 -1.92 1.92 0 0 Z " fill="#087EFF" transform="translate(124,551)"/>
<path d="M0 0 C0.65 2.41 1.06 4.62 1.31 7.12 C1.65 8.55 1.65 8.55 2 10 C3.97 11.15 3.97 11.15 6 12 C6.35 13.33 6.69 14.66 7 16 C9.42 19.02 9.42 19.02 12.9 20.34 C15.85 21.26 16.89 22.89 18.75 25.31 C19.36 26.09 19.98 26.87 20.61 27.68 C22 30 22 30 22 34 C19.95 36.25 19.95 36.25 17.25 38.56 C16.37 39.33 15.49 40.09 14.58 40.88 C8.35 46 8.35 46 6 46 C4.51 43.74 3.11 41.41 1.75 39.06 C-0.82 34.67 -3.38 30.32 -6.25 26.12 C-8.23 23.19 -10.14 20.23 -11.94 17.19 C-12.57 16.13 -12.57 16.13 -13.21 15.04 C-14 13 -14 13 -14 11 C-12.43 7.87 -9.93 6.65 -7 4.81 C-5.91 4.12 -4.81 3.42 -3.69 2.71 C-2.8 2.14 -1.91 1.58 -1 1 C-0.67 0.67 -0.34 0.34 0 0 Z " fill="#038CFF" transform="translate(404,566)"/>
<path d="M0 0 C3.13 7.97 5.46 15.47 6.53 23.96 C6.99 26.9 7.7 29.55 8.62 32.38 C9.92 36.39 10.16 39.75 10 44 C10.3 46.34 10.62 48.67 11 51 C9.75 51.51 8.5 52.01 7.25 52.5 C6.55 52.78 5.86 53.06 5.14 53.34 C3 54 3 54 -1 54 C-1.18 52.9 -1.36 51.8 -1.55 50.67 C-4.2 34.84 -4.2 34.84 -10 20 C-14 9.29 -14 9.29 -14 4 C-14.66 3.67 -15.32 3.34 -16 3 C-14.46 2.49 -12.92 1.99 -11.38 1.5 C-10.52 1.22 -9.66 0.94 -8.77 0.66 C-5.76 -0.06 -3.08 -0.11 0 0 Z " fill="#154EFF" transform="translate(353,646)"/>
<path d="M0 0 C8.88 1.88 8.88 1.88 10 3 C12.2 3.38 14.41 3.7 16.62 4 C17.83 4.17 19.04 4.33 20.29 4.5 C22.62 4.81 24.94 5.11 27.28 5.37 C32.29 6.22 37.06 7.64 41.94 9.06 C43.82 9.61 45.71 10.16 47.65 10.72 C49.09 11.14 50.52 11.57 52 12 C51.34 16.62 50.68 21.24 50 26 C42.12 26 33.76 22.78 26.5 19.88 C20.97 17.75 15.45 17.1 9.58 16.49 C5.91 15.99 2.53 15.1 -1 14 C-0.67 9.38 -0.34 4.76 0 0 Z " fill="#0781FF" transform="translate(502,453)"/>
<path d="M0 0 C2.62 7.59 4.82 15.27 7 23 C7.69 25.4 8.37 27.79 9.06 30.19 C9.55 31.9 9.55 31.9 10.05 33.65 C10.67 35.86 11.31 38.06 11.95 40.25 C12.24 41.24 12.52 42.23 12.81 43.25 C13.07 44.12 13.32 44.99 13.58 45.89 C14 48 14 48 13 50 C9.96 51.9 7.29 52.35 3.75 52.62 C2.86 52.7 1.97 52.77 1.05 52.85 C0.37 52.9 -0.3 52.95 -1 53 C-0.01 52.5 -0.01 52.5 1 52 C0.5 50.51 0.5 50.51 0 49 C0.33 48.01 0.66 47.02 1 46 C0.34 45.67 -0.32 45.34 -1 45 C-2.27 37.82 -2.27 37.82 -1 34 C-1.66 34 -2.32 34 -3 34 C-3.13 33.4 -3.27 32.79 -3.4 32.17 C-3.67 30.97 -3.67 30.97 -3.94 29.75 C-4.11 28.96 -4.29 28.17 -4.46 27.36 C-5.38 23.33 -6.5 19.8 -8.17 16 C-10.25 10.99 -12 6.46 -12 1 C-7.96 0.37 -4.09 -0.12 0 0 Z " fill="#1B37FF" transform="translate(318,655)"/>
<path d="M0 0 C1.34 3.93 2.13 7.22 2.06 11.38 C1.92 20.93 3.88 27.77 7.72 36.64 C9 40 9 40 9 44 C4.82 45.59 1.47 46.21 -3 46 C-4.37 42.35 -5.69 38.68 -7 35 C-7.3 34.19 -7.59 33.37 -7.9 32.54 C-11.41 22.08 -11.2 10.92 -11 0 C-6.98 -0.84 -3.98 -1.05 0 0 Z " fill="#0F63FF" transform="translate(310,610)"/>
<path d="M0 0 C0.26 1.03 0.26 1.03 0.52 2.09 C1.72 6.75 2.97 11.2 5 15.56 C9.98 26.29 13.38 39.17 13 51 C10.03 51.66 7.06 52.32 4 53 C4 52.34 4 51.68 4 51 C3.34 50.67 2.68 50.34 2 50 C2.33 47.69 2.66 45.38 3 43 C2.34 42.67 1.68 42.34 1 42 C0.66 40.03 0.66 40.03 0.5 37.5 C0.1 32.52 -0.8 27.84 -2 23 C-2.14 22.28 -2.29 21.55 -2.44 20.8 C-2.72 19.91 -2.72 19.91 -3 19 C-3.66 18.67 -4.32 18.34 -5 18 C-4.67 17.01 -4.34 16.02 -4 15 C-4.66 15 -5.32 15 -6 15 C-6.2 14.3 -6.41 13.6 -6.62 12.88 C-6.89 11.97 -7.16 11.06 -7.44 10.12 C-7.7 9.22 -7.97 8.32 -8.25 7.38 C-8.93 5.02 -8.93 5.02 -10 3 C-8.01 -0.97 -3.92 -0.09 0 0 Z " fill="#1746FF" transform="translate(339,650)"/>
<path d="M0 0 C0.4 1.42 0.8 2.85 1.21 4.31 C1.74 6.19 2.27 8.07 2.81 10 C3.33 11.86 3.86 13.71 4.39 15.62 C6.68 23.28 9.57 30.39 13.01 37.58 C14 40 14 40 14 43 C11.09 44.15 8.51 44.96 5.38 45.19 C1.28 43.14 0.48 39.14 -1 35 C-1.34 34.11 -1.68 33.22 -2.03 32.3 C-5.24 23.41 -8 13.5 -8 4 C-8.66 3.67 -9.32 3.34 -10 3 C-8.71 2.5 -7.42 2 -6.12 1.5 C-5.05 1.08 -5.05 1.08 -3.95 0.66 C-2 0 -2 0 0 0 Z " fill="#0B73FF" transform="translate(341,601)"/>
<path d="M0 0 C4.02 10.33 6 20.35 7.32 31.35 C8.05 36.33 8.93 40.31 11.62 44.56 C13.17 47.3 13.26 48.91 13 52 C10.03 52.99 7.06 53.98 4 55 C2.79 51.29 1.99 48.61 2.05 44.67 C2 40.84 1.29 38.01 0.12 34.38 C-1.32 29.6 -2.39 25.01 -3.06 20.06 C-3.72 15.17 -4.88 11.43 -7 7 C-7 6.01 -7 5.02 -7 4 C-7.99 4.33 -8.98 4.66 -10 5 C-10.33 4.34 -10.66 3.68 -11 3 C-9.73 2.49 -8.46 2 -7.19 1.5 C-6.48 1.22 -5.77 0.94 -5.04 0.66 C-3 0 -3 0 0 0 Z " fill="#1256FF" transform="translate(360,642)"/>
<path d="M0 0 C0.33 0 0.66 0 1 0 C1.33 1.65 1.66 3.3 2 5 C2.78 4.94 3.57 4.88 4.38 4.81 C5.67 4.91 5.67 4.91 7 5 C7.99 6.49 7.99 6.49 9 8 C9.99 7.67 10.98 7.34 12 7 C9.1 14.25 5.77 21.29 2.51 28.39 C-0.06 33.95 -0.06 33.95 -2.01 39.64 C-2.67 41.08 -3.32 42.52 -4 44 C-6.47 44.5 -6.47 44.5 -9 45 C-11.1 42.16 -10.98 40.81 -10.57 37.23 C-7.8 24.55 -4.13 12.3 0 0 Z " fill="#0B76FF" transform="translate(94,317)"/>
<path d="M0 0 C10.06 8.35 18.21 17.48 26 28 C24.68 29.32 23.34 30.64 22 31.94 C19.85 34.03 19.85 34.03 18 37 C17.37 35.71 16.74 34.41 16.09 33.08 C11.59 23.93 7.05 15.03 1.4 6.53 C0 4 0 4 0 0 Z " fill="#0B76FF" transform="translate(444,301)"/>
<path d="M0 0 C3.68 1.27 4.8 3.29 6.96 6.47 C7.65 7.48 8.35 8.5 9.07 9.54 C9.85 10.71 9.85 10.71 10.64 11.91 C10.31 12.57 9.98 13.23 9.64 13.91 C8.78 13.54 8.78 13.54 7.89 13.16 C7.15 13.08 6.41 13 5.64 12.91 C3.48 14.74 3.48 14.74 1.64 16.91 C0.98 17.24 0.32 17.57 -0.36 17.91 C-1.02 18.9 -1.68 19.89 -2.36 20.91 C-7.78 8.67 -7.78 8.67 -5.48 2.6 C-3.87 0.17 -2.89 -0.11 0 0 Z " fill="#0293FF" transform="translate(469.35546875,330.08984375)"/>
<path d="M0 0 C-1.26 2.51 -2.5 2.87 -5 4 C-5.66 2.68 -6.32 1.36 -7 0 C-4.33 -1.33 -2.83 -0.67 0 0 Z " fill="#0687FF" transform="translate(472,331)"/>
<path d="M0 0 C0.66 0.99 1.32 1.98 2 3 C1.67 3.66 1.34 4.32 1 5 C0.34 5 -0.32 5 -1 5 C-1.5 6.98 -1.5 6.98 -2 9 C-2 6.36 -2 3.72 -2 1 C-1.34 0.67 -0.68 0.34 0 0 Z " fill="#048DFF" transform="translate(481,419)"/>
<path d="" fill="#0C73FF" transform="translate(0,0)"/>
<path d="" fill="#0C73FF" transform="translate(0,0)"/>
<path d="" fill="#0C73FF" transform="translate(0,0)"/>
<path d="" fill="#0C73FF" transform="translate(0,0)"/>
<path d="" fill="#0C73FF" transform="translate(0,0)"/>
<path d="" fill="#0C73FF" transform="translate(0,0)"/>
</svg>
