<svg role="img" width="32" height="32" viewBox="0 0 32 32" fill="none" xmlns="http://www.w3.org/2000/svg"><mask id="mask0_12691_93579" maskUnits="userSpaceOnUse" x="0" y="0" width="32" height="32" style="mask-type: alpha;"><path d="M17.3313 0.912699C17.1155 0.362153 16.5844 0 15.9931 0C15.4017 0 14.8707 0.362153 14.6548 0.912699L12.1381 7.32994C12.1083 7.40594 12.1264 7.49238 12.1841 7.55013L14.0855 9.45153C14.1902 9.55621 14.3678 9.5191 14.4219 9.3813L15.8019 5.86249C15.8701 5.68864 16.116 5.68864 16.1843 5.86249L18.7477 12.3994C18.9237 12.848 19.3127 13.1786 19.7838 13.28C20.2549 13.3812 20.7454 13.2397 21.0903 12.9032L28.7998 5.3766C28.881 5.29737 28.8826 5.16735 28.8033 5.0862L27.0819 3.32284C27.0026 3.24167 26.8726 3.24012 26.7915 3.31935L20.8545 9.11531C20.7493 9.21798 20.5736 9.18017 20.52 9.04334L17.3313 0.912699Z" fill="white" fill-opacity="0.85"></path><path d="M14.6686 31.0873C14.8845 31.6378 15.4155 32 16.0068 32C16.5982 32 17.1293 31.6378 17.3451 31.0873L19.8618 24.6701C19.8916 24.594 19.8735 24.5076 19.8158 24.4499L17.9144 22.5485C17.8097 22.4438 17.6321 22.4809 17.578 22.6188L16.1981 26.1374C16.1298 26.3114 15.8839 26.3114 15.8157 26.1374L13.2522 19.6006C13.0762 19.152 12.6872 18.8214 12.2161 18.72C11.745 18.6188 11.2544 18.7601 10.9096 19.0969L3.20002 26.6234C3.11888 26.7027 3.1173 26.8326 3.19653 26.9137L4.91803 28.6772C4.99726 28.7584 5.12728 28.7599 5.20845 28.6807L11.1454 22.8846C11.2505 22.782 11.4263 22.8198 11.48 22.9566L14.6686 31.0873Z" fill="white" fill-opacity="0.85"></path><path d="M31.0873 17.3314C31.6378 17.1155 32 16.5845 32 15.9932C32 15.4018 31.6378 14.8707 31.0873 14.6549L24.6701 12.1382C24.594 12.1084 24.5076 12.1264 24.4499 12.1842L22.5485 14.0855C22.4438 14.1903 22.4809 14.3679 22.6188 14.422L26.1374 15.8019C26.3114 15.8701 26.3114 16.1161 26.1374 16.1843L19.6006 18.7478C19.152 18.9238 18.8214 19.3128 18.72 19.7839C18.6188 20.255 18.7601 20.7455 19.0969 21.0904L26.6234 28.7999C26.7027 28.881 26.8326 28.8826 26.9137 28.8034L28.6772 27.0819C28.7584 27.0026 28.7599 26.8726 28.6807 26.7916L22.8846 20.8546C22.782 20.7494 22.8198 20.5737 22.9566 20.52L31.0873 17.3314Z" fill="white" fill-opacity="0.85"></path><path d="M0.912699 14.6687C0.362153 14.8845 0 15.4156 0 16.0068C0 16.5983 0.362153 17.1293 0.912699 17.3452L7.32994 19.8618C7.40594 19.8916 7.49238 19.8736 7.55013 19.8159L9.45153 17.9145C9.55621 17.8098 9.5191 17.6322 9.3813 17.578L5.86249 16.1981C5.68864 16.1299 5.68864 15.8839 5.86249 15.8157L12.3994 13.2522C12.848 13.0763 13.1786 12.6872 13.28 12.2161C13.3812 11.745 13.2399 11.2545 12.9032 10.9097L5.3766 3.20009C5.29737 3.11894 5.16735 3.11737 5.0862 3.1966L3.32284 4.91809C3.24167 4.99734 3.24012 5.12735 3.31935 5.20851L9.11531 11.1454C9.21798 11.2506 9.18017 11.4264 9.04334 11.4801L0.912699 14.6687Z" fill="white" fill-opacity="0.85"></path></mask><g mask="url(#mask0_12691_93579)"><rect x="34.9091" y="33.4546" width="37.8182" height="36.3637" transform="rotate(-180 34.9091 33.4546)" fill="url(#paint0_linear_12691_93579)"></rect></g><defs><linearGradient id="paint0_linear_12691_93579" x1="30.7689" y1="33.4546" x2="62.77" y2="63.576" gradientUnits="userSpaceOnUse"><stop offset="0.076587" stop-color="#FF6200"></stop><stop offset="0.537477" stop-color="#EA00FF" stop-opacity="0.9"></stop><stop offset="1" stop-color="#7C42FA"></stop></linearGradient></defs></svg>