<svg fill="none" viewBox="0 0 200 200" version="1.1" xmlns="http://www.w3.org/2000/svg" width="32" height="32">
<path d="M0 0 C66 0 132 0 200 0 C200 66 200 132 200 200 C134 200 68 200 0 200 C0 134 0 68 0 0 Z " fill="#FEFEFE" transform="translate(0,0)"/>
<path d="M0 0 C8.36 6.04 15.71 14.25 17.75 24.68 C18.76 34.19 17.97 41.86 15 51 C17.13 50.92 19.27 50.84 21.46 50.75 C24.26 50.69 27.06 50.63 29.94 50.56 C32.71 50.48 35.48 50.4 38.34 50.32 C46.55 51.05 49.3 52.24 55 58 C62.82 68.13 65.19 77.15 64 90 C62.98 92.92 62.98 92.92 62 95 C52.98 93.2 47.57 84.88 41.31 78.5 C33.41 69.44 33.41 69.44 24 62 C24.03 65.84 24.07 69.68 24.11 73.64 C24.13 78.6 24.16 83.57 24.19 88.69 C24.22 93.64 24.26 98.6 24.29 103.7 C24 116 24 116 21 121 C17.31 123.46 14.28 123.69 10 123 C6.56 120.88 5.28 119.85 4 116 C3.69 106.96 3.5 97.92 3.38 88.88 C3.28 83.9 3.18 78.93 3.09 73.8 C4 61 4 61 13 52 C10.9 41.91 4.43 35.56 -4 30 C-5.34 29.33 -6.69 28.67 -8.07 27.98 C-14.49 24.1 -19.27 19.3 -24.56 14 C-26.52 12.06 -28.48 10.12 -30.5 8.12 C-35 3 -35 3 -35 -2 C-26.99 -10.01 -8.5 -5.23 0 0 Z " fill="#F8AB02" transform="translate(87,44)"/>
<path d="M0 0 C5.44 4.4 11.5 10.7 13.14 17.73 C8.38 27.24 -1.82 35.08 -9.18 42.48 C-14.77 48.13 -14.77 48.13 -20.48 53.9 C-29.86 62.73 -29.86 62.73 -34.86 62.73 C-38.42 55.29 -38.27 45.95 -35.7 38.23 C-31.65 29.92 -27.62 24.9 -19.86 19.73 C-22.51 19.68 -25.16 19.63 -27.89 19.58 C-31.3 19.51 -34.72 19.43 -38.24 19.36 C-41.65 19.29 -45.06 19.22 -48.57 19.14 C-56.86 18.73 -56.86 18.73 -58.86 16.73 C-58.86 11.42 -55.27 7.47 -51.86 3.73 C-36.9 -9.71 -16.72 -11.82 0 0 Z " fill="#4385F3" transform="translate(87.86328125,76.26953125)"/>
<path d="M0 0 C8.36 6.04 15.71 14.25 17.75 24.68 C18.77 34.28 18.13 42.87 15 52 C12.84 49.84 12.19 48.23 11 45.44 C7 37.34 0.87 32.45 -7.11 28.43 C-14.05 24.39 -19.03 19.63 -24.69 13.94 C-26.63 12.01 -28.57 10.08 -30.57 8.09 C-35 3 -35 3 -35 -2 C-26.99 -10.01 -8.5 -5.23 0 0 Z " fill="#F97C1A" transform="translate(87,44)"/>
<path d="M0 0 C7.71 3.99 16.76 10.32 20.07 18.72 C19.74 20.7 19.41 22.68 19.07 24.72 C-4.03 24.72 -27.13 24.72 -50.93 24.72 C-50.93 24.06 -50.93 23.4 -50.93 22.72 C-48.28 20.36 -45.61 18.03 -42.93 15.72 C-38.73 11.54 -34.58 7.31 -30.44 3.07 C-22.97 -4.06 -9.39 -3.06 0 0 Z " fill="#AF5CF7" transform="translate(152.9296875,70.28125)"/>
<path d="M0 0 C1 1 1 1 1 6 C-6.49 13.9 -14.14 21.65 -21.88 29.31 C-26.12 33.54 -30.37 37.76 -34.74 42.11 C-45 52 -45 52 -47 52 C-46.67 50.97 -46.34 49.94 -46 48.88 C-43.62 39.3 -44.36 29.24 -47.72 20.03 C-48 18 -48 18 -47.07 16.11 C-35.48 1.33 -18.94 -7.58 0 0 Z " fill="#FE8BCB" transform="translate(149,41)"/>
<path d="M0 0 C0 7.28 -16.34 19.83 -20.69 24.19 C-24.53 28.06 -28.37 31.93 -32.32 35.92 C-42 45 -42 45 -47 45 C-50.55 37.56 -50.41 28.22 -47.83 20.5 C-46.38 17.52 -44.82 14.77 -43 12 C-42.59 11.37 -42.19 10.75 -41.77 10.11 C-38.58 5.81 -34.74 3.36 -30 1 C-22.66 0.29 -22.66 0.29 -14.5 0.19 C-11.79 0.14 -9.08 0.09 -6.28 0.04 C-4.21 0.03 -2.14 0.01 0 0 Z " fill="#159EAF" transform="translate(100,94)"/>
<path d="M0 0 C4.98 -0.19 9.96 -0.32 14.94 -0.44 C17.71 -0.52 20.48 -0.6 23.34 -0.68 C31.55 0.05 34.3 1.24 40 7 C47.82 17.13 50.19 26.15 49 39 C47.98 41.92 47.98 41.92 47 44 C37.98 42.2 32.57 33.88 26.31 27.5 C18.41 18.44 18.41 18.44 9 11 C9 10.34 9 9.68 9 9 C8.44 8.77 7.89 8.55 7.31 8.31 C4.34 6.62 2.28 4.53 0 2 C0 1.34 0 0.68 0 0 Z " fill="#5CB875" transform="translate(102,95)"/>
<path d="M0 0 C2 2 2 2 2 5 C3.32 5.66 4.64 6.32 6 7 C8.46 9.33 10.88 11.71 13.25 14.12 C15.14 16.05 15.14 16.05 17.08 18.01 C18.04 19 19.01 19.98 20 21 C19.34 21.66 18.68 22.32 18 23 C14.99 20.12 11.99 17.22 9 14.31 C7.33 12.7 5.66 11.09 3.94 9.43 C0 5 0 5 0 0 Z " fill="#FA882F" transform="translate(52,42)"/>
<path d="M0 0 C0.66 0.33 1.32 0.66 2 1 C-1.96 4.96 -5.92 8.92 -10 13 C-10.33 12.01 -10.66 11.02 -11 10 C-8.4 5.71 -4.59 2.04 0 0 Z " fill="#1BA2B2" transform="translate(67,97)"/>
<path d="M0 0 C0.99 0.33 1.98 0.66 3 1 C0.03 3.97 -2.94 6.94 -6 10 C-6.66 9.67 -7.32 9.34 -8 9 C-6.85 7.69 -5.71 6.37 -4.56 5.06 C-3.92 4.33 -3.29 3.6 -2.63 2.85 C-1.77 1.88 -0.91 0.91 0 0 Z " fill="#FF90CD" transform="translate(111,47)"/>
<path d="M0 0 C3.38 1.19 5.65 2.28 8 5 C7.67 5.99 7.34 6.98 7 8 C5.83 6.86 4.66 5.71 3.5 4.56 C2.85 3.92 2.2 3.29 1.53 2.63 C0 1 0 1 0 0 Z " fill="#72B762" transform="translate(102,96)"/>
<path d="M0 0 C0.99 0.33 1.98 0.66 3 1 C0.03 3.47 0.03 3.47 -3 6 C-3.66 5.67 -4.32 5.34 -5 5 C-3.35 3.35 -1.7 1.7 0 0 Z " fill="#4F8DF4" transform="translate(38,78)"/>
</svg>
