<svg fill="none" viewBox="0 0 200 200" version="1.1" xmlns="http://www.w3.org/2000/svg" width="32" height="32">
<path d="M0 0 C66 0 132 0 200 0 C200 66 200 132 200 200 C134 200 68 200 0 200 C0 134 0 68 0 0 Z " fill="#615CED" transform="translate(0,0)"/>
<path d="M0 0 C1.97 -0.03 3.94 -0.06 5.96 -0.09 C11.06 0.5 11.06 0.5 13.38 2.41 C15.06 5.5 15.06 5.5 17.15 10.77 C20.95 16.48 20.95 16.48 29.57 16.48 C32.89 16.41 36.21 16.33 39.62 16.25 C49.69 16.05 49.69 16.05 58.06 16.5 C61.7 20.87 64.59 24.67 67.44 29.5 C68.15 30.68 68.86 31.85 69.59 33.06 C71.27 36.99 71.37 38.48 70.06 42.5 C68.3 45.61 66.35 48.53 64.36 51.5 C62.75 54.45 62.75 54.45 63.68 57.58 C64.94 60.24 66.24 62.71 67.81 65.19 C70.6 69.7 73.16 74.29 75.67 78.96 C77.03 81.53 77.03 81.53 78.74 83.95 C80.4 87.16 80.55 88.92 80.06 92.5 C78.42 95.79 78.42 95.79 76.25 99.12 C75.54 100.23 74.83 101.34 74.11 102.48 C73.43 103.47 72.76 104.47 72.06 105.5 C71.66 106.29 71.26 107.08 70.85 107.89 C67.79 110.65 64.22 109.73 60.25 109.62 C54.02 109.62 54.02 109.62 48.75 112.39 C47.22 115.03 46.13 117.64 45.06 120.5 C44.09 122.35 43.09 124.18 42.06 126 C41.57 126.91 41.08 127.81 40.58 128.75 C34.17 140.4 34.17 140.4 31.06 143.5 C27.16 143.88 23.23 144.08 19.31 144.19 C16.1 144.32 16.1 144.32 12.83 144.45 C7.06 143.5 7.06 143.5 3.55 139.39 C2.73 137.78 1.91 136.16 1.06 134.5 C-0.92 131.03 -0.92 131.03 -2.94 127.5 C-11.57 126.57 -11.57 126.57 -21.44 126.81 C-27.6 126.84 -33.78 126.77 -39.94 126.5 C-43.64 122.8 -46.03 119.5 -48.75 115.06 C-49.56 113.76 -50.37 112.47 -51.21 111.13 C-52.94 107.5 -52.94 107.5 -52.89 104.83 C-51.44 101.28 -49.3 98.33 -47.12 95.2 C-45.46 91.41 -45.87 89.49 -46.94 85.5 C-48.6 82.27 -50.38 79.11 -52.25 76 C-53.22 74.38 -54.18 72.76 -55.18 71.09 C-56.84 68.32 -58.54 65.56 -60.29 62.84 C-62.21 58.94 -62.55 56.8 -61.94 52.5 C-60.26 49.11 -60.26 49.11 -58.06 45.81 C-55.24 41.6 -55.24 41.6 -52.8 37.17 C-51.94 35.5 -51.94 35.5 -49.94 34.5 C-46.83 34.5 -43.73 34.5 -40.62 34.5 C-34.28 34.46 -34.28 34.46 -28.82 31.82 C-27.59 29.43 -26.79 27.05 -25.94 24.5 C-24.82 22.66 -23.65 20.85 -22.44 19.06 C-19.62 14.71 -17.25 10.3 -15.08 5.59 C-11.49 -0.99 -6.86 0.04 0 0 Z " fill="#625DED" transform="translate(90.9375,28.5)"/>
<path d="M0 0 C1.97 -0.03 3.94 -0.06 5.96 -0.09 C11.06 0.5 11.06 0.5 13.38 2.41 C15.06 5.5 15.06 5.5 17.15 10.77 C20.95 16.48 20.95 16.48 29.57 16.48 C32.89 16.41 36.21 16.33 39.62 16.25 C49.69 16.05 49.69 16.05 58.06 16.5 C61.7 20.87 64.59 24.67 67.44 29.5 C68.15 30.68 68.86 31.85 69.59 33.06 C71.27 36.99 71.37 38.48 70.06 42.5 C68.3 45.61 66.35 48.53 64.36 51.5 C62.75 54.45 62.75 54.45 63.68 57.58 C64.94 60.24 66.24 62.71 67.81 65.19 C70.6 69.7 73.16 74.29 75.67 78.96 C77.03 81.53 77.03 81.53 78.74 83.95 C80.4 87.16 80.55 88.92 80.06 92.5 C78.42 95.79 78.42 95.79 76.25 99.12 C75.54 100.23 74.83 101.34 74.11 102.48 C73.43 103.47 72.76 104.47 72.06 105.5 C71.66 106.29 71.26 107.08 70.85 107.89 C67.79 110.65 64.22 109.73 60.25 109.62 C54.02 109.62 54.02 109.62 48.75 112.39 C47.22 115.03 46.13 117.64 45.06 120.5 C44.09 122.35 43.09 124.18 42.06 126 C41.57 126.91 41.08 127.81 40.58 128.75 C34.17 140.4 34.17 140.4 31.06 143.5 C27.16 143.88 23.23 144.08 19.31 144.19 C16.1 144.32 16.1 144.32 12.83 144.45 C7.06 143.5 7.06 143.5 3.55 139.39 C2.73 137.78 1.91 136.16 1.06 134.5 C-0.92 131.03 -0.92 131.03 -2.94 127.5 C-11.57 126.57 -11.57 126.57 -21.44 126.81 C-27.6 126.84 -33.78 126.77 -39.94 126.5 C-43.64 122.8 -46.03 119.5 -48.75 115.06 C-49.56 113.76 -50.37 112.47 -51.21 111.13 C-52.94 107.5 -52.94 107.5 -52.89 104.83 C-51.44 101.28 -49.3 98.33 -47.12 95.2 C-45.46 91.41 -45.87 89.49 -46.94 85.5 C-48.6 82.27 -50.38 79.11 -52.25 76 C-53.22 74.38 -54.18 72.76 -55.18 71.09 C-56.84 68.32 -58.54 65.56 -60.29 62.84 C-62.21 58.94 -62.55 56.8 -61.94 52.5 C-60.26 49.11 -60.26 49.11 -58.06 45.81 C-55.24 41.6 -55.24 41.6 -52.8 37.17 C-51.94 35.5 -51.94 35.5 -49.94 34.5 C-46.83 34.5 -43.73 34.5 -40.62 34.5 C-34.28 34.46 -34.28 34.46 -28.82 31.82 C-27.59 29.43 -26.79 27.05 -25.94 24.5 C-24.82 22.66 -23.65 20.85 -22.44 19.06 C-19.62 14.71 -17.25 10.3 -15.08 5.59 C-11.49 -0.99 -6.86 0.04 0 0 Z M-9.94 6.5 C-11.69 9.39 -13.38 12.32 -15.06 15.25 C-18.92 21.98 -22.81 28.69 -26.79 35.35 C-28.09 37.39 -28.09 37.39 -27.94 39.5 C-34.21 39.5 -40.48 39.5 -46.94 39.5 C-43.16 48.95 -37.62 57.48 -32.44 66.22 C-29.87 70.61 -27.4 75.05 -24.94 79.5 C-22.9 83.09 -20.86 86.67 -18.81 90.25 C-17.78 92.06 -16.74 93.87 -15.68 95.73 C-13.8 99.01 -11.88 102.26 -9.94 105.5 C-16.54 105.5 -23.14 105.5 -29.94 105.5 C-31.92 108.9 -31.92 108.9 -33.94 112.38 C-34.68 113.65 -35.42 114.93 -36.19 116.24 C-38.1 119.18 -38.1 119.18 -37.94 121.5 C-25.4 121.5 -12.86 121.5 0.06 121.5 C0.72 123.15 1.38 124.8 2.06 126.5 C3.03 128.27 4.03 130.02 5.06 131.75 C5.58 132.62 6.09 133.49 6.62 134.39 C7.89 136.62 7.89 136.62 10.06 137.5 C17.15 125.34 24.12 113.12 31.04 100.86 C39.88 85.19 39.88 85.19 44.28 77.75 C46.22 74.83 46.22 74.83 46.06 72.5 C48.35 74.39 49.23 75.87 50.47 78.64 C52.33 82.62 53.9 85.42 57.06 88.5 C63.2 89.65 68.89 89.27 75.06 88.5 C68.06 72.46 68.06 72.46 58.06 58.5 C57.53 53.42 58.68 50.89 61.56 46.75 C64.17 43.41 64.17 43.41 65.06 39.5 C40.31 39.5 15.56 39.5 -9.94 39.5 C-1.94 25.5 -1.94 25.5 -0.94 24.5 C-0.94 17.34 -4.79 12.12 -8.94 6.5 C-9.27 6.5 -9.6 6.5 -9.94 6.5 Z " fill="#FCFCFE" transform="translate(90.9375,28.5)"/>
<path d="M0 0 C14.85 0 29.7 0 45 0 C43.95 5.25 42.32 8.19 39.56 12.75 C38.67 14.24 37.78 15.73 36.86 17.26 C35.91 18.83 34.97 20.39 34 22 C32.12 25.19 30.25 28.37 28.38 31.56 C26.92 34.04 25.46 36.52 24 39 C18.78 37.26 17.36 31.89 14.81 27.25 C10.49 19.44 6.11 11.74 1.29 4.23 C0 2 0 2 0 0 Z " fill="#FDFDFE" transform="translate(77,86)"/>
</svg>
