<svg xmlns="http://www.w3.org/2000/svg" xmlns:xlink="http://www.w3.org/1999/xlink" fill="none" version="1.1" width="32" height="32" viewBox="0 0 58 58.592041015625"><g><g><path d="M0,39.0608L9.66609,39.0608L9.66609,9.76475L38.6662,9.76475L38.6662,0L0,0L0,39.0608Z" fill="#5B29DA" fill-opacity="1"/></g><g><rect x="38.66650390625" y="19.53125" width="19.33217430114746" height="19.53133773803711" rx="0" fill="#01FFB9" fill-opacity="1"/></g><g><path d="M19.33447265625,58.592091015625L38.66667265625,58.592091015625L38.66667265625,39.060791015625L19.33447265625,39.060791015625L19.33447265625,58.592091015625Z" fill="#01FFB9" fill-opacity="1"/></g><g><path d="M38.66598671875,9.7646484375L9.67138671875,9.7646484375L9.67138671875,39.0552484375L19.339306718750002,39.0552484375L19.339306718750002,19.5239184375L38.66598671875,19.5239184375L38.66598671875,9.7646484375ZM38.66598671875,58.5902484375L57.99998671875,58.5902484375L57.99998671875,39.060748437499996L38.66598671875,39.060748437499996L38.66598671875,58.5902484375Z" fill="#5B29DA" fill-opacity="1"/></g><g><path d="M9.66650390625,9.7646484375L9.66650390625,10.4181944375L19.33259390625,20.182948437500002L19.33259390625,19.531228437499998L19.979503906250002,19.531228437499998L10.31344690625,9.7646484375L9.66650390625,9.7646484375Z" fill="#01FFB9" fill-opacity="1"/></g><g><path d="M12.77392578125,9.7646484375L22.44001578125,19.531228437499998L23.73392578125,19.531228437499998L14.06599578125,9.7646484375L12.77392578125,9.7646484375Z" fill="#01FFB9" fill-opacity="1"/></g><g><path d="M16.52734375,9.7646484375L26.19524375,19.531228437499998L27.48734375,19.531228437499998L17.82123375,9.7646484375L16.52734375,9.7646484375Z" fill="#01FFB9" fill-opacity="1"/></g><g><path d="M20.28173828125,9.7646484375L29.94782828125,19.531228437499998L31.239938281249998,19.531228437499998L21.57380828125,9.7646484375L20.28173828125,9.7646484375Z" fill="#01FFB9" fill-opacity="1"/></g><g><path d="M24.03662109375,9.7646484375L33.70271109375,19.531228437499998L34.99482109375,19.531228437499998L25.32869109375,9.7646484375L24.03662109375,9.7646484375Z" fill="#01FFB9" fill-opacity="1"/></g><g><path d="M27.7890625,9.7646484375L37.4551525,19.531228437499998L38.665662499999996,19.531228437499998L38.665662499999996,19.4470184375L29.0811325,9.7646484375L27.7890625,9.7646484375Z" fill="#01FFB9" fill-opacity="1"/></g><g><path d="M31.54248046875,9.7646484375L38.66610046875,16.9609784375L38.66610046875,15.6557184375L32.83455046875,9.7646484375L31.54248046875,9.7646484375Z" fill="#01FFB9" fill-opacity="1"/></g><g><path d="M38.666173281249996,11.8625884375L36.58943328125,9.7646484375L35.29736328125,9.7646484375L38.666173281249996,13.1696784375L38.666173281249996,11.8625884375Z" fill="#01FFB9" fill-opacity="1"/></g><g><path d="M9.66650390625,36.962730703125L11.743243906250001,39.060670703125L13.03531390625,39.060670703125L9.66650390625,35.657470703125L9.66650390625,36.962730703125Z" fill="#01FFB9" fill-opacity="1"/></g><g><path d="M9.66650390625,33.17183609375L15.49623390625,39.06107609375L16.79012390625,39.06107609375L9.66650390625,31.86474609375L9.66650390625,33.17183609375Z" fill="#01FFB9" fill-opacity="1"/></g><g><path d="M9.66650390625,29.3785021875L19.25104390625,39.0608421875L19.33259390625,39.0608421875L19.33259390625,37.8379921875L9.66650390625,28.0732421875L9.66650390625,29.3785021875Z" fill="#01FFB9" fill-opacity="1"/></g><g><path d="M9.66650390625,25.5873634375L19.33259390625,35.352073437499996L19.33259390625,34.0450234375L9.66650390625,24.2802734375L9.66650390625,25.5873634375Z" fill="#01FFB9" fill-opacity="1"/></g><g><path d="M9.66650390625,21.79402953125L19.33259390625,31.55876953125L19.33259390625,30.25351953125L9.66650390625,20.48876953125L9.66650390625,21.79402953125Z" fill="#01FFB9" fill-opacity="1"/></g><g><path d="M9.66650390625,18.002525625L19.33259390625,27.767265625L19.33259390625,26.462015625L9.66650390625,16.697265625L9.66650390625,18.002525625Z" fill="#01FFB9" fill-opacity="1"/></g><g><path d="M9.66650390625,14.209556875L19.33259390625,23.976096875L19.33259390625,22.669046875L9.66650390625,12.904296875L9.66650390625,14.209556875Z" fill="#01FFB9" fill-opacity="1"/></g></g></svg>