<svg width="48" height="48" viewBox="0 0 48 48" fill="none" xmlns="http://www.w3.org/2000/svg">
<path d="M29.8885 37.1739L26.4805 36.2839V20.0199L30.1285 19.0959C32.1285 18.5879 33.8085 18.1739 33.8885 18.1899C33.9525 18.1899 34.0005 22.6599 34.0005 28.1339V38.0799L33.6485 38.0639C33.4405 38.0639 31.7445 37.6519 29.8885 37.1739Z" fill="#00C8D2"/>
<path d="M14 33.084C14 27.612 14.048 23.124 14.128 23.124C14.192 23.108 15.872 23.524 17.888 24.032L21.52 24.954L21.488 33.054L21.44 41.152L18.176 41.996C16.384 42.456 14.704 42.886 14.464 42.934L14 43.046V33.084Z" fill="#3C8CFF"/>
<path d="M38.4805 24.9539C38.4805 6.89394 38.4965 5.92394 38.7685 6.00394C38.9125 6.05194 40.3365 6.41793 41.9205 6.81593C43.5045 7.22993 45.0725 7.62593 45.4085 7.70593L46.0005 7.86594L45.9685 24.9859L45.9205 42.1219L42.6725 42.9499C40.8965 43.4099 39.2165 43.8239 38.9605 43.8899L38.4805 43.9999V24.9539Z" fill="#78E6DC"/>
<path fill-rule="evenodd" clip-rule="evenodd" d="M2 25.0181C2 15.6621 2.048 8.00806 2.128 8.00806C2.192 8.00806 3.872 8.42206 5.872 8.91606L9.52 9.83806V25.0021C9.52 33.3221 9.488 40.1501 9.456 40.1501C9.408 40.1501 7.712 40.5801 5.696 41.0901L2 42.0261V25.0181Z" fill="#325AB4"/>
</svg>
