<?xml version="1.0" encoding="UTF-8"?>
<svg version="1.1" xmlns="http://www.w3.org/2000/svg" width="480" height="480">
<path d="M0 0 C1.96166815 -0.00233999 1.96166815 -0.00233999 3.96296597 -0.00472724 C7.58214859 -0.00889413 11.20130479 -0.0068418 14.8204875 -0.00374103 C18.72783047 -0.0014764 22.63516892 -0.00497184 26.54251099 -0.00772095 C34.1927443 -0.01216623 41.8429678 -0.01120769 49.49320149 -0.00830831 C55.71103448 -0.00604941 61.92886472 -0.00574387 68.146698 -0.00683212 C69.03184411 -0.00698536 69.91699021 -0.00713859 70.82895893 -0.00729647 C72.62714807 -0.00761619 74.42533722 -0.00794041 76.22352636 -0.00826906 C93.08289298 -0.01112021 109.94225416 -0.00784253 126.80161989 -0.00246869 C141.26594267 0.00199902 155.73025744 0.00122298 170.19458008 -0.00338745 C186.99385873 -0.00873964 203.79313261 -0.01084555 220.59241199 -0.00777519 C222.38396517 -0.00745664 224.17551835 -0.00714227 225.96707153 -0.00683212 C226.84853692 -0.00667785 227.73000231 -0.00652357 228.63817877 -0.00636462 C234.8481323 -0.0055014 241.05808282 -0.00695815 247.26803589 -0.00931168 C254.83646134 -0.01211701 262.40487643 -0.01135588 269.9733007 -0.00603093 C273.83438039 -0.00340386 277.6954428 -0.00237206 281.55652237 -0.00568008 C285.74228646 -0.00921204 289.92800694 -0.00499301 294.11376953 0 C295.33370826 -0.00223072 296.55364698 -0.00446144 297.81055355 -0.00675976 C303.33234671 0.00604763 308.61986682 0.13281671 314.05688477 1.12698364 C314.05688477 2.11698364 314.05688477 3.10698364 314.05688477 4.12698364 C316.36688477 4.12698364 318.67688477 4.12698364 321.05688477 4.12698364 C321.05688477 4.78698364 321.05688477 5.44698364 321.05688477 6.12698364 C321.94375977 6.06510864 322.83063477 6.00323364 323.74438477 5.93948364 C327.42160845 6.14762838 329.15650931 6.90904947 332.05688477 9.12698364 C332.05688477 9.78698364 332.05688477 10.44698364 332.05688477 11.12698364 C333.04688477 11.12698364 334.03688477 11.12698364 335.05688477 11.12698364 C335.05688477 11.78698364 335.05688477 12.44698364 335.05688477 13.12698364 C336.70688477 13.12698364 338.35688477 13.12698364 340.05688477 13.12698364 C340.05688477 14.11698364 340.05688477 15.10698364 340.05688477 16.12698364 C341.04688477 16.12698364 342.03688477 16.12698364 343.05688477 16.12698364 C343.05688477 16.78698364 343.05688477 17.44698364 343.05688477 18.12698364 C344.37688477 18.12698364 345.69688477 18.12698364 347.05688477 18.12698364 C347.05688477 18.78698364 347.05688477 19.44698364 347.05688477 20.12698364 C348.04688477 20.45698364 349.03688477 20.78698364 350.05688477 21.12698364 C350.05688477 21.78698364 350.05688477 22.44698364 350.05688477 23.12698364 C350.71688477 23.12698364 351.37688477 23.12698364 352.05688477 23.12698364 C352.05688477 23.78698364 352.05688477 24.44698364 352.05688477 25.12698364 C353.04688477 25.12698364 354.03688477 25.12698364 355.05688477 25.12698364 C355.05688477 26.11698364 355.05688477 27.10698364 355.05688477 28.12698364 C355.71688477 28.12698364 356.37688477 28.12698364 357.05688477 28.12698364 C357.05688477 28.78698364 357.05688477 29.44698364 357.05688477 30.12698364 C357.71688477 30.12698364 358.37688477 30.12698364 359.05688477 30.12698364 C359.05688477 30.78698364 359.05688477 31.44698364 359.05688477 32.12698364 C360.04688477 32.12698364 361.03688477 32.12698364 362.05688477 32.12698364 C362.05688477 33.11698364 362.05688477 34.10698364 362.05688477 35.12698364 C362.71688477 35.12698364 363.37688477 35.12698364 364.05688477 35.12698364 C364.05688477 35.78698364 364.05688477 36.44698364 364.05688477 37.12698364 C365.04688477 37.45698364 366.03688477 37.78698364 367.05688477 38.12698364 C367.05688477 38.78698364 367.05688477 39.44698364 367.05688477 40.12698364 C367.71688477 40.12698364 368.37688477 40.12698364 369.05688477 40.12698364 C371.05688477 43.12698364 371.05688477 43.12698364 371.05688477 47.12698364 C372.04688477 47.12698364 373.03688477 47.12698364 374.05688477 47.12698364 C374.05688477 48.77698364 374.05688477 50.42698364 374.05688477 52.12698364 C374.71688477 52.12698364 375.37688477 52.12698364 376.05688477 52.12698364 C379.03423558 55.68176008 380.95553502 58.99186653 381.36938477 63.62698364 C381.26625977 64.45198364 381.16313477 65.27698364 381.05688477 66.12698364 C381.71688477 66.12698364 382.37688477 66.12698364 383.05688477 66.12698364 C383.05688477 67.77698364 383.05688477 69.42698364 383.05688477 71.12698364 C383.71688477 71.12698364 384.37688477 71.12698364 385.05688477 71.12698364 C387.06052638 78.61292664 387.33927792 85.57017876 387.31085205 93.29714966 C387.31397203 94.60522614 387.31709201 95.91330263 387.32030654 97.2610178 C387.32861973 100.87184707 387.32454517 104.48256998 387.3183341 108.09339952 C387.31379633 111.9952976 387.32079994 115.89717778 387.32629395 119.79907227 C387.33517546 127.4350066 387.33327147 135.07090156 387.32746866 142.70683742 C387.32294729 148.91411966 387.32234133 155.12139089 387.3245163 161.32867432 C387.32482276 162.212972 387.32512923 163.09726968 387.32544498 164.00836426 C387.32608445 165.80493888 387.32673288 167.60151349 387.32739016 169.3980881 C387.33308982 186.23463964 387.32654128 203.07116938 387.31578943 219.90771735 C387.30685425 234.34637692 387.3084064 248.78500434 387.31762695 263.22366333 C387.32833602 280.00100579 387.33254053 296.77832915 387.32640243 313.55567455 C387.32576534 315.34554736 387.3251366 317.13542016 387.3245163 318.92529297 C387.32420775 319.80588696 387.32389919 320.68648094 387.32358129 321.5937596 C387.32185626 327.79177946 387.32476532 333.98978719 387.3294754 340.18780518 C387.3350913 347.74369328 387.33355287 355.29953985 387.32291391 362.85542321 C387.31766676 366.70868099 387.31558415 370.56186957 387.32221222 374.4151268 C387.32929451 378.59575036 387.32082352 382.77619999 387.31085205 386.95681763 C387.31531349 388.16956643 387.31977494 389.38231524 387.32437158 390.631814 C387.2943628 397.11663707 386.73522625 402.8564168 385.05688477 409.12698364 C384.39688477 409.12698364 383.73688477 409.12698364 383.05688477 409.12698364 C383.05688477 410.77698364 383.05688477 412.42698364 383.05688477 414.12698364 C382.39688477 414.12698364 381.73688477 414.12698364 381.05688477 414.12698364 C381.16000977 414.95198364 381.26313477 415.77698364 381.36938477 416.62698364 C380.95553502 421.26210076 379.03423558 424.57220721 376.05688477 428.12698364 C375.39688477 428.12698364 374.73688477 428.12698364 374.05688477 428.12698364 C374.05688477 429.77698364 374.05688477 431.42698364 374.05688477 433.12698364 C373.06688477 433.12698364 372.07688477 433.12698364 371.05688477 433.12698364 C370.91250977 433.91073364 370.76813477 434.69448364 370.61938477 435.50198364 C370.05688477 438.12698364 370.05688477 438.12698364 369.05688477 440.12698364 C368.39688477 440.12698364 367.73688477 440.12698364 367.05688477 440.12698364 C366.72688477 441.11698364 366.39688477 442.10698364 366.05688477 443.12698364 C365.39688477 443.12698364 364.73688477 443.12698364 364.05688477 443.12698364 C364.05688477 443.78698364 364.05688477 444.44698364 364.05688477 445.12698364 C363.39688477 445.12698364 362.73688477 445.12698364 362.05688477 445.12698364 C362.05688477 446.11698364 362.05688477 447.10698364 362.05688477 448.12698364 C361.06688477 448.12698364 360.07688477 448.12698364 359.05688477 448.12698364 C359.05688477 448.78698364 359.05688477 449.44698364 359.05688477 450.12698364 C358.39688477 450.12698364 357.73688477 450.12698364 357.05688477 450.12698364 C357.05688477 450.78698364 357.05688477 451.44698364 357.05688477 452.12698364 C356.39688477 452.12698364 355.73688477 452.12698364 355.05688477 452.12698364 C355.05688477 453.11698364 355.05688477 454.10698364 355.05688477 455.12698364 C354.06688477 455.12698364 353.07688477 455.12698364 352.05688477 455.12698364 C352.05688477 455.78698364 352.05688477 456.44698364 352.05688477 457.12698364 C351.39688477 457.12698364 350.73688477 457.12698364 350.05688477 457.12698364 C349.72688477 458.11698364 349.39688477 459.10698364 349.05688477 460.12698364 C348.39688477 460.12698364 347.73688477 460.12698364 347.05688477 460.12698364 C347.05688477 460.78698364 347.05688477 461.44698364 347.05688477 462.12698364 C345.73688477 462.12698364 344.41688477 462.12698364 343.05688477 462.12698364 C343.05688477 462.78698364 343.05688477 463.44698364 343.05688477 464.12698364 C342.06688477 464.12698364 341.07688477 464.12698364 340.05688477 464.12698364 C340.05688477 465.11698364 340.05688477 466.10698364 340.05688477 467.12698364 C338.40688477 467.12698364 336.75688477 467.12698364 335.05688477 467.12698364 C335.05688477 467.78698364 335.05688477 468.44698364 335.05688477 469.12698364 C334.06688477 469.12698364 333.07688477 469.12698364 332.05688477 469.12698364 C332.05688477 469.78698364 332.05688477 470.44698364 332.05688477 471.12698364 C328.33714597 473.97148978 325.68297675 474.44973425 321.05688477 474.12698364 C321.05688477 474.78698364 321.05688477 475.44698364 321.05688477 476.12698364 C318.74688477 476.12698364 316.43688477 476.12698364 314.05688477 476.12698364 C314.05688477 477.11698364 314.05688477 478.10698364 314.05688477 479.12698364 C307.41502349 480.341458 300.85046048 480.26628568 294.11376953 480.25396729 C292.15210138 480.25630727 292.15210138 480.25630727 290.15080357 480.25869453 C286.53162094 480.26286142 282.91246474 480.26080909 279.29328203 480.25770831 C275.38593907 480.25544368 271.47860061 480.25893913 267.57125854 480.26168823 C259.92102523 480.26613351 252.27080173 480.26517497 244.62056804 480.26227559 C238.40273505 480.26001669 232.18490481 480.25971115 225.96707153 480.26079941 C224.63935237 480.26102926 224.63935237 480.26102926 223.2848106 480.26126375 C221.48662146 480.26158348 219.68843232 480.26190769 217.89024317 480.26223634 C201.03087655 480.2650875 184.17151537 480.26180982 167.31214964 480.25643598 C152.84782686 480.25196827 138.3835121 480.2527443 123.91918945 480.25735474 C107.1199108 480.26270692 90.32063692 480.26481284 73.52135754 480.26174247 C71.72980436 480.26142393 69.93825118 480.26110955 68.146698 480.26079941 C67.26523261 480.26064513 66.38376722 480.26049086 65.47559077 480.26033191 C59.26563723 480.25946869 53.05568671 480.26092544 46.84573364 480.26327896 C39.27730819 480.2660843 31.7088931 480.26532317 24.14046884 480.25999822 C20.27938914 480.25737114 16.41832673 480.25633934 12.55724716 480.25964737 C8.37148307 480.26317932 4.18576259 480.25896029 0 480.25396729 C-1.21993873 480.25619801 -2.43987745 480.25842873 -3.69678402 480.26072705 C-9.21857718 480.24791966 -14.50609729 480.12115058 -19.94311523 479.12698364 C-19.94311523 478.13698364 -19.94311523 477.14698364 -19.94311523 476.12698364 C-22.25311523 476.12698364 -24.56311523 476.12698364 -26.94311523 476.12698364 C-26.94311523 475.46698364 -26.94311523 474.80698364 -26.94311523 474.12698364 C-28.27342773 474.21979614 -28.27342773 474.21979614 -29.63061523 474.31448364 C-33.30783892 474.10633891 -35.04273978 473.34491781 -37.94311523 471.12698364 C-37.94311523 470.46698364 -37.94311523 469.80698364 -37.94311523 469.12698364 C-38.93311523 469.12698364 -39.92311523 469.12698364 -40.94311523 469.12698364 C-40.94311523 468.46698364 -40.94311523 467.80698364 -40.94311523 467.12698364 C-42.59311523 467.12698364 -44.24311523 467.12698364 -45.94311523 467.12698364 C-45.94311523 466.13698364 -45.94311523 465.14698364 -45.94311523 464.12698364 C-46.93311523 464.12698364 -47.92311523 464.12698364 -48.94311523 464.12698364 C-48.94311523 463.46698364 -48.94311523 462.80698364 -48.94311523 462.12698364 C-50.26311523 462.12698364 -51.58311523 462.12698364 -52.94311523 462.12698364 C-52.94311523 461.46698364 -52.94311523 460.80698364 -52.94311523 460.12698364 C-53.93311523 459.79698364 -54.92311523 459.46698364 -55.94311523 459.12698364 C-55.94311523 458.46698364 -55.94311523 457.80698364 -55.94311523 457.12698364 C-56.60311523 457.12698364 -57.26311523 457.12698364 -57.94311523 457.12698364 C-57.94311523 456.46698364 -57.94311523 455.80698364 -57.94311523 455.12698364 C-58.93311523 455.12698364 -59.92311523 455.12698364 -60.94311523 455.12698364 C-60.94311523 454.13698364 -60.94311523 453.14698364 -60.94311523 452.12698364 C-61.60311523 452.12698364 -62.26311523 452.12698364 -62.94311523 452.12698364 C-62.94311523 451.46698364 -62.94311523 450.80698364 -62.94311523 450.12698364 C-63.60311523 450.12698364 -64.26311523 450.12698364 -64.94311523 450.12698364 C-64.94311523 449.46698364 -64.94311523 448.80698364 -64.94311523 448.12698364 C-65.93311523 448.12698364 -66.92311523 448.12698364 -67.94311523 448.12698364 C-67.94311523 447.13698364 -67.94311523 446.14698364 -67.94311523 445.12698364 C-68.60311523 445.12698364 -69.26311523 445.12698364 -69.94311523 445.12698364 C-69.94311523 444.46698364 -69.94311523 443.80698364 -69.94311523 443.12698364 C-70.93311523 442.79698364 -71.92311523 442.46698364 -72.94311523 442.12698364 C-72.94311523 441.46698364 -72.94311523 440.80698364 -72.94311523 440.12698364 C-73.60311523 440.12698364 -74.26311523 440.12698364 -74.94311523 440.12698364 C-76.94311523 437.12698364 -76.94311523 437.12698364 -76.94311523 433.12698364 C-77.93311523 433.12698364 -78.92311523 433.12698364 -79.94311523 433.12698364 C-79.94311523 431.47698364 -79.94311523 429.82698364 -79.94311523 428.12698364 C-80.60311523 428.12698364 -81.26311523 428.12698364 -81.94311523 428.12698364 C-84.92046605 424.57220721 -86.84176549 421.26210076 -87.25561523 416.62698364 C-87.15249023 415.80198364 -87.04936523 414.97698364 -86.94311523 414.12698364 C-87.60311523 414.12698364 -88.26311523 414.12698364 -88.94311523 414.12698364 C-88.94311523 412.47698364 -88.94311523 410.82698364 -88.94311523 409.12698364 C-89.60311523 409.12698364 -90.26311523 409.12698364 -90.94311523 409.12698364 C-92.94675685 401.64104065 -93.22550839 394.68378852 -93.19708252 386.95681763 C-93.2002025 385.64874114 -93.20332248 384.34066465 -93.20653701 382.99294949 C-93.21485019 379.38212022 -93.21077564 375.7713973 -93.20456457 372.16056776 C-93.20002679 368.25866969 -93.20703041 364.3567895 -93.21252441 360.45489502 C-93.22140592 352.81896069 -93.21950194 345.18306573 -93.21369913 337.54712987 C-93.20917776 331.33984762 -93.2085718 325.13257639 -93.21074677 318.92529297 C-93.21105323 318.04099529 -93.2113597 317.15669761 -93.21167545 316.24560302 C-93.21231492 314.44902841 -93.21296334 312.6524538 -93.21362063 310.85587919 C-93.21932029 294.01932765 -93.21277175 277.1827979 -93.2020199 260.34624994 C-93.19308472 245.90759036 -93.19463687 231.46896295 -93.20385742 217.03030396 C-93.21456649 200.2529615 -93.218771 183.47563813 -93.21263289 166.69829273 C-93.21199581 164.90841993 -93.21136707 163.11854712 -93.21074677 161.32867432 C-93.21043821 160.44808033 -93.21012966 159.56748634 -93.20981176 158.66020769 C-93.20808673 152.46218782 -93.21099579 146.26418009 -93.21570587 140.06616211 C-93.22132177 132.510274 -93.21978334 124.95442744 -93.20914438 117.39854407 C-93.20389722 113.54528629 -93.20181462 109.69209771 -93.20844269 105.83884048 C-93.21552498 101.65821693 -93.20705399 97.4777673 -93.19708252 93.29714966 C-93.20377468 91.47802645 -93.20377468 91.47802645 -93.21060205 89.62215328 C-93.18059327 83.13733022 -92.62145672 77.39755049 -90.94311523 71.12698364 C-90.28311523 71.12698364 -89.62311523 71.12698364 -88.94311523 71.12698364 C-88.94311523 69.47698364 -88.94311523 67.82698364 -88.94311523 66.12698364 C-88.28311523 66.12698364 -87.62311523 66.12698364 -86.94311523 66.12698364 C-87.04624023 65.30198364 -87.14936523 64.47698364 -87.25561523 63.62698364 C-86.84176549 58.99186653 -84.92046605 55.68176008 -81.94311523 52.12698364 C-81.28311523 52.12698364 -80.62311523 52.12698364 -79.94311523 52.12698364 C-79.94311523 50.47698364 -79.94311523 48.82698364 -79.94311523 47.12698364 C-78.95311523 47.12698364 -77.96311523 47.12698364 -76.94311523 47.12698364 C-76.72655273 45.95135864 -76.72655273 45.95135864 -76.50561523 44.75198364 C-75.94311523 42.12698364 -75.94311523 42.12698364 -74.94311523 40.12698364 C-74.28311523 40.12698364 -73.62311523 40.12698364 -72.94311523 40.12698364 C-72.61311523 39.13698364 -72.28311523 38.14698364 -71.94311523 37.12698364 C-71.28311523 37.12698364 -70.62311523 37.12698364 -69.94311523 37.12698364 C-69.94311523 36.46698364 -69.94311523 35.80698364 -69.94311523 35.12698364 C-69.28311523 35.12698364 -68.62311523 35.12698364 -67.94311523 35.12698364 C-67.94311523 34.13698364 -67.94311523 33.14698364 -67.94311523 32.12698364 C-66.95311523 32.12698364 -65.96311523 32.12698364 -64.94311523 32.12698364 C-64.94311523 31.46698364 -64.94311523 30.80698364 -64.94311523 30.12698364 C-64.28311523 30.12698364 -63.62311523 30.12698364 -62.94311523 30.12698364 C-62.94311523 29.46698364 -62.94311523 28.80698364 -62.94311523 28.12698364 C-62.28311523 28.12698364 -61.62311523 28.12698364 -60.94311523 28.12698364 C-60.94311523 27.13698364 -60.94311523 26.14698364 -60.94311523 25.12698364 C-59.95311523 25.12698364 -58.96311523 25.12698364 -57.94311523 25.12698364 C-57.94311523 24.46698364 -57.94311523 23.80698364 -57.94311523 23.12698364 C-57.28311523 23.12698364 -56.62311523 23.12698364 -55.94311523 23.12698364 C-55.44811523 21.64198364 -55.44811523 21.64198364 -54.94311523 20.12698364 C-54.28311523 20.12698364 -53.62311523 20.12698364 -52.94311523 20.12698364 C-52.94311523 19.46698364 -52.94311523 18.80698364 -52.94311523 18.12698364 C-51.62311523 18.12698364 -50.30311523 18.12698364 -48.94311523 18.12698364 C-48.94311523 17.46698364 -48.94311523 16.80698364 -48.94311523 16.12698364 C-47.95311523 16.12698364 -46.96311523 16.12698364 -45.94311523 16.12698364 C-45.94311523 15.13698364 -45.94311523 14.14698364 -45.94311523 13.12698364 C-44.29311523 13.12698364 -42.64311523 13.12698364 -40.94311523 13.12698364 C-40.94311523 12.46698364 -40.94311523 11.80698364 -40.94311523 11.12698364 C-39.95311523 11.12698364 -38.96311523 11.12698364 -37.94311523 11.12698364 C-37.94311523 10.46698364 -37.94311523 9.80698364 -37.94311523 9.12698364 C-34.22337644 6.28247751 -31.56920722 5.80423304 -26.94311523 6.12698364 C-26.94311523 5.46698364 -26.94311523 4.80698364 -26.94311523 4.12698364 C-24.63311523 4.12698364 -22.32311523 4.12698364 -19.94311523 4.12698364 C-19.94311523 3.13698364 -19.94311523 2.14698364 -19.94311523 1.12698364 C-13.30125395 -0.08749072 -6.73669095 -0.01231839 0 0 Z " fill="#EF4319" transform="translate(92.943115234375,-0.126983642578125)"/>
<path d="M0 0 C0.79799664 -0.00311998 1.59599329 -0.00623996 2.41817164 -0.00945449 C5.07872312 -0.01739843 7.73904419 -0.01112424 10.39959717 -0.00482178 C12.3142612 -0.00753384 14.22892419 -0.01109599 16.14358521 -0.01544189 C21.34372801 -0.0245597 26.5437914 -0.02101955 31.74393559 -0.01468372 C37.22085335 -0.00960016 42.69776457 -0.0143236 48.17468262 -0.01745605 C57.40168464 -0.02109745 66.62865469 -0.01630103 75.85565186 -0.0067749 C86.43141327 0.00401967 97.00709701 0.00065103 107.58285642 -0.01042771 C116.71723367 -0.01960468 125.85158796 -0.02073317 134.98596835 -0.01555037 C140.41571994 -0.01247536 145.84543554 -0.01189298 151.27518463 -0.01862335 C171.46501674 -0.04003056 191.6294497 0.02827693 211.79608154 1.08306885 C212.525129 1.11762287 213.25417645 1.15217689 214.00531626 1.187778 C224.65609653 1.71153534 231.93464101 2.77136703 239.80096436 10.25396729 C239.80096436 10.91396729 239.80096436 11.57396729 239.80096436 12.25396729 C240.79096436 12.25396729 241.78096436 12.25396729 242.80096436 12.25396729 C242.91794694 15.46198962 242.98847042 18.66945753 243.05096436 21.87896729 C243.08447998 22.7826001 243.11799561 23.68623291 243.15252686 24.61724854 C243.23782317 30.46004605 242.56557381 33.5410211 238.80096436 38.25396729 C238.11156627 40.58068583 237.44629513 42.91464322 236.80096436 45.25396729 C234.50578487 50.94691248 231.36245388 56.08346257 226.80096436 60.25396729 C226.14096436 60.25396729 225.48096436 60.25396729 224.80096436 60.25396729 C224.80096436 60.91396729 224.80096436 61.57396729 224.80096436 62.25396729 C224.14096436 62.25396729 223.48096436 62.25396729 222.80096436 62.25396729 C222.75971436 62.81084229 222.71846436 63.36771729 222.67596436 63.94146729 C221.57628436 66.84776441 219.76606519 67.96601772 217.35955811 69.82427979 C214.75069914 72.21736846 213.44582825 75.14047492 211.80096436 78.25396729 C211.14096436 78.91396729 210.48096436 79.57396729 209.80096436 80.25396729 C209.05206998 81.97968041 208.30492723 83.70625744 207.57830811 85.44146729 C206.51290513 87.92562296 205.41672864 90.07889998 203.80096436 92.25396729 C202.95533936 92.58396729 202.10971436 92.91396729 201.23846436 93.25396729 C198.54480308 94.04687227 198.54480308 94.04687227 197.48846436 96.87896729 C197.14815186 98.05459229 197.14815186 98.05459229 196.80096436 99.25396729 C196.14096436 99.25396729 195.48096436 99.25396729 194.80096436 99.25396729 C194.47096436 100.24396729 194.14096436 101.23396729 193.80096436 102.25396729 C193.14096436 102.25396729 192.48096436 102.25396729 191.80096436 102.25396729 C191.80096436 102.91396729 191.80096436 103.57396729 191.80096436 104.25396729 C190.89346436 104.62521729 189.98596436 104.99646729 189.05096436 105.37896729 C184.58463678 107.95569473 182.89144897 111.29144669 180.43841553 115.70611572 C178.77117551 118.30031833 177.07175385 120.08413025 174.78924561 122.14459229 C174.03192139 122.85486572 173.27459717 123.56513916 172.49432373 124.29693604 C170.90850751 125.76697076 169.30944235 127.22284226 167.69744873 128.66412354 C163.46532919 132.56357881 163.46532919 132.56357881 161.21258545 137.70343018 C161.11690743 141.81633699 161.43979721 143.72350304 163.80096436 147.19146729 C164.46096436 147.87209229 165.12096436 148.55271729 165.80096436 149.25396729 C165.80096436 149.91396729 165.80096436 150.57396729 165.80096436 151.25396729 C166.44033936 151.52209229 167.07971436 151.79021729 167.73846436 152.06646729 C169.80096436 153.25396729 169.80096436 153.25396729 170.80096436 156.25396729 C171.46096436 156.25396729 172.12096436 156.25396729 172.80096436 156.25396729 C172.80096436 156.91396729 172.80096436 157.57396729 172.80096436 158.25396729 C173.79096436 158.58396729 174.78096436 158.91396729 175.80096436 159.25396729 C175.80096436 159.91396729 175.80096436 160.57396729 175.80096436 161.25396729 C176.46096436 161.25396729 177.12096436 161.25396729 177.80096436 161.25396729 C178.814481 162.91244906 179.81217231 164.58062689 180.80096436 166.25396729 C181.52283936 166.97584229 182.24471436 167.69771729 182.98846436 168.44146729 C183.58658936 169.03959229 184.18471436 169.63771729 184.80096436 170.25396729 C184.80096436 170.91396729 184.80096436 171.57396729 184.80096436 172.25396729 C185.79096436 172.58396729 186.78096436 172.91396729 187.80096436 173.25396729 C187.80096436 173.91396729 187.80096436 174.57396729 187.80096436 175.25396729 C188.46096436 175.25396729 189.12096436 175.25396729 189.80096436 175.25396729 C190.37846436 176.40896729 190.95596436 177.56396729 191.55096436 178.75396729 C191.91963623 179.48099854 192.28830811 180.20802979 192.66815186 180.95709229 C193.39479325 182.43042036 194.09066602 183.91956284 194.74627686 185.42584229 C196.39005732 189.10017508 197.25616773 190.90622476 200.73846436 193.12896729 C205.13576721 196.18015702 206.93551596 200.30970363 208.80096436 205.25396729 C208.80096436 206.24396729 208.80096436 207.23396729 208.80096436 208.25396729 C209.79096436 208.58396729 210.78096436 208.91396729 211.80096436 209.25396729 C213.11737061 212.16021729 213.11737061 212.16021729 214.36346436 215.75396729 C215.57588541 220.33695114 215.57588541 220.33695114 218.80096436 223.25396729 C219.66120882 225.24657436 220.43990496 227.27472292 221.17596436 229.31646729 C222.64683411 233.29261667 224.14174175 237.12497585 226.11346436 240.87896729 C227.80096436 244.25396729 227.80096436 244.25396729 227.80096436 247.25396729 C228.46096436 247.25396729 229.12096436 247.25396729 229.80096436 247.25396729 C233.33920276 252.33057021 236.37464122 257.94352178 235.80096436 264.25396729 C236.46096436 264.25396729 237.12096436 264.25396729 237.80096436 264.25396729 C239.40878071 274.37459701 240.06251996 284.00970617 239.80096436 294.25396729 C238.81096436 294.58396729 237.82096436 294.91396729 236.80096436 295.25396729 C236.51221436 296.18209229 236.22346436 297.11021729 235.92596436 298.06646729 C234.58465697 301.86683822 233.12369141 303.06582995 229.80096436 305.25396729 C228.81096436 305.58396729 227.82096436 305.91396729 226.80096436 306.25396729 C226.47096436 306.91396729 226.14096436 307.57396729 225.80096436 308.25396729 C214.93515158 308.34665828 204.0694329 308.41772782 193.20330524 308.46121597 C188.15767258 308.48208844 183.11231046 308.51040002 178.0668335 308.5557251 C173.19740834 308.59919477 168.32824336 308.62310695 163.45863914 308.63347626 C161.60107515 308.6408656 159.74352535 308.65529531 157.88607216 308.67688751 C155.28357832 308.70593663 152.68215876 308.7099227 150.07952881 308.70806885 C149.31204315 308.72244995 148.5445575 308.73683105 147.7538147 308.75164795 C144.04722287 308.72308923 141.97591763 308.36536181 138.81846619 306.35498047 C136.80096436 304.25396729 136.80096436 304.25396729 136.24237061 302.18365479 C136.57874213 296.47618951 136.57874213 296.47618951 138.80096436 294.25396729 C140.12096436 294.25396729 141.44096436 294.25396729 142.80096436 294.25396729 C142.80096436 293.59396729 142.80096436 292.93396729 142.80096436 292.25396729 C143.79096436 291.92396729 144.78096436 291.59396729 145.80096436 291.25396729 C146.13096436 290.59396729 146.46096436 289.93396729 146.80096436 289.25396729 C150.83470891 287.11845546 154.29424256 287.0772331 158.80096436 287.25396729 C158.80096436 286.26396729 158.80096436 285.27396729 158.80096436 284.25396729 C163.21893143 282.74784215 167.00121326 282.16537173 171.67596436 282.00396729 C177.28350656 281.63810506 180.5579104 280.04002026 184.96112061 276.62896729 C186.80096436 275.25396729 186.80096436 275.25396729 189.80096436 274.25396729 C189.77611189 262.37448641 189.06336507 253.65254248 182.80096436 243.25396729 C181.70994072 240.69440317 180.75172747 238.11856585 179.80096436 235.50396729 C179.01665074 233.09693246 179.01665074 233.09693246 176.80096436 232.25396729 C175.78248949 230.26331188 174.78578458 228.26148544 173.80096436 226.25396729 C173.14096436 225.26396729 172.48096436 224.27396729 171.80096436 223.25396729 C169.80096436 220.25396729 169.80096436 220.25396729 168.42596436 217.37896729 C166.64298195 213.95015497 164.50018593 211.10597061 162.10565186 208.08599854 C160.80096436 206.25396729 160.80096436 206.25396729 159.80096436 203.25396729 C159.14096436 203.25396729 158.48096436 203.25396729 157.80096436 203.25396729 C156.7666088 201.60840162 155.77332922 199.93690648 154.80096436 198.25396729 C154.07908936 197.36709229 153.35721436 196.48021729 152.61346436 195.56646729 C150.80096436 193.25396729 150.80096436 193.25396729 150.80096436 191.25396729 C149.81096436 191.25396729 148.82096436 191.25396729 147.80096436 191.25396729 C146.7545237 189.61606017 145.76114605 187.94388707 144.80096436 186.25396729 C142.41856087 183.57376336 141.23483613 182.39859121 137.80096436 181.25396729 C136.40643311 179.73052979 136.40643311 179.73052979 134.98846436 177.87896729 C132.29998369 174.5975385 129.78268447 172.8656159 125.80096436 171.25396729 C125.80096436 170.59396729 125.80096436 169.93396729 125.80096436 169.25396729 C124.71815186 169.09927979 124.71815186 169.09927979 123.61346436 168.94146729 C120.80096436 168.25396729 120.80096436 168.25396729 118.51971436 166.73443604 C113.16258594 163.8172641 106.3987635 164.5677891 100.52752686 165.68756104 C93.41886419 168.02326448 87.02588397 173.01381467 81.80096436 178.25396729 C81.09971436 178.58396729 80.39846436 178.91396729 79.67596436 179.25396729 C77.44792086 180.16599706 77.44792086 180.16599706 76.80096436 183.25396729 C76.14096436 183.25396729 75.48096436 183.25396729 74.80096436 183.25396729 C74.47096436 184.24396729 74.14096436 185.23396729 73.80096436 186.25396729 C72.15762932 187.2918631 70.48852569 188.28964652 68.80096436 189.25396729 C65.98084357 191.51006392 64.62583985 194.35256601 62.90643311 197.48834229 C61.25762832 200.121769 59.01776369 202.09400896 56.80096436 204.25396729 C55.79116352 205.91471412 54.79231173 207.58213949 53.80096436 209.25396729 C52.5664203 210.95280725 51.31543319 212.63978162 50.05096436 214.31646729 C45.84080609 220.05899934 42.24599892 226.02842259 38.80096436 232.25396729 C38.16287842 233.35224854 38.16287842 233.35224854 37.51190186 234.47271729 C35.6157718 237.91030558 34.65101829 240.57255632 34.42596436 244.50396729 C34.15615355 248.72614179 32.74099061 251.60549206 30.73846436 255.31646729 C27.48224276 261.43162028 27.24272071 264.89966688 28.11346436 271.69146729 C28.45377686 272.46490479 28.45377686 272.46490479 28.80096436 273.25396729 C29.79096436 273.58396729 30.78096436 273.91396729 31.80096436 274.25396729 C31.80096436 275.24396729 31.80096436 276.23396729 31.80096436 277.25396729 C38.78516706 279.19199212 45.47400559 280.60771225 52.71893311 281.04302979 C54.80096436 281.25396729 54.80096436 281.25396729 55.80096436 282.25396729 C56.81158936 282.35709229 57.82221436 282.46021729 58.86346436 282.56646729 C63.41416452 283.36103398 66.80571078 285.02285165 70.80096436 287.25396729 C70.80096436 287.91396729 70.80096436 288.57396729 70.80096436 289.25396729 C71.91471436 289.59427979 71.91471436 289.59427979 73.05096436 289.94146729 C76.54201872 291.60765232 77.9200283 292.85381366 79.80096436 296.25396729 C79.83196517 299.33338193 79.40517828 302.2394652 78.80096436 305.25396729 C78.14096436 305.25396729 77.48096436 305.25396729 76.80096436 305.25396729 C76.80096436 306.24396729 76.80096436 307.23396729 76.80096436 308.25396729 C65.98705707 308.3932306 55.17336449 308.49972182 44.35874176 308.56484032 C39.33655534 308.59610052 34.3149842 308.63847599 29.29315186 308.706604 C24.44313037 308.77198643 19.5936992 308.80771325 14.74327087 308.82323074 C12.89650687 308.83428329 11.04977375 308.85586694 9.20326233 308.88834763 C-7.08636218 309.16338809 -7.08636218 309.16338809 -12.25177002 305.32159424 C-13.26427098 304.32882672 -14.2532269 303.31046686 -15.19903564 302.25396729 C-16.34372314 301.42832275 -16.34372314 301.42832275 -17.51153564 300.58599854 C-20.97978735 297.46296633 -22.33501902 294.59957336 -22.80841064 290.00787354 C-23.32368104 279.70456887 -21.81429945 270.52645184 -17.19903564 261.25396729 C-16.53903564 260.59396729 -15.87903564 259.93396729 -15.19903564 259.25396729 C-14.74091889 257.28161396 -14.74091889 257.28161396 -14.57403564 255.12896729 C-14.45028564 253.85021729 -14.32653564 252.57146729 -14.19903564 251.25396729 C-13.53903564 251.25396729 -12.87903564 251.25396729 -12.19903564 251.25396729 C-12.08044189 250.73060791 -11.96184814 250.20724854 -11.83966064 249.66802979 C-9.60787604 241.25801221 -6.36764858 233.17212864 -2.31231689 225.48834229 C-1.26754435 223.39146546 -0.49730964 221.3491976 0.23846436 219.12896729 C1.61385047 215.24506446 3.79524968 212.38374599 6.33612061 209.17193604 C7.99504603 206.99984969 9.29986461 204.69453699 10.60565186 202.29693604 C12.21320543 199.54938531 14.01104492 196.94850749 15.80096436 194.31646729 C18.87772007 189.75299566 21.49645812 185.24706412 23.80096436 180.25396729 C24.46096436 180.25396729 25.12096436 180.25396729 25.80096436 180.25396729 C25.80096436 179.59396729 25.80096436 178.93396729 25.80096436 178.25396729 C26.46096436 178.25396729 27.12096436 178.25396729 27.80096436 178.25396729 C27.86283936 177.69709229 27.92471436 177.14021729 27.98846436 176.56646729 C29.13457077 173.30447211 31.34135175 171.6563796 33.80096436 169.25396729 C34.52283936 168.16084229 35.24471436 167.06771729 35.98846436 165.94146729 C36.88565186 164.61115479 36.88565186 164.61115479 37.80096436 163.25396729 C38.46096436 163.25396729 39.12096436 163.25396729 39.80096436 163.25396729 C40.06908936 162.67131104 40.33721436 162.08865479 40.61346436 161.48834229 C41.81577426 159.22610128 43.13922348 157.44820411 44.80096436 155.50396729 C45.31658936 154.89037354 45.83221436 154.27677979 46.36346436 153.64459229 C47.80096436 152.25396729 47.80096436 152.25396729 49.80096436 152.25396729 C50.04846436 151.67646729 50.29596436 151.09896729 50.55096436 150.50396729 C51.80096436 148.25396729 51.80096436 148.25396729 53.92596436 146.44146729 C56.10065952 144.29722439 56.10065952 144.29722439 56.30096436 140.87896729 C55.36305543 134.07912754 50.52674806 129.68660709 45.82830811 125.05084229 C45.26398575 124.48697815 44.69966339 123.92311401 44.11824036 123.34216309 C42.93306601 122.15999162 41.74548054 120.98023292 40.55560303 119.80279541 C38.73507516 118.00061224 36.92276512 116.19046623 35.11151123 114.37896729 C33.95508233 113.22745127 32.79819708 112.07639333 31.64080811 110.92584229 C31.10012192 110.38626892 30.55943573 109.84669556 30.00236511 109.29077148 C27.69058713 107.00806078 25.51415028 105.0627579 22.80096436 103.25396729 C21.61346436 100.12896729 21.61346436 100.12896729 20.80096436 97.25396729 C20.14096436 97.25396729 19.48096436 97.25396729 18.80096436 97.25396729 C17.21562733 95.54063975 15.70555221 93.75707681 14.23846436 91.94146729 C13.02996826 90.46226807 13.02996826 90.46226807 11.79705811 88.95318604 C9.80096436 86.25396729 9.80096436 86.25396729 8.80096436 83.25396729 C8.20283936 82.98584229 7.60471436 82.71771729 6.98846436 82.44146729 C4.50575885 81.09371287 3.53938038 79.60891738 2.07830811 77.23834229 C-0.25764423 73.60940104 -2.91343757 70.20106822 -5.49200439 66.74224854 C-7.19903564 64.25396729 -7.19903564 64.25396729 -8.19903564 61.25396729 C-8.85903564 61.25396729 -9.51903564 61.25396729 -10.19903564 61.25396729 C-13.19903564 56.8693519 -13.19903564 56.8693519 -13.19903564 54.25396729 C-13.85903564 54.25396729 -14.51903564 54.25396729 -15.19903564 54.25396729 C-17.16701138 50.7397249 -18.13131836 47.12444246 -19.19903564 43.25396729 C-19.85476356 41.25035421 -20.51778859 39.24904796 -21.19903564 37.25396729 C-21.85903564 37.25396729 -22.51903564 37.25396729 -23.19903564 37.25396729 C-23.52903564 35.60396729 -23.85903564 33.95396729 -24.19903564 32.25396729 C-25.18903564 31.92396729 -26.17903564 31.59396729 -27.19903564 31.25396729 C-27.19903564 25.64396729 -27.19903564 20.03396729 -27.19903564 14.25396729 C-26.53903564 14.25396729 -25.87903564 14.25396729 -25.19903564 14.25396729 C-25.07528564 13.65584229 -24.95153564 13.05771729 -24.82403564 12.44146729 C-24.19903564 10.25396729 -24.19903564 10.25396729 -22.19903564 7.25396729 C-21.53903564 7.25396729 -20.87903564 7.25396729 -20.19903564 7.25396729 C-20.19903564 6.59396729 -20.19903564 5.93396729 -20.19903564 5.25396729 C-14.06976259 0.79631415 -7.39245422 -0.04493782 0 0 Z " fill="#FEFDFD" transform="translate(132.19903564453125,85.74603271484375)"/>
<path d="M0 0 C0.6606395 -0.00335861 1.32127899 -0.00671722 2.00193787 -0.01017761 C4.20907438 -0.01974668 6.41613497 -0.02163628 8.62329102 -0.02270508 C10.17383352 -0.02592287 11.72437572 -0.02928733 13.2749176 -0.03279114 C16.54949643 -0.03880354 19.82404885 -0.04062981 23.09863281 -0.04003906 C26.40630706 -0.03995897 29.71383939 -0.0467025 33.02148438 -0.06054688 C95.38845311 -0.31801812 95.38845311 -0.31801812 112.68969727 7.14526367 C113.17706202 13.84652903 111.7667853 18.2108796 108.68969727 24.14526367 C108.02969727 24.14526367 107.36969727 24.14526367 106.68969727 24.14526367 C106.35969727 25.13526367 106.02969727 26.12526367 105.68969727 27.14526367 C105.02969727 27.14526367 104.36969727 27.14526367 103.68969727 27.14526367 C103.68969727 28.13526367 103.68969727 29.12526367 103.68969727 30.14526367 C101.59594727 32.42651367 101.59594727 32.42651367 98.68969727 35.14526367 C97.63363133 36.19334926 96.58169791 37.24561156 95.53344727 38.30151367 C88.84594727 44.98901367 88.84594727 44.98901367 87.21826172 46.61523438 C85.8549765 47.97982605 84.4966029 49.34932062 83.13891602 50.71948242 C80.47628624 53.35663248 77.75893225 55.91916051 75.00219727 58.45776367 C74.04958008 59.34077148 73.09696289 60.2237793 72.11547852 61.13354492 C69.68969727 63.14526367 69.68969727 63.14526367 67.68969727 63.14526367 C67.68969727 63.80526367 67.68969727 64.46526367 67.68969727 65.14526367 C67.14442383 65.42499023 66.59915039 65.7047168 66.03735352 65.99291992 C60.8394032 68.75627471 56.28113921 71.85794069 51.73266602 75.59448242 C45.03460714 80.67885981 36.92763238 82.07467174 28.68969727 81.14526367 C26.00219727 79.83276367 26.00219727 79.83276367 23.68969727 78.14526367 C22.51407227 77.67088867 21.33844727 77.19651367 20.12719727 76.70776367 C16.81037469 75.20011705 14.95740375 73.95721972 12.68969727 71.14526367 C12.68969727 70.48526367 12.68969727 69.82526367 12.68969727 69.14526367 C12.11735352 69.01249023 11.54500977 68.8797168 10.95532227 68.74291992 C8.71318852 68.1514605 6.60390108 67.41237513 4.43969727 66.58276367 C3.73329102 66.31334961 3.02688477 66.04393555 2.29907227 65.76635742 C1.76797852 65.56139648 1.23688477 65.35643555 0.68969727 65.14526367 C0.68969727 64.48526367 0.68969727 63.82526367 0.68969727 63.14526367 C0.05032227 62.85651367 -0.58905273 62.56776367 -1.24780273 62.27026367 C-3.31030273 61.14526367 -3.31030273 61.14526367 -4.31030273 59.14526367 C-5.30030273 58.81526367 -6.29030273 58.48526367 -7.31030273 58.14526367 C-7.31030273 57.48526367 -7.31030273 56.82526367 -7.31030273 56.14526367 C-8.30030273 55.81526367 -9.29030273 55.48526367 -10.31030273 55.14526367 C-10.31030273 54.48526367 -10.31030273 53.82526367 -10.31030273 53.14526367 C-10.97030273 53.14526367 -11.63030273 53.14526367 -12.31030273 53.14526367 C-12.31030273 52.48526367 -12.31030273 51.82526367 -12.31030273 51.14526367 C-12.90842773 50.91838867 -13.50655273 50.69151367 -14.12280273 50.45776367 C-16.31030273 49.14526367 -16.31030273 49.14526367 -17.56420898 46.91479492 C-19.73492552 43.47175683 -22.37727774 41.16425678 -25.43530273 38.52026367 C-31.17707002 33.54496181 -31.17707002 33.54496181 -32.31030273 30.14526367 C-33.07342773 29.77401367 -33.83655273 29.40276367 -34.62280273 29.02026367 C-38.60196941 26.24410087 -39.56599171 22.54031807 -41.31030273 18.14526367 C-41.963189 16.8051287 -42.6255996 15.46942523 -43.31030273 14.14526367 C-43.97030273 14.14526367 -44.63030273 14.14526367 -45.31030273 14.14526367 C-45.67941138 8.60863394 -45.67941138 8.60863394 -44.03881836 6.54907227 C-37.34117928 1.1096055 -27.96602402 1.64713045 -19.81030273 1.52026367 C-17.46646379 1.46953123 -15.12270169 1.41505994 -12.77905273 1.35620117 C-11.75231445 1.3386377 -10.72557617 1.32107422 -9.66772461 1.30297852 C-6.25203946 1.07446437 -3.8525353 0.0122536 0 0 Z " fill="#EC4017" transform="translate(206.310302734375,119.854736328125)"/>
<path d="M0 0 C0.79799664 -0.00311998 1.59599329 -0.00623996 2.41817164 -0.00945449 C5.07872312 -0.01739843 7.73904419 -0.01112424 10.39959717 -0.00482178 C12.3142612 -0.00753384 14.22892419 -0.01109599 16.14358521 -0.01544189 C21.34372801 -0.0245597 26.5437914 -0.02101955 31.74393559 -0.01468372 C37.22085335 -0.00960016 42.69776457 -0.0143236 48.17468262 -0.01745605 C57.40168464 -0.02109745 66.62865469 -0.01630103 75.85565186 -0.0067749 C86.43141327 0.00401967 97.00709701 0.00065103 107.58285642 -0.01042771 C116.71723367 -0.01960468 125.85158796 -0.02073317 134.98596835 -0.01555037 C140.41571994 -0.01247536 145.84543554 -0.01189298 151.27518463 -0.01862335 C171.46501674 -0.04003056 191.6294497 0.02827693 211.79608154 1.08306885 C212.525129 1.11762287 213.25417645 1.15217689 214.00531626 1.187778 C230.03756968 1.97617192 230.03756968 1.97617192 235.73846436 6.94146729 C236.08908936 7.37459229 236.43971436 7.80771729 236.80096436 8.25396729 C235.48096436 8.25396729 234.16096436 8.25396729 232.80096436 8.25396729 C232.80096436 7.59396729 232.80096436 6.93396729 232.80096436 6.25396729 C230.49096436 6.25396729 228.18096436 6.25396729 225.80096436 6.25396729 C225.80096436 5.59396729 225.80096436 4.93396729 225.80096436 4.25396729 C203.29904185 4.23029046 180.79712147 4.21282159 158.2951889 4.20215511 C147.84007847 4.19706423 137.384976 4.19012802 126.92987061 4.17852783 C71.51365413 4.07236348 71.51365413 4.07236348 16.09999084 4.52169991 C13.75197548 4.55362102 11.40389466 4.58110285 9.05577087 4.60368156 C5.9176692 4.6359427 2.7804886 4.68696515 -0.35723877 4.7444458 C-1.6791069 4.75374084 -1.6791069 4.75374084 -3.02767944 4.76322365 C-8.86978047 4.90234662 -13.76560418 6.11663097 -19.19903564 8.25396729 C-19.19903564 8.91396729 -19.19903564 9.57396729 -19.19903564 10.25396729 C-20.18903564 10.25396729 -21.17903564 10.25396729 -22.19903564 10.25396729 C-23.35404527 14.37965708 -23.34597293 18.37313366 -23.32403564 22.62896729 C-23.32790283 23.37146729 -23.33177002 24.11396729 -23.33575439 24.87896729 C-23.32827232 29.11381949 -23.03321585 33.08306626 -22.19903564 37.25396729 C-22.85903564 36.59396729 -23.51903564 35.93396729 -24.19903564 35.25396729 C-24.19903564 34.26396729 -24.19903564 33.27396729 -24.19903564 32.25396729 C-25.18903564 31.92396729 -26.17903564 31.59396729 -27.19903564 31.25396729 C-27.19903564 25.64396729 -27.19903564 20.03396729 -27.19903564 14.25396729 C-26.53903564 14.25396729 -25.87903564 14.25396729 -25.19903564 14.25396729 C-25.07528564 13.65584229 -24.95153564 13.05771729 -24.82403564 12.44146729 C-24.19903564 10.25396729 -24.19903564 10.25396729 -22.19903564 7.25396729 C-21.53903564 7.25396729 -20.87903564 7.25396729 -20.19903564 7.25396729 C-20.19903564 6.59396729 -20.19903564 5.93396729 -20.19903564 5.25396729 C-14.06976259 0.79631415 -7.39245422 -0.04493782 0 0 Z " fill="#FCDCD2" transform="translate(132.19903564453125,85.74603271484375)"/>
<path d="M0 0 C0.79799664 -0.00311998 1.59599329 -0.00623996 2.41817164 -0.00945449 C5.07872312 -0.01739843 7.73904419 -0.01112424 10.39959717 -0.00482178 C12.3142612 -0.00753384 14.22892419 -0.01109599 16.14358521 -0.01544189 C21.34372801 -0.0245597 26.5437914 -0.02101955 31.74393559 -0.01468372 C37.22085335 -0.00960016 42.69776457 -0.0143236 48.17468262 -0.01745605 C57.40168464 -0.02109745 66.62865469 -0.01630103 75.85565186 -0.0067749 C86.43141327 0.00401967 97.00709701 0.00065103 107.58285642 -0.01042771 C116.71723367 -0.01960468 125.85158796 -0.02073317 134.98596835 -0.01555037 C140.41571994 -0.01247536 145.84543554 -0.01189298 151.27518463 -0.01862335 C176.52329297 -0.04576266 201.61378685 0.42352791 226.80096436 2.25396729 C226.80096436 2.58396729 226.80096436 2.91396729 226.80096436 3.25396729 C216.93833663 3.31551296 207.11874672 3.13273543 197.26190186 2.76226807 C179.51745351 2.14388545 161.78185315 2.10601014 144.02841568 2.11964178 C139.56482136 2.12223681 135.10122872 2.11980889 130.63763428 2.11825562 C123.16163759 2.11645569 115.68565091 2.11878371 108.20965576 2.12359619 C99.63891172 2.12905062 91.06819145 2.12725872 82.49744797 2.12176979 C75.04765498 2.11719495 67.59786904 2.11660879 60.1480751 2.11920846 C55.73795432 2.12074539 51.32784462 2.12103752 46.91772461 2.11767197 C36.21155623 2.1108343 25.50656429 2.13765717 14.80096436 2.25396729 C13.55313171 2.26717262 12.30529907 2.28037796 11.01965332 2.29398346 C7.68906723 2.34171483 4.36102601 2.41925282 1.03143311 2.51226807 C0.10478348 2.52585295 -0.82186615 2.53943783 -1.77659607 2.55343437 C-7.73913866 2.77274615 -13.15894837 3.88190251 -18.19903564 7.25396729 C-18.52903564 8.24396729 -18.85903564 9.23396729 -19.19903564 10.25396729 C-20.18903564 10.25396729 -21.17903564 10.25396729 -22.19903564 10.25396729 C-23.35404527 14.37965708 -23.34597293 18.37313366 -23.32403564 22.62896729 C-23.32790283 23.37146729 -23.33177002 24.11396729 -23.33575439 24.87896729 C-23.32827232 29.11381949 -23.03321585 33.08306626 -22.19903564 37.25396729 C-22.85903564 36.59396729 -23.51903564 35.93396729 -24.19903564 35.25396729 C-24.19903564 34.26396729 -24.19903564 33.27396729 -24.19903564 32.25396729 C-25.18903564 31.92396729 -26.17903564 31.59396729 -27.19903564 31.25396729 C-27.19903564 25.64396729 -27.19903564 20.03396729 -27.19903564 14.25396729 C-26.53903564 14.25396729 -25.87903564 14.25396729 -25.19903564 14.25396729 C-25.07528564 13.65584229 -24.95153564 13.05771729 -24.82403564 12.44146729 C-24.19903564 10.25396729 -24.19903564 10.25396729 -22.19903564 7.25396729 C-21.53903564 7.25396729 -20.87903564 7.25396729 -20.19903564 7.25396729 C-20.19903564 6.59396729 -20.19903564 5.93396729 -20.19903564 5.25396729 C-14.06976259 0.79631415 -7.39245422 -0.04493782 0 0 Z " fill="#F6997F" transform="translate(132.19903564453125,85.74603271484375)"/>
<path d="M0 0 C0.6606395 -0.00335861 1.32127899 -0.00671722 2.00193787 -0.01017761 C4.20907438 -0.01974668 6.41613497 -0.02163628 8.62329102 -0.02270508 C10.17383352 -0.02592287 11.72437572 -0.02928733 13.2749176 -0.03279114 C16.54949643 -0.03880354 19.82404885 -0.04062981 23.09863281 -0.04003906 C26.40630706 -0.03995897 29.71383939 -0.0467025 33.02148438 -0.06054688 C87.94458793 -0.28726527 87.94458793 -0.28726527 104.68969727 4.14526367 C105.67969727 5.13526367 105.67969727 5.13526367 106.68969727 6.14526367 C105.14844252 6.20009092 103.60659821 6.23842501 102.06469727 6.27026367 C101.20618164 6.2934668 100.34766602 6.31666992 99.46313477 6.34057617 C96.68969727 6.14526367 96.68969727 6.14526367 94.05444336 5.15673828 C89.97059668 3.92909521 86.31804496 3.81253979 82.08032227 3.76635742 C81.27230164 3.74936295 80.46428101 3.73236847 79.6317749 3.71485901 C77.06782698 3.66202079 74.50389328 3.62154214 71.93969727 3.58276367 C69.36129711 3.53880548 66.78302001 3.49214417 64.20477295 3.43995667 C62.60448522 3.40804269 61.00408817 3.38113914 59.40362549 3.35972595 C53.91324425 3.25703716 53.91324425 3.25703716 51.68969727 2.14526367 C48.80782507 2.04607592 45.9506389 2.00545057 43.06860352 2.01245117 C41.78505226 2.01101608 41.78505226 2.01101608 40.47557068 2.009552 C38.66405158 2.00887088 36.85253005 2.01072043 35.04101562 2.01489258 C32.26695263 2.02023525 29.49305203 2.01494868 26.71899414 2.00854492 C24.96053024 2.00920584 23.20206644 2.0104873 21.44360352 2.01245117 C20.61228409 2.01042694 19.78096466 2.00840271 18.92445374 2.00631714 C15.59470278 2.01987551 12.87054321 2.08498169 9.68969727 3.14526367 C7.14128236 3.28668029 4.61494381 3.37834997 2.06469727 3.42651367 C0.94973877 3.45412781 0.94973877 3.45412781 -0.18774414 3.4822998 C-3.36582251 3.56086767 -6.54411061 3.62866801 -9.72241211 3.69750977 C-12.04347948 3.74931082 -14.36437025 3.80653122 -16.68530273 3.86401367 C-17.76352295 3.88437683 -17.76352295 3.88437683 -18.86352539 3.90515137 C-21.93078678 3.98159344 -24.37851898 4.16800242 -27.31030273 5.14526367 C-30.11023492 5.41091989 -32.90973809 5.58904521 -35.71655273 5.76635742 C-38.54141058 5.98979004 -38.54141058 5.98979004 -41.31030273 8.14526367 C-42.04373702 11.21082965 -42.04373702 11.21082965 -42.31030273 14.14526367 C-41.65030273 14.14526367 -40.99030273 14.14526367 -40.31030273 14.14526367 C-39.24780273 15.95776367 -39.24780273 15.95776367 -38.31030273 18.14526367 C-38.64030273 19.13526367 -38.97030273 20.12526367 -39.31030273 21.14526367 C-43.31030273 16.39526367 -43.31030273 16.39526367 -43.31030273 14.14526367 C-43.97030273 14.14526367 -44.63030273 14.14526367 -45.31030273 14.14526367 C-45.67941138 8.60863394 -45.67941138 8.60863394 -44.03881836 6.54907227 C-37.34117928 1.1096055 -27.96602402 1.64713045 -19.81030273 1.52026367 C-17.46646379 1.46953123 -15.12270169 1.41505994 -12.77905273 1.35620117 C-11.75231445 1.3386377 -10.72557617 1.32107422 -9.66772461 1.30297852 C-6.25203946 1.07446437 -3.8525353 0.0122536 0 0 Z " fill="#F37F60" transform="translate(206.310302734375,119.854736328125)"/>
<path d="M0 0 C0.86040894 -0.00426498 1.72081787 -0.00852997 2.6072998 -0.01292419 C3.5485672 -0.01247101 4.48983459 -0.01201782 5.45962524 -0.0115509 C6.45355286 -0.01490952 7.44748047 -0.01826813 8.4715271 -0.02172852 C11.76916749 -0.03125294 15.0667571 -0.03318298 18.3644104 -0.03425598 C20.66068543 -0.03746966 22.95696026 -0.04083381 25.25323486 -0.04434204 C30.07691929 -0.05033853 34.90058579 -0.05218162 39.72427368 -0.05158997 C45.87838144 -0.0514888 52.03237263 -0.06509134 58.18645287 -0.08236217 C62.93595904 -0.09353735 67.68543763 -0.09550741 72.4349556 -0.09498024 C74.70174177 -0.09615396 76.96852881 -0.1005413 79.23530197 -0.10831261 C108.11508454 -0.19798141 108.11508454 -0.19798141 114.7784729 3.13371277 C114.7784729 3.79371277 114.7784729 4.45371277 114.7784729 5.13371277 C116.4284729 5.13371277 118.0784729 5.13371277 119.7784729 5.13371277 C120.1084729 6.12371277 120.4384729 7.11371277 120.7784729 8.13371277 C121.4384729 8.13371277 122.0984729 8.13371277 122.7784729 8.13371277 C122.28616521 14.53371277 122.28616521 14.53371277 119.7159729 17.57121277 C118.7569104 18.34465027 118.7569104 18.34465027 117.7784729 19.13371277 C118.4384729 15.50371277 119.0984729 11.87371277 119.7784729 8.13371277 C118.9534729 8.00996277 118.1284729 7.88621277 117.2784729 7.75871277 C113.7784729 7.13371277 113.7784729 7.13371277 110.2706604 6.16105652 C105.03911726 4.83813756 99.77134411 4.47520831 94.4034729 4.07121277 C92.43727752 3.91428029 90.47113109 3.7567331 88.5050354 3.59855652 C87.64474731 3.53273376 86.78445923 3.46691101 85.89810181 3.39909363 C84.19019873 3.25380558 82.48258698 3.09711448 80.78147888 2.88670349 C72.56137913 1.91583196 64.34970471 1.9885525 56.08706665 2.00090027 C54.48949672 2.00022556 52.89192688 1.99925415 51.2943573 1.9980011 C47.96865854 1.99653582 44.64298685 1.99864339 41.31729126 2.00334167 C37.04663448 2.00908029 32.77603998 2.00572672 28.5053854 1.99976921 C25.21727523 1.9961675 21.92918002 1.99729965 18.64106941 1.999897 C17.06493179 2.0005652 15.48879283 1.99974158 13.91265678 1.99741745 C11.722628 1.99489283 9.53270289 1.99872682 7.34268188 2.00431824 C6.09599228 2.00511383 4.84930267 2.00590942 3.56483459 2.00672913 C0.87173173 1.81572665 0.87173173 1.81572665 -0.2215271 3.13371277 C-1.56420123 3.22003151 -2.91127032 3.2407775 -4.25668335 3.23136902 C-5.06557007 3.22814636 -5.87445679 3.22492371 -6.70785522 3.22160339 C-7.55799194 3.21322449 -8.40812866 3.20484558 -9.2840271 3.19621277 C-10.13803101 3.19170105 -10.99203491 3.18718933 -11.87191772 3.18254089 C-13.98848373 3.1707165 -16.10501395 3.15278045 -18.2215271 3.13371277 C-18.2215271 2.80371277 -18.2215271 2.47371277 -18.2215271 2.13371277 C-17.46226929 2.07312683 -16.70301147 2.01254089 -15.92074585 1.95011902 C-14.92687866 1.86632996 -13.93301147 1.78254089 -12.9090271 1.69621277 C-11.92289429 1.61500183 -10.93676147 1.53379089 -9.92074585 1.45011902 C-6.45135761 1.04343241 -3.52993327 0.00791618 0 0 Z " fill="#FACEC3" transform="translate(199.22152709960938,118.86628723144531)"/>
<path d="M0 0 C0 3 0 6 0 9 C4.55380144 10.7572547 8.33804199 11.25259182 13.20776367 11.25878906 C13.90298126 11.2622937 14.59819885 11.26579834 15.31448364 11.26940918 C17.59908216 11.27816696 19.88336739 11.27239534 22.16796875 11.265625 C23.76972004 11.26697413 25.37147093 11.26891672 26.97322083 11.27142334 C30.32797144 11.2743672 33.68261534 11.27010359 37.03735352 11.26074219 C41.30944754 11.24939425 45.58128893 11.2558821 49.85337353 11.26788712 C53.1624995 11.27516524 56.47156709 11.27278989 59.78069496 11.26763153 C61.35414981 11.26630902 62.92761018 11.26789297 64.50105858 11.27259064 C80.19273367 11.95611311 80.19273367 11.95611311 94 6 C94.99 6.495 94.99 6.495 96 7 C93.31158141 9.25245881 91.35358125 10.88213958 88 12 C87.67 12.66 87.34 13.32 87 14 C76.13418722 14.092691 65.26846854 14.16376054 54.40234089 14.20724869 C49.35670822 14.22812116 44.3113461 14.25643274 39.26586914 14.30175781 C34.39644398 14.34522748 29.52727901 14.36913967 24.65767479 14.37950897 C22.8001108 14.38689832 20.942561 14.40132803 19.0851078 14.42292023 C16.48261396 14.45196935 13.88119441 14.45595541 11.27856445 14.45410156 C10.5110788 14.46848267 9.74359314 14.48286377 8.95285034 14.49768066 C5.24625851 14.46912195 3.17495327 14.11139452 0.01750183 12.10101318 C-2 10 -2 10 -2.55859375 7.9296875 C-2.22222222 2.22222222 -2.22222222 2.22222222 0 0 Z " fill="#F9B6A9" transform="translate(271,380)"/>
<path d="M0 0 C2.95419909 0.55391233 5.80450196 1.22230091 8.70539856 2.02388 C12.75081253 3.03688173 16.53173982 3.24750566 20.71362305 3.24291992 C21.43827759 3.24481827 22.16293213 3.24671661 22.9095459 3.24867249 C25.27705106 3.25234223 27.64424141 3.24173262 30.01171875 3.23046875 C31.66982487 3.22927489 33.32793168 3.22882422 34.98603821 3.2290802 C38.44817383 3.22752202 41.91020507 3.2192817 45.37231445 3.20581055 C49.80406577 3.18878182 54.23570311 3.18499778 58.66748333 3.18575573 C62.08615704 3.18548358 65.50480599 3.17999569 68.92347145 3.17275429 C70.55770493 3.16957934 72.1919412 3.16760296 73.8261776 3.16686058 C76.10902041 3.16468679 78.39174357 3.15592133 80.67456055 3.14526367 C81.97169479 3.14145187 83.26882904 3.13764008 84.60527039 3.13371277 C87.54008709 3.01811521 90.1523586 2.68455312 93 2 C92.34 2.33 91.68 2.66 91 3 C91 3.99 91 4.98 91 6 C80.16877068 6.11598971 69.33768977 6.20476413 58.50596523 6.25906086 C53.47600258 6.28512433 48.44646569 6.32046306 43.41674805 6.37719727 C38.56026605 6.43163289 33.70419288 6.46144498 28.84742928 6.47438622 C26.99707671 6.48360537 25.14674584 6.50160858 23.29656792 6.52865028 C20.69909676 6.565095 18.10330205 6.56993904 15.50561523 6.56762695 C14.74532013 6.58560333 13.98502502 6.60357971 13.20169067 6.62210083 C7.36847478 6.5661364 4.4335413 4.77431136 0 1 C0 0.67 0 0.34 0 0 Z " fill="#F7B4A6" transform="translate(118,388)"/>
<path d="M0 0 C6.38768181 6.00332273 7.56944439 13.14562925 7.875 21.625 C7.92804655 26.51373252 7.92530082 29.82839609 4.828125 33.75 C2.27361578 35.52191391 -0.12194227 36.83934065 -3 38 C-3.99 38.495 -3.99 38.495 -5 39 C-8.11269291 39.31432523 -11.22617578 39.51089874 -14.34765625 39.71875 C-16.92005405 39.71051998 -16.92005405 39.71051998 -18 41 C-19.99958364 41.04080783 -22.00045254 41.04254356 -24 41 C-24 41.99 -24 42.98 -24 44 C-25.051875 44.144375 -26.10375 44.28875 -27.1875 44.4375 C-30.15460549 44.87526966 -33.06794366 45.37804866 -36 46 C-36.33 46.99 -36.66 47.98 -37 49 C-37.99 49 -38.98 49 -40 49 C-40 49.66 -40 50.32 -40 51 C-40.99 50.67 -41.98 50.34 -43 50 C-37.08315098 43.29540481 -37.08315098 43.29540481 -32.5625 42.0625 C-31.716875 42.041875 -30.87125 42.02125 -30 42 C-30 41.34 -30 40.68 -30 40 C-27.03 40 -24.06 40 -21 40 C-21 39.34 -21 38.68 -21 38 C-19.9378125 37.74605469 -18.875625 37.49210937 -17.78125 37.23046875 C-4.89472139 35.01594527 -4.89472139 35.01594527 5 28 C5.27947309 25.28985439 5.27947309 25.28985439 5.1875 22.375 C5.17783203 20.90160156 5.17783203 20.90160156 5.16796875 19.3984375 C5.26688438 17.04822451 5.26688438 17.04822451 4 16 C3.65111516 14.63377871 3.34578655 13.25631458 3.0625 11.875 C2.20669992 7.8533831 1.17354291 3.93975121 0 0 Z " fill="#F4846D" transform="translate(315,329)"/>
<path d="M0 0 C3.35217997 1.17779296 5.88666625 2.08158673 8 5 C8.74386068 7.30988315 9.42190703 9.64315944 10 12 C10.66 12 11.32 12 12 12 C13.55078125 13.57421875 13.55078125 13.57421875 15.3125 15.6875 C20.29654027 22.01124235 20.29654027 22.01124235 27 26 C28.01208818 27.65935388 29.00963452 29.32759036 30 31 C31.7993344 32.98360358 33.59572958 34.87603627 35.5 36.75 C35.98597656 37.24371094 36.47195312 37.73742187 36.97265625 38.24609375 C39.30215447 40.56289716 40.83944469 41.94648156 44 43 C46.21751399 46.69585666 47 48.63008373 47 53 C46.34 53 45.68 53 45 53 C44.67 54.65 44.34 56.3 44 58 C43.34 58 42.68 58 42 58 C41.67 58.99 41.34 59.98 41 61 C40.01 61.33 39.02 61.66 38 62 C37.67 62.99 37.34 63.98 37 65 C35.2578125 66.75390625 35.2578125 66.75390625 33.125 68.5625 C32.07699219 69.46162109 32.07699219 69.46162109 31.0078125 70.37890625 C29 72 29 72 26 74 C27.35236577 71.06120516 28.89942659 68.70767089 31 66.25 C31.515625 65.63640625 32.03125 65.0228125 32.5625 64.390625 C34 63 34 63 36 63 C36.2475 62.4225 36.495 61.845 36.75 61.25 C38 59 38 59 40.125 57.1875 C42.29969516 55.04325711 42.29969516 55.04325711 42.5 51.625 C41.56209107 44.82516026 36.72578371 40.43263981 32.02734375 35.796875 C31.18086021 34.9510788 31.18086021 34.9510788 30.317276 34.0881958 C29.13210166 32.90602434 27.94451618 31.72626564 26.75463867 30.54882812 C24.9341108 28.74664495 23.12180076 26.93649895 21.31054688 25.125 C20.15411797 23.97348398 18.99723272 22.82242604 17.83984375 21.671875 C17.29915756 21.13230164 16.75847137 20.59272827 16.20140076 20.0368042 C13.88962278 17.7540935 11.71318593 15.80879062 9 14 C7.8125 10.875 7.8125 10.875 7 8 C6.34 8 5.68 8 5 8 C0 2.52380952 0 2.52380952 0 0 Z " fill="#F4927A" transform="translate(146,175)"/>
<path d="M0 0 C0.66 0.33 1.32 0.66 2 1 C0.71656721 3.00573682 -0.5760369 5.00436119 -1.875 7 C-2.23980469 7.57234375 -2.60460937 8.1446875 -2.98046875 8.734375 C-3.93474767 10.19181916 -4.96277587 11.60037225 -6 13 C-6.66 13 -7.32 13 -8 13 C-8.268125 13.721875 -8.53625 14.44375 -8.8125 15.1875 C-10.43204993 19.02327615 -12.07402793 22.12849688 -15.125 25 C-17.30904742 27.32965058 -17.65253717 28.8728345 -18 32 C-18.66 32 -19.32 32 -20 32 C-20 32.99 -20 33.98 -20 35 C-20.99 35 -21.98 35 -23 35 C-23.38671875 35.78310547 -23.38671875 35.78310547 -23.78125 36.58203125 C-25.32040162 39.63566859 -26.90201993 42.66420296 -28.5 45.6875 C-29.1084375 46.84636719 -29.716875 48.00523437 -30.34375 49.19921875 C-32 52 -32 52 -34 53 C-34.87242911 55.04616561 -34.87242911 55.04616561 -35.5625 57.4375 C-36.93670886 61.87341772 -36.93670886 61.87341772 -38 64 C-38.66 64 -39.32 64 -40 64 C-38.27581103 58.23964138 -36.22683714 53.09881637 -33 48 C-32.24203125 46.78376953 -32.24203125 46.78376953 -31.46875 45.54296875 C-28.33846233 40.57007993 -25.11003337 35.67590117 -21.8125 30.8125 C-18.80665167 26.33582879 -16.2582048 21.89277706 -14 17 C-13.34 17 -12.68 17 -12 17 C-12 16.34 -12 15.68 -12 15 C-11.34 15 -10.68 15 -10 15 C-9.9071875 14.1646875 -9.9071875 14.1646875 -9.8125 13.3125 C-8.66639359 10.05050482 -6.45961261 8.40241231 -4 6 C-2.56213727 4.05058996 -1.28961943 2.05383835 0 0 Z " fill="#F5A695" transform="translate(170,249)"/>
<path d="M0 0 C0.68359375 1.640625 0.68359375 1.640625 1 4 C-0.21484375 6.734375 -0.21484375 6.734375 -1.9375 9.75 C-5.24154558 16.021568 -5.57717823 19.4980098 -4.6875 26.4375 C-4.460625 26.953125 -4.23375 27.46875 -4 28 C-3.01 28.33 -2.02 28.66 -1 29 C-1 29.99 -1 30.98 -1 32 C5.9842027 33.93802483 12.67304123 35.35374497 19.91796875 35.7890625 C22 36 22 36 23 37 C24.010625 37.103125 25.02125 37.20625 26.0625 37.3125 C30.61320016 38.1070667 34.00474643 39.76888437 38 42 C33.84228506 43.31538327 31.1120703 42.34433068 27 41 C27 40.34 27 39.68 27 39 C22.71 39 18.42 39 14 39 C14 38.34 14 37.68 14 37 C12.845 37.0825 11.69 37.165 10.5 37.25 C5.76129523 37.25844689 1.80707501 35.83869184 -2 33 C-2.495 31.515 -2.495 31.515 -3 30 C-3.66 30 -4.32 30 -5 30 C-5 29.34 -5 28.68 -5 28 C-5.66 28 -6.32 28 -7 28 C-8.00844096 16.42693946 -6.40980254 9.6964615 0 0 Z " fill="#FAD5CE" transform="translate(165,331)"/>
<path d="M0 0 C0.92232422 0.00902344 1.84464844 0.01804687 2.79492188 0.02734375 C5.05105809 0.0507234 7.30663684 0.08349084 9.5625 0.125 C9.5625 0.455 9.5625 0.785 9.5625 1.125 C8.973479 1.16463867 8.38445801 1.20427734 7.77758789 1.24511719 C5.05853749 1.43794631 2.34208885 1.65632082 -0.375 1.875 C-1.30119141 1.936875 -2.22738281 1.99875 -3.18164062 2.0625 C-9.35837301 2.58264588 -15.1928005 3.61072311 -20.4375 7.125 C-20.7675 8.115 -21.0975 9.105 -21.4375 10.125 C-22.4275 10.125 -23.4175 10.125 -24.4375 10.125 C-25.59250963 14.2506898 -25.58443729 18.24416637 -25.5625 22.5 C-25.56636719 23.2425 -25.57023437 23.985 -25.57421875 24.75 C-25.56673668 28.9848522 -25.27168021 32.95409897 -24.4375 37.125 C-25.0975 36.465 -25.7575 35.805 -26.4375 35.125 C-26.4375 34.135 -26.4375 33.145 -26.4375 32.125 C-27.4275 31.795 -28.4175 31.465 -29.4375 31.125 C-29.4375 25.515 -29.4375 19.905 -29.4375 14.125 C-28.7775 14.125 -28.1175 14.125 -27.4375 14.125 C-27.31375 13.526875 -27.19 12.92875 -27.0625 12.3125 C-26.4375 10.125 -26.4375 10.125 -24.4375 7.125 C-23.7775 7.125 -23.1175 7.125 -22.4375 7.125 C-22.4375 6.465 -22.4375 5.805 -22.4375 5.125 C-15.44668831 0.04077332 -8.30241486 -0.15540877 0 0 Z " fill="#F78258" transform="translate(134.4375,85.875)"/>
<path d="M0 0 C0.99 0.66 1.98 1.32 3 2 C3 2.66 3 3.32 3 4 C3.99 4 4.98 4 6 4 C6.11698258 7.20802233 6.18750607 10.41549025 6.25 13.625 C6.28351563 14.52863281 6.31703125 15.43226562 6.3515625 16.36328125 C6.43685881 22.20607876 5.76460946 25.28705381 2 30 C1.31060191 32.32671854 0.64533078 34.66067594 0 37 C-3.10327456 44.40218304 -3.10327456 44.40218304 -7 47 C-5.48410758 40.55745721 -5.48410758 40.55745721 -2.9375 37.625 C-0.22296014 33.94723632 -0.19487175 30.47230669 0 26 C0.66 26 1.32 26 2 26 C1.979375 25.030625 1.95875 24.06125 1.9375 23.0625 C2 20 2 20 3 19 C3.72692369 12.61145908 2.46370509 7.85129959 0 2 C0 1.34 0 0.68 0 0 Z " fill="#FBDCD6" transform="translate(369,94)"/>
<path d="M0 0 C0 3 0 3 -1.65234375 4.85009766 C-2.78349609 5.87176025 -2.78349609 5.87176025 -3.9375 6.9140625 C-4.74960937 7.67589844 -5.56171875 8.43773437 -6.3984375 9.22265625 C-8.12117729 10.81347452 -9.85549013 12.39185827 -11.6015625 13.95703125 C-16.1287475 18.0764448 -16.1287475 18.0764448 -18.6328125 23.48950195 C-18.7257487 27.58989687 -18.35108305 29.48434677 -16 32.9375 C-15.34 33.618125 -14.68 34.29875 -14 35 C-14 35.66 -14 36.32 -14 37 C-12.68 37.66 -11.36 38.32 -10 39 C-10 39.99 -10 40.98 -10 42 C-14.875 39.375 -14.875 39.375 -16 36 C-16.66 36 -17.32 36 -18 36 C-18.433125 35.0409375 -18.433125 35.0409375 -18.875 34.0625 C-19.82823451 31.84793921 -19.82823451 31.84793921 -22 31 C-22.70583983 26.76496099 -22.89348749 24.32894983 -20.453125 20.69921875 C-18.06084724 18.03191636 -15.55808209 15.50558725 -13 13 C-11.83425103 11.82589081 -10.67027364 10.65002074 -9.5078125 9.47265625 C-6.3595397 6.29347173 -3.18583678 3.14152066 0 0 Z " fill="#F28B77" transform="translate(312,200)"/>
<path d="M0 0 C0.66 0.33 1.32 0.66 2 1 C1.18595703 1.59748047 1.18595703 1.59748047 0.35546875 2.20703125 C-0.35996094 2.73683594 -1.07539063 3.26664062 -1.8125 3.8125 C-2.87404297 4.59560547 -2.87404297 4.59560547 -3.95703125 5.39453125 C-5.99712022 6.93085326 -5.99712022 6.93085326 -7.62890625 8.63671875 C-9 10 -9 10 -11.125 11 C-13.3530435 11.91202978 -13.3530435 11.91202978 -14 15 C-14.66 15 -15.32 15 -16 15 C-16.33 15.99 -16.66 16.98 -17 18 C-18.64333504 19.03789581 -20.31243867 20.03567924 -22 21 C-24.42585995 22.94068796 -25.34484491 24.63221566 -26.875 27.4375 C-28.70770459 30.7903549 -30.83626636 32.80296275 -34 35 C-33.731875 34.484375 -33.46375 33.96875 -33.1875 33.4375 C-31.8926039 30.87085712 -31.8926039 30.87085712 -30.6875 27.5625 C-28.91929363 23.82961989 -27.13721688 21.65456813 -24 19 C-23.34 19 -22.68 19 -22 19 C-22 18.34 -22 17.68 -22 17 C-20.390625 15.4140625 -20.390625 15.4140625 -18.25 13.625 C-15.93096298 11.66242273 -13.74780716 9.7411705 -11.625 7.5625 C-10 6 -10 6 -8 6 C-8 5.34 -8 4.68 -8 4 C-6.865625 3.525625 -5.73125 3.05125 -4.5625 2.5625 C-1.24259834 1.36377917 -1.24259834 1.36377917 0 0 Z " fill="#F6B1A4" transform="translate(223,254)"/>
<path d="M0 0 C1.89551022 -0.05441656 3.7914792 -0.09298035 5.6875 -0.125 C6.74324219 -0.14820313 7.79898438 -0.17140625 8.88671875 -0.1953125 C13.87773809 0.11780038 16.56217668 1.56217668 20 5 C22.59915538 6.19027984 22.59915538 6.19027984 25 7 C25 7.66 25 8.32 25 9 C26.32 9.66 27.64 10.32 29 11 C28.34 11.33 27.68 11.66 27 12 C24.875 11.0625 24.875 11.0625 23 10 C23 9.34 23 8.68 23 8 C22.278125 7.896875 21.55625 7.79375 20.8125 7.6875 C18 7 18 7 15.7109375 5.48046875 C10.12263324 2.42864265 2.99124181 3.3378167 -3.0703125 4.6796875 C-5.4153644 5.38119875 -7.71181281 6.13224504 -10 7 C-10 6.01 -10 5.02 -10 4 C-6.49223216 2.39644899 -3.85645121 1.77963136 0 2 C0 1.34 0 0.68 0 0 Z " fill="#FBE3DE" transform="translate(235,247)"/>
<path d="M0 0 C12.20507265 -0.21073973 24.33088561 -0.17693526 36.5 0.875 C37.90294312 0.99270752 37.90294312 0.99270752 39.33422852 1.11279297 C44.73483613 1.62220124 49.77288577 2.54666684 55 4 C55 4.33 55 4.66 55 5 C53.45874525 5.05482724 51.91690094 5.09316134 50.375 5.125 C49.51648438 5.14820312 48.65796875 5.17140625 47.7734375 5.1953125 C45 5 45 5 42.36474609 4.00927734 C38.27579976 2.78277146 34.63222357 2.68524066 30.390625 2.65625 C29.58260437 2.6416272 28.77458374 2.62700439 27.94207764 2.61193848 C24.50467223 2.54993136 21.06709766 2.50989591 17.62939453 2.46826172 C15.1121102 2.43462212 12.5952132 2.38951868 10.078125 2.34375 C9.29794006 2.3384729 8.51775513 2.3331958 7.71392822 2.32775879 C2.22568472 2.22568472 2.22568472 2.22568472 0 0 Z " fill="#EF6343" transform="translate(258,121)"/>
<path d="M0 0 C31.2639077 -0.18821469 31.2639077 -0.18821469 43.125 0.25 C43.85565674 0.26409912 44.58631348 0.27819824 45.33911133 0.29272461 C50.43748953 0.53695465 53.08815332 1.95339043 57 5 C55.68 5.33 54.36 5.66 53 6 C53 5.34 53 4.68 53 4 C50.69 4 48.38 4 46 4 C46 3.34 46 2.68 46 2 C45.28158936 2.00523682 44.56317871 2.01047363 43.82299805 2.01586914 C29.17683588 2.10814498 14.61520432 1.99689579 0 1 C0 0.67 0 0.34 0 0 Z " fill="#F9CCC2" transform="translate(312,88)"/>
<path d="M0 0 C5.06520443 4.76042136 6.96578629 9.7938522 7.39453125 16.7109375 C7.44515761 18.43190615 7.48011302 20.15340172 7.5 21.875 C7.51828857 22.71998047 7.53657715 23.56496094 7.55541992 24.43554688 C7.49613929 30.39953803 7.49613929 30.39953803 5.40234375 32.93359375 C2.3344111 34.29545654 -0.70229338 35.28633786 -3.9375 36.1875 C-5.14277344 36.53167969 -6.34804688 36.87585938 -7.58984375 37.23046875 C-10.55468563 37.89951096 -12.98398965 38.16596641 -16 38 C-11.90562206 35.27041471 -7.41087225 34.25208576 -2.71679688 32.94335938 C1.92175863 31.62993498 1.92175863 31.62993498 5 28 C5.27947309 25.28985439 5.27947309 25.28985439 5.1875 22.375 C5.18105469 21.39273437 5.17460937 20.41046875 5.16796875 19.3984375 C5.26688438 17.04822451 5.26688438 17.04822451 4 16 C3.65111516 14.63377871 3.34578655 13.25631458 3.0625 11.875 C2.20669992 7.8533831 1.17354291 3.93975121 0 0 Z " fill="#F37B63" transform="translate(315,329)"/>
<path d="M0 0 C3.31225448 1.65612724 3.76982575 4.64497931 5 8 C5.1875 10.9375 5.1875 10.9375 5 13 C5.66 13 6.32 13 7 13 C8.60781635 23.12062972 9.2615556 32.75573889 9 43 C7.515 43.495 7.515 43.495 6 44 C6.01160156 42.99582031 6.02320313 41.99164063 6.03515625 40.95703125 C6.51736375 23.08477863 6.51736375 23.08477863 1.05859375 6.33984375 C0 4 0 4 0 0 Z " fill="#FABFB3" transform="translate(363,337)"/>
<path d="M0 0 C0.66 0 1.32 0 2 0 C4.03435531 3.72965139 5 5.66905042 5 10 C4.34 10 3.68 10 3 10 C2.67 11.65 2.34 13.3 2 15 C1.34 15 0.68 15 0 15 C-0.33 15.99 -0.66 16.98 -1 18 C-1.99 18.33 -2.98 18.66 -4 19 C-4.33 19.99 -4.66 20.98 -5 22 C-6.7421875 23.75390625 -6.7421875 23.75390625 -8.875 25.5625 C-9.57367188 26.16191406 -10.27234375 26.76132813 -10.9921875 27.37890625 C-13 29 -13 29 -16 31 C-14.64763423 28.06120516 -13.10057341 25.70767089 -11 23.25 C-10.484375 22.63640625 -9.96875 22.0228125 -9.4375 21.390625 C-8 20 -8 20 -6 20 C-5.6596875 19.195625 -5.6596875 19.195625 -5.3125 18.375 C-4 16 -4 16 -1.375 13.125 C1.3085416 9.59402421 1.56155716 8.30527153 1 4 C0.56058477 1.73433657 0.56058477 1.73433657 0 0 Z " fill="#F5AA99" transform="translate(188,218)"/>
<path d="M0 0 C-3.16566573 2.11044382 -5.51197415 2.75552077 -9.1875 3.625 C-10.27417969 3.88539062 -11.36085937 4.14578125 -12.48046875 4.4140625 C-13.31191406 4.60742188 -14.14335937 4.80078125 -15 5 C-15.66 7.31 -16.32 9.62 -17 12 C-16.34 12 -15.68 12 -15 12 C-13.9375 13.8125 -13.9375 13.8125 -13 16 C-13.33 16.99 -13.66 17.98 -14 19 C-18 14.25 -18 14.25 -18 12 C-18.66 12 -19.32 12 -20 12 C-20.36866359 6.47004608 -20.36866359 6.47004608 -18.75 4.40625 C-13.39523141 0.10331095 -6.59613266 -0.35978905 0 0 Z " fill="#F47F5C" transform="translate(181,122)"/>
<path d="M0 0 C2.4375 0.75 2.4375 0.75 5 2 C5.8125 4.125 5.8125 4.125 6 6 C6.66 6 7.32 6 8 6 C8.3403125 7.1446875 8.3403125 7.1446875 8.6875 8.3125 C9.77878596 11.18340701 9.77878596 11.18340701 12.5 12.4375 C15.80901283 14.50563302 16.01980214 16.30540808 17 20 C17.63815344 21.34721283 18.29325371 22.68747118 19 24 C17.2925002 22.71937515 15.62626404 21.38232443 14 20 C14 19.34 14 18.68 14 18 C13.13375 17.690625 13.13375 17.690625 12.25 17.375 C9.13996235 15.47442144 7.94032855 13.08169828 6 10 C4.4112208 7.89467189 2.79783123 5.81109137 1.171875 3.734375 C0 2 0 2 0 0 Z " fill="#F48665" transform="translate(127,151)"/>
<path d="M0 0 C7.30154591 -0.22238211 13.9842635 -0.1852294 21 2 C21.33 2.99 21.66 3.98 22 5 C22.66 5 23.32 5 24 5 C23.50769231 11.4 23.50769231 11.4 20.9375 14.4375 C20.298125 14.953125 19.65875 15.46875 19 16 C19.66 12.37 20.32 8.74 21 5 C20.175 4.87625 19.35 4.7525 18.5 4.625 C15.95862792 4.17118356 13.55109376 3.65004204 11.0625 3 C7.38832502 2.05136908 3.76403001 1.47050375 0 1 C0 0.67 0 0.34 0 0 Z " fill="#F7B5A6" transform="translate(298,122)"/>
<path d="M0 0 C0.66 0 1.32 0 2 0 C2 0.66 2 1.32 2 2 C2.99 2.33 3.98 2.66 5 3 C5 3.66 5 4.32 5 5 C5.66 5 6.32 5 7 5 C8.01351664 6.65848177 9.01120795 8.32665961 10 10 C10.721875 10.721875 11.44375 11.44375 12.1875 12.1875 C12.785625 12.785625 13.38375 13.38375 14 14 C14 14.66 14 15.32 14 16 C14.99 16.33 15.98 16.66 17 17 C17 17.66 17 18.32 17 19 C17.66 19 18.32 19 19 19 C20.6875 21.375 20.6875 21.375 22 24 C21.67 24.66 21.34 25.32 21 26 C19.99403703 25.0479279 18.99538437 24.08812654 18 23.125 C17.443125 22.59132813 16.88625 22.05765625 16.3125 21.5078125 C15 20 15 20 15 18 C14.34 18 13.68 18 13 18 C12.38125 16.9171875 12.38125 16.9171875 11.75 15.8125 C10.16643498 13.2674848 9.16523823 12.2017505 6.875 10.4375 C4 8 4 8 3.125 5.6875 C3.063125 4.8521875 3.063125 4.8521875 3 4 C2.34 4 1.68 4 1 4 C0.67 2.68 0.34 1.36 0 0 Z " fill="#F49A88" transform="translate(303,242)"/>
<path d="M0 0 C0.99 0.495 0.99 0.495 2 1 C2 1.66 2 2.32 2 3 C2.99 3 3.98 3 5 3 C5.66 5.31 6.32 7.62 7 10 C7.66 10 8.32 10 9 10 C9 11.65 9 13.3 9 15 C9.99 15 10.98 15 12 15 C12 16.65 12 18.3 12 20 C12.66 20 13.32 20 14 20 C13.67 21.32 13.34 22.64 13 24 C11 22 11 22 10.5 19.9375 C10.335 19.298125 10.17 18.65875 10 18 C9.34 17.67 8.68 17.34 8 17 C6.98152514 15.00934459 5.98482022 13.00751815 5 11 C4.29875 9.989375 3.5975 8.97875 2.875 7.9375 C1.08361787 5.13100133 0.38414771 3.26525557 0 0 Z " fill="#F6A08F" transform="translate(301,301)"/>
<path d="M0 0 C0.68359375 1.640625 0.68359375 1.640625 1 4 C-0.21484375 6.734375 -0.21484375 6.734375 -1.9375 9.75 C-5.24154558 16.021568 -5.57717823 19.4980098 -4.6875 26.4375 C-4.460625 26.953125 -4.23375 27.46875 -4 28 C-3.01 28.33 -2.02 28.66 -1 29 C-1.33 29.66 -1.66 30.32 -2 31 C-2.99 30.67 -3.98 30.34 -5 30 C-5 29.34 -5 28.68 -5 28 C-5.66 28 -6.32 28 -7 28 C-8.00844096 16.42693946 -6.40980254 9.6964615 0 0 Z " fill="#F6B0A2" transform="translate(165,331)"/>
<path d="M0 0 C0.33 0 0.66 0 1 0 C1.25 7.625 1.25 7.625 -1 11 C-1.65537349 17.59228625 -1.2631157 23.77643183 1 30 C1.66 30 2.32 30 3 30 C2.67 30.99 2.34 31.98 2 33 C-1.45504709 29.62148877 -3.31211023 27.44497874 -3.59375 22.5390625 C-3.58848212 20.90075207 -3.55663753 19.26233961 -3.5 17.625 C-3.50257812 16.81289063 -3.50515625 16.00078125 -3.5078125 15.1640625 C-3.41711848 9.50475541 -2.2431639 5.19029945 0 0 Z " fill="#F6B7AA" transform="translate(113,353)"/>
<path d="M0 0 C0 4.01442014 -1.5854233 6.8866712 -4 10 C-5.64991582 10.70710678 -7.31562256 11.37943989 -9 12 C-10.36078035 14.52372901 -10.36078035 14.52372901 -11 17 C-11.66 17 -12.32 17 -13 17 C-13.33 17.99 -13.66 18.98 -14 20 C-14.66 20 -15.32 20 -16 20 C-16 20.66 -16 21.32 -16 22 C-16.66 21.67 -17.32 21.34 -18 21 C-16.68 18.69 -15.36 16.38 -14 14 C-13.34 14 -12.68 14 -12 14 C-12 13.34 -12 12.68 -12 12 C-10.42967997 10.03709996 -9.60085524 9.07752971 -7.0625 8.75 C-3.55591579 7.47487847 -2.6675483 4.22009327 -1 1 C-0.67 0.67 -0.34 0.34 0 0 Z " fill="#F4A08F" transform="translate(340,168)"/>
<path d="M0 0 C0.66 0.33 1.32 0.66 2 1 C0.71656721 3.00573682 -0.5760369 5.00436119 -1.875 7 C-2.23980469 7.57234375 -2.60460937 8.1446875 -2.98046875 8.734375 C-3.93474767 10.19181916 -4.96277587 11.60037225 -6 13 C-6.66 13 -7.32 13 -8 13 C-8.2475 13.78375 -8.495 14.5675 -8.75 15.375 C-10.20924503 18.43941457 -11.05014956 18.61725761 -14 20 C-15.26804566 22.0335948 -15.26804566 22.0335948 -16 24 C-16 20.89448334 -15.4606285 19.64738916 -14 17 C-13.34 17 -12.68 17 -12 17 C-12 16.34 -12 15.68 -12 15 C-11.34 15 -10.68 15 -10 15 C-9.938125 14.443125 -9.87625 13.88625 -9.8125 13.3125 C-8.66639359 10.05050482 -6.45961261 8.40241231 -4 6 C-2.56213727 4.05058996 -1.28961943 2.05383835 0 0 Z " fill="#F49F8C" transform="translate(170,249)"/>
<path d="M0 0 C0.33 0.99 0.66 1.98 1 3 C0.01 4.485 0.01 4.485 -1 6 C-1.66 6 -2.32 6 -3 6 C-3.33 6.99 -3.66 7.98 -4 9 C-4.66 9 -5.32 9 -6 9 C-6 9.99 -6 10.98 -6 12 C-7.61934327 13.7665563 -9.25243935 15.36923177 -11 17 C-12.27477795 18.26687643 -13.54553523 19.53780984 -14.8125 20.8125 C-15.875 21.875 -16.9375 22.9375 -18 24 C-18 20.06111246 -16.71256133 19.26454258 -14.0625 16.4375 C-11.19301173 13.45371254 -11.19301173 13.45371254 -9 10 C-8.34 10 -7.68 10 -7 10 C-7 9.34 -7 8.68 -7 8 C-6.34 8 -5.68 8 -5 8 C-4.9175 7.4225 -4.835 6.845 -4.75 6.25 C-3.79468987 3.3840696 -2.21530827 2.0009236 0 0 Z " fill="#F1836C" transform="translate(316,138)"/>
<path d="M0 0 C3 1 3 1 4.1875 3.3125 C5.34159474 8.5503146 5.15556749 13.65884952 5 19 C4.01 19 3.02 19 2 19 C1.93941406 17.87980469 1.87882812 16.75960938 1.81640625 15.60546875 C1.73198576 14.13280016 1.64733851 12.66014456 1.5625 11.1875 C1.52318359 10.44951172 1.48386719 9.71152344 1.44335938 8.95117188 C1.25618965 5.76928658 1.01279207 3.03837622 0 0 Z " fill="#FACDC4" transform="translate(320,338)"/>
<path d="M0 0 C1.35439668 2.70879335 1.06501451 5.00933268 1 8 C1.99 8.33 2.98 8.66 4 9 C7 12.44444444 7 12.44444444 7 15 C8.32 15.66 9.64 16.32 11 17 C11 17.99 11 18.98 11 20 C6.125 17.375 6.125 17.375 5 14 C4.34 14 3.68 14 3 14 C2.71125 13.360625 2.4225 12.72125 2.125 12.0625 C1.17176549 9.84793921 1.17176549 9.84793921 -1 9 C-1.09765625 2.84765625 -1.09765625 2.84765625 -1 1 C-0.67 0.67 -0.34 0.34 0 0 Z " fill="#F8BEB3" transform="translate(291,222)"/>
<path d="M0 0 C5.23481527 2.09392611 6.75637467 5.81625777 9.08203125 10.625 C10 13 10 13 10 16 C10.99 16.33 11.98 16.66 13 17 C13.94921875 19.06640625 13.94921875 19.06640625 14.6875 21.5625 C14.93886719 22.38878906 15.19023437 23.21507812 15.44921875 24.06640625 C15.63097656 24.70449219 15.81273437 25.34257812 16 26 C13.44971017 24.72485508 13.06918289 23.59658703 12 21 C12 20.01 12 19.02 12 18 C11.01 17.67 10.02 17.34 9 17 C7.8671875 15.2578125 7.8671875 15.2578125 6.875 13.125 C6.54242188 12.42632812 6.20984375 11.72765625 5.8671875 11.0078125 C5 9 5 9 4 6 C3.34 6 2.68 6 2 6 C1.34 4.02 0.68 2.04 0 0 Z " fill="#F6A08E" transform="translate(331,278)"/>
<path d="M0 0 C-1.99222595 2.69536452 -3.04762785 3.00865961 -6.4375 3.625 C-8.2009375 3.810625 -8.2009375 3.810625 -10 4 C-10.721875 4.185625 -11.44375 4.37125 -12.1875 4.5625 C-15.68081847 5.4057148 -19.41326409 5 -23 5 C-21.20991087 2.73819819 -20.2914137 2.05354288 -17.40625 1.5234375 C-15.96765625 1.44996094 -15.96765625 1.44996094 -14.5 1.375 C-9.49541429 1.09248306 -5.03806664 -0.11195704 0 0 Z " fill="#F05223" transform="translate(188,123)"/>
<path d="M0 0 C1 2 1 2 0.29296875 4.2421875 C-0.07183594 5.11101562 -0.43664062 5.97984375 -0.8125 6.875 C-1.16957031 7.73867188 -1.52664062 8.60234375 -1.89453125 9.4921875 C-2.86758977 11.6996206 -3.89750962 13.85488298 -5 16 C-5.66 16 -6.32 16 -7 16 C-6.938125 17.27875 -6.87625 18.5575 -6.8125 19.875 C-6.70703125 22.0546875 -6.70703125 22.0546875 -7 24 C-7.99 24.66 -8.98 25.32 -10 26 C-9.855625 25.29875 -9.71125 24.5975 -9.5625 23.875 C-8.98521625 20.92443859 -8.48304859 17.96729849 -8 15 C-7.34 15 -6.68 15 -6 15 C-5.9175 14.175 -5.835 13.35 -5.75 12.5 C-4.83535064 8.23163631 -3.17748196 3.17748196 0 0 Z " fill="#F18A75" transform="translate(125,321)"/>
<path d="M0 0 C7.08502197 2.74725342 9.30575408 7.40300955 12.71484375 14.00390625 C14 17 14 17 14 20 C10.29041351 16.64370746 8.14784362 12.46090598 6 8 C5.34 8 4.68 8 4 8 C2.21694476 5.36107824 1.00940379 3.02821137 0 0 Z " fill="#F5A08F" transform="translate(286,281)"/>
<path d="M0 0 C0.66 0.33 1.32 0.66 2 1 C1.54109375 1.42410156 1.0821875 1.84820312 0.609375 2.28515625 C-2.46294464 5.22193238 -5.14151765 7.90085188 -7.125 11.6875 C-9.04652316 15.08219091 -10.82653772 16.79620675 -14 19 C-13.731875 18.484375 -13.46375 17.96875 -13.1875 17.4375 C-11.8926039 14.87085712 -11.8926039 14.87085712 -10.6875 11.5625 C-8.91929363 7.82961989 -7.13721688 5.65456813 -4 3 C-3.34 3 -2.68 3 -2 3 C-2 2.34 -2 1.68 -2 1 C-1.34 0.67 -0.68 0.34 0 0 Z " fill="#F7BAAE" transform="translate(203,270)"/>
<path d="M0 0 C0.66 0 1.32 0 2 0 C0.38388846 7.76521885 -1.71627053 14.29503214 -6 21 C-6.33 21 -6.66 21 -7 21 C-7 19.35 -7 17.7 -7 16 C-6.34 16 -5.68 16 -5 16 C-5.04125 15.21625 -5.0825 14.4325 -5.125 13.625 C-5 11 -5 11 -3 9 C-2.3574765 6.93125966 -2.3574765 6.93125966 -2 5 C-1.34 5 -0.68 5 0 5 C0 3.35 0 1.7 0 0 Z " fill="#F9C9BF" transform="translate(167,319)"/>
<path d="M0 0 C1.4585872 0.64525977 2.91686137 1.2912272 4.375 1.9375 C5.59316406 2.47697266 5.59316406 2.47697266 6.8359375 3.02734375 C8.23683785 3.6569903 9.62625284 4.31312642 11 5 C16.04375319 5.30351789 21.09260374 5.308639 26 4 C25.01 4.495 25.01 4.495 24 5 C24 5.66 24 6.32 24 7 C18.72 7 13.44 7 8 7 C8 6.34 8 5.68 8 5 C6.68 5 5.36 5 4 5 C4 4.34 4 3.68 4 3 C2.68 2.67 1.36 2.34 0 2 C0 1.34 0 0.68 0 0 Z " fill="#F9CEC4" transform="translate(224,195)"/>
<path d="M0 0 C0 0.99 0 1.98 0 3 C-1 4 -2 5 -3 6 C-3.96458792 7.73625826 -4.92860449 9.47285935 -5.8828125 11.21484375 C-7.57009596 13.91095752 -9.66168554 15.85654508 -12 18 C-11.625 15.5625 -11.625 15.5625 -11 13 C-10.34 12.67 -9.68 12.34 -9 12 C-8.773125 11.113125 -8.54625 10.22625 -8.3125 9.3125 C-6.55801367 4.88451069 -3.73224087 2.81414953 0 0 Z " fill="#F6B1A4" transform="translate(187,291)"/>
<path d="M0 0 C0.66 0 1.32 0 2 0 C2 0.99 2 1.98 2 3 C0.4221875 3.2165625 0.4221875 3.2165625 -1.1875 3.4375 C-4.15460549 3.87526966 -7.06794366 4.37804866 -10 5 C-10.33 5.99 -10.66 6.98 -11 8 C-11.99 8 -12.98 8 -14 8 C-14 8.66 -14 9.32 -14 10 C-14.99 9.67 -15.98 9.34 -17 9 C-13.12810696 4.05999854 -9.37733787 2.96912047 -3.328125 1.578125 C-1.05395025 1.22590017 -1.05395025 1.22590017 0 0 Z " fill="#FAD1C9" transform="translate(289,370)"/>
<path d="M0 0 C1.99954746 -0.04254356 4.00041636 -0.04080783 6 0 C6.33 0.33 6.66 0.66 7 1 C8.010625 1.103125 9.02125 1.20625 10.0625 1.3125 C14.61320016 2.1070667 18.00474643 3.76888437 22 6 C17.84228506 7.31538327 15.1120703 6.34433068 11 5 C11 4.34 11 3.68 11 3 C9.01432292 2.8046875 7.02864583 2.609375 5.04296875 2.4140625 C3 2 3 2 0 0 Z " fill="#F38E7A" transform="translate(181,367)"/>
<path d="M0 0 C0.66 0.99 1.32 1.98 2 3 C1.34 3.66 0.68 4.32 0 5 C-0.99 5 -1.98 5 -3 5 C-3.0825 5.7425 -3.165 6.485 -3.25 7.25 C-4.1396946 10.51221354 -5.48503749 11.80954878 -8 14 C-8.66 13.67 -9.32 13.34 -10 13 C-3.84965831 3.40546697 -3.84965831 3.40546697 0 0 Z " fill="#EA4626" transform="translate(203,272)"/>
<path d="M0 0 C1.98 0.99 3.96 1.98 6 3 C6 3.66 6 4.32 6 5 C6.66 5 7.32 5 8 5 C8 5.99 8 6.98 8 8 C8.66 8 9.32 8 10 8 C10 8.66 10 9.32 10 10 C10.66 10 11.32 10 12 10 C11.67 11.32 11.34 12.64 11 14 C8.47411298 11.63707344 7.11179163 10.33537489 6 7 C5.175 6.525625 4.35 6.05125 3.5 5.5625 C1 4 1 4 0.1875 1.8125 C0.125625 1.214375 0.06375 0.61625 0 0 Z " fill="#F48263" transform="translate(168,143)"/>
<path d="M0 0 C1.485 0.99 1.485 0.99 3 2 C3 2.66 3 3.32 3 4 C3.66 4 4.32 4 5 4 C6.02611949 5.65071396 7.02308143 7.31970006 8 9 C8.53625 9.495 9.0725 9.99 9.625 10.5 C11.4724141 12.51536084 11.64031493 14.33833049 12 17 C11.01 16.34 10.02 15.68 9 15 C9 14.34 9 13.68 9 13 C8.34 13 7.68 13 7 13 C4 8.61538462 4 8.61538462 4 6 C3.34 6 2.68 6 2 6 C1.34 4.02 0.68 2.04 0 0 Z " fill="#F8A48A" transform="translate(115,134)"/>
<path d="M0 0 C2.475 0.495 2.475 0.495 5 1 C5 1.66 5 2.32 5 3 C5.66 3 6.32 3 7 3 C7 4.32 7 5.64 7 7 C7.99 7 8.98 7 10 7 C10.66 8.98 11.32 10.96 12 13 C11.01 12.34 10.02 11.68 9 11 C9 10.34 9 9.68 9 9 C8.01 9 7.02 9 6 9 C4.5 6.75 4.5 6.75 3 4 C2.01755155 2.65368175 1.02323436 1.31558703 0 0 Z " fill="#F7B4A7" transform="translate(274,268)"/>
<path d="M0 0 C1.32 0.33 2.64 0.66 4 1 C4 1.99 4 2.98 4 4 C4.66 4 5.32 4 6 4 C6 6.97 6 9.94 6 13 C5.34 13 4.68 13 4 13 C4 13.66 4 14.32 4 15 C3.01 14.67 2.02 14.34 1 14 C1.66 14 2.32 14 3 14 C3 10.37 3 6.74 3 3 C2.01 2.67 1.02 2.34 0 2 C0 1.34 0 0.68 0 0 Z " fill="#F2826C" transform="translate(208,377)"/>
<path d="M0 0 C3.31225448 1.65612724 3.76982575 4.64497931 5 8 C5.1875 10.9375 5.1875 10.9375 5 13 C5.66 13 6.32 13 7 13 C7 15.31 7 17.62 7 20 C6.67 20 6.34 20 6 20 C5.81824219 19.43152344 5.63648438 18.86304688 5.44921875 18.27734375 C4.21882057 14.49781294 2.96426532 10.80565262 1.3125 7.1875 C0 4 0 4 0 0 Z " fill="#F5826B" transform="translate(363,337)"/>
<path d="M0 0 C0.74056641 0.00902344 1.48113281 0.01804688 2.24414062 0.02734375 C4.05873467 0.05075787 5.87316071 0.08662385 7.6875 0.125 C7.6875 0.455 7.6875 0.785 7.6875 1.125 C6.67429688 1.24617187 5.66109375 1.36734375 4.6171875 1.4921875 C3.2655849 1.66113783 1.91402458 1.83042669 0.5625 2 C-0.10265625 2.07863281 -0.7678125 2.15726563 -1.453125 2.23828125 C-5.61628644 2.76888026 -9.37921292 3.66686554 -13.3125 5.125 C-13.3125 4.135 -13.3125 3.145 -13.3125 2.125 C-8.90220217 -0.08449832 -4.82309676 -0.1120648 0 0 Z " fill="#F6B6A9" transform="translate(238.3125,248.875)"/>
<path d="M0 0 C0.99 0 1.98 0 3 0 C3.08706892 3.27066566 3.14041241 6.54103365 3.1875 9.8125 C3.21263672 10.74126953 3.23777344 11.67003906 3.26367188 12.62695312 C3.27333984 13.51962891 3.28300781 14.41230469 3.29296875 15.33203125 C3.3086792 16.15421143 3.32438965 16.9763916 3.34057617 17.82348633 C2.92566921 20.47502434 2.04470249 21.33263592 0 23 C0.16242188 22.15824219 0.32484375 21.31648438 0.4921875 20.44921875 C1.02157819 16.85343431 1.13278747 13.44535672 1.125 9.8125 C1.12886719 7.99685547 1.12886719 7.99685547 1.1328125 6.14453125 C1.14363859 2.97106051 1.14363859 2.97106051 0 0 Z " fill="#F28C78" transform="translate(372,98)"/>
<path d="M0 0 C4 1.33333333 8 2.66666667 12 4 C12 4.66 12 5.32 12 6 C13.32 6.66 14.64 7.32 16 8 C15.01 8.495 15.01 8.495 14 9 C11.875 8.0625 11.875 8.0625 10 7 C10 6.34 10 5.68 10 5 C8.9171875 4.8453125 8.9171875 4.8453125 7.8125 4.6875 C4.74061475 3.93659472 2.59814146 2.78158272 0 1 C0 0.67 0 0.34 0 0 Z " fill="#F49987" transform="translate(248,250)"/>
<path d="M0 0 C0.33 1.32 0.66 2.64 1 4 C0.34 4 -0.32 4 -1 4 C-1 5.65 -1 7.3 -1 9 C-1.66 9 -2.32 9 -3 9 C-3.12375 9.804375 -3.2475 10.60875 -3.375 11.4375 C-3.58125 12.283125 -3.7875 13.12875 -4 14 C-4.99 14.495 -4.99 14.495 -6 15 C-5.1601732 9.45714314 -3.10176924 4.65265386 0 0 Z " fill="#F07B64" transform="translate(172,315)"/>
<path d="M0 0 C0.66 0 1.32 0 2 0 C2 0.66 2 1.32 2 2 C2.99 2.33 3.98 2.66 5 3 C5 3.66 5 4.32 5 5 C5.66 5 6.32 5 7 5 C9.04169485 7.90548882 10 9.40142046 10 13 C4.21538462 8.56923077 4.21538462 8.56923077 3.125 5.6875 C3.063125 4.8521875 3.063125 4.8521875 3 4 C2.34 4 1.68 4 1 4 C0.67 2.68 0.34 1.36 0 0 Z " fill="#F6AA9B" transform="translate(303,242)"/>
<path d="M0 0 C2.81872737 0.38878998 3.77195598 0.70810365 5.5625 3 C6.036875 3.66 6.51125 4.32 7 5 C7.99 5.33 8.98 5.66 10 6 C10 6.66 10 7.32 10 8 C11.32 8.66 12.64 9.32 14 10 C13.01 10.495 13.01 10.495 12 11 C9.875 10.0625 9.875 10.0625 8 9 C8 8.34 8 7.68 8 7 C7.0409375 6.566875 7.0409375 6.566875 6.0625 6.125 C4 5 4 5 3 3 C2.01 2.67 1.02 2.34 0 2 C0 1.34 0 0.68 0 0 Z " fill="#F4967F" transform="translate(199,176)"/>
<path d="M0 0 C-4.90924297 3.92739438 -7.73920552 4.43177893 -14 4 C-10.54865513 0.8362672 -4.51151675 -2.25575838 0 0 Z " fill="#F9C3B9" transform="translate(316,364)"/>
<path d="M0 0 C-3.44919626 2.29946417 -6.1381022 2.80769035 -10.1875 3.625 C-12.09595703 4.01558594 -12.09595703 4.01558594 -14.04296875 4.4140625 C-15.50669922 4.70410156 -15.50669922 4.70410156 -17 5 C-17 4.34 -17 3.68 -17 3 C-11.10261508 0.70657253 -6.33393082 -0.34548714 0 0 Z " fill="#F7A58C" transform="translate(181,122)"/>
<path d="M0 0 C0.33 0.99 0.66 1.98 1 3 C0.360625 3.556875 -0.27875 4.11375 -0.9375 4.6875 C-3.19680987 7.22066561 -3.63149047 8.68341424 -4 12 C-4.66 12 -5.32 12 -6 12 C-6 12.99 -6 13.98 -6 15 C-6.66 14.67 -7.32 14.34 -8 14 C-6.58036591 8.32146365 -3.60636039 4.46825784 0 0 Z " fill="#F9D0C7" transform="translate(156,269)"/>
<path d="M0 0 C0.6875 1.8125 0.6875 1.8125 1 4 C-0.84159673 6.48615558 -2.00470711 7.00156904 -5 8 C-5.33 8.66 -5.66 9.32 -6 10 C-6.66 9.67 -7.32 9.34 -8 9 C-7.04663979 7.68388323 -6.08714226 6.37221039 -5.125 5.0625 C-4.59132813 4.33160156 -4.05765625 3.60070312 -3.5078125 2.84765625 C-2 1 -2 1 0 0 Z " fill="#F28F7B" transform="translate(321,190)"/>
<path d="M0 0 C0.67578125 1.67578125 0.67578125 1.67578125 1 4 C-0.14453125 6.54296875 -0.14453125 6.54296875 -1.8125 9.1875 C-2.62654297 10.50814453 -2.62654297 10.50814453 -3.45703125 11.85546875 C-5 14 -5 14 -7 15 C-5.80420965 9.91789099 -4.46217303 7.02058803 -1 3 C-0.67 2.01 -0.34 1.02 0 0 Z " fill="#F28975" transform="translate(369,126)"/>
<path d="M0 0 C0 6.65276203 -1.04339953 10.7670768 -5 16 C-6 14 -6 14 -5.29296875 11.25 C-4.92816406 10.1775 -4.56335938 9.105 -4.1875 8 C-3.83042969 6.9275 -3.47335938 5.855 -3.10546875 4.75 C-2 2 -2 2 0 0 Z " fill="#F8C4B9" transform="translate(129,314)"/>
<path d="M0 0 C4.38332057 0.82187261 8.67940177 1.90154282 13 3 C10 5 10 5 7.7734375 4.609375 C6.98195313 4.32578125 6.19046875 4.0421875 5.375 3.75 C4.57835938 3.47671875 3.78171875 3.2034375 2.9609375 2.921875 C1 2 1 2 0 0 Z " fill="#F9CAC0" transform="translate(118,388)"/>
<path d="M0 0 C0.65234375 1.734375 0.65234375 1.734375 1 4 C0.00390625 6.140625 0.00390625 6.140625 -1.4375 8.25 C-1.91058594 8.95640625 -2.38367188 9.6628125 -2.87109375 10.390625 C-3.24363281 10.92171875 -3.61617188 11.4528125 -4 12 C-5.33332095 9.3333581 -4.67102033 7.83319697 -4 5 C-3.34 5 -2.68 5 -2 5 C-1.7834375 4.0409375 -1.7834375 4.0409375 -1.5625 3.0625 C-1 1 -1 1 0 0 Z " fill="#F9CCC3" transform="translate(363,134)"/>
<path d="M0 0 C0.33 0.99 0.66 1.98 1 3 C0.01 4.485 0.01 4.485 -1 6 C-1.66 6 -2.32 6 -3 6 C-3.33 6.99 -3.66 7.98 -4 9 C-4.66 9 -5.32 9 -6 9 C-6 9.99 -6 10.98 -6 12 C-6.66 11.67 -7.32 11.34 -8 11 C-7.67 10.01 -7.34 9.02 -7 8 C-6.34 8 -5.68 8 -5 8 C-4.9175 7.4225 -4.835 6.845 -4.75 6.25 C-3.79468987 3.3840696 -2.21530827 2.0009236 0 0 Z " fill="#F4A08F" transform="translate(316,138)"/>
<path d="M0 0 C0.92425781 0.46986328 0.92425781 0.46986328 1.8671875 0.94921875 C3.96999776 2.02605238 3.96999776 2.02605238 6.125 2.8125 C8.67232367 4.42580499 9.1119086 6.18771058 10 9 C7.27425729 8.62669176 6.19177915 8.20805399 4.296875 6.15234375 C3.53117187 5.05599609 3.53117187 5.05599609 2.75 3.9375 C2.22921875 3.20402344 1.7084375 2.47054688 1.171875 1.71484375 C0.78515625 1.14894531 0.3984375 0.58304687 0 0 Z " fill="#F5A090" transform="translate(264,259)"/>
<path d="M0 0 C2.31 0.33 4.62 0.66 7 1 C7 1.66 7 2.32 7 3 C11.455 2.505 11.455 2.505 16 2 C15.67 2.66 15.34 3.32 15 4 C4.27475338 4.56229448 4.27475338 4.56229448 0 1 C0 0.67 0 0.34 0 0 Z " fill="#EE6A4E" transform="translate(230,197)"/>
<path d="M0 0 C2.475 0.495 2.475 0.495 5 1 C5.33 1.99 5.66 2.98 6 4 C6.66 4 7.32 4 8 4 C8.33 5.32 8.66 6.64 9 8 C8.01 7.67 7.02 7.34 6 7 C6 6.34 6 5.68 6 5 C5.34 5 4.68 5 4 5 C4 4.34 4 3.68 4 3 C2.68 2.34 1.36 1.68 0 1 C0 0.67 0 0.34 0 0 Z " fill="#F27E60" transform="translate(190,168)"/>
<path d="M0 0 C1.98 0.66 3.96 1.32 6 2 C6 2.66 6 3.32 6 4 C7.32 4.66 8.64 5.32 10 6 C8 7 8 7 5.5625 6.375 C2.48364519 4.72293156 1.54100704 3.08201409 0 0 Z " fill="#F4A08D" transform="translate(213,187)"/>
<path d="M0 0 C3.32310483 1.16757737 5.83361132 2.14948857 8 5 C8 5.99 8 6.98 8 8 C7.01 8 6.02 8 5 8 C0 2.65116279 0 2.65116279 0 0 Z " fill="#F8B4A0" transform="translate(146,175)"/>
<path d="M0 0 C2.375 0.625 2.375 0.625 5 2 C6.1875 4.875 6.1875 4.875 7 8 C7.63815344 9.34721283 8.29325371 10.68747118 9 12 C4.33757858 8.59769248 1.82626485 5.47879455 0 0 Z " fill="#F8B6A3" transform="translate(137,163)"/>
<path d="M0 0 C1.1055189 0.93590504 2.20935453 1.87379858 3.3125 2.8125 C3.92738281 3.33457031 4.54226562 3.85664063 5.17578125 4.39453125 C6.85424679 5.87172469 8.43882034 7.40039131 10 9 C9.67 9.66 9.34 10.32 9 11 C8.60167969 10.57847656 8.20335937 10.15695313 7.79296875 9.72265625 C7.26316406 9.17480469 6.73335937 8.62695312 6.1875 8.0625 C5.66542969 7.51722656 5.14335937 6.97195312 4.60546875 6.41015625 C2.94187802 4.76480908 2.94187802 4.76480908 0 4 C0 2.68 0 1.36 0 0 Z " fill="#F6A48E" transform="translate(180,157)"/>
<path d="M0 0 C-1.35021826 4.41889613 -3.26115668 6.34345343 -7 9 C-7 7.68 -7 6.36 -7 5 C-6.34 5 -5.68 5 -5 5 C-5 4.34 -5 3.68 -5 3 C-2.46153846 0 -2.46153846 0 0 0 Z " fill="#EB4626" transform="translate(329,185)"/>
<path d="M0 0 C2.4375 0.75 2.4375 0.75 5 2 C5.8125 4.125 5.8125 4.125 6 6 C6.66 6 7.32 6 8 6 C7.67 6.99 7.34 7.98 7 9 C5.82737096 7.88121617 4.66204862 6.75476949 3.5 5.625 C2.8503125 4.99851563 2.200625 4.37203125 1.53125 3.7265625 C0 2 0 2 0 0 Z " fill="#F9C0AE" transform="translate(127,151)"/>
<path d="M0 0 C2.33333823 2.12121657 3.9148886 4.01594365 5 7 C4.625 9.25 4.625 9.25 4 11 C3.34 10.67 2.68 10.34 2 10 C2 8.02 2 6.04 2 4 C1.34 4 0.68 4 0 4 C0 2.68 0 1.36 0 0 Z " fill="#F79372" transform="translate(110,123)"/>
<path d="M0 0 C0.33 0.66 0.66 1.32 1 2 C0.01 2 -0.98 2 -2 2 C-2.12375 2.556875 -2.2475 3.11375 -2.375 3.6875 C-3.05976855 6.22114364 -3.99133763 8.57921032 -5 11 C-5.9659657 8.39189261 -6.02770914 7.10579853 -5.3125 4.375 C-3.83374226 1.69915265 -2.82249951 1.03491649 0 0 Z " fill="#F7845B" transform="translate(112,94)"/>
<path d="M0 0 C2.64 0 5.28 0 8 0 C7.360625 0.309375 6.72125 0.61875 6.0625 0.9375 C4.06389179 1.8345163 4.06389179 1.8345163 3 3 C0.32941149 3.14115161 -2.32432238 3.04247107 -5 3 C-5 2.67 -5 2.34 -5 2 C-3.35 2 -1.7 2 0 2 C0 1.34 0 0.68 0 0 Z " fill="#F69E8C" transform="translate(294,367)"/>
<path d="M0 0 C0.33 0 0.66 0 1 0 C1.36923077 7.50769231 1.36923077 7.50769231 -0.5 10 C-0.995 10.33 -1.49 10.66 -2 11 C-2.19622241 6.78121808 -1.80230168 3.82989106 0 0 Z " fill="#F9CFC7" transform="translate(113,353)"/>
<path d="M0 0 C0.75 1.5625 0.75 1.5625 1 4 C-0.13084437 6.50286409 -1.52139516 8.67007722 -3 11 C-3.75 9.4375 -3.75 9.4375 -4 7 C-2.86915563 4.49713591 -1.47860484 2.32992278 0 0 Z " fill="#F07A63" transform="translate(165,331)"/>
<path d="M0 0 C2.32240046 2.85021875 3.93906527 5.46355091 5 9 C4.625 11.3125 4.625 11.3125 4 13 C1.12420019 8.68630028 0 5.19265239 0 0 Z " fill="#F8B6A8" transform="translate(350,309)"/>
<path d="M0 0 C0.33 0.99 0.66 1.98 1 3 C-0.875 6.1875 -0.875 6.1875 -3 9 C-3.33 9 -3.66 9 -4 9 C-4 7.35 -4 5.7 -4 4 C-3.34 4 -2.68 4 -2 4 C-2 3.01 -2 2.02 -2 1 C-1.34 0.67 -0.68 0.34 0 0 Z " fill="#F8CBC1" transform="translate(174,309)"/>
<path d="M0 0 C0.66 0 1.32 0 2 0 C4.03435531 3.72965139 5 5.66905042 5 10 C4.34 10 3.68 10 3 10 C3 8.02 3 6.04 3 4 C2.01 3.67 1.02 3.34 0 3 C0 2.01 0 1.02 0 0 Z " fill="#FCE3DD" transform="translate(188,218)"/>
<path d="M0 0 C0.75 1.625 0.75 1.625 1 4 C-0.9375 7.25 -0.9375 7.25 -3 10 C-3.75 8.375 -3.75 8.375 -4 6 C-2.0625 2.75 -2.0625 2.75 0 0 Z " fill="#ED6246" transform="translate(374,118)"/>
<path d="M0 0 C0.66 0.33 1.32 0.66 2 1 C0.02 3.31 -1.96 5.62 -4 8 C-4.33 6.68 -4.66 5.36 -5 4 C-4.34 4 -3.68 4 -3 4 C-3 3.34 -3 2.68 -3 2 C-2.01 1.34 -1.02 0.68 0 0 Z " fill="#FDE9E2" transform="translate(116,92)"/>
<path d="M0 0 C0 3.64741442 -0.86836038 6.54221228 -2 10 C-2.66 10.66 -3.32 11.32 -4 12 C-4 10.35 -4 8.7 -4 7 C-3.34 7 -2.68 7 -2 7 C-2.04125 6.21625 -2.0825 5.4325 -2.125 4.625 C-2 2 -2 2 0 0 Z " fill="#FBE0DB" transform="translate(164,328)"/>
<path d="M0 0 C0.99 0 1.98 0 3 0 C3 1.65 3 3.3 3 5 C3.66 5 4.32 5 5 5 C4.67 6.32 4.34 7.64 4 9 C1.3144406 6.3144406 0.93950026 3.62378672 0 0 Z " fill="#F9C3B9" transform="translate(310,316)"/>
<path d="M0 0 C0.66 0.99 1.32 1.98 2 3 C0.02 4.32 -1.96 5.64 -4 7 C-4.66 6.67 -5.32 6.34 -6 6 C-4.02 4.02 -2.04 2.04 0 0 Z " fill="#EE6A50" transform="translate(203,272)"/>
<path d="M0 0 C0.66 0 1.32 0 2 0 C4.3208055 3.2491277 5.43697042 6.05879291 6 10 C2.79851787 7.86567858 2.47793261 7.31580104 1.3125 3.875 C1.06113281 3.15054687 0.80976563 2.42609375 0.55078125 1.6796875 C0.36902344 1.12539063 0.18726563 0.57109375 0 0 Z " fill="#F59B89" transform="translate(325,268)"/>
<path d="M0 0 C2.0625 0.4375 2.0625 0.4375 4 1 C3.34 1 2.68 1 2 1 C2 1.66 2 2.32 2 3 C-1.96 3 -5.92 3 -10 3 C-10 2.67 -10 2.34 -10 2 C-9.04287109 1.90912109 -9.04287109 1.90912109 -8.06640625 1.81640625 C-6.82697266 1.69072266 -6.82697266 1.69072266 -5.5625 1.5625 C-4.73878906 1.48128906 -3.91507813 1.40007812 -3.06640625 1.31640625 C-1.01337975 1.21069185 -1.01337975 1.21069185 0 0 Z " fill="#F5AA9A" transform="translate(246,199)"/>
<path d="M0 0 C1.21236328 0.04060547 1.21236328 0.04060547 2.44921875 0.08203125 C3.06410156 0.11683594 3.67898437 0.15164062 4.3125 0.1875 C4.3125 0.5175 4.3125 0.8475 4.3125 1.1875 C0.1928623 2.47993536 -3.35581683 3.45002625 -7.6875 3.1875 C-5.26849268 0.20484049 -3.789448 -0.16475861 0 0 Z " fill="#F15A2D" transform="translate(172.6875,124.8125)"/>
<path d="M0 0 C3.35693737 2.23795825 3.91970563 3.2189697 5 7 C4.625 9.3125 4.625 9.3125 4 11 C1.6870518 8.6870518 1.50419025 7.52095125 0.875 4.375 C0.70742188 3.55773437 0.53984375 2.74046875 0.3671875 1.8984375 C0.24601562 1.27195312 0.12484375 0.64546875 0 0 Z " fill="#F7BDB1" transform="translate(369,94)"/>
<path d="M0 0 C0.66 0.33 1.32 0.66 2 1 C2 1.66 2 2.32 2 3 C1.34 3 0.68 3 0 3 C-0.28875 3.639375 -0.5775 4.27875 -0.875 4.9375 C-2 7 -2 7 -4 8 C-3.67 6.35 -3.34 4.7 -3 3 C-2.34 3 -1.68 3 -1 3 C-0.67 2.01 -0.34 1.02 0 0 Z " fill="#FE7931" transform="translate(21,37)"/>
<path d="M0 0 C1.64767247 0.28109113 3.29313145 0.57518526 4.9375 0.875 C5.85402344 1.03742188 6.77054688 1.19984375 7.71484375 1.3671875 C8.46894531 1.57601563 9.22304687 1.78484375 10 2 C10.33 2.66 10.66 3.32 11 4 C10.29875 3.855625 9.5975 3.71125 8.875 3.5625 C5.92443859 2.98521625 2.96729849 2.48304859 0 2 C0 1.34 0 0.68 0 0 Z " fill="#F59F8E" transform="translate(192,370)"/>
<path d="M0 0 C0.66 0 1.32 0 2 0 C0.375 6.75 0.375 6.75 -3 9 C-2.44271087 5.65626525 -1.64826111 2.96687001 0 0 Z " fill="#FF6A26" transform="translate(9,55)"/>
<path d="M0 0 C0.33 0.99 0.66 1.98 1 3 C0.67 3.66 0.34 4.32 0 5 C-0.66 5 -1.32 5 -2 5 C-2.33 5.99 -2.66 6.98 -3 8 C-3.66 7.01 -4.32 6.02 -5 5 C-4.34 5 -3.68 5 -3 5 C-2.67 4.01 -2.34 3.02 -2 2 C-1.34 2 -0.68 2 0 2 C0 1.34 0 0.68 0 0 Z " fill="#FE4812" transform="translate(462,435)"/>
</svg>
